<?xml version="1.0" encoding="UTF-8" standalone="no"?><svg xmlns="http://www.w3.org/2000/svg" xmlns:xlink="http://www.w3.org/1999/xlink" contentScriptType="application/ecmascript" contentStyleType="text/css" height="572px" preserveAspectRatio="none" style="width:827px;height:572px;background:#FFFFFF;" version="1.1" viewBox="0 0 827 572" width="827.2px" zoomAndPan="magnify"><defs><filter height="300%" id="f31fv9vhlayvn" width="300%" x="-1" y="-1"><feGaussianBlur result="blurOut" stdDeviation="1.6000000000000003"/><feColorMatrix in="blurOut" result="blurOut2" type="matrix" values="0 0 0 0 0 0 0 0 0 0 0 0 0 0 0 0 0 0 .4 0"/><feOffset dx="3.2000000000000006" dy="3.2000000000000006" in="blurOut2" result="blurOut3"/><feBlend in="SourceGraphic" in2="blurOut3" mode="normal"/></filter></defs><g><!--MD5=[435c65a0bab2a1d04bc88e370aaa4382]
entity OrderRepository--><path d="M4.8,530.8 C4.8,522.8 54.8,522.8 54.8,522.8 C54.8,522.8 104.8,522.8 104.8,530.8 L104.8,552.0875 C104.8,560.0875 54.8,560.0875 54.8,560.0875 C54.8,560.0875 4.8,560.0875 4.8,552.0875 L4.8,530.8 " fill="#FFFFFF" filter="url(#f31fv9vhlayvn)" style="stroke:#000000;stroke-width:1.2000000000000002;"/><path d="M4.8,530.8 C4.8,538.8 54.8,538.8 54.8,538.8 C54.8,538.8 104.8,538.8 104.8,530.8 " fill="none" style="stroke:#000000;stroke-width:1.2000000000000002;"/><text fill="#000000" font-family="sans-serif" font-size="11.2" lengthAdjust="spacing" textLength="84" x="12.8" y="553.6266">OrderRepository</text><!--MD5=[dfccfb5894388a46eaa5d679d3ea0882]
entity ClientRepository--><path d="M150,530.8 C150,522.8 199.6,522.8 199.6,522.8 C199.6,522.8 249.2,522.8 249.2,530.8 L249.2,552.0875 C249.2,560.0875 199.6,560.0875 199.6,560.0875 C199.6,560.0875 150,560.0875 150,552.0875 L150,530.8 " fill="#FFFFFF" filter="url(#f31fv9vhlayvn)" style="stroke:#000000;stroke-width:1.2000000000000002;"/><path d="M150,530.8 C150,538.8 199.6,538.8 199.6,538.8 C199.6,538.8 249.2,538.8 249.2,530.8 " fill="none" style="stroke:#000000;stroke-width:1.2000000000000002;"/><text fill="#000000" font-family="sans-serif" font-size="11.2" lengthAdjust="spacing" textLength="83.2" x="158" y="553.6266">ClientRepository</text><!--MD5=[f4ecc8f4bd9544a4e59fa7ea999fa228]
entity ProductRepository--><path d="M286.4,530.8 C286.4,522.8 341.2,522.8 341.2,522.8 C341.2,522.8 396,522.8 396,530.8 L396,552.0875 C396,560.0875 341.2,560.0875 341.2,560.0875 C341.2,560.0875 286.4,560.0875 286.4,552.0875 L286.4,530.8 " fill="#FFFFFF" filter="url(#f31fv9vhlayvn)" style="stroke:#000000;stroke-width:1.2000000000000002;"/><path d="M286.4,530.8 C286.4,538.8 341.2,538.8 341.2,538.8 C341.2,538.8 396,538.8 396,530.8 " fill="none" style="stroke:#000000;stroke-width:1.2000000000000002;"/><text fill="#000000" font-family="sans-serif" font-size="11.2" lengthAdjust="spacing" textLength="93.6" x="294.4" y="553.6266">ProductRepository</text><!--MD5=[c7e08fff4246c00604e92343bbd55e1a]
class RegisterClientOrderUI--><rect codeLine="5" fill="#FEFECE" filter="url(#f31fv9vhlayvn)" height="38.4" id="RegisterClientOrderUI" style="stroke:#A80036;stroke-width:1.2000000000000002;" width="123.2" x="566" y="5.6"/><ellipse cx="578" cy="18.4" fill="#ADD1B2" rx="8.8" ry="8.8" style="stroke:#A80036;stroke-width:0.8000000000000002;"/><path d="M579.6,15.6 Q579.7625,15.2 579.95,15 Q580.1375,14.8 580.35,14.8 Q580.725,14.8 580.9625,15.025 Q581.2,15.25 581.2,15.775 L581.2,17.025 Q581.2,17.55 580.975,17.775 Q580.75,18 580.4,18 Q580.0875,18 579.8875,17.8625 Q579.6875,17.725 579.6,17.3625 Q579.5625,17.1125 579.425,16.975 Q579.175,16.7125 578.725,16.5625 Q578.275,16.4 577.825,16.4 Q577.2625,16.4 576.7875,16.625 Q576.325,16.85 575.9625,17.35 Q575.6,17.85 575.6,18.5375 L575.6,19.275 Q575.6,20.1 576.275,20.65 Q576.95,21.2 578.15,21.2 Q578.8625,21.2 579.3625,21.0375 Q579.65,20.95 579.975,20.6625 Q580.1875,20.5 580.3,20.45 Q580.4125,20.4 580.55,20.4 Q580.8125,20.4 581,20.6125 Q581.2,20.8125 581.2,21.1 Q581.2,21.375 580.925,21.7 Q580.525,22.175 579.8875,22.4375 Q579.05,22.8 578.025,22.8 Q576.825,22.8 575.8625,22.325 Q575.0875,21.95 574.5375,21.1375 Q574,20.325 574,19.3625 L574,18.4875 Q574,17.4875 574.475,16.6125 Q574.9625,15.7375 575.8,15.275 Q576.65,14.8 577.6,14.8 Q578.175,14.8 578.675,15 Q579.175,15.2 579.6,15.6 Z " fill="#000000"/><text fill="#000000" font-family="sans-serif" font-size="9.6" lengthAdjust="spacing" textLength="97.6" x="589.2" y="22.3281">RegisterClientOrderUI</text><line style="stroke:#A80036;stroke-width:1.2000000000000002;" x1="566.8" x2="688.4" y1="31.2" y2="31.2"/><line style="stroke:#A80036;stroke-width:1.2000000000000002;" x1="566.8" x2="688.4" y1="37.6" y2="37.6"/><!--MD5=[287d3522cbcc62705624e6de94e95a6b]
class ViewProductCatalogUI--><rect codeLine="6" fill="#FEFECE" filter="url(#f31fv9vhlayvn)" height="38.4" id="ViewProductCatalogUI" style="stroke:#A80036;stroke-width:1.2000000000000002;" width="124" x="565.6" y="174"/><ellipse cx="577.6" cy="186.8" fill="#ADD1B2" rx="8.8" ry="8.8" style="stroke:#A80036;stroke-width:0.8000000000000002;"/><path d="M579.2,184 Q579.3625,183.6 579.55,183.4 Q579.7375,183.2 579.95,183.2 Q580.325,183.2 580.5625,183.425 Q580.8,183.65 580.8,184.175 L580.8,185.425 Q580.8,185.95 580.575,186.175 Q580.35,186.4 580,186.4 Q579.6875,186.4 579.4875,186.2625 Q579.2875,186.125 579.2,185.7625 Q579.1625,185.5125 579.025,185.375 Q578.775,185.1125 578.325,184.9625 Q577.875,184.8 577.425,184.8 Q576.8625,184.8 576.3875,185.025 Q575.925,185.25 575.5625,185.75 Q575.2,186.25 575.2,186.9375 L575.2,187.675 Q575.2,188.5 575.875,189.05 Q576.55,189.6 577.75,189.6 Q578.4625,189.6 578.9625,189.4375 Q579.25,189.35 579.575,189.0625 Q579.7875,188.9 579.9,188.85 Q580.0125,188.8 580.15,188.8 Q580.4125,188.8 580.6,189.0125 Q580.8,189.2125 580.8,189.5 Q580.8,189.775 580.525,190.1 Q580.125,190.575 579.4875,190.8375 Q578.65,191.2 577.625,191.2 Q576.425,191.2 575.4625,190.725 Q574.6875,190.35 574.1375,189.5375 Q573.6,188.725 573.6,187.7625 L573.6,186.8875 Q573.6,185.8875 574.075,185.0125 Q574.5625,184.1375 575.4,183.675 Q576.25,183.2 577.2,183.2 Q577.775,183.2 578.275,183.4 Q578.775,183.6 579.2,184 Z " fill="#000000"/><text fill="#000000" font-family="sans-serif" font-size="9.6" lengthAdjust="spacing" textLength="98.4" x="588.8" y="190.7281">ViewProductCatalogUI</text><line style="stroke:#A80036;stroke-width:1.2000000000000002;" x1="566.4" x2="688.8" y1="199.6" y2="199.6"/><line style="stroke:#A80036;stroke-width:1.2000000000000002;" x1="566.4" x2="688.8" y1="206" y2="206"/><!--MD5=[67c7b2b6e200fd5fbf3e0fb651d1ac94]
class RegisterClientOrderController--><rect codeLine="41" fill="#FEFECE" filter="url(#f31fv9vhlayvn)" height="104.8125" id="RegisterClientOrderController" style="stroke:#A80036;stroke-width:1.2000000000000002;" width="440.8" x="96.8" y="140.8"/><ellipse cx="248.2" cy="153.6" fill="#ADD1B2" rx="8.8" ry="8.8" style="stroke:#A80036;stroke-width:0.8000000000000002;"/><path d="M249.8,150.8 Q249.9625,150.4 250.15,150.2 Q250.3375,150 250.55,150 Q250.925,150 251.1625,150.225 Q251.4,150.45 251.4,150.975 L251.4,152.225 Q251.4,152.75 251.175,152.975 Q250.95,153.2 250.6,153.2 Q250.2875,153.2 250.0875,153.0625 Q249.8875,152.925 249.8,152.5625 Q249.7625,152.3125 249.625,152.175 Q249.375,151.9125 248.925,151.7625 Q248.475,151.6 248.025,151.6 Q247.4625,151.6 246.9875,151.825 Q246.525,152.05 246.1625,152.55 Q245.8,153.05 245.8,153.7375 L245.8,154.475 Q245.8,155.3 246.475,155.85 Q247.15,156.4 248.35,156.4 Q249.0625,156.4 249.5625,156.2375 Q249.85,156.15 250.175,155.8625 Q250.3875,155.7 250.5,155.65 Q250.6125,155.6 250.75,155.6 Q251.0125,155.6 251.2,155.8125 Q251.4,156.0125 251.4,156.3 Q251.4,156.575 251.125,156.9 Q250.725,157.375 250.0875,157.6375 Q249.25,158 248.225,158 Q247.025,158 246.0625,157.525 Q245.2875,157.15 244.7375,156.3375 Q244.2,155.525 244.2,154.5625 L244.2,153.6875 Q244.2,152.6875 244.675,151.8125 Q245.1625,150.9375 246,150.475 Q246.85,150 247.8,150 Q248.375,150 248.875,150.2 Q249.375,150.4 249.8,150.8 Z " fill="#000000"/><text fill="#000000" font-family="sans-serif" font-size="9.6" lengthAdjust="spacing" textLength="131.2" x="264.6" y="157.5281">RegisterClientOrderController</text><line style="stroke:#A80036;stroke-width:1.2000000000000002;" x1="97.6" x2="536.8" y1="166.4" y2="166.4"/><line style="stroke:#A80036;stroke-width:1.2000000000000002;" x1="97.6" x2="536.8" y1="172.8" y2="172.8"/><ellipse cx="105.6" cy="181.6" fill="#84BE84" rx="2.4" ry="2.4" style="stroke:#038048;stroke-width:0.8000000000000002;"/><text fill="#000000" font-family="sans-serif" font-size="8.8" lengthAdjust="spacing" textLength="31.2" x="112.8" y="185.1352">create()</text><ellipse cx="105.6" cy="192.6688" fill="#84BE84" rx="2.4" ry="2.4" style="stroke:#038048;stroke-width:0.8000000000000002;"/><text fill="#000000" font-family="sans-serif" font-size="8.8" lengthAdjust="spacing" textLength="100.8" x="112.8" y="196.2039">verifyProductId(productId)</text><ellipse cx="105.6" cy="203.7375" fill="#84BE84" rx="2.4" ry="2.4" style="stroke:#038048;stroke-width:0.8000000000000002;"/><text fill="#000000" font-family="sans-serif" font-size="8.8" lengthAdjust="spacing" textLength="92.8" x="112.8" y="207.2727">verifyClientById(clientId)</text><ellipse cx="105.6" cy="214.8063" fill="#84BE84" rx="2.4" ry="2.4" style="stroke:#038048;stroke-width:0.8000000000000002;"/><text fill="#000000" font-family="sans-serif" font-size="8.8" lengthAdjust="spacing" textLength="420" x="112.8" y="218.3414">registerOrder(addresses, shipment, payment, sourceChannel, interactionDate, additionalCommentText, items)</text><ellipse cx="105.6" cy="225.875" fill="#84BE84" rx="2.4" ry="2.4" style="stroke:#038048;stroke-width:0.8000000000000002;"/><text fill="#000000" font-family="sans-serif" font-size="8.8" lengthAdjust="spacing" textLength="327.2" x="112.8" y="229.4102">registerOrder(addresses, shipment, payment, sourceChannel, interactionDate, items)</text><ellipse cx="105.6" cy="236.9438" fill="#84BE84" rx="2.4" ry="2.4" style="stroke:#038048;stroke-width:0.8000000000000002;"/><text fill="#000000" font-family="sans-serif" font-size="8.8" lengthAdjust="spacing" textLength="113.6" x="112.8" y="240.4789">fillOrderItems(items, setItems)</text><!--MD5=[71152100d89f377ebd8dc97f1c2b0d02]
class RegisterClientUI--><rect codeLine="8" fill="#FEFECE" filter="url(#f31fv9vhlayvn)" height="38.4" id="RegisterClientUI" style="stroke:#A80036;stroke-width:1.2000000000000002;" width="98.4" x="717.6" y="174"/><ellipse cx="729.6" cy="186.8" fill="#ADD1B2" rx="8.8" ry="8.8" style="stroke:#A80036;stroke-width:0.8000000000000002;"/><path d="M731.2,184 Q731.3625,183.6 731.55,183.4 Q731.7375,183.2 731.95,183.2 Q732.325,183.2 732.5625,183.425 Q732.8,183.65 732.8,184.175 L732.8,185.425 Q732.8,185.95 732.575,186.175 Q732.35,186.4 732,186.4 Q731.6875,186.4 731.4875,186.2625 Q731.2875,186.125 731.2,185.7625 Q731.1625,185.5125 731.025,185.375 Q730.775,185.1125 730.325,184.9625 Q729.875,184.8 729.425,184.8 Q728.8625,184.8 728.3875,185.025 Q727.925,185.25 727.5625,185.75 Q727.2,186.25 727.2,186.9375 L727.2,187.675 Q727.2,188.5 727.875,189.05 Q728.55,189.6 729.75,189.6 Q730.4625,189.6 730.9625,189.4375 Q731.25,189.35 731.575,189.0625 Q731.7875,188.9 731.9,188.85 Q732.0125,188.8 732.15,188.8 Q732.4125,188.8 732.6,189.0125 Q732.8,189.2125 732.8,189.5 Q732.8,189.775 732.525,190.1 Q732.125,190.575 731.4875,190.8375 Q730.65,191.2 729.625,191.2 Q728.425,191.2 727.4625,190.725 Q726.6875,190.35 726.1375,189.5375 Q725.6,188.725 725.6,187.7625 L725.6,186.8875 Q725.6,185.8875 726.075,185.0125 Q726.5625,184.1375 727.4,183.675 Q728.25,183.2 729.2,183.2 Q729.775,183.2 730.275,183.4 Q730.775,183.6 731.2,184 Z " fill="#000000"/><text fill="#000000" font-family="sans-serif" font-size="9.6" lengthAdjust="spacing" textLength="72.8" x="740.8" y="190.7281">RegisterClientUI</text><line style="stroke:#A80036;stroke-width:1.2000000000000002;" x1="718.4" x2="815.2" y1="199.6" y2="199.6"/><line style="stroke:#A80036;stroke-width:1.2000000000000002;" x1="718.4" x2="815.2" y1="206" y2="206"/><!--MD5=[9265192601ae3d68217fc2a2ce1ea439]
class ProductOrder--><rect codeLine="9" fill="#FEFECE" filter="url(#f31fv9vhlayvn)" height="38.4" id="ProductOrder" style="stroke:#A80036;stroke-width:1.2000000000000002;" width="84" x="424" y="304.8"/><ellipse cx="436" cy="317.6" fill="#ADD1B2" rx="8.8" ry="8.8" style="stroke:#A80036;stroke-width:0.8000000000000002;"/><path d="M437.6,314.8 Q437.7625,314.4 437.95,314.2 Q438.1375,314 438.35,314 Q438.725,314 438.9625,314.225 Q439.2,314.45 439.2,314.975 L439.2,316.225 Q439.2,316.75 438.975,316.975 Q438.75,317.2 438.4,317.2 Q438.0875,317.2 437.8875,317.0625 Q437.6875,316.925 437.6,316.5625 Q437.5625,316.3125 437.425,316.175 Q437.175,315.9125 436.725,315.7625 Q436.275,315.6 435.825,315.6 Q435.2625,315.6 434.7875,315.825 Q434.325,316.05 433.9625,316.55 Q433.6,317.05 433.6,317.7375 L433.6,318.475 Q433.6,319.3 434.275,319.85 Q434.95,320.4 436.15,320.4 Q436.8625,320.4 437.3625,320.2375 Q437.65,320.15 437.975,319.8625 Q438.1875,319.7 438.3,319.65 Q438.4125,319.6 438.55,319.6 Q438.8125,319.6 439,319.8125 Q439.2,320.0125 439.2,320.3 Q439.2,320.575 438.925,320.9 Q438.525,321.375 437.8875,321.6375 Q437.05,322 436.025,322 Q434.825,322 433.8625,321.525 Q433.0875,321.15 432.5375,320.3375 Q432,319.525 432,318.5625 L432,317.6875 Q432,316.6875 432.475,315.8125 Q432.9625,314.9375 433.8,314.475 Q434.65,314 435.6,314 Q436.175,314 436.675,314.2 Q437.175,314.4 437.6,314.8 Z " fill="#000000"/><text fill="#000000" font-family="sans-serif" font-size="9.6" lengthAdjust="spacing" textLength="58.4" x="447.2" y="321.5281">ProductOrder</text><line style="stroke:#A80036;stroke-width:1.2000000000000002;" x1="424.8" x2="507.2" y1="330.4" y2="330.4"/><line style="stroke:#A80036;stroke-width:1.2000000000000002;" x1="424.8" x2="507.2" y1="336.8" y2="336.8"/><!--MD5=[003718b22fee2486eeba0fa029a176b7]
class OrderItem--><rect codeLine="51" fill="#FEFECE" filter="url(#f31fv9vhlayvn)" height="38.4" id="OrderItem" style="stroke:#A80036;stroke-width:1.2000000000000002;" width="69.6" x="457.6" y="419.2"/><ellipse cx="469.6" cy="432" fill="#ADD1B2" rx="8.8" ry="8.8" style="stroke:#A80036;stroke-width:0.8000000000000002;"/><path d="M471.2,429.2 Q471.3625,428.8 471.55,428.6 Q471.7375,428.4 471.95,428.4 Q472.325,428.4 472.5625,428.625 Q472.8,428.85 472.8,429.375 L472.8,430.625 Q472.8,431.15 472.575,431.375 Q472.35,431.6 472,431.6 Q471.6875,431.6 471.4875,431.4625 Q471.2875,431.325 471.2,430.9625 Q471.1625,430.7125 471.025,430.575 Q470.775,430.3125 470.325,430.1625 Q469.875,430 469.425,430 Q468.8625,430 468.3875,430.225 Q467.925,430.45 467.5625,430.95 Q467.2,431.45 467.2,432.1375 L467.2,432.875 Q467.2,433.7 467.875,434.25 Q468.55,434.8 469.75,434.8 Q470.4625,434.8 470.9625,434.6375 Q471.25,434.55 471.575,434.2625 Q471.7875,434.1 471.9,434.05 Q472.0125,434 472.15,434 Q472.4125,434 472.6,434.2125 Q472.8,434.4125 472.8,434.7 Q472.8,434.975 472.525,435.3 Q472.125,435.775 471.4875,436.0375 Q470.65,436.4 469.625,436.4 Q468.425,436.4 467.4625,435.925 Q466.6875,435.55 466.1375,434.7375 Q465.6,433.925 465.6,432.9625 L465.6,432.0875 Q465.6,431.0875 466.075,430.2125 Q466.5625,429.3375 467.4,428.875 Q468.25,428.4 469.2,428.4 Q469.775,428.4 470.275,428.6 Q470.775,428.8 471.2,429.2 Z " fill="#000000"/><text fill="#000000" font-family="sans-serif" font-size="9.6" lengthAdjust="spacing" textLength="44" x="480.8" y="435.9281">OrderItem</text><line style="stroke:#A80036;stroke-width:1.2000000000000002;" x1="458.4" x2="526.4" y1="444.8" y2="444.8"/><line style="stroke:#A80036;stroke-width:1.2000000000000002;" x1="458.4" x2="526.4" y1="451.2" y2="451.2"/><!--MD5=[72136138052d025cffdce3c22fbd185f]
class Product--><rect codeLine="55" fill="#FEFECE" filter="url(#f31fv9vhlayvn)" height="38.4" id="Product" style="stroke:#A80036;stroke-width:1.2000000000000002;" width="59.2" x="462.8" y="522.4"/><ellipse cx="474.8" cy="535.2" fill="#ADD1B2" rx="8.8" ry="8.8" style="stroke:#A80036;stroke-width:0.8000000000000002;"/><path d="M476.4,532.4 Q476.5625,532 476.75,531.8 Q476.9375,531.6 477.15,531.6 Q477.525,531.6 477.7625,531.825 Q478,532.05 478,532.575 L478,533.825 Q478,534.35 477.775,534.575 Q477.55,534.8 477.2,534.8 Q476.8875,534.8 476.6875,534.6625 Q476.4875,534.525 476.4,534.1625 Q476.3625,533.9125 476.225,533.775 Q475.975,533.5125 475.525,533.3625 Q475.075,533.2 474.625,533.2 Q474.0625,533.2 473.5875,533.425 Q473.125,533.65 472.7625,534.15 Q472.4,534.65 472.4,535.3375 L472.4,536.075 Q472.4,536.9 473.075,537.45 Q473.75,538 474.95,538 Q475.6625,538 476.1625,537.8375 Q476.45,537.75 476.775,537.4625 Q476.9875,537.3 477.1,537.25 Q477.2125,537.2 477.35,537.2 Q477.6125,537.2 477.8,537.4125 Q478,537.6125 478,537.9 Q478,538.175 477.725,538.5 Q477.325,538.975 476.6875,539.2375 Q475.85,539.6 474.825,539.6 Q473.625,539.6 472.6625,539.125 Q471.8875,538.75 471.3375,537.9375 Q470.8,537.125 470.8,536.1625 L470.8,535.2875 Q470.8,534.2875 471.275,533.4125 Q471.7625,532.5375 472.6,532.075 Q473.45,531.6 474.4,531.6 Q474.975,531.6 475.475,531.8 Q475.975,532 476.4,532.4 Z " fill="#000000"/><text fill="#000000" font-family="sans-serif" font-size="9.6" lengthAdjust="spacing" textLength="33.6" x="486" y="539.1281">Product</text><line style="stroke:#A80036;stroke-width:1.2000000000000002;" x1="463.6" x2="521.2" y1="548" y2="548"/><line style="stroke:#A80036;stroke-width:1.2000000000000002;" x1="463.6" x2="521.2" y1="554.4" y2="554.4"/><!--MD5=[f51bef916b5385bd9d27aaa0cee735c0]
class ListProductService--><rect codeLine="15" fill="#FEFECE" filter="url(#f31fv9vhlayvn)" height="49.4688" id="ListProductService" style="stroke:#A80036;stroke-width:1.2000000000000002;" width="107.2" x="322" y="413.6"/><ellipse cx="334" cy="426.4" fill="#ADD1B2" rx="8.8" ry="8.8" style="stroke:#A80036;stroke-width:0.8000000000000002;"/><path d="M335.6,423.6 Q335.7625,423.2 335.95,423 Q336.1375,422.8 336.35,422.8 Q336.725,422.8 336.9625,423.025 Q337.2,423.25 337.2,423.775 L337.2,425.025 Q337.2,425.55 336.975,425.775 Q336.75,426 336.4,426 Q336.0875,426 335.8875,425.8625 Q335.6875,425.725 335.6,425.3625 Q335.5625,425.1125 335.425,424.975 Q335.175,424.7125 334.725,424.5625 Q334.275,424.4 333.825,424.4 Q333.2625,424.4 332.7875,424.625 Q332.325,424.85 331.9625,425.35 Q331.6,425.85 331.6,426.5375 L331.6,427.275 Q331.6,428.1 332.275,428.65 Q332.95,429.2 334.15,429.2 Q334.8625,429.2 335.3625,429.0375 Q335.65,428.95 335.975,428.6625 Q336.1875,428.5 336.3,428.45 Q336.4125,428.4 336.55,428.4 Q336.8125,428.4 337,428.6125 Q337.2,428.8125 337.2,429.1 Q337.2,429.375 336.925,429.7 Q336.525,430.175 335.8875,430.4375 Q335.05,430.8 334.025,430.8 Q332.825,430.8 331.8625,430.325 Q331.0875,429.95 330.5375,429.1375 Q330,428.325 330,427.3625 L330,426.4875 Q330,425.4875 330.475,424.6125 Q330.9625,423.7375 331.8,423.275 Q332.65,422.8 333.6,422.8 Q334.175,422.8 334.675,423 Q335.175,423.2 335.6,423.6 Z " fill="#000000"/><text fill="#000000" font-family="sans-serif" font-size="9.6" lengthAdjust="spacing" textLength="81.6" x="345.2" y="430.3281">ListProductService</text><line style="stroke:#A80036;stroke-width:1.2000000000000002;" x1="322.8" x2="428.4" y1="439.2" y2="439.2"/><line style="stroke:#A80036;stroke-width:1.2000000000000002;" x1="322.8" x2="428.4" y1="445.6" y2="445.6"/><ellipse cx="330.8" cy="454.4" fill="#84BE84" rx="2.4" ry="2.4" style="stroke:#038048;stroke-width:0.8000000000000002;"/><text fill="#000000" font-family="sans-serif" font-size="8.8" lengthAdjust="spacing" textLength="86.4" x="338" y="457.9352">findProductById(code)</text><!--MD5=[e8c189551b7885b999ad7cefb30fc2a3]
class PersistenceContext--><rect codeLine="22" fill="#FEFECE" filter="url(#f31fv9vhlayvn)" height="49.4688" id="PersistenceContext" style="stroke:#A80036;stroke-width:1.2000000000000002;" width="111.2" x="116.8" y="299.2"/><ellipse cx="128.8" cy="312" fill="#ADD1B2" rx="8.8" ry="8.8" style="stroke:#A80036;stroke-width:0.8000000000000002;"/><path d="M130.4,309.2 Q130.5625,308.8 130.75,308.6 Q130.9375,308.4 131.15,308.4 Q131.525,308.4 131.7625,308.625 Q132,308.85 132,309.375 L132,310.625 Q132,311.15 131.775,311.375 Q131.55,311.6 131.2,311.6 Q130.8875,311.6 130.6875,311.4625 Q130.4875,311.325 130.4,310.9625 Q130.3625,310.7125 130.225,310.575 Q129.975,310.3125 129.525,310.1625 Q129.075,310 128.625,310 Q128.0625,310 127.5875,310.225 Q127.125,310.45 126.7625,310.95 Q126.4,311.45 126.4,312.1375 L126.4,312.875 Q126.4,313.7 127.075,314.25 Q127.75,314.8 128.95,314.8 Q129.6625,314.8 130.1625,314.6375 Q130.45,314.55 130.775,314.2625 Q130.9875,314.1 131.1,314.05 Q131.2125,314 131.35,314 Q131.6125,314 131.8,314.2125 Q132,314.4125 132,314.7 Q132,314.975 131.725,315.3 Q131.325,315.775 130.6875,316.0375 Q129.85,316.4 128.825,316.4 Q127.625,316.4 126.6625,315.925 Q125.8875,315.55 125.3375,314.7375 Q124.8,313.925 124.8,312.9625 L124.8,312.0875 Q124.8,311.0875 125.275,310.2125 Q125.7625,309.3375 126.6,308.875 Q127.45,308.4 128.4,308.4 Q128.975,308.4 129.475,308.6 Q129.975,308.8 130.4,309.2 Z " fill="#000000"/><text fill="#000000" font-family="sans-serif" font-size="9.6" lengthAdjust="spacing" textLength="85.6" x="140" y="315.9281">PersistenceContext</text><line style="stroke:#A80036;stroke-width:1.2000000000000002;" x1="117.6" x2="227.2" y1="324.8" y2="324.8"/><line style="stroke:#A80036;stroke-width:1.2000000000000002;" x1="117.6" x2="227.2" y1="331.2" y2="331.2"/><ellipse cx="125.6" cy="340" fill="#84BE84" rx="2.4" ry="2.4" style="stroke:#038048;stroke-width:0.8000000000000002;"/><text fill="#000000" font-family="sans-serif" font-size="8.8" lengthAdjust="spacing" textLength="52" x="132.8" y="343.5352">repositories()</text><!--MD5=[ed6624c6556d5e7b1bd23032162d20b7]
class Client--><rect codeLine="59" fill="#FEFECE" filter="url(#f31fv9vhlayvn)" height="49.4688" id="Client" style="stroke:#A80036;stroke-width:1.2000000000000002;" width="52" x="555.2" y="413.6"/><ellipse cx="567.56" cy="426.4" fill="#ADD1B2" rx="8.8" ry="8.8" style="stroke:#A80036;stroke-width:0.8000000000000002;"/><path d="M569.16,423.6 Q569.3225,423.2 569.51,423 Q569.6975,422.8 569.91,422.8 Q570.285,422.8 570.5225,423.025 Q570.76,423.25 570.76,423.775 L570.76,425.025 Q570.76,425.55 570.535,425.775 Q570.31,426 569.96,426 Q569.6475,426 569.4475,425.8625 Q569.2475,425.725 569.16,425.3625 Q569.1225,425.1125 568.985,424.975 Q568.735,424.7125 568.285,424.5625 Q567.835,424.4 567.385,424.4 Q566.8225,424.4 566.3475,424.625 Q565.885,424.85 565.5225,425.35 Q565.16,425.85 565.16,426.5375 L565.16,427.275 Q565.16,428.1 565.835,428.65 Q566.51,429.2 567.71,429.2 Q568.4225,429.2 568.9225,429.0375 Q569.21,428.95 569.535,428.6625 Q569.7475,428.5 569.86,428.45 Q569.9725,428.4 570.11,428.4 Q570.3725,428.4 570.56,428.6125 Q570.76,428.8125 570.76,429.1 Q570.76,429.375 570.485,429.7 Q570.085,430.175 569.4475,430.4375 Q568.61,430.8 567.585,430.8 Q566.385,430.8 565.4225,430.325 Q564.6475,429.95 564.0975,429.1375 Q563.56,428.325 563.56,427.3625 L563.56,426.4875 Q563.56,425.4875 564.035,424.6125 Q564.5225,423.7375 565.36,423.275 Q566.21,422.8 567.16,422.8 Q567.735,422.8 568.235,423 Q568.735,423.2 569.16,423.6 Z " fill="#000000"/><text fill="#000000" font-family="sans-serif" font-size="9.6" lengthAdjust="spacing" textLength="25.6" x="578.84" y="430.3281">Client</text><line style="stroke:#A80036;stroke-width:1.2000000000000002;" x1="556" x2="606.4" y1="439.2" y2="439.2"/><line style="stroke:#A80036;stroke-width:1.2000000000000002;" x1="556" x2="606.4" y1="445.6" y2="445.6"/><ellipse cx="564" cy="454.4" fill="#84BE84" rx="2.4" ry="2.4" style="stroke:#038048;stroke-width:0.8000000000000002;"/><text fill="#000000" font-family="sans-serif" font-size="8.8" lengthAdjust="spacing" textLength="31.2" x="571.2" y="457.9352">create()</text><!--MD5=[288bffab58163169a8d16c57b889bc0c]
class TransactionalContext--><rect codeLine="32" fill="#FEFECE" filter="url(#f31fv9vhlayvn)" height="60.5375" id="TransactionalContext" style="stroke:#A80036;stroke-width:1.2000000000000002;" width="118.4" x="536.4" y="293.6"/><ellipse cx="548.4" cy="306.4" fill="#ADD1B2" rx="8.8" ry="8.8" style="stroke:#A80036;stroke-width:0.8000000000000002;"/><path d="M550,303.6 Q550.1625,303.2 550.35,303 Q550.5375,302.8 550.75,302.8 Q551.125,302.8 551.3625,303.025 Q551.6,303.25 551.6,303.775 L551.6,305.025 Q551.6,305.55 551.375,305.775 Q551.15,306 550.8,306 Q550.4875,306 550.2875,305.8625 Q550.0875,305.725 550,305.3625 Q549.9625,305.1125 549.825,304.975 Q549.575,304.7125 549.125,304.5625 Q548.675,304.4 548.225,304.4 Q547.6625,304.4 547.1875,304.625 Q546.725,304.85 546.3625,305.35 Q546,305.85 546,306.5375 L546,307.275 Q546,308.1 546.675,308.65 Q547.35,309.2 548.55,309.2 Q549.2625,309.2 549.7625,309.0375 Q550.05,308.95 550.375,308.6625 Q550.5875,308.5 550.7,308.45 Q550.8125,308.4 550.95,308.4 Q551.2125,308.4 551.4,308.6125 Q551.6,308.8125 551.6,309.1 Q551.6,309.375 551.325,309.7 Q550.925,310.175 550.2875,310.4375 Q549.45,310.8 548.425,310.8 Q547.225,310.8 546.2625,310.325 Q545.4875,309.95 544.9375,309.1375 Q544.4,308.325 544.4,307.3625 L544.4,306.4875 Q544.4,305.4875 544.875,304.6125 Q545.3625,303.7375 546.2,303.275 Q547.05,302.8 548,302.8 Q548.575,302.8 549.075,303 Q549.575,303.2 550,303.6 Z " fill="#000000"/><text fill="#000000" font-family="sans-serif" font-size="9.6" lengthAdjust="spacing" textLength="92.8" x="559.6" y="310.3281">TransactionalContext</text><line style="stroke:#A80036;stroke-width:1.2000000000000002;" x1="537.2" x2="654" y1="319.2" y2="319.2"/><line style="stroke:#A80036;stroke-width:1.2000000000000002;" x1="537.2" x2="654" y1="325.6" y2="325.6"/><ellipse cx="545.2" cy="334.4" fill="#84BE84" rx="2.4" ry="2.4" style="stroke:#038048;stroke-width:0.8000000000000002;"/><text fill="#000000" font-family="sans-serif" font-size="8.8" lengthAdjust="spacing" textLength="72.8" x="552.4" y="337.9352">beginTransaction()</text><ellipse cx="545.2" cy="345.4688" fill="#84BE84" rx="2.4" ry="2.4" style="stroke:#038048;stroke-width:0.8000000000000002;"/><text fill="#000000" font-family="sans-serif" font-size="8.8" lengthAdjust="spacing" textLength="32.8" x="552.4" y="349.0039">commit()</text><!--MD5=[48590afff58a68e2fcba47824d6f8a11]
class RepositoryFactory--><rect codeLine="71" fill="#FEFECE" filter="url(#f31fv9vhlayvn)" height="71.6063" id="RepositoryFactory" style="stroke:#A80036;stroke-width:1.2000000000000002;" width="148" x="88.8" y="402.4"/><ellipse cx="120.6" cy="415.2" fill="#ADD1B2" rx="8.8" ry="8.8" style="stroke:#A80036;stroke-width:0.8000000000000002;"/><path d="M122.2,412.4 Q122.3625,412 122.55,411.8 Q122.7375,411.6 122.95,411.6 Q123.325,411.6 123.5625,411.825 Q123.8,412.05 123.8,412.575 L123.8,413.825 Q123.8,414.35 123.575,414.575 Q123.35,414.8 123,414.8 Q122.6875,414.8 122.4875,414.6625 Q122.2875,414.525 122.2,414.1625 Q122.1625,413.9125 122.025,413.775 Q121.775,413.5125 121.325,413.3625 Q120.875,413.2 120.425,413.2 Q119.8625,413.2 119.3875,413.425 Q118.925,413.65 118.5625,414.15 Q118.2,414.65 118.2,415.3375 L118.2,416.075 Q118.2,416.9 118.875,417.45 Q119.55,418 120.75,418 Q121.4625,418 121.9625,417.8375 Q122.25,417.75 122.575,417.4625 Q122.7875,417.3 122.9,417.25 Q123.0125,417.2 123.15,417.2 Q123.4125,417.2 123.6,417.4125 Q123.8,417.6125 123.8,417.9 Q123.8,418.175 123.525,418.5 Q123.125,418.975 122.4875,419.2375 Q121.65,419.6 120.625,419.6 Q119.425,419.6 118.4625,419.125 Q117.6875,418.75 117.1375,417.9375 Q116.6,417.125 116.6,416.1625 L116.6,415.2875 Q116.6,414.2875 117.075,413.4125 Q117.5625,412.5375 118.4,412.075 Q119.25,411.6 120.2,411.6 Q120.775,411.6 121.275,411.8 Q121.775,412 122.2,412.4 Z " fill="#000000"/><text fill="#000000" font-family="sans-serif" font-size="9.6" lengthAdjust="spacing" textLength="78.4" x="136.2" y="419.1281">RepositoryFactory</text><line style="stroke:#A80036;stroke-width:1.2000000000000002;" x1="89.6" x2="236" y1="428" y2="428"/><line style="stroke:#A80036;stroke-width:1.2000000000000002;" x1="89.6" x2="236" y1="434.4" y2="434.4"/><ellipse cx="97.6" cy="443.2" fill="#84BE84" rx="2.4" ry="2.4" style="stroke:#038048;stroke-width:0.8000000000000002;"/><text fill="#000000" font-family="sans-serif" font-size="8.8" lengthAdjust="spacing" textLength="31.2" x="104.8" y="446.7352">create()</text><ellipse cx="97.6" cy="454.2688" fill="#84BE84" rx="2.4" ry="2.4" style="stroke:#038048;stroke-width:0.8000000000000002;"/><text fill="#000000" font-family="sans-serif" font-size="8.8" lengthAdjust="spacing" textLength="105.6" x="104.8" y="457.8039">newTransactionalContext()</text><ellipse cx="97.6" cy="465.3375" fill="#84BE84" rx="2.4" ry="2.4" style="stroke:#038048;stroke-width:0.8000000000000002;"/><text fill="#000000" font-family="sans-serif" font-size="8.8" lengthAdjust="spacing" textLength="127.2" x="104.8" y="468.8727">create(TransactionalContext ctx)</text><!--MD5=[e997f2c09d4a9e644ce54db76e49b2af]
link RegisterClientOrderUI to RegisterClientUI--><path codeLine="77" d="M643.032,44.088 C668.952,75.152 721.104,137.648 748.712,170.72 " fill="none" id="RegisterClientOrderUI-to-RegisterClientUI" style="stroke:#A80036;stroke-width:0.8000000000000002;"/><polygon fill="#A80036" points="751.304,173.832,749.1558,166.2514,748.7444,170.7582,744.2376,170.3468,751.304,173.832" style="stroke:#A80036;stroke-width:0.8000000000000002;"/><!--MD5=[eb83d5ea9281625ea86d9f6f45949064]
link RegisterClientOrderUI to ViewProductCatalogUI--><path codeLine="78" d="M627.6,44.088 C627.6,74.832 627.6,136.384 627.6,169.712 " fill="none" id="RegisterClientOrderUI-to-ViewProductCatalogUI" style="stroke:#A80036;stroke-width:0.8000000000000002;"/><polygon fill="#A80036" points="627.6,173.832,630.8,166.632,627.6,169.832,624.4,166.632,627.6,173.832" style="stroke:#A80036;stroke-width:0.8000000000000002;"/><!--MD5=[e2dbecb69b2958e0caa95e503705a248]
link RegisterClientOrderUI to RegisterClientOrderController--><path codeLine="79" d="M593.192,44.088 C550.944,66.792 477.44,106.288 416.904,138.824 " fill="none" id="RegisterClientOrderUI-to-RegisterClientOrderController" style="stroke:#A80036;stroke-width:0.8000000000000002;"/><polygon fill="#A80036" points="413.304,140.76,421.1618,140.1807,416.8299,138.8711,418.1395,134.5393,413.304,140.76" style="stroke:#A80036;stroke-width:0.8000000000000002;"/><!--MD5=[1568349351fe54492b124da9ec7f8c92]
link RegisterClientOrderController to ProductOrder--><path codeLine="80" d="M376.648,245.624 C399.208,265.208 423.68,286.456 441.296,301.752 " fill="none" id="RegisterClientOrderController-to-ProductOrder" style="stroke:#A80036;stroke-width:0.8000000000000002;"/><polygon fill="#A80036" points="444.504,304.536,441.1619,297.4008,441.4824,301.915,436.9683,302.2354,444.504,304.536" style="stroke:#A80036;stroke-width:0.8000000000000002;"/><!--MD5=[365c6f71975a8dfad4890538336f5b73]
link RegisterClientOrderController to OrderRepository--><path codeLine="81" d="M161.656,245.672 C139.536,258.496 118.88,274.272 102.8,293.6 C47.568,359.992 48.992,471.112 52.528,518.4 " fill="none" id="RegisterClientOrderController-to-OrderRepository" style="stroke:#A80036;stroke-width:0.8000000000000002;"/><polygon fill="#A80036" points="52.848,522.504,55.4831,515.0786,52.5395,518.5159,49.1022,515.5723,52.848,522.504" style="stroke:#A80036;stroke-width:0.8000000000000002;"/><!--MD5=[8feb8c37ecca0257623b4f62f4bc0d00]
link ProductOrder to OrderItem--><path codeLine="84" d="M470.36,343.424 C474.944,363.024 482.168,393.872 487.08,414.88 " fill="none" id="ProductOrder-to-OrderItem" style="stroke:#A80036;stroke-width:0.8000000000000002;"/><polygon fill="#A80036" points="488.032,418.944,489.5029,411.2034,487.1184,415.0497,483.2721,412.6652,488.032,418.944" style="stroke:#A80036;stroke-width:0.8000000000000002;"/><text fill="#000000" font-family="sans-serif" font-size="10.4" lengthAdjust="spacing" textLength="16" x="469.0173" y="410.672">1..*</text><!--MD5=[663c18ce459b41abc4dbff87433befbf]
link OrderItem to Product--><path codeLine="85" d="M492.4,457.832 C492.4,474.808 492.4,499.912 492.4,518.064 " fill="none" id="OrderItem-to-Product" style="stroke:#A80036;stroke-width:0.8000000000000002;"/><polygon fill="#A80036" points="492.4,522.28,495.6,515.08,492.4,518.28,489.2,515.08,492.4,522.28" style="stroke:#A80036;stroke-width:0.8000000000000002;"/><text fill="#000000" font-family="sans-serif" font-size="10.4" lengthAdjust="spacing" textLength="5.6" x="486.0825" y="513.7214">1</text><!--MD5=[e711c884b53254feb0562ff5e23042b4]
link ProductOrder to Client--><path codeLine="86" d="M485.024,343.424 C503.664,361.68 532.272,389.696 553.448,410.424 " fill="none" id="ProductOrder-to-Client" style="stroke:#A80036;stroke-width:0.8000000000000002;"/><polygon fill="#A80036" points="556.52,413.432,553.6174,406.107,553.6631,410.6323,549.1379,410.678,556.52,413.432" style="stroke:#A80036;stroke-width:0.8000000000000002;"/><text fill="#000000" font-family="sans-serif" font-size="10.4" lengthAdjust="spacing" textLength="5.6" x="545.2523" y="405.001">1</text><!--MD5=[c1a2218c3fddee397f4198ad4ccffbcd]
link RegisterClientOrderController to ClientRepository--><path codeLine="88" d="M311.6,245.808 C303.84,303.792 286.52,399.432 250.8,474.4 C242.888,491 230.328,507.376 219.624,519.72 " fill="none" id="RegisterClientOrderController-to-ClientRepository" style="stroke:#A80036;stroke-width:0.8000000000000002;"/><polygon fill="#A80036" points="216.944,522.768,224.0997,519.4701,219.5837,519.7627,219.2911,515.2466,216.944,522.768" style="stroke:#A80036;stroke-width:0.8000000000000002;"/><!--MD5=[40985b3669edb5b768b0f993418b1614]
link RegisterClientOrderController to ListProductService--><path codeLine="91" d="M329.584,245.664 C341.56,295.624 359.264,369.464 368.848,409.424 " fill="none" id="RegisterClientOrderController-to-ListProductService" style="stroke:#A80036;stroke-width:0.8000000000000002;"/><polygon fill="#A80036" points="369.8,413.424,371.2443,405.6784,368.873,409.5329,365.0185,407.1616,369.8,413.424" style="stroke:#A80036;stroke-width:0.8000000000000002;"/><!--MD5=[274efc66e419515683ea155b61aeb21c]
link ListProductService to ProductRepository--><path codeLine="93" d="M367.448,463.28 C361.744,480.12 354.192,502.44 348.648,518.8 " fill="none" id="ListProductService-to-ProductRepository" style="stroke:#A80036;stroke-width:0.8000000000000002;"/><polygon fill="#A80036" points="347.36,522.616,352.7092,516.8311,348.6488,518.8293,346.6506,514.7689,347.36,522.616" style="stroke:#A80036;stroke-width:0.8000000000000002;"/><!--MD5=[8515a9ed15f6ed418de9a52c0858d340]
link RegisterClientOrderController to PersistenceContext--><path codeLine="95" d="M259.344,245.624 C239.92,262.96 219.032,281.592 202.6,296.256 " fill="none" id="RegisterClientOrderController-to-PersistenceContext" style="stroke:#A80036;stroke-width:0.8000000000000002;"/><polygon fill="#A80036" points="199.584,298.944,207.081,296.5203,202.5623,296.2738,202.8088,291.7551,199.584,298.944" style="stroke:#A80036;stroke-width:0.8000000000000002;"/><!--MD5=[21db7acca0c9c643eb560b163d71fd92]
link RegisterClientOrderController to TransactionalContext--><path codeLine="96" d="M428.432,245.624 C463.8,262.032 501.672,279.608 532.416,293.88 " fill="none" id="RegisterClientOrderController-to-TransactionalContext" style="stroke:#A80036;stroke-width:0.8000000000000002;"/><polygon fill="#A80036" points="536.128,295.6,530.9577,289.6545,532.5036,293.9078,528.2503,295.4537,536.128,295.6" style="stroke:#A80036;stroke-width:0.8000000000000002;"/><!--MD5=[754b775031405e096442b27febffa290]
link PersistenceContext to RepositoryFactory--><path codeLine="98" d="M170.344,349 C169.12,363.32 167.552,381.808 166.152,398.192 " fill="none" id="PersistenceContext-to-RepositoryFactory" style="stroke:#A80036;stroke-width:0.8000000000000002;"/><polygon fill="#A80036" points="165.8,402.304,169.6066,395.4054,166.1436,398.3188,163.2302,394.8558,165.8,402.304" style="stroke:#A80036;stroke-width:0.8000000000000002;"/><!--MD5=[7e98ba641e2771e3efc9b333390cc0aa]
link RepositoryFactory to ClientRepository--><path codeLine="99" d="M175.568,474.448 C180.912,489.2 186.952,505.888 191.648,518.84 " fill="none" id="RepositoryFactory-to-ClientRepository" style="stroke:#A80036;stroke-width:0.8000000000000002;"/><polygon fill="#A80036" points="193.056,522.728,193.5951,514.8674,191.6854,518.9702,187.5826,517.0604,193.056,522.728" style="stroke:#A80036;stroke-width:0.8000000000000002;"/><!--MD5=[a107a52b6e2b3fb29ad79d2f6a7df605]
link RepositoryFactory to ProductRepository--><path codeLine="100" d="M224.696,474.448 C251.824,489.904 282.68,507.472 305.824,520.656 " fill="none" id="RepositoryFactory-to-ProductRepository" style="stroke:#A80036;stroke-width:0.8000000000000002;"/><polygon fill="#A80036" points="309.472,522.728,304.797,516.3857,305.9955,520.7496,301.6316,521.9481,309.472,522.728" style="stroke:#A80036;stroke-width:0.8000000000000002;"/><!--MD5=[4961dc0a1f38b4bb8bde6c7779428d74]
link RepositoryFactory to OrderRepository--><path codeLine="101" d="M125.328,474.448 C109.248,489.584 90.992,506.752 77.088,519.832 " fill="none" id="RepositoryFactory-to-OrderRepository" style="stroke:#A80036;stroke-width:0.8000000000000002;"/><polygon fill="#A80036" points="74.008,522.728,81.4442,520.1236,76.9208,519.9865,77.0579,515.4631,74.008,522.728" style="stroke:#A80036;stroke-width:0.8000000000000002;"/><!--MD5=[1aca872cffac08b61404e552bebd7659]
@startuml
'https://plantuml.com/class-diagram



class RegisterClientOrderUI
class ViewProductCatalogUI
class RegisterClientOrderController
class RegisterClientUI
class ProductOrder
class OrderItem
class Product
class ListProductService


class ListProductService {
+findProductById(code)
}

database OrderRepository{
}

class PersistenceContext{
+repositories()
}



class Client{
+create()
}

class TransactionalContext{
+beginTransaction()
+commit()
}





class RegisterClientOrderController {
+create()
+verifyProductId(productId)
+verifyClientById(clientId)
+registerOrder(addresses, shipment, payment, sourceChannel, interactionDate, additionalCommentText, items)
+registerOrder(addresses, shipment, payment, sourceChannel, interactionDate, items)
+fillOrderItems(items, setItems)
}


class OrderItem {

}

class Product {

}

class Client {

}

database ClientRepository{
}

database ProductRepository {
}



class RepositoryFactory{
+create()
+newTransactionalContext()
+create(TransactionalContext ctx)
}

RegisterClientOrderUI - - -> RegisterClientUI
RegisterClientOrderUI - - -> ViewProductCatalogUI
RegisterClientOrderUI - - -> RegisterClientOrderController
RegisterClientOrderController - -> ProductOrder
RegisterClientOrderController - -> OrderRepository


ProductOrder - -> "1..*" OrderItem
OrderItem - -> "1" Product
ProductOrder - -> "1" Client

RegisterClientOrderController - -> ClientRepository


RegisterClientOrderController - -> ListProductService

ListProductService - -> ProductRepository

RegisterClientOrderController - ->PersistenceContext
RegisterClientOrderController - ->TransactionalContext

PersistenceContext - ->RepositoryFactory
RepositoryFactory - ->ClientRepository
RepositoryFactory - ->ProductRepository
RepositoryFactory - ->OrderRepository



@enduml

@startuml



class RegisterClientOrderUI
class ViewProductCatalogUI
class RegisterClientOrderController
class RegisterClientUI
class ProductOrder
class OrderItem
class Product
class ListProductService


class ListProductService {
+findProductById(code)
}

database OrderRepository{
}

class PersistenceContext{
+repositories()
}



class Client{
+create()
}

class TransactionalContext{
+beginTransaction()
+commit()
}





class RegisterClientOrderController {
+create()
+verifyProductId(productId)
+verifyClientById(clientId)
+registerOrder(addresses, shipment, payment, sourceChannel, interactionDate, additionalCommentText, items)
+registerOrder(addresses, shipment, payment, sourceChannel, interactionDate, items)
+fillOrderItems(items, setItems)
}


class OrderItem {

}

class Product {

}

class Client {

}

database ClientRepository{
}

database ProductRepository {
}



class RepositoryFactory{
+create()
+newTransactionalContext()
+create(TransactionalContext ctx)
}

RegisterClientOrderUI - - -> RegisterClientUI
RegisterClientOrderUI - - -> ViewProductCatalogUI
RegisterClientOrderUI - - -> RegisterClientOrderController
RegisterClientOrderController - -> ProductOrder
RegisterClientOrderController - -> OrderRepository


ProductOrder - -> "1..*" OrderItem
OrderItem - -> "1" Product
ProductOrder - -> "1" Client

RegisterClientOrderController - -> ClientRepository


RegisterClientOrderController - -> ListProductService

ListProductService - -> ProductRepository

RegisterClientOrderController - ->PersistenceContext
RegisterClientOrderController - ->TransactionalContext

PersistenceContext - ->RepositoryFactory
RepositoryFactory - ->ClientRepository
RepositoryFactory - ->ProductRepository
RepositoryFactory - ->OrderRepository



@enduml

PlantUML version 1.2022.1(Tue Feb 01 18:19:58 GMT 2022)
(GPL source distribution)
Java Runtime: OpenJDK Runtime Environment
JVM: Dynamic Code Evolution 64-Bit Server VM
Default Encoding: Cp1252
Language: pt
Country: PT
--></g></svg>