<?xml version="1.0" encoding="UTF-8" standalone="no"?><svg xmlns="http://www.w3.org/2000/svg" xmlns:xlink="http://www.w3.org/1999/xlink" contentStyleType="text/css" height="649px" preserveAspectRatio="none" style="width:1145px;height:649px;background:#FFFFFF;" version="1.1" viewBox="0 0 1145 649" width="1145px" zoomAndPan="magnify"><defs/><g><!--MD5=[fc18be233ce4bfa236bcc907cb727990]
entity WarehousePlantRepository--><g id="elem_WarehousePlantRepository"><path d="M591.5,462 C591.5,452 688,452 688,452 C688,452 784.5,452 784.5,462 L784.5,488.6094 C784.5,498.6094 688,498.6094 688,498.6094 C688,498.6094 591.5,498.6094 591.5,488.6094 L591.5,462 " fill="#F1F1F1" style="stroke:#181818;stroke-width:0.5;"/><path d="M591.5,462 C591.5,472 688,472 688,472 C688,472 784.5,472 784.5,462 " fill="none" style="stroke:#181818;stroke-width:0.5;"/><text fill="#000000" font-family="sans-serif" font-size="14" lengthAdjust="spacing" textLength="173" x="601.5" y="490.5332">WarehousePlantRepository</text></g><!--MD5=[04354c6feead6816040bbe5f8721ce6f]
entity AislesRepository--><g id="elem_AislesRepository"><path d="M819.5,462 C819.5,452 882,452 882,452 C882,452 944.5,452 944.5,462 L944.5,488.6094 C944.5,498.6094 882,498.6094 882,498.6094 C882,498.6094 819.5,498.6094 819.5,488.6094 L819.5,462 " fill="#F1F1F1" style="stroke:#181818;stroke-width:0.5;"/><path d="M819.5,462 C819.5,472 882,472 882,472 C882,472 944.5,472 944.5,462 " fill="none" style="stroke:#181818;stroke-width:0.5;"/><text fill="#000000" font-family="sans-serif" font-size="14" lengthAdjust="spacing" textLength="105" x="829.5" y="490.5332">AislesRepository</text></g><!--MD5=[21471ca782fb847d8cabb8756c35b36f]
entity AGVDockRepository--><g id="elem_AGVDockRepository"><path d="M979.5,462 C979.5,452 1054,452 1054,452 C1054,452 1128.5,452 1128.5,462 L1128.5,488.6094 C1128.5,498.6094 1054,498.6094 1054,498.6094 C1054,498.6094 979.5,498.6094 979.5,488.6094 L979.5,462 " fill="#F1F1F1" style="stroke:#181818;stroke-width:0.5;"/><path d="M979.5,462 C979.5,472 1054,472 1054,472 C1054,472 1128.5,472 1128.5,462 " fill="none" style="stroke:#181818;stroke-width:0.5;"/><text fill="#000000" font-family="sans-serif" font-size="14" lengthAdjust="spacing" textLength="129" x="989.5" y="490.5332">AGVDockRepository</text></g><!--MD5=[02c3ccaf14906c81f7b0d47d0408c730]
entity AGVRepository--><g id="elem_AGVRepository"><path d="M196.5,301.5 C196.5,291.5 255,291.5 255,291.5 C255,291.5 313.5,291.5 313.5,301.5 L313.5,328.1094 C313.5,338.1094 255,338.1094 255,338.1094 C255,338.1094 196.5,338.1094 196.5,328.1094 L196.5,301.5 " fill="#F1F1F1" style="stroke:#181818;stroke-width:0.5;"/><path d="M196.5,301.5 C196.5,311.5 255,311.5 255,311.5 C255,311.5 313.5,311.5 313.5,301.5 " fill="none" style="stroke:#181818;stroke-width:0.5;"/><text fill="#000000" font-family="sans-serif" font-size="14" lengthAdjust="spacing" textLength="97" x="206.5" y="330.0332">AGVRepository</text></g><!--MD5=[a89069a1f7a546d90d5709d7db1c8337]
class WarehouseMovement--><g id="elem_WarehouseMovement"><rect codeLine="6" fill="#F1F1F1" height="188.875" id="WarehouseMovement" rx="2.5" ry="2.5" style="stroke:#181818;stroke-width:0.5;" width="271" x="768.5" y="7"/><ellipse cx="830.75" cy="23" fill="#ADD1B2" rx="11" ry="11" style="stroke:#181818;stroke-width:1.0;"/><path d="M832.75,19.5 Q832.9531,19 833.1875,18.75 Q833.4219,18.5 833.6875,18.5 Q834.1563,18.5 834.4531,18.7813 Q834.75,19.0625 834.75,19.7188 L834.75,21.2813 Q834.75,21.9375 834.4688,22.2188 Q834.1875,22.5 833.75,22.5 Q833.3594,22.5 833.1094,22.3281 Q832.8594,22.1563 832.75,21.7031 Q832.7031,21.3906 832.5313,21.2188 Q832.2188,20.8906 831.6563,20.7031 Q831.0938,20.5 830.5313,20.5 Q829.8281,20.5 829.2344,20.7813 Q828.6563,21.0625 828.2031,21.6875 Q827.75,22.3125 827.75,23.1719 L827.75,24.0938 Q827.75,25.125 828.5938,25.8125 Q829.4375,26.5 830.9375,26.5 Q831.8281,26.5 832.4531,26.2969 Q832.8125,26.1875 833.2188,25.8281 Q833.4844,25.625 833.625,25.5625 Q833.7656,25.5 833.9375,25.5 Q834.2656,25.5 834.5,25.7656 Q834.75,26.0156 834.75,26.375 Q834.75,26.7188 834.4063,27.125 Q833.9063,27.7188 833.1094,28.0469 Q832.0625,28.5 830.7813,28.5 Q829.2813,28.5 828.0781,27.9063 Q827.1094,27.4375 826.4219,26.4219 Q825.75,25.4063 825.75,24.2031 L825.75,23.1094 Q825.75,21.8594 826.3438,20.7656 Q826.9531,19.6719 828,19.0938 Q829.0625,18.5 830.25,18.5 Q830.9688,18.5 831.5938,18.75 Q832.2188,19 832.75,19.5 Z " fill="#000000"/><text fill="#000000" font-family="sans-serif" font-size="14" lengthAdjust="spacing" textLength="138" x="851.25" y="28.7285">WarehouseMovement</text><line style="stroke:#181818;stroke-width:0.5;" x1="769.5" x2="1038.5" y1="39" y2="39"/><text fill="#000000" font-family="sans-serif" font-size="14" lengthAdjust="spacing" textLength="29" x="774.5" y="57.5332">-grid</text><line style="stroke:#181818;stroke-width:1.0;" x1="769.5" x2="1038.5" y1="64.6094" y2="64.6094"/><text fill="#000000" font-family="sans-serif" font-size="14" lengthAdjust="spacing" textLength="202" x="774.5" y="83.1426">-buildGrid(comprimento,largura)</text><text fill="#000000" font-family="sans-serif" font-size="14" lengthAdjust="spacing" textLength="117" x="774.5" y="100.752">-markObstacules()</text><text fill="#000000" font-family="sans-serif" font-size="14" lengthAdjust="spacing" textLength="259" x="774.5" y="118.3613">#minDistance(grid,x,y,desiredX,desiredY)</text><text fill="#000000" font-family="sans-serif" font-size="14" lengthAdjust="spacing" textLength="145" x="774.5" y="135.9707">-isValid(x,y,grid,visited)</text><text fill="#000000" font-family="sans-serif" font-size="14" lengthAdjust="spacing" textLength="176" x="774.5" y="153.5801">#upgradeGrid(oldX,olxY,x,y)</text><text fill="#000000" font-family="sans-serif" font-size="14" lengthAdjust="spacing" textLength="158" x="774.5" y="171.1895">#backTrackPath(current)</text><text fill="#000000" font-family="sans-serif" font-size="14" lengthAdjust="spacing" textLength="83" x="774.5" y="188.7988">#printMatrix()</text></g><!--MD5=[e8c189551b7885b999ad7cefb30fc2a3]
class PersistenceContext--><g id="elem_PersistenceContext"><rect codeLine="18" fill="#F1F1F1" height="65.6094" id="PersistenceContext" rx="2.5" ry="2.5" style="stroke:#181818;stroke-width:0.5;" width="154" x="7" y="282"/><ellipse cx="22" cy="298" fill="#ADD1B2" rx="11" ry="11" style="stroke:#181818;stroke-width:1.0;"/><path d="M24,294.5 Q24.2031,294 24.4375,293.75 Q24.6719,293.5 24.9375,293.5 Q25.4063,293.5 25.7031,293.7813 Q26,294.0625 26,294.7188 L26,296.2813 Q26,296.9375 25.7188,297.2188 Q25.4375,297.5 25,297.5 Q24.6094,297.5 24.3594,297.3281 Q24.1094,297.1563 24,296.7031 Q23.9531,296.3906 23.7813,296.2188 Q23.4688,295.8906 22.9063,295.7031 Q22.3438,295.5 21.7813,295.5 Q21.0781,295.5 20.4844,295.7813 Q19.9063,296.0625 19.4531,296.6875 Q19,297.3125 19,298.1719 L19,299.0938 Q19,300.125 19.8438,300.8125 Q20.6875,301.5 22.1875,301.5 Q23.0781,301.5 23.7031,301.2969 Q24.0625,301.1875 24.4688,300.8281 Q24.7344,300.625 24.875,300.5625 Q25.0156,300.5 25.1875,300.5 Q25.5156,300.5 25.75,300.7656 Q26,301.0156 26,301.375 Q26,301.7188 25.6563,302.125 Q25.1563,302.7188 24.3594,303.0469 Q23.3125,303.5 22.0313,303.5 Q20.5313,303.5 19.3281,302.9063 Q18.3594,302.4375 17.6719,301.4219 Q17,300.4063 17,299.2031 L17,298.1094 Q17,296.8594 17.5938,295.7656 Q18.2031,294.6719 19.25,294.0938 Q20.3125,293.5 21.5,293.5 Q22.2188,293.5 22.8438,293.75 Q23.4688,294 24,294.5 Z " fill="#000000"/><text fill="#000000" font-family="sans-serif" font-size="14" lengthAdjust="spacing" textLength="122" x="36" y="303.7285">PersistenceContext</text><line style="stroke:#181818;stroke-width:0.5;" x1="8" x2="160" y1="314" y2="314"/><line style="stroke:#181818;stroke-width:0.5;" x1="8" x2="160" y1="322" y2="322"/><text fill="#000000" font-family="sans-serif" font-size="14" lengthAdjust="spacing" textLength="92" x="13" y="340.5332">+repositories()</text></g><!--MD5=[48590afff58a68e2fcba47824d6f8a11]
class RepositoryFactory--><g id="elem_RepositoryFactory"><rect codeLine="22" fill="#F1F1F1" height="118.4375" id="RepositoryFactory" rx="2.5" ry="2.5" style="stroke:#181818;stroke-width:0.5;" width="148" x="767" y="256"/><ellipse cx="782" cy="272" fill="#ADD1B2" rx="11" ry="11" style="stroke:#181818;stroke-width:1.0;"/><path d="M784,268.5 Q784.2031,268 784.4375,267.75 Q784.6719,267.5 784.9375,267.5 Q785.4063,267.5 785.7031,267.7813 Q786,268.0625 786,268.7188 L786,270.2813 Q786,270.9375 785.7188,271.2188 Q785.4375,271.5 785,271.5 Q784.6094,271.5 784.3594,271.3281 Q784.1094,271.1563 784,270.7031 Q783.9531,270.3906 783.7813,270.2188 Q783.4688,269.8906 782.9063,269.7031 Q782.3438,269.5 781.7813,269.5 Q781.0781,269.5 780.4844,269.7813 Q779.9063,270.0625 779.4531,270.6875 Q779,271.3125 779,272.1719 L779,273.0938 Q779,274.125 779.8438,274.8125 Q780.6875,275.5 782.1875,275.5 Q783.0781,275.5 783.7031,275.2969 Q784.0625,275.1875 784.4688,274.8281 Q784.7344,274.625 784.875,274.5625 Q785.0156,274.5 785.1875,274.5 Q785.5156,274.5 785.75,274.7656 Q786,275.0156 786,275.375 Q786,275.7188 785.6563,276.125 Q785.1563,276.7188 784.3594,277.0469 Q783.3125,277.5 782.0313,277.5 Q780.5313,277.5 779.3281,276.9063 Q778.3594,276.4375 777.6719,275.4219 Q777,274.4063 777,273.2031 L777,272.1094 Q777,270.8594 777.5938,269.7656 Q778.2031,268.6719 779.25,268.0938 Q780.3125,267.5 781.5,267.5 Q782.2188,267.5 782.8438,267.75 Q783.4688,268 784,268.5 Z " fill="#000000"/><text fill="#000000" font-family="sans-serif" font-size="14" lengthAdjust="spacing" textLength="116" x="796" y="277.7285">RepositoryFactory</text><line style="stroke:#181818;stroke-width:0.5;" x1="768" x2="914" y1="288" y2="288"/><line style="stroke:#181818;stroke-width:0.5;" x1="768" x2="914" y1="296" y2="296"/><text fill="#000000" font-family="sans-serif" font-size="14" lengthAdjust="spacing" textLength="58" x="773" y="314.5332">+create()</text><text fill="#000000" font-family="sans-serif" font-size="14" lengthAdjust="spacing" textLength="49" x="773" y="332.1426">+plant()</text><text fill="#000000" font-family="sans-serif" font-size="14" lengthAdjust="spacing" textLength="47" x="773" y="349.752">+ailes()</text><text fill="#000000" font-family="sans-serif" font-size="14" lengthAdjust="spacing" textLength="48" x="773" y="367.3613">+dock()</text></g><!--MD5=[feb862d0c2458839555213da1199e03c]
class DigitalTwinDaemon--><g id="elem_DigitalTwinDaemon"><rect codeLine="38" fill="#F1F1F1" height="65.6094" id="DigitalTwinDaemon" rx="2.5" ry="2.5" style="stroke:#181818;stroke-width:0.5;" width="153" x="201.5" y="68.5"/><ellipse cx="216.5" cy="84.5" fill="#ADD1B2" rx="11" ry="11" style="stroke:#181818;stroke-width:1.0;"/><path d="M218.5,81 Q218.7031,80.5 218.9375,80.25 Q219.1719,80 219.4375,80 Q219.9063,80 220.2031,80.2813 Q220.5,80.5625 220.5,81.2188 L220.5,82.7813 Q220.5,83.4375 220.2188,83.7188 Q219.9375,84 219.5,84 Q219.1094,84 218.8594,83.8281 Q218.6094,83.6563 218.5,83.2031 Q218.4531,82.8906 218.2813,82.7188 Q217.9688,82.3906 217.4063,82.2031 Q216.8438,82 216.2813,82 Q215.5781,82 214.9844,82.2813 Q214.4063,82.5625 213.9531,83.1875 Q213.5,83.8125 213.5,84.6719 L213.5,85.5938 Q213.5,86.625 214.3438,87.3125 Q215.1875,88 216.6875,88 Q217.5781,88 218.2031,87.7969 Q218.5625,87.6875 218.9688,87.3281 Q219.2344,87.125 219.375,87.0625 Q219.5156,87 219.6875,87 Q220.0156,87 220.25,87.2656 Q220.5,87.5156 220.5,87.875 Q220.5,88.2188 220.1563,88.625 Q219.6563,89.2188 218.8594,89.5469 Q217.8125,90 216.5313,90 Q215.0313,90 213.8281,89.4063 Q212.8594,88.9375 212.1719,87.9219 Q211.5,86.9063 211.5,85.7031 L211.5,84.6094 Q211.5,83.3594 212.0938,82.2656 Q212.7031,81.1719 213.75,80.5938 Q214.8125,80 216,80 Q216.7188,80 217.3438,80.25 Q217.9688,80.5 218.5,81 Z " fill="#000000"/><text fill="#000000" font-family="sans-serif" font-size="14" lengthAdjust="spacing" textLength="121" x="230.5" y="90.2285">DigitalTwinDaemon</text><line style="stroke:#181818;stroke-width:0.5;" x1="202.5" x2="353.5" y1="100.5" y2="100.5"/><line style="stroke:#181818;stroke-width:0.5;" x1="202.5" x2="353.5" y1="108.5" y2="108.5"/><text fill="#000000" font-family="sans-serif" font-size="14" lengthAdjust="spacing" textLength="81" x="207.5" y="127.0332">-selectAGV()</text></g><!--MD5=[d63cfdc3a5497c08e0eb259a940688e5]
class DigitalTwinProtocolServer--><g id="elem_DigitalTwinProtocolServer"><rect codeLine="42" fill="#F1F1F1" height="65.6094" id="DigitalTwinProtocolServer" rx="2.5" ry="2.5" style="stroke:#181818;stroke-width:0.5;" width="244" x="349" y="282"/><ellipse cx="386.5" cy="298" fill="#ADD1B2" rx="11" ry="11" style="stroke:#181818;stroke-width:1.0;"/><path d="M388.5,294.5 Q388.7031,294 388.9375,293.75 Q389.1719,293.5 389.4375,293.5 Q389.9063,293.5 390.2031,293.7813 Q390.5,294.0625 390.5,294.7188 L390.5,296.2813 Q390.5,296.9375 390.2188,297.2188 Q389.9375,297.5 389.5,297.5 Q389.1094,297.5 388.8594,297.3281 Q388.6094,297.1563 388.5,296.7031 Q388.4531,296.3906 388.2813,296.2188 Q387.9688,295.8906 387.4063,295.7031 Q386.8438,295.5 386.2813,295.5 Q385.5781,295.5 384.9844,295.7813 Q384.4063,296.0625 383.9531,296.6875 Q383.5,297.3125 383.5,298.1719 L383.5,299.0938 Q383.5,300.125 384.3438,300.8125 Q385.1875,301.5 386.6875,301.5 Q387.5781,301.5 388.2031,301.2969 Q388.5625,301.1875 388.9688,300.8281 Q389.2344,300.625 389.375,300.5625 Q389.5156,300.5 389.6875,300.5 Q390.0156,300.5 390.25,300.7656 Q390.5,301.0156 390.5,301.375 Q390.5,301.7188 390.1563,302.125 Q389.6563,302.7188 388.8594,303.0469 Q387.8125,303.5 386.5313,303.5 Q385.0313,303.5 383.8281,302.9063 Q382.8594,302.4375 382.1719,301.4219 Q381.5,300.4063 381.5,299.2031 L381.5,298.1094 Q381.5,296.8594 382.0938,295.7656 Q382.7031,294.6719 383.75,294.0938 Q384.8125,293.5 386,293.5 Q386.7188,293.5 387.3438,293.75 Q387.9688,294 388.5,294.5 Z " fill="#000000"/><text fill="#000000" font-family="sans-serif" font-size="14" lengthAdjust="spacing" textLength="162" x="405.5" y="303.7285">DigitalTwinProtocolServer</text><line style="stroke:#181818;stroke-width:0.5;" x1="350" x2="592" y1="314" y2="314"/><line style="stroke:#181818;stroke-width:0.5;" x1="350" x2="592" y1="322" y2="322"/><text fill="#000000" font-family="sans-serif" font-size="14" lengthAdjust="spacing" textLength="232" x="355" y="340.5332">+create(requestMessageParser,agv)</text></g><!--MD5=[53b2c06ade5903185ca3326dce80e141]
class AGV--><g id="elem_AGV"><rect codeLine="46" fill="#F1F1F1" height="83.2188" id="AGV" rx="2.5" ry="2.5" style="stroke:#181818;stroke-width:0.5;" width="171" x="385.5" y="434"/><ellipse cx="452.25" cy="450" fill="#ADD1B2" rx="11" ry="11" style="stroke:#181818;stroke-width:1.0;"/><path d="M454.25,446.5 Q454.4531,446 454.6875,445.75 Q454.9219,445.5 455.1875,445.5 Q455.6563,445.5 455.9531,445.7813 Q456.25,446.0625 456.25,446.7188 L456.25,448.2813 Q456.25,448.9375 455.9688,449.2188 Q455.6875,449.5 455.25,449.5 Q454.8594,449.5 454.6094,449.3281 Q454.3594,449.1563 454.25,448.7031 Q454.2031,448.3906 454.0313,448.2188 Q453.7188,447.8906 453.1563,447.7031 Q452.5938,447.5 452.0313,447.5 Q451.3281,447.5 450.7344,447.7813 Q450.1563,448.0625 449.7031,448.6875 Q449.25,449.3125 449.25,450.1719 L449.25,451.0938 Q449.25,452.125 450.0938,452.8125 Q450.9375,453.5 452.4375,453.5 Q453.3281,453.5 453.9531,453.2969 Q454.3125,453.1875 454.7188,452.8281 Q454.9844,452.625 455.125,452.5625 Q455.2656,452.5 455.4375,452.5 Q455.7656,452.5 456,452.7656 Q456.25,453.0156 456.25,453.375 Q456.25,453.7188 455.9063,454.125 Q455.4063,454.7188 454.6094,455.0469 Q453.5625,455.5 452.2813,455.5 Q450.7813,455.5 449.5781,454.9063 Q448.6094,454.4375 447.9219,453.4219 Q447.25,452.4063 447.25,451.2031 L447.25,450.1094 Q447.25,448.8594 447.8438,447.7656 Q448.4531,446.6719 449.5,446.0938 Q450.5625,445.5 451.75,445.5 Q452.4688,445.5 453.0938,445.75 Q453.7188,446 454.25,446.5 Z " fill="#000000"/><text fill="#000000" font-family="sans-serif" font-size="14" lengthAdjust="spacing" textLength="29" x="472.75" y="455.7285">AGV</text><line style="stroke:#181818;stroke-width:0.5;" x1="386.5" x2="555.5" y1="466" y2="466"/><line style="stroke:#181818;stroke-width:0.5;" x1="386.5" x2="555.5" y1="474" y2="474"/><text fill="#000000" font-family="sans-serif" font-size="14" lengthAdjust="spacing" textLength="159" x="391.5" y="492.5332">+activateControlSystem()</text><text fill="#000000" font-family="sans-serif" font-size="14" lengthAdjust="spacing" textLength="98" x="391.5" y="510.1426">+getAGVTask()</text></g><!--MD5=[16e6fb5582e8842bfb4da4dbe1943d8b]
class csThread--><g id="elem_csThread"><rect codeLine="51" fill="#F1F1F1" height="65.6094" id="csThread" rx="2.5" ry="2.5" style="stroke:#181818;stroke-width:0.5;" width="92" x="425" y="577"/><ellipse cx="440" cy="593" fill="#ADD1B2" rx="11" ry="11" style="stroke:#181818;stroke-width:1.0;"/><path d="M442,589.5 Q442.2031,589 442.4375,588.75 Q442.6719,588.5 442.9375,588.5 Q443.4063,588.5 443.7031,588.7813 Q444,589.0625 444,589.7188 L444,591.2813 Q444,591.9375 443.7188,592.2188 Q443.4375,592.5 443,592.5 Q442.6094,592.5 442.3594,592.3281 Q442.1094,592.1563 442,591.7031 Q441.9531,591.3906 441.7813,591.2188 Q441.4688,590.8906 440.9063,590.7031 Q440.3438,590.5 439.7813,590.5 Q439.0781,590.5 438.4844,590.7813 Q437.9063,591.0625 437.4531,591.6875 Q437,592.3125 437,593.1719 L437,594.0938 Q437,595.125 437.8438,595.8125 Q438.6875,596.5 440.1875,596.5 Q441.0781,596.5 441.7031,596.2969 Q442.0625,596.1875 442.4688,595.8281 Q442.7344,595.625 442.875,595.5625 Q443.0156,595.5 443.1875,595.5 Q443.5156,595.5 443.75,595.7656 Q444,596.0156 444,596.375 Q444,596.7188 443.6563,597.125 Q443.1563,597.7188 442.3594,598.0469 Q441.3125,598.5 440.0313,598.5 Q438.5313,598.5 437.3281,597.9063 Q436.3594,597.4375 435.6719,596.4219 Q435,595.4063 435,594.2031 L435,593.1094 Q435,591.8594 435.5938,590.7656 Q436.2031,589.6719 437.25,589.0938 Q438.3125,588.5 439.5,588.5 Q440.2188,588.5 440.8438,588.75 Q441.4688,589 442,589.5 Z " fill="#000000"/><text fill="#000000" font-family="sans-serif" font-size="14" lengthAdjust="spacing" textLength="60" x="454" y="598.7285">csThread</text><line style="stroke:#181818;stroke-width:0.5;" x1="426" x2="516" y1="609" y2="609"/><line style="stroke:#181818;stroke-width:0.5;" x1="426" x2="516" y1="617" y2="617"/><text fill="#000000" font-family="sans-serif" font-size="14" lengthAdjust="spacing" textLength="46" x="431" y="635.5332">+start()</text></g><!--MD5=[a63be96195194d39d29cc704ba473110]
link WarehouseMovement to RepositoryFactory--><g id="link_WarehouseMovement_RepositoryFactory"><path codeLine="58" d="M876.09,196.19 C870.56,214.77 864.87,233.86 859.73,251.12 " fill="none" id="WarehouseMovement-to-RepositoryFactory" style="stroke:#181818;stroke-width:1.0;"/><polygon fill="#181818" points="858.3,255.93,864.7072,248.4502,859.7302,251.1389,857.0414,246.1619,858.3,255.93" style="stroke:#181818;stroke-width:1.0;"/></g><!--MD5=[089ebbcd4f9eab9ce76f4cb3e50bbeae]
link WarehouseMovement to WarehousePlantRepository--><g id="link_WarehouseMovement_WarehousePlantRepository"><path codeLine="59" d="M794.34,196.32 C777.35,214.75 761.38,234.94 749,256 C712.38,318.32 696.91,403.59 691.09,446.87 " fill="none" id="WarehouseMovement-to-WarehousePlantRepository" style="stroke:#181818;stroke-width:1.0;"/><polygon fill="#181818" points="690.43,451.94,695.578,443.5437,691.0871,446.9834,687.6474,442.4924,690.43,451.94" style="stroke:#181818;stroke-width:1.0;"/></g><!--MD5=[92612df1f85e9a562e56fdc11d6910e3]
link WarehouseMovement to AislesRepository--><g id="link_WarehouseMovement_AislesRepository"><path codeLine="60" d="M929.53,196.18 C940.06,248.97 946.92,315.8 933,374 C926.65,400.54 912.09,427.98 900.14,447.48 " fill="none" id="WarehouseMovement-to-AislesRepository" style="stroke:#181818;stroke-width:1.0;"/><polygon fill="#181818" points="897.48,451.76,905.6336,446.2357,900.1236,447.516,898.8432,442.0059,897.48,451.76" style="stroke:#181818;stroke-width:1.0;"/></g><!--MD5=[d04ce5e87ddb90462f5ddd2fe2327df6]
link WarehouseMovement to AGVDockRepository--><g id="link_WarehouseMovement_AGVDockRepository"><path codeLine="61" d="M941.85,196.37 C975.23,279.15 1021.74,394.5 1042.82,446.78 " fill="none" id="WarehouseMovement-to-AGVDockRepository" style="stroke:#181818;stroke-width:1.0;"/><polygon fill="#181818" points="1044.78,451.64,1045.1253,441.7972,1042.9108,447.0026,1037.7054,444.788,1044.78,451.64" style="stroke:#181818;stroke-width:1.0;"/></g><!--MD5=[321b99a2cbeeef2f413bf2efcab8c071]
link RepositoryFactory to WarehousePlantRepository--><g id="link_RepositoryFactory_WarehousePlantRepository"><path codeLine="65" d="M784.9,374.12 C760.43,399.47 732.96,427.92 713.54,448.05 " fill="none" id="RepositoryFactory-to-WarehousePlantRepository" style="stroke:#181818;stroke-width:1.0;"/><polygon fill="#181818" points="709.76,451.96,718.8866,448.2579,713.2307,448.3608,713.1278,442.7049,709.76,451.96" style="stroke:#181818;stroke-width:1.0;"/></g><!--MD5=[0d5b518be938fdf934733a640b9013e3]
link RepositoryFactory to AislesRepository--><g id="link_RepositoryFactory_AislesRepository"><path codeLine="66" d="M856.03,374.12 C862.48,399.04 869.71,426.97 874.89,447.03 " fill="none" id="RepositoryFactory-to-AislesRepository" style="stroke:#181818;stroke-width:1.0;"/><polygon fill="#181818" points="876.17,451.96,877.8072,442.2482,874.9271,447.1169,870.0583,444.2368,876.17,451.96" style="stroke:#181818;stroke-width:1.0;"/></g><!--MD5=[5b045b17e7957024e5fc2220186f6fb3]
link RepositoryFactory to AGVDockRepository--><g id="link_RepositoryFactory_AGVDockRepository"><path codeLine="67" d="M915.2,371.21 C950.67,397.61 991.43,427.94 1019.56,448.87 " fill="none" id="RepositoryFactory-to-AGVDockRepository" style="stroke:#181818;stroke-width:1.0;"/><polygon fill="#181818" points="1023.61,451.89,1018.7757,443.3093,1019.598,448.906,1014.0013,449.7284,1023.61,451.89" style="stroke:#181818;stroke-width:1.0;"/></g><!--MD5=[3f9e00ef6a722261faca67971571de99]
link DigitalTwinDaemon to DigitalTwinProtocolServer--><g id="link_DigitalTwinDaemon_DigitalTwinProtocolServer"><path codeLine="69" d="M307.31,134.62 C342.56,173.24 401.54,237.88 438.25,278.11 " fill="none" id="DigitalTwinDaemon-to-DigitalTwinProtocolServer" style="stroke:#181818;stroke-width:1.0;"/><polygon fill="#181818" points="441.73,281.92,438.6069,272.5794,438.3553,278.2307,432.704,277.979,441.73,281.92" style="stroke:#181818;stroke-width:1.0;"/></g><!--MD5=[f5ed2b0bd56abd2294b9eb4243925e82]
link DigitalTwinDaemon to PersistenceContext--><g id="link_DigitalTwinDaemon_PersistenceContext"><path codeLine="70" d="M248.54,134.62 C213.11,173.24 153.82,237.88 116.92,278.11 " fill="none" id="DigitalTwinDaemon-to-PersistenceContext" style="stroke:#181818;stroke-width:1.0;"/><polygon fill="#181818" points="113.42,281.92,122.4543,277.998,116.8025,278.2378,116.5627,272.586,113.42,281.92" style="stroke:#181818;stroke-width:1.0;"/></g><!--MD5=[cb1c82c5b332ac4a77b1ac29a1afc04f]
link PersistenceContext to AGVRepository--><g id="link_PersistenceContext_AGVRepository"><path codeLine="72" d="M161.15,315 C171.14,315 181.13,315 191.12,315 " fill="none" id="PersistenceContext-to-AGVRepository" style="stroke:#181818;stroke-width:1.0;"/><polygon fill="#181818" points="196.34,315,187.34,311,191.34,315,187.34,319,196.34,315" style="stroke:#181818;stroke-width:1.0;"/></g><!--MD5=[bef9dd37f723b1546aa1a5d701e57640]
link DigitalTwinProtocolServer to AGV--><g id="link_DigitalTwinProtocolServer_AGV"><path codeLine="74" d="M471,348.07 C471,371.23 471,402.82 471,428.64 " fill="none" id="DigitalTwinProtocolServer-to-AGV" style="stroke:#181818;stroke-width:1.0;"/><polygon fill="#181818" points="471,433.72,475,424.72,471,428.72,467,424.72,471,433.72" style="stroke:#181818;stroke-width:1.0;"/></g><!--MD5=[d4ee5051aa405315521458feabb91e27]
link AGV to csThread--><g id="link_AGV_csThread"><path codeLine="76" d="M471,517.34 C471,534.7 471,554.81 471,571.76 " fill="none" id="AGV-to-csThread" style="stroke:#181818;stroke-width:1.0;"/><polygon fill="#181818" points="471,576.92,475,567.92,471,571.92,467,567.92,471,576.92" style="stroke:#181818;stroke-width:1.0;"/></g><!--MD5=[ec083486b72a7fbf96f0a2b8f004b2a6]
@startuml
'https://plantuml.com/sequence-diagram

skinparam classAttributeIconSize 0


class WarehouseMovement{
-grid
- -
-buildGrid(comprimento,largura)
-markObstacules()
#minDistance(grid,x,y,desiredX,desiredY)
-isValid(x,y,grid,visited)
#upgradeGrid(oldX,olxY,x,y)
#backTrackPath(current)
#printMatrix()
}

class PersistenceContext{
+repositories()
}

class RepositoryFactory{
+create()
+plant()
+ailes()
+dock()
}

database WarehousePlantRepository{
}

database AislesRepository {
}

database AGVDockRepository {
}

class DigitalTwinDaemon{
-selectAGV()
}

class DigitalTwinProtocolServer{
+create(requestMessageParser,agv)
}

class AGV {
+activateControlSystem()
+getAGVTask()
}

class csThread{
+start()
}

database AGVRepository {
}

WarehouseMovement - -> RepositoryFactory
WarehouseMovement - -> WarehousePlantRepository
WarehouseMovement - -> AislesRepository
WarehouseMovement - -> AGVDockRepository



RepositoryFactory - -> WarehousePlantRepository
RepositoryFactory - -> AislesRepository
RepositoryFactory - -> AGVDockRepository

DigitalTwinDaemon - -> DigitalTwinProtocolServer
DigitalTwinDaemon - -> PersistenceContext

PersistenceContext -> AGVRepository

DigitalTwinProtocolServer - -> AGV

AGV - -> csThread






@enduml

@startuml

skinparam classAttributeIconSize 0


class WarehouseMovement{
-grid
- -
-buildGrid(comprimento,largura)
-markObstacules()
#minDistance(grid,x,y,desiredX,desiredY)
-isValid(x,y,grid,visited)
#upgradeGrid(oldX,olxY,x,y)
#backTrackPath(current)
#printMatrix()
}

class PersistenceContext{
+repositories()
}

class RepositoryFactory{
+create()
+plant()
+ailes()
+dock()
}

database WarehousePlantRepository{
}

database AislesRepository {
}

database AGVDockRepository {
}

class DigitalTwinDaemon{
-selectAGV()
}

class DigitalTwinProtocolServer{
+create(requestMessageParser,agv)
}

class AGV {
+activateControlSystem()
+getAGVTask()
}

class csThread{
+start()
}

database AGVRepository {
}

WarehouseMovement - -> RepositoryFactory
WarehouseMovement - -> WarehousePlantRepository
WarehouseMovement - -> AislesRepository
WarehouseMovement - -> AGVDockRepository



RepositoryFactory - -> WarehousePlantRepository
RepositoryFactory - -> AislesRepository
RepositoryFactory - -> AGVDockRepository

DigitalTwinDaemon - -> DigitalTwinProtocolServer
DigitalTwinDaemon - -> PersistenceContext

PersistenceContext -> AGVRepository

DigitalTwinProtocolServer - -> AGV

AGV - -> csThread






@enduml

PlantUML version 1.2022.4(Sat Apr 09 14:29:17 BST 2022)
(GPL source distribution)
Java Runtime: OpenJDK Runtime Environment
JVM: OpenJDK 64-Bit Server VM
Default Encoding: Cp1252
Language: pt
Country: PT
--></g></svg>