<?xml version="1.0" encoding="UTF-8" standalone="no"?><svg xmlns="http://www.w3.org/2000/svg" xmlns:xlink="http://www.w3.org/1999/xlink" contentStyleType="text/css" height="653px" preserveAspectRatio="none" style="width:793px;height:653px;background:#FFFFFF;" version="1.1" viewBox="0 0 793 653" width="793px" zoomAndPan="magnify"><defs/><g><rect fill="#FFFFFF" height="419.5156" style="stroke:#181818;stroke-width:1.0;" width="10" x="116" y="118.5703"/><rect fill="#FFFFFF" height="169.0547" style="stroke:#181818;stroke-width:1.0;" width="10" x="121" y="338.6797"/><rect fill="#FFFFFF" height="125.7031" style="stroke:#181818;stroke-width:1.0;" width="10" x="126" y="382.0313"/><rect fill="#FFFFFF" height="91.0547" style="stroke:#181818;stroke-width:1.0;" width="10" x="267" y="148.9219"/><rect fill="#FFFFFF" height="30" style="stroke:#181818;stroke-width:1.0;" width="10" x="431.5" y="270.3281"/><rect fill="#FFFFFF" height="30" style="stroke:#181818;stroke-width:1.0;" width="10" x="586.5" y="417.3828"/><rect fill="#FFFFFF" height="30" style="stroke:#181818;stroke-width:1.0;" width="10" x="719.5" y="477.7344"/><line style="stroke:#181818;stroke-width:0.5;stroke-dasharray:5.0,5.0;" x1="121" x2="121" y1="86.2188" y2="556.0859"/><line style="stroke:#181818;stroke-width:0.5;stroke-dasharray:5.0,5.0;" x1="272" x2="272" y1="86.2188" y2="556.0859"/><line style="stroke:#181818;stroke-width:0.5;stroke-dasharray:5.0,5.0;" x1="436" x2="436" y1="86.2188" y2="556.0859"/><line style="stroke:#181818;stroke-width:0.5;stroke-dasharray:5.0,5.0;" x1="591" x2="591" y1="86.2188" y2="556.0859"/><line style="stroke:#181818;stroke-width:0.5;stroke-dasharray:5.0,5.0;" x1="724" x2="724" y1="86.2188" y2="556.0859"/><rect fill="#E2E2F0" height="49.2188" rx="2.5" ry="2.5" style="stroke:#181818;stroke-width:0.5;" width="152" x="45" y="36"/><text fill="#000000" font-family="sans-serif" font-size="14" font-style="italic" lengthAdjust="spacing" textLength="84" x="79" y="57.5332">«application»</text><text fill="#000000" font-family="sans-serif" font-size="14" lengthAdjust="spacing" textLength="138" x="52" y="75.1426">WarehouseMovement</text><rect fill="#E2E2F0" height="49.2188" rx="2.5" ry="2.5" style="stroke:#181818;stroke-width:0.5;" width="152" x="45" y="555.0859"/><text fill="#000000" font-family="sans-serif" font-size="14" font-style="italic" lengthAdjust="spacing" textLength="84" x="79" y="576.6191">«application»</text><text fill="#000000" font-family="sans-serif" font-size="14" lengthAdjust="spacing" textLength="138" x="52" y="594.2285">WarehouseMovement</text><rect fill="#E2E2F0" height="49.2188" rx="2.5" ry="2.5" style="stroke:#181818;stroke-width:0.5;" width="130" x="207" y="36"/><text fill="#000000" font-family="sans-serif" font-size="14" font-style="italic" lengthAdjust="spacing" textLength="59" x="242.5" y="57.5332">«factory»</text><text fill="#000000" font-family="sans-serif" font-size="14" lengthAdjust="spacing" textLength="116" x="214" y="75.1426">RepositoryFactory</text><rect fill="#E2E2F0" height="49.2188" rx="2.5" ry="2.5" style="stroke:#181818;stroke-width:0.5;" width="130" x="207" y="555.0859"/><text fill="#000000" font-family="sans-serif" font-size="14" font-style="italic" lengthAdjust="spacing" textLength="59" x="242.5" y="576.6191">«factory»</text><text fill="#000000" font-family="sans-serif" font-size="14" lengthAdjust="spacing" textLength="116" x="214" y="594.2285">RepositoryFactory</text><text fill="#000000" font-family="sans-serif" font-size="14" font-style="italic" lengthAdjust="spacing" textLength="79" x="394" y="65.5332">«repository»</text><text fill="#000000" font-family="sans-serif" font-size="14" lengthAdjust="spacing" textLength="173" x="347" y="83.1426">WarehousePlantRepository</text><path d="M418.5,15 C418.5,5 436.5,5 436.5,5 C436.5,5 454.5,5 454.5,15 L454.5,41 C454.5,51 436.5,51 436.5,51 C436.5,51 418.5,51 418.5,41 L418.5,15 " fill="#E2E2F0" style="stroke:#181818;stroke-width:1.5;"/><path d="M418.5,15 C418.5,25 436.5,25 436.5,25 C436.5,25 454.5,25 454.5,15 " fill="none" style="stroke:#181818;stroke-width:1.5;"/><text fill="#000000" font-family="sans-serif" font-size="14" font-style="italic" lengthAdjust="spacing" textLength="79" x="394" y="569.6191">«repository»</text><text fill="#000000" font-family="sans-serif" font-size="14" lengthAdjust="spacing" textLength="173" x="347" y="587.2285">WarehousePlantRepository</text><path d="M418.5,600.3047 C418.5,590.3047 436.5,590.3047 436.5,590.3047 C436.5,590.3047 454.5,590.3047 454.5,600.3047 L454.5,626.3047 C454.5,636.3047 436.5,636.3047 436.5,636.3047 C436.5,636.3047 418.5,636.3047 418.5,626.3047 L418.5,600.3047 " fill="#E2E2F0" style="stroke:#181818;stroke-width:1.5;"/><path d="M418.5,600.3047 C418.5,610.3047 436.5,610.3047 436.5,610.3047 C436.5,610.3047 454.5,610.3047 454.5,600.3047 " fill="none" style="stroke:#181818;stroke-width:1.5;"/><text fill="#000000" font-family="sans-serif" font-size="14" font-style="italic" lengthAdjust="spacing" textLength="79" x="549" y="65.5332">«repository»</text><text fill="#000000" font-family="sans-serif" font-size="14" lengthAdjust="spacing" textLength="105" x="536" y="83.1426">AislesRepository</text><path d="M573.5,15 C573.5,5 591.5,5 591.5,5 C591.5,5 609.5,5 609.5,15 L609.5,41 C609.5,51 591.5,51 591.5,51 C591.5,51 573.5,51 573.5,41 L573.5,15 " fill="#E2E2F0" style="stroke:#181818;stroke-width:1.5;"/><path d="M573.5,15 C573.5,25 591.5,25 591.5,25 C591.5,25 609.5,25 609.5,15 " fill="none" style="stroke:#181818;stroke-width:1.5;"/><text fill="#000000" font-family="sans-serif" font-size="14" font-style="italic" lengthAdjust="spacing" textLength="79" x="549" y="569.6191">«repository»</text><text fill="#000000" font-family="sans-serif" font-size="14" lengthAdjust="spacing" textLength="105" x="536" y="587.2285">AislesRepository</text><path d="M573.5,600.3047 C573.5,590.3047 591.5,590.3047 591.5,590.3047 C591.5,590.3047 609.5,590.3047 609.5,600.3047 L609.5,626.3047 C609.5,636.3047 591.5,636.3047 591.5,636.3047 C591.5,636.3047 573.5,636.3047 573.5,626.3047 L573.5,600.3047 " fill="#E2E2F0" style="stroke:#181818;stroke-width:1.5;"/><path d="M573.5,600.3047 C573.5,610.3047 591.5,610.3047 591.5,610.3047 C591.5,610.3047 609.5,610.3047 609.5,600.3047 " fill="none" style="stroke:#181818;stroke-width:1.5;"/><text fill="#000000" font-family="sans-serif" font-size="14" font-style="italic" lengthAdjust="spacing" textLength="79" x="682" y="65.5332">«repository»</text><text fill="#000000" font-family="sans-serif" font-size="14" lengthAdjust="spacing" textLength="129" x="657" y="83.1426">AGVDockRepository</text><path d="M706.5,15 C706.5,5 724.5,5 724.5,5 C724.5,5 742.5,5 742.5,15 L742.5,41 C742.5,51 724.5,51 724.5,51 C724.5,51 706.5,51 706.5,41 L706.5,15 " fill="#E2E2F0" style="stroke:#181818;stroke-width:1.5;"/><path d="M706.5,15 C706.5,25 724.5,25 724.5,25 C724.5,25 742.5,25 742.5,15 " fill="none" style="stroke:#181818;stroke-width:1.5;"/><text fill="#000000" font-family="sans-serif" font-size="14" font-style="italic" lengthAdjust="spacing" textLength="79" x="682" y="569.6191">«repository»</text><text fill="#000000" font-family="sans-serif" font-size="14" lengthAdjust="spacing" textLength="129" x="657" y="587.2285">AGVDockRepository</text><path d="M706.5,600.3047 C706.5,590.3047 724.5,590.3047 724.5,590.3047 C724.5,590.3047 742.5,590.3047 742.5,600.3047 L742.5,626.3047 C742.5,636.3047 724.5,636.3047 724.5,636.3047 C724.5,636.3047 706.5,636.3047 706.5,626.3047 L706.5,600.3047 " fill="#E2E2F0" style="stroke:#181818;stroke-width:1.5;"/><path d="M706.5,600.3047 C706.5,610.3047 724.5,610.3047 724.5,610.3047 C724.5,610.3047 742.5,610.3047 742.5,600.3047 " fill="none" style="stroke:#181818;stroke-width:1.5;"/><rect fill="#FFFFFF" height="419.5156" style="stroke:#181818;stroke-width:1.0;" width="10" x="116" y="118.5703"/><rect fill="#FFFFFF" height="169.0547" style="stroke:#181818;stroke-width:1.0;" width="10" x="121" y="338.6797"/><rect fill="#FFFFFF" height="125.7031" style="stroke:#181818;stroke-width:1.0;" width="10" x="126" y="382.0313"/><rect fill="#FFFFFF" height="91.0547" style="stroke:#181818;stroke-width:1.0;" width="10" x="267" y="148.9219"/><rect fill="#FFFFFF" height="30" style="stroke:#181818;stroke-width:1.0;" width="10" x="431.5" y="270.3281"/><rect fill="#FFFFFF" height="30" style="stroke:#181818;stroke-width:1.0;" width="10" x="586.5" y="417.3828"/><rect fill="#FFFFFF" height="30" style="stroke:#181818;stroke-width:1.0;" width="10" x="719.5" y="477.7344"/><polygon fill="#181818" points="104,114.5703,114,118.5703,104,122.5703,108,118.5703" style="stroke:#181818;stroke-width:1.0;"/><line style="stroke:#181818;stroke-width:1.0;" x1="0" x2="110" y1="118.5703" y2="118.5703"/><text fill="#000000" font-family="sans-serif" font-size="13" font-weight="bold" lengthAdjust="spacing" textLength="7" x="7" y="113.7139">1</text><text fill="#000000" font-family="sans-serif" font-size="13" lengthAdjust="spacing" textLength="4" x="18" y="113.7139"> </text><polygon fill="#181818" points="255,144.9219,265,148.9219,255,152.9219,259,148.9219" style="stroke:#181818;stroke-width:1.0;"/><line style="stroke:#181818;stroke-width:1.0;" x1="126" x2="261" y1="148.9219" y2="148.9219"/><text fill="#000000" font-family="sans-serif" font-size="13" font-weight="bold" lengthAdjust="spacing" textLength="7" x="133" y="144.0654">2</text><text fill="#000000" font-family="sans-serif" font-size="13" lengthAdjust="spacing" textLength="75" x="144" y="144.0654">repositories()</text><polygon fill="#181818" points="424.5,175.2734,434.5,179.2734,424.5,183.2734,428.5,179.2734" style="stroke:#181818;stroke-width:1.0;"/><line style="stroke:#181818;stroke-width:1.0;" x1="277" x2="430.5" y1="179.2734" y2="179.2734"/><text fill="#000000" font-family="sans-serif" font-size="13" font-weight="bold" lengthAdjust="spacing" textLength="7" x="284" y="174.417">3</text><text fill="#000000" font-family="sans-serif" font-size="13" lengthAdjust="spacing" textLength="36" x="295" y="174.417">create</text><polygon fill="#181818" points="424.5,205.625,434.5,209.625,424.5,213.625,428.5,209.625" style="stroke:#181818;stroke-width:1.0;"/><line style="stroke:#181818;stroke-width:1.0;" x1="277" x2="430.5" y1="209.625" y2="209.625"/><text fill="#000000" font-family="sans-serif" font-size="13" font-weight="bold" lengthAdjust="spacing" textLength="7" x="284" y="204.7686">4</text><text fill="#000000" font-family="sans-serif" font-size="13" lengthAdjust="spacing" textLength="36" x="295" y="204.7686">create</text><polygon fill="#181818" points="424.5,235.9766,434.5,239.9766,424.5,243.9766,428.5,239.9766" style="stroke:#181818;stroke-width:1.0;"/><line style="stroke:#181818;stroke-width:1.0;" x1="272" x2="430.5" y1="239.9766" y2="239.9766"/><text fill="#000000" font-family="sans-serif" font-size="13" font-weight="bold" lengthAdjust="spacing" textLength="7" x="279" y="235.1201">5</text><text fill="#000000" font-family="sans-serif" font-size="13" lengthAdjust="spacing" textLength="36" x="290" y="235.1201">create</text><polygon fill="#181818" points="419.5,266.3281,429.5,270.3281,419.5,274.3281,423.5,270.3281" style="stroke:#181818;stroke-width:1.0;"/><line style="stroke:#181818;stroke-width:1.0;" x1="126" x2="425.5" y1="270.3281" y2="270.3281"/><text fill="#000000" font-family="sans-serif" font-size="13" font-weight="bold" lengthAdjust="spacing" textLength="7" x="133" y="265.4717">6</text><text fill="#000000" font-family="sans-serif" font-size="13" lengthAdjust="spacing" textLength="64" x="144" y="265.4717">findById(id)</text><line style="stroke:#181818;stroke-width:1.0;" x1="126" x2="173" y1="325.6797" y2="325.6797"/><line style="stroke:#181818;stroke-width:1.0;" x1="173" x2="173" y1="325.6797" y2="338.6797"/><line style="stroke:#181818;stroke-width:1.0;" x1="132" x2="173" y1="338.6797" y2="338.6797"/><polygon fill="#181818" points="142,334.6797,132,338.6797,142,342.6797,138,338.6797" style="stroke:#181818;stroke-width:1.0;"/><text fill="#000000" font-family="sans-serif" font-size="13" font-weight="bold" lengthAdjust="spacing" textLength="7" x="138" y="320.8232">7</text><text fill="#000000" font-family="sans-serif" font-size="13" lengthAdjust="spacing" textLength="51" x="149" y="320.8232">buildGrid</text><line style="stroke:#181818;stroke-width:1.0;" x1="131" x2="178" y1="369.0313" y2="369.0313"/><line style="stroke:#181818;stroke-width:1.0;" x1="178" x2="178" y1="369.0313" y2="382.0313"/><line style="stroke:#181818;stroke-width:1.0;" x1="137" x2="178" y1="382.0313" y2="382.0313"/><polygon fill="#181818" points="147,378.0313,137,382.0313,147,386.0313,143,382.0313" style="stroke:#181818;stroke-width:1.0;"/><text fill="#000000" font-family="sans-serif" font-size="13" font-weight="bold" lengthAdjust="spacing" textLength="7" x="143" y="364.1748">8</text><text fill="#000000" font-family="sans-serif" font-size="13" lengthAdjust="spacing" textLength="103" x="154" y="364.1748">markObstacules()</text><polygon fill="#181818" points="574.5,413.3828,584.5,417.3828,574.5,421.3828,578.5,417.3828" style="stroke:#181818;stroke-width:1.0;"/><line style="stroke:#181818;stroke-width:1.0;" x1="136" x2="580.5" y1="417.3828" y2="417.3828"/><text fill="#000000" font-family="sans-serif" font-size="13" font-weight="bold" lengthAdjust="spacing" textLength="7" x="143" y="412.5264">9</text><text fill="#000000" font-family="sans-serif" font-size="13" lengthAdjust="spacing" textLength="107" x="154" y="412.5264">aisleList = findAll()</text><polygon fill="#181818" points="707.5,473.7344,717.5,477.7344,707.5,481.7344,711.5,477.7344" style="stroke:#181818;stroke-width:1.0;"/><line style="stroke:#181818;stroke-width:1.0;" x1="136" x2="713.5" y1="477.7344" y2="477.7344"/><text fill="#000000" font-family="sans-serif" font-size="13" font-weight="bold" lengthAdjust="spacing" textLength="14" x="143" y="472.8779">10</text><text fill="#000000" font-family="sans-serif" font-size="13" lengthAdjust="spacing" textLength="129" x="161" y="472.8779">agvDockList = findAll()</text><polygon fill="#181818" points="11,534.0859,1,538.0859,11,542.0859,7,538.0859" style="stroke:#181818;stroke-width:1.0;"/><line style="stroke:#181818;stroke-width:1.0;stroke-dasharray:2.0,2.0;" x1="5" x2="120" y1="538.0859" y2="538.0859"/><text fill="#000000" font-family="sans-serif" font-size="13" font-weight="bold" lengthAdjust="spacing" textLength="14" x="17" y="533.2295">11</text><text fill="#000000" font-family="sans-serif" font-size="13" lengthAdjust="spacing" textLength="79" x="35" y="533.2295">info about agv</text><!--MD5=[e992b9ae235c7d9ebaf046f2b1174d13]
@startuml

autonumber

participant WarehouseMovement as wm <<application>>
participant RepositoryFactory as factory <<factory>>

database WarehousePlantRepository as repository <<repository>>
database AislesRepository as aislerepository <<repository>>
database AGVDockRepository as agvrepository <<repository>>


 -> wm :
activate wm
wm -> factory : repositories()
activate factory
factory -> repository : create
factory -> repository : create
factory -> repository : create
deactivate factory
wm -> repository : findById(id)
activate repository
deactivate repository
wm -> wm : buildGrid
activate wm
wm -> wm : markObstacules()
activate wm
wm -> aislerepository : aisleList = findAll()
activate aislerepository
deactivate aislerepository
wm -> agvrepository : agvDockList = findAll()
activate agvrepository
deactivate agvrepository
deactivate wm
deactivate wm


 <- - wm : info about agv
 deactivate wm

@enduml

PlantUML version 1.2022.5(Sat Apr 30 11:55:52 BST 2022)
(GPL source distribution)
Java Runtime: OpenJDK Runtime Environment
JVM: OpenJDK 64-Bit Server VM
Default Encoding: Cp1252
Language: pt
Country: PT
--></g></svg>