<?xml version="1.0" encoding="UTF-8" standalone="no"?><svg xmlns="http://www.w3.org/2000/svg" xmlns:xlink="http://www.w3.org/1999/xlink" contentStyleType="text/css" height="495px" preserveAspectRatio="none" style="width:840px;height:495px;background:#FFFFFF;" version="1.1" viewBox="0 0 840 495" width="840px" zoomAndPan="magnify"><defs/><g><rect fill="#FFFFFF" height="133.7031" style="stroke:#181818;stroke-width:1.0;" width="10" x="256" y="100.3125"/><rect fill="#FFFFFF" height="28" style="stroke:#181818;stroke-width:1.0;" width="10" x="261" y="138.6641"/><rect fill="#FFFFFF" height="237.0156" style="stroke:#181818;stroke-width:1.0;" width="10" x="389" y="204.0156"/><rect fill="#FFFFFF" height="103.7031" style="stroke:#181818;stroke-width:1.0;" width="10" x="707" y="337.3281"/><rect fill="#FFFFFF" height="28" style="stroke:#181818;stroke-width:1.0;" width="10" x="712" y="375.6797"/><line style="stroke:#181818;stroke-width:0.5;stroke-dasharray:5.0,5.0;" x1="81" x2="81" y1="37.6094" y2="459.0313"/><line style="stroke:#181818;stroke-width:0.5;stroke-dasharray:5.0,5.0;" x1="261" x2="261" y1="37.6094" y2="459.0313"/><line style="stroke:#181818;stroke-width:0.5;stroke-dasharray:5.0,5.0;" x1="394" x2="394" y1="37.6094" y2="459.0313"/><line style="stroke:#181818;stroke-width:0.5;stroke-dasharray:5.0,5.0;" x1="517" x2="517" y1="37.6094" y2="459.0313"/><line style="stroke:#181818;stroke-width:0.5;stroke-dasharray:5.0,5.0;" x1="712" x2="712" y1="303.6719" y2="459.0313"/><rect fill="#E2E2F0" height="31.6094" rx="2.5" ry="2.5" style="stroke:#181818;stroke-width:0.5;" width="152" x="5" y="5"/><text fill="#000000" font-family="sans-serif" font-size="14" lengthAdjust="spacing" textLength="138" x="12" y="26.5332">AGVManagerDaemon</text><rect fill="#E2E2F0" height="31.6094" rx="2.5" ry="2.5" style="stroke:#181818;stroke-width:0.5;" width="152" x="5" y="458.0313"/><text fill="#000000" font-family="sans-serif" font-size="14" lengthAdjust="spacing" textLength="138" x="12" y="479.5645">AGVManagerDaemon</text><rect fill="#E2E2F0" height="31.6094" rx="2.5" ry="2.5" style="stroke:#181818;stroke-width:0.5;" width="188" x="167" y="5"/><text fill="#000000" font-family="sans-serif" font-size="14" lengthAdjust="spacing" textLength="174" x="174" y="26.5332">AgvManagerProtocolServer</text><rect fill="#E2E2F0" height="31.6094" rx="2.5" ry="2.5" style="stroke:#181818;stroke-width:0.5;" width="188" x="167" y="458.0313"/><text fill="#000000" font-family="sans-serif" font-size="14" lengthAdjust="spacing" textLength="174" x="174" y="479.5645">AgvManagerProtocolServer</text><rect fill="#E2E2F0" height="31.6094" rx="2.5" ry="2.5" style="stroke:#181818;stroke-width:0.5;" width="58" x="365" y="5"/><text fill="#000000" font-family="sans-serif" font-size="14" lengthAdjust="spacing" textLength="44" x="372" y="26.5332">Handle</text><rect fill="#E2E2F0" height="31.6094" rx="2.5" ry="2.5" style="stroke:#181818;stroke-width:0.5;" width="58" x="365" y="458.0313"/><text fill="#000000" font-family="sans-serif" font-size="14" lengthAdjust="spacing" textLength="44" x="372" y="479.5645">Handle</text><rect fill="#E2E2F0" height="31.6094" rx="2.5" ry="2.5" style="stroke:#181818;stroke-width:0.5;" width="166" x="434" y="5"/><text fill="#000000" font-family="sans-serif" font-size="14" lengthAdjust="spacing" textLength="152" x="441" y="26.5332">RequestMessageParser</text><rect fill="#E2E2F0" height="31.6094" rx="2.5" ry="2.5" style="stroke:#181818;stroke-width:0.5;" width="166" x="434" y="458.0313"/><text fill="#000000" font-family="sans-serif" font-size="14" lengthAdjust="spacing" textLength="152" x="441" y="479.5645">RequestMessageParser</text><rect fill="#E2E2F0" height="31.6094" rx="2.5" ry="2.5" style="stroke:#181818;stroke-width:0.5;" width="204" x="610" y="458.0313"/><text fill="#000000" font-family="sans-serif" font-size="14" lengthAdjust="spacing" textLength="190" x="617" y="479.5645">AGVManagerProtocolRequest</text><rect fill="#FFFFFF" height="133.7031" style="stroke:#181818;stroke-width:1.0;" width="10" x="256" y="100.3125"/><rect fill="#FFFFFF" height="28" style="stroke:#181818;stroke-width:1.0;" width="10" x="261" y="138.6641"/><rect fill="#FFFFFF" height="237.0156" style="stroke:#181818;stroke-width:1.0;" width="10" x="389" y="204.0156"/><rect fill="#FFFFFF" height="103.7031" style="stroke:#181818;stroke-width:1.0;" width="10" x="707" y="337.3281"/><rect fill="#FFFFFF" height="28" style="stroke:#181818;stroke-width:1.0;" width="10" x="712" y="375.6797"/><polygon fill="#181818" points="249,65.9609,259,69.9609,249,73.9609,253,69.9609" style="stroke:#181818;stroke-width:1.0;"/><line style="stroke:#181818;stroke-width:1.0;" x1="81" x2="255" y1="69.9609" y2="69.9609"/><text fill="#000000" font-family="sans-serif" font-size="13" font-weight="bold" lengthAdjust="spacing" textLength="7" x="88" y="65.1045">1</text><text fill="#000000" font-family="sans-serif" font-size="13" lengthAdjust="spacing" textLength="23" x="99" y="65.1045">new</text><polygon fill="#181818" points="244,96.3125,254,100.3125,244,104.3125,248,100.3125" style="stroke:#181818;stroke-width:1.0;"/><line style="stroke:#181818;stroke-width:1.0;" x1="81" x2="250" y1="100.3125" y2="100.3125"/><text fill="#000000" font-family="sans-serif" font-size="13" font-weight="bold" lengthAdjust="spacing" textLength="7" x="88" y="95.4561">2</text><text fill="#000000" font-family="sans-serif" font-size="13" lengthAdjust="spacing" textLength="26" x="99" y="95.4561">start</text><line style="stroke:#181818;stroke-width:1.0;" x1="271" x2="313" y1="130.6641" y2="130.6641"/><line style="stroke:#181818;stroke-width:1.0;" x1="313" x2="313" y1="130.6641" y2="143.6641"/><line style="stroke:#181818;stroke-width:1.0;" x1="272" x2="313" y1="143.6641" y2="143.6641"/><polygon fill="#181818" points="282,139.6641,272,143.6641,282,147.6641,278,143.6641" style="stroke:#181818;stroke-width:1.0;"/><text fill="#000000" font-family="sans-serif" font-size="13" font-weight="bold" lengthAdjust="spacing" textLength="7" x="278" y="125.8076">3</text><text fill="#000000" font-family="sans-serif" font-size="13" lengthAdjust="spacing" textLength="39" x="289" y="125.8076">accept</text><polygon fill="#181818" points="377,200.0156,387,204.0156,377,208.0156,381,204.0156" style="stroke:#181818;stroke-width:1.0;"/><line style="stroke:#181818;stroke-width:1.0;" x1="266" x2="383" y1="204.0156" y2="204.0156"/><text fill="#000000" font-family="sans-serif" font-size="13" font-weight="bold" lengthAdjust="spacing" textLength="7" x="273" y="199.1592">4</text><text fill="#000000" font-family="sans-serif" font-size="13" lengthAdjust="spacing" textLength="26" x="284" y="199.1592">start</text><polygon fill="#181818" points="505,260.3672,515,264.3672,505,268.3672,509,264.3672" style="stroke:#181818;stroke-width:1.0;"/><line style="stroke:#181818;stroke-width:1.0;" x1="399" x2="511" y1="264.3672" y2="264.3672"/><text fill="#000000" font-family="sans-serif" font-size="13" font-weight="bold" lengthAdjust="spacing" textLength="7" x="406" y="259.5107">5</text><text fill="#000000" font-family="sans-serif" font-size="13" lengthAdjust="spacing" textLength="83" x="417" y="259.5107">parse(request)</text><polygon fill="#181818" points="598,290.7188,608,294.7188,598,298.7188,602,294.7188" style="stroke:#181818;stroke-width:1.0;"/><line style="stroke:#181818;stroke-width:1.0;" x1="517" x2="604" y1="294.7188" y2="294.7188"/><text fill="#000000" font-family="sans-serif" font-size="13" font-weight="bold" lengthAdjust="spacing" textLength="7" x="524" y="289.8623">6</text><text fill="#000000" font-family="sans-serif" font-size="13" lengthAdjust="spacing" textLength="23" x="535" y="289.8623">new</text><rect fill="#E2E2F0" height="31.6094" rx="2.5" ry="2.5" style="stroke:#181818;stroke-width:0.5;" width="204" x="610" y="272.3672"/><text fill="#000000" font-family="sans-serif" font-size="14" lengthAdjust="spacing" textLength="190" x="617" y="293.9004">AGVManagerProtocolRequest</text><polygon fill="#181818" points="695,333.3281,705,337.3281,695,341.3281,699,337.3281" style="stroke:#181818;stroke-width:1.0;"/><line style="stroke:#181818;stroke-width:1.0;" x1="399" x2="701" y1="337.3281" y2="337.3281"/><text fill="#000000" font-family="sans-serif" font-size="13" font-weight="bold" lengthAdjust="spacing" textLength="7" x="406" y="332.4717">7</text><text fill="#000000" font-family="sans-serif" font-size="13" lengthAdjust="spacing" textLength="46" x="417" y="332.4717">execute</text><line style="stroke:#181818;stroke-width:1.0;" x1="722" x2="764" y1="367.6797" y2="367.6797"/><line style="stroke:#181818;stroke-width:1.0;" x1="764" x2="764" y1="367.6797" y2="380.6797"/><line style="stroke:#181818;stroke-width:1.0;" x1="723" x2="764" y1="380.6797" y2="380.6797"/><polygon fill="#181818" points="733,376.6797,723,380.6797,733,384.6797,729,380.6797" style="stroke:#181818;stroke-width:1.0;"/><text fill="#000000" font-family="sans-serif" font-size="13" font-weight="bold" lengthAdjust="spacing" textLength="7" x="729" y="362.8232">8</text><text fill="#000000" font-family="sans-serif" font-size="13" lengthAdjust="spacing" textLength="93" x="740" y="362.8232">buildResponse()</text><polygon fill="#181818" points="405,437.0313,395,441.0313,405,445.0313,401,441.0313" style="stroke:#181818;stroke-width:1.0;"/><line style="stroke:#181818;stroke-width:1.0;stroke-dasharray:2.0,2.0;" x1="399" x2="711" y1="441.0313" y2="441.0313"/><text fill="#000000" font-family="sans-serif" font-size="13" font-weight="bold" lengthAdjust="spacing" textLength="7" x="411" y="436.1748">9</text><text fill="#000000" font-family="sans-serif" font-size="13" lengthAdjust="spacing" textLength="53" x="422" y="436.1748">response</text><!--MD5=[7feb7f6e9786e4559208458658b4230e]
@startuml
autonumber
participant "AGVManagerDaemon" as DAEMON
participant "AgvManagerProtocolServer" as SERVER
participant "Handle" as HANDLER
participant "RequestMessageParser" as PARSER
participant "AGVManagerProtocolRequest" as REQUEST


DAEMON -> SERVER : new
DAEMON -> SERVER : start
activate SERVER
SERVER -> SERVER : accept
activate SERVER
deactivate SERVER
SERVER -> HANDLER : start
activate HANDLER
deactivate SERVER
HANDLER -> PARSER : parse(request)
PARSER -> REQUEST** : new
HANDLER -> REQUEST : execute
activate REQUEST
REQUEST -> REQUEST : buildResponse()
activate REQUEST
deactivate REQUEST
REQUEST - -> HANDLER : response
deactivate REQUEST
deactivate HANDLER
@enduml

PlantUML version 1.2022.4(Sat Apr 09 14:29:17 BST 2022)
(GPL source distribution)
Java Runtime: OpenJDK Runtime Environment
JVM: OpenJDK 64-Bit Server VM
Default Encoding: Cp1252
Language: pt
Country: PT
--></g></svg>