<?xml version="1.0" encoding="UTF-8" standalone="no"?><svg xmlns="http://www.w3.org/2000/svg" xmlns:xlink="http://www.w3.org/1999/xlink" contentStyleType="text/css" height="519px" preserveAspectRatio="none" style="width:2794px;height:519px;background:#FFFFFF;" version="1.1" viewBox="0 0 2794 519" width="2794px" zoomAndPan="magnify"><defs/><g><!--MD5=[21471ca782fb847d8cabb8756c35b36f]
entity AGVDockRepository--><g id="elem_AGVDockRepository"><path d="M1019.1,465.77 C1019.1,455.77 1093.6,455.77 1093.6,455.77 C1093.6,455.77 1168.1,455.77 1168.1,465.77 L1168.1,492.3794 C1168.1,502.3794 1093.6,502.3794 1093.6,502.3794 C1093.6,502.3794 1019.1,502.3794 1019.1,492.3794 L1019.1,465.77 " fill="#F1F1F1" style="stroke:#181818;stroke-width:0.5;"/><path d="M1019.1,465.77 C1019.1,475.77 1093.6,475.77 1093.6,475.77 C1093.6,475.77 1168.1,475.77 1168.1,465.77 " fill="none" style="stroke:#181818;stroke-width:0.5;"/><text fill="#000000" font-family="sans-serif" font-size="14" lengthAdjust="spacing" textLength="129" x="1029.1" y="494.3032">AGVDockRepository</text></g><!--MD5=[f39facdfb2fb8c0fd7a5b37b08d26187]
entity AisleRepository--><g id="elem_AisleRepository"><path d="M1203.6,465.77 C1203.6,455.77 1262.6,455.77 1262.6,455.77 C1262.6,455.77 1321.6,455.77 1321.6,465.77 L1321.6,492.3794 C1321.6,502.3794 1262.6,502.3794 1262.6,502.3794 C1262.6,502.3794 1203.6,502.3794 1203.6,492.3794 L1203.6,465.77 " fill="#F1F1F1" style="stroke:#181818;stroke-width:0.5;"/><path d="M1203.6,465.77 C1203.6,475.77 1262.6,475.77 1262.6,475.77 C1262.6,475.77 1321.6,475.77 1321.6,465.77 " fill="none" style="stroke:#181818;stroke-width:0.5;"/><text fill="#000000" font-family="sans-serif" font-size="14" lengthAdjust="spacing" textLength="98" x="1213.6" y="494.3032">AisleRepository</text></g><!--MD5=[774524f63224a5e236748a5ca81e6537]
entity BinRepository--><g id="elem_BinRepository"><path d="M145.6,465.77 C145.6,455.77 199.6,455.77 199.6,455.77 C199.6,455.77 253.6,455.77 253.6,465.77 L253.6,492.3794 C253.6,502.3794 199.6,502.3794 199.6,502.3794 C199.6,502.3794 145.6,502.3794 145.6,492.3794 L145.6,465.77 " fill="#F1F1F1" style="stroke:#181818;stroke-width:0.5;"/><path d="M145.6,465.77 C145.6,475.77 199.6,475.77 199.6,475.77 C199.6,475.77 253.6,475.77 253.6,465.77 " fill="none" style="stroke:#181818;stroke-width:0.5;"/><text fill="#000000" font-family="sans-serif" font-size="14" lengthAdjust="spacing" textLength="88" x="155.6" y="494.3032">BinRepository</text></g><!--MD5=[1e444e5df5f57fa4a92e78d25d56b1aa]
entity LineRepository--><g id="elem_LineRepository"><path d="M289.1,465.77 C289.1,455.77 346.6,455.77 346.6,455.77 C346.6,455.77 404.1,455.77 404.1,465.77 L404.1,492.3794 C404.1,502.3794 346.6,502.3794 346.6,502.3794 C346.6,502.3794 289.1,502.3794 289.1,492.3794 L289.1,465.77 " fill="#F1F1F1" style="stroke:#181818;stroke-width:0.5;"/><path d="M289.1,465.77 C289.1,475.77 346.6,475.77 346.6,475.77 C346.6,475.77 404.1,475.77 404.1,465.77 " fill="none" style="stroke:#181818;stroke-width:0.5;"/><text fill="#000000" font-family="sans-serif" font-size="14" lengthAdjust="spacing" textLength="95" x="299.1" y="494.3032">LineRepository</text></g><!--MD5=[de2ce7b5c2f63c21f4878860940cbefd]
entity ShelfRepository--><g id="elem_ShelfRepository"><path d="M439.6,465.77 C439.6,455.77 499.6,455.77 499.6,455.77 C499.6,455.77 559.6,455.77 559.6,465.77 L559.6,492.3794 C559.6,502.3794 499.6,502.3794 499.6,502.3794 C499.6,502.3794 439.6,502.3794 439.6,492.3794 L439.6,465.77 " fill="#F1F1F1" style="stroke:#181818;stroke-width:0.5;"/><path d="M439.6,465.77 C439.6,475.77 499.6,475.77 499.6,475.77 C499.6,475.77 559.6,475.77 559.6,465.77 " fill="none" style="stroke:#181818;stroke-width:0.5;"/><text fill="#000000" font-family="sans-serif" font-size="14" lengthAdjust="spacing" textLength="100" x="449.6" y="494.3032">ShelfRepository</text></g><!--MD5=[fc18be233ce4bfa236bcc907cb727990]
entity WarehousePlantRepository--><g id="elem_WarehousePlantRepository"><path d="M595.1,465.77 C595.1,455.77 691.6,455.77 691.6,455.77 C691.6,455.77 788.1,455.77 788.1,465.77 L788.1,492.3794 C788.1,502.3794 691.6,502.3794 691.6,502.3794 C691.6,502.3794 595.1,502.3794 595.1,492.3794 L595.1,465.77 " fill="#F1F1F1" style="stroke:#181818;stroke-width:0.5;"/><path d="M595.1,465.77 C595.1,475.77 691.6,475.77 691.6,475.77 C691.6,475.77 788.1,475.77 788.1,465.77 " fill="none" style="stroke:#181818;stroke-width:0.5;"/><text fill="#000000" font-family="sans-serif" font-size="14" lengthAdjust="spacing" textLength="173" x="605.1" y="494.3032">WarehousePlantRepository</text></g><!--MD5=[022c090f87954f5ea490c96918402a5b]
entity WarehouseRepository--><g id="elem_WarehouseRepository"><path d="M823.1,465.77 C823.1,455.77 903.6,455.77 903.6,455.77 C903.6,455.77 984.1,455.77 984.1,465.77 L984.1,492.3794 C984.1,502.3794 903.6,502.3794 903.6,502.3794 C903.6,502.3794 823.1,502.3794 823.1,492.3794 L823.1,465.77 " fill="#F1F1F1" style="stroke:#181818;stroke-width:0.5;"/><path d="M823.1,465.77 C823.1,475.77 903.6,475.77 903.6,475.77 C903.6,475.77 984.1,475.77 984.1,465.77 " fill="none" style="stroke:#181818;stroke-width:0.5;"/><text fill="#000000" font-family="sans-serif" font-size="14" lengthAdjust="spacing" textLength="141" x="833.1" y="494.3032">WarehouseRepository</text></g><!--MD5=[9401f0cfba5b5a9f835c5b345b6d16e2]
class ImportJsonUI--><g id="elem_ImportJsonUI"><rect codeLine="3" fill="#F1F1F1" height="48" id="ImportJsonUI" rx="2.5" ry="2.5" style="stroke:#181818;stroke-width:0.5;" width="112" x="1079.6" y="43.27"/><ellipse cx="1094.6" cy="59.27" fill="#ADD1B2" rx="11" ry="11" style="stroke:#181818;stroke-width:1.0;"/><path d="M1096.6,55.77 Q1096.8031,55.27 1097.0375,55.02 Q1097.2719,54.77 1097.5375,54.77 Q1098.0063,54.77 1098.3031,55.0512 Q1098.6,55.3325 1098.6,55.9887 L1098.6,57.5512 Q1098.6,58.2075 1098.3188,58.4887 Q1098.0375,58.77 1097.6,58.77 Q1097.2094,58.77 1096.9594,58.5981 Q1096.7094,58.4262 1096.6,57.9731 Q1096.5531,57.6606 1096.3813,57.4887 Q1096.0688,57.1606 1095.5063,56.9731 Q1094.9438,56.77 1094.3813,56.77 Q1093.6781,56.77 1093.0844,57.0512 Q1092.5063,57.3325 1092.0531,57.9575 Q1091.6,58.5825 1091.6,59.4419 L1091.6,60.3637 Q1091.6,61.395 1092.4438,62.0825 Q1093.2875,62.77 1094.7875,62.77 Q1095.6781,62.77 1096.3031,62.5669 Q1096.6625,62.4575 1097.0688,62.0981 Q1097.3344,61.895 1097.475,61.8325 Q1097.6156,61.77 1097.7875,61.77 Q1098.1156,61.77 1098.35,62.0356 Q1098.6,62.2856 1098.6,62.645 Q1098.6,62.9887 1098.2563,63.395 Q1097.7563,63.9887 1096.9594,64.3169 Q1095.9125,64.77 1094.6313,64.77 Q1093.1313,64.77 1091.9281,64.1762 Q1090.9594,63.7075 1090.2719,62.6919 Q1089.6,61.6762 1089.6,60.4731 L1089.6,59.3794 Q1089.6,58.1294 1090.1938,57.0356 Q1090.8031,55.9419 1091.85,55.3637 Q1092.9125,54.77 1094.1,54.77 Q1094.8188,54.77 1095.4438,55.02 Q1096.0688,55.27 1096.6,55.77 Z " fill="#000000"/><text fill="#000000" font-family="sans-serif" font-size="14" lengthAdjust="spacing" textLength="80" x="1108.6" y="64.9985">ImportJsonUI</text><line style="stroke:#181818;stroke-width:0.5;" x1="1080.6" x2="1190.6" y1="75.27" y2="75.27"/><line style="stroke:#181818;stroke-width:0.5;" x1="1080.6" x2="1190.6" y1="83.27" y2="83.27"/></g><!--MD5=[0fe490415a648f2023af3ad4b61ae2bd]
class ImportJsonController--><g id="elem_ImportJsonController"><rect codeLine="4" fill="#F1F1F1" height="48" id="ImportJsonController" rx="2.5" ry="2.5" style="stroke:#181818;stroke-width:0.5;" width="162" x="1226.6" y="43.27"/><ellipse cx="1241.6" cy="59.27" fill="#ADD1B2" rx="11" ry="11" style="stroke:#181818;stroke-width:1.0;"/><path d="M1243.6,55.77 Q1243.8031,55.27 1244.0375,55.02 Q1244.2719,54.77 1244.5375,54.77 Q1245.0063,54.77 1245.3031,55.0512 Q1245.6,55.3325 1245.6,55.9887 L1245.6,57.5512 Q1245.6,58.2075 1245.3188,58.4887 Q1245.0375,58.77 1244.6,58.77 Q1244.2094,58.77 1243.9594,58.5981 Q1243.7094,58.4262 1243.6,57.9731 Q1243.5531,57.6606 1243.3813,57.4887 Q1243.0688,57.1606 1242.5063,56.9731 Q1241.9438,56.77 1241.3813,56.77 Q1240.6781,56.77 1240.0844,57.0512 Q1239.5063,57.3325 1239.0531,57.9575 Q1238.6,58.5825 1238.6,59.4419 L1238.6,60.3637 Q1238.6,61.395 1239.4438,62.0825 Q1240.2875,62.77 1241.7875,62.77 Q1242.6781,62.77 1243.3031,62.5669 Q1243.6625,62.4575 1244.0688,62.0981 Q1244.3344,61.895 1244.475,61.8325 Q1244.6156,61.77 1244.7875,61.77 Q1245.1156,61.77 1245.35,62.0356 Q1245.6,62.2856 1245.6,62.645 Q1245.6,62.9887 1245.2563,63.395 Q1244.7563,63.9887 1243.9594,64.3169 Q1242.9125,64.77 1241.6313,64.77 Q1240.1313,64.77 1238.9281,64.1762 Q1237.9594,63.7075 1237.2719,62.6919 Q1236.6,61.6762 1236.6,60.4731 L1236.6,59.3794 Q1236.6,58.1294 1237.1938,57.0356 Q1237.8031,55.9419 1238.85,55.3637 Q1239.9125,54.77 1241.1,54.77 Q1241.8188,54.77 1242.4438,55.02 Q1243.0688,55.27 1243.6,55.77 Z " fill="#000000"/><text fill="#000000" font-family="sans-serif" font-size="14" lengthAdjust="spacing" textLength="130" x="1255.6" y="64.9985">ImportJsonController</text><line style="stroke:#181818;stroke-width:0.5;" x1="1227.6" x2="1387.6" y1="75.27" y2="75.27"/><line style="stroke:#181818;stroke-width:0.5;" x1="1227.6" x2="1387.6" y1="83.27" y2="83.27"/></g><!--MD5=[cf535ce5e0c1db2c35ecba0fb4f1d265]
class JsonImport--><g id="elem_JsonImport"><rect codeLine="5" fill="#F1F1F1" height="48" id="JsonImport" rx="2.5" ry="2.5" style="stroke:#181818;stroke-width:0.5;" width="100" x="1423.6" y="43.27"/><ellipse cx="1438.6" cy="59.27" fill="#ADD1B2" rx="11" ry="11" style="stroke:#181818;stroke-width:1.0;"/><path d="M1440.6,55.77 Q1440.8031,55.27 1441.0375,55.02 Q1441.2719,54.77 1441.5375,54.77 Q1442.0063,54.77 1442.3031,55.0512 Q1442.6,55.3325 1442.6,55.9887 L1442.6,57.5512 Q1442.6,58.2075 1442.3188,58.4887 Q1442.0375,58.77 1441.6,58.77 Q1441.2094,58.77 1440.9594,58.5981 Q1440.7094,58.4262 1440.6,57.9731 Q1440.5531,57.6606 1440.3813,57.4887 Q1440.0688,57.1606 1439.5063,56.9731 Q1438.9438,56.77 1438.3813,56.77 Q1437.6781,56.77 1437.0844,57.0512 Q1436.5063,57.3325 1436.0531,57.9575 Q1435.6,58.5825 1435.6,59.4419 L1435.6,60.3637 Q1435.6,61.395 1436.4438,62.0825 Q1437.2875,62.77 1438.7875,62.77 Q1439.6781,62.77 1440.3031,62.5669 Q1440.6625,62.4575 1441.0688,62.0981 Q1441.3344,61.895 1441.475,61.8325 Q1441.6156,61.77 1441.7875,61.77 Q1442.1156,61.77 1442.35,62.0356 Q1442.6,62.2856 1442.6,62.645 Q1442.6,62.9887 1442.2563,63.395 Q1441.7563,63.9887 1440.9594,64.3169 Q1439.9125,64.77 1438.6313,64.77 Q1437.1313,64.77 1435.9281,64.1762 Q1434.9594,63.7075 1434.2719,62.6919 Q1433.6,61.6762 1433.6,60.4731 L1433.6,59.3794 Q1433.6,58.1294 1434.1938,57.0356 Q1434.8031,55.9419 1435.85,55.3637 Q1436.9125,54.77 1438.1,54.77 Q1438.8188,54.77 1439.4438,55.02 Q1440.0688,55.27 1440.6,55.77 Z " fill="#000000"/><text fill="#000000" font-family="sans-serif" font-size="14" lengthAdjust="spacing" textLength="68" x="1452.6" y="64.9985">JsonImport</text><line style="stroke:#181818;stroke-width:0.5;" x1="1424.6" x2="1522.6" y1="75.27" y2="75.27"/><line style="stroke:#181818;stroke-width:0.5;" x1="1424.6" x2="1522.6" y1="83.27" y2="83.27"/></g><!--MD5=[e8c189551b7885b999ad7cefb30fc2a3]
class PersistenceContext--><g id="elem_PersistenceContext"><rect codeLine="25" fill="#F1F1F1" height="65.6094" id="PersistenceContext" rx="2.5" ry="2.5" style="stroke:#181818;stroke-width:0.5;" width="154" x="614.6" y="159.77"/><ellipse cx="629.6" cy="175.77" fill="#ADD1B2" rx="11" ry="11" style="stroke:#181818;stroke-width:1.0;"/><path d="M631.6,172.27 Q631.8031,171.77 632.0375,171.52 Q632.2719,171.27 632.5375,171.27 Q633.0063,171.27 633.3031,171.5512 Q633.6,171.8325 633.6,172.4887 L633.6,174.0512 Q633.6,174.7075 633.3188,174.9887 Q633.0375,175.27 632.6,175.27 Q632.2094,175.27 631.9594,175.0981 Q631.7094,174.9262 631.6,174.4731 Q631.5531,174.1606 631.3813,173.9887 Q631.0688,173.6606 630.5063,173.4731 Q629.9438,173.27 629.3813,173.27 Q628.6781,173.27 628.0844,173.5512 Q627.5063,173.8325 627.0531,174.4575 Q626.6,175.0825 626.6,175.9419 L626.6,176.8637 Q626.6,177.895 627.4438,178.5825 Q628.2875,179.27 629.7875,179.27 Q630.6781,179.27 631.3031,179.0669 Q631.6625,178.9575 632.0688,178.5981 Q632.3344,178.395 632.475,178.3325 Q632.6156,178.27 632.7875,178.27 Q633.1156,178.27 633.35,178.5356 Q633.6,178.7856 633.6,179.145 Q633.6,179.4887 633.2563,179.895 Q632.7563,180.4887 631.9594,180.8169 Q630.9125,181.27 629.6313,181.27 Q628.1313,181.27 626.9281,180.6762 Q625.9594,180.2075 625.2719,179.1919 Q624.6,178.1762 624.6,176.9731 L624.6,175.8794 Q624.6,174.6294 625.1938,173.5356 Q625.8031,172.4419 626.85,171.8637 Q627.9125,171.27 629.1,171.27 Q629.8188,171.27 630.4438,171.52 Q631.0688,171.77 631.6,172.27 Z " fill="#000000"/><text fill="#000000" font-family="sans-serif" font-size="14" lengthAdjust="spacing" textLength="122" x="643.6" y="181.4985">PersistenceContext</text><line style="stroke:#181818;stroke-width:0.5;" x1="615.6" x2="767.6" y1="191.77" y2="191.77"/><line style="stroke:#181818;stroke-width:0.5;" x1="615.6" x2="767.6" y1="199.77" y2="199.77"/><ellipse cx="625.6" cy="210.77" fill="#84BE84" rx="3" ry="3" style="stroke:#038048;stroke-width:1.0;"/><text fill="#000000" font-family="sans-serif" font-size="14" lengthAdjust="spacing" textLength="84" x="634.6" y="218.3032">repositories()</text></g><!--MD5=[288bffab58163169a8d16c57b889bc0c]
class TransactionalContext--><g id="elem_TransactionalContext"><rect codeLine="29" fill="#F1F1F1" height="83.2188" id="TransactionalContext" rx="2.5" ry="2.5" style="stroke:#181818;stroke-width:0.5;" width="166" x="270.6" y="151.27"/><ellipse cx="285.6" cy="167.27" fill="#ADD1B2" rx="11" ry="11" style="stroke:#181818;stroke-width:1.0;"/><path d="M287.6,163.77 Q287.8031,163.27 288.0375,163.02 Q288.2719,162.77 288.5375,162.77 Q289.0063,162.77 289.3031,163.0512 Q289.6,163.3325 289.6,163.9887 L289.6,165.5512 Q289.6,166.2075 289.3188,166.4887 Q289.0375,166.77 288.6,166.77 Q288.2094,166.77 287.9594,166.5981 Q287.7094,166.4262 287.6,165.9731 Q287.5531,165.6606 287.3813,165.4887 Q287.0688,165.1606 286.5063,164.9731 Q285.9438,164.77 285.3813,164.77 Q284.6781,164.77 284.0844,165.0512 Q283.5063,165.3325 283.0531,165.9575 Q282.6,166.5825 282.6,167.4419 L282.6,168.3637 Q282.6,169.395 283.4438,170.0825 Q284.2875,170.77 285.7875,170.77 Q286.6781,170.77 287.3031,170.5669 Q287.6625,170.4575 288.0688,170.0981 Q288.3344,169.895 288.475,169.8325 Q288.6156,169.77 288.7875,169.77 Q289.1156,169.77 289.35,170.0356 Q289.6,170.2856 289.6,170.645 Q289.6,170.9887 289.2563,171.395 Q288.7563,171.9887 287.9594,172.3169 Q286.9125,172.77 285.6313,172.77 Q284.1313,172.77 282.9281,172.1762 Q281.9594,171.7075 281.2719,170.6919 Q280.6,169.6762 280.6,168.4731 L280.6,167.3794 Q280.6,166.1294 281.1938,165.0356 Q281.8031,163.9419 282.85,163.3637 Q283.9125,162.77 285.1,162.77 Q285.8188,162.77 286.4438,163.02 Q287.0688,163.27 287.6,163.77 Z " fill="#000000"/><text fill="#000000" font-family="sans-serif" font-size="14" lengthAdjust="spacing" textLength="134" x="299.6" y="172.9985">TransactionalContext</text><line style="stroke:#181818;stroke-width:0.5;" x1="271.6" x2="435.6" y1="183.27" y2="183.27"/><line style="stroke:#181818;stroke-width:0.5;" x1="271.6" x2="435.6" y1="191.27" y2="191.27"/><ellipse cx="281.6" cy="202.27" fill="#84BE84" rx="3" ry="3" style="stroke:#038048;stroke-width:1.0;"/><text fill="#000000" font-family="sans-serif" font-size="14" lengthAdjust="spacing" textLength="120" x="290.6" y="209.8032">beginTransaction()</text><ellipse cx="281.6" cy="219.8794" fill="#84BE84" rx="3" ry="3" style="stroke:#038048;stroke-width:1.0;"/><text fill="#000000" font-family="sans-serif" font-size="14" lengthAdjust="spacing" textLength="54" x="290.6" y="227.4126">commit()</text></g><!--MD5=[48590afff58a68e2fcba47824d6f8a11]
class RepositoryFactory--><g id="elem_RepositoryFactory"><rect codeLine="34" fill="#F1F1F1" height="100.8281" id="RepositoryFactory" rx="2.5" ry="2.5" style="stroke:#181818;stroke-width:0.5;" width="231" x="576.1" y="294.27"/><ellipse cx="629.35" cy="310.27" fill="#ADD1B2" rx="11" ry="11" style="stroke:#181818;stroke-width:1.0;"/><path d="M631.35,306.77 Q631.5531,306.27 631.7875,306.02 Q632.0219,305.77 632.2875,305.77 Q632.7563,305.77 633.0531,306.0513 Q633.35,306.3325 633.35,306.9888 L633.35,308.5513 Q633.35,309.2075 633.0688,309.4888 Q632.7875,309.77 632.35,309.77 Q631.9594,309.77 631.7094,309.5981 Q631.4594,309.4263 631.35,308.9731 Q631.3031,308.6606 631.1313,308.4888 Q630.8188,308.1606 630.2563,307.9731 Q629.6938,307.77 629.1313,307.77 Q628.4281,307.77 627.8344,308.0513 Q627.2563,308.3325 626.8031,308.9575 Q626.35,309.5825 626.35,310.4419 L626.35,311.3638 Q626.35,312.395 627.1938,313.0825 Q628.0375,313.77 629.5375,313.77 Q630.4281,313.77 631.0531,313.5669 Q631.4125,313.4575 631.8188,313.0981 Q632.0844,312.895 632.225,312.8325 Q632.3656,312.77 632.5375,312.77 Q632.8656,312.77 633.1,313.0356 Q633.35,313.2856 633.35,313.645 Q633.35,313.9888 633.0063,314.395 Q632.5063,314.9888 631.7094,315.3169 Q630.6625,315.77 629.3813,315.77 Q627.8813,315.77 626.6781,315.1763 Q625.7094,314.7075 625.0219,313.6919 Q624.35,312.6763 624.35,311.4731 L624.35,310.3794 Q624.35,309.1294 624.9438,308.0356 Q625.5531,306.9419 626.6,306.3638 Q627.6625,305.77 628.85,305.77 Q629.5688,305.77 630.1938,306.02 Q630.8188,306.27 631.35,306.77 Z " fill="#000000"/><text fill="#000000" font-family="sans-serif" font-size="14" lengthAdjust="spacing" textLength="116" x="649.85" y="315.9985">RepositoryFactory</text><line style="stroke:#181818;stroke-width:0.5;" x1="577.1" x2="806.1" y1="326.27" y2="326.27"/><line style="stroke:#181818;stroke-width:0.5;" x1="577.1" x2="806.1" y1="334.27" y2="334.27"/><ellipse cx="587.1" cy="345.27" fill="#84BE84" rx="3" ry="3" style="stroke:#038048;stroke-width:1.0;"/><text fill="#000000" font-family="sans-serif" font-size="14" lengthAdjust="spacing" textLength="50" x="596.1" y="352.8032">create()</text><ellipse cx="587.1" cy="362.8794" fill="#84BE84" rx="3" ry="3" style="stroke:#038048;stroke-width:1.0;"/><text fill="#000000" font-family="sans-serif" font-size="14" lengthAdjust="spacing" textLength="169" x="596.1" y="370.4126">newTransactionalContext()</text><ellipse cx="587.1" cy="380.4888" fill="#84BE84" rx="3" ry="3" style="stroke:#038048;stroke-width:1.0;"/><text fill="#000000" font-family="sans-serif" font-size="14" lengthAdjust="spacing" textLength="205" x="596.1" y="388.022">create(TransactionalContext ctx)</text></g><!--MD5=[7620fae2775ebf09e1a63cf069b3747d]
class Accessibility--><g id="elem_Accessibility"><rect fill="#F1F1F1" height="48" id="Accessibility" rx="2.5" ry="2.5" style="stroke:#181818;stroke-width:0.5;" width="108" x="471.6" y="168.77"/><ellipse cx="486.6" cy="184.77" fill="#ADD1B2" rx="11" ry="11" style="stroke:#181818;stroke-width:1.0;"/><path d="M488.6,181.27 Q488.8031,180.77 489.0375,180.52 Q489.2719,180.27 489.5375,180.27 Q490.0063,180.27 490.3031,180.5512 Q490.6,180.8325 490.6,181.4887 L490.6,183.0512 Q490.6,183.7075 490.3188,183.9887 Q490.0375,184.27 489.6,184.27 Q489.2094,184.27 488.9594,184.0981 Q488.7094,183.9262 488.6,183.4731 Q488.5531,183.1606 488.3813,182.9887 Q488.0688,182.6606 487.5063,182.4731 Q486.9438,182.27 486.3813,182.27 Q485.6781,182.27 485.0844,182.5512 Q484.5063,182.8325 484.0531,183.4575 Q483.6,184.0825 483.6,184.9419 L483.6,185.8637 Q483.6,186.895 484.4438,187.5825 Q485.2875,188.27 486.7875,188.27 Q487.6781,188.27 488.3031,188.0669 Q488.6625,187.9575 489.0688,187.5981 Q489.3344,187.395 489.475,187.3325 Q489.6156,187.27 489.7875,187.27 Q490.1156,187.27 490.35,187.5356 Q490.6,187.7856 490.6,188.145 Q490.6,188.4887 490.2563,188.895 Q489.7563,189.4887 488.9594,189.8169 Q487.9125,190.27 486.6313,190.27 Q485.1313,190.27 483.9281,189.6762 Q482.9594,189.2075 482.2719,188.1919 Q481.6,187.1762 481.6,185.9731 L481.6,184.8794 Q481.6,183.6294 482.1938,182.5356 Q482.8031,181.4419 483.85,180.8637 Q484.9125,180.27 486.1,180.27 Q486.8188,180.27 487.4438,180.52 Q488.0688,180.77 488.6,181.27 Z " fill="#000000"/><text fill="#000000" font-family="sans-serif" font-size="14" lengthAdjust="spacing" textLength="76" x="500.6" y="190.4985">Accessibility</text><line style="stroke:#181818;stroke-width:0.5;" x1="472.6" x2="578.6" y1="200.77" y2="200.77"/><line style="stroke:#181818;stroke-width:0.5;" x1="472.6" x2="578.6" y1="208.77" y2="208.77"/></g><!--MD5=[6c8d26f6d50c9b5da41494faa6136af8]
class AGVDock--><g id="elem_AGVDock"><rect fill="#F1F1F1" height="48" id="AGVDock" rx="2.5" ry="2.5" style="stroke:#181818;stroke-width:0.5;" width="93" x="869.1" y="320.77"/><ellipse cx="884.1" cy="336.77" fill="#ADD1B2" rx="11" ry="11" style="stroke:#181818;stroke-width:1.0;"/><path d="M886.1,333.27 Q886.3031,332.77 886.5375,332.52 Q886.7719,332.27 887.0375,332.27 Q887.5063,332.27 887.8031,332.5513 Q888.1,332.8325 888.1,333.4888 L888.1,335.0513 Q888.1,335.7075 887.8188,335.9888 Q887.5375,336.27 887.1,336.27 Q886.7094,336.27 886.4594,336.0981 Q886.2094,335.9263 886.1,335.4731 Q886.0531,335.1606 885.8813,334.9888 Q885.5688,334.6606 885.0063,334.4731 Q884.4438,334.27 883.8813,334.27 Q883.1781,334.27 882.5844,334.5513 Q882.0063,334.8325 881.5531,335.4575 Q881.1,336.0825 881.1,336.9419 L881.1,337.8638 Q881.1,338.895 881.9438,339.5825 Q882.7875,340.27 884.2875,340.27 Q885.1781,340.27 885.8031,340.0669 Q886.1625,339.9575 886.5688,339.5981 Q886.8344,339.395 886.975,339.3325 Q887.1156,339.27 887.2875,339.27 Q887.6156,339.27 887.85,339.5356 Q888.1,339.7856 888.1,340.145 Q888.1,340.4888 887.7563,340.895 Q887.2563,341.4888 886.4594,341.8169 Q885.4125,342.27 884.1313,342.27 Q882.6313,342.27 881.4281,341.6763 Q880.4594,341.2075 879.7719,340.1919 Q879.1,339.1763 879.1,337.9731 L879.1,336.8794 Q879.1,335.6294 879.6938,334.5356 Q880.3031,333.4419 881.35,332.8638 Q882.4125,332.27 883.6,332.27 Q884.3188,332.27 884.9438,332.52 Q885.5688,332.77 886.1,333.27 Z " fill="#000000"/><text fill="#000000" font-family="sans-serif" font-size="14" lengthAdjust="spacing" textLength="61" x="898.1" y="342.4985">AGVDock</text><line style="stroke:#181818;stroke-width:0.5;" x1="870.1" x2="961.1" y1="352.77" y2="352.77"/><line style="stroke:#181818;stroke-width:0.5;" x1="870.1" x2="961.1" y1="360.77" y2="360.77"/></g><!--MD5=[7fd9f2112b174503e7e8e638cd4bf350]
class AGVDockBuilder--><g id="elem_AGVDockBuilder"><rect fill="#F1F1F1" height="48" id="AGVDockBuilder" rx="2.5" ry="2.5" style="stroke:#181818;stroke-width:0.5;" width="137" x="875.1" y="168.77"/><ellipse cx="890.1" cy="184.77" fill="#ADD1B2" rx="11" ry="11" style="stroke:#181818;stroke-width:1.0;"/><path d="M892.1,181.27 Q892.3031,180.77 892.5375,180.52 Q892.7719,180.27 893.0375,180.27 Q893.5063,180.27 893.8031,180.5512 Q894.1,180.8325 894.1,181.4887 L894.1,183.0512 Q894.1,183.7075 893.8188,183.9887 Q893.5375,184.27 893.1,184.27 Q892.7094,184.27 892.4594,184.0981 Q892.2094,183.9262 892.1,183.4731 Q892.0531,183.1606 891.8813,182.9887 Q891.5688,182.6606 891.0063,182.4731 Q890.4438,182.27 889.8813,182.27 Q889.1781,182.27 888.5844,182.5512 Q888.0063,182.8325 887.5531,183.4575 Q887.1,184.0825 887.1,184.9419 L887.1,185.8637 Q887.1,186.895 887.9438,187.5825 Q888.7875,188.27 890.2875,188.27 Q891.1781,188.27 891.8031,188.0669 Q892.1625,187.9575 892.5688,187.5981 Q892.8344,187.395 892.975,187.3325 Q893.1156,187.27 893.2875,187.27 Q893.6156,187.27 893.85,187.5356 Q894.1,187.7856 894.1,188.145 Q894.1,188.4887 893.7563,188.895 Q893.2563,189.4887 892.4594,189.8169 Q891.4125,190.27 890.1313,190.27 Q888.6313,190.27 887.4281,189.6762 Q886.4594,189.2075 885.7719,188.1919 Q885.1,187.1762 885.1,185.9731 L885.1,184.8794 Q885.1,183.6294 885.6938,182.5356 Q886.3031,181.4419 887.35,180.8637 Q888.4125,180.27 889.6,180.27 Q890.3188,180.27 890.9438,180.52 Q891.5688,180.77 892.1,181.27 Z " fill="#000000"/><text fill="#000000" font-family="sans-serif" font-size="14" lengthAdjust="spacing" textLength="105" x="904.1" y="190.4985">AGVDockBuilder</text><line style="stroke:#181818;stroke-width:0.5;" x1="876.1" x2="1011.1" y1="200.77" y2="200.77"/><line style="stroke:#181818;stroke-width:0.5;" x1="876.1" x2="1011.1" y1="208.77" y2="208.77"/></g><!--MD5=[0a2f0ce5c49321e9082933c32b514ce4]
class Aisle--><g id="elem_Aisle"><rect fill="#F1F1F1" height="48" id="Aisle" rx="2.5" ry="2.5" style="stroke:#181818;stroke-width:0.5;" width="62" x="1138.6" y="320.77"/><ellipse cx="1153.6" cy="336.77" fill="#ADD1B2" rx="11" ry="11" style="stroke:#181818;stroke-width:1.0;"/><path d="M1155.6,333.27 Q1155.8031,332.77 1156.0375,332.52 Q1156.2719,332.27 1156.5375,332.27 Q1157.0063,332.27 1157.3031,332.5513 Q1157.6,332.8325 1157.6,333.4888 L1157.6,335.0513 Q1157.6,335.7075 1157.3188,335.9888 Q1157.0375,336.27 1156.6,336.27 Q1156.2094,336.27 1155.9594,336.0981 Q1155.7094,335.9263 1155.6,335.4731 Q1155.5531,335.1606 1155.3813,334.9888 Q1155.0688,334.6606 1154.5063,334.4731 Q1153.9438,334.27 1153.3813,334.27 Q1152.6781,334.27 1152.0844,334.5513 Q1151.5063,334.8325 1151.0531,335.4575 Q1150.6,336.0825 1150.6,336.9419 L1150.6,337.8638 Q1150.6,338.895 1151.4438,339.5825 Q1152.2875,340.27 1153.7875,340.27 Q1154.6781,340.27 1155.3031,340.0669 Q1155.6625,339.9575 1156.0688,339.5981 Q1156.3344,339.395 1156.475,339.3325 Q1156.6156,339.27 1156.7875,339.27 Q1157.1156,339.27 1157.35,339.5356 Q1157.6,339.7856 1157.6,340.145 Q1157.6,340.4888 1157.2563,340.895 Q1156.7563,341.4888 1155.9594,341.8169 Q1154.9125,342.27 1153.6313,342.27 Q1152.1313,342.27 1150.9281,341.6763 Q1149.9594,341.2075 1149.2719,340.1919 Q1148.6,339.1763 1148.6,337.9731 L1148.6,336.8794 Q1148.6,335.6294 1149.1938,334.5356 Q1149.8031,333.4419 1150.85,332.8638 Q1151.9125,332.27 1153.1,332.27 Q1153.8188,332.27 1154.4438,332.52 Q1155.0688,332.77 1155.6,333.27 Z " fill="#000000"/><text fill="#000000" font-family="sans-serif" font-size="14" lengthAdjust="spacing" textLength="30" x="1167.6" y="342.4985">Aisle</text><line style="stroke:#181818;stroke-width:0.5;" x1="1139.6" x2="1199.6" y1="352.77" y2="352.77"/><line style="stroke:#181818;stroke-width:0.5;" x1="1139.6" x2="1199.6" y1="360.77" y2="360.77"/></g><!--MD5=[1a9a926b62e541648e75327eb14c020a]
class AisleBuilder--><g id="elem_AisleBuilder"><rect fill="#F1F1F1" height="48" id="AisleBuilder" rx="2.5" ry="2.5" style="stroke:#181818;stroke-width:0.5;" width="106" x="1221.6" y="168.77"/><ellipse cx="1236.6" cy="184.77" fill="#ADD1B2" rx="11" ry="11" style="stroke:#181818;stroke-width:1.0;"/><path d="M1238.6,181.27 Q1238.8031,180.77 1239.0375,180.52 Q1239.2719,180.27 1239.5375,180.27 Q1240.0063,180.27 1240.3031,180.5512 Q1240.6,180.8325 1240.6,181.4887 L1240.6,183.0512 Q1240.6,183.7075 1240.3188,183.9887 Q1240.0375,184.27 1239.6,184.27 Q1239.2094,184.27 1238.9594,184.0981 Q1238.7094,183.9262 1238.6,183.4731 Q1238.5531,183.1606 1238.3813,182.9887 Q1238.0688,182.6606 1237.5063,182.4731 Q1236.9438,182.27 1236.3813,182.27 Q1235.6781,182.27 1235.0844,182.5512 Q1234.5063,182.8325 1234.0531,183.4575 Q1233.6,184.0825 1233.6,184.9419 L1233.6,185.8637 Q1233.6,186.895 1234.4438,187.5825 Q1235.2875,188.27 1236.7875,188.27 Q1237.6781,188.27 1238.3031,188.0669 Q1238.6625,187.9575 1239.0688,187.5981 Q1239.3344,187.395 1239.475,187.3325 Q1239.6156,187.27 1239.7875,187.27 Q1240.1156,187.27 1240.35,187.5356 Q1240.6,187.7856 1240.6,188.145 Q1240.6,188.4887 1240.2563,188.895 Q1239.7563,189.4887 1238.9594,189.8169 Q1237.9125,190.27 1236.6313,190.27 Q1235.1313,190.27 1233.9281,189.6762 Q1232.9594,189.2075 1232.2719,188.1919 Q1231.6,187.1762 1231.6,185.9731 L1231.6,184.8794 Q1231.6,183.6294 1232.1938,182.5356 Q1232.8031,181.4419 1233.85,180.8637 Q1234.9125,180.27 1236.1,180.27 Q1236.8188,180.27 1237.4438,180.52 Q1238.0688,180.77 1238.6,181.27 Z " fill="#000000"/><text fill="#000000" font-family="sans-serif" font-size="14" lengthAdjust="spacing" textLength="74" x="1250.6" y="190.4985">AisleBuilder</text><line style="stroke:#181818;stroke-width:0.5;" x1="1222.6" x2="1326.6" y1="200.77" y2="200.77"/><line style="stroke:#181818;stroke-width:0.5;" x1="1222.6" x2="1326.6" y1="208.77" y2="208.77"/></g><!--MD5=[47ef0dfe59fd373997f8a6206ed8b282]
class Begin--><g id="elem_Begin"><rect fill="#F1F1F1" height="48" id="Begin" rx="2.5" ry="2.5" style="stroke:#181818;stroke-width:0.5;" width="68" x="1118.6" y="168.77"/><ellipse cx="1133.6" cy="184.77" fill="#ADD1B2" rx="11" ry="11" style="stroke:#181818;stroke-width:1.0;"/><path d="M1135.6,181.27 Q1135.8031,180.77 1136.0375,180.52 Q1136.2719,180.27 1136.5375,180.27 Q1137.0063,180.27 1137.3031,180.5512 Q1137.6,180.8325 1137.6,181.4887 L1137.6,183.0512 Q1137.6,183.7075 1137.3188,183.9887 Q1137.0375,184.27 1136.6,184.27 Q1136.2094,184.27 1135.9594,184.0981 Q1135.7094,183.9262 1135.6,183.4731 Q1135.5531,183.1606 1135.3813,182.9887 Q1135.0688,182.6606 1134.5063,182.4731 Q1133.9438,182.27 1133.3813,182.27 Q1132.6781,182.27 1132.0844,182.5512 Q1131.5063,182.8325 1131.0531,183.4575 Q1130.6,184.0825 1130.6,184.9419 L1130.6,185.8637 Q1130.6,186.895 1131.4438,187.5825 Q1132.2875,188.27 1133.7875,188.27 Q1134.6781,188.27 1135.3031,188.0669 Q1135.6625,187.9575 1136.0688,187.5981 Q1136.3344,187.395 1136.475,187.3325 Q1136.6156,187.27 1136.7875,187.27 Q1137.1156,187.27 1137.35,187.5356 Q1137.6,187.7856 1137.6,188.145 Q1137.6,188.4887 1137.2563,188.895 Q1136.7563,189.4887 1135.9594,189.8169 Q1134.9125,190.27 1133.6313,190.27 Q1132.1313,190.27 1130.9281,189.6762 Q1129.9594,189.2075 1129.2719,188.1919 Q1128.6,187.1762 1128.6,185.9731 L1128.6,184.8794 Q1128.6,183.6294 1129.1938,182.5356 Q1129.8031,181.4419 1130.85,180.8637 Q1131.9125,180.27 1133.1,180.27 Q1133.8188,180.27 1134.4438,180.52 Q1135.0688,180.77 1135.6,181.27 Z " fill="#000000"/><text fill="#000000" font-family="sans-serif" font-size="14" lengthAdjust="spacing" textLength="36" x="1147.6" y="190.4985">Begin</text><line style="stroke:#181818;stroke-width:0.5;" x1="1119.6" x2="1185.6" y1="200.77" y2="200.77"/><line style="stroke:#181818;stroke-width:0.5;" x1="1119.6" x2="1185.6" y1="208.77" y2="208.77"/></g><!--MD5=[2038ae133c03a210330ad60522e564cb]
class Bin--><g id="elem_Bin"><rect fill="#F1F1F1" height="48" id="Bin" rx="2.5" ry="2.5" style="stroke:#181818;stroke-width:0.5;" width="52" x="90.6" y="320.77"/><ellipse cx="105.6" cy="336.77" fill="#ADD1B2" rx="11" ry="11" style="stroke:#181818;stroke-width:1.0;"/><path d="M107.6,333.27 Q107.8031,332.77 108.0375,332.52 Q108.2719,332.27 108.5375,332.27 Q109.0063,332.27 109.3031,332.5513 Q109.6,332.8325 109.6,333.4888 L109.6,335.0513 Q109.6,335.7075 109.3188,335.9888 Q109.0375,336.27 108.6,336.27 Q108.2094,336.27 107.9594,336.0981 Q107.7094,335.9263 107.6,335.4731 Q107.5531,335.1606 107.3813,334.9888 Q107.0688,334.6606 106.5063,334.4731 Q105.9438,334.27 105.3813,334.27 Q104.6781,334.27 104.0844,334.5513 Q103.5063,334.8325 103.0531,335.4575 Q102.6,336.0825 102.6,336.9419 L102.6,337.8638 Q102.6,338.895 103.4438,339.5825 Q104.2875,340.27 105.7875,340.27 Q106.6781,340.27 107.3031,340.0669 Q107.6625,339.9575 108.0688,339.5981 Q108.3344,339.395 108.475,339.3325 Q108.6156,339.27 108.7875,339.27 Q109.1156,339.27 109.35,339.5356 Q109.6,339.7856 109.6,340.145 Q109.6,340.4888 109.2563,340.895 Q108.7563,341.4888 107.9594,341.8169 Q106.9125,342.27 105.6313,342.27 Q104.1313,342.27 102.9281,341.6763 Q101.9594,341.2075 101.2719,340.1919 Q100.6,339.1763 100.6,337.9731 L100.6,336.8794 Q100.6,335.6294 101.1938,334.5356 Q101.8031,333.4419 102.85,332.8638 Q103.9125,332.27 105.1,332.27 Q105.8188,332.27 106.4438,332.52 Q107.0688,332.77 107.6,333.27 Z " fill="#000000"/><text fill="#000000" font-family="sans-serif" font-size="14" lengthAdjust="spacing" textLength="20" x="119.6" y="342.4985">Bin</text><line style="stroke:#181818;stroke-width:0.5;" x1="91.6" x2="141.6" y1="352.77" y2="352.77"/><line style="stroke:#181818;stroke-width:0.5;" x1="91.6" x2="141.6" y1="360.77" y2="360.77"/></g><!--MD5=[210e7388105c83d943dbfbae619c92d9]
class BinBuilder--><g id="elem_BinBuilder"><rect fill="#F1F1F1" height="48" id="BinBuilder" rx="2.5" ry="2.5" style="stroke:#181818;stroke-width:0.5;" width="96" x="68.6" y="168.77"/><ellipse cx="83.6" cy="184.77" fill="#ADD1B2" rx="11" ry="11" style="stroke:#181818;stroke-width:1.0;"/><path d="M85.6,181.27 Q85.8031,180.77 86.0375,180.52 Q86.2719,180.27 86.5375,180.27 Q87.0063,180.27 87.3031,180.5512 Q87.6,180.8325 87.6,181.4887 L87.6,183.0512 Q87.6,183.7075 87.3188,183.9887 Q87.0375,184.27 86.6,184.27 Q86.2094,184.27 85.9594,184.0981 Q85.7094,183.9262 85.6,183.4731 Q85.5531,183.1606 85.3813,182.9887 Q85.0688,182.6606 84.5063,182.4731 Q83.9438,182.27 83.3813,182.27 Q82.6781,182.27 82.0844,182.5512 Q81.5063,182.8325 81.0531,183.4575 Q80.6,184.0825 80.6,184.9419 L80.6,185.8637 Q80.6,186.895 81.4438,187.5825 Q82.2875,188.27 83.7875,188.27 Q84.6781,188.27 85.3031,188.0669 Q85.6625,187.9575 86.0688,187.5981 Q86.3344,187.395 86.475,187.3325 Q86.6156,187.27 86.7875,187.27 Q87.1156,187.27 87.35,187.5356 Q87.6,187.7856 87.6,188.145 Q87.6,188.4887 87.2563,188.895 Q86.7563,189.4887 85.9594,189.8169 Q84.9125,190.27 83.6313,190.27 Q82.1313,190.27 80.9281,189.6762 Q79.9594,189.2075 79.2719,188.1919 Q78.6,187.1762 78.6,185.9731 L78.6,184.8794 Q78.6,183.6294 79.1938,182.5356 Q79.8031,181.4419 80.85,180.8637 Q81.9125,180.27 83.1,180.27 Q83.8188,180.27 84.4438,180.52 Q85.0688,180.77 85.6,181.27 Z " fill="#000000"/><text fill="#000000" font-family="sans-serif" font-size="14" lengthAdjust="spacing" textLength="64" x="97.6" y="190.4985">BinBuilder</text><line style="stroke:#181818;stroke-width:0.5;" x1="69.6" x2="163.6" y1="200.77" y2="200.77"/><line style="stroke:#181818;stroke-width:0.5;" x1="69.6" x2="163.6" y1="208.77" y2="208.77"/></g><!--MD5=[726bde5304d7ff31ed57884977fdf6f4]
class BinId--><g id="elem_BinId"><rect fill="#F1F1F1" height="48" id="BinId" rx="2.5" ry="2.5" style="stroke:#181818;stroke-width:0.5;" width="63" x="182.1" y="320.77"/><ellipse cx="197.1" cy="336.77" fill="#ADD1B2" rx="11" ry="11" style="stroke:#181818;stroke-width:1.0;"/><path d="M199.1,333.27 Q199.3031,332.77 199.5375,332.52 Q199.7719,332.27 200.0375,332.27 Q200.5063,332.27 200.8031,332.5513 Q201.1,332.8325 201.1,333.4888 L201.1,335.0513 Q201.1,335.7075 200.8188,335.9888 Q200.5375,336.27 200.1,336.27 Q199.7094,336.27 199.4594,336.0981 Q199.2094,335.9263 199.1,335.4731 Q199.0531,335.1606 198.8813,334.9888 Q198.5688,334.6606 198.0063,334.4731 Q197.4438,334.27 196.8813,334.27 Q196.1781,334.27 195.5844,334.5513 Q195.0063,334.8325 194.5531,335.4575 Q194.1,336.0825 194.1,336.9419 L194.1,337.8638 Q194.1,338.895 194.9438,339.5825 Q195.7875,340.27 197.2875,340.27 Q198.1781,340.27 198.8031,340.0669 Q199.1625,339.9575 199.5688,339.5981 Q199.8344,339.395 199.975,339.3325 Q200.1156,339.27 200.2875,339.27 Q200.6156,339.27 200.85,339.5356 Q201.1,339.7856 201.1,340.145 Q201.1,340.4888 200.7563,340.895 Q200.2563,341.4888 199.4594,341.8169 Q198.4125,342.27 197.1313,342.27 Q195.6313,342.27 194.4281,341.6763 Q193.4594,341.2075 192.7719,340.1919 Q192.1,339.1763 192.1,337.9731 L192.1,336.8794 Q192.1,335.6294 192.6938,334.5356 Q193.3031,333.4419 194.35,332.8638 Q195.4125,332.27 196.6,332.27 Q197.3188,332.27 197.9438,332.52 Q198.5688,332.77 199.1,333.27 Z " fill="#000000"/><text fill="#000000" font-family="sans-serif" font-size="14" lengthAdjust="spacing" textLength="31" x="211.1" y="342.4985">BinId</text><line style="stroke:#181818;stroke-width:0.5;" x1="183.1" x2="244.1" y1="352.77" y2="352.77"/><line style="stroke:#181818;stroke-width:0.5;" x1="183.1" x2="244.1" y1="360.77" y2="360.77"/></g><!--MD5=[055ae584e8f48d8fc3c3de49aadf0637]
class Dashboard--><g id="elem_Dashboard"><rect fill="#F1F1F1" height="48" id="Dashboard" rx="2.5" ry="2.5" style="stroke:#181818;stroke-width:0.5;" width="102" x="1362.6" y="168.77"/><ellipse cx="1377.6" cy="184.77" fill="#ADD1B2" rx="11" ry="11" style="stroke:#181818;stroke-width:1.0;"/><path d="M1379.6,181.27 Q1379.8031,180.77 1380.0375,180.52 Q1380.2719,180.27 1380.5375,180.27 Q1381.0063,180.27 1381.3031,180.5512 Q1381.6,180.8325 1381.6,181.4887 L1381.6,183.0512 Q1381.6,183.7075 1381.3188,183.9887 Q1381.0375,184.27 1380.6,184.27 Q1380.2094,184.27 1379.9594,184.0981 Q1379.7094,183.9262 1379.6,183.4731 Q1379.5531,183.1606 1379.3813,182.9887 Q1379.0688,182.6606 1378.5063,182.4731 Q1377.9438,182.27 1377.3813,182.27 Q1376.6781,182.27 1376.0844,182.5512 Q1375.5063,182.8325 1375.0531,183.4575 Q1374.6,184.0825 1374.6,184.9419 L1374.6,185.8637 Q1374.6,186.895 1375.4438,187.5825 Q1376.2875,188.27 1377.7875,188.27 Q1378.6781,188.27 1379.3031,188.0669 Q1379.6625,187.9575 1380.0688,187.5981 Q1380.3344,187.395 1380.475,187.3325 Q1380.6156,187.27 1380.7875,187.27 Q1381.1156,187.27 1381.35,187.5356 Q1381.6,187.7856 1381.6,188.145 Q1381.6,188.4887 1381.2563,188.895 Q1380.7563,189.4887 1379.9594,189.8169 Q1378.9125,190.27 1377.6313,190.27 Q1376.1313,190.27 1374.9281,189.6762 Q1373.9594,189.2075 1373.2719,188.1919 Q1372.6,187.1762 1372.6,185.9731 L1372.6,184.8794 Q1372.6,183.6294 1373.1938,182.5356 Q1373.8031,181.4419 1374.85,180.8637 Q1375.9125,180.27 1377.1,180.27 Q1377.8188,180.27 1378.4438,180.52 Q1379.0688,180.77 1379.6,181.27 Z " fill="#000000"/><text fill="#000000" font-family="sans-serif" font-size="14" lengthAdjust="spacing" textLength="70" x="1391.6" y="190.4985">Dashboard</text><line style="stroke:#181818;stroke-width:0.5;" x1="1363.6" x2="1463.6" y1="200.77" y2="200.77"/><line style="stroke:#181818;stroke-width:0.5;" x1="1363.6" x2="1463.6" y1="208.77" y2="208.77"/></g><!--MD5=[cfd0138e5346ce60abb87771726e7b9e]
class Depth--><g id="elem_Depth"><rect fill="#F1F1F1" height="48" id="Depth" rx="2.5" ry="2.5" style="stroke:#181818;stroke-width:0.5;" width="70" x="1499.6" y="168.77"/><ellipse cx="1514.6" cy="184.77" fill="#ADD1B2" rx="11" ry="11" style="stroke:#181818;stroke-width:1.0;"/><path d="M1516.6,181.27 Q1516.8031,180.77 1517.0375,180.52 Q1517.2719,180.27 1517.5375,180.27 Q1518.0063,180.27 1518.3031,180.5512 Q1518.6,180.8325 1518.6,181.4887 L1518.6,183.0512 Q1518.6,183.7075 1518.3188,183.9887 Q1518.0375,184.27 1517.6,184.27 Q1517.2094,184.27 1516.9594,184.0981 Q1516.7094,183.9262 1516.6,183.4731 Q1516.5531,183.1606 1516.3813,182.9887 Q1516.0688,182.6606 1515.5063,182.4731 Q1514.9438,182.27 1514.3813,182.27 Q1513.6781,182.27 1513.0844,182.5512 Q1512.5063,182.8325 1512.0531,183.4575 Q1511.6,184.0825 1511.6,184.9419 L1511.6,185.8637 Q1511.6,186.895 1512.4438,187.5825 Q1513.2875,188.27 1514.7875,188.27 Q1515.6781,188.27 1516.3031,188.0669 Q1516.6625,187.9575 1517.0688,187.5981 Q1517.3344,187.395 1517.475,187.3325 Q1517.6156,187.27 1517.7875,187.27 Q1518.1156,187.27 1518.35,187.5356 Q1518.6,187.7856 1518.6,188.145 Q1518.6,188.4887 1518.2563,188.895 Q1517.7563,189.4887 1516.9594,189.8169 Q1515.9125,190.27 1514.6313,190.27 Q1513.1313,190.27 1511.9281,189.6762 Q1510.9594,189.2075 1510.2719,188.1919 Q1509.6,187.1762 1509.6,185.9731 L1509.6,184.8794 Q1509.6,183.6294 1510.1938,182.5356 Q1510.8031,181.4419 1511.85,180.8637 Q1512.9125,180.27 1514.1,180.27 Q1514.8188,180.27 1515.4438,180.52 Q1516.0688,180.77 1516.6,181.27 Z " fill="#000000"/><text fill="#000000" font-family="sans-serif" font-size="14" lengthAdjust="spacing" textLength="38" x="1528.6" y="190.4985">Depth</text><line style="stroke:#181818;stroke-width:0.5;" x1="1500.6" x2="1568.6" y1="200.77" y2="200.77"/><line style="stroke:#181818;stroke-width:0.5;" x1="1500.6" x2="1568.6" y1="208.77" y2="208.77"/></g><!--MD5=[b5cffc0c85435f5848b9ffcad0969c85]
class End--><g id="elem_End"><rect fill="#F1F1F1" height="48" id="End" rx="2.5" ry="2.5" style="stroke:#181818;stroke-width:0.5;" width="57" x="1605.1" y="168.77"/><ellipse cx="1620.1" cy="184.77" fill="#ADD1B2" rx="11" ry="11" style="stroke:#181818;stroke-width:1.0;"/><path d="M1622.1,181.27 Q1622.3031,180.77 1622.5375,180.52 Q1622.7719,180.27 1623.0375,180.27 Q1623.5063,180.27 1623.8031,180.5512 Q1624.1,180.8325 1624.1,181.4887 L1624.1,183.0512 Q1624.1,183.7075 1623.8188,183.9887 Q1623.5375,184.27 1623.1,184.27 Q1622.7094,184.27 1622.4594,184.0981 Q1622.2094,183.9262 1622.1,183.4731 Q1622.0531,183.1606 1621.8813,182.9887 Q1621.5688,182.6606 1621.0063,182.4731 Q1620.4438,182.27 1619.8813,182.27 Q1619.1781,182.27 1618.5844,182.5512 Q1618.0063,182.8325 1617.5531,183.4575 Q1617.1,184.0825 1617.1,184.9419 L1617.1,185.8637 Q1617.1,186.895 1617.9438,187.5825 Q1618.7875,188.27 1620.2875,188.27 Q1621.1781,188.27 1621.8031,188.0669 Q1622.1625,187.9575 1622.5688,187.5981 Q1622.8344,187.395 1622.975,187.3325 Q1623.1156,187.27 1623.2875,187.27 Q1623.6156,187.27 1623.85,187.5356 Q1624.1,187.7856 1624.1,188.145 Q1624.1,188.4887 1623.7563,188.895 Q1623.2563,189.4887 1622.4594,189.8169 Q1621.4125,190.27 1620.1313,190.27 Q1618.6313,190.27 1617.4281,189.6762 Q1616.4594,189.2075 1615.7719,188.1919 Q1615.1,187.1762 1615.1,185.9731 L1615.1,184.8794 Q1615.1,183.6294 1615.6938,182.5356 Q1616.3031,181.4419 1617.35,180.8637 Q1618.4125,180.27 1619.6,180.27 Q1620.3188,180.27 1620.9438,180.52 Q1621.5688,180.77 1622.1,181.27 Z " fill="#000000"/><text fill="#000000" font-family="sans-serif" font-size="14" lengthAdjust="spacing" textLength="25" x="1634.1" y="190.4985">End</text><line style="stroke:#181818;stroke-width:0.5;" x1="1606.1" x2="1661.1" y1="200.77" y2="200.77"/><line style="stroke:#181818;stroke-width:0.5;" x1="1606.1" x2="1661.1" y1="208.77" y2="208.77"/></g><!--MD5=[736dfa021baaf4f381c9890dd397bfe9]
class Line--><g id="elem_Line"><rect fill="#F1F1F1" height="48" id="Line" rx="2.5" ry="2.5" style="stroke:#181818;stroke-width:0.5;" width="59" x="1791.1" y="320.77"/><ellipse cx="1806.1" cy="336.77" fill="#ADD1B2" rx="11" ry="11" style="stroke:#181818;stroke-width:1.0;"/><path d="M1808.1,333.27 Q1808.3031,332.77 1808.5375,332.52 Q1808.7719,332.27 1809.0375,332.27 Q1809.5063,332.27 1809.8031,332.5513 Q1810.1,332.8325 1810.1,333.4888 L1810.1,335.0513 Q1810.1,335.7075 1809.8188,335.9888 Q1809.5375,336.27 1809.1,336.27 Q1808.7094,336.27 1808.4594,336.0981 Q1808.2094,335.9263 1808.1,335.4731 Q1808.0531,335.1606 1807.8813,334.9888 Q1807.5688,334.6606 1807.0063,334.4731 Q1806.4438,334.27 1805.8813,334.27 Q1805.1781,334.27 1804.5844,334.5513 Q1804.0063,334.8325 1803.5531,335.4575 Q1803.1,336.0825 1803.1,336.9419 L1803.1,337.8638 Q1803.1,338.895 1803.9438,339.5825 Q1804.7875,340.27 1806.2875,340.27 Q1807.1781,340.27 1807.8031,340.0669 Q1808.1625,339.9575 1808.5688,339.5981 Q1808.8344,339.395 1808.975,339.3325 Q1809.1156,339.27 1809.2875,339.27 Q1809.6156,339.27 1809.85,339.5356 Q1810.1,339.7856 1810.1,340.145 Q1810.1,340.4888 1809.7563,340.895 Q1809.2563,341.4888 1808.4594,341.8169 Q1807.4125,342.27 1806.1313,342.27 Q1804.6313,342.27 1803.4281,341.6763 Q1802.4594,341.2075 1801.7719,340.1919 Q1801.1,339.1763 1801.1,337.9731 L1801.1,336.8794 Q1801.1,335.6294 1801.6938,334.5356 Q1802.3031,333.4419 1803.35,332.8638 Q1804.4125,332.27 1805.6,332.27 Q1806.3188,332.27 1806.9438,332.52 Q1807.5688,332.77 1808.1,333.27 Z " fill="#000000"/><text fill="#000000" font-family="sans-serif" font-size="14" lengthAdjust="spacing" textLength="27" x="1820.1" y="342.4985">Line</text><line style="stroke:#181818;stroke-width:0.5;" x1="1792.1" x2="1849.1" y1="352.77" y2="352.77"/><line style="stroke:#181818;stroke-width:0.5;" x1="1792.1" x2="1849.1" y1="360.77" y2="360.77"/></g><!--MD5=[98d6b652b3437a01ef48622f44939c4e]
class LineBuilder--><g id="elem_LineBuilder"><rect fill="#F1F1F1" height="48" id="LineBuilder" rx="2.5" ry="2.5" style="stroke:#181818;stroke-width:0.5;" width="103" x="1769.1" y="168.77"/><ellipse cx="1784.1" cy="184.77" fill="#ADD1B2" rx="11" ry="11" style="stroke:#181818;stroke-width:1.0;"/><path d="M1786.1,181.27 Q1786.3031,180.77 1786.5375,180.52 Q1786.7719,180.27 1787.0375,180.27 Q1787.5063,180.27 1787.8031,180.5512 Q1788.1,180.8325 1788.1,181.4887 L1788.1,183.0512 Q1788.1,183.7075 1787.8188,183.9887 Q1787.5375,184.27 1787.1,184.27 Q1786.7094,184.27 1786.4594,184.0981 Q1786.2094,183.9262 1786.1,183.4731 Q1786.0531,183.1606 1785.8813,182.9887 Q1785.5688,182.6606 1785.0063,182.4731 Q1784.4438,182.27 1783.8813,182.27 Q1783.1781,182.27 1782.5844,182.5512 Q1782.0063,182.8325 1781.5531,183.4575 Q1781.1,184.0825 1781.1,184.9419 L1781.1,185.8637 Q1781.1,186.895 1781.9438,187.5825 Q1782.7875,188.27 1784.2875,188.27 Q1785.1781,188.27 1785.8031,188.0669 Q1786.1625,187.9575 1786.5688,187.5981 Q1786.8344,187.395 1786.975,187.3325 Q1787.1156,187.27 1787.2875,187.27 Q1787.6156,187.27 1787.85,187.5356 Q1788.1,187.7856 1788.1,188.145 Q1788.1,188.4887 1787.7563,188.895 Q1787.2563,189.4887 1786.4594,189.8169 Q1785.4125,190.27 1784.1313,190.27 Q1782.6313,190.27 1781.4281,189.6762 Q1780.4594,189.2075 1779.7719,188.1919 Q1779.1,187.1762 1779.1,185.9731 L1779.1,184.8794 Q1779.1,183.6294 1779.6938,182.5356 Q1780.3031,181.4419 1781.35,180.8637 Q1782.4125,180.27 1783.6,180.27 Q1784.3188,180.27 1784.9438,180.52 Q1785.5688,180.77 1786.1,181.27 Z " fill="#000000"/><text fill="#000000" font-family="sans-serif" font-size="14" lengthAdjust="spacing" textLength="71" x="1798.1" y="190.4985">LineBuilder</text><line style="stroke:#181818;stroke-width:0.5;" x1="1770.1" x2="1871.1" y1="200.77" y2="200.77"/><line style="stroke:#181818;stroke-width:0.5;" x1="1770.1" x2="1871.1" y1="208.77" y2="208.77"/></g><!--MD5=[de7aa99a962574c9d2ef3235c7762056]
class LineId--><g id="elem_LineId"><rect fill="#F1F1F1" height="48" id="LineId" rx="2.5" ry="2.5" style="stroke:#181818;stroke-width:0.5;" width="70" x="1838.6" y="455.27"/><ellipse cx="1853.6" cy="471.27" fill="#ADD1B2" rx="11" ry="11" style="stroke:#181818;stroke-width:1.0;"/><path d="M1855.6,467.77 Q1855.8031,467.27 1856.0375,467.02 Q1856.2719,466.77 1856.5375,466.77 Q1857.0063,466.77 1857.3031,467.0513 Q1857.6,467.3325 1857.6,467.9888 L1857.6,469.5513 Q1857.6,470.2075 1857.3188,470.4888 Q1857.0375,470.77 1856.6,470.77 Q1856.2094,470.77 1855.9594,470.5981 Q1855.7094,470.4263 1855.6,469.9731 Q1855.5531,469.6606 1855.3813,469.4888 Q1855.0688,469.1606 1854.5063,468.9731 Q1853.9438,468.77 1853.3813,468.77 Q1852.6781,468.77 1852.0844,469.0513 Q1851.5063,469.3325 1851.0531,469.9575 Q1850.6,470.5825 1850.6,471.4419 L1850.6,472.3638 Q1850.6,473.395 1851.4438,474.0825 Q1852.2875,474.77 1853.7875,474.77 Q1854.6781,474.77 1855.3031,474.5669 Q1855.6625,474.4575 1856.0688,474.0981 Q1856.3344,473.895 1856.475,473.8325 Q1856.6156,473.77 1856.7875,473.77 Q1857.1156,473.77 1857.35,474.0356 Q1857.6,474.2856 1857.6,474.645 Q1857.6,474.9888 1857.2563,475.395 Q1856.7563,475.9888 1855.9594,476.3169 Q1854.9125,476.77 1853.6313,476.77 Q1852.1313,476.77 1850.9281,476.1763 Q1849.9594,475.7075 1849.2719,474.6919 Q1848.6,473.6763 1848.6,472.4731 L1848.6,471.3794 Q1848.6,470.1294 1849.1938,469.0356 Q1849.8031,467.9419 1850.85,467.3638 Q1851.9125,466.77 1853.1,466.77 Q1853.8188,466.77 1854.4438,467.02 Q1855.0688,467.27 1855.6,467.77 Z " fill="#000000"/><text fill="#000000" font-family="sans-serif" font-size="14" lengthAdjust="spacing" textLength="38" x="1867.6" y="476.9985">LineId</text><line style="stroke:#181818;stroke-width:0.5;" x1="1839.6" x2="1907.6" y1="487.27" y2="487.27"/><line style="stroke:#181818;stroke-width:0.5;" x1="1839.6" x2="1907.6" y1="495.27" y2="495.27"/></g><!--MD5=[47ccbbcd9e46084c93562a335102da55]
class Shelf--><g id="elem_Shelf"><rect fill="#F1F1F1" height="48" id="Shelf" rx="2.5" ry="2.5" style="stroke:#181818;stroke-width:0.5;" width="64" x="2071.6" y="320.77"/><ellipse cx="2086.6" cy="336.77" fill="#ADD1B2" rx="11" ry="11" style="stroke:#181818;stroke-width:1.0;"/><path d="M2088.6,333.27 Q2088.8031,332.77 2089.0375,332.52 Q2089.2719,332.27 2089.5375,332.27 Q2090.0063,332.27 2090.3031,332.5513 Q2090.6,332.8325 2090.6,333.4888 L2090.6,335.0513 Q2090.6,335.7075 2090.3188,335.9888 Q2090.0375,336.27 2089.6,336.27 Q2089.2094,336.27 2088.9594,336.0981 Q2088.7094,335.9263 2088.6,335.4731 Q2088.5531,335.1606 2088.3813,334.9888 Q2088.0688,334.6606 2087.5063,334.4731 Q2086.9438,334.27 2086.3813,334.27 Q2085.6781,334.27 2085.0844,334.5513 Q2084.5063,334.8325 2084.0531,335.4575 Q2083.6,336.0825 2083.6,336.9419 L2083.6,337.8638 Q2083.6,338.895 2084.4438,339.5825 Q2085.2875,340.27 2086.7875,340.27 Q2087.6781,340.27 2088.3031,340.0669 Q2088.6625,339.9575 2089.0688,339.5981 Q2089.3344,339.395 2089.475,339.3325 Q2089.6156,339.27 2089.7875,339.27 Q2090.1156,339.27 2090.35,339.5356 Q2090.6,339.7856 2090.6,340.145 Q2090.6,340.4888 2090.2563,340.895 Q2089.7563,341.4888 2088.9594,341.8169 Q2087.9125,342.27 2086.6313,342.27 Q2085.1313,342.27 2083.9281,341.6763 Q2082.9594,341.2075 2082.2719,340.1919 Q2081.6,339.1763 2081.6,337.9731 L2081.6,336.8794 Q2081.6,335.6294 2082.1938,334.5356 Q2082.8031,333.4419 2083.85,332.8638 Q2084.9125,332.27 2086.1,332.27 Q2086.8188,332.27 2087.4438,332.52 Q2088.0688,332.77 2088.6,333.27 Z " fill="#000000"/><text fill="#000000" font-family="sans-serif" font-size="14" lengthAdjust="spacing" textLength="32" x="2100.6" y="342.4985">Shelf</text><line style="stroke:#181818;stroke-width:0.5;" x1="2072.6" x2="2134.6" y1="352.77" y2="352.77"/><line style="stroke:#181818;stroke-width:0.5;" x1="2072.6" x2="2134.6" y1="360.77" y2="360.77"/></g><!--MD5=[bed4dce1d9a80d3930d2a2a01814e1ed]
class ShelfBuilder--><g id="elem_ShelfBuilder"><rect fill="#F1F1F1" height="48" id="ShelfBuilder" rx="2.5" ry="2.5" style="stroke:#181818;stroke-width:0.5;" width="108" x="2049.6" y="168.77"/><ellipse cx="2064.6" cy="184.77" fill="#ADD1B2" rx="11" ry="11" style="stroke:#181818;stroke-width:1.0;"/><path d="M2066.6,181.27 Q2066.8031,180.77 2067.0375,180.52 Q2067.2719,180.27 2067.5375,180.27 Q2068.0063,180.27 2068.3031,180.5512 Q2068.6,180.8325 2068.6,181.4887 L2068.6,183.0512 Q2068.6,183.7075 2068.3188,183.9887 Q2068.0375,184.27 2067.6,184.27 Q2067.2094,184.27 2066.9594,184.0981 Q2066.7094,183.9262 2066.6,183.4731 Q2066.5531,183.1606 2066.3813,182.9887 Q2066.0688,182.6606 2065.5063,182.4731 Q2064.9438,182.27 2064.3813,182.27 Q2063.6781,182.27 2063.0844,182.5512 Q2062.5063,182.8325 2062.0531,183.4575 Q2061.6,184.0825 2061.6,184.9419 L2061.6,185.8637 Q2061.6,186.895 2062.4438,187.5825 Q2063.2875,188.27 2064.7875,188.27 Q2065.6781,188.27 2066.3031,188.0669 Q2066.6625,187.9575 2067.0688,187.5981 Q2067.3344,187.395 2067.475,187.3325 Q2067.6156,187.27 2067.7875,187.27 Q2068.1156,187.27 2068.35,187.5356 Q2068.6,187.7856 2068.6,188.145 Q2068.6,188.4887 2068.2563,188.895 Q2067.7563,189.4887 2066.9594,189.8169 Q2065.9125,190.27 2064.6313,190.27 Q2063.1313,190.27 2061.9281,189.6762 Q2060.9594,189.2075 2060.2719,188.1919 Q2059.6,187.1762 2059.6,185.9731 L2059.6,184.8794 Q2059.6,183.6294 2060.1938,182.5356 Q2060.8031,181.4419 2061.85,180.8637 Q2062.9125,180.27 2064.1,180.27 Q2064.8188,180.27 2065.4438,180.52 Q2066.0688,180.77 2066.6,181.27 Z " fill="#000000"/><text fill="#000000" font-family="sans-serif" font-size="14" lengthAdjust="spacing" textLength="76" x="2078.6" y="190.4985">ShelfBuilder</text><line style="stroke:#181818;stroke-width:0.5;" x1="2050.6" x2="2156.6" y1="200.77" y2="200.77"/><line style="stroke:#181818;stroke-width:0.5;" x1="2050.6" x2="2156.6" y1="208.77" y2="208.77"/></g><!--MD5=[6cd7267c44f7688de44c7435a014f157]
class ShelfId--><g id="elem_ShelfId"><rect fill="#F1F1F1" height="48" id="ShelfId" rx="2.5" ry="2.5" style="stroke:#181818;stroke-width:0.5;" width="75" x="2120.1" y="455.27"/><ellipse cx="2135.1" cy="471.27" fill="#ADD1B2" rx="11" ry="11" style="stroke:#181818;stroke-width:1.0;"/><path d="M2137.1,467.77 Q2137.3031,467.27 2137.5375,467.02 Q2137.7719,466.77 2138.0375,466.77 Q2138.5063,466.77 2138.8031,467.0513 Q2139.1,467.3325 2139.1,467.9888 L2139.1,469.5513 Q2139.1,470.2075 2138.8188,470.4888 Q2138.5375,470.77 2138.1,470.77 Q2137.7094,470.77 2137.4594,470.5981 Q2137.2094,470.4263 2137.1,469.9731 Q2137.0531,469.6606 2136.8813,469.4888 Q2136.5688,469.1606 2136.0063,468.9731 Q2135.4438,468.77 2134.8813,468.77 Q2134.1781,468.77 2133.5844,469.0513 Q2133.0063,469.3325 2132.5531,469.9575 Q2132.1,470.5825 2132.1,471.4419 L2132.1,472.3638 Q2132.1,473.395 2132.9438,474.0825 Q2133.7875,474.77 2135.2875,474.77 Q2136.1781,474.77 2136.8031,474.5669 Q2137.1625,474.4575 2137.5688,474.0981 Q2137.8344,473.895 2137.975,473.8325 Q2138.1156,473.77 2138.2875,473.77 Q2138.6156,473.77 2138.85,474.0356 Q2139.1,474.2856 2139.1,474.645 Q2139.1,474.9888 2138.7563,475.395 Q2138.2563,475.9888 2137.4594,476.3169 Q2136.4125,476.77 2135.1313,476.77 Q2133.6313,476.77 2132.4281,476.1763 Q2131.4594,475.7075 2130.7719,474.6919 Q2130.1,473.6763 2130.1,472.4731 L2130.1,471.3794 Q2130.1,470.1294 2130.6938,469.0356 Q2131.3031,467.9419 2132.35,467.3638 Q2133.4125,466.77 2134.6,466.77 Q2135.3188,466.77 2135.9438,467.02 Q2136.5688,467.27 2137.1,467.77 Z " fill="#000000"/><text fill="#000000" font-family="sans-serif" font-size="14" lengthAdjust="spacing" textLength="43" x="2149.1" y="476.9985">ShelfId</text><line style="stroke:#181818;stroke-width:0.5;" x1="2121.1" x2="2194.1" y1="487.27" y2="487.27"/><line style="stroke:#181818;stroke-width:0.5;" x1="2121.1" x2="2194.1" y1="495.27" y2="495.27"/></g><!--MD5=[c5149b4909ffd2688ff51a939867f774]
class Warehouse--><g id="elem_Warehouse"><rect fill="#F1F1F1" height="48" id="Warehouse" rx="2.5" ry="2.5" style="stroke:#181818;stroke-width:0.5;" width="105" x="2264.1" y="168.77"/><ellipse cx="2279.1" cy="184.77" fill="#ADD1B2" rx="11" ry="11" style="stroke:#181818;stroke-width:1.0;"/><path d="M2281.1,181.27 Q2281.3031,180.77 2281.5375,180.52 Q2281.7719,180.27 2282.0375,180.27 Q2282.5063,180.27 2282.8031,180.5512 Q2283.1,180.8325 2283.1,181.4887 L2283.1,183.0512 Q2283.1,183.7075 2282.8188,183.9887 Q2282.5375,184.27 2282.1,184.27 Q2281.7094,184.27 2281.4594,184.0981 Q2281.2094,183.9262 2281.1,183.4731 Q2281.0531,183.1606 2280.8813,182.9887 Q2280.5688,182.6606 2280.0063,182.4731 Q2279.4438,182.27 2278.8813,182.27 Q2278.1781,182.27 2277.5844,182.5512 Q2277.0063,182.8325 2276.5531,183.4575 Q2276.1,184.0825 2276.1,184.9419 L2276.1,185.8637 Q2276.1,186.895 2276.9438,187.5825 Q2277.7875,188.27 2279.2875,188.27 Q2280.1781,188.27 2280.8031,188.0669 Q2281.1625,187.9575 2281.5688,187.5981 Q2281.8344,187.395 2281.975,187.3325 Q2282.1156,187.27 2282.2875,187.27 Q2282.6156,187.27 2282.85,187.5356 Q2283.1,187.7856 2283.1,188.145 Q2283.1,188.4887 2282.7563,188.895 Q2282.2563,189.4887 2281.4594,189.8169 Q2280.4125,190.27 2279.1313,190.27 Q2277.6313,190.27 2276.4281,189.6762 Q2275.4594,189.2075 2274.7719,188.1919 Q2274.1,187.1762 2274.1,185.9731 L2274.1,184.8794 Q2274.1,183.6294 2274.6938,182.5356 Q2275.3031,181.4419 2276.35,180.8637 Q2277.4125,180.27 2278.6,180.27 Q2279.3188,180.27 2279.9438,180.52 Q2280.5688,180.77 2281.1,181.27 Z " fill="#000000"/><text fill="#000000" font-family="sans-serif" font-size="14" lengthAdjust="spacing" textLength="73" x="2293.1" y="190.4985">Warehouse</text><line style="stroke:#181818;stroke-width:0.5;" x1="2265.1" x2="2368.1" y1="200.77" y2="200.77"/><line style="stroke:#181818;stroke-width:0.5;" x1="2265.1" x2="2368.1" y1="208.77" y2="208.77"/></g><!--MD5=[b8012ea819b615a064f7b9f8b09f024b]
class WarehouseBuilder--><g id="elem_WarehouseBuilder"><rect fill="#F1F1F1" height="48" id="WarehouseBuilder" rx="2.5" ry="2.5" style="stroke:#181818;stroke-width:0.5;" width="149" x="2404.1" y="168.77"/><ellipse cx="2419.1" cy="184.77" fill="#ADD1B2" rx="11" ry="11" style="stroke:#181818;stroke-width:1.0;"/><path d="M2421.1,181.27 Q2421.3031,180.77 2421.5375,180.52 Q2421.7719,180.27 2422.0375,180.27 Q2422.5063,180.27 2422.8031,180.5512 Q2423.1,180.8325 2423.1,181.4887 L2423.1,183.0512 Q2423.1,183.7075 2422.8188,183.9887 Q2422.5375,184.27 2422.1,184.27 Q2421.7094,184.27 2421.4594,184.0981 Q2421.2094,183.9262 2421.1,183.4731 Q2421.0531,183.1606 2420.8813,182.9887 Q2420.5688,182.6606 2420.0063,182.4731 Q2419.4438,182.27 2418.8813,182.27 Q2418.1781,182.27 2417.5844,182.5512 Q2417.0063,182.8325 2416.5531,183.4575 Q2416.1,184.0825 2416.1,184.9419 L2416.1,185.8637 Q2416.1,186.895 2416.9438,187.5825 Q2417.7875,188.27 2419.2875,188.27 Q2420.1781,188.27 2420.8031,188.0669 Q2421.1625,187.9575 2421.5688,187.5981 Q2421.8344,187.395 2421.975,187.3325 Q2422.1156,187.27 2422.2875,187.27 Q2422.6156,187.27 2422.85,187.5356 Q2423.1,187.7856 2423.1,188.145 Q2423.1,188.4887 2422.7563,188.895 Q2422.2563,189.4887 2421.4594,189.8169 Q2420.4125,190.27 2419.1313,190.27 Q2417.6313,190.27 2416.4281,189.6762 Q2415.4594,189.2075 2414.7719,188.1919 Q2414.1,187.1762 2414.1,185.9731 L2414.1,184.8794 Q2414.1,183.6294 2414.6938,182.5356 Q2415.3031,181.4419 2416.35,180.8637 Q2417.4125,180.27 2418.6,180.27 Q2419.3188,180.27 2419.9438,180.52 Q2420.5688,180.77 2421.1,181.27 Z " fill="#000000"/><text fill="#000000" font-family="sans-serif" font-size="14" lengthAdjust="spacing" textLength="117" x="2433.1" y="190.4985">WarehouseBuilder</text><line style="stroke:#181818;stroke-width:0.5;" x1="2405.1" x2="2552.1" y1="200.77" y2="200.77"/><line style="stroke:#181818;stroke-width:0.5;" x1="2405.1" x2="2552.1" y1="208.77" y2="208.77"/></g><!--MD5=[38bb5f63b06443a75df15b54705289ce]
class WarehousePlanr--><g id="elem_WarehousePlanr"><rect fill="#F1F1F1" height="48" id="WarehousePlanr" rx="2.5" ry="2.5" style="stroke:#181818;stroke-width:0.5;" width="138" x="2606.6" y="168.77"/><ellipse cx="2621.6" cy="184.77" fill="#ADD1B2" rx="11" ry="11" style="stroke:#181818;stroke-width:1.0;"/><path d="M2623.6,181.27 Q2623.8031,180.77 2624.0375,180.52 Q2624.2719,180.27 2624.5375,180.27 Q2625.0063,180.27 2625.3031,180.5512 Q2625.6,180.8325 2625.6,181.4887 L2625.6,183.0512 Q2625.6,183.7075 2625.3188,183.9887 Q2625.0375,184.27 2624.6,184.27 Q2624.2094,184.27 2623.9594,184.0981 Q2623.7094,183.9262 2623.6,183.4731 Q2623.5531,183.1606 2623.3813,182.9887 Q2623.0688,182.6606 2622.5063,182.4731 Q2621.9438,182.27 2621.3813,182.27 Q2620.6781,182.27 2620.0844,182.5512 Q2619.5063,182.8325 2619.0531,183.4575 Q2618.6,184.0825 2618.6,184.9419 L2618.6,185.8637 Q2618.6,186.895 2619.4438,187.5825 Q2620.2875,188.27 2621.7875,188.27 Q2622.6781,188.27 2623.3031,188.0669 Q2623.6625,187.9575 2624.0688,187.5981 Q2624.3344,187.395 2624.475,187.3325 Q2624.6156,187.27 2624.7875,187.27 Q2625.1156,187.27 2625.35,187.5356 Q2625.6,187.7856 2625.6,188.145 Q2625.6,188.4887 2625.2563,188.895 Q2624.7563,189.4887 2623.9594,189.8169 Q2622.9125,190.27 2621.6313,190.27 Q2620.1313,190.27 2618.9281,189.6762 Q2617.9594,189.2075 2617.2719,188.1919 Q2616.6,187.1762 2616.6,185.9731 L2616.6,184.8794 Q2616.6,183.6294 2617.1938,182.5356 Q2617.8031,181.4419 2618.85,180.8637 Q2619.9125,180.27 2621.1,180.27 Q2621.8188,180.27 2622.4438,180.52 Q2623.0688,180.77 2623.6,181.27 Z " fill="#000000"/><text fill="#000000" font-family="sans-serif" font-size="14" lengthAdjust="spacing" textLength="106" x="2635.6" y="190.4985">WarehousePlanr</text><line style="stroke:#181818;stroke-width:0.5;" x1="2607.6" x2="2743.6" y1="200.77" y2="200.77"/><line style="stroke:#181818;stroke-width:0.5;" x1="2607.6" x2="2743.6" y1="208.77" y2="208.77"/></g><!--MD5=[1c7b3caef9800f570e1c5d7e77762a5a]
class WarehousePlantBuilder--><g id="elem_WarehousePlantBuilder"><rect fill="#F1F1F1" height="48" id="WarehousePlantBuilder" rx="2.5" ry="2.5" style="stroke:#181818;stroke-width:0.5;" width="181" x="2547.1" y="320.77"/><ellipse cx="2562.1" cy="336.77" fill="#ADD1B2" rx="11" ry="11" style="stroke:#181818;stroke-width:1.0;"/><path d="M2564.1,333.27 Q2564.3031,332.77 2564.5375,332.52 Q2564.7719,332.27 2565.0375,332.27 Q2565.5063,332.27 2565.8031,332.5513 Q2566.1,332.8325 2566.1,333.4888 L2566.1,335.0513 Q2566.1,335.7075 2565.8188,335.9888 Q2565.5375,336.27 2565.1,336.27 Q2564.7094,336.27 2564.4594,336.0981 Q2564.2094,335.9263 2564.1,335.4731 Q2564.0531,335.1606 2563.8813,334.9888 Q2563.5688,334.6606 2563.0063,334.4731 Q2562.4438,334.27 2561.8813,334.27 Q2561.1781,334.27 2560.5844,334.5513 Q2560.0063,334.8325 2559.5531,335.4575 Q2559.1,336.0825 2559.1,336.9419 L2559.1,337.8638 Q2559.1,338.895 2559.9438,339.5825 Q2560.7875,340.27 2562.2875,340.27 Q2563.1781,340.27 2563.8031,340.0669 Q2564.1625,339.9575 2564.5688,339.5981 Q2564.8344,339.395 2564.975,339.3325 Q2565.1156,339.27 2565.2875,339.27 Q2565.6156,339.27 2565.85,339.5356 Q2566.1,339.7856 2566.1,340.145 Q2566.1,340.4888 2565.7563,340.895 Q2565.2563,341.4888 2564.4594,341.8169 Q2563.4125,342.27 2562.1313,342.27 Q2560.6313,342.27 2559.4281,341.6763 Q2558.4594,341.2075 2557.7719,340.1919 Q2557.1,339.1763 2557.1,337.9731 L2557.1,336.8794 Q2557.1,335.6294 2557.6938,334.5356 Q2558.3031,333.4419 2559.35,332.8638 Q2560.4125,332.27 2561.6,332.27 Q2562.3188,332.27 2562.9438,332.52 Q2563.5688,332.77 2564.1,333.27 Z " fill="#000000"/><text fill="#000000" font-family="sans-serif" font-size="14" lengthAdjust="spacing" textLength="149" x="2576.1" y="342.4985">WarehousePlantBuilder</text><line style="stroke:#181818;stroke-width:0.5;" x1="2548.1" x2="2727.1" y1="352.77" y2="352.77"/><line style="stroke:#181818;stroke-width:0.5;" x1="2548.1" x2="2727.1" y1="360.77" y2="360.77"/></g><!--MD5=[d762bed0c247a3d5399e6b7ca5f6f3f8]
link ImportJsonUI to ImportJsonController--><g id="link_ImportJsonUI_ImportJsonController"><path codeLine="7" d="M1191.7,67.27 C1201.6,67.27 1211.49,67.27 1221.39,67.27 " fill="none" id="ImportJsonUI-to-ImportJsonController" style="stroke:#181818;stroke-width:1.0;"/><polygon fill="#181818" points="1226.56,67.27,1217.56,63.27,1221.56,67.27,1217.56,71.27,1226.56,67.27" style="stroke:#181818;stroke-width:1.0;"/></g><!--MD5=[9ca3183ec23e8408f72951d1dcc9a011]
link ImportJsonController to JsonImport--><g id="link_ImportJsonController_JsonImport"><path codeLine="8" d="M1388.66,67.27 C1398.54,67.27 1408.43,67.27 1418.32,67.27 " fill="none" id="ImportJsonController-to-JsonImport" style="stroke:#181818;stroke-width:1.0;"/><polygon fill="#181818" points="1423.5,67.27,1414.5,63.27,1418.5,67.27,1414.5,71.27,1423.5,67.27" style="stroke:#181818;stroke-width:1.0;"/></g><!--MD5=[78870b07e32dfd99e59c2c2907dc3425]
link JsonImport to PersistenceContext--><g id="link_JsonImport_PersistenceContext"><path codeLine="40" d="M1423.46,86.65 C1417.49,88.42 1411.45,90.01 1405.6,91.27 C1139.29,148.62 1060.55,87.92 795.6,151.27 C787.8,153.14 779.8,155.46 771.87,158.04 " fill="none" id="JsonImport-to-PersistenceContext" style="stroke:#181818;stroke-width:1.0;"/><polygon fill="#181818" points="766.94,159.68,776.7413,160.6464,771.6863,158.1074,774.2252,153.0524,766.94,159.68" style="stroke:#181818;stroke-width:1.0;"/></g><!--MD5=[42404b84218879b13c29dcb2f8b0be7c]
link JsonImport to TransactionalContext--><g id="link_JsonImport_TransactionalContext"><path codeLine="41" d="M1423.5,86.86 C1417.53,88.58 1411.47,90.11 1405.6,91.27 C989.65,173.23 866.97,57.15 453.6,151.27 C449.68,152.16 445.72,153.19 441.75,154.32 " fill="none" id="JsonImport-to-TransactionalContext" style="stroke:#181818;stroke-width:1.0;"/><polygon fill="#181818" points="436.71,155.81,446.4736,157.1032,441.5061,154.3969,444.2125,149.4294,436.71,155.81" style="stroke:#181818;stroke-width:1.0;"/></g><!--MD5=[754b775031405e096442b27febffa290]
link PersistenceContext to RepositoryFactory--><g id="link_PersistenceContext_RepositoryFactory"><path codeLine="43" d="M691.6,225.95 C691.6,244.36 691.6,267.94 691.6,289.17 " fill="none" id="PersistenceContext-to-RepositoryFactory" style="stroke:#181818;stroke-width:1.0;"/><polygon fill="#181818" points="691.6,294.23,695.6,285.23,691.6,289.23,687.6,285.23,691.6,294.23" style="stroke:#181818;stroke-width:1.0;"/></g><!--MD5=[5b045b17e7957024e5fc2220186f6fb3]
link RepositoryFactory to AGVDockRepository--><g id="link_RepositoryFactory_AGVDockRepository"><path codeLine="45" d="M807.34,383.92 C875.92,406.52 960.76,434.49 1020.21,454.08 " fill="none" id="RepositoryFactory-to-AGVDockRepository" style="stroke:#181818;stroke-width:1.0;"/><polygon fill="#181818" points="1025.16,455.71,1017.8568,449.1022,1020.4095,454.1503,1015.3613,456.703,1025.16,455.71" style="stroke:#181818;stroke-width:1.0;"/></g><!--MD5=[4109a92771b270c72837a91a764fb870]
link RepositoryFactory to AisleRepository--><g id="link_RepositoryFactory_AisleRepository"><path codeLine="46" d="M807.36,383.41 C822.17,387.69 837.19,391.76 851.6,395.27 C998.14,430.96 1038.89,420.3 1185.6,455.27 C1189.79,456.27 1194.1,457.36 1198.42,458.51 " fill="none" id="RepositoryFactory-to-AisleRepository" style="stroke:#181818;stroke-width:1.0;"/><polygon fill="#181818" points="1203.51,459.89,1195.8765,453.6667,1198.6855,458.5768,1193.7754,461.3859,1203.51,459.89" style="stroke:#181818;stroke-width:1.0;"/></g><!--MD5=[0435284d46e34dbd2b1aa15ffc674f48]
link RepositoryFactory to BinRepository--><g id="link_RepositoryFactory_BinRepository"><path codeLine="47" d="M575.71,374.19 C491.11,395.37 373.83,425.64 271.6,455.27 C267.34,456.5 262.96,457.81 258.55,459.16 " fill="none" id="RepositoryFactory-to-BinRepository" style="stroke:#181818;stroke-width:1.0;"/><polygon fill="#181818" points="253.76,460.62,263.5349,461.8251,258.5432,459.1636,261.2047,454.172,253.76,460.62" style="stroke:#181818;stroke-width:1.0;"/></g><!--MD5=[0f052975b2a425b3f6a99223fc0fb5b6]
link RepositoryFactory to LineRepository--><g id="link_RepositoryFactory_LineRepository"><path codeLine="48" d="M575.76,390.26 C520.12,411.63 455.63,436.4 409.27,454.2 " fill="none" id="RepositoryFactory-to-LineRepository" style="stroke:#181818;stroke-width:1.0;"/><polygon fill="#181818" points="404.56,456.01,414.3955,456.5227,409.2286,454.2199,411.5314,449.053,404.56,456.01" style="stroke:#181818;stroke-width:1.0;"/></g><!--MD5=[31dddaa33f7b24b5485633896087c82f]
link RepositoryFactory to ShelfRepository--><g id="link_RepositoryFactory_ShelfRepository"><path codeLine="49" d="M619.83,395.3 C591.56,414.81 560.28,436.4 536.71,452.66 " fill="none" id="RepositoryFactory-to-ShelfRepository" style="stroke:#181818;stroke-width:1.0;"/><polygon fill="#181818" points="532.41,455.63,542.0882,453.8046,536.5235,452.7877,537.5405,447.223,532.41,455.63" style="stroke:#181818;stroke-width:1.0;"/></g><!--MD5=[321b99a2cbeeef2f413bf2efcab8c071]
link RepositoryFactory to WarehousePlantRepository--><g id="link_RepositoryFactory_WarehousePlantRepository"><path codeLine="50" d="M691.6,395.49 C691.6,414.09 691.6,434.55 691.6,450.48 " fill="none" id="RepositoryFactory-to-WarehousePlantRepository" style="stroke:#181818;stroke-width:1.0;"/><polygon fill="#181818" points="691.6,455.7,695.6,446.7,691.6,450.7,687.6,446.7,691.6,455.7" style="stroke:#181818;stroke-width:1.0;"/></g><!--MD5=[1e897a22714a6b830b517dbc62a38d7f]
link RepositoryFactory to WarehouseRepository--><g id="link_RepositoryFactory_WarehouseRepository"><path codeLine="51" d="M770.84,395.3 C802.19,414.89 836.89,436.57 862.94,452.86 " fill="none" id="RepositoryFactory-to-WarehouseRepository" style="stroke:#181818;stroke-width:1.0;"/><polygon fill="#181818" points="867.38,455.63,861.868,447.468,863.14,452.98,857.628,454.252,867.38,455.63" style="stroke:#181818;stroke-width:1.0;"/></g><!--MD5=[1133b25e598303fb1bdbeb1adea3d690]
link JsonImport to Accessibility--><g id="link_JsonImport_Accessibility"><path codeLine="53" d="M1423.49,86.79 C1417.52,88.53 1411.46,90.08 1405.6,91.27 C1052.25,162.93 941.44,46.03 596.6,151.27 C585.2,154.75 573.64,160.31 563.24,166.2 " fill="none" id="JsonImport-to-Accessibility" style="stroke:#181818;stroke-width:1.0;"/><polygon fill="#181818" points="558.87,168.74,568.6615,167.6784,563.1935,166.2286,564.6433,160.7607,558.87,168.74" style="stroke:#181818;stroke-width:1.0;"/></g><!--MD5=[8522a499268c8d16689523dfe0748966]
link JsonImport to AGVDock--><g id="link_JsonImport_AGVDock"><path codeLine="54" d="M1423.44,86.59 C1417.48,88.36 1411.44,89.98 1405.6,91.27 C1285.98,117.72 939.38,60.05 857.6,151.27 C815.34,198.41 862.09,275.39 892.92,316.26 " fill="none" id="JsonImport-to-AGVDock" style="stroke:#181818;stroke-width:1.0;"/><polygon fill="#181818" points="896.23,320.58,893.9532,310.9979,893.1981,316.6042,887.5918,315.849,896.23,320.58" style="stroke:#181818;stroke-width:1.0;"/></g><!--MD5=[a4c9665b9c5375714cd460cee823df94]
link JsonImport to AGVDockBuilder--><g id="link_JsonImport_AGVDockBuilder"><path codeLine="55" d="M1423.37,86.28 C1417.42,88.11 1411.4,89.82 1405.6,91.27 C1245.66,131.14 1197.98,105.58 1039.6,151.27 C1025.39,155.37 1010.47,160.98 996.73,166.72 " fill="none" id="JsonImport-to-AGVDockBuilder" style="stroke:#181818;stroke-width:1.0;"/><polygon fill="#181818" points="992.12,168.67,1001.9672,168.8531,996.726,166.7246,998.8545,161.4835,992.12,168.67" style="stroke:#181818;stroke-width:1.0;"/></g><!--MD5=[7c474d09b5704192814afdc913071a1f]
link AGVDockBuilder to AGVDock--><g id="link_AGVDockBuilder_AGVDock"><path codeLine="56" d="M939.29,216.88 C934.35,243.34 926.25,286.7 920.93,315.24 " fill="none" id="AGVDockBuilder-to-AGVDock" style="stroke:#181818;stroke-width:1.0;"/><polygon fill="#181818" points="919.97,320.39,925.5487,312.2735,920.8845,315.4743,917.6837,310.8102,919.97,320.39" style="stroke:#181818;stroke-width:1.0;"/></g><!--MD5=[9a252aa5037f9010f36fcf1895fd600d]
link JsonImport to Aisle--><g id="link_JsonImport_Aisle"><path codeLine="57" d="M1423.32,86.1 C1417.38,87.96 1411.38,89.73 1405.6,91.27 C1272.1,126.81 1188.36,44.57 1100.6,151.27 C1059.91,200.74 1110.85,276.1 1144.47,316.28 " fill="none" id="JsonImport-to-Aisle" style="stroke:#181818;stroke-width:1.0;"/><polygon fill="#181818" points="1148.07,320.53,1145.2879,311.0823,1144.8313,316.7207,1139.1929,316.2641,1148.07,320.53" style="stroke:#181818;stroke-width:1.0;"/></g><!--MD5=[581467d67e1493ce640b420fb1506902]
link JsonImport to AisleBuilder--><g id="link_JsonImport_AisleBuilder"><path codeLine="58" d="M1436.17,91.5 C1402.12,112.63 1351.93,143.78 1316.54,165.74 " fill="none" id="JsonImport-to-AisleBuilder" style="stroke:#181818;stroke-width:1.0;"/><polygon fill="#181818" points="1311.86,168.64,1321.6193,167.3152,1316.1144,166.0131,1317.4164,160.5082,1311.86,168.64" style="stroke:#181818;stroke-width:1.0;"/></g><!--MD5=[823bea8295550c8ed0e356d6d378aa30]
link AisleBuilder to Aisle--><g id="link_AisleBuilder_Aisle"><path codeLine="59" d="M1258.42,216.88 C1239.75,243.56 1209.05,287.42 1189.08,315.95 " fill="none" id="AisleBuilder-to-Aisle" style="stroke:#181818;stroke-width:1.0;"/><polygon fill="#181818" points="1185.97,320.39,1194.4093,315.3127,1188.8383,316.2945,1187.8565,310.7235,1185.97,320.39" style="stroke:#181818;stroke-width:1.0;"/></g><!--MD5=[44f13fc2bb0dbd2d8429763a968f0900]
link JsonImport to Begin--><g id="link_JsonImport_Begin"><path codeLine="60" d="M1423.54,85.44 C1417.5,87.44 1411.42,89.42 1405.6,91.27 C1316.34,119.61 1286.67,108.03 1203.6,151.27 C1196.13,155.16 1188.68,160.22 1181.88,165.43 " fill="none" id="JsonImport-to-Begin" style="stroke:#181818;stroke-width:1.0;"/><polygon fill="#181818" points="1177.74,168.69,1187.2885,166.2764,1181.6721,165.6015,1182.347,159.9851,1177.74,168.69" style="stroke:#181818;stroke-width:1.0;"/></g><!--MD5=[cb63c3ec35d5b4fb93718a28700d3bd2]
link JsonImport to Bin--><g id="link_JsonImport_Bin"><path codeLine="61" d="M1423.52,86.97 C1417.55,88.67 1411.48,90.17 1405.6,91.27 C1331.54,105.15 102.69,96.82 50.6,151.27 C6,197.89 58.61,275.95 92.44,316.87 " fill="none" id="JsonImport-to-Bin" style="stroke:#181818;stroke-width:1.0;"/><polygon fill="#181818" points="95.65,320.71,92.9647,311.2343,92.4505,316.8677,86.817,316.3535,95.65,320.71" style="stroke:#181818;stroke-width:1.0;"/></g><!--MD5=[ef2d927aace981eda112e247684124ee]
link JsonImport to BinBuilder--><g id="link_JsonImport_BinBuilder"><path codeLine="62" d="M1423.51,86.94 C1417.54,88.65 1411.48,90.15 1405.6,91.27 C874.88,192.11 711.92,6 191.6,151.27 C179.63,154.61 167.44,160.12 156.46,166.02 " fill="none" id="JsonImport-to-BinBuilder" style="stroke:#181818;stroke-width:1.0;"/><polygon fill="#181818" points="151.84,168.56,161.6521,167.7104,156.2168,166.1427,157.7845,160.7074,151.84,168.56" style="stroke:#181818;stroke-width:1.0;"/></g><!--MD5=[1eec90341c0d895bf0f464bc2452fd0b]
link JsonImport to BinId--><g id="link_JsonImport_BinId"><path codeLine="63" d="M1423.51,86.92 C1417.54,88.63 1411.48,90.15 1405.6,91.27 C1279.6,115.38 349.77,67.51 252.6,151.27 C205.32,192.03 205.72,272.93 209.78,315.72 " fill="none" id="JsonImport-to-BinId" style="stroke:#181818;stroke-width:1.0;"/><polygon fill="#181818" points="210.29,320.74,213.3454,311.3771,209.777,315.7664,205.3876,312.1979,210.29,320.74" style="stroke:#181818;stroke-width:1.0;"/></g><!--MD5=[36f79857ebc09374c704c8ef0d11d68c]
link BinBuilder to Bin--><g id="link_BinBuilder_Bin"><path codeLine="64" d="M116.6,216.88 C116.6,243.34 116.6,286.7 116.6,315.24 " fill="none" id="BinBuilder-to-Bin" style="stroke:#181818;stroke-width:1.0;"/><polygon fill="#181818" points="116.6,320.39,120.6,311.39,116.6,315.39,112.6,311.39,116.6,320.39" style="stroke:#181818;stroke-width:1.0;"/></g><!--MD5=[480b66451dd314154af5574240e2e39a]
link Bin to BinId--><g id="link_Bin_BinId"><path codeLine="65" d="M142.74,344.77 C154.11,344.77 165.47,344.77 176.83,344.77 " fill="none" id="Bin-to-BinId" style="stroke:#181818;stroke-width:1.0;"/><polygon fill="#181818" points="182.05,344.77,173.05,340.77,177.05,344.77,173.05,348.77,182.05,344.77" style="stroke:#181818;stroke-width:1.0;"/></g><!--MD5=[8e4b11d5010918046dc56650de6b7fb9]
link JsonImport to Dashboard--><g id="link_JsonImport_Dashboard"><path codeLine="66" d="M1462.31,91.5 C1452.3,112.11 1437.65,142.26 1427.04,164.11 " fill="none" id="JsonImport-to-Dashboard" style="stroke:#181818;stroke-width:1.0;"/><polygon fill="#181818" points="1424.84,168.64,1432.3781,162.3015,1427.0301,164.1452,1425.1864,158.7972,1424.84,168.64" style="stroke:#181818;stroke-width:1.0;"/></g><!--MD5=[44fb39ac0c61ae6bd4aeec13780c34f6]
link JsonImport to Depth--><g id="link_JsonImport_Depth"><path codeLine="67" d="M1485.07,91.5 C1495.26,112.11 1510.15,142.26 1520.94,164.11 " fill="none" id="JsonImport-to-Depth" style="stroke:#181818;stroke-width:1.0;"/><polygon fill="#181818" points="1523.18,168.64,1522.7831,158.7991,1520.9668,164.1565,1515.6095,162.3403,1523.18,168.64" style="stroke:#181818;stroke-width:1.0;"/></g><!--MD5=[b87f063b044c7ecc1aeac4bb7b798fa5]
link JsonImport to End--><g id="link_JsonImport_End"><path codeLine="68" d="M1506.74,91.58 C1529.54,107.86 1560.32,130.35 1586.6,151.27 C1592.21,155.74 1598.09,160.63 1603.71,165.41 " fill="none" id="JsonImport-to-End" style="stroke:#181818;stroke-width:1.0;"/><polygon fill="#181818" points="1607.55,168.7,1603.3006,159.8151,1603.7467,165.4543,1598.1074,165.9004,1607.55,168.7" style="stroke:#181818;stroke-width:1.0;"/></g><!--MD5=[746dc2cdd8ef0b64344a1d89c90d2955]
link JsonImport to Line--><g id="link_JsonImport_Line"><path codeLine="69" d="M1523.76,80.06 C1568.12,92.34 1632.87,114.94 1679.6,151.27 C1710.57,175.35 1772.89,269.16 1803.22,316.34 " fill="none" id="JsonImport-to-Line" style="stroke:#181818;stroke-width:1.0;"/><polygon fill="#181818" points="1806.05,320.76,1804.5629,311.0241,1803.3527,316.5499,1797.8268,315.3397,1806.05,320.76" style="stroke:#181818;stroke-width:1.0;"/></g><!--MD5=[c22a4f08022523f84858ef486290332c]
link JsonImport to LineBuilder--><g id="link_JsonImport_LineBuilder"><path codeLine="70" d="M1523.9,81.04 C1578.45,95.54 1667.63,121.12 1741.6,151.27 C1752.47,155.7 1763.85,161.07 1774.49,166.44 " fill="none" id="JsonImport-to-LineBuilder" style="stroke:#181818;stroke-width:1.0;"/><polygon fill="#181818" points="1779.01,168.74,1772.788,161.1054,1774.5494,166.4811,1769.1737,168.2425,1779.01,168.74" style="stroke:#181818;stroke-width:1.0;"/></g><!--MD5=[5406827b96e496f764084ab219b24b66]
link JsonImport to LineId--><g id="link_JsonImport_LineId"><path codeLine="71" d="M1523.9,70.61 C1624.29,76.46 1843.83,95.47 1889.6,151.27 C1961.62,239.07 1911.48,389 1885.99,450.6 " fill="none" id="JsonImport-to-LineId" style="stroke:#181818;stroke-width:1.0;"/><polygon fill="#181818" points="1884.05,455.23,1891.2113,448.4686,1885.9781,450.6167,1883.83,445.3836,1884.05,455.23" style="stroke:#181818;stroke-width:1.0;"/></g><!--MD5=[d8bb860f03b3bbc1f26a688f3bcdb0d2]
link LineBuilder to Line--><g id="link_LineBuilder_Line"><path codeLine="72" d="M1820.6,216.88 C1820.6,243.34 1820.6,286.7 1820.6,315.24 " fill="none" id="LineBuilder-to-Line" style="stroke:#181818;stroke-width:1.0;"/><polygon fill="#181818" points="1820.6,320.39,1824.6,311.39,1820.6,315.39,1816.6,311.39,1820.6,320.39" style="stroke:#181818;stroke-width:1.0;"/></g><!--MD5=[8b0842f6158d41f143b4441ac74c02ef]
link Line to LineId--><g id="link_Line_LineId"><path codeLine="73" d="M1829.83,368.85 C1838.9,391.51 1852.73,426.11 1862.42,450.31 " fill="none" id="Line-to-LineId" style="stroke:#181818;stroke-width:1.0;"/><polygon fill="#181818" points="1864.3,455.01,1864.6714,445.1681,1862.443,450.3676,1857.2436,448.1393,1864.3,455.01" style="stroke:#181818;stroke-width:1.0;"/></g><!--MD5=[d18f2944f0cf19bf1a66aef35ddd5c77]
link JsonImport to Shelf--><g id="link_JsonImport_Shelf"><path codeLine="74" d="M1523.84,72.44 C1631.32,82.09 1879.69,108.44 1951.6,151.27 C1986.4,172 2053.43,268.24 2085.56,316.31 " fill="none" id="JsonImport-to-Shelf" style="stroke:#181818;stroke-width:1.0;"/><polygon fill="#181818" points="2088.37,320.52,2086.7213,310.8101,2085.6031,316.3554,2080.0578,315.2372,2088.37,320.52" style="stroke:#181818;stroke-width:1.0;"/></g><!--MD5=[c80d40012b66d6ab878b0ca75e19466b]
link JsonImport to ShelfBuilder--><g id="link_JsonImport_ShelfBuilder"><path codeLine="75" d="M1523.62,70.6 C1621.55,76.29 1844.56,94.86 2022.6,151.27 C2034.77,155.13 2047.38,160.61 2058.91,166.31 " fill="none" id="JsonImport-to-ShelfBuilder" style="stroke:#181818;stroke-width:1.0;"/><polygon fill="#181818" points="2063.44,168.58,2057.1887,160.9694,2058.9707,166.3382,2053.6019,168.1202,2063.44,168.58" style="stroke:#181818;stroke-width:1.0;"/></g><!--MD5=[65f156e3786fb4dc333d79c18b13a489]
link JsonImport to ShelfId--><g id="link_JsonImport_ShelfId"><path codeLine="76" d="M1523.7,70.43 C1676.89,77.54 2131.35,102.6 2174.6,151.27 C2250.04,236.17 2197.37,387.73 2170.61,450.18 " fill="none" id="JsonImport-to-ShelfId" style="stroke:#181818;stroke-width:1.0;"/><polygon fill="#181818" points="2168.57,454.88,2175.8169,448.2105,2170.5568,450.2917,2168.4757,445.0316,2168.57,454.88" style="stroke:#181818;stroke-width:1.0;"/></g><!--MD5=[cc81054c6584e8882b5d0cc4382b1765]
link ShelfBuilder to Shelf--><g id="link_ShelfBuilder_Shelf"><path codeLine="77" d="M2103.6,216.88 C2103.6,243.34 2103.6,286.7 2103.6,315.24 " fill="none" id="ShelfBuilder-to-Shelf" style="stroke:#181818;stroke-width:1.0;"/><polygon fill="#181818" points="2103.6,320.39,2107.6,311.39,2103.6,315.39,2099.6,311.39,2103.6,320.39" style="stroke:#181818;stroke-width:1.0;"/></g><!--MD5=[098f0b9c0ea0052c61f423a6365cd165]
link Shelf to ShelfId--><g id="link_Shelf_ShelfId"><path codeLine="78" d="M2113.01,368.85 C2122.24,391.51 2136.34,426.11 2146.21,450.31 " fill="none" id="Shelf-to-ShelfId" style="stroke:#181818;stroke-width:1.0;"/><polygon fill="#181818" points="2148.12,455.01,2148.4287,445.166,2146.2335,450.3795,2141.02,448.1844,2148.12,455.01" style="stroke:#181818;stroke-width:1.0;"/></g><!--MD5=[f69108e726ee847d0a740d9b128b482a]
link JsonImport to Warehouse--><g id="link_JsonImport_Warehouse"><path codeLine="79" d="M1523.91,67.58 C1647.84,67.18 1976.65,74.12 2236.6,151.27 C2248.98,154.95 2261.75,160.49 2273.34,166.31 " fill="none" id="JsonImport-to-Warehouse" style="stroke:#181818;stroke-width:1.0;"/><polygon fill="#181818" points="2277.89,168.64,2271.7169,160.9658,2273.4439,166.3526,2268.0571,168.0796,2277.89,168.64" style="stroke:#181818;stroke-width:1.0;"/></g><!--MD5=[ffb6c2ac7aeae0c457f2be0c7adac183]
link JsonImport to WarehouseBuilder--><g id="link_JsonImport_WarehouseBuilder"><path codeLine="80" d="M1523.61,70.68 C1689.56,79.03 2220.94,108.5 2386.6,151.27 C2400.75,154.92 2415.48,160.52 2428.9,166.39 " fill="none" id="JsonImport-to-WarehouseBuilder" style="stroke:#181818;stroke-width:1.0;"/><polygon fill="#181818" points="2433.78,168.57,2427.1845,161.2557,2429.2121,166.5367,2423.9311,168.5643,2433.78,168.57" style="stroke:#181818;stroke-width:1.0;"/></g><!--MD5=[4ee12ed7c133e3b7df728b46de5e102b]
link WarehouseBuilder to WarehouseBuilder--><g id="link_WarehouseBuilder_WarehouseBuilder"><path codeLine="81" d="M2553.32,169.72 C2573.11,171.04 2588.1,178.72 2588.1,192.77 C2588.1,205.61 2575.58,213.13 2558.31,215.34 " fill="none" id="WarehouseBuilder-to-WarehouseBuilder" style="stroke:#181818;stroke-width:1.0;"/><polygon fill="#181818" points="2553.32,215.82,2562.6654,218.9285,2558.2964,215.3352,2561.8897,210.9662,2553.32,215.82" style="stroke:#181818;stroke-width:1.0;"/></g><!--MD5=[4427086d539f2fc3cac9cbdeb47ba6e0]
link JsonImport to WarehousePlanr--><g id="link_JsonImport_WarehousePlanr"><path codeLine="82" d="M1523.85,69.61 C1713.16,75.03 2382.92,97.66 2588.6,151.27 C2602.24,154.83 2616.37,160.45 2629.17,166.4 " fill="none" id="JsonImport-to-WarehousePlanr" style="stroke:#181818;stroke-width:1.0;"/><polygon fill="#181818" points="2633.82,168.6,2627.3855,161.1436,2629.2975,166.4676,2623.9736,168.3796,2633.82,168.6" style="stroke:#181818;stroke-width:1.0;"/></g><!--MD5=[8eadeaff82a35a43e865d8fb180710cf]
link JsonImport to WarehousePlantBuilder--><g id="link_JsonImport_WarehousePlantBuilder"><path codeLine="83" d="M1523.83,69.6 C1756.43,76.01 2719.46,105.26 2762.6,151.27 C2787.83,178.18 2777.83,200.67 2762.6,234.27 C2746.37,270.06 2712.02,298.76 2683.43,317.79 " fill="none" id="JsonImport-to-WarehousePlantBuilder" style="stroke:#181818;stroke-width:1.0;"/><polygon fill="#181818" points="2678.9,320.76,2688.6201,319.1728,2683.0821,318.0195,2684.2354,312.4815,2678.9,320.76" style="stroke:#181818;stroke-width:1.0;"/></g><!--MD5=[e744c074ac8c6d94824463c389e66332]
link WarehouseBuilder to WarehousePlantBuilder--><g id="link_WarehouseBuilder_WarehousePlantBuilder"><path codeLine="84" d="M2503.1,216.88 C2531.69,243.86 2578.91,288.4 2609.11,316.9 " fill="none" id="WarehouseBuilder-to-WarehousePlantBuilder" style="stroke:#181818;stroke-width:1.0;"/><polygon fill="#181818" points="2613.08,320.63,2609.2677,311.5489,2609.439,317.2032,2603.7847,317.3745,2613.08,320.63" style="stroke:#181818;stroke-width:1.0;"/></g><!--MD5=[6239d6395231a762f6caef1c6c519e94]
@startuml


class ImportJsonUI
class ImportJsonController
class JsonImport

ImportJsonUI -> ImportJsonController
ImportJsonController -> JsonImport

database AGVDockRepository{
}
database AisleRepository{
}
database BinRepository{
}
database LineRepository{
}
database ShelfRepository{
}
database WarehousePlantRepository{
}
database WarehouseRepository{
}

class PersistenceContext{
+repositories()
}

class TransactionalContext{
+beginTransaction()
+commit()
}

class RepositoryFactory{
+create()
+newTransactionalContext()
+create(TransactionalContext ctx)
}

JsonImport - ->PersistenceContext
JsonImport - ->TransactionalContext

PersistenceContext - ->RepositoryFactory

RepositoryFactory - ->AGVDockRepository
RepositoryFactory - ->AisleRepository
RepositoryFactory - ->BinRepository
RepositoryFactory - ->LineRepository
RepositoryFactory - ->ShelfRepository
RepositoryFactory - ->WarehousePlantRepository
RepositoryFactory - ->WarehouseRepository

JsonImport - -> Accessibility
JsonImport - -> AGVDock
JsonImport - -> AGVDockBuilder
AGVDockBuilder - -> AGVDock
JsonImport - -> Aisle
JsonImport - -> AisleBuilder
AisleBuilder - -> Aisle
JsonImport - -> Begin
JsonImport - -> Bin
JsonImport - -> BinBuilder
JsonImport - -> BinId
BinBuilder - -> Bin
Bin -> BinId
JsonImport - -> Dashboard
JsonImport - -> Depth
JsonImport - -> End
JsonImport - -> Line
JsonImport - -> LineBuilder
JsonImport - -> LineId
LineBuilder - -> Line
Line - -> LineId
JsonImport - -> Shelf
JsonImport - -> ShelfBuilder
JsonImport - -> ShelfId
ShelfBuilder - -> Shelf
Shelf - -> ShelfId
JsonImport - -> Warehouse
JsonImport - -> WarehouseBuilder
WarehouseBuilder - -> WarehouseBuilder
JsonImport - -> WarehousePlanr
JsonImport - -> WarehousePlantBuilder
WarehouseBuilder - -> WarehousePlantBuilder



@enduml

PlantUML version 1.2022.4(Sat Apr 09 14:29:17 BST 2022)
(GPL source distribution)
Java Runtime: OpenJDK Runtime Environment
JVM: OpenJDK 64-Bit Server VM
Default Encoding: Cp1252
Language: pt
Country: PT
--></g></svg>