<?xml version="1.0" encoding="UTF-8" standalone="no"?><svg xmlns="http://www.w3.org/2000/svg" xmlns:xlink="http://www.w3.org/1999/xlink" contentStyleType="text/css" height="768px" preserveAspectRatio="none" style="width:1333px;height:768px;background:#FFFFFF;" version="1.1" viewBox="0 0 1333 768" width="1333px" zoomAndPan="magnify"><defs/><g><!--MD5=[93ceccd9cc8b2a6709d1b7738e261d82]
cluster <<aggregate>> Warehouse--><g id="cluster_&lt;&lt;aggregate&gt;&gt; Warehouse"><path d="M8.5,6 L197.5,6 A3.75,3.75 0 0 1 200,8.5 L207,29.6094 L1323.5,29.6094 A2.5,2.5 0 0 1 1326,32.1094 L1326,725.5 A2.5,2.5 0 0 1 1323.5,728 L8.5,728 A2.5,2.5 0 0 1 6,725.5 L6,8.5 A2.5,2.5 0 0 1 8.5,6 " style="stroke:#000000;stroke-width:1.5;fill:none;"/><line style="stroke:#000000;stroke-width:1.5;fill:none;" x1="6" x2="207" y1="29.6094" y2="29.6094"/><text fill="#000000" font-family="sans-serif" font-size="14" font-weight="bold" lengthAdjust="spacing" textLength="188" x="10" y="22.5332">&lt;&lt;aggregate&gt;&gt; Warehouse</text></g><!--MD5=[c5149b4909ffd2688ff51a939867f774]
class Warehouse--><g id="elem_Warehouse"><rect codeLine="35" fill="#F5F5DC" height="65.7969" id="Warehouse" rx="2.5" ry="2.5" style="stroke:#181818;stroke-width:0.5;" width="105" x="22" y="325"/><ellipse cx="37" cy="353.8984" fill="#ADD1B2" rx="11" ry="11" style="stroke:#181818;stroke-width:1.0;"/><path d="M35.5,354.8984 L35.5,356.8984 L39.5,356.8984 L39.5,355.8984 L39.5,355.4141 L40.125,354.8984 L40.5,354.8984 L40.875,354.8984 L41.5,355.4141 L41.5,355.8984 L41.5,358.8984 L33.5,358.8984 L33.0156,358.8984 L32.5,358.2734 L32.5,357.8984 L32.5,357.5234 L33.0156,356.8984 L33.5,356.8984 L33.5,356.8984 L33.5,350.8984 L33.5,350.8984 L33.0156,350.8984 L32.5,350.2734 L32.5,349.8984 L32.5,349.5234 L33.0156,348.8984 L33.5,348.8984 L41.5,348.8984 L41.5,351.8984 L41.5,352.3828 L40.875,352.8984 L40.5,352.8984 L40.125,352.8984 L39.5,352.3828 L39.5,351.8984 L39.5,350.8984 L35.5,350.8984 L35.5,352.8984 L36.5,352.8984 L36.5,352.4141 L36.5,352.4141 L37.125,351.8984 L37.5,351.8984 L37.875,351.8984 L38.5,352.4141 L38.5,352.8984 L38.5,354.8984 L38.5,355.3828 L37.875,355.8984 L37.875,355.8984 L37.5,355.8984 L37.125,355.8984 L36.5,355.3828 L36.5,355.3828 L36.5,354.8984 L35.5,354.8984 Z " fill="#000000"/><text fill="#000000" font-family="sans-serif" font-size="12" font-style="italic" lengthAdjust="spacing" textLength="43" x="66" y="342.457">«entity»</text><text fill="#000000" font-family="sans-serif" font-size="12" font-style="italic" lengthAdjust="spacing" textLength="35" x="70" y="357.5508">«root»</text><text fill="#000000" font-family="sans-serif" font-size="14" lengthAdjust="spacing" textLength="73" x="51" y="374.7207">Warehouse</text><line style="stroke:#181818;stroke-width:0.5;" x1="23" x2="126" y1="382.7969" y2="382.7969"/></g><!--MD5=[47d83f15293c58b1530c08457be810b8]
class WarehousePlant--><g id="elem_WarehousePlant"><rect codeLine="23" fill="#F5F5DC" height="138.75" id="WarehousePlant" rx="2.5" ry="2.5" style="stroke:#181818;stroke-width:0.5;" width="137" x="264" y="288.5"/><ellipse cx="279" cy="309.8516" fill="#ADD1B2" rx="11" ry="11" style="stroke:#181818;stroke-width:1.0;"/><path d="M277.5,310.8516 L277.5,312.8516 L281.5,312.8516 L281.5,311.8516 L281.5,311.3672 L282.125,310.8516 L282.5,310.8516 L282.875,310.8516 L283.5,311.3672 L283.5,311.8516 L283.5,314.8516 L275.5,314.8516 L275.0156,314.8516 L274.5,314.2266 L274.5,313.8516 L274.5,313.4766 L275.0156,312.8516 L275.5,312.8516 L275.5,312.8516 L275.5,306.8516 L275.5,306.8516 L275.0156,306.8516 L274.5,306.2266 L274.5,305.8516 L274.5,305.4766 L275.0156,304.8516 L275.5,304.8516 L283.5,304.8516 L283.5,307.8516 L283.5,308.3359 L282.875,308.8516 L282.5,308.8516 L282.125,308.8516 L281.5,308.3359 L281.5,307.8516 L281.5,306.8516 L277.5,306.8516 L277.5,308.8516 L278.5,308.8516 L278.5,308.3672 L278.5,308.3672 L279.125,307.8516 L279.5,307.8516 L279.875,307.8516 L280.5,308.3672 L280.5,308.8516 L280.5,310.8516 L280.5,311.3359 L279.875,311.8516 L279.875,311.8516 L279.5,311.8516 L279.125,311.8516 L278.5,311.3359 L278.5,311.3359 L278.5,310.8516 L277.5,310.8516 Z " fill="#000000"/><text fill="#000000" font-family="sans-serif" font-size="12" font-style="italic" lengthAdjust="spacing" textLength="43" x="324" y="305.957">«entity»</text><text fill="#000000" font-family="sans-serif" font-size="14" lengthAdjust="spacing" textLength="105" x="293" y="323.127">WarehousePlant</text><line style="stroke:#181818;stroke-width:0.5;" x1="265" x2="400" y1="331.2031" y2="331.2031"/><text fill="#000000" font-family="sans-serif" font-size="14" lengthAdjust="spacing" textLength="74" x="270" y="349.7363">-description</text><text fill="#000000" font-family="sans-serif" font-size="14" lengthAdjust="spacing" textLength="44" x="270" y="367.3457">-length</text><text fill="#000000" font-family="sans-serif" font-size="14" lengthAdjust="spacing" textLength="37" x="270" y="384.9551">-width</text><text fill="#000000" font-family="sans-serif" font-size="14" lengthAdjust="spacing" textLength="49" x="270" y="402.5645">-square</text><text fill="#000000" font-family="sans-serif" font-size="14" lengthAdjust="spacing" textLength="28" x="270" y="420.1738">-unit</text></g><!--MD5=[0a2f0ce5c49321e9082933c32b514ce4]
class Aisle--><g id="elem_Aisle"><rect codeLine="49" fill="#F5F5DC" height="68.3125" id="Aisle" rx="2.5" ry="2.5" style="stroke:#181818;stroke-width:0.5;" width="71" x="588" y="447"/><ellipse cx="603" cy="468.3516" fill="#ADD1B2" rx="11" ry="11" style="stroke:#181818;stroke-width:1.0;"/><path d="M601.5,469.3516 L601.5,471.3516 L605.5,471.3516 L605.5,470.3516 L605.5,469.8672 L606.125,469.3516 L606.5,469.3516 L606.875,469.3516 L607.5,469.8672 L607.5,470.3516 L607.5,473.3516 L599.5,473.3516 L599.0156,473.3516 L598.5,472.7266 L598.5,472.3516 L598.5,471.9766 L599.0156,471.3516 L599.5,471.3516 L599.5,471.3516 L599.5,465.3516 L599.5,465.3516 L599.0156,465.3516 L598.5,464.7266 L598.5,464.3516 L598.5,463.9766 L599.0156,463.3516 L599.5,463.3516 L607.5,463.3516 L607.5,466.3516 L607.5,466.8359 L606.875,467.3516 L606.5,467.3516 L606.125,467.3516 L605.5,466.8359 L605.5,466.3516 L605.5,465.3516 L601.5,465.3516 L601.5,467.3516 L602.5,467.3516 L602.5,466.8672 L602.5,466.8672 L603.125,466.3516 L603.5,466.3516 L603.875,466.3516 L604.5,466.8672 L604.5,467.3516 L604.5,469.3516 L604.5,469.8359 L603.875,470.3516 L603.875,470.3516 L603.5,470.3516 L603.125,470.3516 L602.5,469.8359 L602.5,469.8359 L602.5,469.3516 L601.5,469.3516 Z " fill="#000000"/><text fill="#000000" font-family="sans-serif" font-size="12" font-style="italic" lengthAdjust="spacing" textLength="43" x="615" y="464.457">«entity»</text><text fill="#000000" font-family="sans-serif" font-size="14" lengthAdjust="spacing" textLength="30" x="621.5" y="481.627">Aisle</text><line style="stroke:#181818;stroke-width:0.5;" x1="589" x2="658" y1="489.7031" y2="489.7031"/><text fill="#000000" font-family="sans-serif" font-size="14" lengthAdjust="spacing" textLength="16" x="594" y="508.2363">-id</text></g><!--MD5=[736dfa021baaf4f381c9890dd397bfe9]
class Line--><g id="elem_Line"><rect codeLine="73" fill="#F5F5DC" height="68.3125" id="Line" rx="2.5" ry="2.5" style="stroke:#181818;stroke-width:0.5;" width="71" x="806" y="519"/><ellipse cx="821" cy="540.3516" fill="#ADD1B2" rx="11" ry="11" style="stroke:#181818;stroke-width:1.0;"/><path d="M819.5,541.3516 L819.5,543.3516 L823.5,543.3516 L823.5,542.3516 L823.5,541.8672 L824.125,541.3516 L824.5,541.3516 L824.875,541.3516 L825.5,541.8672 L825.5,542.3516 L825.5,545.3516 L817.5,545.3516 L817.0156,545.3516 L816.5,544.7266 L816.5,544.3516 L816.5,543.9766 L817.0156,543.3516 L817.5,543.3516 L817.5,543.3516 L817.5,537.3516 L817.5,537.3516 L817.0156,537.3516 L816.5,536.7266 L816.5,536.3516 L816.5,535.9766 L817.0156,535.3516 L817.5,535.3516 L825.5,535.3516 L825.5,538.3516 L825.5,538.8359 L824.875,539.3516 L824.5,539.3516 L824.125,539.3516 L823.5,538.8359 L823.5,538.3516 L823.5,537.3516 L819.5,537.3516 L819.5,539.3516 L820.5,539.3516 L820.5,538.8672 L820.5,538.8672 L821.125,538.3516 L821.5,538.3516 L821.875,538.3516 L822.5,538.8672 L822.5,539.3516 L822.5,541.3516 L822.5,541.8359 L821.875,542.3516 L821.875,542.3516 L821.5,542.3516 L821.125,542.3516 L820.5,541.8359 L820.5,541.8359 L820.5,541.3516 L819.5,541.3516 Z " fill="#000000"/><text fill="#000000" font-family="sans-serif" font-size="12" font-style="italic" lengthAdjust="spacing" textLength="43" x="833" y="536.457">«entity»</text><text fill="#000000" font-family="sans-serif" font-size="14" lengthAdjust="spacing" textLength="27" x="841" y="553.627">Line</text><line style="stroke:#181818;stroke-width:0.5;" x1="807" x2="876" y1="561.7031" y2="561.7031"/><text fill="#000000" font-family="sans-serif" font-size="14" lengthAdjust="spacing" textLength="16" x="812" y="580.2363">-id</text></g><!--MD5=[6c8d26f6d50c9b5da41494faa6136af8]
class AGVDock--><g id="elem_AGVDock"><rect codeLine="31" fill="#F5F5DC" height="68.3125" id="AGVDock" rx="2.5" ry="2.5" style="stroke:#181818;stroke-width:0.5;" width="93" x="577" y="151"/><ellipse cx="592" cy="172.3516" fill="#ADD1B2" rx="11" ry="11" style="stroke:#181818;stroke-width:1.0;"/><path d="M590.5,173.3516 L590.5,175.3516 L594.5,175.3516 L594.5,174.3516 L594.5,173.8672 L595.125,173.3516 L595.5,173.3516 L595.875,173.3516 L596.5,173.8672 L596.5,174.3516 L596.5,177.3516 L588.5,177.3516 L588.0156,177.3516 L587.5,176.7266 L587.5,176.3516 L587.5,175.9766 L588.0156,175.3516 L588.5,175.3516 L588.5,175.3516 L588.5,169.3516 L588.5,169.3516 L588.0156,169.3516 L587.5,168.7266 L587.5,168.3516 L587.5,167.9766 L588.0156,167.3516 L588.5,167.3516 L596.5,167.3516 L596.5,170.3516 L596.5,170.8359 L595.875,171.3516 L595.5,171.3516 L595.125,171.3516 L594.5,170.8359 L594.5,170.3516 L594.5,169.3516 L590.5,169.3516 L590.5,171.3516 L591.5,171.3516 L591.5,170.8672 L591.5,170.8672 L592.125,170.3516 L592.5,170.3516 L592.875,170.3516 L593.5,170.8672 L593.5,171.3516 L593.5,173.3516 L593.5,173.8359 L592.875,174.3516 L592.875,174.3516 L592.5,174.3516 L592.125,174.3516 L591.5,173.8359 L591.5,173.8359 L591.5,173.3516 L590.5,173.3516 Z " fill="#000000"/><text fill="#000000" font-family="sans-serif" font-size="12" font-style="italic" lengthAdjust="spacing" textLength="43" x="615" y="168.457">«entity»</text><text fill="#000000" font-family="sans-serif" font-size="14" lengthAdjust="spacing" textLength="61" x="606" y="185.627">AGVDock</text><line style="stroke:#181818;stroke-width:0.5;" x1="578" x2="669" y1="193.7031" y2="193.7031"/><text fill="#000000" font-family="sans-serif" font-size="14" lengthAdjust="spacing" textLength="16" x="583" y="212.2363">-id</text></g><!--MD5=[47ccbbcd9e46084c93562a335102da55]
class Shelf--><g id="elem_Shelf"><rect codeLine="40" fill="#F5F5DC" height="85.9219" id="Shelf" rx="2.5" ry="2.5" style="stroke:#181818;stroke-width:0.5;" width="71" x="1015" y="434"/><ellipse cx="1030" cy="455.3516" fill="#ADD1B2" rx="11" ry="11" style="stroke:#181818;stroke-width:1.0;"/><path d="M1028.5,456.3516 L1028.5,458.3516 L1032.5,458.3516 L1032.5,457.3516 L1032.5,456.8672 L1033.125,456.3516 L1033.5,456.3516 L1033.875,456.3516 L1034.5,456.8672 L1034.5,457.3516 L1034.5,460.3516 L1026.5,460.3516 L1026.0156,460.3516 L1025.5,459.7266 L1025.5,459.3516 L1025.5,458.9766 L1026.0156,458.3516 L1026.5,458.3516 L1026.5,458.3516 L1026.5,452.3516 L1026.5,452.3516 L1026.0156,452.3516 L1025.5,451.7266 L1025.5,451.3516 L1025.5,450.9766 L1026.0156,450.3516 L1026.5,450.3516 L1034.5,450.3516 L1034.5,453.3516 L1034.5,453.8359 L1033.875,454.3516 L1033.5,454.3516 L1033.125,454.3516 L1032.5,453.8359 L1032.5,453.3516 L1032.5,452.3516 L1028.5,452.3516 L1028.5,454.3516 L1029.5,454.3516 L1029.5,453.8672 L1029.5,453.8672 L1030.125,453.3516 L1030.5,453.3516 L1030.875,453.3516 L1031.5,453.8672 L1031.5,454.3516 L1031.5,456.3516 L1031.5,456.8359 L1030.875,457.3516 L1030.875,457.3516 L1030.5,457.3516 L1030.125,457.3516 L1029.5,456.8359 L1029.5,456.8359 L1029.5,456.3516 L1028.5,456.3516 Z " fill="#000000"/><text fill="#000000" font-family="sans-serif" font-size="12" font-style="italic" lengthAdjust="spacing" textLength="43" x="1042" y="451.457">«entity»</text><text fill="#000000" font-family="sans-serif" font-size="14" lengthAdjust="spacing" textLength="32" x="1047.5" y="468.627">Shelf</text><line style="stroke:#181818;stroke-width:0.5;" x1="1016" x2="1085" y1="476.7031" y2="476.7031"/><text fill="#000000" font-family="sans-serif" font-size="14" lengthAdjust="spacing" textLength="16" x="1021" y="495.2363">-id</text><text fill="#000000" font-family="sans-serif" font-size="14" lengthAdjust="spacing" textLength="54" x="1021" y="512.8457">-isEmpty</text></g><!--MD5=[055ae584e8f48d8fc3c3de49aadf0637]
class Dashboard--><g id="elem_Dashboard"><rect codeLine="38" fill="#F5F5DC" height="50.7031" id="Dashboard" rx="2.5" ry="2.5" style="stroke:#181818;stroke-width:0.5;" width="109" x="278" y="202.5"/><ellipse cx="293" cy="223.8516" fill="#FF8B40" rx="11" ry="11" style="stroke:#A80036;stroke-width:1.0;"/><path d="M293,227.1328 L294.5313,221.6016 L294.5313,221.6016 L294.0156,221.6016 L293.5,220.9766 L293.5,220.6016 L293.5,220.2266 L294.0156,219.6016 L294.5313,219.6016 L296.4063,219.6016 L296.9844,219.6016 L297.5,220.2266 L297.5,220.6016 L297.5,220.9766 L296.9844,221.6016 L296.9844,221.6016 L296.5313,221.6016 L294.1875,229.6016 L291.8125,229.6016 L289.3438,221.6016 L289.0156,221.6016 L289.0156,221.6016 L288.5,220.9766 L288.5,220.6016 L288.5,220.2266 L289.0156,219.6016 L289.5938,219.6016 L291.4688,219.6016 L291.9844,219.6016 L292.5,220.2266 L292.5,220.6016 L292.5,220.9766 L291.9844,221.6016 L291.4688,221.6016 L291.4688,221.6016 L293,227.1328 Z " fill="#000000"/><text fill="#000000" font-family="sans-serif" font-size="12" font-style="italic" lengthAdjust="spacing" textLength="81" x="305" y="219.957">«value object»</text><text fill="#000000" font-family="sans-serif" font-size="14" lengthAdjust="spacing" textLength="70" x="310.5" y="237.127">Dashboard</text><line style="stroke:#181818;stroke-width:0.5;" x1="279" x2="386" y1="245.2031" y2="245.2031"/></g><!--MD5=[2038ae133c03a210330ad60522e564cb]
class Bin--><g id="elem_Bin"><rect codeLine="45" fill="#F5F5DC" height="68.3125" id="Bin" rx="2.5" ry="2.5" style="stroke:#181818;stroke-width:0.5;" width="71" x="1220" y="443"/><ellipse cx="1235" cy="464.3516" fill="#ADD1B2" rx="11" ry="11" style="stroke:#181818;stroke-width:1.0;"/><path d="M1233.5,465.3516 L1233.5,467.3516 L1237.5,467.3516 L1237.5,466.3516 L1237.5,465.8672 L1238.125,465.3516 L1238.5,465.3516 L1238.875,465.3516 L1239.5,465.8672 L1239.5,466.3516 L1239.5,469.3516 L1231.5,469.3516 L1231.0156,469.3516 L1230.5,468.7266 L1230.5,468.3516 L1230.5,467.9766 L1231.0156,467.3516 L1231.5,467.3516 L1231.5,467.3516 L1231.5,461.3516 L1231.5,461.3516 L1231.0156,461.3516 L1230.5,460.7266 L1230.5,460.3516 L1230.5,459.9766 L1231.0156,459.3516 L1231.5,459.3516 L1239.5,459.3516 L1239.5,462.3516 L1239.5,462.8359 L1238.875,463.3516 L1238.5,463.3516 L1238.125,463.3516 L1237.5,462.8359 L1237.5,462.3516 L1237.5,461.3516 L1233.5,461.3516 L1233.5,463.3516 L1234.5,463.3516 L1234.5,462.8672 L1234.5,462.8672 L1235.125,462.3516 L1235.5,462.3516 L1235.875,462.3516 L1236.5,462.8672 L1236.5,463.3516 L1236.5,465.3516 L1236.5,465.8359 L1235.875,466.3516 L1235.875,466.3516 L1235.5,466.3516 L1235.125,466.3516 L1234.5,465.8359 L1234.5,465.8359 L1234.5,465.3516 L1233.5,465.3516 Z " fill="#000000"/><text fill="#000000" font-family="sans-serif" font-size="12" font-style="italic" lengthAdjust="spacing" textLength="43" x="1247" y="460.457">«entity»</text><text fill="#000000" font-family="sans-serif" font-size="14" lengthAdjust="spacing" textLength="20" x="1258.5" y="477.627">Bin</text><line style="stroke:#181818;stroke-width:0.5;" x1="1221" x2="1290" y1="485.7031" y2="485.7031"/><text fill="#000000" font-family="sans-serif" font-size="14" lengthAdjust="spacing" textLength="16" x="1226" y="504.2363">-id</text></g><!--MD5=[47ef0dfe59fd373997f8a6206ed8b282]
class Begin--><g id="elem_Begin"><rect codeLine="54" fill="#F5F5DC" height="85.9219" id="Begin" rx="2.5" ry="2.5" style="stroke:#181818;stroke-width:0.5;" width="109" x="996" y="555"/><ellipse cx="1011" cy="576.3516" fill="#FF8B40" rx="11" ry="11" style="stroke:#A80036;stroke-width:1.0;"/><path d="M1011,579.6328 L1012.5313,574.1016 L1012.5313,574.1016 L1012.0156,574.1016 L1011.5,573.4766 L1011.5,573.1016 L1011.5,572.7266 L1012.0156,572.1016 L1012.5313,572.1016 L1014.4063,572.1016 L1014.9844,572.1016 L1015.5,572.7266 L1015.5,573.1016 L1015.5,573.4766 L1014.9844,574.1016 L1014.9844,574.1016 L1014.5313,574.1016 L1012.1875,582.1016 L1009.8125,582.1016 L1007.3438,574.1016 L1007.0156,574.1016 L1007.0156,574.1016 L1006.5,573.4766 L1006.5,573.1016 L1006.5,572.7266 L1007.0156,572.1016 L1007.5938,572.1016 L1009.4688,572.1016 L1009.9844,572.1016 L1010.5,572.7266 L1010.5,573.1016 L1010.5,573.4766 L1009.9844,574.1016 L1009.4688,574.1016 L1009.4688,574.1016 L1011,579.6328 Z " fill="#000000"/><text fill="#000000" font-family="sans-serif" font-size="12" font-style="italic" lengthAdjust="spacing" textLength="81" x="1023" y="572.457">«value object»</text><text fill="#000000" font-family="sans-serif" font-size="14" lengthAdjust="spacing" textLength="36" x="1045.5" y="589.627">Begin</text><line style="stroke:#181818;stroke-width:0.5;" x1="997" x2="1104" y1="597.7031" y2="597.7031"/><text fill="#000000" font-family="sans-serif" font-size="14" lengthAdjust="spacing" textLength="52" x="1002" y="616.2363">-lsquare</text><text fill="#000000" font-family="sans-serif" font-size="14" lengthAdjust="spacing" textLength="58" x="1002" y="633.8457">-wsquare</text></g><!--MD5=[b5cffc0c85435f5848b9ffcad0969c85]
class End--><g id="elem_End"><rect codeLine="59" fill="#F5F5DC" height="85.9219" id="End" rx="2.5" ry="2.5" style="stroke:#181818;stroke-width:0.5;" width="109" x="996" y="313"/><ellipse cx="1011" cy="334.3516" fill="#FF8B40" rx="11" ry="11" style="stroke:#A80036;stroke-width:1.0;"/><path d="M1011,337.6328 L1012.5313,332.1016 L1012.5313,332.1016 L1012.0156,332.1016 L1011.5,331.4766 L1011.5,331.1016 L1011.5,330.7266 L1012.0156,330.1016 L1012.5313,330.1016 L1014.4063,330.1016 L1014.9844,330.1016 L1015.5,330.7266 L1015.5,331.1016 L1015.5,331.4766 L1014.9844,332.1016 L1014.9844,332.1016 L1014.5313,332.1016 L1012.1875,340.1016 L1009.8125,340.1016 L1007.3438,332.1016 L1007.0156,332.1016 L1007.0156,332.1016 L1006.5,331.4766 L1006.5,331.1016 L1006.5,330.7266 L1007.0156,330.1016 L1007.5938,330.1016 L1009.4688,330.1016 L1009.9844,330.1016 L1010.5,330.7266 L1010.5,331.1016 L1010.5,331.4766 L1009.9844,332.1016 L1009.4688,332.1016 L1009.4688,332.1016 L1011,337.6328 Z " fill="#000000"/><text fill="#000000" font-family="sans-serif" font-size="12" font-style="italic" lengthAdjust="spacing" textLength="81" x="1023" y="330.457">«value object»</text><text fill="#000000" font-family="sans-serif" font-size="14" lengthAdjust="spacing" textLength="25" x="1051" y="347.627">End</text><line style="stroke:#181818;stroke-width:0.5;" x1="997" x2="1104" y1="355.7031" y2="355.7031"/><text fill="#000000" font-family="sans-serif" font-size="14" lengthAdjust="spacing" textLength="52" x="1002" y="374.2363">-lsquare</text><text fill="#000000" font-family="sans-serif" font-size="14" lengthAdjust="spacing" textLength="58" x="1002" y="391.8457">-wsquare</text></g><!--MD5=[cfd0138e5346ce60abb87771726e7b9e]
class Depth--><g id="elem_Depth"><rect codeLine="64" fill="#F5F5DC" height="85.9219" id="Depth" rx="2.5" ry="2.5" style="stroke:#181818;stroke-width:0.5;" width="109" x="1201" y="205"/><ellipse cx="1216" cy="226.3516" fill="#FF8B40" rx="11" ry="11" style="stroke:#A80036;stroke-width:1.0;"/><path d="M1216,229.6328 L1217.5313,224.1016 L1217.5313,224.1016 L1217.0156,224.1016 L1216.5,223.4766 L1216.5,223.1016 L1216.5,222.7266 L1217.0156,222.1016 L1217.5313,222.1016 L1219.4063,222.1016 L1219.9844,222.1016 L1220.5,222.7266 L1220.5,223.1016 L1220.5,223.4766 L1219.9844,224.1016 L1219.9844,224.1016 L1219.5313,224.1016 L1217.1875,232.1016 L1214.8125,232.1016 L1212.3438,224.1016 L1212.0156,224.1016 L1212.0156,224.1016 L1211.5,223.4766 L1211.5,223.1016 L1211.5,222.7266 L1212.0156,222.1016 L1212.5938,222.1016 L1214.4688,222.1016 L1214.9844,222.1016 L1215.5,222.7266 L1215.5,223.1016 L1215.5,223.4766 L1214.9844,224.1016 L1214.4688,224.1016 L1214.4688,224.1016 L1216,229.6328 Z " fill="#000000"/><text fill="#000000" font-family="sans-serif" font-size="12" font-style="italic" lengthAdjust="spacing" textLength="81" x="1228" y="222.457">«value object»</text><text fill="#000000" font-family="sans-serif" font-size="14" lengthAdjust="spacing" textLength="38" x="1249.5" y="239.627">Depth</text><line style="stroke:#181818;stroke-width:0.5;" x1="1202" x2="1309" y1="247.7031" y2="247.7031"/><text fill="#000000" font-family="sans-serif" font-size="14" lengthAdjust="spacing" textLength="52" x="1207" y="266.2363">-lsquare</text><text fill="#000000" font-family="sans-serif" font-size="14" lengthAdjust="spacing" textLength="58" x="1207" y="283.8457">-wsquare</text></g><!--MD5=[7620fae2775ebf09e1a63cf069b3747d]
class Accessibility--><g id="elem_Accessibility"><rect codeLine="69" fill="#F5F5DC" height="68.3125" id="Accessibility" rx="2.5" ry="2.5" style="stroke:#181818;stroke-width:0.5;" width="109" x="996" y="188"/><ellipse cx="1011" cy="209.3516" fill="#FF8B40" rx="11" ry="11" style="stroke:#A80036;stroke-width:1.0;"/><path d="M1011,212.6328 L1012.5313,207.1016 L1012.5313,207.1016 L1012.0156,207.1016 L1011.5,206.4766 L1011.5,206.1016 L1011.5,205.7266 L1012.0156,205.1016 L1012.5313,205.1016 L1014.4063,205.1016 L1014.9844,205.1016 L1015.5,205.7266 L1015.5,206.1016 L1015.5,206.4766 L1014.9844,207.1016 L1014.9844,207.1016 L1014.5313,207.1016 L1012.1875,215.1016 L1009.8125,215.1016 L1007.3438,207.1016 L1007.0156,207.1016 L1007.0156,207.1016 L1006.5,206.4766 L1006.5,206.1016 L1006.5,205.7266 L1007.0156,205.1016 L1007.5938,205.1016 L1009.4688,205.1016 L1009.9844,205.1016 L1010.5,205.7266 L1010.5,206.1016 L1010.5,206.4766 L1009.9844,207.1016 L1009.4688,207.1016 L1009.4688,207.1016 L1011,212.6328 Z " fill="#000000"/><text fill="#000000" font-family="sans-serif" font-size="12" font-style="italic" lengthAdjust="spacing" textLength="81" x="1023" y="205.457">«value object»</text><text fill="#000000" font-family="sans-serif" font-size="14" lengthAdjust="spacing" textLength="76" x="1025.5" y="222.627">Accessibility</text><line style="stroke:#181818;stroke-width:0.5;" x1="997" x2="1104" y1="230.7031" y2="230.7031"/><text fill="#000000" font-family="sans-serif" font-size="14" lengthAdjust="spacing" textLength="41" x="1002" y="249.2363">-rating</text></g><!--MD5=[8e30de69f95fb92b10aa949696d889b2]
link Warehouse to Aisle--><g id="link_Warehouse_Aisle"><path codeLine="78" d="M120.88,391.15 C157.51,415.9 211.43,447.93 264,463 C375.95,495.09 515.5,489.92 582.69,484.79 " fill="none" id="Warehouse-to-Aisle" style="stroke:#222222;stroke-width:1.0;"/><polygon fill="#222222" points="587.8,484.39,578.5089,481.1226,582.816,484.7899,579.1487,489.0969,587.8,484.39" style="stroke:#222222;stroke-width:1.0;"/><text fill="#000000" font-family="sans-serif" font-size="13" lengthAdjust="spacing" textLength="49" x="308" y="459.4951">contains</text><text fill="#000000" font-family="sans-serif" font-size="13" lengthAdjust="spacing" textLength="20" x="559.9453" y="499.8461">1..*</text></g><!--MD5=[c7238d102bf0f753552f0754856ab6c3]
link Warehouse to Dashboard--><g id="link_Warehouse_Dashboard"><path codeLine="80" d="M127.31,331.69 C170.67,309.67 232.38,278.34 276.59,255.88 " fill="none" id="Warehouse-to-Dashboard" style="stroke:#222222;stroke-width:1.0;"/><polygon fill="#222222" points="281.08,253.6,271.2437,254.0975,276.6194,255.8589,274.858,261.2346,281.08,253.6" style="stroke:#222222;stroke-width:1.0;"/><text fill="#000000" font-family="sans-serif" font-size="13" lengthAdjust="spacing" textLength="75" x="158" y="274.4951">monitored by</text><text fill="#000000" font-family="sans-serif" font-size="13" lengthAdjust="spacing" textLength="7" x="262.7528" y="274.092">1</text></g><!--MD5=[7bf2f443fe1a8f00427e2f400263ca32]
link Warehouse to WarehousePlant--><g id="link_Warehouse_WarehousePlant"><path codeLine="82" d="M127.31,358 C165.07,358 216.75,358 258.67,358 " fill="none" id="Warehouse-to-WarehousePlant" style="stroke:#222222;stroke-width:1.0;"/><polygon fill="#222222" points="263.73,358,254.73,354,258.73,358,254.73,362,263.73,358" style="stroke:#222222;stroke-width:1.0;"/><text fill="#000000" font-family="sans-serif" font-size="13" lengthAdjust="spacing" textLength="47" x="172" y="354.4951">provides</text><text fill="#000000" font-family="sans-serif" font-size="13" lengthAdjust="spacing" textLength="20" x="235.9761" y="372.3122">1..*</text></g><!--MD5=[a33fbdbd9b967946d76bebe54b756481]
link WarehousePlant to Aisle--><g id="link_WarehousePlant_Aisle"><path codeLine="84" d="M401.26,386.84 C457.87,410.93 536.63,444.45 583.31,464.32 " fill="none" id="WarehousePlant-to-Aisle" style="stroke:#222222;stroke-width:1.0;"/><polygon fill="#222222" points="588,466.32,581.2844,459.1158,583.3991,464.3625,578.1524,466.4772,588,466.32" style="stroke:#222222;stroke-width:1.0;"/><text fill="#000000" font-family="sans-serif" font-size="13" lengthAdjust="spacing" textLength="114" x="432" y="398.4951">provides information</text><text fill="#000000" font-family="sans-serif" font-size="13" lengthAdjust="spacing" textLength="20" x="559.8953" y="478.6287">1..*</text></g><!--MD5=[1ed9b8dac11cdd2f7990b954d759f3f4]
link WarehousePlant to AGVDock--><g id="link_WarehousePlant_AGVDock"><path codeLine="86" d="M401.26,317.44 C453.62,286.09 524.93,243.41 572.28,215.06 " fill="none" id="WarehousePlant-to-AGVDock" style="stroke:#222222;stroke-width:1.0;"/><polygon fill="#222222" points="576.78,212.37,567.0028,213.5561,572.4888,214.9362,571.1087,220.4221,576.78,212.37" style="stroke:#222222;stroke-width:1.0;"/><text fill="#000000" font-family="sans-serif" font-size="13" lengthAdjust="spacing" textLength="114" x="432" y="228.4951">provides information</text><text fill="#000000" font-family="sans-serif" font-size="13" lengthAdjust="spacing" textLength="20" x="549.1583" y="230.6206">1..*</text></g><!--MD5=[673a238763c37abde37dfa383ec61e9f]
link Aisle to Line--><g id="link_Aisle_Line"><path codeLine="88" d="M659.2,492.57 C697.94,505.48 760.49,526.33 801.05,539.85 " fill="none" id="Aisle-to-Line" style="stroke:#222222;stroke-width:1.0;"/><polygon fill="#222222" points="805.88,541.46,798.5948,534.8324,801.1337,539.8874,796.0787,542.4264,805.88,541.46" style="stroke:#222222;stroke-width:1.0;"/><text fill="#000000" font-family="sans-serif" font-size="13" lengthAdjust="spacing" textLength="74" x="701" y="503.4951">organized by</text><text fill="#000000" font-family="sans-serif" font-size="13" lengthAdjust="spacing" textLength="20" x="778.0391" y="554.35">1..*</text></g><!--MD5=[aa56d6553f01f4e0334290b5ed5c5b56]
link Aisle to Begin--><g id="link_Aisle_Begin"><path codeLine="90" d="M654.9,515.27 C688.06,549.83 744.66,600.97 806,622 C866.61,642.77 940.32,630.74 990.66,617.35 " fill="none" id="Aisle-to-Begin" style="stroke:#222222;stroke-width:1.0;"/><polygon fill="#222222" points="995.76,615.96,986.0254,614.4641,990.9355,617.2732,988.1265,622.1833,995.76,615.96" style="stroke:#222222;stroke-width:1.0;"/><text fill="#000000" font-family="sans-serif" font-size="13" lengthAdjust="spacing" textLength="56" x="813.5" y="618.4951">located in</text><text fill="#000000" font-family="sans-serif" font-size="13" lengthAdjust="spacing" textLength="7" x="980.934" y="632.9724">1</text></g><!--MD5=[cf1a9f94a03f61cb570fbaacb8fdae56]
link Aisle to End--><g id="link_Aisle_End"><path codeLine="91" d="M659.2,474.45 C708.24,464.84 800.39,445.49 877,422 C915.57,410.18 957.89,394.03 990.96,380.67 " fill="none" id="Aisle-to-End" style="stroke:#222222;stroke-width:1.0;"/><polygon fill="#222222" points="995.77,378.72,985.926,378.4113,991.1395,380.6065,988.9444,385.82,995.77,378.72" style="stroke:#222222;stroke-width:1.0;"/><text fill="#000000" font-family="sans-serif" font-size="13" lengthAdjust="spacing" textLength="56" x="813.5" y="418.4951">located in</text><text fill="#000000" font-family="sans-serif" font-size="13" lengthAdjust="spacing" textLength="7" x="980.9453" y="396.372">1</text></g><!--MD5=[2e67177fef6f497fb9de9cdd0f28a5ed]
link Aisle to Depth--><g id="link_Aisle_Depth"><path codeLine="92" d="M634.58,515.11 C645.59,546.35 666.3,591.5 700,617 C844.27,726.18 956.37,761.16 1105,658 C1136.02,636.47 1209.37,399.88 1240.33,296.2 " fill="none" id="Aisle-to-Depth" style="stroke:#222222;stroke-width:1.0;"/><polygon fill="#222222" points="1241.77,291.37,1235.3689,298.8551,1240.3437,296.1623,1243.0365,301.1371,1241.77,291.37" style="stroke:#222222;stroke-width:1.0;"/><text fill="#000000" font-family="sans-serif" font-size="13" lengthAdjust="spacing" textLength="56" x="908.5" y="713.4951">located in</text><text fill="#000000" font-family="sans-serif" font-size="13" lengthAdjust="spacing" textLength="7" x="1232.2393" y="312.4416">1</text></g><!--MD5=[8fdfc9eb3c76268eec557d601d1ef891]
link Aisle to Accessibility--><g id="link_Aisle_Accessibility"><path codeLine="93" d="M659.28,459.8 C732.19,415.37 901.71,312.06 991.42,257.39 " fill="none" id="Aisle-to-Accessibility" style="stroke:#222222;stroke-width:1.0;"/><polygon fill="#222222" points="995.9,254.67,986.1324,255.9327,991.629,257.2697,990.292,262.7663,995.9,254.67" style="stroke:#222222;stroke-width:1.0;"/><text fill="#000000" font-family="sans-serif" font-size="13" lengthAdjust="spacing" textLength="63" x="810" y="327.4951">associated</text><text fill="#000000" font-family="sans-serif" font-size="13" lengthAdjust="spacing" textLength="7" x="981.0928" y="273.6328">1</text></g><!--MD5=[9445cde660977f02720b9086df6902e0]
link Line to Shelf--><g id="link_Line_Shelf"><path codeLine="95" d="M877.13,552.19 C902.51,550.6 937.38,546.3 966,535 C981.62,528.83 997.17,519.24 1010.54,509.61 " fill="none" id="Line-to-Shelf" style="stroke:#222222;stroke-width:1.0;"/><polygon fill="#222222" points="1014.61,506.63,1004.9843,508.7148,1010.5744,509.5819,1009.7073,515.1719,1014.61,506.63" style="stroke:#222222;stroke-width:1.0;"/><text fill="#000000" font-family="sans-serif" font-size="13" lengthAdjust="spacing" textLength="57" x="908" y="531.4951">divided by</text><text fill="#000000" font-family="sans-serif" font-size="13" lengthAdjust="spacing" textLength="20" x="987.0095" y="526.3932">1..*</text></g><!--MD5=[4f7459e6b77939cf165a33c9091787c0]
link Line to Begin--><g id="link_Line_Begin"><path codeLine="97" d="M877.21,580.58 C886.4,586.43 896.66,591.81 907,595 C933.71,603.24 964.6,604.79 990.77,603.95 " fill="none" id="Line-to-Begin" style="stroke:#222222;stroke-width:1.0;"/><polygon fill="#222222" points="995.94,603.75,986.7973,600.0878,990.9435,603.9361,987.0951,608.0822,995.94,603.75" style="stroke:#222222;stroke-width:1.0;"/><text fill="#000000" font-family="sans-serif" font-size="13" lengthAdjust="spacing" textLength="56" x="908.5" y="591.4951">located in</text><text fill="#000000" font-family="sans-serif" font-size="13" lengthAdjust="spacing" textLength="20" x="968.0718" y="600.9971">1..*</text></g><!--MD5=[6ebeefaaac782b47d6dac635353b7cb6]
link Line to End--><g id="link_Line_End"><path codeLine="99" d="M877.07,531.52 C913.45,508.91 965.56,476.49 966,476 C986.07,453.95 979.27,440.68 996,416 C998.88,411.76 1002.03,407.49 1005.33,403.3 " fill="none" id="Line-to-End" style="stroke:#222222;stroke-width:1.0;"/><polygon fill="#222222" points="1008.66,399.15,999.9082,403.6673,1005.5313,403.0502,1006.1485,408.6732,1008.66,399.15" style="stroke:#222222;stroke-width:1.0;"/><text fill="#000000" font-family="sans-serif" font-size="13" lengthAdjust="spacing" textLength="56" x="908.5" y="472.4951">located in</text><text fill="#000000" font-family="sans-serif" font-size="13" lengthAdjust="spacing" textLength="20" x="980.722" y="420.5104">1..*</text></g><!--MD5=[bdd2bde3c2c3f6dad005220f9172dbd8]
link Shelf to Bin--><g id="link_Shelf_Bin"><path codeLine="101" d="M1086.4,477 C1121.94,477 1177.01,477 1214.34,477 " fill="none" id="Shelf-to-Bin" style="stroke:#222222;stroke-width:1.0;"/><polygon fill="#222222" points="1219.72,477,1210.72,473,1214.72,477,1210.72,481,1219.72,477" style="stroke:#222222;stroke-width:1.0;"/><text fill="#000000" font-family="sans-serif" font-size="13" lengthAdjust="spacing" textLength="34" x="1136" y="473.4951">define</text><text fill="#000000" font-family="sans-serif" font-size="13" lengthAdjust="spacing" textLength="20" x="1192.1377" y="491.8234">1..*</text></g><!--MD5=[53bf01b367a12cc55430d452de44b76d]
link AGVDock to Begin--><g id="link_AGVDock_Begin"><path codeLine="103" d="M670.46,181.61 C725.64,180.06 818.08,185.78 877,234 C957.35,299.76 929.28,352.88 966,450 C980.46,488.26 975.46,501.63 996,537 C998.71,541.66 1001.8,546.3 1005.11,550.8 " fill="none" id="AGVDock-to-Begin" style="stroke:#222222;stroke-width:1.0;"/><polygon fill="#222222" points="1008.2,554.9,1005.9835,545.3038,1005.1931,550.9052,999.5918,550.1148,1008.2,554.9" style="stroke:#222222;stroke-width:1.0;"/><text fill="#000000" font-family="sans-serif" font-size="13" lengthAdjust="spacing" textLength="56" x="813.5" y="195.4951">located in</text><text fill="#000000" font-family="sans-serif" font-size="13" lengthAdjust="spacing" textLength="7" x="993.9006" y="544.2853">1</text></g><!--MD5=[d310e9bf012265a1e4dd7280ba2c6eb0]
link AGVDock to End--><g id="link_AGVDock_End"><path codeLine="104" d="M670.39,203.46 C748.12,234.74 905.56,298.09 991.06,332.49 " fill="none" id="AGVDock-to-End" style="stroke:#222222;stroke-width:1.0;"/><polygon fill="#222222" points="995.83,334.41,988.9856,327.3281,991.1946,332.5358,985.9868,334.7448,995.83,334.41" style="stroke:#222222;stroke-width:1.0;"/><text fill="#000000" font-family="sans-serif" font-size="13" lengthAdjust="spacing" textLength="56" x="813.5" y="256.4951">located in</text><text fill="#000000" font-family="sans-serif" font-size="13" lengthAdjust="spacing" textLength="7" x="981.0134" y="346.1078">1</text></g><!--MD5=[e812ed56d8f3eeb3804cea16c5ecf4f7]
link AGVDock to Depth--><g id="link_AGVDock_Depth"><path codeLine="105" d="M670.06,175.56 C756.4,159.43 949.16,131.79 1105,170 C1136.98,177.84 1169.73,193.85 1196.39,209.34 " fill="none" id="AGVDock-to-Depth" style="stroke:#222222;stroke-width:1.0;"/><polygon fill="#222222" points="1200.95,212.02,1195.2079,204.0182,1196.6363,209.4918,1191.1627,210.9201,1200.95,212.02" style="stroke:#222222;stroke-width:1.0;"/><text fill="#000000" font-family="sans-serif" font-size="13" lengthAdjust="spacing" textLength="56" x="908.5" y="147.4951">located in</text><text fill="#000000" font-family="sans-serif" font-size="13" lengthAdjust="spacing" textLength="7" x="1186.1495" y="221.7842">1</text></g><!--MD5=[0e4825c31183382a9d2f9c526d983221]
link AGVDock to Accessibility--><g id="link_AGVDock_Accessibility"><path codeLine="106" d="M656.47,150.87 C668.93,139.72 684.04,128.53 700,122 C809.63,77.11 860.68,50.77 966,105 C997.67,121.31 1019.98,155.8 1033.53,183.14 " fill="none" id="AGVDock-to-Accessibility" style="stroke:#222222;stroke-width:1.0;"/><polygon fill="#222222" points="1035.79,187.8,1035.4559,177.9568,1033.6055,183.3025,1028.2598,181.452,1035.79,187.8" style="stroke:#222222;stroke-width:1.0;"/><text fill="#000000" font-family="sans-serif" font-size="13" lengthAdjust="spacing" textLength="63" x="810" y="71.4951">associated</text><text fill="#000000" font-family="sans-serif" font-size="13" lengthAdjust="spacing" textLength="7" x="1025.3187" y="177.2545">1</text></g><!--MD5=[ded23f9913eeba404c45d5530268dd35]
@startuml

hide methods
left to right direction
skinparam classAttributeIconSize 0
skinparam classBackgroundColor beige
skinparam ArrowColor #222222

package "<<aggregate>> Warehouse" {
    entity Warehouse
    entity WarehousePlant
    entity Aisle
    entity Line
    entity AGVDock
    entity Shelf
    class Dashboard
    entity Bin
    class Begin
    class End
    class Depth
    class Accessibility
}

entity WarehousePlant <<entity>> {
    -description
    -length
    -width
    -square
    -unit
}

entity AGVDock <<entity>> {
    -id
}

entity Warehouse <<entity>> <<root>> {
}

class Dashboard <<(V,#FF8B40) value object>>{}

entity Shelf <<entity>>{
    -id
    -isEmpty
}

entity Bin <<entity>>{
    -id
}

entity Aisle <<entity>>{
    -id
}


class Begin <<(V,#FF8B40) value object>>{
    -lsquare
    -wsquare
}

class End <<(V,#FF8B40) value object>>{
    -lsquare
    -wsquare
}

class Depth <<(V,#FF8B40) value object>>{
    -lsquare
    -wsquare
}

class Accessibility <<(V,#FF8B40) value object>>{
    -rating
}

entity Line <<entity>>{
    -id

}

Warehouse - -> "1..*" Aisle : contains

Warehouse - -> "1" Dashboard : monitored by

Warehouse - -> "1..*" WarehousePlant : provides

WarehousePlant - -> "1..*" Aisle : provides information

WarehousePlant - -> "1..*" AGVDock : provides information

Aisle - -> "1..*" Line : organized by

Aisle - -> "1" Begin : located in
Aisle - -> "1" End : located in
Aisle - - - -> "1" Depth : located in
Aisle - -> "1" Accessibility : associated

Line - -> "1..*" Shelf : divided by

Line - -> "1..*" Begin : located in

Line - -> "1..*" End : located in

Shelf - -> "1..*" Bin : define

AGVDock - - -> "1" Begin : located in
AGVDock - - -> "1" End : located in
AGVDock - - -> "1" Depth : located in
AGVDock - - -> "1" Accessibility : associated

@enduml

PlantUML version 1.2022.4(Sat Apr 09 14:29:17 BST 2022)
(GPL source distribution)
Java Runtime: OpenJDK Runtime Environment
JVM: OpenJDK 64-Bit Server VM
Default Encoding: Cp1252
Language: pt
Country: PT
--></g></svg>