<?xml version="1.0" encoding="UTF-8" standalone="no"?><svg xmlns="http://www.w3.org/2000/svg" xmlns:xlink="http://www.w3.org/1999/xlink" contentStyleType="text/css" height="880px" preserveAspectRatio="none" style="width:1695px;height:880px;background:#FFFFFF;" version="1.1" viewBox="0 0 1695 880" width="1695px" zoomAndPan="magnify"><defs/><g><rect fill="#FFFFFF" height="677.9766" style="stroke:#181818;stroke-width:1.0;" width="10" x="72.5" y="96.2188"/><rect fill="#FFFFFF" height="60.7031" style="stroke:#181818;stroke-width:1.0;" width="10" x="470.5" y="118.5703"/><rect fill="#FFFFFF" height="555.5703" style="stroke:#181818;stroke-width:1.0;" width="10" x="470.5" y="209.625"/><rect fill="#FFFFFF" height="525.2188" style="stroke:#181818;stroke-width:1.0;" width="10" x="678.5" y="239.9766"/><rect fill="#FFFFFF" height="457.5156" style="stroke:#181818;stroke-width:1.0;" width="10" x="852.5" y="270.3281"/><rect fill="#FFFFFF" height="30" style="stroke:#181818;stroke-width:1.0;" width="10" x="857.5" y="300.6797"/><rect fill="#FFFFFF" height="96.0547" style="stroke:#181818;stroke-width:1.0;" width="10" x="857.5" y="369.0313"/><rect fill="#FFFFFF" height="71.3516" style="stroke:#181818;stroke-width:1.0;" width="10" x="857.5" y="539.7891"/><rect fill="#FFFFFF" height="28" style="stroke:#181818;stroke-width:1.0;" width="10" x="862.5" y="583.1406"/><rect fill="#FFFFFF" height="71.3516" style="stroke:#181818;stroke-width:1.0;" width="10" x="857.5" y="656.4922"/><rect fill="#FFFFFF" height="28" style="stroke:#181818;stroke-width:1.0;" width="10" x="862.5" y="699.8438"/><rect fill="#FFFFFF" height="30.3516" style="stroke:#181818;stroke-width:1.0;" width="10" x="1217.5" y="434.7344"/><line style="stroke:#181818;stroke-width:0.5;stroke-dasharray:5.0,5.0;" x1="77" x2="77" y1="86.2188" y2="783.1953"/><line style="stroke:#181818;stroke-width:0.5;stroke-dasharray:5.0,5.0;" x1="475" x2="475" y1="86.2188" y2="783.1953"/><line style="stroke:#181818;stroke-width:0.5;stroke-dasharray:5.0,5.0;" x1="683.5" x2="683.5" y1="86.2188" y2="783.1953"/><line style="stroke:#181818;stroke-width:0.5;stroke-dasharray:5.0,5.0;" x1="857" x2="857" y1="86.2188" y2="783.1953"/><line style="stroke:#181818;stroke-width:0.5;stroke-dasharray:5.0,5.0;" x1="1079.5" x2="1079.5" y1="86.2188" y2="783.1953"/><line style="stroke:#181818;stroke-width:0.5;stroke-dasharray:5.0,5.0;" x1="1222.5" x2="1222.5" y1="86.2188" y2="783.1953"/><line style="stroke:#181818;stroke-width:0.5;stroke-dasharray:5.0,5.0;" x1="1370.5" x2="1370.5" y1="86.2188" y2="783.1953"/><text fill="#000000" font-family="sans-serif" font-size="14" lengthAdjust="spacing" textLength="139" x="5" y="83.1426">Warehouse Employee</text><ellipse cx="77.5" cy="17.1094" fill="#E2E2F0" rx="8" ry="8" style="stroke:#181818;stroke-width:0.5;"/><path d="M77.5,25.1094 L77.5,52.1094 M64.5,33.1094 L90.5,33.1094 M77.5,52.1094 L64.5,67.1094 M77.5,52.1094 L90.5,67.1094 " fill="none" style="stroke:#181818;stroke-width:0.5;"/><text fill="#000000" font-family="sans-serif" font-size="14" lengthAdjust="spacing" textLength="139" x="5" y="796.7285">Warehouse Employee</text><ellipse cx="77.5" cy="808.3047" fill="#E2E2F0" rx="8" ry="8" style="stroke:#181818;stroke-width:0.5;"/><path d="M77.5,816.3047 L77.5,843.3047 M64.5,824.3047 L90.5,824.3047 M77.5,843.3047 L64.5,858.3047 M77.5,843.3047 L90.5,858.3047 " fill="none" style="stroke:#181818;stroke-width:0.5;"/><rect fill="#E2E2F0" height="49.2188" rx="2.5" ry="2.5" style="stroke:#181818;stroke-width:0.5;" width="109" x="421" y="36"/><text fill="#000000" font-family="sans-serif" font-size="14" font-style="italic" lengthAdjust="spacing" textLength="95" x="428" y="57.5332">«presentation»</text><text fill="#000000" font-family="sans-serif" font-size="14" lengthAdjust="spacing" textLength="80" x="435.5" y="75.1426">ImportJsonUI</text><rect fill="#E2E2F0" height="49.2188" rx="2.5" ry="2.5" style="stroke:#181818;stroke-width:0.5;" width="109" x="421" y="782.1953"/><text fill="#000000" font-family="sans-serif" font-size="14" font-style="italic" lengthAdjust="spacing" textLength="95" x="428" y="803.7285">«presentation»</text><text fill="#000000" font-family="sans-serif" font-size="14" lengthAdjust="spacing" textLength="80" x="435.5" y="821.3379">ImportJsonUI</text><rect fill="#E2E2F0" height="49.2188" rx="2.5" ry="2.5" style="stroke:#181818;stroke-width:0.5;" width="144" x="611.5" y="36"/><text fill="#000000" font-family="sans-serif" font-size="14" font-style="italic" lengthAdjust="spacing" textLength="84" x="641.5" y="57.5332">«application»</text><text fill="#000000" font-family="sans-serif" font-size="14" lengthAdjust="spacing" textLength="130" x="618.5" y="75.1426">ImportJsonController</text><rect fill="#E2E2F0" height="49.2188" rx="2.5" ry="2.5" style="stroke:#181818;stroke-width:0.5;" width="144" x="611.5" y="782.1953"/><text fill="#000000" font-family="sans-serif" font-size="14" font-style="italic" lengthAdjust="spacing" textLength="84" x="641.5" y="803.7285">«application»</text><text fill="#000000" font-family="sans-serif" font-size="14" lengthAdjust="spacing" textLength="130" x="618.5" y="821.3379">ImportJsonController</text><rect fill="#E2E2F0" height="49.2188" rx="2.5" ry="2.5" style="stroke:#181818;stroke-width:0.5;" width="159" x="778" y="36"/><text fill="#000000" font-family="sans-serif" font-size="14" font-style="italic" lengthAdjust="spacing" textLength="62" x="826.5" y="57.5332">«domain»</text><text fill="#000000" font-family="sans-serif" font-size="14" lengthAdjust="spacing" textLength="145" x="785" y="75.1426">jsonImport : JsonImport</text><rect fill="#E2E2F0" height="49.2188" rx="2.5" ry="2.5" style="stroke:#181818;stroke-width:0.5;" width="159" x="778" y="782.1953"/><text fill="#000000" font-family="sans-serif" font-size="14" font-style="italic" lengthAdjust="spacing" textLength="62" x="826.5" y="803.7285">«domain»</text><text fill="#000000" font-family="sans-serif" font-size="14" lengthAdjust="spacing" textLength="145" x="785" y="821.3379">jsonImport : JsonImport</text><rect fill="#E2E2F0" height="49.2188" rx="2.5" ry="2.5" style="stroke:#181818;stroke-width:0.5;" width="136" x="1011.5" y="36"/><text fill="#000000" font-family="sans-serif" font-size="14" font-style="italic" lengthAdjust="spacing" textLength="89" x="1035" y="57.5332">«persistence»</text><text fill="#000000" font-family="sans-serif" font-size="14" lengthAdjust="spacing" textLength="122" x="1018.5" y="75.1426">PersistenceContext</text><rect fill="#E2E2F0" height="49.2188" rx="2.5" ry="2.5" style="stroke:#181818;stroke-width:0.5;" width="136" x="1011.5" y="782.1953"/><text fill="#000000" font-family="sans-serif" font-size="14" font-style="italic" lengthAdjust="spacing" textLength="89" x="1035" y="803.7285">«persistence»</text><text fill="#000000" font-family="sans-serif" font-size="14" lengthAdjust="spacing" textLength="122" x="1018.5" y="821.3379">PersistenceContext</text><rect fill="#E2E2F0" height="49.2188" rx="2.5" ry="2.5" style="stroke:#181818;stroke-width:0.5;" width="130" x="1157.5" y="36"/><text fill="#000000" font-family="sans-serif" font-size="14" font-style="italic" lengthAdjust="spacing" textLength="59" x="1193" y="57.5332">«factory»</text><text fill="#000000" font-family="sans-serif" font-size="14" lengthAdjust="spacing" textLength="116" x="1164.5" y="75.1426">RepositoryFactory</text><rect fill="#E2E2F0" height="49.2188" rx="2.5" ry="2.5" style="stroke:#181818;stroke-width:0.5;" width="130" x="1157.5" y="782.1953"/><text fill="#000000" font-family="sans-serif" font-size="14" font-style="italic" lengthAdjust="spacing" textLength="59" x="1193" y="803.7285">«factory»</text><text fill="#000000" font-family="sans-serif" font-size="14" lengthAdjust="spacing" textLength="116" x="1164.5" y="821.3379">RepositoryFactory</text><text fill="#000000" font-family="sans-serif" font-size="14" font-style="italic" lengthAdjust="spacing" textLength="79" x="1328.5" y="65.5332">«repository»</text><text fill="#000000" font-family="sans-serif" font-size="14" lengthAdjust="spacing" textLength="141" x="1297.5" y="83.1426">WarehouseRepository</text><path d="M1353,15 C1353,5 1371,5 1371,5 C1371,5 1389,5 1389,15 L1389,41 C1389,51 1371,51 1371,51 C1371,51 1353,51 1353,41 L1353,15 " fill="#E2E2F0" style="stroke:#181818;stroke-width:1.5;"/><path d="M1353,15 C1353,25 1371,25 1371,25 C1371,25 1389,25 1389,15 " fill="none" style="stroke:#181818;stroke-width:1.5;"/><text fill="#000000" font-family="sans-serif" font-size="14" font-style="italic" lengthAdjust="spacing" textLength="79" x="1328.5" y="796.7285">«repository»</text><text fill="#000000" font-family="sans-serif" font-size="14" lengthAdjust="spacing" textLength="141" x="1297.5" y="814.3379">WarehouseRepository</text><path d="M1353,827.4141 C1353,817.4141 1371,817.4141 1371,817.4141 C1371,817.4141 1389,817.4141 1389,827.4141 L1389,853.4141 C1389,863.4141 1371,863.4141 1371,863.4141 C1371,863.4141 1353,863.4141 1353,853.4141 L1353,827.4141 " fill="#E2E2F0" style="stroke:#181818;stroke-width:1.5;"/><path d="M1353,827.4141 C1353,837.4141 1371,837.4141 1371,837.4141 C1371,837.4141 1389,837.4141 1389,827.4141 " fill="none" style="stroke:#181818;stroke-width:1.5;"/><rect fill="#FFFFFF" height="677.9766" style="stroke:#181818;stroke-width:1.0;" width="10" x="72.5" y="96.2188"/><rect fill="#FFFFFF" height="60.7031" style="stroke:#181818;stroke-width:1.0;" width="10" x="470.5" y="118.5703"/><rect fill="#FFFFFF" height="555.5703" style="stroke:#181818;stroke-width:1.0;" width="10" x="470.5" y="209.625"/><rect fill="#FFFFFF" height="525.2188" style="stroke:#181818;stroke-width:1.0;" width="10" x="678.5" y="239.9766"/><rect fill="#FFFFFF" height="457.5156" style="stroke:#181818;stroke-width:1.0;" width="10" x="852.5" y="270.3281"/><rect fill="#FFFFFF" height="30" style="stroke:#181818;stroke-width:1.0;" width="10" x="857.5" y="300.6797"/><rect fill="#FFFFFF" height="96.0547" style="stroke:#181818;stroke-width:1.0;" width="10" x="857.5" y="369.0313"/><rect fill="#FFFFFF" height="71.3516" style="stroke:#181818;stroke-width:1.0;" width="10" x="857.5" y="539.7891"/><rect fill="#FFFFFF" height="28" style="stroke:#181818;stroke-width:1.0;" width="10" x="862.5" y="583.1406"/><rect fill="#FFFFFF" height="71.3516" style="stroke:#181818;stroke-width:1.0;" width="10" x="857.5" y="656.4922"/><rect fill="#FFFFFF" height="28" style="stroke:#181818;stroke-width:1.0;" width="10" x="862.5" y="699.8438"/><rect fill="#FFFFFF" height="30.3516" style="stroke:#181818;stroke-width:1.0;" width="10" x="1217.5" y="434.7344"/><polygon fill="#181818" points="458.5,114.5703,468.5,118.5703,458.5,122.5703,462.5,118.5703" style="stroke:#181818;stroke-width:1.0;"/><line style="stroke:#181818;stroke-width:1.0;" x1="82.5" x2="464.5" y1="118.5703" y2="118.5703"/><text fill="#000000" font-family="sans-serif" font-size="13" font-weight="bold" lengthAdjust="spacing" textLength="7" x="89.5" y="113.7139">1</text><text fill="#000000" font-family="sans-serif" font-size="13" lengthAdjust="spacing" textLength="358" x="100.5" y="113.7139">Inicia o processo de importação de dados de um ficheiro .json</text><polygon fill="#181818" points="671.5,144.9219,681.5,148.9219,671.5,152.9219,675.5,148.9219" style="stroke:#181818;stroke-width:1.0;"/><line style="stroke:#181818;stroke-width:1.0;" x1="480.5" x2="677.5" y1="148.9219" y2="148.9219"/><text fill="#000000" font-family="sans-serif" font-size="13" font-weight="bold" lengthAdjust="spacing" textLength="7" x="487.5" y="144.0654">2</text><text fill="#000000" font-family="sans-serif" font-size="13" lengthAdjust="spacing" textLength="44" x="498.5" y="144.0654">create()</text><polygon fill="#181818" points="93.5,175.2734,83.5,179.2734,93.5,183.2734,89.5,179.2734" style="stroke:#181818;stroke-width:1.0;"/><line style="stroke:#181818;stroke-width:1.0;stroke-dasharray:2.0,2.0;" x1="87.5" x2="474.5" y1="179.2734" y2="179.2734"/><text fill="#000000" font-family="sans-serif" font-size="13" font-weight="bold" lengthAdjust="spacing" textLength="7" x="99.5" y="174.417">3</text><text fill="#000000" font-family="sans-serif" font-size="13" lengthAdjust="spacing" textLength="299" x="110.5" y="174.417">Questiona o nome do ficheiro que pretende importar</text><polygon fill="#181818" points="458.5,205.625,468.5,209.625,458.5,213.625,462.5,209.625" style="stroke:#181818;stroke-width:1.0;"/><line style="stroke:#181818;stroke-width:1.0;" x1="82.5" x2="464.5" y1="209.625" y2="209.625"/><text fill="#000000" font-family="sans-serif" font-size="13" font-weight="bold" lengthAdjust="spacing" textLength="7" x="89.5" y="204.7686">4</text><text fill="#000000" font-family="sans-serif" font-size="13" lengthAdjust="spacing" textLength="263" x="100.5" y="204.7686">Insere o nome do ficheiro que deseja importar</text><polygon fill="#181818" points="666.5,235.9766,676.5,239.9766,666.5,243.9766,670.5,239.9766" style="stroke:#181818;stroke-width:1.0;"/><line style="stroke:#181818;stroke-width:1.0;" x1="480.5" x2="672.5" y1="239.9766" y2="239.9766"/><text fill="#000000" font-family="sans-serif" font-size="13" font-weight="bold" lengthAdjust="spacing" textLength="7" x="487.5" y="235.1201">5</text><text fill="#000000" font-family="sans-serif" font-size="13" lengthAdjust="spacing" textLength="168" x="498.5" y="235.1201">importWarehouse(jsonName)</text><polygon fill="#181818" points="840.5,266.3281,850.5,270.3281,840.5,274.3281,844.5,270.3281" style="stroke:#181818;stroke-width:1.0;"/><line style="stroke:#181818;stroke-width:1.0;" x1="688.5" x2="846.5" y1="270.3281" y2="270.3281"/><text fill="#000000" font-family="sans-serif" font-size="13" font-weight="bold" lengthAdjust="spacing" textLength="7" x="695.5" y="265.4717">6</text><text fill="#000000" font-family="sans-serif" font-size="13" lengthAdjust="spacing" textLength="44" x="706.5" y="265.4717">create()</text><polygon fill="#181818" points="845.5,296.6797,855.5,300.6797,845.5,304.6797,849.5,300.6797" style="stroke:#181818;stroke-width:1.0;"/><line style="stroke:#181818;stroke-width:1.0;" x1="688.5" x2="851.5" y1="300.6797" y2="300.6797"/><text fill="#000000" font-family="sans-serif" font-size="13" font-weight="bold" lengthAdjust="spacing" textLength="7" x="695.5" y="295.8232">7</text><text fill="#000000" font-family="sans-serif" font-size="13" lengthAdjust="spacing" textLength="129" x="706.5" y="295.8232">importJson(jsonName)</text><line style="stroke:#181818;stroke-width:1.0;" x1="862.5" x2="909.5" y1="356.0313" y2="356.0313"/><line style="stroke:#181818;stroke-width:1.0;" x1="909.5" x2="909.5" y1="356.0313" y2="369.0313"/><line style="stroke:#181818;stroke-width:1.0;" x1="868.5" x2="909.5" y1="369.0313" y2="369.0313"/><polygon fill="#181818" points="878.5,365.0313,868.5,369.0313,878.5,373.0313,874.5,369.0313" style="stroke:#181818;stroke-width:1.0;"/><text fill="#000000" font-family="sans-serif" font-size="13" font-weight="bold" lengthAdjust="spacing" textLength="7" x="874.5" y="351.1748">8</text><text fill="#000000" font-family="sans-serif" font-size="13" lengthAdjust="spacing" textLength="132" x="885.5" y="351.1748">databaseImport(object)</text><polygon fill="#181818" points="1067.5,400.3828,1077.5,404.3828,1067.5,408.3828,1071.5,404.3828" style="stroke:#181818;stroke-width:1.0;"/><line style="stroke:#181818;stroke-width:1.0;" x1="867.5" x2="1073.5" y1="404.3828" y2="404.3828"/><text fill="#000000" font-family="sans-serif" font-size="13" font-weight="bold" lengthAdjust="spacing" textLength="7" x="874.5" y="399.5264">9</text><text fill="#000000" font-family="sans-serif" font-size="13" lengthAdjust="spacing" textLength="44" x="885.5" y="399.5264">create()</text><polygon fill="#181818" points="1205.5,430.7344,1215.5,434.7344,1205.5,438.7344,1209.5,434.7344" style="stroke:#181818;stroke-width:1.0;"/><line style="stroke:#181818;stroke-width:1.0;" x1="867.5" x2="1211.5" y1="434.7344" y2="434.7344"/><text fill="#000000" font-family="sans-serif" font-size="13" font-weight="bold" lengthAdjust="spacing" textLength="14" x="874.5" y="429.8779">10</text><text fill="#000000" font-family="sans-serif" font-size="13" lengthAdjust="spacing" textLength="44" x="892.5" y="429.8779">create()</text><polygon fill="#181818" points="1359,461.0859,1369,465.0859,1359,469.0859,1363,465.0859" style="stroke:#181818;stroke-width:1.0;"/><line style="stroke:#181818;stroke-width:1.0;" x1="1222.5" x2="1365" y1="465.0859" y2="465.0859"/><text fill="#000000" font-family="sans-serif" font-size="13" font-weight="bold" lengthAdjust="spacing" textLength="14" x="1229.5" y="460.2295">11</text><text fill="#000000" font-family="sans-serif" font-size="13" lengthAdjust="spacing" textLength="69" x="1247.5" y="460.2295">save(object)</text><path d="M1227,478.0859 L1227,504.0859 L1688,504.0859 L1688,488.0859 L1678,478.0859 L1227,478.0859 " fill="#FEFFDD" style="stroke:#181818;stroke-width:0.5;"/><path d="M1678,478.0859 L1678,488.0859 L1688,488.0859 L1678,478.0859 " fill="#FEFFDD" style="stroke:#181818;stroke-width:0.5;"/><text fill="#000000" font-family="sans-serif" font-size="13" lengthAdjust="spacing" textLength="440" x="1233" y="496.5811">Exemplificada a criação e persistência de um warehouse na base de dados.</text><line style="stroke:#181818;stroke-width:1.0;" x1="862.5" x2="909.5" y1="526.7891" y2="526.7891"/><line style="stroke:#181818;stroke-width:1.0;" x1="909.5" x2="909.5" y1="526.7891" y2="539.7891"/><line style="stroke:#181818;stroke-width:1.0;" x1="868.5" x2="909.5" y1="539.7891" y2="539.7891"/><polygon fill="#181818" points="878.5,535.7891,868.5,539.7891,878.5,543.7891,874.5,539.7891" style="stroke:#181818;stroke-width:1.0;"/><text fill="#000000" font-family="sans-serif" font-size="13" font-weight="bold" lengthAdjust="spacing" textLength="14" x="874.5" y="521.9326">12</text><text fill="#000000" font-family="sans-serif" font-size="13" lengthAdjust="spacing" textLength="179" x="892.5" y="521.9326">importAisles(array, warehouse)</text><line style="stroke:#181818;stroke-width:1.0;" x1="872.5" x2="914.5" y1="575.1406" y2="575.1406"/><line style="stroke:#181818;stroke-width:1.0;" x1="914.5" x2="914.5" y1="575.1406" y2="588.1406"/><line style="stroke:#181818;stroke-width:1.0;" x1="873.5" x2="914.5" y1="588.1406" y2="588.1406"/><polygon fill="#181818" points="883.5,584.1406,873.5,588.1406,883.5,592.1406,879.5,588.1406" style="stroke:#181818;stroke-width:1.0;"/><text fill="#000000" font-family="sans-serif" font-size="13" font-weight="bold" lengthAdjust="spacing" textLength="14" x="879.5" y="570.2842">13</text><text fill="#000000" font-family="sans-serif" font-size="13" lengthAdjust="spacing" textLength="132" x="897.5" y="570.2842">databaseImport(object)</text><line style="stroke:#181818;stroke-width:1.0;" x1="862.5" x2="909.5" y1="643.4922" y2="643.4922"/><line style="stroke:#181818;stroke-width:1.0;" x1="909.5" x2="909.5" y1="643.4922" y2="656.4922"/><line style="stroke:#181818;stroke-width:1.0;" x1="868.5" x2="909.5" y1="656.4922" y2="656.4922"/><polygon fill="#181818" points="878.5,652.4922,868.5,656.4922,878.5,660.4922,874.5,656.4922" style="stroke:#181818;stroke-width:1.0;"/><text fill="#000000" font-family="sans-serif" font-size="13" font-weight="bold" lengthAdjust="spacing" textLength="14" x="874.5" y="638.6357">14</text><text fill="#000000" font-family="sans-serif" font-size="13" lengthAdjust="spacing" textLength="180" x="892.5" y="638.6357">importDocks(array, warehouse)</text><line style="stroke:#181818;stroke-width:1.0;" x1="872.5" x2="914.5" y1="691.8438" y2="691.8438"/><line style="stroke:#181818;stroke-width:1.0;" x1="914.5" x2="914.5" y1="691.8438" y2="704.8438"/><line style="stroke:#181818;stroke-width:1.0;" x1="873.5" x2="914.5" y1="704.8438" y2="704.8438"/><polygon fill="#181818" points="883.5,700.8438,873.5,704.8438,883.5,708.8438,879.5,704.8438" style="stroke:#181818;stroke-width:1.0;"/><text fill="#000000" font-family="sans-serif" font-size="13" font-weight="bold" lengthAdjust="spacing" textLength="14" x="879.5" y="686.9873">15</text><text fill="#000000" font-family="sans-serif" font-size="13" lengthAdjust="spacing" textLength="132" x="897.5" y="686.9873">databaseImport(object)</text><polygon fill="#181818" points="93.5,761.1953,83.5,765.1953,93.5,769.1953,89.5,765.1953" style="stroke:#181818;stroke-width:1.0;"/><line style="stroke:#181818;stroke-width:1.0;" x1="87.5" x2="474.5" y1="765.1953" y2="765.1953"/><text fill="#000000" font-family="sans-serif" font-size="13" font-weight="bold" lengthAdjust="spacing" textLength="14" x="99.5" y="760.3389">16</text><text fill="#000000" font-family="sans-serif" font-size="13" lengthAdjust="spacing" textLength="298" x="117.5" y="760.3389">Informa o utilizador acerca do sucesso da operação</text><!--MD5=[75c9fc59d033d961c80001be03a65abf]
@startuml

autonumber
actor "Warehouse Employee" as WH
participant ImportJsonUI as UI <<presentation>>
participant ImportJsonController as controller <<application>>
participant "jsonImport : JsonImport" as json <<domain>>
participant PersistenceContext as persistence <<persistence>>
participant RepositoryFactory as factory <<factory>>
database WarehouseRepository as repository <<repository>>

activate WH

WH -> UI : Inicia o processo de importação de dados de um ficheiro .json
activate UI

UI -> controller : create()

UI - -> WH : Questiona o nome do ficheiro que pretende importar
deactivate UI

WH -> UI : Insere o nome do ficheiro que deseja importar
activate UI

UI -> controller : importWarehouse(jsonName)
activate controller

controller -> json : create()

activate json
controller -> json ++: importJson(jsonName)
deactivate json

json -> json ++: databaseImport(object)
json -> persistence : create()

json -> factory: create()
activate factory
factory -> repository : save(object)
note right of factory: Exemplificada a criação e persistência de um warehouse na base de dados.
deactivate factory

deactivate json

json -> json ++: importAisles(array, warehouse)
json -> json ++: databaseImport(object)
deactivate json
deactivate json


json -> json ++: importDocks(array, warehouse)
json -> json ++: databaseImport(object)
deactivate json
deactivate

deactivate json



UI -> WH : Informa o utilizador acerca do sucesso da operação
deactivate controller
deactivate UI

@enduml

PlantUML version 1.2022.4(Sat Apr 09 14:29:17 BST 2022)
(GPL source distribution)
Java Runtime: OpenJDK Runtime Environment
JVM: OpenJDK 64-Bit Server VM
Default Encoding: Cp1252
Language: pt
Country: PT
--></g></svg>