<?xml version="1.0" encoding="UTF-8" standalone="no"?><svg xmlns="http://www.w3.org/2000/svg" xmlns:xlink="http://www.w3.org/1999/xlink" contentStyleType="text/css" height="139.2px" preserveAspectRatio="none" style="width:623px;height:139px;background:#FFFFFF;" version="1.1" viewBox="0 0 623 139" width="623.4px" zoomAndPan="magnify"><defs/><g><!--MD5=[feb862d0c2458839555213da1199e03c]
class DigitalTwinDaemon--><g id="elem_DigitalTwinDaemon"><rect codeLine="6" fill="#F1F1F1" height="49.9313" id="DigitalTwinDaemon" rx="1.5" ry="1.5" style="stroke:#181818;stroke-width:0.3;" width="114" x="4.2" y="64.224"/><ellipse cx="23.19" cy="73.824" fill="#ADD1B2" rx="6.6" ry="6.6" style="stroke:#181818;stroke-width:0.6;"/><path d="M24.39,71.724 Q24.5119,71.424 24.6525,71.274 Q24.7931,71.124 24.9525,71.124 Q25.2337,71.124 25.4119,71.2928 Q25.59,71.4615 25.59,71.8553 L25.59,72.7928 Q25.59,73.1865 25.4212,73.3553 Q25.2525,73.524 24.99,73.524 Q24.7556,73.524 24.6056,73.4209 Q24.4556,73.3177 24.39,73.0459 Q24.3619,72.8584 24.2588,72.7552 Q24.0713,72.5584 23.7337,72.4459 Q23.3963,72.324 23.0588,72.324 Q22.6369,72.324 22.2806,72.4927 Q21.9338,72.6615 21.6619,73.0365 Q21.39,73.4115 21.39,73.9271 L21.39,74.4803 Q21.39,75.099 21.8963,75.5115 Q22.4025,75.924 23.3025,75.924 Q23.8369,75.924 24.2119,75.8021 Q24.4275,75.7365 24.6712,75.5209 Q24.8306,75.399 24.915,75.3615 Q24.9994,75.324 25.1025,75.324 Q25.2994,75.324 25.44,75.4834 Q25.59,75.6334 25.59,75.849 Q25.59,76.0552 25.3838,76.299 Q25.0838,76.6553 24.6056,76.8521 Q23.9775,77.124 23.2088,77.124 Q22.3088,77.124 21.5869,76.7677 Q21.0056,76.4865 20.5931,75.8771 Q20.19,75.2677 20.19,74.5459 L20.19,73.8896 Q20.19,73.1396 20.5462,72.4834 Q20.9119,71.8271 21.54,71.4803 Q22.1775,71.124 22.89,71.124 Q23.3213,71.124 23.6963,71.274 Q24.0713,71.424 24.39,71.724 Z " fill="#000000"/><text fill="#000000" font-family="sans-serif" font-size="8.4" lengthAdjust="spacing" textLength="72.6" x="33.81" y="77.2611">DigitalTwinDaemon</text><line style="stroke:#181818;stroke-width:0.3;" x1="4.8" x2="117.6" y1="83.424" y2="83.424"/><line style="stroke:#181818;stroke-width:0.3;" x1="4.8" x2="117.6" y1="88.224" y2="88.224"/><text fill="#000000" font-family="sans-serif" font-size="8.4" lengthAdjust="spacing" textLength="28.8" x="7.8" y="99.3439">+main()</text><text fill="#000000" font-family="sans-serif" font-size="8.4" lengthAdjust="spacing" textLength="106.8" x="7.8" y="109.9095">-buildServerDependencies()</text></g><!--MD5=[d63cfdc3a5497c08e0eb259a940688e5]
class DigitalTwinProtocolServer--><g id="elem_DigitalTwinProtocolServer"><rect codeLine="11" fill="#F1F1F1" height="60.4969" id="DigitalTwinProtocolServer" rx="1.5" ry="1.5" style="stroke:#181818;stroke-width:0.3;" width="116.4" x="139.2" y="58.824"/><ellipse cx="148.2" cy="68.424" fill="#ADD1B2" rx="6.6" ry="6.6" style="stroke:#181818;stroke-width:0.6;"/><path d="M149.4,66.324 Q149.5219,66.024 149.6625,65.874 Q149.8031,65.724 149.9625,65.724 Q150.2438,65.724 150.4219,65.8927 Q150.6,66.0615 150.6,66.4552 L150.6,67.3927 Q150.6,67.7865 150.4313,67.9552 Q150.2625,68.124 150,68.124 Q149.7656,68.124 149.6156,68.0209 Q149.4656,67.9178 149.4,67.6459 Q149.3719,67.4584 149.2687,67.3553 Q149.0812,67.1584 148.7438,67.0459 Q148.4063,66.924 148.0688,66.924 Q147.6469,66.924 147.2906,67.0928 Q146.9438,67.2615 146.6719,67.6365 Q146.4,68.0115 146.4,68.5271 L146.4,69.0802 Q146.4,69.699 146.9063,70.1115 Q147.4125,70.524 148.3125,70.524 Q148.8469,70.524 149.2219,70.4021 Q149.4375,70.3365 149.6813,70.1209 Q149.8406,69.999 149.925,69.9615 Q150.0094,69.924 150.1125,69.924 Q150.3094,69.924 150.45,70.0834 Q150.6,70.2334 150.6,70.449 Q150.6,70.6553 150.3937,70.899 Q150.0938,71.2552 149.6156,71.4521 Q148.9875,71.724 148.2188,71.724 Q147.3188,71.724 146.5969,71.3677 Q146.0156,71.0865 145.6031,70.4771 Q145.2,69.8677 145.2,69.1459 L145.2,68.4896 Q145.2,67.7396 145.5563,67.0834 Q145.9219,66.4271 146.55,66.0802 Q147.1875,65.724 147.9,65.724 Q148.3312,65.724 148.7062,65.874 Q149.0812,66.024 149.4,66.324 Z " fill="#000000"/><text fill="#000000" font-family="sans-serif" font-size="8.4" lengthAdjust="spacing" textLength="97.2" x="156.6" y="71.8611">DigitalTwinProtocolServer</text><line style="stroke:#181818;stroke-width:0.3;" x1="139.8" x2="255" y1="78.024" y2="78.024"/><line style="stroke:#181818;stroke-width:0.3;" x1="139.8" x2="255" y1="82.824" y2="82.824"/><text fill="#000000" font-family="sans-serif" font-size="8.4" lengthAdjust="spacing" textLength="23.4" x="142.8" y="93.9439">+run()</text><text fill="#000000" font-family="sans-serif" font-size="8.4" lengthAdjust="spacing" textLength="28.8" x="142.8" y="104.5095">-listen()</text><text fill="#000000" font-family="sans-serif" font-size="8.4" lengthAdjust="spacing" textLength="27.6" x="142.8" y="115.0752">+start()</text></g><!--MD5=[b9f51232348f81c9e4c91fdf9d5694ba]
class RequestMessageParser--><g id="elem_RequestMessageParser"><rect codeLine="17" fill="#F1F1F1" height="92.1938" id="RequestMessageParser" rx="1.5" ry="1.5" style="stroke:#181818;stroke-width:0.3;" width="177.6" x="441.6" y="42.924"/><ellipse cx="482.25" cy="52.524" fill="#ADD1B2" rx="6.6" ry="6.6" style="stroke:#181818;stroke-width:0.6;"/><path d="M483.45,50.424 Q483.5719,50.124 483.7125,49.974 Q483.8531,49.824 484.0125,49.824 Q484.2938,49.824 484.4719,49.9927 Q484.65,50.1615 484.65,50.5552 L484.65,51.4927 Q484.65,51.8865 484.4813,52.0552 Q484.3125,52.224 484.05,52.224 Q483.8156,52.224 483.6656,52.1209 Q483.5156,52.0177 483.45,51.7459 Q483.4219,51.5584 483.3187,51.4552 Q483.1312,51.2584 482.7938,51.1459 Q482.4562,51.024 482.1188,51.024 Q481.6969,51.024 481.3406,51.1928 Q480.9938,51.3615 480.7219,51.7365 Q480.45,52.1115 480.45,52.6271 L480.45,53.1802 Q480.45,53.799 480.9562,54.2115 Q481.4625,54.624 482.3625,54.624 Q482.8969,54.624 483.2719,54.5021 Q483.4875,54.4365 483.7313,54.2209 Q483.8906,54.099 483.975,54.0615 Q484.0594,54.024 484.1625,54.024 Q484.3594,54.024 484.5,54.1834 Q484.65,54.3334 484.65,54.549 Q484.65,54.7553 484.4437,54.999 Q484.1437,55.3552 483.6656,55.5521 Q483.0375,55.824 482.2687,55.824 Q481.3688,55.824 480.6469,55.4677 Q480.0656,55.1865 479.6531,54.5771 Q479.25,53.9677 479.25,53.2459 L479.25,52.5896 Q479.25,51.8396 479.6063,51.1834 Q479.9719,50.5271 480.6,50.1802 Q481.2375,49.824 481.95,49.824 Q482.3812,49.824 482.7562,49.974 Q483.1312,50.124 483.45,50.424 Z " fill="#000000"/><text fill="#000000" font-family="sans-serif" font-size="8.4" lengthAdjust="spacing" textLength="91.2" x="494.55" y="55.9611">RequestMessageParser</text><line style="stroke:#181818;stroke-width:0.3;" x1="442.2" x2="618.6" y1="62.124" y2="62.124"/><line style="stroke:#181818;stroke-width:0.3;" x1="442.2" x2="618.6" y1="66.924" y2="66.924"/><text fill="#000000" font-family="sans-serif" font-size="8.4" lengthAdjust="spacing" textLength="91.8" x="445.2" y="78.0439">-getManagerController()</text><text fill="#000000" font-family="sans-serif" font-size="8.4" lengthAdjust="spacing" textLength="100.2" x="445.2" y="88.6095">-getDashboardController()</text><text fill="#000000" font-family="sans-serif" font-size="8.4" lengthAdjust="spacing" textLength="32.4" x="445.2" y="99.1752">+parse()</text><text fill="#000000" font-family="sans-serif" font-size="8.4" lengthAdjust="spacing" textLength="82.8" x="445.2" y="109.7408">-isStringParam(string)</text><text fill="#000000" font-family="sans-serif" font-size="8.4" lengthAdjust="spacing" textLength="146.4" x="445.2" y="120.3064">-callTaskAssignment(inputLine,tokens)</text><text fill="#000000" font-family="sans-serif" font-size="8.4" lengthAdjust="spacing" textLength="170.4" x="445.2" y="130.872">-parseGetAGVInformations(inputLine,tokens)</text></g><!--MD5=[678a8e944fac7df141ce29c11ac6ca20]
class DigitalTwinProtocolRequest--><g id="elem_DigitalTwinProtocolRequest"><rect codeLine="26" fill="#F1F1F1" height="81.6281" id="DigitalTwinProtocolRequest" rx="1.5" ry="1.5" style="stroke:#181818;stroke-width:0.3;" width="144" x="276.6" y="48.324"/><ellipse cx="295.05" cy="57.924" fill="#ADD1B2" rx="6.6" ry="6.6" style="stroke:#181818;stroke-width:0.6;"/><path d="M296.25,55.824 Q296.3719,55.524 296.5125,55.374 Q296.6531,55.224 296.8125,55.224 Q297.0938,55.224 297.2719,55.3927 Q297.45,55.5615 297.45,55.9552 L297.45,56.8927 Q297.45,57.2865 297.2813,57.4552 Q297.1125,57.624 296.85,57.624 Q296.6156,57.624 296.4656,57.5209 Q296.3156,57.4177 296.25,57.1459 Q296.2219,56.9584 296.1188,56.8552 Q295.9313,56.6584 295.5938,56.5459 Q295.2562,56.424 294.9188,56.424 Q294.4969,56.424 294.1406,56.5927 Q293.7938,56.7615 293.5219,57.1365 Q293.25,57.5115 293.25,58.0271 L293.25,58.5802 Q293.25,59.199 293.7562,59.6115 Q294.2625,60.024 295.1625,60.024 Q295.6969,60.024 296.0719,59.9021 Q296.2875,59.8365 296.5313,59.6209 Q296.6906,59.499 296.775,59.4615 Q296.8594,59.424 296.9625,59.424 Q297.1594,59.424 297.3,59.5834 Q297.45,59.7334 297.45,59.949 Q297.45,60.1552 297.2438,60.399 Q296.9437,60.7552 296.4656,60.9521 Q295.8375,61.224 295.0687,61.224 Q294.1688,61.224 293.4469,60.8677 Q292.8656,60.5865 292.4531,59.9771 Q292.05,59.3677 292.05,58.6459 L292.05,57.9896 Q292.05,57.2396 292.4063,56.5834 Q292.7719,55.9271 293.4,55.5802 Q294.0375,55.224 294.75,55.224 Q295.1813,55.224 295.5563,55.374 Q295.9313,55.524 296.25,55.824 Z " fill="#000000"/><text fill="#000000" font-family="sans-serif" font-size="8.4" lengthAdjust="spacing" textLength="103.8" x="305.55" y="61.3611">DigitalTwinProtocolRequest</text><line style="stroke:#181818;stroke-width:0.3;" x1="277.2" x2="420" y1="67.524" y2="67.524"/><text fill="#000000" font-family="sans-serif" font-size="8.4" lengthAdjust="spacing" textLength="31.8" x="280.2" y="78.6439">-request</text><line style="stroke:#181818;stroke-width:0.6;" x1="277.2" x2="420" y1="82.8896" y2="82.8896"/><text fill="#000000" font-family="sans-serif" font-size="8.4" lengthAdjust="spacing" textLength="40.2" x="280.2" y="94.0095">+execute()</text><text fill="#000000" font-family="sans-serif" font-size="8.4" lengthAdjust="spacing" textLength="51.6" x="280.2" y="104.5752">+isGoodbye()</text><text fill="#000000" font-family="sans-serif" font-size="8.4" lengthAdjust="spacing" textLength="134.4" x="280.2" y="115.1408">#buildServerError(errorDescription)</text><text fill="#000000" font-family="sans-serif" font-size="8.4" lengthAdjust="spacing" textLength="136.8" x="280.2" y="125.7064">#buildBadRequest(errorDescription)</text></g><!--MD5=[3f9e00ef6a722261faca67971571de99]
link DigitalTwinDaemon to DigitalTwinProtocolServer--><g id="link_DigitalTwinDaemon_DigitalTwinProtocolServer"><path codeLine="35" d="M118.392,89.124 C124.26,89.124 130.134,89.124 136.002,89.124 " fill="none" id="DigitalTwinDaemon-to-DigitalTwinProtocolServer" style="stroke:#181818;stroke-width:0.6;"/><polygon fill="#181818" points="139.068,89.124,133.668,86.724,136.068,89.124,133.668,91.524,139.068,89.124" style="stroke:#181818;stroke-width:0.6;"/></g><!--MD5=[a870320f18a2ed54274a517b9b5a4854]
link DigitalTwinProtocolServer to RequestMessageParser--><g id="link_DigitalTwinProtocolServer_RequestMessageParser"><path codeLine="36" d="M225.312,58.674 C239.352,45.606 257.496,31.782 276.9,24.924 C337.242,3.6 359.136,8.154 420.9,24.924 C434.598,28.644 448.338,34.554 461.226,41.322 " fill="none" id="DigitalTwinProtocolServer-to-RequestMessageParser" style="stroke:#181818;stroke-width:0.6;"/><polygon fill="#181818" points="463.968,42.78,460.3233,38.1285,461.3181,41.3736,458.073,42.3684,463.968,42.78" style="stroke:#181818;stroke-width:0.6;"/></g><!--MD5=[10fb52e06182b06dd4d1fc24bfc98493]
link DigitalTwinProtocolServer to DigitalTwinProtocolRequest--><g id="link_DigitalTwinProtocolServer_DigitalTwinProtocolRequest"><path codeLine="37" d="M255.87,89.124 C261.732,89.124 267.594,89.124 273.456,89.124 " fill="none" id="DigitalTwinProtocolServer-to-DigitalTwinProtocolRequest" style="stroke:#181818;stroke-width:0.6;"/><polygon fill="#181818" points="276.516,89.124,271.116,86.724,273.516,89.124,271.116,91.524,276.516,89.124" style="stroke:#181818;stroke-width:0.6;"/></g><!--MD5=[a6ee3a36f6a95eefc715b1dc85f6c001]
@startuml
'https://plantuml.com/sequence-diagram

skinparam classAttributeIconSize 0


class DigitalTwinDaemon {
+main()
-buildServerDependencies()
}

class DigitalTwinProtocolServer {
+run()
-listen()
+start()
}

class RequestMessageParser {
-getManagerController()
-getDashboardController()
+parse()
-isStringParam(string)
-callTaskAssignment(inputLine,tokens)
-parseGetAGVInformations(inputLine,tokens)
}

class DigitalTwinProtocolRequest {
-request
- - -
+execute()
+isGoodbye()
#buildServerError(errorDescription)
#buildBadRequest(errorDescription)
}

DigitalTwinDaemon -> DigitalTwinProtocolServer
DigitalTwinProtocolServer -> RequestMessageParser
DigitalTwinProtocolServer -> DigitalTwinProtocolRequest









@enduml

@startuml

skinparam classAttributeIconSize 0


class DigitalTwinDaemon {
+main()
-buildServerDependencies()
}

class DigitalTwinProtocolServer {
+run()
-listen()
+start()
}

class RequestMessageParser {
-getManagerController()
-getDashboardController()
+parse()
-isStringParam(string)
-callTaskAssignment(inputLine,tokens)
-parseGetAGVInformations(inputLine,tokens)
}

class DigitalTwinProtocolRequest {
-request
- - -
+execute()
+isGoodbye()
#buildServerError(errorDescription)
#buildBadRequest(errorDescription)
}

DigitalTwinDaemon -> DigitalTwinProtocolServer
DigitalTwinProtocolServer -> RequestMessageParser
DigitalTwinProtocolServer -> DigitalTwinProtocolRequest









@enduml

PlantUML version 1.2022.4(Sat Apr 09 14:29:17 BST 2022)
(GPL source distribution)
Java Runtime: OpenJDK Runtime Environment
JVM: OpenJDK 64-Bit Server VM
Default Encoding: Cp1252
Language: pt
Country: PT
--></g></svg>