<?xml version="1.0" encoding="UTF-8" standalone="no"?><svg xmlns="http://www.w3.org/2000/svg" xmlns:xlink="http://www.w3.org/1999/xlink" contentStyleType="text/css" height="396px" preserveAspectRatio="none" style="width:641px;height:396px;background:#FFFFFF;" version="1.1" viewBox="0 0 641 396" width="641.6px" zoomAndPan="magnify"><defs/><g><rect fill="#FFFFFF" height="106.9625" style="stroke:#181818;stroke-width:0.8000000000000002;" width="8" x="186.4" y="80.25"/><rect fill="#FFFFFF" height="22.4" style="stroke:#181818;stroke-width:0.8000000000000002;" width="8" x="190.4" y="110.9313"/><rect fill="#FFFFFF" height="189.6125" style="stroke:#181818;stroke-width:0.8000000000000002;" width="8" x="288" y="163.2125"/><rect fill="#FFFFFF" height="82.9625" style="stroke:#181818;stroke-width:0.8000000000000002;" width="8" x="535.6" y="269.8625"/><rect fill="#FFFFFF" height="22.4" style="stroke:#181818;stroke-width:0.8000000000000002;" width="8" x="539.6" y="300.5438"/><line style="stroke:#181818;stroke-width:0.4000000000000001;stroke-dasharray:5.0,5.0;" x1="57.6" x2="57.6" y1="30.0875" y2="367.225"/><line style="stroke:#181818;stroke-width:0.4000000000000001;stroke-dasharray:5.0,5.0;" x1="190.4" x2="190.4" y1="30.0875" y2="367.225"/><line style="stroke:#181818;stroke-width:0.4000000000000001;stroke-dasharray:5.0,5.0;" x1="292" x2="292" y1="30.0875" y2="367.225"/><line style="stroke:#181818;stroke-width:0.4000000000000001;stroke-dasharray:5.0,5.0;" x1="390.4" x2="390.4" y1="30.0875" y2="367.225"/><line style="stroke:#181818;stroke-width:0.4000000000000001;stroke-dasharray:5.0,5.0;" x1="539.2" x2="539.2" y1="242.9375" y2="367.225"/><rect fill="#E2E2F0" height="25.2875" rx="2" ry="2" style="stroke:#181818;stroke-width:0.4000000000000001;" width="108" x="4" y="4"/><text fill="#000000" font-family="sans-serif" font-size="11.2" lengthAdjust="spacing" textLength="96.8" x="9.6" y="21.2266">DigitalTwinDaemon</text><rect fill="#E2E2F0" height="25.2875" rx="2" ry="2" style="stroke:#181818;stroke-width:0.4000000000000001;" width="108" x="4" y="366.425"/><text fill="#000000" font-family="sans-serif" font-size="11.2" lengthAdjust="spacing" textLength="96.8" x="9.6" y="383.6516">DigitalTwinDaemon</text><rect fill="#E2E2F0" height="25.2875" rx="2" ry="2" style="stroke:#181818;stroke-width:0.4000000000000001;" width="140.8" x="120" y="4"/><text fill="#000000" font-family="sans-serif" font-size="11.2" lengthAdjust="spacing" textLength="129.6" x="125.6" y="21.2266">DigitalTwinProtocolServer</text><rect fill="#E2E2F0" height="25.2875" rx="2" ry="2" style="stroke:#181818;stroke-width:0.4000000000000001;" width="140.8" x="120" y="366.425"/><text fill="#000000" font-family="sans-serif" font-size="11.2" lengthAdjust="spacing" textLength="129.6" x="125.6" y="383.6516">DigitalTwinProtocolServer</text><rect fill="#E2E2F0" height="25.2875" rx="2" ry="2" style="stroke:#181818;stroke-width:0.4000000000000001;" width="46.4" x="268.8" y="4"/><text fill="#000000" font-family="sans-serif" font-size="11.2" lengthAdjust="spacing" textLength="35.2" x="274.4" y="21.2266">Handle</text><rect fill="#E2E2F0" height="25.2875" rx="2" ry="2" style="stroke:#181818;stroke-width:0.4000000000000001;" width="46.4" x="268.8" y="366.425"/><text fill="#000000" font-family="sans-serif" font-size="11.2" lengthAdjust="spacing" textLength="35.2" x="274.4" y="383.6516">Handle</text><rect fill="#E2E2F0" height="25.2875" rx="2" ry="2" style="stroke:#181818;stroke-width:0.4000000000000001;" width="132.8" x="324" y="4"/><text fill="#000000" font-family="sans-serif" font-size="11.2" lengthAdjust="spacing" textLength="121.6" x="329.6" y="21.2266">RequestMessageParser</text><rect fill="#E2E2F0" height="25.2875" rx="2" ry="2" style="stroke:#181818;stroke-width:0.4000000000000001;" width="132.8" x="324" y="366.425"/><text fill="#000000" font-family="sans-serif" font-size="11.2" lengthAdjust="spacing" textLength="121.6" x="329.6" y="383.6516">RequestMessageParser</text><rect fill="#E2E2F0" height="25.2875" rx="2" ry="2" style="stroke:#181818;stroke-width:0.4000000000000001;" width="149.6" x="464.8" y="366.425"/><text fill="#000000" font-family="sans-serif" font-size="11.2" lengthAdjust="spacing" textLength="138.4" x="470.4" y="383.6516">DigitalTwinProtocolRequest</text><rect fill="#FFFFFF" height="106.9625" style="stroke:#181818;stroke-width:0.8000000000000002;" width="8" x="186.4" y="80.25"/><rect fill="#FFFFFF" height="22.4" style="stroke:#181818;stroke-width:0.8000000000000002;" width="8" x="190.4" y="110.9313"/><rect fill="#FFFFFF" height="189.6125" style="stroke:#181818;stroke-width:0.8000000000000002;" width="8" x="288" y="163.2125"/><rect fill="#FFFFFF" height="82.9625" style="stroke:#181818;stroke-width:0.8000000000000002;" width="8" x="535.6" y="269.8625"/><rect fill="#FFFFFF" height="22.4" style="stroke:#181818;stroke-width:0.8000000000000002;" width="8" x="539.6" y="300.5438"/><polygon fill="#181818" points="180.8,52.7688,188.8,55.9688,180.8,59.1688,184,55.9688" style="stroke:#181818;stroke-width:0.8000000000000002;"/><line style="stroke:#181818;stroke-width:0.8000000000000002;" x1="58" x2="185.6" y1="55.9688" y2="55.9688"/><text fill="#000000" font-family="sans-serif" font-size="10.4" font-weight="bold" lengthAdjust="spacing" textLength="5.6" x="63.6" y="52.0836">1</text><text fill="#000000" font-family="sans-serif" font-size="10.4" lengthAdjust="spacing" textLength="18.4" x="72.4" y="52.0836">new</text><polygon fill="#181818" points="176.8,77.05,184.8,80.25,176.8,83.45,180,80.25" style="stroke:#181818;stroke-width:0.8000000000000002;"/><line style="stroke:#181818;stroke-width:0.8000000000000002;" x1="58" x2="181.6" y1="80.25" y2="80.25"/><text fill="#000000" font-family="sans-serif" font-size="10.4" font-weight="bold" lengthAdjust="spacing" textLength="5.6" x="63.6" y="76.3648">2</text><text fill="#000000" font-family="sans-serif" font-size="10.4" lengthAdjust="spacing" textLength="20.8" x="72.4" y="76.3648">start</text><line style="stroke:#181818;stroke-width:0.8000000000000002;" x1="198.4" x2="232" y1="104.5313" y2="104.5313"/><line style="stroke:#181818;stroke-width:0.8000000000000002;" x1="232" x2="232" y1="104.5313" y2="114.9313"/><line style="stroke:#181818;stroke-width:0.8000000000000002;" x1="199.2" x2="232" y1="114.9313" y2="114.9313"/><polygon fill="#181818" points="207.2,111.7313,199.2,114.9313,207.2,118.1313,204,114.9313" style="stroke:#181818;stroke-width:0.8000000000000002;"/><text fill="#000000" font-family="sans-serif" font-size="10.4" font-weight="bold" lengthAdjust="spacing" textLength="5.6" x="204" y="100.6461">3</text><text fill="#000000" font-family="sans-serif" font-size="10.4" lengthAdjust="spacing" textLength="31.2" x="212.8" y="100.6461">accept</text><polygon fill="#181818" points="278.4,160.0125,286.4,163.2125,278.4,166.4125,281.6,163.2125" style="stroke:#181818;stroke-width:0.8000000000000002;"/><line style="stroke:#181818;stroke-width:0.8000000000000002;" x1="194.4" x2="283.2" y1="163.2125" y2="163.2125"/><text fill="#000000" font-family="sans-serif" font-size="10.4" font-weight="bold" lengthAdjust="spacing" textLength="5.6" x="200" y="159.3273">4</text><text fill="#000000" font-family="sans-serif" font-size="10.4" lengthAdjust="spacing" textLength="20.8" x="208.8" y="159.3273">start</text><polygon fill="#181818" points="380.8,208.2938,388.8,211.4938,380.8,214.6938,384,211.4938" style="stroke:#181818;stroke-width:0.8000000000000002;"/><line style="stroke:#181818;stroke-width:0.8000000000000002;" x1="296" x2="385.6" y1="211.4938" y2="211.4938"/><text fill="#000000" font-family="sans-serif" font-size="10.4" font-weight="bold" lengthAdjust="spacing" textLength="5.6" x="301.6" y="207.6086">5</text><text fill="#000000" font-family="sans-serif" font-size="10.4" lengthAdjust="spacing" textLength="66.4" x="310.4" y="207.6086">parse(request)</text><polygon fill="#181818" points="455.2,232.575,463.2,235.775,455.2,238.975,458.4,235.775" style="stroke:#181818;stroke-width:0.8000000000000002;"/><line style="stroke:#181818;stroke-width:0.8000000000000002;" x1="390.4" x2="460" y1="235.775" y2="235.775"/><text fill="#000000" font-family="sans-serif" font-size="10.4" font-weight="bold" lengthAdjust="spacing" textLength="5.6" x="396" y="231.8898">6</text><text fill="#000000" font-family="sans-serif" font-size="10.4" lengthAdjust="spacing" textLength="18.4" x="404.8" y="231.8898">new</text><rect fill="#E2E2F0" height="25.2875" rx="2" ry="2" style="stroke:#181818;stroke-width:0.4000000000000001;" width="149.6" x="464.8" y="217.8938"/><text fill="#000000" font-family="sans-serif" font-size="11.2" lengthAdjust="spacing" textLength="138.4" x="470.4" y="235.1203">DigitalTwinProtocolRequest</text><polygon fill="#181818" points="526,266.6625,534,269.8625,526,273.0625,529.2,269.8625" style="stroke:#181818;stroke-width:0.8000000000000002;"/><line style="stroke:#181818;stroke-width:0.8000000000000002;" x1="296" x2="530.8" y1="269.8625" y2="269.8625"/><text fill="#000000" font-family="sans-serif" font-size="10.4" font-weight="bold" lengthAdjust="spacing" textLength="5.6" x="301.6" y="265.9773">7</text><text fill="#000000" font-family="sans-serif" font-size="10.4" lengthAdjust="spacing" textLength="36.8" x="310.4" y="265.9773">execute</text><line style="stroke:#181818;stroke-width:0.8000000000000002;" x1="547.6" x2="581.2" y1="294.1438" y2="294.1438"/><line style="stroke:#181818;stroke-width:0.8000000000000002;" x1="581.2" x2="581.2" y1="294.1438" y2="304.5438"/><line style="stroke:#181818;stroke-width:0.8000000000000002;" x1="548.4" x2="581.2" y1="304.5438" y2="304.5438"/><polygon fill="#181818" points="556.4,301.3438,548.4,304.5438,556.4,307.7438,553.2,304.5438" style="stroke:#181818;stroke-width:0.8000000000000002;"/><text fill="#000000" font-family="sans-serif" font-size="10.4" font-weight="bold" lengthAdjust="spacing" textLength="5.6" x="553.2" y="290.2586">8</text><text fill="#000000" font-family="sans-serif" font-size="10.4" lengthAdjust="spacing" textLength="74.4" x="562" y="290.2586">buildResponse()</text><polygon fill="#181818" points="300.8,349.625,292.8,352.825,300.8,356.025,297.6,352.825" style="stroke:#181818;stroke-width:0.8000000000000002;"/><line style="stroke:#181818;stroke-width:0.8000000000000002;stroke-dasharray:2.0,2.0;" x1="296" x2="538.8" y1="352.825" y2="352.825"/><text fill="#000000" font-family="sans-serif" font-size="10.4" font-weight="bold" lengthAdjust="spacing" textLength="5.6" x="305.6" y="348.9398">9</text><text fill="#000000" font-family="sans-serif" font-size="10.4" lengthAdjust="spacing" textLength="42.4" x="314.4" y="348.9398">response</text><!--MD5=[ab4436577c87d556e5814777487d29dd]
@startuml
autonumber
participant "DigitalTwinDaemon" as DAEMON
participant "DigitalTwinProtocolServer" as SERVER
participant "Handle" as HANDLER
participant "RequestMessageParser" as PARSER
participant "DigitalTwinProtocolRequest" as REQUEST


DAEMON -> SERVER : new
DAEMON -> SERVER : start
activate SERVER
SERVER -> SERVER : accept
activate SERVER
deactivate SERVER
SERVER -> HANDLER : start
activate HANDLER
deactivate SERVER
HANDLER -> PARSER : parse(request)
PARSER -> REQUEST** : new
HANDLER -> REQUEST : execute
activate REQUEST
REQUEST -> REQUEST : buildResponse()
activate REQUEST
deactivate REQUEST
REQUEST - -> HANDLER : response
deactivate REQUEST
deactivate HANDLER
@enduml

PlantUML version 1.2022.4(Sat Apr 09 14:29:17 BST 2022)
(GPL source distribution)
Java Runtime: OpenJDK Runtime Environment
JVM: OpenJDK 64-Bit Server VM
Default Encoding: Cp1252
Language: pt
Country: PT
--></g></svg>