<?xml version="1.0" encoding="UTF-8" standalone="no"?><svg xmlns="http://www.w3.org/2000/svg" xmlns:xlink="http://www.w3.org/1999/xlink" contentStyleType="text/css" height="1010px" preserveAspectRatio="none" style="width:826px;height:1010px;background:#FFFFFF;" version="1.1" viewBox="0 0 826 1010" width="826px" zoomAndPan="magnify"><defs/><g><!--MD5=[dfccfb5894388a46eaa5d679d3ea0882]
entity ClientRepository--><g id="elem_ClientRepository"><path d="M282.5,795 C282.5,785 344.5,785 344.5,785 C344.5,785 406.5,785 406.5,795 L406.5,821.6094 C406.5,831.6094 344.5,831.6094 344.5,831.6094 C344.5,831.6094 282.5,831.6094 282.5,821.6094 L282.5,795 " fill="#F1F1F1" style="stroke:#181818;stroke-width:0.5;"/><path d="M282.5,795 C282.5,805 344.5,805 344.5,805 C344.5,805 406.5,805 406.5,795 " fill="none" style="stroke:#181818;stroke-width:0.5;"/><text fill="#000000" font-family="sans-serif" font-size="14" lengthAdjust="spacing" textLength="104" x="292.5" y="823.5332">ClientRepository</text></g><!--MD5=[3b2fac3337560962ee5c895a18c30819]
entity ProductOrderRepository--><g id="elem_ProductOrderRepository"><path d="M441.5,795 C441.5,785 528.5,785 528.5,785 C528.5,785 615.5,785 615.5,795 L615.5,821.6094 C615.5,831.6094 528.5,831.6094 528.5,831.6094 C528.5,831.6094 441.5,831.6094 441.5,821.6094 L441.5,795 " fill="#F1F1F1" style="stroke:#181818;stroke-width:0.5;"/><path d="M441.5,795 C441.5,805 528.5,805 528.5,805 C528.5,805 615.5,805 615.5,795 " fill="none" style="stroke:#181818;stroke-width:0.5;"/><text fill="#000000" font-family="sans-serif" font-size="14" lengthAdjust="spacing" textLength="154" x="451.5" y="823.5332">ProductOrderRepository</text></g><!--MD5=[215d49166901d2a7cbefa310e050dd44]
class ListOpenOrdersUI--><g id="elem_ListOpenOrdersUI"><rect codeLine="5" fill="#F1F1F1" height="48" id="ListOpenOrdersUI" rx="2.5" ry="2.5" style="stroke:#181818;stroke-width:0.5;" width="145" x="62" y="7"/><ellipse cx="77" cy="23" fill="#ADD1B2" rx="11" ry="11" style="stroke:#181818;stroke-width:1.0;"/><path d="M79,19.5 Q79.2031,19 79.4375,18.75 Q79.6719,18.5 79.9375,18.5 Q80.4063,18.5 80.7031,18.7813 Q81,19.0625 81,19.7188 L81,21.2813 Q81,21.9375 80.7188,22.2188 Q80.4375,22.5 80,22.5 Q79.6094,22.5 79.3594,22.3281 Q79.1094,22.1563 79,21.7031 Q78.9531,21.3906 78.7813,21.2188 Q78.4688,20.8906 77.9063,20.7031 Q77.3438,20.5 76.7813,20.5 Q76.0781,20.5 75.4844,20.7813 Q74.9063,21.0625 74.4531,21.6875 Q74,22.3125 74,23.1719 L74,24.0938 Q74,25.125 74.8438,25.8125 Q75.6875,26.5 77.1875,26.5 Q78.0781,26.5 78.7031,26.2969 Q79.0625,26.1875 79.4688,25.8281 Q79.7344,25.625 79.875,25.5625 Q80.0156,25.5 80.1875,25.5 Q80.5156,25.5 80.75,25.7656 Q81,26.0156 81,26.375 Q81,26.7188 80.6563,27.125 Q80.1563,27.7188 79.3594,28.0469 Q78.3125,28.5 77.0313,28.5 Q75.5313,28.5 74.3281,27.9063 Q73.3594,27.4375 72.6719,26.4219 Q72,25.4063 72,24.2031 L72,23.1094 Q72,21.8594 72.5938,20.7656 Q73.2031,19.6719 74.25,19.0938 Q75.3125,18.5 76.5,18.5 Q77.2188,18.5 77.8438,18.75 Q78.4688,19 79,19.5 Z " fill="#000000"/><text fill="#000000" font-family="sans-serif" font-size="14" lengthAdjust="spacing" textLength="113" x="91" y="28.7285">ListOpenOrdersUI</text><line style="stroke:#181818;stroke-width:0.5;" x1="63" x2="206" y1="39" y2="39"/><line style="stroke:#181818;stroke-width:0.5;" x1="63" x2="206" y1="47" y2="47"/></g><!--MD5=[18924c91287af26ab752b8e16d69105f]
class ListOpenOrdersController--><g id="elem_ListOpenOrdersController"><rect codeLine="29" fill="#F1F1F1" height="65.6094" id="ListOpenOrdersController" rx="2.5" ry="2.5" style="stroke:#181818;stroke-width:0.5;" width="211" x="29" y="116"/><ellipse cx="51.2" cy="132" fill="#ADD1B2" rx="11" ry="11" style="stroke:#181818;stroke-width:1.0;"/><path d="M53.2,128.5 Q53.4031,128 53.6375,127.75 Q53.8719,127.5 54.1375,127.5 Q54.6063,127.5 54.9031,127.7813 Q55.2,128.0625 55.2,128.7188 L55.2,130.2813 Q55.2,130.9375 54.9188,131.2188 Q54.6375,131.5 54.2,131.5 Q53.8094,131.5 53.5594,131.3281 Q53.3094,131.1563 53.2,130.7031 Q53.1531,130.3906 52.9813,130.2188 Q52.6688,129.8906 52.1063,129.7031 Q51.5438,129.5 50.9813,129.5 Q50.2781,129.5 49.6844,129.7813 Q49.1063,130.0625 48.6531,130.6875 Q48.2,131.3125 48.2,132.1719 L48.2,133.0938 Q48.2,134.125 49.0438,134.8125 Q49.8875,135.5 51.3875,135.5 Q52.2781,135.5 52.9031,135.2969 Q53.2625,135.1875 53.6688,134.8281 Q53.9344,134.625 54.075,134.5625 Q54.2156,134.5 54.3875,134.5 Q54.7156,134.5 54.95,134.7656 Q55.2,135.0156 55.2,135.375 Q55.2,135.7188 54.8563,136.125 Q54.3563,136.7188 53.5594,137.0469 Q52.5125,137.5 51.2313,137.5 Q49.7313,137.5 48.5281,136.9063 Q47.5594,136.4375 46.8719,135.4219 Q46.2,134.4063 46.2,133.2031 L46.2,132.1094 Q46.2,130.8594 46.7938,129.7656 Q47.4031,128.6719 48.45,128.0938 Q49.5125,127.5 50.7,127.5 Q51.4188,127.5 52.0438,127.75 Q52.6688,128 53.2,128.5 Z " fill="#000000"/><text fill="#000000" font-family="sans-serif" font-size="14" lengthAdjust="spacing" textLength="163" x="66.8" y="137.7285">ListOpenOrdersController</text><line style="stroke:#181818;stroke-width:0.5;" x1="30" x2="239" y1="148" y2="148"/><line style="stroke:#181818;stroke-width:0.5;" x1="30" x2="239" y1="156" y2="156"/><ellipse cx="40" cy="167" fill="#84BE84" rx="3" ry="3" style="stroke:#038048;stroke-width:1.0;"/><text fill="#000000" font-family="sans-serif" font-size="14" lengthAdjust="spacing" textLength="185" x="49" y="174.5332">getOpenOrdersOfTheClient()</text></g><!--MD5=[83bab693175e87235378ec6237fd69a5]
class ListOpenOrdersService--><g id="elem_ListOpenOrdersService"><rect codeLine="33" fill="#F1F1F1" height="65.6094" id="ListOpenOrdersService" rx="2.5" ry="2.5" style="stroke:#181818;stroke-width:0.5;" width="255" x="7" y="243"/><ellipse cx="56.25" cy="259" fill="#ADD1B2" rx="11" ry="11" style="stroke:#181818;stroke-width:1.0;"/><path d="M58.25,255.5 Q58.4531,255 58.6875,254.75 Q58.9219,254.5 59.1875,254.5 Q59.6563,254.5 59.9531,254.7813 Q60.25,255.0625 60.25,255.7188 L60.25,257.2813 Q60.25,257.9375 59.9688,258.2188 Q59.6875,258.5 59.25,258.5 Q58.8594,258.5 58.6094,258.3281 Q58.3594,258.1563 58.25,257.7031 Q58.2031,257.3906 58.0313,257.2188 Q57.7188,256.8906 57.1563,256.7031 Q56.5938,256.5 56.0313,256.5 Q55.3281,256.5 54.7344,256.7813 Q54.1563,257.0625 53.7031,257.6875 Q53.25,258.3125 53.25,259.1719 L53.25,260.0938 Q53.25,261.125 54.0938,261.8125 Q54.9375,262.5 56.4375,262.5 Q57.3281,262.5 57.9531,262.2969 Q58.3125,262.1875 58.7188,261.8281 Q58.9844,261.625 59.125,261.5625 Q59.2656,261.5 59.4375,261.5 Q59.7656,261.5 60,261.7656 Q60.25,262.0156 60.25,262.375 Q60.25,262.7188 59.9063,263.125 Q59.4063,263.7188 58.6094,264.0469 Q57.5625,264.5 56.2813,264.5 Q54.7813,264.5 53.5781,263.9063 Q52.6094,263.4375 51.9219,262.4219 Q51.25,261.4063 51.25,260.2031 L51.25,259.1094 Q51.25,257.8594 51.8438,256.7656 Q52.4531,255.6719 53.5,255.0938 Q54.5625,254.5 55.75,254.5 Q56.4688,254.5 57.0938,254.75 Q57.7188,255 58.25,255.5 Z " fill="#000000"/><text fill="#000000" font-family="sans-serif" font-size="14" lengthAdjust="spacing" textLength="148" x="76.75" y="264.7285">ListOpenOrdersService</text><line style="stroke:#181818;stroke-width:0.5;" x1="8" x2="261" y1="275" y2="275"/><line style="stroke:#181818;stroke-width:0.5;" x1="8" x2="261" y1="283" y2="283"/><ellipse cx="18" cy="294" fill="#84BE84" rx="3" ry="3" style="stroke:#038048;stroke-width:1.0;"/><text fill="#000000" font-family="sans-serif" font-size="14" lengthAdjust="spacing" textLength="229" x="27" y="301.5332">getOpenOrdersOfTheClient(clientId)</text></g><!--MD5=[9265192601ae3d68217fc2a2ce1ea439]
class ProductOrder--><g id="elem_ProductOrder"><rect codeLine="8" fill="#F1F1F1" height="48" id="ProductOrder" rx="2.5" ry="2.5" style="stroke:#181818;stroke-width:0.5;" width="118" x="398.5" y="955"/><ellipse cx="413.5" cy="971" fill="#ADD1B2" rx="11" ry="11" style="stroke:#181818;stroke-width:1.0;"/><path d="M415.5,967.5 Q415.7031,967 415.9375,966.75 Q416.1719,966.5 416.4375,966.5 Q416.9063,966.5 417.2031,966.7813 Q417.5,967.0625 417.5,967.7188 L417.5,969.2813 Q417.5,969.9375 417.2188,970.2188 Q416.9375,970.5 416.5,970.5 Q416.1094,970.5 415.8594,970.3281 Q415.6094,970.1563 415.5,969.7031 Q415.4531,969.3906 415.2813,969.2188 Q414.9688,968.8906 414.4063,968.7031 Q413.8438,968.5 413.2813,968.5 Q412.5781,968.5 411.9844,968.7813 Q411.4063,969.0625 410.9531,969.6875 Q410.5,970.3125 410.5,971.1719 L410.5,972.0938 Q410.5,973.125 411.3438,973.8125 Q412.1875,974.5 413.6875,974.5 Q414.5781,974.5 415.2031,974.2969 Q415.5625,974.1875 415.9688,973.8281 Q416.2344,973.625 416.375,973.5625 Q416.5156,973.5 416.6875,973.5 Q417.0156,973.5 417.25,973.7656 Q417.5,974.0156 417.5,974.375 Q417.5,974.7188 417.1563,975.125 Q416.6563,975.7188 415.8594,976.0469 Q414.8125,976.5 413.5313,976.5 Q412.0313,976.5 410.8281,975.9063 Q409.8594,975.4375 409.1719,974.4219 Q408.5,973.4063 408.5,972.2031 L408.5,971.1094 Q408.5,969.8594 409.0938,968.7656 Q409.7031,967.6719 410.75,967.0938 Q411.8125,966.5 413,966.5 Q413.7188,966.5 414.3438,966.75 Q414.9688,967 415.5,967.5 Z " fill="#000000"/><text fill="#000000" font-family="sans-serif" font-size="14" lengthAdjust="spacing" textLength="86" x="427.5" y="976.7285">ProductOrder</text><line style="stroke:#181818;stroke-width:0.5;" x1="399.5" x2="515.5" y1="987" y2="987"/><line style="stroke:#181818;stroke-width:0.5;" x1="399.5" x2="515.5" y1="995" y2="995"/></g><!--MD5=[3d00c3b79812edf678a6a97589ba185b]
class ProductOrderDTO--><g id="elem_ProductOrderDTO"><rect codeLine="9" fill="#F1F1F1" height="48" id="ProductOrderDTO" rx="2.5" ry="2.5" style="stroke:#181818;stroke-width:0.5;" width="148" x="28.5" y="496.5"/><ellipse cx="43.5" cy="512.5" fill="#ADD1B2" rx="11" ry="11" style="stroke:#181818;stroke-width:1.0;"/><path d="M45.5,509 Q45.7031,508.5 45.9375,508.25 Q46.1719,508 46.4375,508 Q46.9063,508 47.2031,508.2813 Q47.5,508.5625 47.5,509.2188 L47.5,510.7813 Q47.5,511.4375 47.2188,511.7188 Q46.9375,512 46.5,512 Q46.1094,512 45.8594,511.8281 Q45.6094,511.6563 45.5,511.2031 Q45.4531,510.8906 45.2813,510.7188 Q44.9688,510.3906 44.4063,510.2031 Q43.8438,510 43.2813,510 Q42.5781,510 41.9844,510.2813 Q41.4063,510.5625 40.9531,511.1875 Q40.5,511.8125 40.5,512.6719 L40.5,513.5938 Q40.5,514.625 41.3438,515.3125 Q42.1875,516 43.6875,516 Q44.5781,516 45.2031,515.7969 Q45.5625,515.6875 45.9688,515.3281 Q46.2344,515.125 46.375,515.0625 Q46.5156,515 46.6875,515 Q47.0156,515 47.25,515.2656 Q47.5,515.5156 47.5,515.875 Q47.5,516.2188 47.1563,516.625 Q46.6563,517.2188 45.8594,517.5469 Q44.8125,518 43.5313,518 Q42.0313,518 40.8281,517.4063 Q39.8594,516.9375 39.1719,515.9219 Q38.5,514.9063 38.5,513.7031 L38.5,512.6094 Q38.5,511.3594 39.0938,510.2656 Q39.7031,509.1719 40.75,508.5938 Q41.8125,508 43,508 Q43.7188,508 44.3438,508.25 Q44.9688,508.5 45.5,509 Z " fill="#000000"/><text fill="#000000" font-family="sans-serif" font-size="14" lengthAdjust="spacing" textLength="116" x="57.5" y="518.2285">ProductOrderDTO</text><line style="stroke:#181818;stroke-width:0.5;" x1="29.5" x2="175.5" y1="528.5" y2="528.5"/><line style="stroke:#181818;stroke-width:0.5;" x1="29.5" x2="175.5" y1="536.5" y2="536.5"/></g><!--MD5=[fe4f3f83a51d21fc9306dfc278fe5ea6]
class TcpOrderSrv--><g id="elem_TcpOrderSrv"><rect codeLine="10" fill="#F1F1F1" height="48" id="TcpOrderSrv" rx="2.5" ry="2.5" style="stroke:#181818;stroke-width:0.5;" width="114" x="243.5" y="370"/><ellipse cx="258.5" cy="386" fill="#ADD1B2" rx="11" ry="11" style="stroke:#181818;stroke-width:1.0;"/><path d="M260.5,382.5 Q260.7031,382 260.9375,381.75 Q261.1719,381.5 261.4375,381.5 Q261.9063,381.5 262.2031,381.7813 Q262.5,382.0625 262.5,382.7188 L262.5,384.2813 Q262.5,384.9375 262.2188,385.2188 Q261.9375,385.5 261.5,385.5 Q261.1094,385.5 260.8594,385.3281 Q260.6094,385.1563 260.5,384.7031 Q260.4531,384.3906 260.2813,384.2188 Q259.9688,383.8906 259.4063,383.7031 Q258.8438,383.5 258.2813,383.5 Q257.5781,383.5 256.9844,383.7813 Q256.4063,384.0625 255.9531,384.6875 Q255.5,385.3125 255.5,386.1719 L255.5,387.0938 Q255.5,388.125 256.3438,388.8125 Q257.1875,389.5 258.6875,389.5 Q259.5781,389.5 260.2031,389.2969 Q260.5625,389.1875 260.9688,388.8281 Q261.2344,388.625 261.375,388.5625 Q261.5156,388.5 261.6875,388.5 Q262.0156,388.5 262.25,388.7656 Q262.5,389.0156 262.5,389.375 Q262.5,389.7188 262.1563,390.125 Q261.6563,390.7188 260.8594,391.0469 Q259.8125,391.5 258.5313,391.5 Q257.0313,391.5 255.8281,390.9063 Q254.8594,390.4375 254.1719,389.4219 Q253.5,388.4063 253.5,387.2031 L253.5,386.1094 Q253.5,384.8594 254.0938,383.7656 Q254.7031,382.6719 255.75,382.0938 Q256.8125,381.5 258,381.5 Q258.7188,381.5 259.3438,381.75 Q259.9688,382 260.5,382.5 Z " fill="#000000"/><text fill="#000000" font-family="sans-serif" font-size="14" lengthAdjust="spacing" textLength="82" x="272.5" y="391.7285">TcpOrderSrv</text><line style="stroke:#181818;stroke-width:0.5;" x1="244.5" x2="356.5" y1="402" y2="402"/><line style="stroke:#181818;stroke-width:0.5;" x1="244.5" x2="356.5" y1="410" y2="410"/></g><!--MD5=[e8c189551b7885b999ad7cefb30fc2a3]
class PersistenceContext--><g id="elem_PersistenceContext"><rect codeLine="14" fill="#F1F1F1" height="65.6094" id="PersistenceContext" rx="2.5" ry="2.5" style="stroke:#181818;stroke-width:0.5;" width="154" x="353.5" y="487.5"/><ellipse cx="368.5" cy="503.5" fill="#ADD1B2" rx="11" ry="11" style="stroke:#181818;stroke-width:1.0;"/><path d="M370.5,500 Q370.7031,499.5 370.9375,499.25 Q371.1719,499 371.4375,499 Q371.9063,499 372.2031,499.2813 Q372.5,499.5625 372.5,500.2188 L372.5,501.7813 Q372.5,502.4375 372.2188,502.7188 Q371.9375,503 371.5,503 Q371.1094,503 370.8594,502.8281 Q370.6094,502.6563 370.5,502.2031 Q370.4531,501.8906 370.2813,501.7188 Q369.9688,501.3906 369.4063,501.2031 Q368.8438,501 368.2813,501 Q367.5781,501 366.9844,501.2813 Q366.4063,501.5625 365.9531,502.1875 Q365.5,502.8125 365.5,503.6719 L365.5,504.5938 Q365.5,505.625 366.3438,506.3125 Q367.1875,507 368.6875,507 Q369.5781,507 370.2031,506.7969 Q370.5625,506.6875 370.9688,506.3281 Q371.2344,506.125 371.375,506.0625 Q371.5156,506 371.6875,506 Q372.0156,506 372.25,506.2656 Q372.5,506.5156 372.5,506.875 Q372.5,507.2188 372.1563,507.625 Q371.6563,508.2188 370.8594,508.5469 Q369.8125,509 368.5313,509 Q367.0313,509 365.8281,508.4063 Q364.8594,507.9375 364.1719,506.9219 Q363.5,505.9063 363.5,504.7031 L363.5,503.6094 Q363.5,502.3594 364.0938,501.2656 Q364.7031,500.1719 365.75,499.5938 Q366.8125,499 368,499 Q368.7188,499 369.3438,499.25 Q369.9688,499.5 370.5,500 Z " fill="#000000"/><text fill="#000000" font-family="sans-serif" font-size="14" lengthAdjust="spacing" textLength="122" x="382.5" y="509.2285">PersistenceContext</text><line style="stroke:#181818;stroke-width:0.5;" x1="354.5" x2="506.5" y1="519.5" y2="519.5"/><line style="stroke:#181818;stroke-width:0.5;" x1="354.5" x2="506.5" y1="527.5" y2="527.5"/><ellipse cx="364.5" cy="538.5" fill="#84BE84" rx="3" ry="3" style="stroke:#038048;stroke-width:1.0;"/><text fill="#000000" font-family="sans-serif" font-size="14" lengthAdjust="spacing" textLength="84" x="373.5" y="546.0332">repositories()</text></g><!--MD5=[ed6624c6556d5e7b1bd23032162d20b7]
class Client--><g id="elem_Client"><rect codeLine="19" fill="#F1F1F1" height="65.6094" id="Client" rx="2.5" ry="2.5" style="stroke:#181818;stroke-width:0.5;" width="76" x="542.5" y="487.5"/><ellipse cx="561.1" cy="503.5" fill="#ADD1B2" rx="11" ry="11" style="stroke:#181818;stroke-width:1.0;"/><path d="M563.1,500 Q563.3031,499.5 563.5375,499.25 Q563.7719,499 564.0375,499 Q564.5063,499 564.8031,499.2813 Q565.1,499.5625 565.1,500.2188 L565.1,501.7813 Q565.1,502.4375 564.8188,502.7188 Q564.5375,503 564.1,503 Q563.7094,503 563.4594,502.8281 Q563.2094,502.6563 563.1,502.2031 Q563.0531,501.8906 562.8813,501.7188 Q562.5688,501.3906 562.0063,501.2031 Q561.4438,501 560.8813,501 Q560.1781,501 559.5844,501.2813 Q559.0063,501.5625 558.5531,502.1875 Q558.1,502.8125 558.1,503.6719 L558.1,504.5938 Q558.1,505.625 558.9438,506.3125 Q559.7875,507 561.2875,507 Q562.1781,507 562.8031,506.7969 Q563.1625,506.6875 563.5688,506.3281 Q563.8344,506.125 563.975,506.0625 Q564.1156,506 564.2875,506 Q564.6156,506 564.85,506.2656 Q565.1,506.5156 565.1,506.875 Q565.1,507.2188 564.7563,507.625 Q564.2563,508.2188 563.4594,508.5469 Q562.4125,509 561.1313,509 Q559.6313,509 558.4281,508.4063 Q557.4594,507.9375 556.7719,506.9219 Q556.1,505.9063 556.1,504.7031 L556.1,503.6094 Q556.1,502.3594 556.6938,501.2656 Q557.3031,500.1719 558.35,499.5938 Q559.4125,499 560.6,499 Q561.3188,499 561.9438,499.25 Q562.5688,499.5 563.1,500 Z " fill="#000000"/><text fill="#000000" font-family="sans-serif" font-size="14" lengthAdjust="spacing" textLength="36" x="575.9" y="509.2285">Client</text><line style="stroke:#181818;stroke-width:0.5;" x1="543.5" x2="617.5" y1="519.5" y2="519.5"/><line style="stroke:#181818;stroke-width:0.5;" x1="543.5" x2="617.5" y1="527.5" y2="527.5"/><ellipse cx="553.5" cy="538.5" fill="#84BE84" rx="3" ry="3" style="stroke:#038048;stroke-width:1.0;"/><text fill="#000000" font-family="sans-serif" font-size="14" lengthAdjust="spacing" textLength="50" x="562.5" y="546.0332">create()</text></g><!--MD5=[288bffab58163169a8d16c57b889bc0c]
class TransactionalContext--><g id="elem_TransactionalContext"><rect codeLine="23" fill="#F1F1F1" height="83.2188" id="TransactionalContext" rx="2.5" ry="2.5" style="stroke:#181818;stroke-width:0.5;" width="166" x="653.5" y="479"/><ellipse cx="668.5" cy="495" fill="#ADD1B2" rx="11" ry="11" style="stroke:#181818;stroke-width:1.0;"/><path d="M670.5,491.5 Q670.7031,491 670.9375,490.75 Q671.1719,490.5 671.4375,490.5 Q671.9063,490.5 672.2031,490.7813 Q672.5,491.0625 672.5,491.7188 L672.5,493.2813 Q672.5,493.9375 672.2188,494.2188 Q671.9375,494.5 671.5,494.5 Q671.1094,494.5 670.8594,494.3281 Q670.6094,494.1563 670.5,493.7031 Q670.4531,493.3906 670.2813,493.2188 Q669.9688,492.8906 669.4063,492.7031 Q668.8438,492.5 668.2813,492.5 Q667.5781,492.5 666.9844,492.7813 Q666.4063,493.0625 665.9531,493.6875 Q665.5,494.3125 665.5,495.1719 L665.5,496.0938 Q665.5,497.125 666.3438,497.8125 Q667.1875,498.5 668.6875,498.5 Q669.5781,498.5 670.2031,498.2969 Q670.5625,498.1875 670.9688,497.8281 Q671.2344,497.625 671.375,497.5625 Q671.5156,497.5 671.6875,497.5 Q672.0156,497.5 672.25,497.7656 Q672.5,498.0156 672.5,498.375 Q672.5,498.7188 672.1563,499.125 Q671.6563,499.7188 670.8594,500.0469 Q669.8125,500.5 668.5313,500.5 Q667.0313,500.5 665.8281,499.9063 Q664.8594,499.4375 664.1719,498.4219 Q663.5,497.4063 663.5,496.2031 L663.5,495.1094 Q663.5,493.8594 664.0938,492.7656 Q664.7031,491.6719 665.75,491.0938 Q666.8125,490.5 668,490.5 Q668.7188,490.5 669.3438,490.75 Q669.9688,491 670.5,491.5 Z " fill="#000000"/><text fill="#000000" font-family="sans-serif" font-size="14" lengthAdjust="spacing" textLength="134" x="682.5" y="500.7285">TransactionalContext</text><line style="stroke:#181818;stroke-width:0.5;" x1="654.5" x2="818.5" y1="511" y2="511"/><line style="stroke:#181818;stroke-width:0.5;" x1="654.5" x2="818.5" y1="519" y2="519"/><ellipse cx="664.5" cy="530" fill="#84BE84" rx="3" ry="3" style="stroke:#038048;stroke-width:1.0;"/><text fill="#000000" font-family="sans-serif" font-size="14" lengthAdjust="spacing" textLength="120" x="673.5" y="537.5332">beginTransaction()</text><ellipse cx="664.5" cy="547.6094" fill="#84BE84" rx="3" ry="3" style="stroke:#038048;stroke-width:1.0;"/><text fill="#000000" font-family="sans-serif" font-size="14" lengthAdjust="spacing" textLength="54" x="673.5" y="555.1426">commit()</text></g><!--MD5=[48590afff58a68e2fcba47824d6f8a11]
class RepositoryFactory--><g id="elem_RepositoryFactory"><rect codeLine="48" fill="#F1F1F1" height="100.8281" id="RepositoryFactory" rx="2.5" ry="2.5" style="stroke:#181818;stroke-width:0.5;" width="231" x="354" y="623"/><ellipse cx="407.25" cy="639" fill="#ADD1B2" rx="11" ry="11" style="stroke:#181818;stroke-width:1.0;"/><path d="M409.25,635.5 Q409.4531,635 409.6875,634.75 Q409.9219,634.5 410.1875,634.5 Q410.6563,634.5 410.9531,634.7813 Q411.25,635.0625 411.25,635.7188 L411.25,637.2813 Q411.25,637.9375 410.9688,638.2188 Q410.6875,638.5 410.25,638.5 Q409.8594,638.5 409.6094,638.3281 Q409.3594,638.1563 409.25,637.7031 Q409.2031,637.3906 409.0313,637.2188 Q408.7188,636.8906 408.1563,636.7031 Q407.5938,636.5 407.0313,636.5 Q406.3281,636.5 405.7344,636.7813 Q405.1563,637.0625 404.7031,637.6875 Q404.25,638.3125 404.25,639.1719 L404.25,640.0938 Q404.25,641.125 405.0938,641.8125 Q405.9375,642.5 407.4375,642.5 Q408.3281,642.5 408.9531,642.2969 Q409.3125,642.1875 409.7188,641.8281 Q409.9844,641.625 410.125,641.5625 Q410.2656,641.5 410.4375,641.5 Q410.7656,641.5 411,641.7656 Q411.25,642.0156 411.25,642.375 Q411.25,642.7188 410.9063,643.125 Q410.4063,643.7188 409.6094,644.0469 Q408.5625,644.5 407.2813,644.5 Q405.7813,644.5 404.5781,643.9063 Q403.6094,643.4375 402.9219,642.4219 Q402.25,641.4063 402.25,640.2031 L402.25,639.1094 Q402.25,637.8594 402.8438,636.7656 Q403.4531,635.6719 404.5,635.0938 Q405.5625,634.5 406.75,634.5 Q407.4688,634.5 408.0938,634.75 Q408.7188,635 409.25,635.5 Z " fill="#000000"/><text fill="#000000" font-family="sans-serif" font-size="14" lengthAdjust="spacing" textLength="116" x="427.75" y="644.7285">RepositoryFactory</text><line style="stroke:#181818;stroke-width:0.5;" x1="355" x2="584" y1="655" y2="655"/><line style="stroke:#181818;stroke-width:0.5;" x1="355" x2="584" y1="663" y2="663"/><ellipse cx="365" cy="674" fill="#84BE84" rx="3" ry="3" style="stroke:#038048;stroke-width:1.0;"/><text fill="#000000" font-family="sans-serif" font-size="14" lengthAdjust="spacing" textLength="50" x="374" y="681.5332">create()</text><ellipse cx="365" cy="691.6094" fill="#84BE84" rx="3" ry="3" style="stroke:#038048;stroke-width:1.0;"/><text fill="#000000" font-family="sans-serif" font-size="14" lengthAdjust="spacing" textLength="169" x="374" y="699.1426">newTransactionalContext()</text><ellipse cx="365" cy="709.2188" fill="#84BE84" rx="3" ry="3" style="stroke:#038048;stroke-width:1.0;"/><text fill="#000000" font-family="sans-serif" font-size="14" lengthAdjust="spacing" textLength="205" x="374" y="716.752">create(TransactionalContext ctx)</text></g><!--MD5=[aadea6dd1b5ab6b909d54bc19c5ba921]
link ListOpenOrdersUI to ListOpenOrdersController--><g id="link_ListOpenOrdersUI_ListOpenOrdersController"><path codeLine="54" d="M134.5,55.2 C134.5,71.03 134.5,92.36 134.5,110.57 " fill="none" id="ListOpenOrdersUI-to-ListOpenOrdersController" style="stroke:#181818;stroke-width:1.0;"/><polygon fill="#181818" points="134.5,115.62,138.5,106.62,134.5,110.62,130.5,106.62,134.5,115.62" style="stroke:#181818;stroke-width:1.0;"/></g><!--MD5=[feb171ff2dc3d1c998260731cb233555]
link ListOpenOrdersController to ListOpenOrdersService--><g id="link_ListOpenOrdersController_ListOpenOrdersService"><path codeLine="55" d="M134.5,182.19 C134.5,199.1 134.5,219.92 134.5,237.56 " fill="none" id="ListOpenOrdersController-to-ListOpenOrdersService" style="stroke:#181818;stroke-width:1.0;"/><polygon fill="#181818" points="134.5,242.92,138.5,233.92,134.5,237.92,130.5,233.92,134.5,242.92" style="stroke:#181818;stroke-width:1.0;"/></g><!--MD5=[f6ad6ae1a0c8b78eb2031c79c660eb79]
link ListOpenOrdersService to TcpOrderSrv--><g id="link_ListOpenOrdersService_TcpOrderSrv"><path codeLine="56" d="M180.3,309 C206.43,327.26 238.75,349.85 263.3,367.01 " fill="none" id="ListOpenOrdersService-to-TcpOrderSrv" style="stroke:#181818;stroke-width:1.0;"/><polygon fill="#181818" points="267.48,369.93,262.383,361.5026,263.3778,367.0713,257.8091,368.0661,267.48,369.93" style="stroke:#181818;stroke-width:1.0;"/></g><!--MD5=[e0276a72b0df9b685003c8b8a005ebbd]
link ListOpenOrdersService to ProductOrderDTO--><g id="link_ListOpenOrdersService_ProductOrderDTO"><path codeLine="57" d="M130.25,309.2 C123.95,356.96 112.22,445.81 106.23,491.21 " fill="none" id="ListOpenOrdersService-to-ProductOrderDTO" style="stroke:#181818;stroke-width:1.0;"/><polygon fill="#181818" points="105.57,496.26,110.718,487.8637,106.2271,491.3034,102.7874,486.8124,105.57,496.26" style="stroke:#181818;stroke-width:1.0;"/></g><!--MD5=[71e1560c0428c3f9bffe2c6dc1e08479]
link TcpOrderSrv to ClientRepository--><g id="link_TcpOrderSrv_ClientRepository"><path codeLine="58" d="M302.96,418.06 C310.51,488.81 333.31,702.64 341.52,779.56 " fill="none" id="TcpOrderSrv-to-ClientRepository" style="stroke:#181818;stroke-width:1.0;"/><polygon fill="#181818" points="342.08,784.85,345.106,775.4775,341.5514,779.878,337.1509,776.3233,342.08,784.85" style="stroke:#181818;stroke-width:1.0;"/></g><!--MD5=[e68f21e724f641dd645b14afda9ea0dc]
link TcpOrderSrv to ProductOrderDTO--><g id="link_TcpOrderSrv_ProductOrderDTO"><path codeLine="59" d="M255.45,418.21 C238.88,427.12 220.1,437.64 203.5,448 C180.97,462.07 156.64,479.23 137.5,493.21 " fill="none" id="TcpOrderSrv-to-ProductOrderDTO" style="stroke:#181818;stroke-width:1.0;"/><polygon fill="#181818" points="133.26,496.32,142.8857,494.2352,137.2956,493.3681,138.1627,487.7781,133.26,496.32" style="stroke:#181818;stroke-width:1.0;"/></g><!--MD5=[372ebea238a738e4f1377aaaecc21742]
link TcpOrderSrv to ProductOrder--><g id="link_TcpOrderSrv_ProductOrder"><path codeLine="60" d="M277.64,418.04 C256.89,441.49 229.5,479.94 229.5,519.5 C229.5,519.5 229.5,519.5 229.5,894 C229.5,929.1 325.85,954.06 393.28,967.23 " fill="none" id="TcpOrderSrv-to-ProductOrder" style="stroke:#181818;stroke-width:1.0;"/><polygon fill="#181818" points="398.49,968.24,390.4049,962.6158,393.5796,967.2979,388.8975,970.4725,398.49,968.24" style="stroke:#181818;stroke-width:1.0;"/></g><!--MD5=[23d6416d2396c98b1f4f055c763c4ed7]
link TcpOrderSrv to Client--><g id="link_TcpOrderSrv_Client"><path codeLine="61" d="M357.54,411.72 C403.93,426.4 470.33,449.94 524.5,479 C528.94,481.38 533.43,484.07 537.84,486.91 " fill="none" id="TcpOrderSrv-to-Client" style="stroke:#181818;stroke-width:1.0;"/><polygon fill="#181818" points="542.21,489.78,536.8746,481.5015,538.0279,487.0395,532.4899,488.1928,542.21,489.78" style="stroke:#181818;stroke-width:1.0;"/></g><!--MD5=[b2762c66afa416a41250d4f4f03e5f20]
link TcpOrderSrv to PersistenceContext--><g id="link_TcpOrderSrv_PersistenceContext"><path codeLine="64" d="M324.65,418.13 C343.81,436.47 370.93,462.45 392.92,483.51 " fill="none" id="TcpOrderSrv-to-PersistenceContext" style="stroke:#181818;stroke-width:1.0;"/><polygon fill="#181818" points="396.68,487.11,392.9411,477.9984,393.0668,483.6539,387.4113,483.7796,396.68,487.11" style="stroke:#181818;stroke-width:1.0;"/></g><!--MD5=[97a748f4144e4d4df82cafcc90eb3c6c]
link TcpOrderSrv to TransactionalContext--><g id="link_TcpOrderSrv_TransactionalContext"><path codeLine="65" d="M357.77,406.88 C425.01,421.39 539.53,447.89 635.5,479 C639.79,480.39 644.16,481.87 648.55,483.42 " fill="none" id="TcpOrderSrv-to-TransactionalContext" style="stroke:#181818;stroke-width:1.0;"/><polygon fill="#181818" points="653.33,485.12,646.1905,478.3356,648.619,483.4447,643.51,485.8732,653.33,485.12" style="stroke:#181818;stroke-width:1.0;"/></g><!--MD5=[754b775031405e096442b27febffa290]
link PersistenceContext to RepositoryFactory--><g id="link_PersistenceContext_RepositoryFactory"><path codeLine="67" d="M438.77,553.52 C443.61,572.28 449.86,596.46 455.45,618.12 " fill="none" id="PersistenceContext-to-RepositoryFactory" style="stroke:#181818;stroke-width:1.0;"/><polygon fill="#181818" points="456.71,622.99,458.3472,613.2782,455.4671,618.1469,450.5983,615.2668,456.71,622.99" style="stroke:#181818;stroke-width:1.0;"/></g><!--MD5=[7e98ba641e2771e3efc9b333390cc0aa]
link RepositoryFactory to ClientRepository--><g id="link_RepositoryFactory_ClientRepository"><path codeLine="68" d="M422.95,724.02 C404.91,743.22 384.96,764.45 369.7,780.69 " fill="none" id="RepositoryFactory-to-ClientRepository" style="stroke:#181818;stroke-width:1.0;"/><polygon fill="#181818" points="365.92,784.71,374.9931,780.8787,369.3392,781.0619,369.1561,775.408,365.92,784.71" style="stroke:#181818;stroke-width:1.0;"/></g><!--MD5=[96e9cbc266da12541d92a41249a1d1e8]
link RepositoryFactory to ProductOrderRepository--><g id="link_RepositoryFactory_ProductOrderRepository"><path codeLine="69" d="M491.47,724.02 C499.84,742.9 509.08,763.73 516.24,779.86 " fill="none" id="RepositoryFactory-to-ProductOrderRepository" style="stroke:#181818;stroke-width:1.0;"/><polygon fill="#181818" points="518.39,784.71,518.3957,774.8611,516.362,780.1398,511.0833,778.106,518.39,784.71" style="stroke:#181818;stroke-width:1.0;"/></g><!--MD5=[25bf4bc8ad4bff386f607a6dc74ec284]
link Client to ProductOrder--><g id="link_Client_ProductOrder"><path codeLine="71" d="M618.7,552.26 C648.73,580.12 685.5,624.13 685.5,672.5 C685.5,672.5 685.5,672.5 685.5,894 C685.5,929.1 589.15,954.06 521.72,967.23 " fill="none" id="Client-to-ProductOrder" style="stroke:#181818;stroke-width:1.0;"/><polygon fill="#181818" points="516.51,968.24,526.1025,970.4725,521.4204,967.2979,524.5951,962.6158,516.51,968.24" style="stroke:#181818;stroke-width:1.0;"/><text fill="#000000" font-family="sans-serif" font-size="13" lengthAdjust="spacing" textLength="63" x="686.5" y="813.9951">associated</text><text fill="#000000" font-family="sans-serif" font-size="13" lengthAdjust="spacing" textLength="7" x="524.5191" y="963.354">1</text></g><!--MD5=[d3231d048780485e4210bae7506e6672]
@startuml
'https://plantuml.com/class-diagram



class ListOpenOrdersUI
class ListOpenOrdersController
class ListOpenOrdersService
class ProductOrder
class ProductOrderDTO
class TcpOrderSrv



class PersistenceContext{
+repositories()
}


class Client{
+create()
}

class TransactionalContext{
+beginTransaction()
+commit()
}


class ListOpenOrdersController {
+getOpenOrdersOfTheClient()
}

class ListOpenOrdersService {
+getOpenOrdersOfTheClient(clientId)

}



database ClientRepository{
}

database ProductOrderRepository {
}



class RepositoryFactory{
+create()
+newTransactionalContext()
+create(TransactionalContext ctx)
}

ListOpenOrdersUI - -> ListOpenOrdersController
ListOpenOrdersController - -> ListOpenOrdersService
ListOpenOrdersService - -> TcpOrderSrv
ListOpenOrdersService - -> ProductOrderDTO
TcpOrderSrv - -> ClientRepository
TcpOrderSrv - -> ProductOrderDTO
TcpOrderSrv - -> ProductOrder
TcpOrderSrv - -> Client


TcpOrderSrv - ->PersistenceContext
TcpOrderSrv - ->TransactionalContext

PersistenceContext - ->RepositoryFactory
RepositoryFactory - ->ClientRepository
RepositoryFactory - ->ProductOrderRepository

Client - - - - -> "1" ProductOrder : associated

@enduml

@startuml



class ListOpenOrdersUI
class ListOpenOrdersController
class ListOpenOrdersService
class ProductOrder
class ProductOrderDTO
class TcpOrderSrv



class PersistenceContext{
+repositories()
}


class Client{
+create()
}

class TransactionalContext{
+beginTransaction()
+commit()
}


class ListOpenOrdersController {
+getOpenOrdersOfTheClient()
}

class ListOpenOrdersService {
+getOpenOrdersOfTheClient(clientId)

}



database ClientRepository{
}

database ProductOrderRepository {
}



class RepositoryFactory{
+create()
+newTransactionalContext()
+create(TransactionalContext ctx)
}

ListOpenOrdersUI - -> ListOpenOrdersController
ListOpenOrdersController - -> ListOpenOrdersService
ListOpenOrdersService - -> TcpOrderSrv
ListOpenOrdersService - -> ProductOrderDTO
TcpOrderSrv - -> ClientRepository
TcpOrderSrv - -> ProductOrderDTO
TcpOrderSrv - -> ProductOrder
TcpOrderSrv - -> Client


TcpOrderSrv - ->PersistenceContext
TcpOrderSrv - ->TransactionalContext

PersistenceContext - ->RepositoryFactory
RepositoryFactory - ->ClientRepository
RepositoryFactory - ->ProductOrderRepository

Client - - - - -> "1" ProductOrder : associated

@enduml

PlantUML version 1.2022.4(Sat Apr 09 14:29:17 BST 2022)
(GPL source distribution)
Java Runtime: OpenJDK Runtime Environment
JVM: OpenJDK 64-Bit Server VM
Default Encoding: Cp1252
Language: pt
Country: PT
--></g></svg>