<?xml version="1.0" encoding="UTF-8" standalone="no"?><svg xmlns="http://www.w3.org/2000/svg" xmlns:xlink="http://www.w3.org/1999/xlink" contentStyleType="text/css" height="261px" preserveAspectRatio="none" style="width:293px;height:261px;background:#FFFFFF;" version="1.1" viewBox="0 0 293 261" width="293px" zoomAndPan="magnify"><defs/><g><rect fill="#FFFFFF" height="46.7031" style="stroke:#181818;stroke-width:1.0;" width="10" x="21" y="114.9609"/><rect fill="#FFFFFF" height="46.7031" style="stroke:#181818;stroke-width:1.0;" width="10" x="252" y="114.9609"/><line style="stroke:#181818;stroke-width:0.5;stroke-dasharray:5.0,5.0;" x1="26" x2="26" y1="82.6094" y2="179.6641"/><line style="stroke:#181818;stroke-width:0.5;stroke-dasharray:5.0,5.0;" x1="257" x2="257" y1="82.6094" y2="179.6641"/><text fill="#000000" font-family="sans-serif" font-size="14" lengthAdjust="spacing" textLength="36" x="5" y="79.5332">Client</text><ellipse cx="26" cy="13.5" fill="#E2E2F0" rx="8" ry="8" style="stroke:#181818;stroke-width:0.5;"/><path d="M26,21.5 L26,48.5 M13,29.5 L39,29.5 M26,48.5 L13,63.5 M26,48.5 L39,63.5 " fill="none" style="stroke:#181818;stroke-width:0.5;"/><text fill="#000000" font-family="sans-serif" font-size="14" lengthAdjust="spacing" textLength="36" x="5" y="193.1973">Client</text><ellipse cx="26" cy="204.7734" fill="#E2E2F0" rx="8" ry="8" style="stroke:#181818;stroke-width:0.5;"/><path d="M26,212.7734 L26,239.7734 M13,220.7734 L39,220.7734 M26,239.7734 L13,254.7734 M26,239.7734 L39,254.7734 " fill="none" style="stroke:#181818;stroke-width:0.5;"/><rect fill="#E2E2F0" height="31.6094" rx="2.5" ry="2.5" style="stroke:#181818;stroke-width:0.5;" width="60" x="227" y="50"/><text fill="#000000" font-family="sans-serif" font-size="14" lengthAdjust="spacing" textLength="46" x="234" y="71.5332">System</text><rect fill="#E2E2F0" height="31.6094" rx="2.5" ry="2.5" style="stroke:#181818;stroke-width:0.5;" width="60" x="227" y="178.6641"/><text fill="#000000" font-family="sans-serif" font-size="14" lengthAdjust="spacing" textLength="46" x="234" y="200.1973">System</text><rect fill="#FFFFFF" height="46.7031" style="stroke:#181818;stroke-width:1.0;" width="10" x="21" y="114.9609"/><rect fill="#FFFFFF" height="46.7031" style="stroke:#181818;stroke-width:1.0;" width="10" x="252" y="114.9609"/><polygon fill="#181818" points="240,110.9609,250,114.9609,240,118.9609,244,114.9609" style="stroke:#181818;stroke-width:1.0;"/><line style="stroke:#181818;stroke-width:1.0;" x1="31" x2="246" y1="114.9609" y2="114.9609"/><text fill="#000000" font-family="sans-serif" font-size="13" lengthAdjust="spacing" textLength="181" x="38" y="110.1045">Request to see his open orders</text><polygon fill="#181818" points="37,157.6641,27,161.6641,37,165.6641,33,161.6641" style="stroke:#181818;stroke-width:1.0;"/><line style="stroke:#181818;stroke-width:1.0;stroke-dasharray:2.0,2.0;" x1="31" x2="256" y1="161.6641" y2="161.6641"/><text fill="#000000" font-family="sans-serif" font-size="13" lengthAdjust="spacing" textLength="197" x="43" y="140.4561">Show the open orders and informs</text><text fill="#000000" font-family="sans-serif" font-size="13" lengthAdjust="spacing" textLength="128" x="43" y="156.8076">the operation success</text><!--MD5=[31a694dc43b8b41e3df6ff33ae1b2bb9]
@startuml
'https://plantuml.com/sequence-diagram

actor Client as CLIENT
participant System as SYSTEM

CLIENT -> SYSTEM : Request to see his open orders
activate CLIENT
activate SYSTEM

SYSTEM - -> CLIENT : Show the open orders and informs\nthe operation success
deactivate SYSTEM
deactivate CLIENT
@enduml

@startuml

actor Client as CLIENT
participant System as SYSTEM

CLIENT -> SYSTEM : Request to see his open orders
activate CLIENT
activate SYSTEM

SYSTEM - -> CLIENT : Show the open orders and informs\nthe operation success
deactivate SYSTEM
deactivate CLIENT
@enduml

PlantUML version 1.2022.5(Sat Apr 30 11:55:52 BST 2022)
(GPL source distribution)
Java Runtime: OpenJDK Runtime Environment
JVM: OpenJDK 64-Bit Server VM
Default Encoding: Cp1252
Language: pt
Country: BR
--></g></svg>