<?xml version="1.0" encoding="UTF-8" standalone="no"?><svg xmlns="http://www.w3.org/2000/svg" xmlns:xlink="http://www.w3.org/1999/xlink" contentScriptType="application/ecmascript" contentStyleType="text/css" height="730px" preserveAspectRatio="none" style="width:446px;height:730px;background:#FFFFFF;" version="1.1" viewBox="0 0 446 730" width="446px" zoomAndPan="magnify"><defs><filter height="300%" id="f1e8iqriro8rrz" width="300%" x="-1" y="-1"><feGaussianBlur result="blurOut" stdDeviation="2.0"/><feColorMatrix in="blurOut" result="blurOut2" type="matrix" values="0 0 0 0 0 0 0 0 0 0 0 0 0 0 0 0 0 0 .4 0"/><feOffset dx="4.0" dy="4.0" in="blurOut2" result="blurOut3"/><feBlend in="SourceGraphic" in2="blurOut3" mode="normal"/></filter></defs><g><rect fill="#FFFFFF" filter="url(#f1e8iqriro8rrz)" height="527.3203" style="stroke:#A80036;stroke-width:1.0;" width="10" x="64" y="99.6094"/><rect fill="#FFFFFF" filter="url(#f1e8iqriro8rrz)" height="46.7031" style="stroke:#A80036;stroke-width:1.0;" width="10" x="373" y="121.9609"/><rect fill="#FFFFFF" filter="url(#f1e8iqriro8rrz)" height="93.7266" style="stroke:#A80036;stroke-width:1.0;" width="10" x="373" y="199.0156"/><rect fill="#FFFFFF" filter="url(#f1e8iqriro8rrz)" height="82.375" style="stroke:#A80036;stroke-width:1.0;" width="10" x="373" y="323.0938"/><rect fill="#FFFFFF" filter="url(#f1e8iqriro8rrz)" height="62.7031" style="stroke:#A80036;stroke-width:1.0;" width="10" x="373" y="435.8203"/><rect fill="#FFFFFF" filter="url(#f1e8iqriro8rrz)" height="37.3516" style="stroke:#A80036;stroke-width:1.0;" width="10" x="373" y="528.875"/><rect fill="#FFFFFF" filter="url(#f1e8iqriro8rrz)" height="30.3516" style="stroke:#A80036;stroke-width:1.0;" width="10" x="373" y="596.5781"/><rect fill="#FFFFFF" filter="url(#f1e8iqriro8rrz)" height="124.0781" style="stroke:#000000;stroke-width:2.0;" width="422" x="10" y="214.0156"/><rect fill="#FFFFFF" filter="url(#f1e8iqriro8rrz)" height="91.7266" style="stroke:#000000;stroke-width:2.0;" width="402" x="20" y="239.3672"/><rect fill="#FFFFFF" filter="url(#f1e8iqriro8rrz)" height="91.7266" style="stroke:#000000;stroke-width:2.0;" width="402" x="20" y="352.0938"/><rect fill="#FFFFFF" filter="url(#f1e8iqriro8rrz)" height="79.0547" style="stroke:#000000;stroke-width:2.0;" width="402" x="20" y="457.8203"/><line style="stroke:#A80036;stroke-width:1.0;stroke-dasharray:5.0,5.0;" x1="69" x2="69" y1="89.6094" y2="644.9297"/><line style="stroke:#A80036;stroke-width:1.0;stroke-dasharray:5.0,5.0;" x1="378" x2="378" y1="89.6094" y2="644.9297"/><text fill="#000000" font-family="sans-serif" font-size="14" lengthAdjust="spacing" textLength="72" x="30" y="86.5332">Sales Clerk</text><ellipse cx="69" cy="15" fill="#FEFECE" filter="url(#f1e8iqriro8rrz)" rx="8" ry="8" style="stroke:#A80036;stroke-width:2.0;"/><path d="M69,23 L69,50 M56,31 L82,31 M69,50 L56,65 M69,50 L82,65 " fill="none" filter="url(#f1e8iqriro8rrz)" style="stroke:#A80036;stroke-width:2.0;"/><text fill="#000000" font-family="sans-serif" font-size="14" lengthAdjust="spacing" textLength="72" x="30" y="658.4629">Sales Clerk</text><ellipse cx="69" cy="671.5391" fill="#FEFECE" filter="url(#f1e8iqriro8rrz)" rx="8" ry="8" style="stroke:#A80036;stroke-width:2.0;"/><path d="M69,679.5391 L69,706.5391 M56,687.5391 L82,687.5391 M69,706.5391 L56,721.5391 M69,706.5391 L82,721.5391 " fill="none" filter="url(#f1e8iqriro8rrz)" style="stroke:#A80036;stroke-width:2.0;"/><rect fill="#FEFECE" filter="url(#f1e8iqriro8rrz)" height="31.6094" style="stroke:#A80036;stroke-width:1.5;" width="64" x="344" y="53"/><text fill="#000000" font-family="sans-serif" font-size="14" lengthAdjust="spacing" textLength="50" x="351" y="74.5332">:System</text><rect fill="#FEFECE" filter="url(#f1e8iqriro8rrz)" height="31.6094" style="stroke:#A80036;stroke-width:1.5;" width="64" x="344" y="643.9297"/><text fill="#000000" font-family="sans-serif" font-size="14" lengthAdjust="spacing" textLength="50" x="351" y="665.4629">:System</text><rect fill="#FFFFFF" filter="url(#f1e8iqriro8rrz)" height="527.3203" style="stroke:#A80036;stroke-width:1.0;" width="10" x="64" y="99.6094"/><rect fill="#FFFFFF" filter="url(#f1e8iqriro8rrz)" height="46.7031" style="stroke:#A80036;stroke-width:1.0;" width="10" x="373" y="121.9609"/><rect fill="#FFFFFF" filter="url(#f1e8iqriro8rrz)" height="93.7266" style="stroke:#A80036;stroke-width:1.0;" width="10" x="373" y="199.0156"/><rect fill="#FFFFFF" filter="url(#f1e8iqriro8rrz)" height="82.375" style="stroke:#A80036;stroke-width:1.0;" width="10" x="373" y="323.0938"/><rect fill="#FFFFFF" filter="url(#f1e8iqriro8rrz)" height="62.7031" style="stroke:#A80036;stroke-width:1.0;" width="10" x="373" y="435.8203"/><rect fill="#FFFFFF" filter="url(#f1e8iqriro8rrz)" height="37.3516" style="stroke:#A80036;stroke-width:1.0;" width="10" x="373" y="528.875"/><rect fill="#FFFFFF" filter="url(#f1e8iqriro8rrz)" height="30.3516" style="stroke:#A80036;stroke-width:1.0;" width="10" x="373" y="596.5781"/><polygon fill="#A80036" points="361,117.9609,371,121.9609,361,125.9609,365,121.9609" style="stroke:#A80036;stroke-width:1.0;"/><line style="stroke:#A80036;stroke-width:1.0;" x1="74" x2="367" y1="121.9609" y2="121.9609"/><text fill="#000000" font-family="sans-serif" font-size="13" font-weight="bold" lengthAdjust="spacing" textLength="7" x="81" y="117.1045">1</text><text fill="#000000" font-family="sans-serif" font-size="13" lengthAdjust="spacing" textLength="219" x="92" y="117.1045">Inicia o processo de registo do cliente</text><polygon fill="#A80036" points="85,164.6641,75,168.6641,85,172.6641,81,168.6641" style="stroke:#A80036;stroke-width:1.0;"/><line style="stroke:#A80036;stroke-width:1.0;stroke-dasharray:2.0,2.0;" x1="79" x2="377" y1="168.6641" y2="168.6641"/><text fill="#000000" font-family="sans-serif" font-size="13" font-weight="bold" lengthAdjust="spacing" textLength="7" x="91" y="155.6318">2</text><text fill="#000000" font-family="sans-serif" font-size="13" lengthAdjust="spacing" textLength="258" x="102" y="147.4561">Solicita os dados obrigatórios (Name, Email,</text><text fill="#000000" font-family="sans-serif" font-size="13" lengthAdjust="spacing" textLength="216" x="102" y="163.8076">PhoneNumber, VAT, Postal Address)</text><polygon fill="#A80036" points="361,195.0156,371,199.0156,361,203.0156,365,199.0156" style="stroke:#A80036;stroke-width:1.0;"/><line style="stroke:#A80036;stroke-width:1.0;" x1="74" x2="367" y1="199.0156" y2="199.0156"/><text fill="#000000" font-family="sans-serif" font-size="13" font-weight="bold" lengthAdjust="spacing" textLength="7" x="81" y="194.1592">3</text><text fill="#000000" font-family="sans-serif" font-size="13" lengthAdjust="spacing" textLength="169" x="92" y="194.1592">Introduz os dados solicitados</text><path d="M10,214.0156 L71,214.0156 L71,222.0156 L61,232.0156 L10,232.0156 L10,214.0156 " fill="#EEEEEE" style="stroke:#000000;stroke-width:1.0;"/><rect fill="none" height="124.0781" style="stroke:#000000;stroke-width:2.0;" width="422" x="10" y="214.0156"/><text fill="#000000" font-family="sans-serif" font-size="13" font-weight="bold" lengthAdjust="spacing" textLength="16" x="25" y="228.5107">alt</text><text fill="#000000" font-family="sans-serif" font-size="11" font-weight="bold" lengthAdjust="spacing" textLength="254" x="86" y="227.4346">[Sales Clerk deseja associar mais endereços]</text><path d="M20,239.3672 L93,239.3672 L93,247.3672 L83,257.3672 L20,257.3672 L20,239.3672 " fill="#EEEEEE" style="stroke:#000000;stroke-width:1.0;"/><rect fill="none" height="91.7266" style="stroke:#000000;stroke-width:2.0;" width="402" x="20" y="239.3672"/><text fill="#000000" font-family="sans-serif" font-size="13" font-weight="bold" lengthAdjust="spacing" textLength="28" x="35" y="253.8623">loop</text><text fill="#000000" font-family="sans-serif" font-size="11" font-weight="bold" lengthAdjust="spacing" textLength="220" x="108" y="252.7861">[Enquanto o Sales Clerk quiser associar</text><text fill="#000000" font-family="sans-serif" font-size="11" font-weight="bold" lengthAdjust="spacing" textLength="94" x="108" y="266.6221">mais endereços]</text><polygon fill="#A80036" points="85,288.7422,75,292.7422,85,296.7422,81,292.7422" style="stroke:#A80036;stroke-width:1.0;"/><line style="stroke:#A80036;stroke-width:1.0;stroke-dasharray:2.0,2.0;" x1="79" x2="377" y1="292.7422" y2="292.7422"/><text fill="#000000" font-family="sans-serif" font-size="13" font-weight="bold" lengthAdjust="spacing" textLength="7" x="91" y="287.8857">4</text><text fill="#000000" font-family="sans-serif" font-size="13" lengthAdjust="spacing" textLength="111" x="102" y="287.8857">Solicita o endereço</text><polygon fill="#A80036" points="361,319.0938,371,323.0938,361,327.0938,365,323.0938" style="stroke:#A80036;stroke-width:1.0;"/><line style="stroke:#A80036;stroke-width:1.0;" x1="74" x2="367" y1="323.0938" y2="323.0938"/><text fill="#000000" font-family="sans-serif" font-size="13" font-weight="bold" lengthAdjust="spacing" textLength="7" x="81" y="318.2373">5</text><text fill="#000000" font-family="sans-serif" font-size="13" lengthAdjust="spacing" textLength="114" x="92" y="318.2373">Introduz o endereço</text><path d="M20,352.0938 L81,352.0938 L81,360.0938 L71,370.0938 L20,370.0938 L20,352.0938 " fill="#EEEEEE" style="stroke:#000000;stroke-width:1.0;"/><rect fill="none" height="91.7266" style="stroke:#000000;stroke-width:2.0;" width="402" x="20" y="352.0938"/><text fill="#000000" font-family="sans-serif" font-size="13" font-weight="bold" lengthAdjust="spacing" textLength="16" x="35" y="366.5889">alt</text><text fill="#000000" font-family="sans-serif" font-size="11" font-weight="bold" lengthAdjust="spacing" textLength="166" x="96" y="365.5127">[Sales Clerk deseja associar a</text><text fill="#000000" font-family="sans-serif" font-size="11" font-weight="bold" lengthAdjust="spacing" textLength="169" x="96" y="379.3486">data de nascimento do cliente]</text><polygon fill="#A80036" points="85,401.4688,75,405.4688,85,409.4688,81,405.4688" style="stroke:#A80036;stroke-width:1.0;"/><line style="stroke:#A80036;stroke-width:1.0;stroke-dasharray:2.0,2.0;" x1="79" x2="377" y1="405.4688" y2="405.4688"/><text fill="#000000" font-family="sans-serif" font-size="13" font-weight="bold" lengthAdjust="spacing" textLength="7" x="91" y="400.6123">6</text><text fill="#000000" font-family="sans-serif" font-size="13" lengthAdjust="spacing" textLength="172" x="102" y="400.6123">Solicita a data de nascimento</text><polygon fill="#A80036" points="361,431.8203,371,435.8203,361,439.8203,365,435.8203" style="stroke:#A80036;stroke-width:1.0;"/><line style="stroke:#A80036;stroke-width:1.0;" x1="74" x2="367" y1="435.8203" y2="435.8203"/><text fill="#000000" font-family="sans-serif" font-size="13" font-weight="bold" lengthAdjust="spacing" textLength="7" x="81" y="430.9639">7</text><text fill="#000000" font-family="sans-serif" font-size="13" lengthAdjust="spacing" textLength="164" x="92" y="430.9639">introduz data de nascimento</text><path d="M20,457.8203 L81,457.8203 L81,465.8203 L71,475.8203 L20,475.8203 L20,457.8203 " fill="#EEEEEE" style="stroke:#000000;stroke-width:1.0;"/><rect fill="none" height="79.0547" style="stroke:#000000;stroke-width:2.0;" width="402" x="20" y="457.8203"/><text fill="#000000" font-family="sans-serif" font-size="13" font-weight="bold" lengthAdjust="spacing" textLength="16" x="35" y="472.3154">alt</text><text fill="#000000" font-family="sans-serif" font-size="11" font-weight="bold" lengthAdjust="spacing" textLength="258" x="96" y="471.2393">[Sales Clerk deseja associar o sexo do cliente]</text><polygon fill="#A80036" points="85,494.5234,75,498.5234,85,502.5234,81,498.5234" style="stroke:#A80036;stroke-width:1.0;"/><line style="stroke:#A80036;stroke-width:1.0;stroke-dasharray:2.0,2.0;" x1="79" x2="377" y1="498.5234" y2="498.5234"/><text fill="#000000" font-family="sans-serif" font-size="13" font-weight="bold" lengthAdjust="spacing" textLength="7" x="91" y="493.667">8</text><text fill="#000000" font-family="sans-serif" font-size="13" lengthAdjust="spacing" textLength="86" x="102" y="493.667">Solicita o sexo</text><polygon fill="#A80036" points="361,524.875,371,528.875,361,532.875,365,528.875" style="stroke:#A80036;stroke-width:1.0;"/><line style="stroke:#A80036;stroke-width:1.0;" x1="74" x2="367" y1="528.875" y2="528.875"/><text fill="#000000" font-family="sans-serif" font-size="13" font-weight="bold" lengthAdjust="spacing" textLength="7" x="81" y="524.0186">9</text><text fill="#000000" font-family="sans-serif" font-size="13" lengthAdjust="spacing" textLength="89" x="92" y="524.0186">Introduz o sexo</text><polygon fill="#A80036" points="85,562.2266,75,566.2266,85,570.2266,81,566.2266" style="stroke:#A80036;stroke-width:1.0;"/><line style="stroke:#A80036;stroke-width:1.0;stroke-dasharray:2.0,2.0;" x1="79" x2="377" y1="566.2266" y2="566.2266"/><text fill="#000000" font-family="sans-serif" font-size="13" font-weight="bold" lengthAdjust="spacing" textLength="14" x="91" y="561.3701">10</text><text fill="#000000" font-family="sans-serif" font-size="13" lengthAdjust="spacing" textLength="257" x="109" y="561.3701">Apresenta os dados e solicita a confirmação</text><polygon fill="#A80036" points="361,592.5781,371,596.5781,361,600.5781,365,596.5781" style="stroke:#A80036;stroke-width:1.0;"/><line style="stroke:#A80036;stroke-width:1.0;" x1="74" x2="367" y1="596.5781" y2="596.5781"/><text fill="#000000" font-family="sans-serif" font-size="13" font-weight="bold" lengthAdjust="spacing" textLength="14" x="81" y="591.7217">11</text><text fill="#000000" font-family="sans-serif" font-size="13" lengthAdjust="spacing" textLength="108" x="99" y="591.7217">Confirma os dados</text><polygon fill="#A80036" points="80,622.9297,70,626.9297,80,630.9297,76,626.9297" style="stroke:#A80036;stroke-width:1.0;"/><line style="stroke:#A80036;stroke-width:1.0;stroke-dasharray:2.0,2.0;" x1="74" x2="377" y1="626.9297" y2="626.9297"/><text fill="#000000" font-family="sans-serif" font-size="13" font-weight="bold" lengthAdjust="spacing" textLength="14" x="86" y="622.0732">12</text><text fill="#000000" font-family="sans-serif" font-size="13" lengthAdjust="spacing" textLength="181" x="104" y="622.0732">Informa o sucesso da operação</text><!--MD5=[965c9162c2dcf714ed6e1d862e556872]
@startuml

autonumber
actor "Sales Clerk" as SC

activate SC
SC -> ":System" : Inicia o processo de registo do cliente
activate ":System"
":System" - -> SC : Solicita os dados obrigatórios (Name, Email, \nPhoneNumber, VAT, Postal Address)
deactivate ":System"
SC -> ":System" : Introduz os dados solicitados
activate ":System"



alt Sales Clerk deseja associar mais endereços
loop Enquanto o Sales Clerk quiser associar \nmais endereços
":System" - -> SC : Solicita o endereço
deactivate ":System"


SC -> ":System" : Introduz o endereço
activate ":System"
end
end
alt Sales Clerk deseja associar a \ndata de nascimento do cliente
activate ":System"
":System" - -> SC : Solicita a data de nascimento
deactivate ":System"
SC -> ":System" : introduz data de nascimento
activate ":System"
end
alt Sales Clerk deseja associar o sexo do cliente
":System" - -> SC : Solicita o sexo
deactivate ":System"
SC -> ":System" : Introduz o sexo
activate ":System"
end
":System" - -> SC : Apresenta os dados e solicita a confirmação
deactivate ":System"
SC -> ":System" : Confirma os dados
activate ":System"
":System" - -> SC : Informa o sucesso da operação
deactivate ":System"
deactivate SC



@enduml

PlantUML version 1.2022.1(Tue Feb 01 18:19:58 GMT 2022)
(GPL source distribution)
Java Runtime: OpenJDK Runtime Environment
JVM: Dynamic Code Evolution 64-Bit Server VM
Default Encoding: Cp1252
Language: pt
Country: PT
--></g></svg>