<?xml version="1.0" encoding="UTF-8" standalone="no"?><svg xmlns="http://www.w3.org/2000/svg" xmlns:xlink="http://www.w3.org/1999/xlink" contentStyleType="text/css" height="231px" preserveAspectRatio="none" style="width:1051px;height:231px;background:#FFFFFF;" version="1.1" viewBox="0 0 1051 231" width="1051px" zoomAndPan="magnify"><defs/><g><!--MD5=[5e2ba255b454ea005334096c2d3ec5bb]
class AGVManagerDaemon--><g id="elem_AGVManagerDaemon"><rect codeLine="6" fill="#F1F1F1" height="83.2188" id="AGVManagerDaemon" rx="2.5" ry="2.5" style="stroke:#181818;stroke-width:0.5;" width="190" x="7" y="105.95"/><ellipse cx="31" cy="121.95" fill="#ADD1B2" rx="11" ry="11" style="stroke:#181818;stroke-width:1.0;"/><path d="M33,118.45 Q33.2031,117.95 33.4375,117.7 Q33.6719,117.45 33.9375,117.45 Q34.4063,117.45 34.7031,117.7312 Q35,118.0125 35,118.6687 L35,120.2312 Q35,120.8875 34.7188,121.1687 Q34.4375,121.45 34,121.45 Q33.6094,121.45 33.3594,121.2781 Q33.1094,121.1062 33,120.6531 Q32.9531,120.3406 32.7813,120.1687 Q32.4688,119.8406 31.9063,119.6531 Q31.3438,119.45 30.7813,119.45 Q30.0781,119.45 29.4844,119.7312 Q28.9063,120.0125 28.4531,120.6375 Q28,121.2625 28,122.1219 L28,123.0437 Q28,124.075 28.8438,124.7625 Q29.6875,125.45 31.1875,125.45 Q32.0781,125.45 32.7031,125.2469 Q33.0625,125.1375 33.4688,124.7781 Q33.7344,124.575 33.875,124.5125 Q34.0156,124.45 34.1875,124.45 Q34.5156,124.45 34.75,124.7156 Q35,124.9656 35,125.325 Q35,125.6687 34.6563,126.075 Q34.1563,126.6687 33.3594,126.9969 Q32.3125,127.45 31.0313,127.45 Q29.5313,127.45 28.3281,126.8562 Q27.3594,126.3875 26.6719,125.3719 Q26,124.3562 26,123.1531 L26,122.0594 Q26,120.8094 26.5938,119.7156 Q27.2031,118.6219 28.25,118.0437 Q29.3125,117.45 30.5,117.45 Q31.2188,117.45 31.8438,117.7 Q32.4688,117.95 33,118.45 Z " fill="#000000"/><text fill="#000000" font-family="sans-serif" font-size="14" lengthAdjust="spacing" textLength="138" x="47" y="127.6785">AGVManagerDaemon</text><line style="stroke:#181818;stroke-width:0.5;" x1="8" x2="196" y1="137.95" y2="137.95"/><line style="stroke:#181818;stroke-width:0.5;" x1="8" x2="196" y1="145.95" y2="145.95"/><text fill="#000000" font-family="sans-serif" font-size="14" lengthAdjust="spacing" textLength="48" x="13" y="164.4832">+main()</text><text fill="#000000" font-family="sans-serif" font-size="14" lengthAdjust="spacing" textLength="178" x="13" y="182.0926">-buildServerDependencies()</text></g><!--MD5=[2d463a13cfa19479784591d1c27391cb]
class AgvManagerProtocolServer--><g id="elem_AgvManagerProtocolServer"><rect codeLine="11" fill="#F1F1F1" height="100.8281" id="AgvManagerProtocolServer" rx="2.5" ry="2.5" style="stroke:#181818;stroke-width:0.5;" width="206" x="232" y="96.95"/><ellipse cx="247" cy="112.95" fill="#ADD1B2" rx="11" ry="11" style="stroke:#181818;stroke-width:1.0;"/><path d="M249,109.45 Q249.2031,108.95 249.4375,108.7 Q249.6719,108.45 249.9375,108.45 Q250.4063,108.45 250.7031,108.7312 Q251,109.0125 251,109.6687 L251,111.2312 Q251,111.8875 250.7188,112.1687 Q250.4375,112.45 250,112.45 Q249.6094,112.45 249.3594,112.2781 Q249.1094,112.1062 249,111.6531 Q248.9531,111.3406 248.7813,111.1687 Q248.4688,110.8406 247.9063,110.6531 Q247.3438,110.45 246.7813,110.45 Q246.0781,110.45 245.4844,110.7312 Q244.9063,111.0125 244.4531,111.6375 Q244,112.2625 244,113.1219 L244,114.0437 Q244,115.075 244.8438,115.7625 Q245.6875,116.45 247.1875,116.45 Q248.0781,116.45 248.7031,116.2469 Q249.0625,116.1375 249.4688,115.7781 Q249.7344,115.575 249.875,115.5125 Q250.0156,115.45 250.1875,115.45 Q250.5156,115.45 250.75,115.7156 Q251,115.9656 251,116.325 Q251,116.6687 250.6563,117.075 Q250.1563,117.6687 249.3594,117.9969 Q248.3125,118.45 247.0313,118.45 Q245.5313,118.45 244.3281,117.8562 Q243.3594,117.3875 242.6719,116.3719 Q242,115.3562 242,114.1531 L242,113.0594 Q242,111.8094 242.5938,110.7156 Q243.2031,109.6219 244.25,109.0437 Q245.3125,108.45 246.5,108.45 Q247.2188,108.45 247.8438,108.7 Q248.4688,108.95 249,109.45 Z " fill="#000000"/><text fill="#000000" font-family="sans-serif" font-size="14" lengthAdjust="spacing" textLength="174" x="261" y="118.6785">AgvManagerProtocolServer</text><line style="stroke:#181818;stroke-width:0.5;" x1="233" x2="437" y1="128.95" y2="128.95"/><line style="stroke:#181818;stroke-width:0.5;" x1="233" x2="437" y1="136.95" y2="136.95"/><text fill="#000000" font-family="sans-serif" font-size="14" lengthAdjust="spacing" textLength="39" x="238" y="155.4832">+run()</text><text fill="#000000" font-family="sans-serif" font-size="14" lengthAdjust="spacing" textLength="48" x="238" y="173.0926">-listen()</text><text fill="#000000" font-family="sans-serif" font-size="14" lengthAdjust="spacing" textLength="46" x="238" y="190.702">+start()</text></g><!--MD5=[b9f51232348f81c9e4c91fdf9d5694ba]
class RequestMessageParser--><g id="elem_RequestMessageParser"><rect codeLine="17" fill="#F1F1F1" height="153.6563" id="RequestMessageParser" rx="2.5" ry="2.5" style="stroke:#181818;stroke-width:0.5;" width="296" x="748" y="70.45"/><ellipse cx="815.75" cy="86.45" fill="#ADD1B2" rx="11" ry="11" style="stroke:#181818;stroke-width:1.0;"/><path d="M817.75,82.95 Q817.9531,82.45 818.1875,82.2 Q818.4219,81.95 818.6875,81.95 Q819.1563,81.95 819.4531,82.2312 Q819.75,82.5125 819.75,83.1687 L819.75,84.7312 Q819.75,85.3875 819.4688,85.6687 Q819.1875,85.95 818.75,85.95 Q818.3594,85.95 818.1094,85.7781 Q817.8594,85.6062 817.75,85.1531 Q817.7031,84.8406 817.5313,84.6687 Q817.2188,84.3406 816.6563,84.1531 Q816.0938,83.95 815.5313,83.95 Q814.8281,83.95 814.2344,84.2312 Q813.6563,84.5125 813.2031,85.1375 Q812.75,85.7625 812.75,86.6219 L812.75,87.5437 Q812.75,88.575 813.5938,89.2625 Q814.4375,89.95 815.9375,89.95 Q816.8281,89.95 817.4531,89.7469 Q817.8125,89.6375 818.2188,89.2781 Q818.4844,89.075 818.625,89.0125 Q818.7656,88.95 818.9375,88.95 Q819.2656,88.95 819.5,89.2156 Q819.75,89.4656 819.75,89.825 Q819.75,90.1687 819.4063,90.575 Q818.9063,91.1687 818.1094,91.4969 Q817.0625,91.95 815.7813,91.95 Q814.2813,91.95 813.0781,91.3562 Q812.1094,90.8875 811.4219,89.8719 Q810.75,88.8562 810.75,87.6531 L810.75,86.5594 Q810.75,85.3094 811.3438,84.2156 Q811.9531,83.1219 813,82.5437 Q814.0625,81.95 815.25,81.95 Q815.9688,81.95 816.5938,82.2 Q817.2188,82.45 817.75,82.95 Z " fill="#000000"/><text fill="#000000" font-family="sans-serif" font-size="14" lengthAdjust="spacing" textLength="152" x="836.25" y="92.1785">RequestMessageParser</text><line style="stroke:#181818;stroke-width:0.5;" x1="749" x2="1043" y1="102.45" y2="102.45"/><line style="stroke:#181818;stroke-width:0.5;" x1="749" x2="1043" y1="110.45" y2="110.45"/><text fill="#000000" font-family="sans-serif" font-size="14" lengthAdjust="spacing" textLength="153" x="754" y="128.9832">-getManagerController()</text><text fill="#000000" font-family="sans-serif" font-size="14" lengthAdjust="spacing" textLength="167" x="754" y="146.5926">-getDashboardController()</text><text fill="#000000" font-family="sans-serif" font-size="14" lengthAdjust="spacing" textLength="54" x="754" y="164.202">+parse()</text><text fill="#000000" font-family="sans-serif" font-size="14" lengthAdjust="spacing" textLength="138" x="754" y="181.8113">-isStringParam(string)</text><text fill="#000000" font-family="sans-serif" font-size="14" lengthAdjust="spacing" textLength="244" x="754" y="199.4207">-callTaskAssignment(inputLine,tokens)</text><text fill="#000000" font-family="sans-serif" font-size="14" lengthAdjust="spacing" textLength="284" x="754" y="217.0301">-parseGetAGVInformations(inputLine,tokens)</text></g><!--MD5=[9403b17ae1be48d89489773b620f43af]
class AGVManagerProtocolRequest--><g id="elem_AGVManagerProtocolRequest"><rect codeLine="26" fill="#F1F1F1" height="136.0469" id="AGVManagerProtocolRequest" rx="2.5" ry="2.5" style="stroke:#181818;stroke-width:0.5;" width="240" x="473" y="79.45"/><ellipse cx="496.1" cy="95.45" fill="#ADD1B2" rx="11" ry="11" style="stroke:#181818;stroke-width:1.0;"/><path d="M498.1,91.95 Q498.3031,91.45 498.5375,91.2 Q498.7719,90.95 499.0375,90.95 Q499.5063,90.95 499.8031,91.2312 Q500.1,91.5125 500.1,92.1687 L500.1,93.7312 Q500.1,94.3875 499.8188,94.6687 Q499.5375,94.95 499.1,94.95 Q498.7094,94.95 498.4594,94.7781 Q498.2094,94.6062 498.1,94.1531 Q498.0531,93.8406 497.8813,93.6687 Q497.5688,93.3406 497.0063,93.1531 Q496.4438,92.95 495.8813,92.95 Q495.1781,92.95 494.5844,93.2312 Q494.0063,93.5125 493.5531,94.1375 Q493.1,94.7625 493.1,95.6219 L493.1,96.5437 Q493.1,97.575 493.9438,98.2625 Q494.7875,98.95 496.2875,98.95 Q497.1781,98.95 497.8031,98.7469 Q498.1625,98.6375 498.5688,98.2781 Q498.8344,98.075 498.975,98.0125 Q499.1156,97.95 499.2875,97.95 Q499.6156,97.95 499.85,98.2156 Q500.1,98.4656 500.1,98.825 Q500.1,99.1687 499.7563,99.575 Q499.2563,100.1687 498.4594,100.4969 Q497.4125,100.95 496.1313,100.95 Q494.6313,100.95 493.4281,100.3562 Q492.4594,99.8875 491.7719,98.8719 Q491.1,97.8562 491.1,96.6531 L491.1,95.5594 Q491.1,94.3094 491.6938,93.2156 Q492.3031,92.1219 493.35,91.5437 Q494.4125,90.95 495.6,90.95 Q496.3188,90.95 496.9438,91.2 Q497.5688,91.45 498.1,91.95 Z " fill="#000000"/><text fill="#000000" font-family="sans-serif" font-size="14" lengthAdjust="spacing" textLength="190" x="511.9" y="101.1785">AGVManagerProtocolRequest</text><line style="stroke:#181818;stroke-width:0.5;" x1="474" x2="712" y1="111.45" y2="111.45"/><text fill="#000000" font-family="sans-serif" font-size="14" lengthAdjust="spacing" textLength="53" x="479" y="129.9832">-request</text><line style="stroke:#181818;stroke-width:1.0;" x1="474" x2="712" y1="137.0594" y2="137.0594"/><text fill="#000000" font-family="sans-serif" font-size="14" lengthAdjust="spacing" textLength="67" x="479" y="155.5926">+execute()</text><text fill="#000000" font-family="sans-serif" font-size="14" lengthAdjust="spacing" textLength="86" x="479" y="173.202">+isGoodbye()</text><text fill="#000000" font-family="sans-serif" font-size="14" lengthAdjust="spacing" textLength="224" x="479" y="190.8113">#buildServerError(errorDescription)</text><text fill="#000000" font-family="sans-serif" font-size="14" lengthAdjust="spacing" textLength="228" x="479" y="208.4207">#buildBadRequest(errorDescription)</text></g><!--MD5=[85b182c4fe73480b2afb9b5b8861285b]
link AGVManagerDaemon to AgvManagerProtocolServer--><g id="link_AGVManagerDaemon_AgvManagerProtocolServer"><path codeLine="35" d="M197.11,147.45 C206.97,147.45 216.83,147.45 226.7,147.45 " fill="none" id="AGVManagerDaemon-to-AgvManagerProtocolServer" style="stroke:#181818;stroke-width:1.0;"/><polygon fill="#181818" points="231.85,147.45,222.85,143.45,226.85,147.45,222.85,151.45,231.85,147.45" style="stroke:#181818;stroke-width:1.0;"/></g><!--MD5=[e6063193325a9f19908562007b628bbd]
link AgvManagerProtocolServer to RequestMessageParser--><g id="link_AgvManagerProtocolServer_RequestMessageParser"><path codeLine="36" d="M383.71,96.94 C408.31,75.07 440,51.88 473.5,40.45 C574.45,6 610.56,12.5 713.5,40.45 C736.33,46.65 759.23,56.5 780.71,67.78 " fill="none" id="AgvManagerProtocolServer-to-RequestMessageParser" style="stroke:#181818;stroke-width:1.0;"/><polygon fill="#181818" points="785.28,70.21,779.2055,62.4575,780.8635,67.866,775.4551,69.5239,785.28,70.21" style="stroke:#181818;stroke-width:1.0;"/></g><!--MD5=[1deb6b158d00576b94cff6d6aa54f131]
link AgvManagerProtocolServer to AGVManagerProtocolRequest--><g id="link_AgvManagerProtocolServer_AGVManagerProtocolRequest"><path codeLine="37" d="M438.05,147.45 C447.93,147.45 457.81,147.45 467.69,147.45 " fill="none" id="AgvManagerProtocolServer-to-AGVManagerProtocolRequest" style="stroke:#181818;stroke-width:1.0;"/><polygon fill="#181818" points="472.85,147.45,463.85,143.45,467.85,147.45,463.85,151.45,472.85,147.45" style="stroke:#181818;stroke-width:1.0;"/></g><!--MD5=[d54be8b62c4bebeccfbd28ebb0818449]
@startuml
'https://plantuml.com/sequence-diagram

skinparam classAttributeIconSize 0


class AGVManagerDaemon {
+main()
-buildServerDependencies()
}

class AgvManagerProtocolServer {
+run()
-listen()
+start()
}

class RequestMessageParser {
-getManagerController()
-getDashboardController()
+parse()
-isStringParam(string)
-callTaskAssignment(inputLine,tokens)
-parseGetAGVInformations(inputLine,tokens)
}

class AGVManagerProtocolRequest {
-request
- - -
+execute()
+isGoodbye()
#buildServerError(errorDescription)
#buildBadRequest(errorDescription)
}

AGVManagerDaemon -> AgvManagerProtocolServer
AgvManagerProtocolServer -> RequestMessageParser
AgvManagerProtocolServer -> AGVManagerProtocolRequest









@enduml

@startuml

skinparam classAttributeIconSize 0


class AGVManagerDaemon {
+main()
-buildServerDependencies()
}

class AgvManagerProtocolServer {
+run()
-listen()
+start()
}

class RequestMessageParser {
-getManagerController()
-getDashboardController()
+parse()
-isStringParam(string)
-callTaskAssignment(inputLine,tokens)
-parseGetAGVInformations(inputLine,tokens)
}

class AGVManagerProtocolRequest {
-request
- - -
+execute()
+isGoodbye()
#buildServerError(errorDescription)
#buildBadRequest(errorDescription)
}

AGVManagerDaemon -> AgvManagerProtocolServer
AgvManagerProtocolServer -> RequestMessageParser
AgvManagerProtocolServer -> AGVManagerProtocolRequest









@enduml

PlantUML version 1.2022.4(Sat Apr 09 14:29:17 BST 2022)
(GPL source distribution)
Java Runtime: OpenJDK Runtime Environment
JVM: OpenJDK 64-Bit Server VM
Default Encoding: Cp1252
Language: pt
Country: PT
--></g></svg>