<?xml version="1.0" encoding="UTF-8" standalone="no"?><svg xmlns="http://www.w3.org/2000/svg" xmlns:xlink="http://www.w3.org/1999/xlink" contentStyleType="text/css" height="258px" preserveAspectRatio="none" style="width:627px;height:258px;background:#FFFFFF;" version="1.1" viewBox="0 0 627 258" width="627px" zoomAndPan="magnify"><defs/><g><!--MD5=[77101a74d862769fe80d2d20e17cd5a8]
class TaskManagementUI--><g id="elem_TaskManagementUI"><rect codeLine="2" fill="#F1F1F1" height="48" id="TaskManagementUI" rx="2.5" ry="2.5" style="stroke:#181818;stroke-width:0.5;" width="157" x="38" y="7"/><ellipse cx="53" cy="23" fill="#ADD1B2" rx="11" ry="11" style="stroke:#181818;stroke-width:1.0;"/><path d="M55,19.5 Q55.2031,19 55.4375,18.75 Q55.6719,18.5 55.9375,18.5 Q56.4063,18.5 56.7031,18.7813 Q57,19.0625 57,19.7188 L57,21.2813 Q57,21.9375 56.7188,22.2188 Q56.4375,22.5 56,22.5 Q55.6094,22.5 55.3594,22.3281 Q55.1094,22.1563 55,21.7031 Q54.9531,21.3906 54.7813,21.2188 Q54.4688,20.8906 53.9063,20.7031 Q53.3438,20.5 52.7813,20.5 Q52.0781,20.5 51.4844,20.7813 Q50.9063,21.0625 50.4531,21.6875 Q50,22.3125 50,23.1719 L50,24.0938 Q50,25.125 50.8438,25.8125 Q51.6875,26.5 53.1875,26.5 Q54.0781,26.5 54.7031,26.2969 Q55.0625,26.1875 55.4688,25.8281 Q55.7344,25.625 55.875,25.5625 Q56.0156,25.5 56.1875,25.5 Q56.5156,25.5 56.75,25.7656 Q57,26.0156 57,26.375 Q57,26.7188 56.6563,27.125 Q56.1563,27.7188 55.3594,28.0469 Q54.3125,28.5 53.0313,28.5 Q51.5313,28.5 50.3281,27.9063 Q49.3594,27.4375 48.6719,26.4219 Q48,25.4063 48,24.2031 L48,23.1094 Q48,21.8594 48.5938,20.7656 Q49.2031,19.6719 50.25,19.0938 Q51.3125,18.5 52.5,18.5 Q53.2188,18.5 53.8438,18.75 Q54.4688,19 55,19.5 Z " fill="#000000"/><text fill="#000000" font-family="sans-serif" font-size="14" lengthAdjust="spacing" textLength="125" x="67" y="28.7285">TaskManagementUI</text><line style="stroke:#181818;stroke-width:0.5;" x1="39" x2="194" y1="39" y2="39"/><line style="stroke:#181818;stroke-width:0.5;" x1="39" x2="194" y1="47" y2="47"/></g><!--MD5=[d157518aef2c318657f1099d97a163e4]
class CallAGVManagerController--><g id="elem_CallAGVManagerController"><rect codeLine="4" fill="#F1F1F1" height="136.0469" id="CallAGVManagerController" rx="2.5" ry="2.5" style="stroke:#181818;stroke-width:0.5;" width="219" x="7" y="115"/><ellipse cx="29.2" cy="131" fill="#ADD1B2" rx="11" ry="11" style="stroke:#181818;stroke-width:1.0;"/><path d="M31.2,127.5 Q31.4031,127 31.6375,126.75 Q31.8719,126.5 32.1375,126.5 Q32.6063,126.5 32.9031,126.7813 Q33.2,127.0625 33.2,127.7188 L33.2,129.2813 Q33.2,129.9375 32.9188,130.2188 Q32.6375,130.5 32.2,130.5 Q31.8094,130.5 31.5594,130.3281 Q31.3094,130.1563 31.2,129.7031 Q31.1531,129.3906 30.9813,129.2188 Q30.6688,128.8906 30.1063,128.7031 Q29.5438,128.5 28.9813,128.5 Q28.2781,128.5 27.6844,128.7813 Q27.1063,129.0625 26.6531,129.6875 Q26.2,130.3125 26.2,131.1719 L26.2,132.0938 Q26.2,133.125 27.0438,133.8125 Q27.8875,134.5 29.3875,134.5 Q30.2781,134.5 30.9031,134.2969 Q31.2625,134.1875 31.6688,133.8281 Q31.9344,133.625 32.075,133.5625 Q32.2156,133.5 32.3875,133.5 Q32.7156,133.5 32.95,133.7656 Q33.2,134.0156 33.2,134.375 Q33.2,134.7188 32.8563,135.125 Q32.3563,135.7188 31.5594,136.0469 Q30.5125,136.5 29.2313,136.5 Q27.7313,136.5 26.5281,135.9063 Q25.5594,135.4375 24.8719,134.4219 Q24.2,133.4063 24.2,132.2031 L24.2,131.1094 Q24.2,129.8594 24.7938,128.7656 Q25.4031,127.6719 26.45,127.0938 Q27.5125,126.5 28.7,126.5 Q29.4188,126.5 30.0438,126.75 Q30.6688,127 31.2,127.5 Z " fill="#000000"/><text fill="#000000" font-family="sans-serif" font-size="14" lengthAdjust="spacing" textLength="171" x="44.8" y="136.7285">CallAGVManagerController</text><line style="stroke:#181818;stroke-width:0.5;" x1="8" x2="225" y1="147" y2="147"/><line style="stroke:#181818;stroke-width:0.5;" x1="8" x2="225" y1="155" y2="155"/><ellipse cx="18" cy="166" fill="#84BE84" rx="3" ry="3" style="stroke:#038048;stroke-width:1.0;"/><text fill="#000000" font-family="sans-serif" font-size="14" lengthAdjust="spacing" textLength="50" x="27" y="173.5332">create()</text><ellipse cx="18" cy="183.6094" fill="#84BE84" rx="3" ry="3" style="stroke:#038048;stroke-width:1.0;"/><text fill="#000000" font-family="sans-serif" font-size="14" lengthAdjust="spacing" textLength="193" x="27" y="191.1426">connectDaemon(address,port)</text><ellipse cx="18" cy="201.2188" fill="#84BE84" rx="3" ry="3" style="stroke:#038048;stroke-width:1.0;"/><text fill="#000000" font-family="sans-serif" font-size="14" lengthAdjust="spacing" textLength="63" x="27" y="208.752">callFIFO()</text><ellipse cx="18" cy="218.8281" fill="#84BE84" rx="3" ry="3" style="stroke:#038048;stroke-width:1.0;"/><text fill="#000000" font-family="sans-serif" font-size="14" lengthAdjust="spacing" textLength="82" x="27" y="226.3613">getAGVInfo()</text><ellipse cx="18" cy="236.4375" fill="#84BE84" rx="3" ry="3" style="stroke:#038048;stroke-width:1.0;"/><text fill="#000000" font-family="sans-serif" font-size="14" lengthAdjust="spacing" textLength="115" x="27" y="243.9707">closeConnection()</text></g><!--MD5=[5aad27321b537f304085cee6f08ffb6b]
class AgvManager--><g id="elem_AgvManager"><rect codeLine="12" fill="#F1F1F1" height="65.6094" id="AgvManager" rx="2.5" ry="2.5" style="stroke:#181818;stroke-width:0.5;" width="112" x="508.5" y="150"/><ellipse cx="523.5" cy="166" fill="#ADD1B2" rx="11" ry="11" style="stroke:#181818;stroke-width:1.0;"/><path d="M525.5,162.5 Q525.7031,162 525.9375,161.75 Q526.1719,161.5 526.4375,161.5 Q526.9063,161.5 527.2031,161.7813 Q527.5,162.0625 527.5,162.7188 L527.5,164.2813 Q527.5,164.9375 527.2188,165.2188 Q526.9375,165.5 526.5,165.5 Q526.1094,165.5 525.8594,165.3281 Q525.6094,165.1563 525.5,164.7031 Q525.4531,164.3906 525.2813,164.2188 Q524.9688,163.8906 524.4063,163.7031 Q523.8438,163.5 523.2813,163.5 Q522.5781,163.5 521.9844,163.7813 Q521.4063,164.0625 520.9531,164.6875 Q520.5,165.3125 520.5,166.1719 L520.5,167.0938 Q520.5,168.125 521.3438,168.8125 Q522.1875,169.5 523.6875,169.5 Q524.5781,169.5 525.2031,169.2969 Q525.5625,169.1875 525.9688,168.8281 Q526.2344,168.625 526.375,168.5625 Q526.5156,168.5 526.6875,168.5 Q527.0156,168.5 527.25,168.7656 Q527.5,169.0156 527.5,169.375 Q527.5,169.7188 527.1563,170.125 Q526.6563,170.7188 525.8594,171.0469 Q524.8125,171.5 523.5313,171.5 Q522.0313,171.5 520.8281,170.9063 Q519.8594,170.4375 519.1719,169.4219 Q518.5,168.4063 518.5,167.2031 L518.5,166.1094 Q518.5,164.8594 519.0938,163.7656 Q519.7031,162.6719 520.75,162.0938 Q521.8125,161.5 523,161.5 Q523.7188,161.5 524.3438,161.75 Q524.9688,162 525.5,162.5 Z " fill="#000000"/><text fill="#000000" font-family="sans-serif" font-size="14" lengthAdjust="spacing" textLength="80" x="537.5" y="171.7285">AgvManager</text><line style="stroke:#181818;stroke-width:0.5;" x1="509.5" x2="619.5" y1="182" y2="182"/><line style="stroke:#181818;stroke-width:0.5;" x1="509.5" x2="619.5" y1="190" y2="190"/><ellipse cx="519.5" cy="201" fill="#84BE84" rx="3" ry="3" style="stroke:#038048;stroke-width:1.0;"/><text fill="#000000" font-family="sans-serif" font-size="14" lengthAdjust="spacing" textLength="59" x="528.5" y="208.5332">execute()</text></g><!--MD5=[3e15899377e05639d873feb9d82bf6da]
class TaskManagement--><g id="elem_TaskManagement"><rect codeLine="16" fill="#F1F1F1" height="83.2188" id="TaskManagement" rx="2.5" ry="2.5" style="stroke:#181818;stroke-width:0.5;" width="212" x="261.5" y="141.5"/><ellipse cx="306.75" cy="157.5" fill="#ADD1B2" rx="11" ry="11" style="stroke:#181818;stroke-width:1.0;"/><path d="M308.75,154 Q308.9531,153.5 309.1875,153.25 Q309.4219,153 309.6875,153 Q310.1563,153 310.4531,153.2813 Q310.75,153.5625 310.75,154.2188 L310.75,155.7813 Q310.75,156.4375 310.4688,156.7188 Q310.1875,157 309.75,157 Q309.3594,157 309.1094,156.8281 Q308.8594,156.6563 308.75,156.2031 Q308.7031,155.8906 308.5313,155.7188 Q308.2188,155.3906 307.6563,155.2031 Q307.0938,155 306.5313,155 Q305.8281,155 305.2344,155.2813 Q304.6563,155.5625 304.2031,156.1875 Q303.75,156.8125 303.75,157.6719 L303.75,158.5938 Q303.75,159.625 304.5938,160.3125 Q305.4375,161 306.9375,161 Q307.8281,161 308.4531,160.7969 Q308.8125,160.6875 309.2188,160.3281 Q309.4844,160.125 309.625,160.0625 Q309.7656,160 309.9375,160 Q310.2656,160 310.5,160.2656 Q310.75,160.5156 310.75,160.875 Q310.75,161.2188 310.4063,161.625 Q309.9063,162.2188 309.1094,162.5469 Q308.0625,163 306.7813,163 Q305.2813,163 304.0781,162.4063 Q303.1094,161.9375 302.4219,160.9219 Q301.75,159.9063 301.75,158.7031 L301.75,157.6094 Q301.75,156.3594 302.3438,155.2656 Q302.9531,154.1719 304,153.5938 Q305.0625,153 306.25,153 Q306.9688,153 307.5938,153.25 Q308.2188,153.5 308.75,154 Z " fill="#000000"/><text fill="#000000" font-family="sans-serif" font-size="14" lengthAdjust="spacing" textLength="113" x="327.25" y="163.2285">TaskManagement</text><line style="stroke:#181818;stroke-width:0.5;" x1="262.5" x2="472.5" y1="173.5" y2="173.5"/><line style="stroke:#181818;stroke-width:0.5;" x1="262.5" x2="472.5" y1="181.5" y2="181.5"/><ellipse cx="272.5" cy="192.5" fill="#84BE84" rx="3" ry="3" style="stroke:#038048;stroke-width:1.0;"/><text fill="#000000" font-family="sans-serif" font-size="14" lengthAdjust="spacing" textLength="89" x="281.5" y="200.0332">assignTasks()</text><rect fill="#F24D5C" height="6" style="stroke:#C82930;stroke-width:1.0;" width="6" x="269.5" y="207.1094"/><text fill="#000000" font-family="sans-serif" font-size="14" lengthAdjust="spacing" textLength="186" x="281.5" y="217.6426">removeUnfittedAGVs(agvList)</text></g><!--MD5=[3e438816900e4569a6add1a5ed470438]
link TaskManagementUI to CallAGVManagerController--><g id="link_TaskManagementUI_CallAGVManagerController"><path codeLine="22" d="M116.5,55.11 C116.5,69.88 116.5,89.92 116.5,109.71 " fill="none" id="TaskManagementUI-to-CallAGVManagerController" style="stroke:#181818;stroke-width:1.0;stroke-dasharray:7.0,7.0;"/><polygon fill="#181818" points="116.5,114.74,120.5,105.74,116.5,109.74,112.5,105.74,116.5,114.74" style="stroke:#181818;stroke-width:1.0;"/></g><!--MD5=[513d1aceb9e97c6f5af83681c39e1b22]
link CallAGVManagerController to AgvManager--><g id="link_CallAGVManagerController_AgvManager"><path codeLine="24" d="M199.87,114.81 C219.19,102.55 240.45,91.58 262,85 C352.11,57.48 387.68,47.22 474,85 C502.36,97.41 525.78,123.59 541.68,145.76 " fill="none" id="CallAGVManagerController-to-AgvManager" style="stroke:#181818;stroke-width:1.0;"/><polygon fill="#181818" points="544.57,149.85,542.6676,140.1866,541.695,145.7592,536.1224,144.7866,544.57,149.85" style="stroke:#181818;stroke-width:1.0;"/></g><!--MD5=[416d8a2cac936a7ae101e011a9cd2fe4]
link CallAGVManagerController to TaskManagement--><g id="link_CallAGVManagerController_TaskManagement"><path codeLine="25" d="M226.31,183 C236.25,183 246.19,183 256.14,183 " fill="none" id="CallAGVManagerController-to-TaskManagement" style="stroke:#181818;stroke-width:1.0;"/><polygon fill="#181818" points="261.33,183,252.33,179,256.33,183,252.33,187,261.33,183" style="stroke:#181818;stroke-width:1.0;"/></g><!--MD5=[8c75cb5ffa821a5762c09ba8f33b19fa]
@startuml

class TaskManagementUI {}

class CallAGVManagerController {
+create()
+connectDaemon(address,port)
+callFIFO()
+getAGVInfo()
+closeConnection()
}

class AgvManager {
+execute()
}

class TaskManagement {
+assignTasks()
-removeUnfittedAGVs(agvList)
}


TaskManagementUI ..> CallAGVManagerController

CallAGVManagerController -> AgvManager
CallAGVManagerController -> TaskManagement

@enduml

PlantUML version 1.2022.5(Sat Apr 30 11:55:52 BST 2022)
(GPL source distribution)
Java Runtime: OpenJDK Runtime Environment
JVM: OpenJDK 64-Bit Server VM
Default Encoding: Cp1252
Language: pt
Country: PT
--></g></svg>