<?xml version="1.0" encoding="UTF-8" standalone="no"?><svg xmlns="http://www.w3.org/2000/svg" xmlns:xlink="http://www.w3.org/1999/xlink" contentStyleType="text/css" height="444px" preserveAspectRatio="none" style="width:627px;height:444px;background:#FFFFFF;" version="1.1" viewBox="0 0 627 444" width="627px" zoomAndPan="magnify"><defs/><g><!--MD5=[22b4f80a245276e25c9cb3ee67d19758]
cluster <<aggregate>> AGV--><g id="cluster_&lt;&lt;aggregate&gt;&gt; AGV"><path d="M8.5,6 L146.5,6 A3.75,3.75 0 0 1 149,8.5 L156,29.6094 L373.5,29.6094 A2.5,2.5 0 0 1 376,32.1094 L376,141.5 A2.5,2.5 0 0 1 373.5,144 L8.5,144 A2.5,2.5 0 0 1 6,141.5 L6,8.5 A2.5,2.5 0 0 1 8.5,6 " style="stroke:#000000;stroke-width:1.5;fill:none;"/><line style="stroke:#000000;stroke-width:1.5;fill:none;" x1="6" x2="156" y1="29.6094" y2="29.6094"/><text fill="#000000" font-family="sans-serif" font-size="14" font-weight="bold" lengthAdjust="spacing" textLength="137" x="10" y="22.5332">&lt;&lt;aggregate&gt;&gt; AGV</text></g><!--MD5=[53b2c06ade5903185ca3326dce80e141]
class AGV--><g id="elem_AGV"><rect codeLine="18" fill="#F5F5DC" height="83.4063" id="AGV" rx="2.5" ry="2.5" style="stroke:#181818;stroke-width:0.5;" width="71" x="22" y="44.5"/><ellipse cx="37" cy="73.3984" fill="#ADD1B2" rx="11" ry="11" style="stroke:#181818;stroke-width:1.0;"/><path d="M35.5,74.3984 L35.5,76.3984 L39.5,76.3984 L39.5,75.3984 L39.5,74.9141 L40.125,74.3984 L40.5,74.3984 L40.875,74.3984 L41.5,74.9141 L41.5,75.3984 L41.5,78.3984 L33.5,78.3984 L33.0156,78.3984 L32.5,77.7734 L32.5,77.3984 L32.5,77.0234 L33.0156,76.3984 L33.5,76.3984 L33.5,76.3984 L33.5,70.3984 L33.5,70.3984 L33.0156,70.3984 L32.5,69.7734 L32.5,69.3984 L32.5,69.0234 L33.0156,68.3984 L33.5,68.3984 L41.5,68.3984 L41.5,71.3984 L41.5,71.8828 L40.875,72.3984 L40.5,72.3984 L40.125,72.3984 L39.5,71.8828 L39.5,71.3984 L39.5,70.3984 L35.5,70.3984 L35.5,72.3984 L36.5,72.3984 L36.5,71.9141 L36.5,71.9141 L37.125,71.3984 L37.5,71.3984 L37.875,71.3984 L38.5,71.9141 L38.5,72.3984 L38.5,74.3984 L38.5,74.8828 L37.875,75.3984 L37.875,75.3984 L37.5,75.3984 L37.125,75.3984 L36.5,74.8828 L36.5,74.8828 L36.5,74.3984 L35.5,74.3984 Z " fill="#000000"/><text fill="#000000" font-family="sans-serif" font-size="12" font-style="italic" lengthAdjust="spacing" textLength="43" x="49" y="61.957">«entity»</text><text fill="#000000" font-family="sans-serif" font-size="12" font-style="italic" lengthAdjust="spacing" textLength="35" x="53" y="77.0508">«root»</text><text fill="#000000" font-family="sans-serif" font-size="14" lengthAdjust="spacing" textLength="29" x="56" y="94.2207">AGV</text><line style="stroke:#181818;stroke-width:0.5;" x1="23" x2="92" y1="102.2969" y2="102.2969"/><text fill="#000000" font-family="sans-serif" font-size="14" lengthAdjust="spacing" textLength="36" x="28" y="120.8301">-state</text></g><!--MD5=[529d3a023cdac506d4f0a83ea48e48d1]
class AGVTask--><g id="elem_AGVTask"><rect codeLine="32" fill="#F5F5DC" height="85.9219" id="AGVTask" rx="2.5" ry="2.5" style="stroke:#181818;stroke-width:0.5;" width="142" x="218" y="42"/><ellipse cx="255.5" cy="63.3516" fill="#ADD1B2" rx="11" ry="11" style="stroke:#181818;stroke-width:1.0;"/><path d="M254,64.3516 L254,66.3516 L258,66.3516 L258,65.3516 L258,64.8672 L258.625,64.3516 L259,64.3516 L259.375,64.3516 L260,64.8672 L260,65.3516 L260,68.3516 L252,68.3516 L251.5156,68.3516 L251,67.7266 L251,67.3516 L251,66.9766 L251.5156,66.3516 L252,66.3516 L252,66.3516 L252,60.3516 L252,60.3516 L251.5156,60.3516 L251,59.7266 L251,59.3516 L251,58.9766 L251.5156,58.3516 L252,58.3516 L260,58.3516 L260,61.3516 L260,61.8359 L259.375,62.3516 L259,62.3516 L258.625,62.3516 L258,61.8359 L258,61.3516 L258,60.3516 L254,60.3516 L254,62.3516 L255,62.3516 L255,61.8672 L255,61.8672 L255.625,61.3516 L256,61.3516 L256.375,61.3516 L257,61.8672 L257,62.3516 L257,64.3516 L257,64.8359 L256.375,65.3516 L256.375,65.3516 L256,65.3516 L255.625,65.3516 L255,64.8359 L255,64.8359 L255,64.3516 L254,64.3516 Z " fill="#000000"/><text fill="#000000" font-family="sans-serif" font-size="12" font-style="italic" lengthAdjust="spacing" textLength="43" x="283" y="59.457">«entity»</text><text fill="#000000" font-family="sans-serif" font-size="14" lengthAdjust="spacing" textLength="60" x="274.5" y="76.627">AGVTask</text><line style="stroke:#181818;stroke-width:0.5;" x1="219" x2="359" y1="84.7031" y2="84.7031"/><text fill="#000000" font-family="sans-serif" font-size="14" lengthAdjust="spacing" textLength="16" x="224" y="103.2363">-id</text><text fill="#000000" font-family="sans-serif" font-size="14" lengthAdjust="spacing" textLength="130" x="224" y="120.8457">-agvTaskDescription</text></g><!--MD5=[4d1e38779c686a11487444ed33c3c69e]
class AGVPosition--><g id="elem_AGVPosition"><rect codeLine="20" fill="#F5F5DC" height="68.3125" id="AGVPosition" rx="2.5" ry="2.5" style="stroke:#181818;stroke-width:0.5;" width="111" x="233.5" y="163"/><ellipse cx="248.5" cy="184.3516" fill="#FF8B40" rx="11" ry="11" style="stroke:#A80036;stroke-width:1.0;"/><path d="M248.5,187.6328 L250.0313,182.1016 L250.0313,182.1016 L249.5156,182.1016 L249,181.4766 L249,181.1016 L249,180.7266 L249.5156,180.1016 L250.0313,180.1016 L251.9063,180.1016 L252.4844,180.1016 L253,180.7266 L253,181.1016 L253,181.4766 L252.4844,182.1016 L252.4844,182.1016 L252.0313,182.1016 L249.6875,190.1016 L247.3125,190.1016 L244.8438,182.1016 L244.5156,182.1016 L244.5156,182.1016 L244,181.4766 L244,181.1016 L244,180.7266 L244.5156,180.1016 L245.0938,180.1016 L246.9688,180.1016 L247.4844,180.1016 L248,180.7266 L248,181.1016 L248,181.4766 L247.4844,182.1016 L246.9688,182.1016 L246.9688,182.1016 L248.5,187.6328 Z " fill="#000000"/><text fill="#000000" font-family="sans-serif" font-size="12" font-style="italic" lengthAdjust="spacing" textLength="81" x="261.5" y="180.457">«value object»</text><text fill="#000000" font-family="sans-serif" font-size="14" lengthAdjust="spacing" textLength="79" x="262.5" y="197.627">AGVPosition</text><line style="stroke:#181818;stroke-width:0.5;" x1="234.5" x2="343.5" y1="205.7031" y2="205.7031"/><text fill="#000000" font-family="sans-serif" font-size="14" lengthAdjust="spacing" textLength="78" x="239.5" y="224.2363">-agvPosition</text></g><!--MD5=[e583cbaa21abc89bc679fcec0dd8046e]
class AGVStatus--><g id="elem_AGVStatus"><rect codeLine="24" fill="#F5F5DC" height="68.3125" id="AGVStatus" rx="2.5" ry="2.5" style="stroke:#181818;stroke-width:0.5;" width="109" x="234.5" y="266"/><ellipse cx="249.5" cy="287.3516" fill="#FF8B40" rx="11" ry="11" style="stroke:#A80036;stroke-width:1.0;"/><path d="M249.5,290.6328 L251.0313,285.1016 L251.0313,285.1016 L250.5156,285.1016 L250,284.4766 L250,284.1016 L250,283.7266 L250.5156,283.1016 L251.0313,283.1016 L252.9063,283.1016 L253.4844,283.1016 L254,283.7266 L254,284.1016 L254,284.4766 L253.4844,285.1016 L253.4844,285.1016 L253.0313,285.1016 L250.6875,293.1016 L248.3125,293.1016 L245.8438,285.1016 L245.5156,285.1016 L245.5156,285.1016 L245,284.4766 L245,284.1016 L245,283.7266 L245.5156,283.1016 L246.0938,283.1016 L247.9688,283.1016 L248.4844,283.1016 L249,283.7266 L249,284.1016 L249,284.4766 L248.4844,285.1016 L247.9688,285.1016 L247.9688,285.1016 L249.5,290.6328 Z " fill="#000000"/><text fill="#000000" font-family="sans-serif" font-size="12" font-style="italic" lengthAdjust="spacing" textLength="81" x="261.5" y="283.457">«value object»</text><text fill="#000000" font-family="sans-serif" font-size="14" lengthAdjust="spacing" textLength="69" x="267.5" y="300.627">AGVStatus</text><line style="stroke:#181818;stroke-width:0.5;" x1="235.5" x2="342.5" y1="308.7031" y2="308.7031"/><text fill="#000000" font-family="sans-serif" font-size="14" lengthAdjust="spacing" textLength="64" x="240.5" y="327.2363">-taskState</text></g><!--MD5=[f6f08570da9efaa92dc067d88742b265]
class AGVId--><g id="elem_AGVId"><rect codeLine="28" fill="#F5F5DC" height="68.3125" id="AGVId" rx="2.5" ry="2.5" style="stroke:#181818;stroke-width:0.5;" width="109" x="234.5" y="369"/><ellipse cx="249.5" cy="390.3516" fill="#FF8B40" rx="11" ry="11" style="stroke:#A80036;stroke-width:1.0;"/><path d="M249.5,393.6328 L251.0313,388.1016 L251.0313,388.1016 L250.5156,388.1016 L250,387.4766 L250,387.1016 L250,386.7266 L250.5156,386.1016 L251.0313,386.1016 L252.9063,386.1016 L253.4844,386.1016 L254,386.7266 L254,387.1016 L254,387.4766 L253.4844,388.1016 L253.4844,388.1016 L253.0313,388.1016 L250.6875,396.1016 L248.3125,396.1016 L245.8438,388.1016 L245.5156,388.1016 L245.5156,388.1016 L245,387.4766 L245,387.1016 L245,386.7266 L245.5156,386.1016 L246.0938,386.1016 L247.9688,386.1016 L248.4844,386.1016 L249,386.7266 L249,387.1016 L249,387.4766 L248.4844,388.1016 L247.9688,388.1016 L247.9688,388.1016 L249.5,393.6328 Z " fill="#000000"/><text fill="#000000" font-family="sans-serif" font-size="12" font-style="italic" lengthAdjust="spacing" textLength="81" x="261.5" y="386.457">«value object»</text><text fill="#000000" font-family="sans-serif" font-size="14" lengthAdjust="spacing" textLength="40" x="282" y="403.627">AGVId</text><line style="stroke:#181818;stroke-width:0.5;" x1="235.5" x2="342.5" y1="411.7031" y2="411.7031"/><text fill="#000000" font-family="sans-serif" font-size="14" lengthAdjust="spacing" textLength="16" x="240.5" y="430.2363">-id</text></g><!--MD5=[9265192601ae3d68217fc2a2ce1ea439]
class ProductOrder--><g id="elem_ProductOrder"><rect fill="#F5F5DC" height="40" id="ProductOrder" rx="2.5" ry="2.5" style="stroke:#181818;stroke-width:0.5;" width="118" x="502" y="65"/><ellipse cx="517" cy="81" fill="#ADD1B2" rx="11" ry="11" style="stroke:#181818;stroke-width:1.0;"/><path d="M519,77.5 Q519.2031,77 519.4375,76.75 Q519.6719,76.5 519.9375,76.5 Q520.4063,76.5 520.7031,76.7813 Q521,77.0625 521,77.7188 L521,79.2813 Q521,79.9375 520.7188,80.2188 Q520.4375,80.5 520,80.5 Q519.6094,80.5 519.3594,80.3281 Q519.1094,80.1563 519,79.7031 Q518.9531,79.3906 518.7813,79.2188 Q518.4688,78.8906 517.9063,78.7031 Q517.3438,78.5 516.7813,78.5 Q516.0781,78.5 515.4844,78.7813 Q514.9063,79.0625 514.4531,79.6875 Q514,80.3125 514,81.1719 L514,82.0938 Q514,83.125 514.8438,83.8125 Q515.6875,84.5 517.1875,84.5 Q518.0781,84.5 518.7031,84.2969 Q519.0625,84.1875 519.4688,83.8281 Q519.7344,83.625 519.875,83.5625 Q520.0156,83.5 520.1875,83.5 Q520.5156,83.5 520.75,83.7656 Q521,84.0156 521,84.375 Q521,84.7188 520.6563,85.125 Q520.1563,85.7188 519.3594,86.0469 Q518.3125,86.5 517.0313,86.5 Q515.5313,86.5 514.3281,85.9063 Q513.3594,85.4375 512.6719,84.4219 Q512,83.4063 512,82.2031 L512,81.1094 Q512,79.8594 512.5938,78.7656 Q513.2031,77.6719 514.25,77.0938 Q515.3125,76.5 516.5,76.5 Q517.2188,76.5 517.8438,76.75 Q518.4688,77 519,77.5 Z " fill="#000000"/><text fill="#000000" font-family="sans-serif" font-size="14" lengthAdjust="spacing" textLength="86" x="531" y="86.7285">ProductOrder</text><line style="stroke:#181818;stroke-width:0.5;" x1="503" x2="619" y1="97" y2="97"/></g><!--MD5=[2234673e5bfcd6f879a72487a4afa117]
link AGV to AGVId--><g id="link_AGV_AGVId"><path codeLine="38" d="M69.54,127.6 C80.01,162.75 97.89,213.54 123,253 C151.76,298.2 197.64,338.36 233.72,365.72 " fill="none" id="AGV-to-AGVId" style="stroke:#222222;stroke-width:1.0;"/><polygon fill="#222222" points="238.07,369,233.27,360.4,234.07,366,228.47,366.8,238.07,369" style="stroke:#222222;stroke-width:1.0;"/><text fill="#000000" font-family="sans-serif" font-size="13" lengthAdjust="spacing" textLength="21" x="145" y="249.4951">has</text><text fill="#000000" font-family="sans-serif" font-size="13" lengthAdjust="spacing" textLength="7" x="220.3541" y="358.2302">1</text></g><!--MD5=[544b9eb422541cc431b04e90f57fdf55]
link AGV to AGVStatus--><g id="link_AGV_AGVStatus"><path codeLine="39" d="M85.13,127.77 C95.98,143.36 109.21,160.73 123,175 C160.18,213.49 175.25,216.79 218,249 C223.95,253.48 230.22,258.14 236.47,262.74 " fill="none" id="AGV-to-AGVStatus" style="stroke:#222222;stroke-width:1.0;"/><polygon fill="#222222" points="240.78,265.91,235.8918,257.3599,236.7493,262.9513,231.1579,263.8089,240.78,265.91" style="stroke:#222222;stroke-width:1.0;"/><text fill="#000000" font-family="sans-serif" font-size="13" lengthAdjust="spacing" textLength="45" x="133" y="171.4951">collects</text><text fill="#000000" font-family="sans-serif" font-size="13" lengthAdjust="spacing" textLength="20" x="209.3179" y="255.1225">1..*</text></g><!--MD5=[bf5efedcc9e681833f119f210f8fc209]
link AGV to AGVPosition--><g id="link_AGV_AGVPosition"><path codeLine="40" d="M93.36,102.86 C129.17,120.18 185.59,147.47 228.49,168.22 " fill="none" id="AGV-to-AGVPosition" style="stroke:#222222;stroke-width:1.0;"/><polygon fill="#222222" points="233.12,170.46,226.7434,162.9541,228.6142,168.2926,223.2756,170.1634,233.12,170.46" style="stroke:#222222;stroke-width:1.0;"/><text fill="#000000" font-family="sans-serif" font-size="13" lengthAdjust="spacing" textLength="56" x="127.5" y="115.4951">located in</text><text fill="#000000" font-family="sans-serif" font-size="13" lengthAdjust="spacing" textLength="7" x="218.5119" y="181.5822">1</text></g><!--MD5=[6df205c85b5f33c8d427fd455753ef9d]
link AGV to AGVTask--><g id="link_AGV_AGVTask"><path codeLine="41" d="M93.36,85.85 C124.8,85.71 172.13,85.5 212.24,85.33 " fill="none" id="AGV-to-AGVTask" style="stroke:#222222;stroke-width:1.0;"/><polygon fill="#222222" points="217.6,85.31,208.5773,81.3615,212.6001,85.3386,208.623,89.3614,217.6,85.31" style="stroke:#222222;stroke-width:1.0;"/><text fill="#000000" font-family="sans-serif" font-size="13" lengthAdjust="spacing" textLength="63" x="124" y="82.4951">associated</text><text fill="#000000" font-family="sans-serif" font-size="13" lengthAdjust="spacing" textLength="7" x="202.8759" y="99.6842">1</text></g><!--MD5=[c9876babfca3f6c3169d35155ea7a92b]
link AGVTask to ProductOrder--><g id="link_AGVTask_ProductOrder"><path codeLine="42" d="M360.23,85 C402.49,85 455.84,85 496.77,85 " fill="none" id="AGVTask-to-ProductOrder" style="stroke:#222222;stroke-width:1.0;"/><polygon fill="#222222" points="501.96,85,492.96,81,496.96,85,492.96,89,501.96,85" style="stroke:#222222;stroke-width:1.0;"/><text fill="#000000" font-family="sans-serif" font-size="13" lengthAdjust="spacing" textLength="78" x="393" y="81.4951">composed by</text><text fill="#000000" font-family="sans-serif" font-size="13" lengthAdjust="spacing" textLength="20" x="473.9772" y="99.4404">1..*</text></g><!--MD5=[315effbb1faa8c0c5bd204ab7e90c70b]
@startuml

hide methods
left to right direction
skinparam classAttributeIconSize 0
skinparam classBackgroundColor beige
skinparam ArrowColor #222222

package "<<aggregate>> AGV" {
    entity AGV

    entity AGVTask
}

entity AGV <<entity>> <<root>> {
    -state
}

entity AGV <<entity>> <<root>> {}

class AGVPosition <<(V,#FF8B40) value object>> {
-agvPosition
}

class AGVStatus<<(V,#FF8B40) value object>> {
    -taskState
}

class AGVId <<(V,#FF8B40) value object>> {
-id
}

entity AGVTask <<entity>> {
    -id
    -agvTaskDescription
}


AGV - -> "1" AGVId : has
AGV - -> "1..*" AGVStatus : collects
AGV - -> "1" AGVPosition : located in
AGV - -> "1" AGVTask : associated
AGVTask - -> "1..*" ProductOrder : composed by
@enduml

PlantUML version 1.2022.5(Sat Apr 30 11:55:52 BST 2022)
(GPL source distribution)
Java Runtime: OpenJDK Runtime Environment
JVM: OpenJDK 64-Bit Server VM
Default Encoding: Cp1252
Language: pt
Country: PT
--></g></svg>