<?xml version="1.0" encoding="UTF-8" standalone="no"?><svg xmlns="http://www.w3.org/2000/svg" xmlns:xlink="http://www.w3.org/1999/xlink" contentStyleType="text/css" height="621px" preserveAspectRatio="none" style="width:1167px;height:621px;background:#FFFFFF;" version="1.1" viewBox="0 0 1167 621" width="1167px" zoomAndPan="magnify"><defs/><g><rect fill="#FFFFFF" height="437.5156" style="stroke:#181818;stroke-width:1.0;" width="10" x="55" y="92.6094"/><rect fill="#FFFFFF" height="406.1641" style="stroke:#181818;stroke-width:1.0;" width="10" x="400" y="114.9609"/><rect fill="#FFFFFF" height="30" style="stroke:#181818;stroke-width:1.0;" width="10" x="618" y="175.6641"/><rect fill="#FFFFFF" height="194.4063" style="stroke:#181818;stroke-width:1.0;" width="10" x="618" y="236.0156"/><rect fill="#FFFFFF" height="30" style="stroke:#181818;stroke-width:1.0;" width="10" x="618" y="460.7734"/><rect fill="#FFFFFF" height="164.0547" style="stroke:#181818;stroke-width:1.0;" width="10" x="767" y="266.3672"/><rect fill="#FFFFFF" height="133.7031" style="stroke:#181818;stroke-width:1.0;" width="10" x="888" y="296.7188"/><rect fill="#FFFFFF" height="28" style="stroke:#181818;stroke-width:1.0;" width="10" x="893" y="335.0703"/><rect fill="#FFFFFF" height="30" style="stroke:#181818;stroke-width:1.0;" width="10" x="1091" y="400.4219"/><line style="stroke:#181818;stroke-width:0.5;stroke-dasharray:5.0,5.0;" x1="60" x2="60" y1="82.6094" y2="539.125"/><line style="stroke:#181818;stroke-width:0.5;stroke-dasharray:5.0,5.0;" x1="404.5" x2="404.5" y1="82.6094" y2="539.125"/><line style="stroke:#181818;stroke-width:0.5;stroke-dasharray:5.0,5.0;" x1="622.5" x2="622.5" y1="82.6094" y2="539.125"/><line style="stroke:#181818;stroke-width:0.5;stroke-dasharray:5.0,5.0;" x1="771.5" x2="771.5" y1="82.6094" y2="539.125"/><line style="stroke:#181818;stroke-width:0.5;stroke-dasharray:5.0,5.0;" x1="892.5" x2="892.5" y1="82.6094" y2="539.125"/><line style="stroke:#181818;stroke-width:0.5;stroke-dasharray:5.0,5.0;" x1="1096" x2="1096" y1="82.6094" y2="539.125"/><text fill="#000000" font-family="sans-serif" font-size="14" lengthAdjust="spacing" textLength="104" x="5" y="79.5332">Project Manager</text><ellipse cx="60" cy="13.5" fill="#E2E2F0" rx="8" ry="8" style="stroke:#181818;stroke-width:0.5;"/><path d="M60,21.5 L60,48.5 M47,29.5 L73,29.5 M60,48.5 L47,63.5 M60,48.5 L73,63.5 " fill="none" style="stroke:#181818;stroke-width:0.5;"/><text fill="#000000" font-family="sans-serif" font-size="14" lengthAdjust="spacing" textLength="104" x="5" y="552.6582">Project Manager</text><ellipse cx="60" cy="564.2344" fill="#E2E2F0" rx="8" ry="8" style="stroke:#181818;stroke-width:0.5;"/><path d="M60,572.2344 L60,599.2344 M47,580.2344 L73,580.2344 M60,599.2344 L47,614.2344 M60,599.2344 L73,614.2344 " fill="none" style="stroke:#181818;stroke-width:0.5;"/><rect fill="#E2E2F0" height="49.2188" rx="2.5" ry="2.5" style="stroke:#181818;stroke-width:0.5;" width="139" x="335.5" y="32.3906"/><text fill="#000000" font-family="sans-serif" font-size="14" font-style="italic" lengthAdjust="spacing" textLength="95" x="357.5" y="53.9238">«presentation»</text><text fill="#000000" font-family="sans-serif" font-size="14" lengthAdjust="spacing" textLength="125" x="342.5" y="71.5332">TaskManagementUI</text><rect fill="#E2E2F0" height="49.2188" rx="2.5" ry="2.5" style="stroke:#181818;stroke-width:0.5;" width="139" x="335.5" y="538.125"/><text fill="#000000" font-family="sans-serif" font-size="14" font-style="italic" lengthAdjust="spacing" textLength="95" x="357.5" y="559.6582">«presentation»</text><text fill="#000000" font-family="sans-serif" font-size="14" lengthAdjust="spacing" textLength="125" x="342.5" y="577.2676">TaskManagementUI</text><rect fill="#E2E2F0" height="49.2188" rx="2.5" ry="2.5" style="stroke:#181818;stroke-width:0.5;" width="185" x="530.5" y="32.3906"/><text fill="#000000" font-family="sans-serif" font-size="14" font-style="italic" lengthAdjust="spacing" textLength="84" x="581" y="53.9238">«application»</text><text fill="#000000" font-family="sans-serif" font-size="14" lengthAdjust="spacing" textLength="171" x="537.5" y="71.5332">CallAGVManagerController</text><rect fill="#E2E2F0" height="49.2188" rx="2.5" ry="2.5" style="stroke:#181818;stroke-width:0.5;" width="185" x="530.5" y="538.125"/><text fill="#000000" font-family="sans-serif" font-size="14" font-style="italic" lengthAdjust="spacing" textLength="84" x="581" y="559.6582">«application»</text><text fill="#000000" font-family="sans-serif" font-size="14" lengthAdjust="spacing" textLength="171" x="537.5" y="577.2676">CallAGVManagerController</text><rect fill="#E2E2F0" height="31.6094" rx="2.5" ry="2.5" style="stroke:#181818;stroke-width:0.5;" width="93" x="725.5" y="50"/><text fill="#000000" font-family="sans-serif" font-size="14" lengthAdjust="spacing" textLength="79" x="732.5" y="71.5332">agvManager</text><rect fill="#E2E2F0" height="31.6094" rx="2.5" ry="2.5" style="stroke:#181818;stroke-width:0.5;" width="93" x="725.5" y="538.125"/><text fill="#000000" font-family="sans-serif" font-size="14" lengthAdjust="spacing" textLength="79" x="732.5" y="559.6582">agvManager</text><rect fill="#E2E2F0" height="49.2188" rx="2.5" ry="2.5" style="stroke:#181818;stroke-width:0.5;" width="127" x="829.5" y="32.3906"/><text fill="#000000" font-family="sans-serif" font-size="14" font-style="italic" lengthAdjust="spacing" textLength="84" x="851" y="53.9238">«application»</text><text fill="#000000" font-family="sans-serif" font-size="14" lengthAdjust="spacing" textLength="113" x="836.5" y="71.5332">TaskManagement</text><rect fill="#E2E2F0" height="49.2188" rx="2.5" ry="2.5" style="stroke:#181818;stroke-width:0.5;" width="127" x="829.5" y="538.125"/><text fill="#000000" font-family="sans-serif" font-size="14" font-style="italic" lengthAdjust="spacing" textLength="84" x="851" y="559.6582">«application»</text><text fill="#000000" font-family="sans-serif" font-size="14" lengthAdjust="spacing" textLength="113" x="836.5" y="577.2676">TaskManagement</text><rect fill="#E2E2F0" height="49.2188" rx="2.5" ry="2.5" style="stroke:#181818;stroke-width:0.5;" width="130" x="1031" y="32.3906"/><text fill="#000000" font-family="sans-serif" font-size="14" font-style="italic" lengthAdjust="spacing" textLength="59" x="1066.5" y="53.9238">«factory»</text><text fill="#000000" font-family="sans-serif" font-size="14" lengthAdjust="spacing" textLength="116" x="1038" y="71.5332">RepositoryFactory</text><rect fill="#E2E2F0" height="49.2188" rx="2.5" ry="2.5" style="stroke:#181818;stroke-width:0.5;" width="130" x="1031" y="538.125"/><text fill="#000000" font-family="sans-serif" font-size="14" font-style="italic" lengthAdjust="spacing" textLength="59" x="1066.5" y="559.6582">«factory»</text><text fill="#000000" font-family="sans-serif" font-size="14" lengthAdjust="spacing" textLength="116" x="1038" y="577.2676">RepositoryFactory</text><rect fill="#FFFFFF" height="437.5156" style="stroke:#181818;stroke-width:1.0;" width="10" x="55" y="92.6094"/><rect fill="#FFFFFF" height="406.1641" style="stroke:#181818;stroke-width:1.0;" width="10" x="400" y="114.9609"/><rect fill="#FFFFFF" height="30" style="stroke:#181818;stroke-width:1.0;" width="10" x="618" y="175.6641"/><rect fill="#FFFFFF" height="194.4063" style="stroke:#181818;stroke-width:1.0;" width="10" x="618" y="236.0156"/><rect fill="#FFFFFF" height="30" style="stroke:#181818;stroke-width:1.0;" width="10" x="618" y="460.7734"/><rect fill="#FFFFFF" height="164.0547" style="stroke:#181818;stroke-width:1.0;" width="10" x="767" y="266.3672"/><rect fill="#FFFFFF" height="133.7031" style="stroke:#181818;stroke-width:1.0;" width="10" x="888" y="296.7188"/><rect fill="#FFFFFF" height="28" style="stroke:#181818;stroke-width:1.0;" width="10" x="893" y="335.0703"/><rect fill="#FFFFFF" height="30" style="stroke:#181818;stroke-width:1.0;" width="10" x="1091" y="400.4219"/><polygon fill="#181818" points="388,110.9609,398,114.9609,388,118.9609,392,114.9609" style="stroke:#181818;stroke-width:1.0;"/><line style="stroke:#181818;stroke-width:1.0;" x1="65" x2="394" y1="114.9609" y2="114.9609"/><text fill="#000000" font-family="sans-serif" font-size="13" font-weight="bold" lengthAdjust="spacing" textLength="7" x="72" y="110.1045">1</text><text fill="#000000" font-family="sans-serif" font-size="13" lengthAdjust="spacing" textLength="305" x="83" y="110.1045">Inicia o processo de atribuição automática de tarefas</text><polygon fill="#181818" points="611,141.3125,621,145.3125,611,149.3125,615,145.3125" style="stroke:#181818;stroke-width:1.0;"/><line style="stroke:#181818;stroke-width:1.0;" x1="410" x2="617" y1="145.3125" y2="145.3125"/><text fill="#000000" font-family="sans-serif" font-size="13" font-weight="bold" lengthAdjust="spacing" textLength="7" x="417" y="140.4561">2</text><text fill="#000000" font-family="sans-serif" font-size="13" lengthAdjust="spacing" textLength="44" x="428" y="140.4561">create()</text><polygon fill="#181818" points="606,171.6641,616,175.6641,606,179.6641,610,175.6641" style="stroke:#181818;stroke-width:1.0;"/><line style="stroke:#181818;stroke-width:1.0;" x1="410" x2="612" y1="175.6641" y2="175.6641"/><text fill="#000000" font-family="sans-serif" font-size="13" font-weight="bold" lengthAdjust="spacing" textLength="7" x="417" y="170.8076">3</text><text fill="#000000" font-family="sans-serif" font-size="13" lengthAdjust="spacing" textLength="178" x="428" y="170.8076">connectDaemon(address, port)</text><polygon fill="#181818" points="606,232.0156,616,236.0156,606,240.0156,610,236.0156" style="stroke:#181818;stroke-width:1.0;"/><line style="stroke:#181818;stroke-width:1.0;" x1="410" x2="612" y1="236.0156" y2="236.0156"/><text fill="#000000" font-family="sans-serif" font-size="13" font-weight="bold" lengthAdjust="spacing" textLength="7" x="417" y="231.1592">4</text><text fill="#000000" font-family="sans-serif" font-size="13" lengthAdjust="spacing" textLength="57" x="428" y="231.1592">callFIFO()</text><polygon fill="#181818" points="755,262.3672,765,266.3672,755,270.3672,759,266.3672" style="stroke:#181818;stroke-width:1.0;"/><line style="stroke:#181818;stroke-width:1.0;" x1="628" x2="761" y1="266.3672" y2="266.3672"/><text fill="#000000" font-family="sans-serif" font-size="13" font-weight="bold" lengthAdjust="spacing" textLength="7" x="635" y="261.5107">5</text><text fill="#000000" font-family="sans-serif" font-size="13" lengthAdjust="spacing" textLength="54" x="646" y="261.5107">execute()</text><polygon fill="#181818" points="876,292.7188,886,296.7188,876,300.7188,880,296.7188" style="stroke:#181818;stroke-width:1.0;"/><line style="stroke:#181818;stroke-width:1.0;" x1="777" x2="882" y1="296.7188" y2="296.7188"/><text fill="#000000" font-family="sans-serif" font-size="13" font-weight="bold" lengthAdjust="spacing" textLength="7" x="784" y="291.8623">6</text><text fill="#000000" font-family="sans-serif" font-size="13" lengthAdjust="spacing" textLength="81" x="795" y="291.8623">assignTasks()</text><line style="stroke:#181818;stroke-width:1.0;" x1="903" x2="945" y1="327.0703" y2="327.0703"/><line style="stroke:#181818;stroke-width:1.0;" x1="945" x2="945" y1="327.0703" y2="340.0703"/><line style="stroke:#181818;stroke-width:1.0;" x1="904" x2="945" y1="340.0703" y2="340.0703"/><polygon fill="#181818" points="914,336.0703,904,340.0703,914,344.0703,910,340.0703" style="stroke:#181818;stroke-width:1.0;"/><text fill="#000000" font-family="sans-serif" font-size="13" font-weight="bold" lengthAdjust="spacing" textLength="7" x="910" y="322.2139">7</text><text fill="#000000" font-family="sans-serif" font-size="13" lengthAdjust="spacing" textLength="168" x="921" y="322.2139">removeUnfittedAGVs(agvList)</text><polygon fill="#181818" points="1079,396.4219,1089,400.4219,1079,404.4219,1083,400.4219" style="stroke:#181818;stroke-width:1.0;"/><line style="stroke:#181818;stroke-width:1.0;" x1="898" x2="1085" y1="400.4219" y2="400.4219"/><text fill="#000000" font-family="sans-serif" font-size="13" font-weight="bold" lengthAdjust="spacing" textLength="7" x="905" y="395.5654">8</text><text fill="#000000" font-family="sans-serif" font-size="13" lengthAdjust="spacing" textLength="34" x="916" y="395.5654">save()</text><polygon fill="#181818" points="606,456.7734,616,460.7734,606,464.7734,610,460.7734" style="stroke:#181818;stroke-width:1.0;"/><line style="stroke:#181818;stroke-width:1.0;" x1="410" x2="612" y1="460.7734" y2="460.7734"/><text fill="#000000" font-family="sans-serif" font-size="13" font-weight="bold" lengthAdjust="spacing" textLength="7" x="417" y="455.917">9</text><text fill="#000000" font-family="sans-serif" font-size="13" lengthAdjust="spacing" textLength="104" x="428" y="455.917">closeConnection()</text><polygon fill="#181818" points="76,517.125,66,521.125,76,525.125,72,521.125" style="stroke:#181818;stroke-width:1.0;"/><line style="stroke:#181818;stroke-width:1.0;stroke-dasharray:2.0,2.0;" x1="70" x2="404" y1="521.125" y2="521.125"/><text fill="#000000" font-family="sans-serif" font-size="13" font-weight="bold" lengthAdjust="spacing" textLength="14" x="82" y="516.2686">10</text><text fill="#000000" font-family="sans-serif" font-size="13" lengthAdjust="spacing" textLength="217" x="100" y="516.2686">Informa sobre o sucesso da operação</text><!--MD5=[7ec9d11c6542cdba3f4dcc427d6e64f1]
@startuml

autonumber
actor "Project Manager" as PM
participant TaskManagementUI as UI <<presentation>>
participant CallAGVManagerController as controller <<application>>
participant agvManager as server
participant TaskManagement as taskManagement <<application>>

participant RepositoryFactory as factory <<factory>>

activate PM
PM -> UI : Inicia o processo de atribuição automática de tarefas
activate UI

UI -> controller : create()

UI -> controller : connectDaemon(address, port)
activate controller
deactivate controller

UI -> controller : callFIFO()
activate controller


controller -> server : execute()
activate server

server -> taskManagement : assignTasks()
activate taskManagement

taskManagement -> taskManagement ++: removeUnfittedAGVs(agvList)
deactivate taskManagement

taskManagement -> factory : save()
activate factory
deactivate factory

deactivate taskManagement

deactivate server

deactivate controller

UI -> controller : closeConnection()
activate controller
deactivate controller

UI - -> PM : Informa sobre o sucesso da operação 

deactivate UI

@enduml

PlantUML version 1.2022.5(Sat Apr 30 11:55:52 BST 2022)
(GPL source distribution)
Java Runtime: OpenJDK Runtime Environment
JVM: OpenJDK 64-Bit Server VM
Default Encoding: Cp1252
Language: pt
Country: PT
--></g></svg>