<?xml version="1.0" encoding="UTF-8" standalone="no"?><svg xmlns="http://www.w3.org/2000/svg" xmlns:xlink="http://www.w3.org/1999/xlink" contentScriptType="application/ecmascript" contentStyleType="text/css" height="540.8px" preserveAspectRatio="none" style="width:1678px;height:540px;background:#FFFFFF;" version="1.1" viewBox="0 0 1678 540" width="1678.4px" zoomAndPan="magnify"><defs><filter height="300%" id="fgdlnuuvpp0vl" width="300%" x="-1" y="-1"><feGaussianBlur result="blurOut" stdDeviation="1.6000000000000003"/><feColorMatrix in="blurOut" result="blurOut2" type="matrix" values="0 0 0 0 0 0 0 0 0 0 0 0 0 0 0 0 0 0 .4 0"/><feOffset dx="3.2000000000000006" dy="3.2000000000000006" in="blurOut2" result="blurOut3"/><feBlend in="SourceGraphic" in2="blurOut3" mode="normal"/></filter></defs><g><!--MD5=[cd1e467dd42714edd782c72995bbc617]
cluster <<aggregate>> Product--><polygon fill="#FFFFFF" filter="url(#fgdlnuuvpp0vl)" points="12.8,4.8,148,4.8,153.6,23.6875,1459.2,23.6875,1459.2,316,12.8,316,12.8,4.8" style="stroke:#000000;stroke-width:1.2000000000000002;"/><line style="stroke:#000000;stroke-width:1.2000000000000002;" x1="12.8" x2="153.6" y1="23.6875" y2="23.6875"/><text fill="#000000" font-family="sans-serif" font-size="11.2" font-weight="bold" lengthAdjust="spacing" textLength="130.4" x="16" y="18.0266">&lt;&lt;aggregate&gt;&gt; Product</text><!--MD5=[379fcb94853c7c195c0368ceebdeaf4d]
cluster <<aggregate>> Category--><polygon fill="#FFFFFF" filter="url(#fgdlnuuvpp0vl)" points="1293.6,342.4,1435.2,342.4,1440.8,361.2875,1664.8,361.2875,1664.8,535.2,1293.6,535.2,1293.6,342.4" style="stroke:#000000;stroke-width:1.2000000000000002;"/><line style="stroke:#000000;stroke-width:1.2000000000000002;" x1="1293.6" x2="1440.8" y1="361.2875" y2="361.2875"/><text fill="#000000" font-family="sans-serif" font-size="11.2" font-weight="bold" lengthAdjust="spacing" textLength="136.8" x="1296.8" y="355.6266">&lt;&lt;aggregate&gt;&gt; Category</text><!--MD5=[72136138052d025cffdce3c22fbd185f]
class Product--><rect codeLine="24" fill="#F5F5DC" filter="url(#fgdlnuuvpp0vl)" height="68.0938" id="Product" style="stroke:#A80036;stroke-width:1.2000000000000002;" width="86.4" x="800.8" y="33.6"/><ellipse cx="825.04" cy="55.7125" fill="#ADD1B2" rx="8.8" ry="8.8" style="stroke:#A80036;stroke-width:0.8000000000000002;"/><path d="M823.84,56.5125 L823.84,58.1125 L827.04,58.1125 L827.04,57.3125 L827.04,56.925 L827.54,56.5125 L827.84,56.5125 L828.14,56.5125 L828.64,56.925 L828.64,57.3125 L828.64,59.7125 L822.24,59.7125 L821.8525,59.7125 L821.44,59.2125 L821.44,58.9125 L821.44,58.6125 L821.8525,58.1125 L822.24,58.1125 L822.24,58.1125 L822.24,53.3125 L822.24,53.3125 L821.8525,53.3125 L821.44,52.8125 L821.44,52.5125 L821.44,52.2125 L821.8525,51.7125 L822.24,51.7125 L828.64,51.7125 L828.64,54.1125 L828.64,54.5 L828.14,54.9125 L827.84,54.9125 L827.54,54.9125 L827.04,54.5 L827.04,54.1125 L827.04,53.3125 L823.84,53.3125 L823.84,54.9125 L824.64,54.9125 L824.64,54.525 L824.64,54.525 L825.14,54.1125 L825.44,54.1125 L825.74,54.1125 L826.24,54.525 L826.24,54.9125 L826.24,56.5125 L826.24,56.9 L825.74,57.3125 L825.74,57.3125 L825.44,57.3125 L825.14,57.3125 L824.64,56.9 L824.64,56.9 L824.64,56.5125 L823.84,56.5125 Z " fill="#000000"/><text fill="#000000" font-family="sans-serif" font-size="9.6" font-style="italic" lengthAdjust="spacing" textLength="34.4" x="838.56" y="47.5656">«entity»</text><text fill="#000000" font-family="sans-serif" font-size="9.6" font-style="italic" lengthAdjust="spacing" textLength="28" x="841.76" y="59.6406">«root»</text><text fill="#000000" font-family="sans-serif" font-size="9.6" lengthAdjust="spacing" textLength="33.6" x="838.96" y="71.7156">Product</text><line style="stroke:#A80036;stroke-width:1.2000000000000002;" x1="801.6" x2="886.4" y1="77.825" y2="77.825"/><text fill="#000000" font-family="sans-serif" font-size="8.8" lengthAdjust="spacing" textLength="76.8" x="805.6" y="90.1602">-uniqueInternalCode</text><line style="stroke:#A80036;stroke-width:1.2000000000000002;" x1="801.6" x2="886.4" y1="95.2938" y2="95.2938"/><!--MD5=[79d3acb8d8b4a000645cdf546551f625]
class ShortDescription--><rect codeLine="28" fill="#F5F5DC" filter="url(#fgdlnuuvpp0vl)" height="38.55" id="ShortDescription" style="stroke:#A80036;stroke-width:1.2000000000000002;" width="99.2" x="25.6" y="264.8"/><ellipse cx="37.6" cy="280.875" fill="#FF8B40" rx="8.8" ry="8.8" style="stroke:#A80036;stroke-width:0.8000000000000002;"/><path d="M37.6,283.5 L38.825,279.075 L38.825,279.075 L38.4125,279.075 L38,278.575 L38,278.275 L38,277.975 L38.4125,277.475 L38.825,277.475 L40.325,277.475 L40.7875,277.475 L41.2,277.975 L41.2,278.275 L41.2,278.575 L40.7875,279.075 L40.7875,279.075 L40.425,279.075 L38.55,285.475 L36.65,285.475 L34.675,279.075 L34.4125,279.075 L34.4125,279.075 L34,278.575 L34,278.275 L34,277.975 L34.4125,277.475 L34.875,277.475 L36.375,277.475 L36.7875,277.475 L37.2,277.975 L37.2,278.275 L37.2,278.575 L36.7875,279.075 L36.375,279.075 L36.375,279.075 L37.6,283.5 Z " fill="#000000"/><text fill="#000000" font-family="sans-serif" font-size="9.6" font-style="italic" lengthAdjust="spacing" textLength="64.8" x="53.2" y="278.7656">«value object»</text><text fill="#000000" font-family="sans-serif" font-size="9.6" lengthAdjust="spacing" textLength="73.6" x="48.8" y="290.8406">ShortDescription</text><line style="stroke:#A80036;stroke-width:1.2000000000000002;" x1="26.4" x2="124" y1="296.95" y2="296.95"/><!--MD5=[0b7d0e576c2aec4b9edea3c9e75f66a5]
class LongDescription--><rect codeLine="29" fill="#F5F5DC" filter="url(#fgdlnuuvpp0vl)" height="38.55" id="LongDescription" style="stroke:#A80036;stroke-width:1.2000000000000002;" width="98.4" x="160.4" y="164"/><ellipse cx="172.4" cy="180.075" fill="#FF8B40" rx="8.8" ry="8.8" style="stroke:#A80036;stroke-width:0.8000000000000002;"/><path d="M172.4,182.7 L173.625,178.275 L173.625,178.275 L173.2125,178.275 L172.8,177.775 L172.8,177.475 L172.8,177.175 L173.2125,176.675 L173.625,176.675 L175.125,176.675 L175.5875,176.675 L176,177.175 L176,177.475 L176,177.775 L175.5875,178.275 L175.5875,178.275 L175.225,178.275 L173.35,184.675 L171.45,184.675 L169.475,178.275 L169.2125,178.275 L169.2125,178.275 L168.8,177.775 L168.8,177.475 L168.8,177.175 L169.2125,176.675 L169.675,176.675 L171.175,176.675 L171.5875,176.675 L172,177.175 L172,177.475 L172,177.775 L171.5875,178.275 L171.175,178.275 L171.175,178.275 L172.4,182.7 Z " fill="#000000"/><text fill="#000000" font-family="sans-serif" font-size="9.6" font-style="italic" lengthAdjust="spacing" textLength="64.8" x="187.6" y="177.9656">«value object»</text><text fill="#000000" font-family="sans-serif" font-size="9.6" lengthAdjust="spacing" textLength="72.8" x="183.6" y="190.0406">LongDescription</text><line style="stroke:#A80036;stroke-width:1.2000000000000002;" x1="161.2" x2="258" y1="196.15" y2="196.15"/><!--MD5=[216845e66863fbf0f228ebacc80c455b]
class TechnicalDescription--><rect codeLine="30" fill="#F5F5DC" filter="url(#fgdlnuuvpp0vl)" height="38.55" id="TechnicalDescription" style="stroke:#A80036;stroke-width:1.2000000000000002;" width="118.4" x="287.2" y="164"/><ellipse cx="299.2" cy="180.075" fill="#FF8B40" rx="8.8" ry="8.8" style="stroke:#A80036;stroke-width:0.8000000000000002;"/><path d="M299.2,182.7 L300.425,178.275 L300.425,178.275 L300.0125,178.275 L299.6,177.775 L299.6,177.475 L299.6,177.175 L300.0125,176.675 L300.425,176.675 L301.925,176.675 L302.3875,176.675 L302.8,177.175 L302.8,177.475 L302.8,177.775 L302.3875,178.275 L302.3875,178.275 L302.025,178.275 L300.15,184.675 L298.25,184.675 L296.275,178.275 L296.0125,178.275 L296.0125,178.275 L295.6,177.775 L295.6,177.475 L295.6,177.175 L296.0125,176.675 L296.475,176.675 L297.975,176.675 L298.3875,176.675 L298.8,177.175 L298.8,177.475 L298.8,177.775 L298.3875,178.275 L297.975,178.275 L297.975,178.275 L299.2,182.7 Z " fill="#000000"/><text fill="#000000" font-family="sans-serif" font-size="9.6" font-style="italic" lengthAdjust="spacing" textLength="64.8" x="324.4" y="177.9656">«value object»</text><text fill="#000000" font-family="sans-serif" font-size="9.6" lengthAdjust="spacing" textLength="92.8" x="310.4" y="190.0406">TechnicalDescription</text><line style="stroke:#A80036;stroke-width:1.2000000000000002;" x1="288" x2="404.8" y1="196.15" y2="196.15"/><!--MD5=[e59bda2572a266093cda22ac34510ea0]
class Barcode--><rect codeLine="31" fill="#F5F5DC" filter="url(#fgdlnuuvpp0vl)" height="38.55" id="Barcode" style="stroke:#A80036;stroke-width:1.2000000000000002;" width="87.2" x="434" y="164"/><ellipse cx="446" cy="180.075" fill="#FF8B40" rx="8.8" ry="8.8" style="stroke:#A80036;stroke-width:0.8000000000000002;"/><path d="M446,182.7 L447.225,178.275 L447.225,178.275 L446.8125,178.275 L446.4,177.775 L446.4,177.475 L446.4,177.175 L446.8125,176.675 L447.225,176.675 L448.725,176.675 L449.1875,176.675 L449.6,177.175 L449.6,177.475 L449.6,177.775 L449.1875,178.275 L449.1875,178.275 L448.825,178.275 L446.95,184.675 L445.05,184.675 L443.075,178.275 L442.8125,178.275 L442.8125,178.275 L442.4,177.775 L442.4,177.475 L442.4,177.175 L442.8125,176.675 L443.275,176.675 L444.775,176.675 L445.1875,176.675 L445.6,177.175 L445.6,177.475 L445.6,177.775 L445.1875,178.275 L444.775,178.275 L444.775,178.275 L446,182.7 Z " fill="#000000"/><text fill="#000000" font-family="sans-serif" font-size="9.6" font-style="italic" lengthAdjust="spacing" textLength="64.8" x="455.6" y="177.9656">«value object»</text><text fill="#000000" font-family="sans-serif" font-size="9.6" lengthAdjust="spacing" textLength="36.8" x="469.6" y="190.0406">Barcode</text><line style="stroke:#A80036;stroke-width:1.2000000000000002;" x1="434.8" x2="520.4" y1="196.15" y2="196.15"/><!--MD5=[f08eadd80edf125a26d903aaabdc00ef]
class ProductionCode--><rect codeLine="32" fill="#F5F5DC" filter="url(#fgdlnuuvpp0vl)" height="38.55" id="ProductionCode" style="stroke:#A80036;stroke-width:1.2000000000000002;" width="96.8" x="549.2" y="164"/><ellipse cx="561.2" cy="180.075" fill="#FF8B40" rx="8.8" ry="8.8" style="stroke:#A80036;stroke-width:0.8000000000000002;"/><path d="M561.2,182.7 L562.425,178.275 L562.425,178.275 L562.0125,178.275 L561.6,177.775 L561.6,177.475 L561.6,177.175 L562.0125,176.675 L562.425,176.675 L563.925,176.675 L564.3875,176.675 L564.8,177.175 L564.8,177.475 L564.8,177.775 L564.3875,178.275 L564.3875,178.275 L564.025,178.275 L562.15,184.675 L560.25,184.675 L558.275,178.275 L558.0125,178.275 L558.0125,178.275 L557.6,177.775 L557.6,177.475 L557.6,177.175 L558.0125,176.675 L558.475,176.675 L559.975,176.675 L560.3875,176.675 L560.8,177.175 L560.8,177.475 L560.8,177.775 L560.3875,178.275 L559.975,178.275 L559.975,178.275 L561.2,182.7 Z " fill="#000000"/><text fill="#000000" font-family="sans-serif" font-size="9.6" font-style="italic" lengthAdjust="spacing" textLength="64.8" x="575.6" y="177.9656">«value object»</text><text fill="#000000" font-family="sans-serif" font-size="9.6" lengthAdjust="spacing" textLength="71.2" x="572.4" y="190.0406">ProductionCode</text><line style="stroke:#A80036;stroke-width:1.2000000000000002;" x1="550" x2="645.2" y1="196.15" y2="196.15"/><!--MD5=[1ec76a0a72b04a65c95a0899f0ab5f6d]
class PriceWithoutVAT--><rect codeLine="33" fill="#F5F5DC" filter="url(#fgdlnuuvpp0vl)" height="38.55" id="PriceWithoutVAT" style="stroke:#A80036;stroke-width:1.2000000000000002;" width="97.6" x="674.4" y="164"/><ellipse cx="686.4" cy="180.075" fill="#FF8B40" rx="8.8" ry="8.8" style="stroke:#A80036;stroke-width:0.8000000000000002;"/><path d="M686.4,182.7 L687.625,178.275 L687.625,178.275 L687.2125,178.275 L686.8,177.775 L686.8,177.475 L686.8,177.175 L687.2125,176.675 L687.625,176.675 L689.125,176.675 L689.5875,176.675 L690,177.175 L690,177.475 L690,177.775 L689.5875,178.275 L689.5875,178.275 L689.225,178.275 L687.35,184.675 L685.45,184.675 L683.475,178.275 L683.2125,178.275 L683.2125,178.275 L682.8,177.775 L682.8,177.475 L682.8,177.175 L683.2125,176.675 L683.675,176.675 L685.175,176.675 L685.5875,176.675 L686,177.175 L686,177.475 L686,177.775 L685.5875,178.275 L685.175,178.275 L685.175,178.275 L686.4,182.7 Z " fill="#000000"/><text fill="#000000" font-family="sans-serif" font-size="9.6" font-style="italic" lengthAdjust="spacing" textLength="64.8" x="701.2" y="177.9656">«value object»</text><text fill="#000000" font-family="sans-serif" font-size="9.6" lengthAdjust="spacing" textLength="72" x="697.6" y="190.0406">PriceWithoutVAT</text><line style="stroke:#A80036;stroke-width:1.2000000000000002;" x1="675.2" x2="771.2" y1="196.15" y2="196.15"/><!--MD5=[18ba541ebf72ab84a620ca031df01403]
class PriceWithVAT--><rect codeLine="34" fill="#F5F5DC" filter="url(#fgdlnuuvpp0vl)" height="38.55" id="PriceWithVAT" style="stroke:#A80036;stroke-width:1.2000000000000002;" width="87.2" x="800.4" y="164"/><ellipse cx="812.4" cy="180.075" fill="#FF8B40" rx="8.8" ry="8.8" style="stroke:#A80036;stroke-width:0.8000000000000002;"/><path d="M812.4,182.7 L813.625,178.275 L813.625,178.275 L813.2125,178.275 L812.8,177.775 L812.8,177.475 L812.8,177.175 L813.2125,176.675 L813.625,176.675 L815.125,176.675 L815.5875,176.675 L816,177.175 L816,177.475 L816,177.775 L815.5875,178.275 L815.5875,178.275 L815.225,178.275 L813.35,184.675 L811.45,184.675 L809.475,178.275 L809.2125,178.275 L809.2125,178.275 L808.8,177.775 L808.8,177.475 L808.8,177.175 L809.2125,176.675 L809.675,176.675 L811.175,176.675 L811.5875,176.675 L812,177.175 L812,177.475 L812,177.775 L811.5875,178.275 L811.175,178.275 L811.175,178.275 L812.4,182.7 Z " fill="#000000"/><text fill="#000000" font-family="sans-serif" font-size="9.6" font-style="italic" lengthAdjust="spacing" textLength="64.8" x="822" y="177.9656">«value object»</text><text fill="#000000" font-family="sans-serif" font-size="9.6" lengthAdjust="spacing" textLength="58.4" x="825.2" y="190.0406">PriceWithVAT</text><line style="stroke:#A80036;stroke-width:1.2000000000000002;" x1="801.2" x2="886.8" y1="196.15" y2="196.15"/><!--MD5=[3a7cf800944e5f3d9e9c59d889c61f3b]
class Reference--><rect codeLine="35" fill="#F5F5DC" filter="url(#fgdlnuuvpp0vl)" height="38.55" id="Reference" style="stroke:#A80036;stroke-width:1.2000000000000002;" width="87.2" x="915.6" y="164"/><ellipse cx="927.6" cy="180.075" fill="#FF8B40" rx="8.8" ry="8.8" style="stroke:#A80036;stroke-width:0.8000000000000002;"/><path d="M927.6,182.7 L928.825,178.275 L928.825,178.275 L928.4125,178.275 L928,177.775 L928,177.475 L928,177.175 L928.4125,176.675 L928.825,176.675 L930.325,176.675 L930.7875,176.675 L931.2,177.175 L931.2,177.475 L931.2,177.775 L930.7875,178.275 L930.7875,178.275 L930.425,178.275 L928.55,184.675 L926.65,184.675 L924.675,178.275 L924.4125,178.275 L924.4125,178.275 L924,177.775 L924,177.475 L924,177.175 L924.4125,176.675 L924.875,176.675 L926.375,176.675 L926.7875,176.675 L927.2,177.175 L927.2,177.475 L927.2,177.775 L926.7875,178.275 L926.375,178.275 L926.375,178.275 L927.6,182.7 Z " fill="#000000"/><text fill="#000000" font-family="sans-serif" font-size="9.6" font-style="italic" lengthAdjust="spacing" textLength="64.8" x="937.2" y="177.9656">«value object»</text><text fill="#000000" font-family="sans-serif" font-size="9.6" lengthAdjust="spacing" textLength="45.6" x="946.8" y="190.0406">Reference</text><line style="stroke:#A80036;stroke-width:1.2000000000000002;" x1="916.4" x2="1002" y1="196.15" y2="196.15"/><!--MD5=[b8ca79fd367f79be7dbbd127290f5300]
class Weight--><rect codeLine="36" fill="#F5F5DC" filter="url(#fgdlnuuvpp0vl)" height="38.55" id="Weight" style="stroke:#A80036;stroke-width:1.2000000000000002;" width="87.2" x="1030.8" y="164"/><ellipse cx="1042.8" cy="180.075" fill="#FF8B40" rx="8.8" ry="8.8" style="stroke:#A80036;stroke-width:0.8000000000000002;"/><path d="M1042.8,182.7 L1044.025,178.275 L1044.025,178.275 L1043.6125,178.275 L1043.2,177.775 L1043.2,177.475 L1043.2,177.175 L1043.6125,176.675 L1044.025,176.675 L1045.525,176.675 L1045.9875,176.675 L1046.4,177.175 L1046.4,177.475 L1046.4,177.775 L1045.9875,178.275 L1045.9875,178.275 L1045.625,178.275 L1043.75,184.675 L1041.85,184.675 L1039.875,178.275 L1039.6125,178.275 L1039.6125,178.275 L1039.2,177.775 L1039.2,177.475 L1039.2,177.175 L1039.6125,176.675 L1040.075,176.675 L1041.575,176.675 L1041.9875,176.675 L1042.4,177.175 L1042.4,177.475 L1042.4,177.775 L1041.9875,178.275 L1041.575,178.275 L1041.575,178.275 L1042.8,182.7 Z " fill="#000000"/><text fill="#000000" font-family="sans-serif" font-size="9.6" font-style="italic" lengthAdjust="spacing" textLength="64.8" x="1052.4" y="177.9656">«value object»</text><text fill="#000000" font-family="sans-serif" font-size="9.6" lengthAdjust="spacing" textLength="30.4" x="1069.6" y="190.0406">Weight</text><line style="stroke:#A80036;stroke-width:1.2000000000000002;" x1="1031.6" x2="1117.2" y1="196.15" y2="196.15"/><!--MD5=[0ce2229b8b99a0b06f3a67484dc45f78]
class Volume--><rect codeLine="37" fill="#F5F5DC" filter="url(#fgdlnuuvpp0vl)" height="38.55" id="Volume" style="stroke:#A80036;stroke-width:1.2000000000000002;" width="87.2" x="1146" y="164"/><ellipse cx="1158" cy="180.075" fill="#FF8B40" rx="8.8" ry="8.8" style="stroke:#A80036;stroke-width:0.8000000000000002;"/><path d="M1158,182.7 L1159.225,178.275 L1159.225,178.275 L1158.8125,178.275 L1158.4,177.775 L1158.4,177.475 L1158.4,177.175 L1158.8125,176.675 L1159.225,176.675 L1160.725,176.675 L1161.1875,176.675 L1161.6,177.175 L1161.6,177.475 L1161.6,177.775 L1161.1875,178.275 L1161.1875,178.275 L1160.825,178.275 L1158.95,184.675 L1157.05,184.675 L1155.075,178.275 L1154.8125,178.275 L1154.8125,178.275 L1154.4,177.775 L1154.4,177.475 L1154.4,177.175 L1154.8125,176.675 L1155.275,176.675 L1156.775,176.675 L1157.1875,176.675 L1157.6,177.175 L1157.6,177.475 L1157.6,177.775 L1157.1875,178.275 L1156.775,178.275 L1156.775,178.275 L1158,182.7 Z " fill="#000000"/><text fill="#000000" font-family="sans-serif" font-size="9.6" font-style="italic" lengthAdjust="spacing" textLength="64.8" x="1167.6" y="177.9656">«value object»</text><text fill="#000000" font-family="sans-serif" font-size="9.6" lengthAdjust="spacing" textLength="33.6" x="1183.2" y="190.0406">Volume</text><line style="stroke:#A80036;stroke-width:1.2000000000000002;" x1="1146.8" x2="1232.4" y1="196.15" y2="196.15"/><!--MD5=[a805b40f8193e3b705560a3818c5c109]
class Photo--><rect codeLine="38" fill="#F5F5DC" filter="url(#fgdlnuuvpp0vl)" height="38.55" id="Photo" style="stroke:#A80036;stroke-width:1.2000000000000002;" width="87.2" x="1261.2" y="164"/><ellipse cx="1273.2" cy="180.075" fill="#FF8B40" rx="8.8" ry="8.8" style="stroke:#A80036;stroke-width:0.8000000000000002;"/><path d="M1273.2,182.7 L1274.425,178.275 L1274.425,178.275 L1274.0125,178.275 L1273.6,177.775 L1273.6,177.475 L1273.6,177.175 L1274.0125,176.675 L1274.425,176.675 L1275.925,176.675 L1276.3875,176.675 L1276.8,177.175 L1276.8,177.475 L1276.8,177.775 L1276.3875,178.275 L1276.3875,178.275 L1276.025,178.275 L1274.15,184.675 L1272.25,184.675 L1270.275,178.275 L1270.0125,178.275 L1270.0125,178.275 L1269.6,177.775 L1269.6,177.475 L1269.6,177.175 L1270.0125,176.675 L1270.475,176.675 L1271.975,176.675 L1272.3875,176.675 L1272.8,177.175 L1272.8,177.475 L1272.8,177.775 L1272.3875,178.275 L1271.975,178.275 L1271.975,178.275 L1273.2,182.7 Z " fill="#000000"/><text fill="#000000" font-family="sans-serif" font-size="9.6" font-style="italic" lengthAdjust="spacing" textLength="64.8" x="1282.8" y="177.9656">«value object»</text><text fill="#000000" font-family="sans-serif" font-size="9.6" lengthAdjust="spacing" textLength="25.6" x="1302.4" y="190.0406">Photo</text><line style="stroke:#A80036;stroke-width:1.2000000000000002;" x1="1262" x2="1347.6" y1="196.15" y2="196.15"/><!--MD5=[912b7ac3592565191238c2b3c3b935ce]
class BrandName--><rect codeLine="39" fill="#F5F5DC" filter="url(#fgdlnuuvpp0vl)" height="38.55" id="BrandName" style="stroke:#A80036;stroke-width:1.2000000000000002;" width="87.2" x="1358.8" y="264.8"/><ellipse cx="1370.8" cy="280.875" fill="#FF8B40" rx="8.8" ry="8.8" style="stroke:#A80036;stroke-width:0.8000000000000002;"/><path d="M1370.8,283.5 L1372.025,279.075 L1372.025,279.075 L1371.6125,279.075 L1371.2,278.575 L1371.2,278.275 L1371.2,277.975 L1371.6125,277.475 L1372.025,277.475 L1373.525,277.475 L1373.9875,277.475 L1374.4,277.975 L1374.4,278.275 L1374.4,278.575 L1373.9875,279.075 L1373.9875,279.075 L1373.625,279.075 L1371.75,285.475 L1369.85,285.475 L1367.875,279.075 L1367.6125,279.075 L1367.6125,279.075 L1367.2,278.575 L1367.2,278.275 L1367.2,277.975 L1367.6125,277.475 L1368.075,277.475 L1369.575,277.475 L1369.9875,277.475 L1370.4,277.975 L1370.4,278.275 L1370.4,278.575 L1369.9875,279.075 L1369.575,279.075 L1369.575,279.075 L1370.8,283.5 Z " fill="#000000"/><text fill="#000000" font-family="sans-serif" font-size="9.6" font-style="italic" lengthAdjust="spacing" textLength="64.8" x="1380.4" y="278.7656">«value object»</text><text fill="#000000" font-family="sans-serif" font-size="9.6" lengthAdjust="spacing" textLength="53.6" x="1386" y="290.8406">BrandName</text><line style="stroke:#A80036;stroke-width:1.2000000000000002;" x1="1359.6" x2="1445.2" y1="296.95" y2="296.95"/><!--MD5=[a96594a83e2ecdc78cbf17c2ddf01934]
class Category--><rect codeLine="48" fill="#F5F5DC" filter="url(#fgdlnuuvpp0vl)" height="50.625" id="Category" style="stroke:#A80036;stroke-width:1.2000000000000002;" width="64.8" x="1456.4" y="371.2"/><ellipse cx="1468.4" cy="393.3125" fill="#ADD1B2" rx="8.8" ry="8.8" style="stroke:#A80036;stroke-width:0.8000000000000002;"/><path d="M1467.2,394.1125 L1467.2,395.7125 L1470.4,395.7125 L1470.4,394.9125 L1470.4,394.525 L1470.9,394.1125 L1471.2,394.1125 L1471.5,394.1125 L1472,394.525 L1472,394.9125 L1472,397.3125 L1465.6,397.3125 L1465.2125,397.3125 L1464.8,396.8125 L1464.8,396.5125 L1464.8,396.2125 L1465.2125,395.7125 L1465.6,395.7125 L1465.6,395.7125 L1465.6,390.9125 L1465.6,390.9125 L1465.2125,390.9125 L1464.8,390.4125 L1464.8,390.1125 L1464.8,389.8125 L1465.2125,389.3125 L1465.6,389.3125 L1472,389.3125 L1472,391.7125 L1472,392.1 L1471.5,392.5125 L1471.2,392.5125 L1470.9,392.5125 L1470.4,392.1 L1470.4,391.7125 L1470.4,390.9125 L1467.2,390.9125 L1467.2,392.5125 L1468,392.5125 L1468,392.125 L1468,392.125 L1468.5,391.7125 L1468.8,391.7125 L1469.1,391.7125 L1469.6,392.125 L1469.6,392.5125 L1469.6,394.1125 L1469.6,394.5 L1469.1,394.9125 L1469.1,394.9125 L1468.8,394.9125 L1468.5,394.9125 L1468,394.5 L1468,394.5 L1468,394.1125 L1467.2,394.1125 Z " fill="#000000"/><text fill="#000000" font-family="sans-serif" font-size="9.6" font-style="italic" lengthAdjust="spacing" textLength="34.4" x="1482" y="385.1656">«entity»</text><text fill="#000000" font-family="sans-serif" font-size="9.6" font-style="italic" lengthAdjust="spacing" textLength="28" x="1485.2" y="397.2406">«root»</text><text fill="#000000" font-family="sans-serif" font-size="9.6" lengthAdjust="spacing" textLength="39.2" x="1479.6" y="409.3156">Category</text><line style="stroke:#A80036;stroke-width:1.2000000000000002;" x1="1457.2" x2="1520.4" y1="415.425" y2="415.425"/><!--MD5=[494e0bdb5c8bb794bcdf99253cad2029]
class AlphanumericCode--><rect codeLine="52" fill="#F5F5DC" filter="url(#fgdlnuuvpp0vl)" height="38.55" id="AlphanumericCode" style="stroke:#A80036;stroke-width:1.2000000000000002;" width="110.4" x="1306.4" y="484"/><ellipse cx="1318.4" cy="500.075" fill="#FF8B40" rx="8.8" ry="8.8" style="stroke:#A80036;stroke-width:0.8000000000000002;"/><path d="M1318.4,502.7 L1319.625,498.275 L1319.625,498.275 L1319.2125,498.275 L1318.8,497.775 L1318.8,497.475 L1318.8,497.175 L1319.2125,496.675 L1319.625,496.675 L1321.125,496.675 L1321.5875,496.675 L1322,497.175 L1322,497.475 L1322,497.775 L1321.5875,498.275 L1321.5875,498.275 L1321.225,498.275 L1319.35,504.675 L1317.45,504.675 L1315.475,498.275 L1315.2125,498.275 L1315.2125,498.275 L1314.8,497.775 L1314.8,497.475 L1314.8,497.175 L1315.2125,496.675 L1315.675,496.675 L1317.175,496.675 L1317.5875,496.675 L1318,497.175 L1318,497.475 L1318,497.775 L1317.5875,498.275 L1317.175,498.275 L1317.175,498.275 L1318.4,502.7 Z " fill="#000000"/><text fill="#000000" font-family="sans-serif" font-size="9.6" font-style="italic" lengthAdjust="spacing" textLength="64.8" x="1339.6" y="497.9656">«value object»</text><text fill="#000000" font-family="sans-serif" font-size="9.6" lengthAdjust="spacing" textLength="84.8" x="1329.6" y="510.0406">AlphanumericCode</text><line style="stroke:#A80036;stroke-width:1.2000000000000002;" x1="1307.2" x2="1416" y1="516.15" y2="516.15"/><!--MD5=[009695af4e54f3bba8a9c60dca3e1c94]
class Description--><rect codeLine="53" fill="#F5F5DC" filter="url(#fgdlnuuvpp0vl)" height="38.55" id="Description" style="stroke:#A80036;stroke-width:1.2000000000000002;" width="87.2" x="1445.2" y="484"/><ellipse cx="1457.2" cy="500.075" fill="#FF8B40" rx="8.8" ry="8.8" style="stroke:#A80036;stroke-width:0.8000000000000002;"/><path d="M1457.2,502.7 L1458.425,498.275 L1458.425,498.275 L1458.0125,498.275 L1457.6,497.775 L1457.6,497.475 L1457.6,497.175 L1458.0125,496.675 L1458.425,496.675 L1459.925,496.675 L1460.3875,496.675 L1460.8,497.175 L1460.8,497.475 L1460.8,497.775 L1460.3875,498.275 L1460.3875,498.275 L1460.025,498.275 L1458.15,504.675 L1456.25,504.675 L1454.275,498.275 L1454.0125,498.275 L1454.0125,498.275 L1453.6,497.775 L1453.6,497.475 L1453.6,497.175 L1454.0125,496.675 L1454.475,496.675 L1455.975,496.675 L1456.3875,496.675 L1456.8,497.175 L1456.8,497.475 L1456.8,497.775 L1456.3875,498.275 L1455.975,498.275 L1455.975,498.275 L1457.2,502.7 Z " fill="#000000"/><text fill="#000000" font-family="sans-serif" font-size="9.6" font-style="italic" lengthAdjust="spacing" textLength="64.8" x="1466.8" y="497.9656">«value object»</text><text fill="#000000" font-family="sans-serif" font-size="9.6" lengthAdjust="spacing" textLength="50.4" x="1474" y="510.0406">Description</text><line style="stroke:#A80036;stroke-width:1.2000000000000002;" x1="1446" x2="1531.6" y1="516.15" y2="516.15"/><!--MD5=[c3af4a672b55c04d06297fe69cbb7590]
class SuperCategory--><rect codeLine="54" fill="#F5F5DC" filter="url(#fgdlnuuvpp0vl)" height="38.55" id="SuperCategory" style="stroke:#A80036;stroke-width:1.2000000000000002;" width="91.2" x="1560.8" y="484"/><ellipse cx="1572.8" cy="500.075" fill="#FF8B40" rx="8.8" ry="8.8" style="stroke:#A80036;stroke-width:0.8000000000000002;"/><path d="M1572.8,502.7 L1574.025,498.275 L1574.025,498.275 L1573.6125,498.275 L1573.2,497.775 L1573.2,497.475 L1573.2,497.175 L1573.6125,496.675 L1574.025,496.675 L1575.525,496.675 L1575.9875,496.675 L1576.4,497.175 L1576.4,497.475 L1576.4,497.775 L1575.9875,498.275 L1575.9875,498.275 L1575.625,498.275 L1573.75,504.675 L1571.85,504.675 L1569.875,498.275 L1569.6125,498.275 L1569.6125,498.275 L1569.2,497.775 L1569.2,497.475 L1569.2,497.175 L1569.6125,496.675 L1570.075,496.675 L1571.575,496.675 L1571.9875,496.675 L1572.4,497.175 L1572.4,497.475 L1572.4,497.775 L1571.9875,498.275 L1571.575,498.275 L1571.575,498.275 L1572.8,502.7 Z " fill="#000000"/><text fill="#000000" font-family="sans-serif" font-size="9.6" font-style="italic" lengthAdjust="spacing" textLength="64.8" x="1584.4" y="497.9656">«value object»</text><text fill="#000000" font-family="sans-serif" font-size="9.6" lengthAdjust="spacing" textLength="65.6" x="1584" y="510.0406">SuperCategory</text><line style="stroke:#A80036;stroke-width:1.2000000000000002;" x1="1561.6" x2="1651.2" y1="516.15" y2="516.15"/><!--MD5=[41043388d0f8d1cf0966079386e80353]
link Product to Category--><path codeLine="57" d="M887.32,68.944 C1010.24,71.44 1357.192,85.456 1432,164 C1485.488,220.16 1491.112,318.16 1490.28,366.68 " fill="none" id="Product-to-Category" style="stroke:#222222;stroke-width:0.8000000000000002;"/><polygon fill="#222222" points="1490.184,370.936,1493.5477,363.811,1490.2754,366.937,1487.1494,363.6648,1490.184,370.936" style="stroke:#222222;stroke-width:0.8000000000000002;"/><text fill="#000000" font-family="sans-serif" font-size="10.4" lengthAdjust="spacing" textLength="59.2" x="1475.2" y="237.9961">organized by</text><text fill="#000000" font-family="sans-serif" font-size="10.4" lengthAdjust="spacing" textLength="5.6" x="1484.292" y="362.3659">1</text><!--MD5=[ff6f7e6c179b97a3a11d359eab0adb49]
link Product to ShortDescription--><path codeLine="58" d="M800.688,70.384 C644.368,78 115.976,107.744 68,164 C45.112,190.84 55.824,234.648 65.592,261.024 " fill="none" id="Product-to-ShortDescription" style="stroke:#222222;stroke-width:0.8000000000000002;"/><polygon fill="#222222" points="67.016,264.784,67.4342,256.916,65.5877,261.0477,61.4561,259.2012,67.016,264.784" style="stroke:#222222;stroke-width:0.8000000000000002;"/><text fill="#000000" font-family="sans-serif" font-size="10.4" lengthAdjust="spacing" textLength="76.8" x="68.8" y="187.5961">characterized by</text><text fill="#000000" font-family="sans-serif" font-size="10.4" lengthAdjust="spacing" textLength="5.6" x="58.6014" y="256.2328">1</text><!--MD5=[4de9e0c153cc8910a4dd63bf2609ac94]
link Product to LongDescription--><path codeLine="59" d="M800.8,70.056 C715.656,74.08 520.608,87.056 361.6,125.6 C324.656,134.552 284.424,149.848 254.64,162.312 " fill="none" id="Product-to-LongDescription" style="stroke:#222222;stroke-width:0.8000000000000002;"/><polygon fill="#222222" points="250.688,163.976,258.5657,164.1225,254.3728,162.4197,256.0756,158.2268,250.688,163.976" style="stroke:#222222;stroke-width:0.8000000000000002;"/><text fill="#000000" font-family="sans-serif" font-size="10.4" lengthAdjust="spacing" textLength="76.8" x="362.4" y="137.1961">characterized by</text><text fill="#000000" font-family="sans-serif" font-size="10.4" lengthAdjust="spacing" textLength="5.6" x="254.8993" y="155.4228">1</text><!--MD5=[308bef9f33132c2b243ec8e9138be5c6]
link Product to TechnicalDescription--><path codeLine="60" d="M800.736,72.416 C733.576,79.312 600.568,95.648 491.2,125.6 C456.432,135.12 418.544,150.16 390.248,162.368 " fill="none" id="Product-to-TechnicalDescription" style="stroke:#222222;stroke-width:0.8000000000000002;"/><polygon fill="#222222" points="386.496,164,394.3747,164.0755,390.1666,162.4105,391.8316,158.2024,386.496,164" style="stroke:#222222;stroke-width:0.8000000000000002;"/><text fill="#000000" font-family="sans-serif" font-size="10.4" lengthAdjust="spacing" textLength="76.8" x="492" y="137.1961">characterized by</text><text fill="#000000" font-family="sans-serif" font-size="10.4" lengthAdjust="spacing" textLength="5.6" x="390.4531" y="155.4529">1</text><!--MD5=[d52d4675e9eec1727cacff8adb24bf93]
link Product to Barcode--><path codeLine="61" d="M800.664,77.248 C754.248,87.184 678.688,104.688 615.2,125.6 C583.384,136.08 548.504,150.512 521.832,162.2 " fill="none" id="Product-to-Barcode" style="stroke:#222222;stroke-width:0.8000000000000002;"/><polygon fill="#222222" points="517.952,163.912,525.831,163.9372,521.6124,162.2991,523.2505,158.0805,517.952,163.912" style="stroke:#222222;stroke-width:0.8000000000000002;"/><text fill="#000000" font-family="sans-serif" font-size="10.4" lengthAdjust="spacing" textLength="55.2" x="616" y="137.1961">identified by</text><text fill="#000000" font-family="sans-serif" font-size="10.4" lengthAdjust="spacing" textLength="5.6" x="521.9747" y="155.3424">1</text><!--MD5=[7119557809726774d3ef77edfe01616b]
link Product to ProductionCode--><path codeLine="62" d="M800.536,85.168 C773.048,96.064 736.912,110.936 705.6,125.6 C681.48,136.896 655,150.8 634.296,162.024 " fill="none" id="Product-to-ProductionCode" style="stroke:#222222;stroke-width:0.8000000000000002;"/><polygon fill="#222222" points="630.768,163.944,638.6228,163.3252,634.2844,162.0374,635.5722,157.699,630.768,163.944" style="stroke:#222222;stroke-width:0.8000000000000002;"/><text fill="#000000" font-family="sans-serif" font-size="10.4" lengthAdjust="spacing" textLength="55.2" x="706.4" y="137.1961">identified by</text><text fill="#000000" font-family="sans-serif" font-size="10.4" lengthAdjust="spacing" textLength="17.6" x="619.4123" y="155.3826">0..1</text><!--MD5=[7460415386b109d24f9c7a92799907f2]
link Product to PriceWithoutVAT--><path codeLine="63" d="M808.736,101.68 C788.456,120.816 763.584,144.288 745.896,160.984 " fill="none" id="Product-to-PriceWithoutVAT" style="stroke:#222222;stroke-width:0.8000000000000002;"/><polygon fill="#222222" points="742.904,163.808,750.3351,161.189,745.8114,161.0608,745.9396,156.5372,742.904,163.808" style="stroke:#222222;stroke-width:0.8000000000000002;"/><text fill="#000000" font-family="sans-serif" font-size="10.4" lengthAdjust="spacing" textLength="50.4" x="780" y="137.1961">associated</text><text fill="#000000" font-family="sans-serif" font-size="10.4" lengthAdjust="spacing" textLength="5.6" x="741.6357" y="155.2117">1</text><!--MD5=[3a5593c8cf8178ffd71c13654dc2d8a2]
link Product to PriceWithVAT--><path codeLine="64" d="M844,101.68 C844,120.344 844,143.128 844,159.728 " fill="none" id="Product-to-PriceWithVAT" style="stroke:#222222;stroke-width:0.8000000000000002;"/><polygon fill="#222222" points="844,163.808,847.2,156.608,844,159.808,840.8,156.608,844,163.808" style="stroke:#222222;stroke-width:0.8000000000000002;"/><text fill="#000000" font-family="sans-serif" font-size="10.4" lengthAdjust="spacing" textLength="50.4" x="844.8" y="137.1961">associated</text><text fill="#000000" font-family="sans-serif" font-size="10.4" lengthAdjust="spacing" textLength="5.6" x="837.6825" y="155.2117">1</text><!--MD5=[21c45546ac8489a13fec8a125b2763ab]
link Product to Weight--><path codeLine="65" d="M887.312,84.952 C914.184,95.656 949.192,110.392 979.2,125.6 C1000.768,136.528 1024.088,150.408 1042.256,161.712 " fill="none" id="Product-to-Weight" style="stroke:#222222;stroke-width:0.8000000000000002;"/><polygon fill="#222222" points="1045.816,163.936,1041.4123,157.4024,1042.4259,161.8129,1038.0154,162.8265,1045.816,163.936" style="stroke:#222222;stroke-width:0.8000000000000002;"/><text fill="#000000" font-family="sans-serif" font-size="10.4" lengthAdjust="spacing" textLength="76.8" x="1004" y="137.1961">characterized by</text><text fill="#000000" font-family="sans-serif" font-size="10.4" lengthAdjust="spacing" textLength="5.6" x="1032.1739" y="155.3725">1</text><!--MD5=[dbba7c99e765cab38348dc0774bd3da3]
link Product to Volume--><path codeLine="66" d="M887.408,74.808 C937.064,82.984 1020.256,99.32 1088,125.6 C1112.568,135.128 1138.464,149.688 1157.96,161.68 " fill="none" id="Product-to-Volume" style="stroke:#222222;stroke-width:0.8000000000000002;"/><polygon fill="#222222" points="1161.528,163.88,1157.0829,157.3745,1158.1245,161.7785,1153.7205,162.8201,1161.528,163.88" style="stroke:#222222;stroke-width:0.8000000000000002;"/><text fill="#000000" font-family="sans-serif" font-size="10.4" lengthAdjust="spacing" textLength="76.8" x="1117.6" y="137.1961">characterized by</text><text fill="#000000" font-family="sans-serif" font-size="10.4" lengthAdjust="spacing" textLength="5.6" x="1148.0171" y="155.3022">1</text><!--MD5=[a08fded9ab29299d2f06160dc61bc428]
link Product to Reference--><path codeLine="67" d="M878.024,101.608 C886.04,109.464 894.528,117.816 902.4,125.6 C914.176,137.256 927.264,150.328 937.896,160.992 " fill="none" id="Product-to-Reference" style="stroke:#222222;stroke-width:0.8000000000000002;"/><polygon fill="#222222" points="940.832,163.936,938.0184,156.5764,938.0093,161.1019,933.4838,161.0927,940.832,163.936" style="stroke:#222222;stroke-width:0.8000000000000002;"/><text fill="#000000" font-family="sans-serif" font-size="10.4" lengthAdjust="spacing" textLength="55.2" x="916.8" y="137.1961">identified by</text><text fill="#000000" font-family="sans-serif" font-size="10.4" lengthAdjust="spacing" textLength="5.6" x="929.8077" y="155.3725">1</text><!--MD5=[d712a9affdb0a2e6fd883f05aa145395]
link Product to Photo--><path codeLine="68" d="M887.264,70.528 C955.688,74.944 1092.336,88.072 1201.6,125.6 C1227.272,134.416 1254.072,149.36 1273.92,161.712 " fill="none" id="Product-to-Photo" style="stroke:#222222;stroke-width:0.8000000000000002;"/><polygon fill="#222222" points="1277.544,163.984,1273.1503,157.4437,1274.1572,161.8558,1269.7451,162.8627,1277.544,163.984" style="stroke:#222222;stroke-width:0.8000000000000002;"/><text fill="#000000" font-family="sans-serif" font-size="10.4" lengthAdjust="spacing" textLength="44.8" x="1234.4" y="137.1961">described</text><text fill="#000000" font-family="sans-serif" font-size="10.4" lengthAdjust="spacing" textLength="16" x="1252.5097" y="155.4328">1..*</text><!--MD5=[3cb408ea3cff5a6a2040d64500281f76]
link Product to BrandName--><path codeLine="69" d="M887.416,69.176 C967.872,71.664 1144.824,82.08 1286.4,125.6 C1322.576,136.72 1337.632,135.384 1362.4,164 C1386.464,191.808 1396.184,234.648 1400.008,260.688 " fill="none" id="Product-to-BrandName" style="stroke:#222222;stroke-width:0.8000000000000002;"/><polygon fill="#222222" points="1400.576,264.712,1402.7592,257.1414,1400.0279,260.7497,1396.4196,258.0184,1400.576,264.712" style="stroke:#222222;stroke-width:0.8000000000000002;"/><text fill="#000000" font-family="sans-serif" font-size="10.4" lengthAdjust="spacing" textLength="40" x="1384.8" y="187.5961">made by</text><text fill="#000000" font-family="sans-serif" font-size="10.4" lengthAdjust="spacing" textLength="5.6" x="1393.7911" y="256.1424">1</text><!--MD5=[dd62927d278b59ce5c0835a45bf7cdf2]
link Category to AlphanumericCode--><path codeLine="72" d="M1456.352,420.48 C1445.864,428.256 1434.288,437.112 1424,445.6 C1410.368,456.848 1395.728,470.112 1384.048,480.992 " fill="none" id="Category-to-AlphanumericCode" style="stroke:#222222;stroke-width:0.8000000000000002;"/><polygon fill="#222222" points="1380.84,483.992,1388.2867,481.4176,1383.7638,481.2623,1383.9192,476.7395,1380.84,483.992" style="stroke:#222222;stroke-width:0.8000000000000002;"/><text fill="#000000" font-family="sans-serif" font-size="10.4" lengthAdjust="spacing" textLength="55.2" x="1424.8" y="457.1961">identified by</text><text fill="#000000" font-family="sans-serif" font-size="10.4" lengthAdjust="spacing" textLength="5.6" x="1379.4528" y="475.4429">1</text><!--MD5=[ea0a2a058c4fe78704979bc0affba79e]
link Category to Description--><path codeLine="73" d="M1488.24,421.656 C1488.032,433.272 1487.88,447.352 1488,460 C1488.056,466.344 1488.168,473.216 1488.288,479.544 " fill="none" id="Category-to-Description" style="stroke:#222222;stroke-width:0.8000000000000002;"/><polygon fill="#222222" points="1488.376,483.824,1491.4314,476.5615,1488.296,479.8248,1485.0327,476.6894,1488.376,483.824" style="stroke:#222222;stroke-width:0.8000000000000002;"/><text fill="#000000" font-family="sans-serif" font-size="10.4" lengthAdjust="spacing" textLength="76.8" x="1488.8" y="457.1961">characterized by</text><text fill="#000000" font-family="sans-serif" font-size="10.4" lengthAdjust="spacing" textLength="5.6" x="1481.9499" y="475.2318">1</text><!--MD5=[1bcd48e016ecdb5871d991f24ac09829]
link Category to SuperCategory--><path codeLine="74" d="M1521.424,412.336 C1537.16,420.68 1555.6,432.088 1569.6,445.6 C1579.928,455.568 1588.784,468.968 1595.216,480.24 " fill="none" id="Category-to-SuperCategory" style="stroke:#222222;stroke-width:0.8000000000000002;"/><polygon fill="#222222" points="1597.304,483.976,1596.5742,476.1308,1595.3478,480.487,1590.9917,479.2606,1597.304,483.976" style="stroke:#222222;stroke-width:0.8000000000000002;"/><text fill="#000000" font-family="sans-serif" font-size="10.4" lengthAdjust="spacing" textLength="48" x="1582.4" y="457.1961">belongs to</text><text fill="#000000" font-family="sans-serif" font-size="10.4" lengthAdjust="spacing" textLength="17.6" x="1575.1182" y="475.4228">0..1</text><!--MD5=[66baaa5ab7cda0292f359f32aa960a04]
@startuml
'https://plantuml.com/class-diagram

skinparam classAttributeIconSize 0
hide empty attributes
skinparam classBackgroundColor beige
skinparam ArrowColor #222222

package "<<aggregate>> Product" {
    entity Product
    class ShortDescription
    class LongDescription
    class TechnicalDescription
    class Barcode
    class ProductionCode
    class PriceWithoutVAT
    class PriceWithVAT
    class Reference
    class Weight
    class Volume
    class Photo
    class BrandName
}

entity Product <<entity>> <<root>> {
    - uniqueInternalCode
}

class ShortDescription <<(V,#FF8B40) value object>>
class LongDescription <<(V,#FF8B40) value object>>
class TechnicalDescription <<(V,#FF8B40) value object>>
class Barcode <<(V,#FF8B40) value object>>
class ProductionCode <<(V,#FF8B40) value object>>
class PriceWithoutVAT <<(V,#FF8B40) value object>> {}
class PriceWithVAT <<(V,#FF8B40) value object>> {}
class Reference <<(V,#FF8B40) value object>> {}
class Weight <<(V,#FF8B40) value object>> {}
class Volume <<(V,#FF8B40) value object>> {}
class Photo <<(V,#FF8B40) value object>>{}
class BrandName <<(V,#FF8B40) value object>>{}

package "<<aggregate>> Category" {
    entity Category
    class AlphanumericCode
    class Description
    class SuperCategory
    }

entity Category <<entity>> <<root>> {

}

class AlphanumericCode <<(V,#FF8B40) value object>>
class Description <<(V,#FF8B40) value object>>
class SuperCategory <<(V,#FF8B40) value object>>


Product - - - -> "1" Category : organized by
Product - - -> "1" ShortDescription: characterized by
Product - -> "1" LongDescription: characterized by
Product - -> "1" TechnicalDescription: characterized by
Product - -> "1" Barcode: identified by
Product - -> "0..1" ProductionCode: identified by
Product - -> "1" PriceWithoutVAT: associated
Product - -> "1" PriceWithVAT: associated
Product - -> "1" Weight: characterized by
Product - -> "1" Volume: characterized by
Product - -> "1" Reference : identified by
Product - -> "1..*" Photo : described
Product - - -> "1" BrandName : made by


Category - -> "1" AlphanumericCode : identified by
Category - -> "1" Description : characterized by
Category - -> "0..1" SuperCategory : belongs to

@enduml

@startuml

skinparam classAttributeIconSize 0
hide empty attributes
skinparam classBackgroundColor beige
skinparam ArrowColor #222222

package "<<aggregate>> Product" {
    entity Product
    class ShortDescription
    class LongDescription
    class TechnicalDescription
    class Barcode
    class ProductionCode
    class PriceWithoutVAT
    class PriceWithVAT
    class Reference
    class Weight
    class Volume
    class Photo
    class BrandName
}

entity Product <<entity>> <<root>> {
    - uniqueInternalCode
}

class ShortDescription <<(V,#FF8B40) value object>>
class LongDescription <<(V,#FF8B40) value object>>
class TechnicalDescription <<(V,#FF8B40) value object>>
class Barcode <<(V,#FF8B40) value object>>
class ProductionCode <<(V,#FF8B40) value object>>
class PriceWithoutVAT <<(V,#FF8B40) value object>> {}
class PriceWithVAT <<(V,#FF8B40) value object>> {}
class Reference <<(V,#FF8B40) value object>> {}
class Weight <<(V,#FF8B40) value object>> {}
class Volume <<(V,#FF8B40) value object>> {}
class Photo <<(V,#FF8B40) value object>>{}
class BrandName <<(V,#FF8B40) value object>>{}

package "<<aggregate>> Category" {
    entity Category
    class AlphanumericCode
    class Description
    class SuperCategory
    }

entity Category <<entity>> <<root>> {

}

class AlphanumericCode <<(V,#FF8B40) value object>>
class Description <<(V,#FF8B40) value object>>
class SuperCategory <<(V,#FF8B40) value object>>


Product - - - -> "1" Category : organized by
Product - - -> "1" ShortDescription: characterized by
Product - -> "1" LongDescription: characterized by
Product - -> "1" TechnicalDescription: characterized by
Product - -> "1" Barcode: identified by
Product - -> "0..1" ProductionCode: identified by
Product - -> "1" PriceWithoutVAT: associated
Product - -> "1" PriceWithVAT: associated
Product - -> "1" Weight: characterized by
Product - -> "1" Volume: characterized by
Product - -> "1" Reference : identified by
Product - -> "1..*" Photo : described
Product - - -> "1" BrandName : made by


Category - -> "1" AlphanumericCode : identified by
Category - -> "1" Description : characterized by
Category - -> "0..1" SuperCategory : belongs to

@enduml

PlantUML version 1.2022.1(Tue Feb 01 18:19:58 GMT 2022)
(GPL source distribution)
Java Runtime: OpenJDK Runtime Environment
JVM: Dynamic Code Evolution 64-Bit Server VM
Default Encoding: Cp1252
Language: pt
Country: PT
--></g></svg>