<?xml version="1.0" encoding="UTF-8" standalone="no"?><svg xmlns="http://www.w3.org/2000/svg" xmlns:xlink="http://www.w3.org/1999/xlink" contentScriptType="application/ecmascript" contentStyleType="text/css" height="742.2px" preserveAspectRatio="none" style="width:1267px;height:742px;background:#FFFFFF;" version="1.1" viewBox="0 0 1267 742" width="1267.2px" zoomAndPan="magnify"><defs><filter height="300%" id="fz2xel5jnn9ge" width="300%" x="-1" y="-1"><feGaussianBlur result="blurOut" stdDeviation="1.2"/><feColorMatrix in="blurOut" result="blurOut2" type="matrix" values="0 0 0 0 0 0 0 0 0 0 0 0 0 0 0 0 0 0 .4 0"/><feOffset dx="2.4" dy="2.4" in="blurOut2" result="blurOut3"/><feBlend in="SourceGraphic" in2="blurOut3" mode="normal"/></filter></defs><g><rect fill="#FFFFFF" filter="url(#fz2xel5jnn9ge)" height="618.3938" style="stroke:#A80036;stroke-width:0.6;" width="6" x="32.4" y="59.7656"/><rect fill="#FFFFFF" filter="url(#fz2xel5jnn9ge)" height="191.4984" style="stroke:#A80036;stroke-width:0.6;" width="6" x="340.8" y="73.1766"/><rect fill="#FFFFFF" filter="url(#fz2xel5jnn9ge)" height="37.8328" style="stroke:#A80036;stroke-width:0.6;" width="6" x="340.8" y="282.8859"/><rect fill="#FFFFFF" filter="url(#fz2xel5jnn9ge)" height="33.4219" style="stroke:#A80036;stroke-width:0.6;" width="6" x="340.8" y="338.9297"/><rect fill="#FFFFFF" filter="url(#fz2xel5jnn9ge)" height="287.5969" style="stroke:#A80036;stroke-width:0.6;" width="6" x="340.8" y="390.5625"/><rect fill="#FFFFFF" filter="url(#fz2xel5jnn9ge)" height="127.0547" style="stroke:#A80036;stroke-width:0.6;" width="6" x="607.8" y="109.5984"/><rect fill="#FFFFFF" filter="url(#fz2xel5jnn9ge)" height="217.5422" style="stroke:#A80036;stroke-width:0.6;" width="6" x="607.8" y="442.4063"/><rect fill="#FFFFFF" filter="url(#fz2xel5jnn9ge)" height="18.2109" style="stroke:#A80036;stroke-width:0.6;" width="6" x="886.8" y="490.05"/><rect fill="#FFFFFF" filter="url(#fz2xel5jnn9ge)" height="54.4219" style="stroke:#A80036;stroke-width:0.6;" width="6" x="970.5" y="127.8094"/><rect fill="#FFFFFF" filter="url(#fz2xel5jnn9ge)" height="60.6328" style="stroke:#A80036;stroke-width:0.6;" width="6" x="970.5" y="526.4719"/><rect fill="#FFFFFF" filter="url(#fz2xel5jnn9ge)" height="36.2109" style="stroke:#A80036;stroke-width:0.6;" width="6" x="1058.7" y="146.0203"/><rect fill="#FFFFFF" filter="url(#fz2xel5jnn9ge)" height="36.4219" style="stroke:#A80036;stroke-width:0.6;" width="6" x="1058.7" y="605.3156"/><rect fill="#FFFFFF" filter="url(#fz2xel5jnn9ge)" height="18" style="stroke:#A80036;stroke-width:0.6;" width="6" x="1144.5" y="164.2313"/><rect fill="#FFFFFF" filter="url(#fz2xel5jnn9ge)" height="18" style="stroke:#A80036;stroke-width:0.6;" width="6" x="1144.5" y="200.4422"/><rect fill="#FFFFFF" filter="url(#fz2xel5jnn9ge)" height="47.4328" style="stroke:#000000;stroke-width:1.2;" width="383.4" x="6" y="347.9297"/><line style="stroke:#A80036;stroke-width:0.6;stroke-dasharray:5.0,5.0;" x1="35.4" x2="35.4" y1="53.7656" y2="688.9594"/><line style="stroke:#A80036;stroke-width:0.6;stroke-dasharray:5.0,5.0;" x1="343.8" x2="343.8" y1="53.7656" y2="688.9594"/><line style="stroke:#A80036;stroke-width:0.6;stroke-dasharray:5.0,5.0;" x1="610.8" x2="610.8" y1="53.7656" y2="688.9594"/><line style="stroke:#A80036;stroke-width:0.6;stroke-dasharray:5.0,5.0;" x1="889.5" x2="889.5" y1="53.7656" y2="688.9594"/><line style="stroke:#A80036;stroke-width:0.6;stroke-dasharray:5.0,5.0;" x1="973.5" x2="973.5" y1="53.7656" y2="688.9594"/><line style="stroke:#A80036;stroke-width:0.6;stroke-dasharray:5.0,5.0;" x1="1061.7" x2="1061.7" y1="53.7656" y2="688.9594"/><line style="stroke:#A80036;stroke-width:0.6;stroke-dasharray:5.0,5.0;" x1="1147.5" x2="1147.5" y1="53.7656" y2="688.9594"/><line style="stroke:#A80036;stroke-width:0.6;stroke-dasharray:5.0,5.0;" x1="1229.7" x2="1229.7" y1="53.7656" y2="688.9594"/><text fill="#000000" font-family="sans-serif" font-size="8.4" lengthAdjust="spacing" textLength="43.2" x="12" y="51.9199">Sales Clerk</text><ellipse cx="35.4" cy="9" fill="#FEFECE" filter="url(#fz2xel5jnn9ge)" rx="4.8" ry="4.8" style="stroke:#A80036;stroke-width:1.2;"/><path d="M35.4,13.8 L35.4,30 M27.6,18.6 L43.2,18.6 M35.4,30 L27.6,39 M35.4,30 L43.2,39 " fill="none" filter="url(#fz2xel5jnn9ge)" style="stroke:#A80036;stroke-width:1.2;"/><text fill="#000000" font-family="sans-serif" font-size="8.4" lengthAdjust="spacing" textLength="43.2" x="12" y="697.0793">Sales Clerk</text><ellipse cx="35.4" cy="704.925" fill="#FEFECE" filter="url(#fz2xel5jnn9ge)" rx="4.8" ry="4.8" style="stroke:#A80036;stroke-width:1.2;"/><path d="M35.4,709.725 L35.4,725.925 M27.6,714.525 L43.2,714.525 M35.4,725.925 L27.6,734.925 M35.4,725.925 L43.2,734.925 " fill="none" filter="url(#fz2xel5jnn9ge)" style="stroke:#A80036;stroke-width:1.2;"/><rect fill="#FEFECE" filter="url(#fz2xel5jnn9ge)" height="29.5313" style="stroke:#A80036;stroke-width:0.8999999999999999;" width="76.8" x="304.2" y="21.2344"/><text fill="#000000" font-family="sans-serif" font-size="8.4" font-style="italic" lengthAdjust="spacing" textLength="57" x="314.1" y="34.1543">«presentation»</text><text fill="#000000" font-family="sans-serif" font-size="8.4" lengthAdjust="spacing" textLength="68.4" x="308.4" y="44.7199">RegisterProductUI</text><rect fill="#FEFECE" filter="url(#fz2xel5jnn9ge)" height="29.5313" style="stroke:#A80036;stroke-width:0.8999999999999999;" width="76.8" x="304.2" y="688.3594"/><text fill="#000000" font-family="sans-serif" font-size="8.4" font-style="italic" lengthAdjust="spacing" textLength="57" x="314.1" y="701.2793">«presentation»</text><text fill="#000000" font-family="sans-serif" font-size="8.4" lengthAdjust="spacing" textLength="68.4" x="308.4" y="711.8449">RegisterProductUI</text><rect fill="#FEFECE" filter="url(#fz2xel5jnn9ge)" height="29.5313" style="stroke:#A80036;stroke-width:0.8999999999999999;" width="106.8" x="556.2" y="21.2344"/><text fill="#000000" font-family="sans-serif" font-size="8.4" font-style="italic" lengthAdjust="spacing" textLength="50.4" x="584.4" y="34.1543">«application»</text><text fill="#000000" font-family="sans-serif" font-size="8.4" lengthAdjust="spacing" textLength="98.4" x="560.4" y="44.7199">RegisterProductController</text><rect fill="#FEFECE" filter="url(#fz2xel5jnn9ge)" height="29.5313" style="stroke:#A80036;stroke-width:0.8999999999999999;" width="106.8" x="556.2" y="688.3594"/><text fill="#000000" font-family="sans-serif" font-size="8.4" font-style="italic" lengthAdjust="spacing" textLength="50.4" x="584.4" y="701.2793">«application»</text><text fill="#000000" font-family="sans-serif" font-size="8.4" lengthAdjust="spacing" textLength="98.4" x="560.4" y="711.8449">RegisterProductController</text><rect fill="#FEFECE" filter="url(#fz2xel5jnn9ge)" height="29.5313" style="stroke:#A80036;stroke-width:0.8999999999999999;" width="69" x="854.1" y="21.2344"/><text fill="#000000" font-family="sans-serif" font-size="8.4" font-style="italic" lengthAdjust="spacing" textLength="37.2" x="870" y="34.1543">«domain»</text><text fill="#000000" font-family="sans-serif" font-size="8.4" lengthAdjust="spacing" textLength="60.6" x="858.3" y="44.7199">product:Product</text><rect fill="#FEFECE" filter="url(#fz2xel5jnn9ge)" height="29.5313" style="stroke:#A80036;stroke-width:0.8999999999999999;" width="69" x="854.1" y="688.3594"/><text fill="#000000" font-family="sans-serif" font-size="8.4" font-style="italic" lengthAdjust="spacing" textLength="37.2" x="870" y="701.2793">«domain»</text><text fill="#000000" font-family="sans-serif" font-size="8.4" lengthAdjust="spacing" textLength="60.6" x="858.3" y="711.8449">product:Product</text><rect fill="#FEFECE" filter="url(#fz2xel5jnn9ge)" height="29.5313" style="stroke:#A80036;stroke-width:0.8999999999999999;" width="81.6" x="931.5" y="21.2344"/><text fill="#000000" font-family="sans-serif" font-size="8.4" font-style="italic" lengthAdjust="spacing" textLength="53.4" x="945.6" y="34.1543">«persistence»</text><text fill="#000000" font-family="sans-serif" font-size="8.4" lengthAdjust="spacing" textLength="73.2" x="935.7" y="44.7199">PersistenceContext</text><rect fill="#FEFECE" filter="url(#fz2xel5jnn9ge)" height="29.5313" style="stroke:#A80036;stroke-width:0.8999999999999999;" width="81.6" x="931.5" y="688.3594"/><text fill="#000000" font-family="sans-serif" font-size="8.4" font-style="italic" lengthAdjust="spacing" textLength="53.4" x="945.6" y="701.2793">«persistence»</text><text fill="#000000" font-family="sans-serif" font-size="8.4" lengthAdjust="spacing" textLength="73.2" x="935.7" y="711.8449">PersistenceContext</text><rect fill="#FEFECE" filter="url(#fz2xel5jnn9ge)" height="29.5313" style="stroke:#A80036;stroke-width:0.8999999999999999;" width="78" x="1021.5" y="21.2344"/><text fill="#000000" font-family="sans-serif" font-size="8.4" font-style="italic" lengthAdjust="spacing" textLength="35.4" x="1042.8" y="34.1543">«factory»</text><text fill="#000000" font-family="sans-serif" font-size="8.4" lengthAdjust="spacing" textLength="69.6" x="1025.7" y="44.7199">RepositoryFactory</text><rect fill="#FEFECE" filter="url(#fz2xel5jnn9ge)" height="29.5313" style="stroke:#A80036;stroke-width:0.8999999999999999;" width="78" x="1021.5" y="688.3594"/><text fill="#000000" font-family="sans-serif" font-size="8.4" font-style="italic" lengthAdjust="spacing" textLength="35.4" x="1042.8" y="701.2793">«factory»</text><text fill="#000000" font-family="sans-serif" font-size="8.4" lengthAdjust="spacing" textLength="69.6" x="1025.7" y="711.8449">RepositoryFactory</text><text fill="#000000" font-family="sans-serif" font-size="8.4" font-style="italic" lengthAdjust="spacing" textLength="47.4" x="1122" y="41.3543">«repository»</text><text fill="#000000" font-family="sans-serif" font-size="8.4" lengthAdjust="spacing" textLength="75.6" x="1107.9" y="51.9199">CategoryRepository</text><path d="M1136.7,11.0344 C1136.7,5.0344 1147.5,5.0344 1147.5,5.0344 C1147.5,5.0344 1158.3,5.0344 1158.3,11.0344 L1158.3,26.6344 C1158.3,32.6344 1147.5,32.6344 1147.5,32.6344 C1147.5,32.6344 1136.7,32.6344 1136.7,26.6344 L1136.7,11.0344 " fill="#FEFECE" filter="url(#fz2xel5jnn9ge)" style="stroke:#000000;stroke-width:0.8999999999999999;"/><path d="M1136.7,11.0344 C1136.7,17.0344 1147.5,17.0344 1147.5,17.0344 C1147.5,17.0344 1158.3,17.0344 1158.3,11.0344 " fill="none" style="stroke:#000000;stroke-width:0.8999999999999999;"/><text fill="#000000" font-family="sans-serif" font-size="8.4" font-style="italic" lengthAdjust="spacing" textLength="47.4" x="1122" y="697.0793">«repository»</text><text fill="#000000" font-family="sans-serif" font-size="8.4" lengthAdjust="spacing" textLength="75.6" x="1107.9" y="707.6449">CategoryRepository</text><path d="M1136.7,715.4906 C1136.7,709.4906 1147.5,709.4906 1147.5,709.4906 C1147.5,709.4906 1158.3,709.4906 1158.3,715.4906 L1158.3,731.0906 C1158.3,737.0906 1147.5,737.0906 1147.5,737.0906 C1147.5,737.0906 1136.7,737.0906 1136.7,731.0906 L1136.7,715.4906 " fill="#FEFECE" filter="url(#fz2xel5jnn9ge)" style="stroke:#000000;stroke-width:0.8999999999999999;"/><path d="M1136.7,715.4906 C1136.7,721.4906 1147.5,721.4906 1147.5,721.4906 C1147.5,721.4906 1158.3,721.4906 1158.3,715.4906 " fill="none" style="stroke:#000000;stroke-width:0.8999999999999999;"/><text fill="#000000" font-family="sans-serif" font-size="8.4" font-style="italic" lengthAdjust="spacing" textLength="47.4" x="1204.5" y="41.3543">«repository»</text><text fill="#000000" font-family="sans-serif" font-size="8.4" lengthAdjust="spacing" textLength="70.2" x="1193.1" y="51.9199">ProductRepository</text><path d="M1219.2,11.0344 C1219.2,5.0344 1230,5.0344 1230,5.0344 C1230,5.0344 1240.8,5.0344 1240.8,11.0344 L1240.8,26.6344 C1240.8,32.6344 1230,32.6344 1230,32.6344 C1230,32.6344 1219.2,32.6344 1219.2,26.6344 L1219.2,11.0344 " fill="#FEFECE" filter="url(#fz2xel5jnn9ge)" style="stroke:#000000;stroke-width:0.8999999999999999;"/><path d="M1219.2,11.0344 C1219.2,17.0344 1230,17.0344 1230,17.0344 C1230,17.0344 1240.8,17.0344 1240.8,11.0344 " fill="none" style="stroke:#000000;stroke-width:0.8999999999999999;"/><text fill="#000000" font-family="sans-serif" font-size="8.4" font-style="italic" lengthAdjust="spacing" textLength="47.4" x="1204.5" y="697.0793">«repository»</text><text fill="#000000" font-family="sans-serif" font-size="8.4" lengthAdjust="spacing" textLength="70.2" x="1193.1" y="707.6449">ProductRepository</text><path d="M1219.2,715.4906 C1219.2,709.4906 1230,709.4906 1230,709.4906 C1230,709.4906 1240.8,709.4906 1240.8,715.4906 L1240.8,731.0906 C1240.8,737.0906 1230,737.0906 1230,737.0906 C1230,737.0906 1219.2,737.0906 1219.2,731.0906 L1219.2,715.4906 " fill="#FEFECE" filter="url(#fz2xel5jnn9ge)" style="stroke:#000000;stroke-width:0.8999999999999999;"/><path d="M1219.2,715.4906 C1219.2,721.4906 1230,721.4906 1230,721.4906 C1230,721.4906 1240.8,721.4906 1240.8,715.4906 " fill="none" style="stroke:#000000;stroke-width:0.8999999999999999;"/><rect fill="#FFFFFF" filter="url(#fz2xel5jnn9ge)" height="618.3938" style="stroke:#A80036;stroke-width:0.6;" width="6" x="32.4" y="59.7656"/><rect fill="#FFFFFF" filter="url(#fz2xel5jnn9ge)" height="191.4984" style="stroke:#A80036;stroke-width:0.6;" width="6" x="340.8" y="73.1766"/><rect fill="#FFFFFF" filter="url(#fz2xel5jnn9ge)" height="37.8328" style="stroke:#A80036;stroke-width:0.6;" width="6" x="340.8" y="282.8859"/><rect fill="#FFFFFF" filter="url(#fz2xel5jnn9ge)" height="33.4219" style="stroke:#A80036;stroke-width:0.6;" width="6" x="340.8" y="338.9297"/><rect fill="#FFFFFF" filter="url(#fz2xel5jnn9ge)" height="287.5969" style="stroke:#A80036;stroke-width:0.6;" width="6" x="340.8" y="390.5625"/><rect fill="#FFFFFF" filter="url(#fz2xel5jnn9ge)" height="127.0547" style="stroke:#A80036;stroke-width:0.6;" width="6" x="607.8" y="109.5984"/><rect fill="#FFFFFF" filter="url(#fz2xel5jnn9ge)" height="217.5422" style="stroke:#A80036;stroke-width:0.6;" width="6" x="607.8" y="442.4063"/><rect fill="#FFFFFF" filter="url(#fz2xel5jnn9ge)" height="18.2109" style="stroke:#A80036;stroke-width:0.6;" width="6" x="886.8" y="490.05"/><rect fill="#FFFFFF" filter="url(#fz2xel5jnn9ge)" height="54.4219" style="stroke:#A80036;stroke-width:0.6;" width="6" x="970.5" y="127.8094"/><rect fill="#FFFFFF" filter="url(#fz2xel5jnn9ge)" height="60.6328" style="stroke:#A80036;stroke-width:0.6;" width="6" x="970.5" y="526.4719"/><rect fill="#FFFFFF" filter="url(#fz2xel5jnn9ge)" height="36.2109" style="stroke:#A80036;stroke-width:0.6;" width="6" x="1058.7" y="146.0203"/><rect fill="#FFFFFF" filter="url(#fz2xel5jnn9ge)" height="36.4219" style="stroke:#A80036;stroke-width:0.6;" width="6" x="1058.7" y="605.3156"/><rect fill="#FFFFFF" filter="url(#fz2xel5jnn9ge)" height="18" style="stroke:#A80036;stroke-width:0.6;" width="6" x="1144.5" y="164.2313"/><rect fill="#FFFFFF" filter="url(#fz2xel5jnn9ge)" height="18" style="stroke:#A80036;stroke-width:0.6;" width="6" x="1144.5" y="200.4422"/><polygon fill="#A80036" points="333.6,70.7766,339.6,73.1766,333.6,75.5766,336,73.1766" style="stroke:#A80036;stroke-width:0.6;"/><line style="stroke:#A80036;stroke-width:0.6;" x1="38.4" x2="337.2" y1="73.1766" y2="73.1766"/><text fill="#000000" font-family="sans-serif" font-size="7.8" font-weight="bold" lengthAdjust="spacing" textLength="4.2" x="42.6" y="70.2627">1</text><text fill="#000000" font-family="sans-serif" font-size="7.8" lengthAdjust="spacing" textLength="147.6" x="49.2" y="70.2627">Inicia o processo de registo de um produto</text><polygon fill="#A80036" points="603.6,88.9875,609.6,91.3875,603.6,93.7875,606,91.3875" style="stroke:#A80036;stroke-width:0.6;"/><line style="stroke:#A80036;stroke-width:0.6;" x1="346.8" x2="607.2" y1="91.3875" y2="91.3875"/><text fill="#000000" font-family="sans-serif" font-size="7.8" font-weight="bold" lengthAdjust="spacing" textLength="4.2" x="351" y="88.4736">2</text><text fill="#000000" font-family="sans-serif" font-size="7.8" lengthAdjust="spacing" textLength="21.6" x="357.6" y="88.4736">create</text><polygon fill="#A80036" points="600.6,107.1984,606.6,109.5984,600.6,111.9984,603,109.5984" style="stroke:#A80036;stroke-width:0.6;"/><line style="stroke:#A80036;stroke-width:0.6;" x1="346.8" x2="604.2" y1="109.5984" y2="109.5984"/><text fill="#000000" font-family="sans-serif" font-size="7.8" font-weight="bold" lengthAdjust="spacing" textLength="4.2" x="351" y="106.6846">3</text><text fill="#000000" font-family="sans-serif" font-size="7.8" lengthAdjust="spacing" textLength="52.8" x="357.6" y="106.6846">getCategories()</text><polygon fill="#A80036" points="963.3,125.4094,969.3,127.8094,963.3,130.2094,965.7,127.8094" style="stroke:#A80036;stroke-width:0.6;"/><line style="stroke:#A80036;stroke-width:0.6;" x1="613.8" x2="966.9" y1="127.8094" y2="127.8094"/><text fill="#000000" font-family="sans-serif" font-size="7.8" font-weight="bold" lengthAdjust="spacing" textLength="4.2" x="618" y="124.8955">4</text><text fill="#000000" font-family="sans-serif" font-size="7.8" lengthAdjust="spacing" textLength="45" x="624.6" y="124.8955">repositories()</text><polygon fill="#A80036" points="1051.5,143.6203,1057.5,146.0203,1051.5,148.4203,1053.9,146.0203" style="stroke:#A80036;stroke-width:0.6;"/><line style="stroke:#A80036;stroke-width:0.6;" x1="976.5" x2="1055.1" y1="146.0203" y2="146.0203"/><text fill="#000000" font-family="sans-serif" font-size="7.8" font-weight="bold" lengthAdjust="spacing" textLength="4.2" x="980.7" y="143.1064">5</text><text fill="#000000" font-family="sans-serif" font-size="7.8" lengthAdjust="spacing" textLength="21.6" x="987.3" y="143.1064">create</text><polygon fill="#A80036" points="1137.3,161.8312,1143.3,164.2313,1137.3,166.6313,1139.7,164.2313" style="stroke:#A80036;stroke-width:0.6;"/><line style="stroke:#A80036;stroke-width:0.6;" x1="1064.7" x2="1140.9" y1="164.2313" y2="164.2313"/><text fill="#000000" font-family="sans-serif" font-size="7.8" font-weight="bold" lengthAdjust="spacing" textLength="4.2" x="1068.9" y="161.3174">6</text><text fill="#000000" font-family="sans-serif" font-size="7.8" lengthAdjust="spacing" textLength="21.6" x="1075.5" y="161.3174">create</text><polygon fill="#A80036" points="1137.3,198.0422,1143.3,200.4422,1137.3,202.8422,1139.7,200.4422" style="stroke:#A80036;stroke-width:0.6;"/><line style="stroke:#A80036;stroke-width:0.6;" x1="613.8" x2="1140.9" y1="200.4422" y2="200.4422"/><text fill="#000000" font-family="sans-serif" font-size="7.8" font-weight="bold" lengthAdjust="spacing" textLength="4.2" x="618" y="197.5283">7</text><text fill="#000000" font-family="sans-serif" font-size="7.8" lengthAdjust="spacing" textLength="21" x="624.6" y="197.5283">findAll</text><polygon fill="#A80036" points="353.4,234.2531,347.4,236.6531,353.4,239.0531,351,236.6531" style="stroke:#A80036;stroke-width:0.6;"/><line style="stroke:#A80036;stroke-width:0.6;stroke-dasharray:2.0,2.0;" x1="349.8" x2="610.2" y1="236.6531" y2="236.6531"/><text fill="#000000" font-family="sans-serif" font-size="7.8" font-weight="bold" lengthAdjust="spacing" textLength="4.2" x="357" y="233.7393">8</text><text fill="#000000" font-family="sans-serif" font-size="7.8" lengthAdjust="spacing" textLength="36" x="363.6" y="233.7393">categories</text><polygon fill="#A80036" points="45,262.275,39,264.675,45,267.075,42.6,264.675" style="stroke:#A80036;stroke-width:0.6;"/><line style="stroke:#A80036;stroke-width:0.6;stroke-dasharray:2.0,2.0;" x1="41.4" x2="343.2" y1="264.675" y2="264.675"/><text fill="#000000" font-family="sans-serif" font-size="7.8" font-weight="bold" lengthAdjust="spacing" textLength="4.2" x="48.6" y="256.8557">9</text><text fill="#000000" font-family="sans-serif" font-size="7.8" lengthAdjust="spacing" textLength="160.2" x="55.2" y="251.9502">Informa as categorias existentes no sistema e</text><text fill="#000000" font-family="sans-serif" font-size="7.8" lengthAdjust="spacing" textLength="162" x="57.6" y="261.7611">pede para que escolha a associada ao produto</text><polygon fill="#A80036" points="333.6,280.4859,339.6,282.8859,333.6,285.2859,336,282.8859" style="stroke:#A80036;stroke-width:0.6;"/><line style="stroke:#A80036;stroke-width:0.6;" x1="38.4" x2="337.2" y1="282.8859" y2="282.8859"/><text fill="#000000" font-family="sans-serif" font-size="7.8" font-weight="bold" lengthAdjust="spacing" textLength="8.4" x="42.6" y="279.9721">10</text><text fill="#000000" font-family="sans-serif" font-size="7.8" lengthAdjust="spacing" textLength="109.8" x="53.4" y="279.9721">Seleciona a Categoria desejada</text><polygon fill="#A80036" points="45,318.3187,39,320.7188,45,323.1188,42.6,320.7188" style="stroke:#A80036;stroke-width:0.6;"/><line style="stroke:#A80036;stroke-width:0.6;stroke-dasharray:2.0,2.0;" x1="41.4" x2="343.2" y1="320.7188" y2="320.7188"/><text fill="#000000" font-family="sans-serif" font-size="7.8" font-weight="bold" lengthAdjust="spacing" textLength="8.4" x="48.6" y="307.9939">11</text><text fill="#000000" font-family="sans-serif" font-size="7.8" lengthAdjust="spacing" textLength="234.6" x="59.4" y="298.183">Solicita os dados obrigatórios (uniqueInternalCode,shortDescription,</text><text fill="#000000" font-family="sans-serif" font-size="7.8" lengthAdjust="spacing" textLength="250.2" x="59.4" y="307.9939">extendedDescription, technicalDescription, barcode, priceWithoutTaxes,</text><text fill="#000000" font-family="sans-serif" font-size="7.8" lengthAdjust="spacing" textLength="277.2" x="59.4" y="317.8049">priceWithTaxes, brandName, reference, weight, volume, photo, productLocation)</text><polygon fill="#A80036" points="333.6,336.5297,339.6,338.9297,333.6,341.3297,336,338.9297" style="stroke:#A80036;stroke-width:0.6;"/><line style="stroke:#A80036;stroke-width:0.6;" x1="38.4" x2="337.2" y1="338.9297" y2="338.9297"/><text fill="#000000" font-family="sans-serif" font-size="7.8" font-weight="bold" lengthAdjust="spacing" textLength="8.4" x="42.6" y="336.0158">12</text><text fill="#000000" font-family="sans-serif" font-size="7.8" lengthAdjust="spacing" textLength="101.4" x="53.4" y="336.0158">Introduz os dados solicitados</text><path d="M6,347.9297 L42.6,347.9297 L42.6,352.7297 L36.6,358.7297 L6,358.7297 L6,347.9297 " fill="#EEEEEE" style="stroke:#000000;stroke-width:0.6;"/><rect fill="none" height="47.4328" style="stroke:#000000;stroke-width:1.2;" width="383.4" x="6" y="347.9297"/><text fill="#000000" font-family="sans-serif" font-size="7.8" font-weight="bold" lengthAdjust="spacing" textLength="9.6" x="15" y="356.6268">alt</text><text fill="#000000" font-family="sans-serif" font-size="6.6" font-weight="bold" lengthAdjust="spacing" textLength="157.8" x="51.6" y="355.9811">[Sales Clerk deseja associar o productionCode]</text><polygon fill="#A80036" points="45,369.9516,39,372.3516,45,374.7516,42.6,372.3516" style="stroke:#A80036;stroke-width:0.6;"/><line style="stroke:#A80036;stroke-width:0.6;stroke-dasharray:2.0,2.0;" x1="41.4" x2="343.2" y1="372.3516" y2="372.3516"/><text fill="#000000" font-family="sans-serif" font-size="7.8" font-weight="bold" lengthAdjust="spacing" textLength="8.4" x="48.6" y="369.4377">13</text><text fill="#000000" font-family="sans-serif" font-size="7.8" lengthAdjust="spacing" textLength="88.8" x="59.4" y="369.4377">Solicita o productionCode</text><polygon fill="#A80036" points="333.6,388.1625,339.6,390.5625,333.6,392.9625,336,390.5625" style="stroke:#A80036;stroke-width:0.6;"/><line style="stroke:#A80036;stroke-width:0.6;" x1="38.4" x2="337.2" y1="390.5625" y2="390.5625"/><text fill="#000000" font-family="sans-serif" font-size="7.8" font-weight="bold" lengthAdjust="spacing" textLength="8.4" x="42.6" y="387.6486">14</text><text fill="#000000" font-family="sans-serif" font-size="7.8" lengthAdjust="spacing" textLength="90.6" x="53.4" y="387.6486">Introduz o productionCode</text><polygon fill="#A80036" points="600.6,440.0062,606.6,442.4063,600.6,444.8063,603,442.4063" style="stroke:#A80036;stroke-width:0.6;"/><line style="stroke:#A80036;stroke-width:0.6;" x1="346.8" x2="604.2" y1="442.4063" y2="442.4063"/><text fill="#000000" font-family="sans-serif" font-size="7.8" font-weight="bold" lengthAdjust="spacing" textLength="8.4" x="351" y="424.776">15</text><text fill="#000000" font-family="sans-serif" font-size="7.8" lengthAdjust="spacing" textLength="226.8" x="361.8" y="410.0596">registerProduct(theCategory,uniqueInternalCode,shortDescription,</text><text fill="#000000" font-family="sans-serif" font-size="7.8" lengthAdjust="spacing" textLength="217.8" x="361.8" y="419.8705">extendedDescription,technicalDescription,barcode,brandName,</text><text fill="#000000" font-family="sans-serif" font-size="7.8" lengthAdjust="spacing" textLength="238.8" x="361.8" y="429.6814">reference,productionCode,priceWithoutTaxes,priceWithTaxes,weight,</text><text fill="#000000" font-family="sans-serif" font-size="7.8" lengthAdjust="spacing" textLength="138" x="361.8" y="439.4924">volume,photoPaths,aisleId,rowId,shelfId)</text><polygon fill="#A80036" points="879.6,487.65,885.6,490.05,879.6,492.45,882,490.05" style="stroke:#A80036;stroke-width:0.6;"/><line style="stroke:#A80036;stroke-width:0.6;" x1="613.8" x2="883.2" y1="490.05" y2="490.05"/><text fill="#000000" font-family="sans-serif" font-size="7.8" font-weight="bold" lengthAdjust="spacing" textLength="8.4" x="618" y="472.4197">16</text><text fill="#000000" font-family="sans-serif" font-size="7.8" lengthAdjust="spacing" textLength="250.8" x="628.8" y="457.7033">create(registerProduct(theCategory,uniqueInternalCode,shortDescription,</text><text fill="#000000" font-family="sans-serif" font-size="7.8" lengthAdjust="spacing" textLength="217.8" x="628.8" y="467.5143">extendedDescription,technicalDescription,barcode,brandName,</text><text fill="#000000" font-family="sans-serif" font-size="7.8" lengthAdjust="spacing" textLength="238.8" x="628.8" y="477.3252">reference,productionCode,priceWithoutTaxes,priceWithTaxes,weight,</text><text fill="#000000" font-family="sans-serif" font-size="7.8" lengthAdjust="spacing" textLength="138" x="628.8" y="487.1361">volume,photoPaths,aisleId,rowId,shelfId)</text><polygon fill="#A80036" points="620.4,505.8609,614.4,508.2609,620.4,510.6609,618,508.2609" style="stroke:#A80036;stroke-width:0.6;"/><line style="stroke:#A80036;stroke-width:0.6;" x1="616.8" x2="889.2" y1="508.2609" y2="508.2609"/><text fill="#000000" font-family="sans-serif" font-size="7.8" font-weight="bold" lengthAdjust="spacing" textLength="8.4" x="624" y="505.3471">17</text><text fill="#000000" font-family="sans-serif" font-size="7.8" lengthAdjust="spacing" textLength="18.6" x="634.8" y="505.3471">client</text><polygon fill="#A80036" points="963.3,524.0719,969.3,526.4719,963.3,528.8719,965.7,526.4719" style="stroke:#A80036;stroke-width:0.6;"/><line style="stroke:#A80036;stroke-width:0.6;" x1="613.8" x2="966.9" y1="526.4719" y2="526.4719"/><text fill="#000000" font-family="sans-serif" font-size="7.8" font-weight="bold" lengthAdjust="spacing" textLength="8.4" x="618" y="523.558">18</text><text fill="#000000" font-family="sans-serif" font-size="7.8" lengthAdjust="spacing" textLength="45" x="628.8" y="523.558">repositories()</text><path d="M979.2,534.2719 L979.2,549.8719 L1137.6,549.8719 L1137.6,540.2719 L1131.6,534.2719 L979.2,534.2719 " fill="#FBFB77" filter="url(#fz2xel5jnn9ge)" style="stroke:#A80036;stroke-width:0.6;"/><path d="M1131.6,534.2719 L1131.6,540.2719 L1137.6,540.2719 L1131.6,534.2719 " fill="#FBFB77" style="stroke:#A80036;stroke-width:0.6;"/><text fill="#000000" font-family="sans-serif" font-size="7.8" lengthAdjust="spacing" textLength="145.8" x="982.8" y="545.3689">pode criar repositório em memória ou JPA</text><polygon fill="#A80036" points="1054.5,566.4938,1060.5,568.8938,1054.5,571.2937,1056.9,568.8938" style="stroke:#A80036;stroke-width:0.6;"/><line style="stroke:#A80036;stroke-width:0.6;" x1="976.5" x2="1058.1" y1="568.8938" y2="568.8938"/><text fill="#000000" font-family="sans-serif" font-size="7.8" font-weight="bold" lengthAdjust="spacing" textLength="8.4" x="980.7" y="565.9799">19</text><text fill="#000000" font-family="sans-serif" font-size="7.8" lengthAdjust="spacing" textLength="21.6" x="991.5" y="565.9799">create</text><polygon fill="#A80036" points="620.4,584.7047,614.4,587.1047,620.4,589.5047,618,587.1047" style="stroke:#A80036;stroke-width:0.6;"/><line style="stroke:#A80036;stroke-width:0.6;" x1="616.8" x2="972.9" y1="587.1047" y2="587.1047"/><text fill="#000000" font-family="sans-serif" font-size="7.8" font-weight="bold" lengthAdjust="spacing" textLength="8.4" x="624" y="584.1908">20</text><text fill="#000000" font-family="sans-serif" font-size="7.8" lengthAdjust="spacing" textLength="23.4" x="634.8" y="584.1908">factory</text><polygon fill="#A80036" points="1051.5,602.9156,1057.5,605.3156,1051.5,607.7156,1053.9,605.3156" style="stroke:#A80036;stroke-width:0.6;"/><line style="stroke:#A80036;stroke-width:0.6;" x1="613.8" x2="1055.1" y1="605.3156" y2="605.3156"/><text fill="#000000" font-family="sans-serif" font-size="7.8" font-weight="bold" lengthAdjust="spacing" textLength="8.4" x="618" y="602.4018">21</text><text fill="#000000" font-family="sans-serif" font-size="7.8" lengthAdjust="spacing" textLength="34.8" x="628.8" y="602.4018">products()</text><polygon fill="#A80036" points="1222.8,621.1266,1228.8,623.5266,1222.8,625.9266,1225.2,623.5266" style="stroke:#A80036;stroke-width:0.6;"/><line style="stroke:#A80036;stroke-width:0.6;" x1="1064.7" x2="1226.4" y1="623.5266" y2="623.5266"/><text fill="#000000" font-family="sans-serif" font-size="7.8" font-weight="bold" lengthAdjust="spacing" textLength="8.4" x="1068.9" y="620.6127">22</text><text fill="#000000" font-family="sans-serif" font-size="7.8" lengthAdjust="spacing" textLength="21.6" x="1079.7" y="620.6127">create</text><polygon fill="#A80036" points="620.4,639.3375,614.4,641.7375,620.4,644.1375,618,641.7375" style="stroke:#A80036;stroke-width:0.6;"/><line style="stroke:#A80036;stroke-width:0.6;" x1="616.8" x2="1061.1" y1="641.7375" y2="641.7375"/><text fill="#000000" font-family="sans-serif" font-size="7.8" font-weight="bold" lengthAdjust="spacing" textLength="8.4" x="624" y="638.8236">23</text><text fill="#000000" font-family="sans-serif" font-size="7.8" lengthAdjust="spacing" textLength="63" x="634.8" y="638.8236">productRepository</text><polygon fill="#A80036" points="1222.8,657.5484,1228.8,659.9484,1222.8,662.3484,1225.2,659.9484" style="stroke:#A80036;stroke-width:0.6;"/><line style="stroke:#A80036;stroke-width:0.6;" x1="610.8" x2="1226.4" y1="659.9484" y2="659.9484"/><text fill="#000000" font-family="sans-serif" font-size="7.8" font-weight="bold" lengthAdjust="spacing" textLength="8.4" x="615" y="657.0346">24</text><text fill="#000000" font-family="sans-serif" font-size="7.8" lengthAdjust="spacing" textLength="46.2" x="625.8" y="657.0346">save(product)</text><polygon fill="#A80036" points="42,675.7594,36,678.1594,42,680.5594,39.6,678.1594" style="stroke:#A80036;stroke-width:0.6;"/><line style="stroke:#A80036;stroke-width:0.6;stroke-dasharray:2.0,2.0;" x1="38.4" x2="343.2" y1="678.1594" y2="678.1594"/><text fill="#000000" font-family="sans-serif" font-size="7.8" font-weight="bold" lengthAdjust="spacing" textLength="8.4" x="45.6" y="675.2455">25</text><text fill="#000000" font-family="sans-serif" font-size="7.8" lengthAdjust="spacing" textLength="108.6" x="56.4" y="675.2455">Informa o sucesso da operação</text><!--MD5=[f62b22ad9c4b9989a28e398e64d9829b]
@startuml

autonumber
actor "Sales Clerk" as SC
participant RegisterProductUI as UI <<presentation>>
participant RegisterProductController as Controller <<application>>
participant "product:Product" as Domain <<domain>>
participant PersistenceContext as Persistence <<persistence>>
participant RepositoryFactory as Factory <<factory>>
database  CategoryRepository as CategoryRepository <<repository>>
database  ProductRepository as PRepository <<repository>>

activate SC
SC -> UI : Inicia o processo de registo de um produto
activate UI
UI -> Controller: create
UI -> Controller: getCategories()
activate Controller
Controller -> Persistence: repositories()
activate Persistence
Persistence -> Factory:create
activate Factory
Factory -> CategoryRepository: create
activate CategoryRepository
deactivate CategoryRepository
deactivate Factory
deactivate Persistence
Controller -> CategoryRepository: findAll
activate CategoryRepository
deactivate CategoryRepository
Controller - -> UI:categories
deactivate Controller
UI - -> SC : Informa as categorias existentes no sistema e \n pede para que escolha a associada ao produto
deactivate UI
SC -> UI : Seleciona a Categoria desejada
activate UI
UI - -> SC : Solicita os dados obrigatórios (uniqueInternalCode,shortDescription,\nextendedDescription, technicalDescription, barcode, priceWithoutTaxes,\npriceWithTaxes, brandName, reference, weight, volume, photo, productLocation)
deactivate UI
SC -> UI : Introduz os dados solicitados
activate UI
alt Sales Clerk deseja associar o productionCode
UI - -> SC : Solicita o productionCode
deactivate UI
SC -> UI : Introduz o productionCode
activate UI
end
UI -> Controller: registerProduct(theCategory,uniqueInternalCode,shortDescription,\nextendedDescription,technicalDescription,barcode,brandName,\nreference,productionCode,priceWithoutTaxes,priceWithTaxes,weight,\nvolume,photoPaths,aisleId,rowId,shelfId)
activate Controller
Controller -> Domain: create(registerProduct(theCategory,uniqueInternalCode,shortDescription,\nextendedDescription,technicalDescription,barcode,brandName,\nreference,productionCode,priceWithoutTaxes,priceWithTaxes,weight,\nvolume,photoPaths,aisleId,rowId,shelfId)
activate Domain
Domain-> Controller:client
deactivate Domain
Controller -> Persistence: repositories()
activate Persistence
note right of Persistence: pode criar repositório em memória ou JPA
Persistence -> Factory: create
Persistence -> Controller: factory
deactivate Persistence
Controller -> Factory: products()
activate Factory
Factory -> PRepository: create
Factory -> Controller: productRepository
deactivate Factory
Controller->PRepository:save(product)
deactivate Controller
UI - -> SC : Informa o sucesso da operação
deactivate UI


deactivate SC

@enduml

PlantUML version 1.2022.1(Tue Feb 01 18:19:58 GMT 2022)
(GPL source distribution)
Java Runtime: OpenJDK Runtime Environment
JVM: Dynamic Code Evolution 64-Bit Server VM
Default Encoding: Cp1252
Language: pt
Country: PT
--></g></svg>