<?xml version="1.0" encoding="UTF-8" standalone="no"?><svg xmlns="http://www.w3.org/2000/svg" xmlns:xlink="http://www.w3.org/1999/xlink" contentScriptType="application/ecmascript" contentStyleType="text/css" height="519px" preserveAspectRatio="none" style="width:624px;height:519px;background:#FFFFFF;" version="1.1" viewBox="0 0 624 519" width="624px" zoomAndPan="magnify"><defs><filter height="300%" id="f146g9ovp9wo8t" width="300%" x="-1" y="-1"><feGaussianBlur result="blurOut" stdDeviation="2.0"/><feColorMatrix in="blurOut" result="blurOut2" type="matrix" values="0 0 0 0 0 0 0 0 0 0 0 0 0 0 0 0 0 0 .4 0"/><feOffset dx="4.0" dy="4.0" in="blurOut2" result="blurOut3"/><feBlend in="SourceGraphic" in2="blurOut3" mode="normal"/></filter></defs><g><rect fill="#FFFFFF" filter="url(#f146g9ovp9wo8t)" height="316.2188" style="stroke:#A80036;stroke-width:1.0;" width="10" x="54" y="99.6094"/><rect fill="#FFFFFF" filter="url(#f146g9ovp9wo8t)" height="46.7031" style="stroke:#A80036;stroke-width:1.0;" width="10" x="561" y="121.9609"/><rect fill="#FFFFFF" filter="url(#f146g9ovp9wo8t)" height="63.0547" style="stroke:#A80036;stroke-width:1.0;" width="10" x="561" y="199.0156"/><rect fill="#FFFFFF" filter="url(#f146g9ovp9wo8t)" height="55.7031" style="stroke:#A80036;stroke-width:1.0;" width="10" x="561" y="292.4219"/><rect fill="#FFFFFF" filter="url(#f146g9ovp9wo8t)" height="37.3516" style="stroke:#A80036;stroke-width:1.0;" width="10" x="561" y="378.4766"/><rect fill="#FFFFFF" filter="url(#f146g9ovp9wo8t)" height="79.0547" style="stroke:#000000;stroke-width:2.0;" width="600" x="10" y="307.4219"/><line style="stroke:#A80036;stroke-width:1.0;stroke-dasharray:5.0,5.0;" x1="59" x2="59" y1="89.6094" y2="433.8281"/><line style="stroke:#A80036;stroke-width:1.0;stroke-dasharray:5.0,5.0;" x1="566" x2="566" y1="89.6094" y2="433.8281"/><text fill="#000000" font-family="sans-serif" font-size="14" lengthAdjust="spacing" textLength="72" x="20" y="86.5332">Sales Clerk</text><ellipse cx="59" cy="15" fill="#FEFECE" filter="url(#f146g9ovp9wo8t)" rx="8" ry="8" style="stroke:#A80036;stroke-width:2.0;"/><path d="M59,23 L59,50 M46,31 L72,31 M59,50 L46,65 M59,50 L72,65 " fill="none" filter="url(#f146g9ovp9wo8t)" style="stroke:#A80036;stroke-width:2.0;"/><text fill="#000000" font-family="sans-serif" font-size="14" lengthAdjust="spacing" textLength="72" x="20" y="447.3613">Sales Clerk</text><ellipse cx="59" cy="460.4375" fill="#FEFECE" filter="url(#f146g9ovp9wo8t)" rx="8" ry="8" style="stroke:#A80036;stroke-width:2.0;"/><path d="M59,468.4375 L59,495.4375 M46,476.4375 L72,476.4375 M59,495.4375 L46,510.4375 M59,495.4375 L72,510.4375 " fill="none" filter="url(#f146g9ovp9wo8t)" style="stroke:#A80036;stroke-width:2.0;"/><rect fill="#FEFECE" filter="url(#f146g9ovp9wo8t)" height="31.6094" style="stroke:#A80036;stroke-width:1.5;" width="64" x="532" y="53"/><text fill="#000000" font-family="sans-serif" font-size="14" lengthAdjust="spacing" textLength="50" x="539" y="74.5332">:System</text><rect fill="#FEFECE" filter="url(#f146g9ovp9wo8t)" height="31.6094" style="stroke:#A80036;stroke-width:1.5;" width="64" x="532" y="432.8281"/><text fill="#000000" font-family="sans-serif" font-size="14" lengthAdjust="spacing" textLength="50" x="539" y="454.3613">:System</text><rect fill="#FFFFFF" filter="url(#f146g9ovp9wo8t)" height="316.2188" style="stroke:#A80036;stroke-width:1.0;" width="10" x="54" y="99.6094"/><rect fill="#FFFFFF" filter="url(#f146g9ovp9wo8t)" height="46.7031" style="stroke:#A80036;stroke-width:1.0;" width="10" x="561" y="121.9609"/><rect fill="#FFFFFF" filter="url(#f146g9ovp9wo8t)" height="63.0547" style="stroke:#A80036;stroke-width:1.0;" width="10" x="561" y="199.0156"/><rect fill="#FFFFFF" filter="url(#f146g9ovp9wo8t)" height="55.7031" style="stroke:#A80036;stroke-width:1.0;" width="10" x="561" y="292.4219"/><rect fill="#FFFFFF" filter="url(#f146g9ovp9wo8t)" height="37.3516" style="stroke:#A80036;stroke-width:1.0;" width="10" x="561" y="378.4766"/><polygon fill="#A80036" points="549,117.9609,559,121.9609,549,125.9609,553,121.9609" style="stroke:#A80036;stroke-width:1.0;"/><line style="stroke:#A80036;stroke-width:1.0;" x1="64" x2="555" y1="121.9609" y2="121.9609"/><text fill="#000000" font-family="sans-serif" font-size="13" font-weight="bold" lengthAdjust="spacing" textLength="7" x="71" y="117.1045">1</text><text fill="#000000" font-family="sans-serif" font-size="13" lengthAdjust="spacing" textLength="246" x="82" y="117.1045">Inicia o processo de registo de um produto</text><polygon fill="#A80036" points="75,164.6641,65,168.6641,75,172.6641,71,168.6641" style="stroke:#A80036;stroke-width:1.0;"/><line style="stroke:#A80036;stroke-width:1.0;stroke-dasharray:2.0,2.0;" x1="69" x2="565" y1="168.6641" y2="168.6641"/><text fill="#000000" font-family="sans-serif" font-size="13" font-weight="bold" lengthAdjust="spacing" textLength="7" x="81" y="155.6318">2</text><text fill="#000000" font-family="sans-serif" font-size="13" lengthAdjust="spacing" textLength="267" x="92" y="147.4561">Informa as categorias existentes no sistema e</text><text fill="#000000" font-family="sans-serif" font-size="13" lengthAdjust="spacing" textLength="270" x="96" y="163.8076">pede para que escolha a associada ao produto</text><polygon fill="#A80036" points="549,195.0156,559,199.0156,549,203.0156,553,199.0156" style="stroke:#A80036;stroke-width:1.0;"/><line style="stroke:#A80036;stroke-width:1.0;" x1="64" x2="555" y1="199.0156" y2="199.0156"/><text fill="#000000" font-family="sans-serif" font-size="13" font-weight="bold" lengthAdjust="spacing" textLength="7" x="71" y="194.1592">3</text><text fill="#000000" font-family="sans-serif" font-size="13" lengthAdjust="spacing" textLength="183" x="82" y="194.1592">Seleciona a Categoria desejada</text><polygon fill="#A80036" points="75,258.0703,65,262.0703,75,266.0703,71,262.0703" style="stroke:#A80036;stroke-width:1.0;"/><line style="stroke:#A80036;stroke-width:1.0;stroke-dasharray:2.0,2.0;" x1="69" x2="565" y1="262.0703" y2="262.0703"/><text fill="#000000" font-family="sans-serif" font-size="13" font-weight="bold" lengthAdjust="spacing" textLength="7" x="81" y="240.8623">4</text><text fill="#000000" font-family="sans-serif" font-size="13" lengthAdjust="spacing" textLength="391" x="92" y="224.5107">Solicita os dados obrigatórios (uniqueInternalCode,shortDescription,</text><text fill="#000000" font-family="sans-serif" font-size="13" lengthAdjust="spacing" textLength="417" x="92" y="240.8623">extendedDescription, technicalDescription, barcode, priceWithoutTaxes,</text><text fill="#000000" font-family="sans-serif" font-size="13" lengthAdjust="spacing" textLength="462" x="92" y="257.2139">priceWithTaxes, brandName, reference, weight, volume, photo, productLocation)</text><polygon fill="#A80036" points="549,288.4219,559,292.4219,549,296.4219,553,292.4219" style="stroke:#A80036;stroke-width:1.0;"/><line style="stroke:#A80036;stroke-width:1.0;" x1="64" x2="555" y1="292.4219" y2="292.4219"/><text fill="#000000" font-family="sans-serif" font-size="13" font-weight="bold" lengthAdjust="spacing" textLength="7" x="71" y="287.5654">5</text><text fill="#000000" font-family="sans-serif" font-size="13" lengthAdjust="spacing" textLength="169" x="82" y="287.5654">Introduz os dados solicitados</text><path d="M10,307.4219 L71,307.4219 L71,315.4219 L61,325.4219 L10,325.4219 L10,307.4219 " fill="#EEEEEE" style="stroke:#000000;stroke-width:1.0;"/><rect fill="none" height="79.0547" style="stroke:#000000;stroke-width:2.0;" width="600" x="10" y="307.4219"/><text fill="#000000" font-family="sans-serif" font-size="13" font-weight="bold" lengthAdjust="spacing" textLength="16" x="25" y="321.917">alt</text><text fill="#000000" font-family="sans-serif" font-size="11" font-weight="bold" lengthAdjust="spacing" textLength="263" x="86" y="320.8408">[Sales Clerk deseja associar o productionCode]</text><polygon fill="#A80036" points="75,344.125,65,348.125,75,352.125,71,348.125" style="stroke:#A80036;stroke-width:1.0;"/><line style="stroke:#A80036;stroke-width:1.0;stroke-dasharray:2.0,2.0;" x1="69" x2="565" y1="348.125" y2="348.125"/><text fill="#000000" font-family="sans-serif" font-size="13" font-weight="bold" lengthAdjust="spacing" textLength="7" x="81" y="343.2686">6</text><text fill="#000000" font-family="sans-serif" font-size="13" lengthAdjust="spacing" textLength="148" x="92" y="343.2686">Solicita o productionCode</text><polygon fill="#A80036" points="549,374.4766,559,378.4766,549,382.4766,553,378.4766" style="stroke:#A80036;stroke-width:1.0;"/><line style="stroke:#A80036;stroke-width:1.0;" x1="64" x2="555" y1="378.4766" y2="378.4766"/><text fill="#000000" font-family="sans-serif" font-size="13" font-weight="bold" lengthAdjust="spacing" textLength="7" x="71" y="373.6201">7</text><text fill="#000000" font-family="sans-serif" font-size="13" lengthAdjust="spacing" textLength="151" x="82" y="373.6201">Introduz o productionCode</text><polygon fill="#A80036" points="70,411.8281,60,415.8281,70,419.8281,66,415.8281" style="stroke:#A80036;stroke-width:1.0;"/><line style="stroke:#A80036;stroke-width:1.0;stroke-dasharray:2.0,2.0;" x1="64" x2="565" y1="415.8281" y2="415.8281"/><text fill="#000000" font-family="sans-serif" font-size="13" font-weight="bold" lengthAdjust="spacing" textLength="7" x="76" y="410.9717">8</text><text fill="#000000" font-family="sans-serif" font-size="13" lengthAdjust="spacing" textLength="181" x="87" y="410.9717">Informa o sucesso da operação</text><!--MD5=[d23e02098c8aa915fcb94ddcf904ef4d]
@startuml

autonumber
actor "Sales Clerk" as SC

activate SC
SC -> ":System" : Inicia o processo de registo de um produto
activate ":System"
":System" - -> SC : Informa as categorias existentes no sistema e \n pede para que escolha a associada ao produto
deactivate ":System"
SC -> ":System" : Seleciona a Categoria desejada
activate ":System"
":System" - -> SC : Solicita os dados obrigatórios (uniqueInternalCode,shortDescription,\nextendedDescription, technicalDescription, barcode, priceWithoutTaxes,\npriceWithTaxes, brandName, reference, weight, volume, photo, productLocation)
deactivate ":System"
SC -> ":System" : Introduz os dados solicitados
activate ":System"
alt Sales Clerk deseja associar o productionCode
":System" - -> SC : Solicita o productionCode
deactivate ":System"
SC -> ":System" : Introduz o productionCode
activate ":System"
end
":System" - -> SC : Informa o sucesso da operação
deactivate ":System"


deactivate SC



@enduml

PlantUML version 1.2022.1(Tue Feb 01 18:19:58 GMT 2022)
(GPL source distribution)
Java Runtime: OpenJDK Runtime Environment
JVM: Dynamic Code Evolution 64-Bit Server VM
Default Encoding: Cp1252
Language: pt
Country: PT
--></g></svg>