<?xml version="1.0" encoding="UTF-8" standalone="no"?><svg xmlns="http://www.w3.org/2000/svg" xmlns:xlink="http://www.w3.org/1999/xlink" contentScriptType="application/ecmascript" contentStyleType="text/css" height="740.4px" preserveAspectRatio="none" style="width:649px;height:740px;background:#FFFFFF;" version="1.1" viewBox="0 0 649 740" width="649.2px" zoomAndPan="magnify"><defs><filter height="300%" id="ffk2t4ugug2jl" width="300%" x="-1" y="-1"><feGaussianBlur result="blurOut" stdDeviation="1.2"/><feColorMatrix in="blurOut" result="blurOut2" type="matrix" values="0 0 0 0 0 0 0 0 0 0 0 0 0 0 0 0 0 0 .4 0"/><feOffset dx="2.4" dy="2.4" in="blurOut2" result="blurOut3"/><feBlend in="SourceGraphic" in2="blurOut3" mode="normal"/></filter></defs><g><!--MD5=[71f2b1d24bae020f1e12035495ebc9c0]
entity ShoppingCarRepository--><path d="M63.9,531.6 C63.9,525.6 115.2,525.6 115.2,525.6 C115.2,525.6 166.5,525.6 166.5,531.6 L166.5,547.5656 C166.5,553.5656 115.2,553.5656 115.2,553.5656 C115.2,553.5656 63.9,553.5656 63.9,547.5656 L63.9,531.6 " fill="#FFFFFF" filter="url(#ffk2t4ugug2jl)" style="stroke:#000000;stroke-width:0.8999999999999999;"/><path d="M63.9,531.6 C63.9,537.6 115.2,537.6 115.2,537.6 C115.2,537.6 166.5,537.6 166.5,531.6 " fill="none" style="stroke:#000000;stroke-width:0.8999999999999999;"/><text fill="#000000" font-family="sans-serif" font-size="8.4" lengthAdjust="spacing" textLength="90.6" x="69.9" y="548.7199">ShoppingCarRepository</text><!--MD5=[dfccfb5894388a46eaa5d679d3ea0882]
entity ClientRepository--><path d="M291,531.6 C291,525.6 328.2,525.6 328.2,525.6 C328.2,525.6 365.4,525.6 365.4,531.6 L365.4,547.5656 C365.4,553.5656 328.2,553.5656 328.2,553.5656 C328.2,553.5656 291,553.5656 291,547.5656 L291,531.6 " fill="#FFFFFF" filter="url(#ffk2t4ugug2jl)" style="stroke:#000000;stroke-width:0.8999999999999999;"/><path d="M291,531.6 C291,537.6 328.2,537.6 328.2,537.6 C328.2,537.6 365.4,537.6 365.4,531.6 " fill="none" style="stroke:#000000;stroke-width:0.8999999999999999;"/><text fill="#000000" font-family="sans-serif" font-size="8.4" lengthAdjust="spacing" textLength="62.4" x="297" y="548.7199">ClientRepository</text><!--MD5=[f4ecc8f4bd9544a4e59fa7ea999fa228]
entity ProductRepository--><path d="M187.5,531.6 C187.5,525.6 228.6,525.6 228.6,525.6 C228.6,525.6 269.7,525.6 269.7,531.6 L269.7,547.5656 C269.7,553.5656 228.6,553.5656 228.6,553.5656 C228.6,553.5656 187.5,553.5656 187.5,547.5656 L187.5,531.6 " fill="#FFFFFF" filter="url(#ffk2t4ugug2jl)" style="stroke:#000000;stroke-width:0.8999999999999999;"/><path d="M187.5,531.6 C187.5,537.6 228.6,537.6 228.6,537.6 C228.6,537.6 269.7,537.6 269.7,531.6 " fill="none" style="stroke:#000000;stroke-width:0.8999999999999999;"/><text fill="#000000" font-family="sans-serif" font-size="8.4" lengthAdjust="spacing" textLength="70.2" x="193.5" y="548.7199">ProductRepository</text><!--MD5=[4979a03d93568960d191c05be073bcd7]
class AddProductToShoppingCarUI--><rect codeLine="5" fill="#FEFECE" filter="url(#ffk2t4ugug2jl)" height="28.8" id="AddProductToShoppingCarUI" style="stroke:#A80036;stroke-width:0.8999999999999999;" width="116.4" x="433.8" y="4.2"/><ellipse cx="442.8" cy="13.8" fill="#ADD1B2" rx="6.6" ry="6.6" style="stroke:#A80036;stroke-width:0.6;"/><path d="M444,11.7 Q444.1219,11.4 444.2625,11.25 Q444.4031,11.1 444.5625,11.1 Q444.8438,11.1 445.0219,11.2687 Q445.2,11.4375 445.2,11.8312 L445.2,12.7687 Q445.2,13.1625 445.0313,13.3312 Q444.8625,13.5 444.6,13.5 Q444.3656,13.5 444.2156,13.3969 Q444.0656,13.2938 444,13.0219 Q443.9719,12.8344 443.8688,12.7313 Q443.6813,12.5344 443.3438,12.4219 Q443.0062,12.3 442.6688,12.3 Q442.2469,12.3 441.8906,12.4688 Q441.5438,12.6375 441.2719,13.0125 Q441,13.3875 441,13.9031 L441,14.4562 Q441,15.075 441.5062,15.4875 Q442.0125,15.9 442.9125,15.9 Q443.4469,15.9 443.8219,15.7781 Q444.0375,15.7125 444.2813,15.4969 Q444.4406,15.375 444.525,15.3375 Q444.6094,15.3 444.7125,15.3 Q444.9094,15.3 445.05,15.4594 Q445.2,15.6094 445.2,15.825 Q445.2,16.0313 444.9938,16.275 Q444.6937,16.6312 444.2156,16.8281 Q443.5875,17.1 442.8187,17.1 Q441.9188,17.1 441.1969,16.7438 Q440.6156,16.4625 440.2031,15.8531 Q439.8,15.2437 439.8,14.5219 L439.8,13.8656 Q439.8,13.1156 440.1563,12.4594 Q440.5219,11.8031 441.15,11.4562 Q441.7875,11.1 442.5,11.1 Q442.9313,11.1 443.3063,11.25 Q443.6813,11.4 444,11.7 Z " fill="#000000"/><text fill="#000000" font-family="sans-serif" font-size="7.2" lengthAdjust="spacing" textLength="97.2" x="451.2" y="16.7461">AddProductToShoppingCarUI</text><line style="stroke:#A80036;stroke-width:0.8999999999999999;" x1="434.4" x2="549.6" y1="23.4" y2="23.4"/><line style="stroke:#A80036;stroke-width:0.8999999999999999;" x1="434.4" x2="549.6" y1="28.2" y2="28.2"/><!--MD5=[7672d22f7407a31ffb49279bc227017e]
class AddProductToShoppingCarController--><rect codeLine="35" fill="#FEFECE" filter="url(#ffk2t4ugug2jl)" height="53.7047" id="AddProductToShoppingCarController" style="stroke:#A80036;stroke-width:0.8999999999999999;" width="141.6" x="421.2" y="69.6"/><ellipse cx="430.2" cy="79.2" fill="#ADD1B2" rx="6.6" ry="6.6" style="stroke:#A80036;stroke-width:0.6;"/><path d="M431.4,77.1 Q431.5219,76.8 431.6625,76.65 Q431.8031,76.5 431.9625,76.5 Q432.2438,76.5 432.4219,76.6688 Q432.6,76.8375 432.6,77.2313 L432.6,78.1688 Q432.6,78.5625 432.4313,78.7313 Q432.2625,78.9 432,78.9 Q431.7656,78.9 431.6156,78.7969 Q431.4656,78.6938 431.4,78.4219 Q431.3719,78.2344 431.2688,78.1313 Q431.0813,77.9344 430.7438,77.8219 Q430.4063,77.7 430.0687,77.7 Q429.6469,77.7 429.2906,77.8687 Q428.9437,78.0375 428.6719,78.4125 Q428.4,78.7875 428.4,79.3031 L428.4,79.8563 Q428.4,80.475 428.9063,80.8875 Q429.4125,81.3 430.3125,81.3 Q430.8469,81.3 431.2219,81.1781 Q431.4375,81.1125 431.6813,80.8969 Q431.8406,80.775 431.925,80.7375 Q432.0094,80.7 432.1125,80.7 Q432.3094,80.7 432.45,80.8594 Q432.6,81.0094 432.6,81.225 Q432.6,81.4312 432.3938,81.675 Q432.0938,82.0313 431.6156,82.2281 Q430.9875,82.5 430.2188,82.5 Q429.3187,82.5 428.5969,82.1438 Q428.0156,81.8625 427.6031,81.2531 Q427.2,80.6438 427.2,79.9219 L427.2,79.2656 Q427.2,78.5156 427.5563,77.8594 Q427.9219,77.2031 428.55,76.8563 Q429.1875,76.5 429.9,76.5 Q430.3313,76.5 430.7063,76.65 Q431.0813,76.8 431.4,77.1 Z " fill="#000000"/><text fill="#000000" font-family="sans-serif" font-size="7.2" lengthAdjust="spacing" textLength="122.4" x="438.6" y="82.1461">AddProductToShoppingCarController</text><line style="stroke:#A80036;stroke-width:0.8999999999999999;" x1="421.8" x2="562.2" y1="88.8" y2="88.8"/><line style="stroke:#A80036;stroke-width:0.8999999999999999;" x1="421.8" x2="562.2" y1="93.6" y2="93.6"/><ellipse cx="427.8" cy="100.2" fill="#84BE84" rx="1.8" ry="1.8" style="stroke:#038048;stroke-width:0.6;"/><text fill="#000000" font-family="sans-serif" font-size="6.6" lengthAdjust="spacing" textLength="36.6" x="433.2" y="102.8514">allProducts()</text><ellipse cx="427.8" cy="108.5016" fill="#84BE84" rx="1.8" ry="1.8" style="stroke:#038048;stroke-width:0.6;"/><text fill="#000000" font-family="sans-serif" font-size="6.6" lengthAdjust="spacing" textLength="79.2" x="433.2" y="111.1529">findByUniqueInternalCode()</text><ellipse cx="427.8" cy="116.8031" fill="#84BE84" rx="1.8" ry="1.8" style="stroke:#038048;stroke-width:0.6;"/><text fill="#000000" font-family="sans-serif" font-size="6.6" lengthAdjust="spacing" textLength="76.8" x="433.2" y="119.4545">addProductShoppingCart()</text><!--MD5=[8781ae5f95a0d141d1fb88a8698066f0]
class AddProductToShoppingCarService--><rect codeLine="41" fill="#FEFECE" filter="url(#ffk2t4ugug2jl)" height="53.7047" id="AddProductToShoppingCarService" style="stroke:#A80036;stroke-width:0.8999999999999999;" width="133.2" x="425.4" y="160.2"/><ellipse cx="434.4" cy="169.8" fill="#ADD1B2" rx="6.6" ry="6.6" style="stroke:#A80036;stroke-width:0.6;"/><path d="M435.6,167.7 Q435.7219,167.4 435.8625,167.25 Q436.0031,167.1 436.1625,167.1 Q436.4437,167.1 436.6219,167.2687 Q436.8,167.4375 436.8,167.8312 L436.8,168.7687 Q436.8,169.1625 436.6312,169.3312 Q436.4625,169.5 436.2,169.5 Q435.9656,169.5 435.8156,169.3969 Q435.6656,169.2938 435.6,169.0219 Q435.5719,168.8344 435.4688,168.7313 Q435.2813,168.5344 434.9437,168.4219 Q434.6063,168.3 434.2688,168.3 Q433.8469,168.3 433.4906,168.4688 Q433.1438,168.6375 432.8719,169.0125 Q432.6,169.3875 432.6,169.9031 L432.6,170.4562 Q432.6,171.075 433.1063,171.4875 Q433.6125,171.9 434.5125,171.9 Q435.0469,171.9 435.4219,171.7781 Q435.6375,171.7125 435.8812,171.4969 Q436.0406,171.375 436.125,171.3375 Q436.2094,171.3 436.3125,171.3 Q436.5094,171.3 436.65,171.4594 Q436.8,171.6094 436.8,171.825 Q436.8,172.0313 436.5938,172.275 Q436.2938,172.6313 435.8156,172.8281 Q435.1875,173.1 434.4188,173.1 Q433.5188,173.1 432.7969,172.7438 Q432.2156,172.4625 431.8031,171.8531 Q431.4,171.2438 431.4,170.5219 L431.4,169.8656 Q431.4,169.1156 431.7562,168.4594 Q432.1219,167.8031 432.75,167.4562 Q433.3875,167.1 434.1,167.1 Q434.5313,167.1 434.9063,167.25 Q435.2813,167.4 435.6,167.7 Z " fill="#000000"/><text fill="#000000" font-family="sans-serif" font-size="7.2" lengthAdjust="spacing" textLength="114" x="442.8" y="172.7461">AddProductToShoppingCarService</text><line style="stroke:#A80036;stroke-width:0.8999999999999999;" x1="426" x2="558" y1="179.4" y2="179.4"/><line style="stroke:#A80036;stroke-width:0.8999999999999999;" x1="426" x2="558" y1="184.2" y2="184.2"/><ellipse cx="432" cy="190.8" fill="#84BE84" rx="1.8" ry="1.8" style="stroke:#038048;stroke-width:0.6;"/><text fill="#000000" font-family="sans-serif" font-size="6.6" lengthAdjust="spacing" textLength="36.6" x="437.4" y="193.4514">allProducts()</text><ellipse cx="432" cy="199.1016" fill="#84BE84" rx="1.8" ry="1.8" style="stroke:#038048;stroke-width:0.6;"/><text fill="#000000" font-family="sans-serif" font-size="6.6" lengthAdjust="spacing" textLength="79.2" x="437.4" y="201.7529">findByUniqueInternalCode()</text><ellipse cx="432" cy="207.4031" fill="#84BE84" rx="1.8" ry="1.8" style="stroke:#038048;stroke-width:0.6;"/><text fill="#000000" font-family="sans-serif" font-size="6.6" lengthAdjust="spacing" textLength="76.8" x="437.4" y="210.0545">addProductShoppingCart()</text><!--MD5=[456a0650b3ce0b39f10b06fd0428ee80]
class ShoppingCar--><rect codeLine="8" fill="#FEFECE" filter="url(#ffk2t4ugug2jl)" height="28.8" id="ShoppingCar" style="stroke:#A80036;stroke-width:0.8999999999999999;" width="63" x="322.5" y="627.6"/><ellipse cx="331.5" cy="637.2" fill="#ADD1B2" rx="6.6" ry="6.6" style="stroke:#A80036;stroke-width:0.6;"/><path d="M332.7,635.1 Q332.8219,634.8 332.9625,634.65 Q333.1031,634.5 333.2625,634.5 Q333.5438,634.5 333.7219,634.6687 Q333.9,634.8375 333.9,635.2312 L333.9,636.1687 Q333.9,636.5625 333.7313,636.7312 Q333.5625,636.9 333.3,636.9 Q333.0656,636.9 332.9156,636.7969 Q332.7656,636.6938 332.7,636.4219 Q332.6719,636.2344 332.5687,636.1313 Q332.3812,635.9344 332.0438,635.8219 Q331.7063,635.7 331.3688,635.7 Q330.9469,635.7 330.5906,635.8688 Q330.2438,636.0375 329.9719,636.4125 Q329.7,636.7875 329.7,637.3031 L329.7,637.8562 Q329.7,638.475 330.2063,638.8875 Q330.7125,639.3 331.6125,639.3 Q332.1469,639.3 332.5219,639.1781 Q332.7375,639.1125 332.9813,638.8969 Q333.1406,638.775 333.225,638.7375 Q333.3094,638.7 333.4125,638.7 Q333.6094,638.7 333.75,638.8594 Q333.9,639.0094 333.9,639.225 Q333.9,639.4313 333.6937,639.675 Q333.3938,640.0313 332.9156,640.2281 Q332.2875,640.5 331.5188,640.5 Q330.6188,640.5 329.8969,640.1438 Q329.3156,639.8625 328.9031,639.2531 Q328.5,638.6438 328.5,637.9219 L328.5,637.2656 Q328.5,636.5156 328.8563,635.8594 Q329.2219,635.2031 329.85,634.8562 Q330.4875,634.5 331.2,634.5 Q331.6312,634.5 332.0062,634.65 Q332.3812,634.8 332.7,635.1 Z " fill="#000000"/><text fill="#000000" font-family="sans-serif" font-size="7.2" lengthAdjust="spacing" textLength="43.8" x="339.9" y="640.1461">ShoppingCar</text><line style="stroke:#A80036;stroke-width:0.8999999999999999;" x1="323.1" x2="384.9" y1="646.8" y2="646.8"/><line style="stroke:#A80036;stroke-width:0.8999999999999999;" x1="323.1" x2="384.9" y1="651.6" y2="651.6"/><!--MD5=[13dd5a658d78c1efef6aab4718227448]
class ShopCarItem--><rect codeLine="9" fill="#FEFECE" filter="url(#ffk2t4ugug2jl)" height="28.8" id="ShopCarItem" style="stroke:#A80036;stroke-width:0.8999999999999999;" width="63" x="454.5" y="627.6"/><ellipse cx="463.5" cy="637.2" fill="#ADD1B2" rx="6.6" ry="6.6" style="stroke:#A80036;stroke-width:0.6;"/><path d="M464.7,635.1 Q464.8219,634.8 464.9625,634.65 Q465.1031,634.5 465.2625,634.5 Q465.5438,634.5 465.7219,634.6687 Q465.9,634.8375 465.9,635.2312 L465.9,636.1687 Q465.9,636.5625 465.7313,636.7312 Q465.5625,636.9 465.3,636.9 Q465.0656,636.9 464.9156,636.7969 Q464.7656,636.6938 464.7,636.4219 Q464.6719,636.2344 464.5687,636.1313 Q464.3812,635.9344 464.0438,635.8219 Q463.7062,635.7 463.3688,635.7 Q462.9469,635.7 462.5906,635.8688 Q462.2438,636.0375 461.9719,636.4125 Q461.7,636.7875 461.7,637.3031 L461.7,637.8562 Q461.7,638.475 462.2062,638.8875 Q462.7125,639.3 463.6125,639.3 Q464.1469,639.3 464.5219,639.1781 Q464.7375,639.1125 464.9813,638.8969 Q465.1406,638.775 465.225,638.7375 Q465.3094,638.7 465.4125,638.7 Q465.6094,638.7 465.75,638.8594 Q465.9,639.0094 465.9,639.225 Q465.9,639.4313 465.6937,639.675 Q465.3937,640.0313 464.9156,640.2281 Q464.2875,640.5 463.5187,640.5 Q462.6188,640.5 461.8969,640.1438 Q461.3156,639.8625 460.9031,639.2531 Q460.5,638.6438 460.5,637.9219 L460.5,637.2656 Q460.5,636.5156 460.8563,635.8594 Q461.2219,635.2031 461.85,634.8562 Q462.4875,634.5 463.2,634.5 Q463.6312,634.5 464.0062,634.65 Q464.3812,634.8 464.7,635.1 Z " fill="#000000"/><text fill="#000000" font-family="sans-serif" font-size="7.2" lengthAdjust="spacing" textLength="43.8" x="471.9" y="640.1461">ShopCarItem</text><line style="stroke:#A80036;stroke-width:0.8999999999999999;" x1="455.1" x2="516.9" y1="646.8" y2="646.8"/><line style="stroke:#A80036;stroke-width:0.8999999999999999;" x1="455.1" x2="516.9" y1="651.6" y2="651.6"/><!--MD5=[72136138052d025cffdce3c22fbd185f]
class Product--><rect codeLine="10" fill="#FEFECE" filter="url(#ffk2t4ugug2jl)" height="28.8" id="Product" style="stroke:#A80036;stroke-width:0.8999999999999999;" width="44.4" x="495.6" y="703.2"/><ellipse cx="504.6" cy="712.8" fill="#ADD1B2" rx="6.6" ry="6.6" style="stroke:#A80036;stroke-width:0.6;"/><path d="M505.8,710.7 Q505.9219,710.4 506.0625,710.25 Q506.2031,710.1 506.3625,710.1 Q506.6437,710.1 506.8219,710.2688 Q507,710.4375 507,710.8313 L507,711.7688 Q507,712.1625 506.8312,712.3313 Q506.6625,712.5 506.4,712.5 Q506.1656,712.5 506.0156,712.3969 Q505.8656,712.2937 505.8,712.0219 Q505.7719,711.8344 505.6688,711.7312 Q505.4813,711.5344 505.1437,711.4219 Q504.8063,711.3 504.4688,711.3 Q504.0469,711.3 503.6906,711.4688 Q503.3438,711.6375 503.0719,712.0125 Q502.8,712.3875 502.8,712.9031 L502.8,713.4563 Q502.8,714.075 503.3063,714.4875 Q503.8125,714.9 504.7125,714.9 Q505.2469,714.9 505.6219,714.7781 Q505.8375,714.7125 506.0812,714.4969 Q506.2406,714.375 506.325,714.3375 Q506.4094,714.3 506.5125,714.3 Q506.7094,714.3 506.85,714.4594 Q507,714.6094 507,714.825 Q507,715.0313 506.7938,715.275 Q506.4938,715.6313 506.0156,715.8281 Q505.3875,716.1 504.6188,716.1 Q503.7188,716.1 502.9969,715.7438 Q502.4156,715.4625 502.0031,714.8531 Q501.6,714.2438 501.6,713.5219 L501.6,712.8656 Q501.6,712.1156 501.9562,711.4594 Q502.3219,710.8031 502.95,710.4563 Q503.5875,710.1 504.3,710.1 Q504.7313,710.1 505.1063,710.25 Q505.4813,710.4 505.8,710.7 Z " fill="#000000"/><text fill="#000000" font-family="sans-serif" font-size="7.2" lengthAdjust="spacing" textLength="25.2" x="513" y="715.7461">Product</text><line style="stroke:#A80036;stroke-width:0.8999999999999999;" x1="496.2" x2="539.4" y1="722.4" y2="722.4"/><line style="stroke:#A80036;stroke-width:0.8999999999999999;" x1="496.2" x2="539.4" y1="727.2" y2="727.2"/><!--MD5=[b49a69a5e66983f12e893ec4fc490f6e]
class ProductDTO--><rect codeLine="11" fill="#FEFECE" filter="url(#ffk2t4ugug2jl)" height="28.8" id="ProductDTO" style="stroke:#A80036;stroke-width:0.8999999999999999;" width="59.4" x="581.7" y="324.6"/><ellipse cx="590.7" cy="334.2" fill="#ADD1B2" rx="6.6" ry="6.6" style="stroke:#A80036;stroke-width:0.6;"/><path d="M591.9,332.1 Q592.0219,331.8 592.1625,331.65 Q592.3031,331.5 592.4625,331.5 Q592.7438,331.5 592.9219,331.6688 Q593.1,331.8375 593.1,332.2313 L593.1,333.1688 Q593.1,333.5625 592.9313,333.7313 Q592.7625,333.9 592.5,333.9 Q592.2656,333.9 592.1156,333.7969 Q591.9656,333.6937 591.9,333.4219 Q591.8719,333.2344 591.7688,333.1312 Q591.5813,332.9344 591.2438,332.8219 Q590.9063,332.7 590.5688,332.7 Q590.1469,332.7 589.7906,332.8688 Q589.4438,333.0375 589.1719,333.4125 Q588.9,333.7875 588.9,334.3031 L588.9,334.8563 Q588.9,335.475 589.4063,335.8875 Q589.9125,336.3 590.8125,336.3 Q591.3469,336.3 591.7219,336.1781 Q591.9375,336.1125 592.1813,335.8969 Q592.3406,335.775 592.425,335.7375 Q592.5094,335.7 592.6125,335.7 Q592.8094,335.7 592.95,335.8594 Q593.1,336.0094 593.1,336.225 Q593.1,336.4313 592.8938,336.675 Q592.5938,337.0313 592.1156,337.2281 Q591.4875,337.5 590.7188,337.5 Q589.8188,337.5 589.0969,337.1438 Q588.5156,336.8625 588.1031,336.2531 Q587.7,335.6438 587.7,334.9219 L587.7,334.2656 Q587.7,333.5156 588.0563,332.8594 Q588.4219,332.2031 589.05,331.8563 Q589.6875,331.5 590.4,331.5 Q590.8313,331.5 591.2063,331.65 Q591.5813,331.8 591.9,332.1 Z " fill="#000000"/><text fill="#000000" font-family="sans-serif" font-size="7.2" lengthAdjust="spacing" textLength="40.2" x="599.1" y="337.1461">ProductDTO</text><line style="stroke:#A80036;stroke-width:0.8999999999999999;" x1="582.3" x2="640.5" y1="343.8" y2="343.8"/><line style="stroke:#A80036;stroke-width:0.8999999999999999;" x1="582.3" x2="640.5" y1="348.6" y2="348.6"/><!--MD5=[1f38f64b5f7435f2bb59658c4940dc36]
class ListProductDTOService--><rect codeLine="16" fill="#FEFECE" filter="url(#ffk2t4ugug2jl)" height="37.1016" id="ListProductDTOService" style="stroke:#A80036;stroke-width:0.8999999999999999;" width="95.4" x="245.1" y="379.8"/><ellipse cx="254.1" cy="389.4" fill="#ADD1B2" rx="6.6" ry="6.6" style="stroke:#A80036;stroke-width:0.6;"/><path d="M255.3,387.3 Q255.4219,387 255.5625,386.85 Q255.7031,386.7 255.8625,386.7 Q256.1438,386.7 256.3219,386.8688 Q256.5,387.0375 256.5,387.4313 L256.5,388.3688 Q256.5,388.7625 256.3313,388.9313 Q256.1625,389.1 255.9,389.1 Q255.6656,389.1 255.5156,388.9969 Q255.3656,388.8938 255.3,388.6219 Q255.2719,388.4344 255.1688,388.3313 Q254.9813,388.1344 254.6437,388.0219 Q254.3062,387.9 253.9688,387.9 Q253.5469,387.9 253.1906,388.0687 Q252.8438,388.2375 252.5719,388.6125 Q252.3,388.9875 252.3,389.5031 L252.3,390.0563 Q252.3,390.675 252.8062,391.0875 Q253.3125,391.5 254.2125,391.5 Q254.7469,391.5 255.1219,391.3781 Q255.3375,391.3125 255.5812,391.0969 Q255.7406,390.975 255.825,390.9375 Q255.9094,390.9 256.0125,390.9 Q256.2094,390.9 256.35,391.0594 Q256.5,391.2094 256.5,391.425 Q256.5,391.6312 256.2938,391.875 Q255.9937,392.2313 255.5156,392.4281 Q254.8875,392.7 254.1187,392.7 Q253.2188,392.7 252.4969,392.3438 Q251.9156,392.0625 251.5031,391.4531 Q251.1,390.8438 251.1,390.1219 L251.1,389.4656 Q251.1,388.7156 251.4562,388.0594 Q251.8219,387.4031 252.45,387.0563 Q253.0875,386.7 253.8,386.7 Q254.2313,386.7 254.6063,386.85 Q254.9813,387 255.3,387.3 Z " fill="#000000"/><text fill="#000000" font-family="sans-serif" font-size="7.2" lengthAdjust="spacing" textLength="76.2" x="262.5" y="392.3461">ListProductDTOService</text><line style="stroke:#A80036;stroke-width:0.8999999999999999;" x1="245.7" x2="339.9" y1="399" y2="399"/><line style="stroke:#A80036;stroke-width:0.8999999999999999;" x1="245.7" x2="339.9" y1="403.8" y2="403.8"/><ellipse cx="251.7" cy="410.4" fill="#84BE84" rx="1.8" ry="1.8" style="stroke:#038048;stroke-width:0.6;"/><text fill="#000000" font-family="sans-serif" font-size="6.6" lengthAdjust="spacing" textLength="36.6" x="257.1" y="413.0514">allProducts()</text><!--MD5=[fe4f3f83a51d21fc9306dfc278fe5ea6]
class TcpOrderSrv--><rect codeLine="13" fill="#FEFECE" filter="url(#ffk2t4ugug2jl)" height="28.8" id="TcpOrderSrv" style="stroke:#A80036;stroke-width:0.8999999999999999;" width="60" x="346.2" y="250.8"/><ellipse cx="355.2" cy="260.4" fill="#ADD1B2" rx="6.6" ry="6.6" style="stroke:#A80036;stroke-width:0.6;"/><path d="M356.4,258.3 Q356.5219,258 356.6625,257.85 Q356.8031,257.7 356.9625,257.7 Q357.2438,257.7 357.4219,257.8688 Q357.6,258.0375 357.6,258.4313 L357.6,259.3688 Q357.6,259.7625 357.4313,259.9313 Q357.2625,260.1 357,260.1 Q356.7656,260.1 356.6156,259.9969 Q356.4656,259.8938 356.4,259.6219 Q356.3719,259.4344 356.2688,259.3313 Q356.0813,259.1344 355.7438,259.0219 Q355.4063,258.9 355.0687,258.9 Q354.6469,258.9 354.2906,259.0687 Q353.9437,259.2375 353.6719,259.6125 Q353.4,259.9875 353.4,260.5031 L353.4,261.0563 Q353.4,261.675 353.9063,262.0875 Q354.4125,262.5 355.3125,262.5 Q355.8469,262.5 356.2219,262.3781 Q356.4375,262.3125 356.6813,262.0969 Q356.8406,261.975 356.925,261.9375 Q357.0094,261.9 357.1125,261.9 Q357.3094,261.9 357.45,262.0594 Q357.6,262.2094 357.6,262.425 Q357.6,262.6312 357.3938,262.875 Q357.0938,263.2313 356.6156,263.4281 Q355.9875,263.7 355.2188,263.7 Q354.3187,263.7 353.5969,263.3438 Q353.0156,263.0625 352.6031,262.4531 Q352.2,261.8438 352.2,261.1219 L352.2,260.4656 Q352.2,259.7156 352.5563,259.0594 Q352.9219,258.4031 353.55,258.0563 Q354.1875,257.7 354.9,257.7 Q355.3313,257.7 355.7063,257.85 Q356.0813,258 356.4,258.3 Z " fill="#000000"/><text fill="#000000" font-family="sans-serif" font-size="7.2" lengthAdjust="spacing" textLength="40.8" x="363.6" y="263.3461">TcpOrderSrv</text><line style="stroke:#A80036;stroke-width:0.8999999999999999;" x1="346.8" x2="405.6" y1="270" y2="270"/><line style="stroke:#A80036;stroke-width:0.8999999999999999;" x1="346.8" x2="405.6" y1="274.8" y2="274.8"/><!--MD5=[e8c189551b7885b999ad7cefb30fc2a3]
class PersistenceContext--><rect codeLine="20" fill="#FEFECE" filter="url(#ffk2t4ugug2jl)" height="37.1016" id="PersistenceContext" style="stroke:#A80036;stroke-width:0.8999999999999999;" width="83.4" x="176.7" y="320.4"/><ellipse cx="185.7" cy="330" fill="#ADD1B2" rx="6.6" ry="6.6" style="stroke:#A80036;stroke-width:0.6;"/><path d="M186.9,327.9 Q187.0219,327.6 187.1625,327.45 Q187.3031,327.3 187.4625,327.3 Q187.7438,327.3 187.9219,327.4688 Q188.1,327.6375 188.1,328.0313 L188.1,328.9688 Q188.1,329.3625 187.9313,329.5313 Q187.7625,329.7 187.5,329.7 Q187.2656,329.7 187.1156,329.5969 Q186.9656,329.4938 186.9,329.2219 Q186.8719,329.0344 186.7687,328.9313 Q186.5812,328.7344 186.2438,328.6219 Q185.9063,328.5 185.5688,328.5 Q185.1469,328.5 184.7906,328.6688 Q184.4438,328.8375 184.1719,329.2125 Q183.9,329.5875 183.9,330.1031 L183.9,330.6563 Q183.9,331.275 184.4063,331.6875 Q184.9125,332.1 185.8125,332.1 Q186.3469,332.1 186.7219,331.9781 Q186.9375,331.9125 187.1813,331.6969 Q187.3406,331.575 187.425,331.5375 Q187.5094,331.5 187.6125,331.5 Q187.8094,331.5 187.95,331.6594 Q188.1,331.8094 188.1,332.025 Q188.1,332.2313 187.8937,332.475 Q187.5938,332.8313 187.1156,333.0281 Q186.4875,333.3 185.7188,333.3 Q184.8188,333.3 184.0969,332.9437 Q183.5156,332.6625 183.1031,332.0531 Q182.7,331.4437 182.7,330.7219 L182.7,330.0656 Q182.7,329.3156 183.0563,328.6594 Q183.4219,328.0031 184.05,327.6563 Q184.6875,327.3 185.4,327.3 Q185.8312,327.3 186.2062,327.45 Q186.5812,327.6 186.9,327.9 Z " fill="#000000"/><text fill="#000000" font-family="sans-serif" font-size="7.2" lengthAdjust="spacing" textLength="64.2" x="194.1" y="332.9461">PersistenceContext</text><line style="stroke:#A80036;stroke-width:0.8999999999999999;" x1="177.3" x2="259.5" y1="339.6" y2="339.6"/><line style="stroke:#A80036;stroke-width:0.8999999999999999;" x1="177.3" x2="259.5" y1="344.4" y2="344.4"/><ellipse cx="183.3" cy="351" fill="#84BE84" rx="1.8" ry="1.8" style="stroke:#038048;stroke-width:0.6;"/><text fill="#000000" font-family="sans-serif" font-size="6.6" lengthAdjust="spacing" textLength="39" x="188.7" y="353.6514">repositories()</text><!--MD5=[ed6624c6556d5e7b1bd23032162d20b7]
class Client--><rect codeLine="25" fill="#FEFECE" filter="url(#ffk2t4ugug2jl)" height="37.1016" id="Client" style="stroke:#A80036;stroke-width:0.8999999999999999;" width="39" x="21.9" y="320.4"/><ellipse cx="31.17" cy="330" fill="#ADD1B2" rx="6.6" ry="6.6" style="stroke:#A80036;stroke-width:0.6;"/><path d="M32.37,327.9 Q32.4919,327.6 32.6325,327.45 Q32.7731,327.3 32.9325,327.3 Q33.2138,327.3 33.3919,327.4688 Q33.57,327.6375 33.57,328.0313 L33.57,328.9688 Q33.57,329.3625 33.4013,329.5313 Q33.2325,329.7 32.97,329.7 Q32.7356,329.7 32.5856,329.5969 Q32.4356,329.4938 32.37,329.2219 Q32.3419,329.0344 32.2388,328.9313 Q32.0513,328.7344 31.7138,328.6219 Q31.3763,328.5 31.0388,328.5 Q30.6169,328.5 30.2606,328.6688 Q29.9138,328.8375 29.6419,329.2125 Q29.37,329.5875 29.37,330.1031 L29.37,330.6563 Q29.37,331.275 29.8763,331.6875 Q30.3825,332.1 31.2825,332.1 Q31.8169,332.1 32.1919,331.9781 Q32.4075,331.9125 32.6513,331.6969 Q32.8106,331.575 32.895,331.5375 Q32.9794,331.5 33.0825,331.5 Q33.2794,331.5 33.42,331.6594 Q33.57,331.8094 33.57,332.025 Q33.57,332.2313 33.3638,332.475 Q33.0638,332.8313 32.5856,333.0281 Q31.9575,333.3 31.1888,333.3 Q30.2888,333.3 29.5669,332.9437 Q28.9856,332.6625 28.5731,332.0531 Q28.17,331.4437 28.17,330.7219 L28.17,330.0656 Q28.17,329.3156 28.5263,328.6594 Q28.8919,328.0031 29.52,327.6563 Q30.1575,327.3 30.87,327.3 Q31.3013,327.3 31.6763,327.45 Q32.0513,327.6 32.37,327.9 Z " fill="#000000"/><text fill="#000000" font-family="sans-serif" font-size="7.2" lengthAdjust="spacing" textLength="19.2" x="39.63" y="332.9461">Client</text><line style="stroke:#A80036;stroke-width:0.8999999999999999;" x1="22.5" x2="60.3" y1="339.6" y2="339.6"/><line style="stroke:#A80036;stroke-width:0.8999999999999999;" x1="22.5" x2="60.3" y1="344.4" y2="344.4"/><ellipse cx="28.5" cy="351" fill="#84BE84" rx="1.8" ry="1.8" style="stroke:#038048;stroke-width:0.6;"/><text fill="#000000" font-family="sans-serif" font-size="6.6" lengthAdjust="spacing" textLength="23.4" x="33.9" y="353.6514">create()</text><!--MD5=[288bffab58163169a8d16c57b889bc0c]
class TransactionalContext--><rect codeLine="29" fill="#FEFECE" filter="url(#ffk2t4ugug2jl)" height="45.4031" id="TransactionalContext" style="stroke:#A80036;stroke-width:0.8999999999999999;" width="88.8" x="429" y="316.2"/><ellipse cx="438" cy="325.8" fill="#ADD1B2" rx="6.6" ry="6.6" style="stroke:#A80036;stroke-width:0.6;"/><path d="M439.2,323.7 Q439.3219,323.4 439.4625,323.25 Q439.6031,323.1 439.7625,323.1 Q440.0438,323.1 440.2219,323.2688 Q440.4,323.4375 440.4,323.8313 L440.4,324.7688 Q440.4,325.1625 440.2313,325.3313 Q440.0625,325.5 439.8,325.5 Q439.5656,325.5 439.4156,325.3969 Q439.2656,325.2938 439.2,325.0219 Q439.1719,324.8344 439.0687,324.7313 Q438.8812,324.5344 438.5438,324.4219 Q438.2063,324.3 437.8688,324.3 Q437.4469,324.3 437.0906,324.4688 Q436.7438,324.6375 436.4719,325.0125 Q436.2,325.3875 436.2,325.9031 L436.2,326.4563 Q436.2,327.075 436.7063,327.4875 Q437.2125,327.9 438.1125,327.9 Q438.6469,327.9 439.0219,327.7781 Q439.2375,327.7125 439.4813,327.4969 Q439.6406,327.375 439.725,327.3375 Q439.8094,327.3 439.9125,327.3 Q440.1094,327.3 440.25,327.4594 Q440.4,327.6094 440.4,327.825 Q440.4,328.0313 440.1937,328.275 Q439.8938,328.6312 439.4156,328.8281 Q438.7875,329.1 438.0188,329.1 Q437.1188,329.1 436.3969,328.7438 Q435.8156,328.4625 435.4031,327.8531 Q435,327.2438 435,326.5219 L435,325.8656 Q435,325.1156 435.3563,324.4594 Q435.7219,323.8031 436.35,323.4563 Q436.9875,323.1 437.7,323.1 Q438.1312,323.1 438.5062,323.25 Q438.8812,323.4 439.2,323.7 Z " fill="#000000"/><text fill="#000000" font-family="sans-serif" font-size="7.2" lengthAdjust="spacing" textLength="69.6" x="446.4" y="328.7461">TransactionalContext</text><line style="stroke:#A80036;stroke-width:0.8999999999999999;" x1="429.6" x2="517.2" y1="335.4" y2="335.4"/><line style="stroke:#A80036;stroke-width:0.8999999999999999;" x1="429.6" x2="517.2" y1="340.2" y2="340.2"/><ellipse cx="435.6" cy="346.8" fill="#84BE84" rx="1.8" ry="1.8" style="stroke:#038048;stroke-width:0.6;"/><text fill="#000000" font-family="sans-serif" font-size="6.6" lengthAdjust="spacing" textLength="54.6" x="441" y="349.4514">beginTransaction()</text><ellipse cx="435.6" cy="355.1016" fill="#84BE84" rx="1.8" ry="1.8" style="stroke:#038048;stroke-width:0.6;"/><text fill="#000000" font-family="sans-serif" font-size="6.6" lengthAdjust="spacing" textLength="24.6" x="441" y="357.7529">commit()</text><!--MD5=[48590afff58a68e2fcba47824d6f8a11]
class RepositoryFactory--><rect codeLine="59" fill="#FEFECE" filter="url(#ffk2t4ugug2jl)" height="53.7047" id="RepositoryFactory" style="stroke:#A80036;stroke-width:0.8999999999999999;" width="111" x="157.5" y="435"/><ellipse cx="181.35" cy="444.6" fill="#ADD1B2" rx="6.6" ry="6.6" style="stroke:#A80036;stroke-width:0.6;"/><path d="M182.55,442.5 Q182.6719,442.2 182.8125,442.05 Q182.9531,441.9 183.1125,441.9 Q183.3937,441.9 183.5719,442.0687 Q183.75,442.2375 183.75,442.6312 L183.75,443.5687 Q183.75,443.9625 183.5812,444.1312 Q183.4125,444.3 183.15,444.3 Q182.9156,444.3 182.7656,444.1969 Q182.6156,444.0938 182.55,443.8219 Q182.5219,443.6344 182.4188,443.5313 Q182.2313,443.3344 181.8937,443.2219 Q181.5563,443.1 181.2188,443.1 Q180.7969,443.1 180.4406,443.2688 Q180.0938,443.4375 179.8219,443.8125 Q179.55,444.1875 179.55,444.7031 L179.55,445.2562 Q179.55,445.875 180.0563,446.2875 Q180.5625,446.7 181.4625,446.7 Q181.9969,446.7 182.3719,446.5781 Q182.5875,446.5125 182.8312,446.2969 Q182.9906,446.175 183.075,446.1375 Q183.1594,446.1 183.2625,446.1 Q183.4594,446.1 183.6,446.2594 Q183.75,446.4094 183.75,446.625 Q183.75,446.8313 183.5438,447.075 Q183.2438,447.4313 182.7656,447.6281 Q182.1375,447.9 181.3688,447.9 Q180.4688,447.9 179.7469,447.5438 Q179.1656,447.2625 178.7531,446.6531 Q178.35,446.0438 178.35,445.3219 L178.35,444.6656 Q178.35,443.9156 178.7062,443.2594 Q179.0719,442.6031 179.7,442.2562 Q180.3375,441.9 181.05,441.9 Q181.4813,441.9 181.8563,442.05 Q182.2313,442.2 182.55,442.5 Z " fill="#000000"/><text fill="#000000" font-family="sans-serif" font-size="7.2" lengthAdjust="spacing" textLength="58.8" x="193.05" y="447.5461">RepositoryFactory</text><line style="stroke:#A80036;stroke-width:0.8999999999999999;" x1="158.1" x2="267.9" y1="454.2" y2="454.2"/><line style="stroke:#A80036;stroke-width:0.8999999999999999;" x1="158.1" x2="267.9" y1="459" y2="459"/><ellipse cx="164.1" cy="465.6" fill="#84BE84" rx="1.8" ry="1.8" style="stroke:#038048;stroke-width:0.6;"/><text fill="#000000" font-family="sans-serif" font-size="6.6" lengthAdjust="spacing" textLength="23.4" x="169.5" y="468.2514">create()</text><ellipse cx="164.1" cy="473.9016" fill="#84BE84" rx="1.8" ry="1.8" style="stroke:#038048;stroke-width:0.6;"/><text fill="#000000" font-family="sans-serif" font-size="6.6" lengthAdjust="spacing" textLength="79.2" x="169.5" y="476.5529">newTransactionalContext()</text><ellipse cx="164.1" cy="482.2031" fill="#84BE84" rx="1.8" ry="1.8" style="stroke:#038048;stroke-width:0.6;"/><text fill="#000000" font-family="sans-serif" font-size="6.6" lengthAdjust="spacing" textLength="95.4" x="169.5" y="484.8545">create(TransactionalContext ctx)</text><!--MD5=[9e9c0526bbbc02339ec26cfc69a8a38b]
link AddProductToShoppingCarUI to AddProductToShoppingCarController--><path codeLine="65" d="M492,33.108 C492,42.354 492,54.852 492,66.27 " fill="none" id="AddProductToShoppingCarUI-to-AddProductToShoppingCarController" style="stroke:#A80036;stroke-width:0.6;"/><polygon fill="#A80036" points="492,69.456,494.4,64.056,492,66.456,489.6,64.056,492,69.456" style="stroke:#A80036;stroke-width:0.6;"/><!--MD5=[0d96ea0bf38a3be47dc54bce3c38866b]
link AddProductToShoppingCarController to AddProductToShoppingCarService--><path codeLine="66" d="M492,123.78 C492,134.184 492,146.16 492,156.846 " fill="none" id="AddProductToShoppingCarController-to-AddProductToShoppingCarService" style="stroke:#A80036;stroke-width:0.6;"/><polygon fill="#A80036" points="492,160.122,494.4,154.722,492,157.122,489.6,154.722,492,160.122" style="stroke:#A80036;stroke-width:0.6;"/><!--MD5=[eac5a4d169bc11c71a06ab5fce8b6e17]
link AddProductToShoppingCarService to TcpOrderSrv--><path codeLine="67" d="M452.148,214.23 C434.646,225.84 414.696,239.07 399.642,249.054 " fill="none" id="AddProductToShoppingCarService-to-TcpOrderSrv" style="stroke:#A80036;stroke-width:0.6;"/><polygon fill="#A80036" points="397.08,250.752,402.9083,249.7766,399.5827,249.0978,400.2615,245.7723,397.08,250.752" style="stroke:#A80036;stroke-width:0.6;"/><!--MD5=[1f76aafcdec0d818166442090775b5e6]
link AddProductToShoppingCarService to ProductDTO--><path codeLine="68" d="M513.804,214.206 C531.954,236.316 558.354,268.782 580.8,297.6 C587.01,305.568 593.76,314.538 599.34,322.038 " fill="none" id="AddProductToShoppingCarService-to-ProductDTO" style="stroke:#A80036;stroke-width:0.6;"/><polygon fill="#A80036" points="601.182,324.516,599.8983,318.7478,599.3971,322.1047,596.0402,321.6036,601.182,324.516" style="stroke:#A80036;stroke-width:0.6;"/><!--MD5=[71e1560c0428c3f9bffe2c6dc1e08479]
link TcpOrderSrv to ClientRepository--><path codeLine="69" d="M373.752,279.726 C365.676,325.71 339.888,472.566 331.134,522.384 " fill="none" id="TcpOrderSrv-to-ClientRepository" style="stroke:#A80036;stroke-width:0.6;"/><polygon fill="#A80036" points="330.582,525.522,333.8742,520.6147,331.0975,522.5666,329.1455,519.7899,330.582,525.522" style="stroke:#A80036;stroke-width:0.6;"/><!--MD5=[cb6891aca1a364ee1aa4d40485e6cd2f]
link TcpOrderSrv to ShoppingCarRepository--><path codeLine="70" d="M346.11,269.124 C294.252,275.466 191.184,290.946 166.2,316.2 C109.188,373.818 110.676,481.32 113.616,522.48 " fill="none" id="TcpOrderSrv-to-ShoppingCarRepository" style="stroke:#A80036;stroke-width:0.6;"/><polygon fill="#A80036" points="113.844,525.558,115.8362,519.9946,113.6211,522.5663,111.0495,520.3512,113.844,525.558" style="stroke:#A80036;stroke-width:0.6;"/><!--MD5=[6a6b35aedc3f6b735371d90ec0868d90]
link TcpOrderSrv to ProductDTO--><path codeLine="71" d="M406.2,265.836 C444.804,266.976 513.096,272.748 565.2,297.6 C577.488,303.462 588.972,313.572 597.414,322.26 " fill="none" id="TcpOrderSrv-to-ProductDTO" style="stroke:#A80036;stroke-width:0.6;"/><polygon fill="#A80036" points="599.496,324.438,597.4977,318.8768,597.4223,322.2701,594.0291,322.1947,599.496,324.438" style="stroke:#A80036;stroke-width:0.6;"/><!--MD5=[f1177d721b6e232b3b202f2ae3ab233d]
link TcpOrderSrv to Product--><path codeLine="72" d="M406.206,265.452 C455.838,266.622 549.6,276.96 549.6,338.4 C549.6,338.4 549.6,338.4 549.6,642.6 C549.6,663.756 538.59,685.776 529.53,700.314 " fill="none" id="TcpOrderSrv-to-Product" style="stroke:#A80036;stroke-width:0.6;"/><polygon fill="#A80036" points="527.862,702.942,532.7752,699.6586,529.4643,700.4057,528.7171,697.0949,527.862,702.942" style="stroke:#A80036;stroke-width:0.6;"/><!--MD5=[23d6416d2396c98b1f4f055c763c4ed7]
link TcpOrderSrv to Client--><path codeLine="73" d="M345.99,267.72 C285.348,271.848 150.882,282.426 107.4,297.6 C91.728,303.072 75.846,312.726 63.594,321.276 " fill="none" id="TcpOrderSrv-to-Client" style="stroke:#A80036;stroke-width:0.6;"/><polygon fill="#A80036" points="61.038,323.082,66.8333,321.927,63.4884,321.3513,64.0642,318.0064,61.038,323.082" style="stroke:#A80036;stroke-width:0.6;"/><!--MD5=[f4aebdb3a2263728cf379030e9fc2e44]
link TcpOrderSrv to ShoppingCar--><path codeLine="74" d="M382.728,279.648 C388.896,294.006 397.2,317.274 397.2,338.4 C397.2,338.4 397.2,338.4 397.2,591 C397.2,604.824 387.72,616.752 377.64,625.536 " fill="none" id="TcpOrderSrv-to-ShoppingCar" style="stroke:#A80036;stroke-width:0.6;"/><polygon fill="#A80036" points="375.348,627.474,381.0233,625.8275,377.6414,625.54,377.9289,622.1581,375.348,627.474" style="stroke:#A80036;stroke-width:0.6;"/><!--MD5=[bddcba308e8dde2cdcee60326482f982]
link TcpOrderSrv to ListProductDTOService--><path codeLine="75" d="M356.73,279.756 C350.52,284.868 343.974,291.03 339,297.6 C320.436,322.134 306.984,355.32 299.532,376.65 " fill="none" id="TcpOrderSrv-to-ListProductDTOService" style="stroke:#A80036;stroke-width:0.6;"/><polygon fill="#A80036" points="298.476,379.704,302.5036,375.3799,299.4529,376.8675,297.9653,373.8168,298.476,379.704" style="stroke:#A80036;stroke-width:0.6;"/><!--MD5=[38ac79cba98cfe7ead161e03508b2114]
link ListProductDTOService to ProductRepository--><path codeLine="77" d="M293.28,417.084 C293.064,436.008 290.64,466.104 279,489 C272.142,502.5 260.274,514.566 249.78,523.476 " fill="none" id="ListProductDTOService-to-ProductRepository" style="stroke:#A80036;stroke-width:0.6;"/><polygon fill="#A80036" points="247.428,525.444,253.1134,523.8328,249.7334,523.5243,250.0419,520.1442,247.428,525.444" style="stroke:#A80036;stroke-width:0.6;"/><!--MD5=[b2762c66afa416a41250d4f4f03e5f20]
link TcpOrderSrv to PersistenceContext--><path codeLine="79" d="M346.182,274.122 C327.612,279.738 303.522,287.892 283.2,297.6 C270.762,303.546 257.766,311.37 246.702,318.576 " fill="none" id="TcpOrderSrv-to-PersistenceContext" style="stroke:#A80036;stroke-width:0.6;"/><polygon fill="#A80036" points="243.936,320.388,249.7666,319.4265,246.4427,318.7398,247.1294,315.4159,243.936,320.388" style="stroke:#A80036;stroke-width:0.6;"/><!--MD5=[97a748f4144e4d4df82cafcc90eb3c6c]
link TcpOrderSrv to TransactionalContext--><path codeLine="80" d="M394.71,279.624 C407.784,289.392 425.64,302.73 441.042,314.232 " fill="none" id="TcpOrderSrv-to-TransactionalContext" style="stroke:#A80036;stroke-width:0.6;"/><polygon fill="#A80036" points="443.49,316.062,440.5894,310.9136,441.0828,314.2716,437.7248,314.765,443.49,316.062" style="stroke:#A80036;stroke-width:0.6;"/><!--MD5=[754b775031405e096442b27febffa290]
link PersistenceContext to RepositoryFactory--><path codeLine="82" d="M217.59,357.834 C216.726,377.394 215.334,408.762 214.308,431.856 " fill="none" id="PersistenceContext-to-RepositoryFactory" style="stroke:#A80036;stroke-width:0.6;"/><polygon fill="#A80036" points="214.176,434.91,216.8201,429.6252,214.313,431.9131,212.0251,429.406,214.176,434.91" style="stroke:#A80036;stroke-width:0.6;"/><!--MD5=[7e98ba641e2771e3efc9b333390cc0aa]
link RepositoryFactory to ClientRepository--><path codeLine="83" d="M252.804,489.036 C270.33,500.67 290.286,513.924 305.262,523.866 " fill="none" id="RepositoryFactory-to-ClientRepository" style="stroke:#A80036;stroke-width:0.6;"/><polygon fill="#A80036" points="307.812,525.558,304.6305,520.5783,305.3093,523.9038,301.9837,524.5826,307.812,525.558" style="stroke:#A80036;stroke-width:0.6;"/><!--MD5=[a107a52b6e2b3fb29ad79d2f6a7df605]
link RepositoryFactory to ProductRepository--><path codeLine="84" d="M218.412,489.144 C220.656,500.154 223.194,512.598 225.174,522.312 " fill="none" id="RepositoryFactory-to-ProductRepository" style="stroke:#A80036;stroke-width:0.6;"/><polygon fill="#A80036" points="225.828,525.492,227.0997,519.7212,225.2281,522.5526,222.3967,520.681,225.828,525.492" style="stroke:#A80036;stroke-width:0.6;"/><!--MD5=[7a686845e28fc4e9d28e5021d7ba1b30]
link RepositoryFactory to ShoppingCarRepository--><path codeLine="85" d="M179.07,489.144 C164.382,500.634 147.696,513.678 135.066,523.56 " fill="none" id="RepositoryFactory-to-ShoppingCarRepository" style="stroke:#A80036;stroke-width:0.6;"/><polygon fill="#A80036" points="132.594,525.492,138.3257,524.0539,134.9565,523.6431,135.3674,520.2739,132.594,525.492" style="stroke:#A80036;stroke-width:0.6;"/><!--MD5=[16f74e5cf05a0822841fd965e5758351]
link Client to ShoppingCar--><path codeLine="87" d="M32.058,357.63 C20.862,380.94 3.6,423.096 3.6,461.4 C3.6,461.4 3.6,461.4 3.6,591 C3.6,622.68 230.886,636.024 319.356,640.014 " fill="none" id="Client-to-ShoppingCar" style="stroke:#A80036;stroke-width:0.6;"/><polygon fill="#A80036" points="322.44,640.152,317.1552,637.5079,319.4431,640.015,316.936,642.3029,322.44,640.152" style="stroke:#A80036;stroke-width:0.6;"/><text fill="#000000" font-family="sans-serif" font-size="7.8" lengthAdjust="spacing" textLength="37.8" x="4.2" y="542.9971">associated</text><text fill="#000000" font-family="sans-serif" font-size="7.8" lengthAdjust="spacing" textLength="4.2" x="313.5066" y="637.729">1</text><!--MD5=[2f7397c50d5445573acc3035a15480c1]
link ShopCarItem to Product--><path codeLine="88" d="M483.372,656.556 C482.382,665.136 482.262,676.182 486,685.2 C488.412,691.026 492.468,696.342 496.896,700.89 " fill="none" id="ShopCarItem-to-Product" style="stroke:#A80036;stroke-width:0.6;"/><polygon fill="#A80036" points="499.086,703.062,496.9313,697.5595,496.9519,700.9536,493.5578,700.9741,499.086,703.062" style="stroke:#A80036;stroke-width:0.6;"/><text fill="#000000" font-family="sans-serif" font-size="7.8" lengthAdjust="spacing" textLength="46.8" x="486.6" y="683.0971">composed by</text><text fill="#000000" font-family="sans-serif" font-size="7.8" lengthAdjust="spacing" textLength="4.2" x="489.5524" y="696.6307">1</text><!--MD5=[5f5e5f69fbdfa98732b4273d5ccddffd]
link ShoppingCar to ShopCarItem--><path codeLine="89" d="M385.62,642 C405.384,642 430.854,642 451.194,642 " fill="none" id="ShoppingCar-to-ShopCarItem" style="stroke:#A80036;stroke-width:0.6;"/><polygon fill="#A80036" points="454.41,642,449.01,639.6,451.41,642,449.01,644.4,454.41,642" style="stroke:#A80036;stroke-width:0.6;"/><text fill="#000000" font-family="sans-serif" font-size="7.8" lengthAdjust="spacing" textLength="46.8" x="396.6" y="638.0971">composed by</text><text fill="#000000" font-family="sans-serif" font-size="7.8" lengthAdjust="spacing" textLength="12" x="437.5938" y="650.7256">1..*</text><!--MD5=[f0d2dd9d5b8321031fdd3fb545ea4a62]
@startuml
'https://plantuml.com/class-diagram



class AddProductToShoppingCarUI
class AddProductToShoppingCarController
class AddProductToShoppingCarService
class ShoppingCar
class ShopCarItem
class Product
class ProductDTO
class ListProductDTOService
class TcpOrderSrv


class ListProductDTOService {
+allProducts()
}

class PersistenceContext{
+repositories()
}


class Client{
+create()
}

class TransactionalContext{
+beginTransaction()
+commit()
}


class AddProductToShoppingCarController {
+allProducts()
+findByUniqueInternalCode()
+addProductShoppingCart()
}

class AddProductToShoppingCarService {
+allProducts()
+findByUniqueInternalCode()
+addProductShoppingCart()
}

database ShoppingCarRepository{
}


database ClientRepository{
}

database ProductRepository {
}



class RepositoryFactory{
+create()
+newTransactionalContext()
+create(TransactionalContext ctx)
}

AddProductToShoppingCarUI - -> AddProductToShoppingCarController
AddProductToShoppingCarController - -> AddProductToShoppingCarService
AddProductToShoppingCarService - -> TcpOrderSrv
AddProductToShoppingCarService - -> ProductDTO
TcpOrderSrv - -> ClientRepository
TcpOrderSrv - -> ShoppingCarRepository
TcpOrderSrv - -> ProductDTO
TcpOrderSrv - -> Product
TcpOrderSrv - -> Client
TcpOrderSrv -> ShoppingCar
TcpOrderSrv - -> ListProductDTOService

ListProductDTOService - -> ProductRepository

TcpOrderSrv - ->PersistenceContext
TcpOrderSrv - ->TransactionalContext

PersistenceContext - ->RepositoryFactory
RepositoryFactory - ->ClientRepository
RepositoryFactory - ->ProductRepository
RepositoryFactory - ->ShoppingCarRepository

Client - - - - -> "1" ShoppingCar : associated
ShopCarItem - -> "1" Product : composed by
ShoppingCar -> "1..*"  ShopCarItem : composed by

@enduml

@startuml



class AddProductToShoppingCarUI
class AddProductToShoppingCarController
class AddProductToShoppingCarService
class ShoppingCar
class ShopCarItem
class Product
class ProductDTO
class ListProductDTOService
class TcpOrderSrv


class ListProductDTOService {
+allProducts()
}

class PersistenceContext{
+repositories()
}


class Client{
+create()
}

class TransactionalContext{
+beginTransaction()
+commit()
}


class AddProductToShoppingCarController {
+allProducts()
+findByUniqueInternalCode()
+addProductShoppingCart()
}

class AddProductToShoppingCarService {
+allProducts()
+findByUniqueInternalCode()
+addProductShoppingCart()
}

database ShoppingCarRepository{
}


database ClientRepository{
}

database ProductRepository {
}



class RepositoryFactory{
+create()
+newTransactionalContext()
+create(TransactionalContext ctx)
}

AddProductToShoppingCarUI - -> AddProductToShoppingCarController
AddProductToShoppingCarController - -> AddProductToShoppingCarService
AddProductToShoppingCarService - -> TcpOrderSrv
AddProductToShoppingCarService - -> ProductDTO
TcpOrderSrv - -> ClientRepository
TcpOrderSrv - -> ShoppingCarRepository
TcpOrderSrv - -> ProductDTO
TcpOrderSrv - -> Product
TcpOrderSrv - -> Client
TcpOrderSrv -> ShoppingCar
TcpOrderSrv - -> ListProductDTOService

ListProductDTOService - -> ProductRepository

TcpOrderSrv - ->PersistenceContext
TcpOrderSrv - ->TransactionalContext

PersistenceContext - ->RepositoryFactory
RepositoryFactory - ->ClientRepository
RepositoryFactory - ->ProductRepository
RepositoryFactory - ->ShoppingCarRepository

Client - - - - -> "1" ShoppingCar : associated
ShopCarItem - -> "1" Product : composed by
ShoppingCar -> "1..*"  ShopCarItem : composed by

@enduml

PlantUML version 1.2022.1(Tue Feb 01 18:19:58 GMT 2022)
(GPL source distribution)
Java Runtime: OpenJDK Runtime Environment
JVM: Dynamic Code Evolution 64-Bit Server VM
Default Encoding: Cp1252
Language: pt
Country: PT
--></g></svg>