<?xml version="1.0" encoding="UTF-8" standalone="no"?><svg xmlns="http://www.w3.org/2000/svg" xmlns:xlink="http://www.w3.org/1999/xlink" contentScriptType="application/ecmascript" contentStyleType="text/css" height="454px" preserveAspectRatio="none" style="width:372px;height:454px;background:#FFFFFF;" version="1.1" viewBox="0 0 372 454" width="372px" zoomAndPan="magnify"><defs><filter height="300%" id="fc6tepkkn1tpr" width="300%" x="-1" y="-1"><feGaussianBlur result="blurOut" stdDeviation="2.0"/><feColorMatrix in="blurOut" result="blurOut2" type="matrix" values="0 0 0 0 0 0 0 0 0 0 0 0 0 0 0 0 0 0 .4 0"/><feOffset dx="4.0" dy="4.0" in="blurOut2" result="blurOut3"/><feBlend in="SourceGraphic" in2="blurOut3" mode="normal"/></filter></defs><g><rect fill="#FFFFFF" filter="url(#fc6tepkkn1tpr)" height="251.1641" style="stroke:#A80036;stroke-width:1.0;" width="10" x="21" y="99.6094"/><rect fill="#FFFFFF" filter="url(#fc6tepkkn1tpr)" height="30.3516" style="stroke:#A80036;stroke-width:1.0;" width="10" x="323" y="138.3125"/><rect fill="#FFFFFF" filter="url(#fc6tepkkn1tpr)" height="30.3516" style="stroke:#A80036;stroke-width:1.0;" width="10" x="323" y="199.0156"/><rect fill="#FFFFFF" filter="url(#fc6tepkkn1tpr)" height="30.3516" style="stroke:#A80036;stroke-width:1.0;" width="10" x="323" y="259.7188"/><rect fill="#FFFFFF" filter="url(#fc6tepkkn1tpr)" height="30.3516" style="stroke:#A80036;stroke-width:1.0;" width="10" x="323" y="320.4219"/><line style="stroke:#A80036;stroke-width:1.0;stroke-dasharray:5.0,5.0;" x1="26" x2="26" y1="89.6094" y2="368.7734"/><line style="stroke:#A80036;stroke-width:1.0;stroke-dasharray:5.0,5.0;" x1="328" x2="328" y1="89.6094" y2="368.7734"/><text fill="#000000" font-family="sans-serif" font-size="14" lengthAdjust="spacing" textLength="36" x="5" y="86.5332">Client</text><ellipse cx="26" cy="15" fill="#FEFECE" filter="url(#fc6tepkkn1tpr)" rx="8" ry="8" style="stroke:#A80036;stroke-width:2.0;"/><path d="M26,23 L26,50 M13,31 L39,31 M26,50 L13,65 M26,50 L39,65 " fill="none" filter="url(#fc6tepkkn1tpr)" style="stroke:#A80036;stroke-width:2.0;"/><text fill="#000000" font-family="sans-serif" font-size="14" lengthAdjust="spacing" textLength="36" x="5" y="382.3066">Client</text><ellipse cx="26" cy="395.3828" fill="#FEFECE" filter="url(#fc6tepkkn1tpr)" rx="8" ry="8" style="stroke:#A80036;stroke-width:2.0;"/><path d="M26,403.3828 L26,430.3828 M13,411.3828 L39,411.3828 M26,430.3828 L13,445.3828 M26,430.3828 L39,445.3828 " fill="none" filter="url(#fc6tepkkn1tpr)" style="stroke:#A80036;stroke-width:2.0;"/><rect fill="#FEFECE" filter="url(#fc6tepkkn1tpr)" height="31.6094" style="stroke:#A80036;stroke-width:1.5;" width="64" x="294" y="53"/><text fill="#000000" font-family="sans-serif" font-size="14" lengthAdjust="spacing" textLength="50" x="301" y="74.5332">:System</text><rect fill="#FEFECE" filter="url(#fc6tepkkn1tpr)" height="31.6094" style="stroke:#A80036;stroke-width:1.5;" width="64" x="294" y="367.7734"/><text fill="#000000" font-family="sans-serif" font-size="14" lengthAdjust="spacing" textLength="50" x="301" y="389.3066">:System</text><rect fill="#FFFFFF" filter="url(#fc6tepkkn1tpr)" height="251.1641" style="stroke:#A80036;stroke-width:1.0;" width="10" x="21" y="99.6094"/><rect fill="#FFFFFF" filter="url(#fc6tepkkn1tpr)" height="30.3516" style="stroke:#A80036;stroke-width:1.0;" width="10" x="323" y="138.3125"/><rect fill="#FFFFFF" filter="url(#fc6tepkkn1tpr)" height="30.3516" style="stroke:#A80036;stroke-width:1.0;" width="10" x="323" y="199.0156"/><rect fill="#FFFFFF" filter="url(#fc6tepkkn1tpr)" height="30.3516" style="stroke:#A80036;stroke-width:1.0;" width="10" x="323" y="259.7188"/><rect fill="#FFFFFF" filter="url(#fc6tepkkn1tpr)" height="30.3516" style="stroke:#A80036;stroke-width:1.0;" width="10" x="323" y="320.4219"/><polygon fill="#A80036" points="311,134.3125,321,138.3125,311,142.3125,315,138.3125" style="stroke:#A80036;stroke-width:1.0;"/><line style="stroke:#A80036;stroke-width:1.0;" x1="31" x2="317" y1="138.3125" y2="138.3125"/><text fill="#000000" font-family="sans-serif" font-size="13" font-weight="bold" lengthAdjust="spacing" textLength="7" x="38" y="125.2803">1</text><text fill="#000000" font-family="sans-serif" font-size="13" lengthAdjust="spacing" textLength="241" x="49" y="117.1045">Inicia o processo de adicionar um produto</text><text fill="#000000" font-family="sans-serif" font-size="13" lengthAdjust="spacing" textLength="161" x="53" y="133.4561">ao seu carrinho de compras</text><polygon fill="#A80036" points="42,164.6641,32,168.6641,42,172.6641,38,168.6641" style="stroke:#A80036;stroke-width:1.0;"/><line style="stroke:#A80036;stroke-width:1.0;stroke-dasharray:2.0,2.0;" x1="36" x2="327" y1="168.6641" y2="168.6641"/><text fill="#000000" font-family="sans-serif" font-size="13" font-weight="bold" lengthAdjust="spacing" textLength="7" x="48" y="163.8076">2</text><text fill="#000000" font-family="sans-serif" font-size="13" lengthAdjust="spacing" textLength="176" x="59" y="163.8076">Mostra o catálogo de produtos</text><polygon fill="#A80036" points="311,195.0156,321,199.0156,311,203.0156,315,199.0156" style="stroke:#A80036;stroke-width:1.0;"/><line style="stroke:#A80036;stroke-width:1.0;" x1="31" x2="317" y1="199.0156" y2="199.0156"/><text fill="#000000" font-family="sans-serif" font-size="13" font-weight="bold" lengthAdjust="spacing" textLength="7" x="38" y="194.1592">3</text><text fill="#000000" font-family="sans-serif" font-size="13" lengthAdjust="spacing" textLength="169" x="49" y="194.1592">Escolhe o produto pretendido</text><polygon fill="#A80036" points="42,225.3672,32,229.3672,42,233.3672,38,229.3672" style="stroke:#A80036;stroke-width:1.0;"/><line style="stroke:#A80036;stroke-width:1.0;stroke-dasharray:2.0,2.0;" x1="36" x2="327" y1="229.3672" y2="229.3672"/><text fill="#000000" font-family="sans-serif" font-size="13" font-weight="bold" lengthAdjust="spacing" textLength="7" x="48" y="224.5107">4</text><text fill="#000000" font-family="sans-serif" font-size="13" lengthAdjust="spacing" textLength="230" x="59" y="224.5107">Solicita a quantidade relativa ao produto</text><polygon fill="#A80036" points="311,255.7188,321,259.7188,311,263.7188,315,259.7188" style="stroke:#A80036;stroke-width:1.0;"/><line style="stroke:#A80036;stroke-width:1.0;" x1="31" x2="317" y1="259.7188" y2="259.7188"/><text fill="#000000" font-family="sans-serif" font-size="13" font-weight="bold" lengthAdjust="spacing" textLength="7" x="38" y="254.8623">5</text><text fill="#000000" font-family="sans-serif" font-size="13" lengthAdjust="spacing" textLength="120" x="49" y="254.8623">Informa a quantidade</text><polygon fill="#A80036" points="42,286.0703,32,290.0703,42,294.0703,38,290.0703" style="stroke:#A80036;stroke-width:1.0;"/><line style="stroke:#A80036;stroke-width:1.0;stroke-dasharray:2.0,2.0;" x1="36" x2="327" y1="290.0703" y2="290.0703"/><text fill="#000000" font-family="sans-serif" font-size="13" font-weight="bold" lengthAdjust="spacing" textLength="7" x="48" y="285.2139">6</text><text fill="#000000" font-family="sans-serif" font-size="13" lengthAdjust="spacing" textLength="257" x="59" y="285.2139">Apresenta os dados e solicita a confirmação</text><polygon fill="#A80036" points="311,316.4219,321,320.4219,311,324.4219,315,320.4219" style="stroke:#A80036;stroke-width:1.0;"/><line style="stroke:#A80036;stroke-width:1.0;" x1="31" x2="317" y1="320.4219" y2="320.4219"/><text fill="#000000" font-family="sans-serif" font-size="13" font-weight="bold" lengthAdjust="spacing" textLength="7" x="38" y="315.5654">7</text><text fill="#000000" font-family="sans-serif" font-size="13" lengthAdjust="spacing" textLength="108" x="49" y="315.5654">Confirma os dados</text><polygon fill="#A80036" points="37,346.7734,27,350.7734,37,354.7734,33,350.7734" style="stroke:#A80036;stroke-width:1.0;"/><line style="stroke:#A80036;stroke-width:1.0;stroke-dasharray:2.0,2.0;" x1="31" x2="327" y1="350.7734" y2="350.7734"/><text fill="#000000" font-family="sans-serif" font-size="13" font-weight="bold" lengthAdjust="spacing" textLength="7" x="43" y="345.917">8</text><text fill="#000000" font-family="sans-serif" font-size="13" lengthAdjust="spacing" textLength="181" x="54" y="345.917">Informa o sucesso da operação</text><!--MD5=[6b512bbd528aafeffeb7cf041e3d7f17]
@startuml

autonumber
actor "Client" as C

activate C
C -> ":System" : Inicia o processo de adicionar um produto \n ao seu carrinho de compras
activate ":System"

":System" - -> C : Mostra o catálogo de produtos
deactivate ":System"
C -> ":System" : Escolhe o produto pretendido
activate ":System"
":System" - -> C : Solicita a quantidade relativa ao produto
deactivate ":System"
C -> ":System" : Informa a quantidade
activate ":System"
":System" - -> C : Apresenta os dados e solicita a confirmação
deactivate ":System"
C -> ":System" : Confirma os dados
activate ":System"

":System" - -> C : Informa o sucesso da operação
deactivate ":System"
deactivate C



@enduml

PlantUML version 1.2022.1(Tue Feb 01 18:19:58 GMT 2022)
(GPL source distribution)
Java Runtime: OpenJDK Runtime Environment
JVM: Dynamic Code Evolution 64-Bit Server VM
Default Encoding: Cp1252
Language: pt
Country: PT
--></g></svg>