<?xml version="1.0" encoding="UTF-8" standalone="no"?><svg xmlns="http://www.w3.org/2000/svg" xmlns:xlink="http://www.w3.org/1999/xlink" contentScriptType="application/ecmascript" contentStyleType="text/css" height="594px" preserveAspectRatio="none" style="width:596px;height:594px;background:#FFFFFF;" version="1.1" viewBox="0 0 596 594" width="596.4px" zoomAndPan="magnify"><defs><filter height="300%" id="fs08yved4kggn" width="300%" x="-1" y="-1"><feGaussianBlur result="blurOut" stdDeviation="1.2"/><feColorMatrix in="blurOut" result="blurOut2" type="matrix" values="0 0 0 0 0 0 0 0 0 0 0 0 0 0 0 0 0 0 .4 0"/><feOffset dx="2.4" dy="2.4" in="blurOut2" result="blurOut3"/><feBlend in="SourceGraphic" in2="blurOut3" mode="normal"/></filter></defs><g><!--MD5=[10d670d2a558029dbb3ffc83a3028fde]
cluster <<aggregate>> Answer--><polygon fill="#FFFFFF" filter="url(#fs08yved4kggn)" points="473.4,463.5,573,463.5,577.2,477.6656,579,477.6656,579,523.5,473.4,523.5,473.4,463.5" style="stroke:#000000;stroke-width:0.8999999999999999;"/><line style="stroke:#000000;stroke-width:0.8999999999999999;" x1="473.4" x2="577.2" y1="477.6656" y2="477.6656"/><text fill="#000000" font-family="sans-serif" font-size="8.4" font-weight="bold" lengthAdjust="spacing" textLength="96" x="475.8" y="473.4199">&lt;&lt;aggregate&gt;&gt; Answer</text><!--MD5=[8c363a80613b0a6d6c7ca1152598557e]
cluster <<aggregate>> Questionnaire--><polygon fill="#FFFFFF" filter="url(#fs08yved4kggn)" points="9.6,102.6,138,102.6,142.2,116.7656,405.6,116.7656,405.6,590.1,9.6,590.1,9.6,102.6" style="stroke:#000000;stroke-width:0.8999999999999999;"/><line style="stroke:#000000;stroke-width:0.8999999999999999;" x1="9.6" x2="142.2" y1="116.7656" y2="116.7656"/><text fill="#000000" font-family="sans-serif" font-size="8.4" font-weight="bold" lengthAdjust="spacing" textLength="124.8" x="12" y="112.5199">&lt;&lt;aggregate&gt;&gt; Questionnaire</text><!--MD5=[19ece2f5f0b6cda009165ddd9ef17413]
cluster <<aggregate>> Notification--><polygon fill="#FFFFFF" filter="url(#fs08yved4kggn)" points="420,200.4,536.4,200.4,540.6,214.5656,542.4,214.5656,542.4,269.4,420,269.4,420,200.4" style="stroke:#000000;stroke-width:0.8999999999999999;"/><line style="stroke:#000000;stroke-width:0.8999999999999999;" x1="420" x2="540.6" y1="214.5656" y2="214.5656"/><text fill="#000000" font-family="sans-serif" font-size="8.4" font-weight="bold" lengthAdjust="spacing" textLength="112.8" x="422.4" y="210.3199">&lt;&lt;aggregate&gt;&gt; Notification</text><!--MD5=[20e996825fabf2618e164db4892593a3]
cluster <<aggregate>> Client--><polygon fill="#FFFFFF" filter="url(#fs08yved4kggn)" points="408.6,3.6,501.6,3.6,505.8,17.7656,507.6,17.7656,507.6,72.6,408.6,72.6,408.6,3.6" style="stroke:#000000;stroke-width:0.8999999999999999;"/><line style="stroke:#000000;stroke-width:0.8999999999999999;" x1="408.6" x2="505.8" y1="17.7656" y2="17.7656"/><text fill="#000000" font-family="sans-serif" font-size="8.4" font-weight="bold" lengthAdjust="spacing" textLength="89.4" x="411" y="13.5199">&lt;&lt;aggregate&gt;&gt; Client</text><!--MD5=[f9fadfa5a66b7e5a67b370cd443ffe52]
class Answer--><rect codeLine="49" fill="#F5F5DC" filter="url(#fs08yved4kggn)" height="28.9125" id="Answer" style="stroke:#A80036;stroke-width:0.8999999999999999;" width="43.8" x="504.3" y="485.1"/><ellipse cx="513.3" cy="497.1563" fill="#ADD1B2" rx="6.6" ry="6.6" style="stroke:#A80036;stroke-width:0.6;"/><path d="M512.4,497.7562 L512.4,498.9562 L514.8,498.9562 L514.8,498.3563 L514.8,498.0656 L515.175,497.7562 L515.4,497.7562 L515.625,497.7562 L516,498.0656 L516,498.3563 L516,500.1563 L511.2,500.1563 L510.9094,500.1563 L510.6,499.7813 L510.6,499.5563 L510.6,499.3312 L510.9094,498.9562 L511.2,498.9562 L511.2,498.9562 L511.2,495.3563 L511.2,495.3563 L510.9094,495.3563 L510.6,494.9813 L510.6,494.7562 L510.6,494.5313 L510.9094,494.1563 L511.2,494.1563 L516,494.1563 L516,495.9562 L516,496.2469 L515.625,496.5563 L515.4,496.5563 L515.175,496.5563 L514.8,496.2469 L514.8,495.9562 L514.8,495.3563 L512.4,495.3563 L512.4,496.5563 L513,496.5563 L513,496.2656 L513,496.2656 L513.375,495.9562 L513.6,495.9562 L513.825,495.9562 L514.2,496.2656 L514.2,496.5563 L514.2,497.7562 L514.2,498.0469 L513.825,498.3563 L513.825,498.3563 L513.6,498.3563 L513.375,498.3563 L513,498.0469 L513,498.0469 L513,497.7562 L512.4,497.7562 Z " fill="#000000"/><text fill="#000000" font-family="sans-serif" font-size="7.2" font-style="italic" lengthAdjust="spacing" textLength="25.8" x="521.1" y="495.5742">«entity»</text><text fill="#000000" font-family="sans-serif" font-size="7.2" lengthAdjust="spacing" textLength="24.6" x="521.7" y="504.6305">Answer</text><line style="stroke:#A80036;stroke-width:0.8999999999999999;" x1="504.9" x2="547.5" y1="509.2125" y2="509.2125"/><!--MD5=[5a3b85c54cc1c79904e0b827443986bf]
class Questionnaire--><rect codeLine="25" fill="#F5F5DC" filter="url(#fs08yved4kggn)" height="37.9688" id="Questionnaire" style="stroke:#A80036;stroke-width:0.8999999999999999;" width="66" x="251.4" y="124.2"/><ellipse cx="260.4" cy="140.7844" fill="#ADD1B2" rx="6.6" ry="6.6" style="stroke:#A80036;stroke-width:0.6;"/><path d="M259.5,141.3844 L259.5,142.5844 L261.9,142.5844 L261.9,141.9844 L261.9,141.6938 L262.275,141.3844 L262.5,141.3844 L262.725,141.3844 L263.1,141.6938 L263.1,141.9844 L263.1,143.7844 L258.3,143.7844 L258.0094,143.7844 L257.7,143.4094 L257.7,143.1844 L257.7,142.9594 L258.0094,142.5844 L258.3,142.5844 L258.3,142.5844 L258.3,138.9844 L258.3,138.9844 L258.0094,138.9844 L257.7,138.6094 L257.7,138.3844 L257.7,138.1594 L258.0094,137.7844 L258.3,137.7844 L263.1,137.7844 L263.1,139.5844 L263.1,139.875 L262.725,140.1844 L262.5,140.1844 L262.275,140.1844 L261.9,139.875 L261.9,139.5844 L261.9,138.9844 L259.5,138.9844 L259.5,140.1844 L260.1,140.1844 L260.1,139.8937 L260.1,139.8937 L260.475,139.5844 L260.7,139.5844 L260.925,139.5844 L261.3,139.8937 L261.3,140.1844 L261.3,141.3844 L261.3,141.675 L260.925,141.9844 L260.925,141.9844 L260.7,141.9844 L260.475,141.9844 L260.1,141.675 L260.1,141.675 L260.1,141.3844 L259.5,141.3844 Z " fill="#000000"/><text fill="#000000" font-family="sans-serif" font-size="7.2" font-style="italic" lengthAdjust="spacing" textLength="25.8" x="279.3" y="134.6742">«entity»</text><text fill="#000000" font-family="sans-serif" font-size="7.2" font-style="italic" lengthAdjust="spacing" textLength="21" x="281.7" y="143.7305">«root»</text><text fill="#000000" font-family="sans-serif" font-size="7.2" lengthAdjust="spacing" textLength="46.8" x="268.8" y="152.7867">Questionnaire</text><line style="stroke:#A80036;stroke-width:0.8999999999999999;" x1="252" x2="316.8" y1="157.3688" y2="157.3688"/><!--MD5=[75430099834887034d36f3efdb02bb45]
class Identifier--><rect codeLine="29" fill="#F5F5DC" filter="url(#fs08yved4kggn)" height="28.9125" id="Identifier" style="stroke:#A80036;stroke-width:0.8999999999999999;" width="65.4" x="215.1" y="226.5"/><ellipse cx="224.1" cy="238.5562" fill="#FF8B40" rx="6.6" ry="6.6" style="stroke:#A80036;stroke-width:0.6;"/><path d="M224.1,240.525 L225.0187,237.2062 L225.0187,237.2062 L224.7094,237.2062 L224.4,236.8312 L224.4,236.6063 L224.4,236.3813 L224.7094,236.0063 L225.0187,236.0063 L226.1437,236.0063 L226.4906,236.0063 L226.8,236.3813 L226.8,236.6063 L226.8,236.8312 L226.4906,237.2062 L226.4906,237.2062 L226.2188,237.2062 L224.8125,242.0063 L223.3875,242.0063 L221.9063,237.2062 L221.7094,237.2062 L221.7094,237.2062 L221.4,236.8312 L221.4,236.6063 L221.4,236.3813 L221.7094,236.0063 L222.0563,236.0063 L223.1813,236.0063 L223.4906,236.0063 L223.8,236.3813 L223.8,236.6063 L223.8,236.8312 L223.4906,237.2062 L223.1813,237.2062 L223.1813,237.2062 L224.1,240.525 Z " fill="#000000"/><text fill="#000000" font-family="sans-serif" font-size="7.2" font-style="italic" lengthAdjust="spacing" textLength="48.6" x="231.3" y="236.9742">«value object»</text><text fill="#000000" font-family="sans-serif" font-size="7.2" lengthAdjust="spacing" textLength="28.2" x="241.5" y="246.0305">Identifier</text><line style="stroke:#A80036;stroke-width:0.8999999999999999;" x1="215.7" x2="279.9" y1="250.6125" y2="250.6125"/><!--MD5=[14300a2df3a0fe987d976a0ca5dcea70]
class Titulo--><rect codeLine="30" fill="#F5F5DC" filter="url(#fs08yved4kggn)" height="28.9125" id="Titulo" style="stroke:#A80036;stroke-width:0.8999999999999999;" width="65.4" x="19.5" y="385.5"/><ellipse cx="28.5" cy="397.5563" fill="#FF8B40" rx="6.6" ry="6.6" style="stroke:#A80036;stroke-width:0.6;"/><path d="M28.5,399.525 L29.4188,396.2063 L29.4188,396.2063 L29.1094,396.2063 L28.8,395.8313 L28.8,395.6063 L28.8,395.3812 L29.1094,395.0062 L29.4188,395.0062 L30.5438,395.0062 L30.8906,395.0062 L31.2,395.3812 L31.2,395.6063 L31.2,395.8313 L30.8906,396.2063 L30.8906,396.2063 L30.6188,396.2063 L29.2125,401.0062 L27.7875,401.0062 L26.3063,396.2063 L26.1094,396.2063 L26.1094,396.2063 L25.8,395.8313 L25.8,395.6063 L25.8,395.3812 L26.1094,395.0062 L26.4563,395.0062 L27.5813,395.0062 L27.8906,395.0062 L28.2,395.3812 L28.2,395.6063 L28.2,395.8313 L27.8906,396.2063 L27.5813,396.2063 L27.5813,396.2063 L28.5,399.525 Z " fill="#000000"/><text fill="#000000" font-family="sans-serif" font-size="7.2" font-style="italic" lengthAdjust="spacing" textLength="48.6" x="35.7" y="395.9742">«value object»</text><text fill="#000000" font-family="sans-serif" font-size="7.2" lengthAdjust="spacing" textLength="18" x="51" y="405.0305">Titulo</text><line style="stroke:#A80036;stroke-width:0.8999999999999999;" x1="20.1" x2="84.3" y1="409.6125" y2="409.6125"/><!--MD5=[bea5b0d46523efab5ea1c1d339f396f0]
class Message--><rect codeLine="31" fill="#F5F5DC" filter="url(#fs08yved4kggn)" height="28.9125" id="Message" style="stroke:#A80036;stroke-width:0.8999999999999999;" width="65.4" x="63.9" y="485.1"/><ellipse cx="72.9" cy="497.1563" fill="#FF8B40" rx="6.6" ry="6.6" style="stroke:#A80036;stroke-width:0.6;"/><path d="M72.9,499.125 L73.8188,495.8063 L73.8188,495.8063 L73.5094,495.8063 L73.2,495.4313 L73.2,495.2062 L73.2,494.9813 L73.5094,494.6063 L73.8188,494.6063 L74.9438,494.6063 L75.2906,494.6063 L75.6,494.9813 L75.6,495.2062 L75.6,495.4313 L75.2906,495.8063 L75.2906,495.8063 L75.0188,495.8063 L73.6125,500.6063 L72.1875,500.6063 L70.7063,495.8063 L70.5094,495.8063 L70.5094,495.8063 L70.2,495.4313 L70.2,495.2062 L70.2,494.9813 L70.5094,494.6063 L70.8563,494.6063 L71.9813,494.6063 L72.2906,494.6063 L72.6,494.9813 L72.6,495.2062 L72.6,495.4313 L72.2906,495.8063 L71.9813,495.8063 L71.9813,495.8063 L72.9,499.125 Z " fill="#000000"/><text fill="#000000" font-family="sans-serif" font-size="7.2" font-style="italic" lengthAdjust="spacing" textLength="48.6" x="80.1" y="495.5742">«value object»</text><text fill="#000000" font-family="sans-serif" font-size="7.2" lengthAdjust="spacing" textLength="30.6" x="89.1" y="504.6305">Message</text><line style="stroke:#A80036;stroke-width:0.8999999999999999;" x1="64.5" x2="128.7" y1="509.2125" y2="509.2125"/><!--MD5=[2555a5a46195b40631e16698a2ba5d47]
class Period--><rect codeLine="33" fill="#F5F5DC" filter="url(#fs08yved4kggn)" height="58.6172" id="Period" style="stroke:#A80036;stroke-width:0.8999999999999999;" width="65.4" x="19.5" y="211.5"/><ellipse cx="28.5" cy="223.5563" fill="#FF8B40" rx="6.6" ry="6.6" style="stroke:#A80036;stroke-width:0.6;"/><path d="M28.5,225.525 L29.4188,222.2062 L29.4188,222.2062 L29.1094,222.2062 L28.8,221.8312 L28.8,221.6063 L28.8,221.3813 L29.1094,221.0063 L29.4188,221.0063 L30.5438,221.0063 L30.8906,221.0063 L31.2,221.3813 L31.2,221.6063 L31.2,221.8312 L30.8906,222.2062 L30.8906,222.2062 L30.6188,222.2062 L29.2125,227.0063 L27.7875,227.0063 L26.3063,222.2062 L26.1094,222.2062 L26.1094,222.2062 L25.8,221.8312 L25.8,221.6063 L25.8,221.3813 L26.1094,221.0063 L26.4563,221.0063 L27.5813,221.0063 L27.8906,221.0063 L28.2,221.3813 L28.2,221.6063 L28.2,221.8312 L27.8906,222.2062 L27.5813,222.2062 L27.5813,222.2062 L28.5,225.525 Z " fill="#000000"/><text fill="#000000" font-family="sans-serif" font-size="7.2" font-style="italic" lengthAdjust="spacing" textLength="48.6" x="35.7" y="221.9742">«value object»</text><text fill="#000000" font-family="sans-serif" font-size="7.2" lengthAdjust="spacing" textLength="21.6" x="49.2" y="231.0305">Period</text><line style="stroke:#A80036;stroke-width:0.8999999999999999;" x1="20.1" x2="84.3" y1="235.6125" y2="235.6125"/><text fill="#000000" font-family="sans-serif" font-size="6.6" lengthAdjust="spacing" textLength="29.4" x="23.1" y="244.8639">-initialDate</text><text fill="#000000" font-family="sans-serif" font-size="6.6" lengthAdjust="spacing" textLength="27.6" x="23.1" y="253.1654">-finalDate</text><text fill="#000000" font-family="sans-serif" font-size="6.6" lengthAdjust="spacing" textLength="34.8" x="23.1" y="261.467">-activeDays</text><line style="stroke:#A80036;stroke-width:0.8999999999999999;" x1="20.1" x2="84.3" y1="265.3172" y2="265.3172"/><!--MD5=[4cf87534c235239d37db4adfd136fff4]
class Rule--><rect codeLine="38" fill="#F5F5DC" filter="url(#fs08yved4kggn)" height="28.9125" id="Rule" style="stroke:#A80036;stroke-width:0.8999999999999999;" width="65.4" x="105.9" y="226.5"/><ellipse cx="114.9" cy="238.5562" fill="#FF8B40" rx="6.6" ry="6.6" style="stroke:#A80036;stroke-width:0.6;"/><path d="M114.9,240.525 L115.8188,237.2062 L115.8188,237.2062 L115.5094,237.2062 L115.2,236.8312 L115.2,236.6063 L115.2,236.3813 L115.5094,236.0063 L115.8188,236.0063 L116.9438,236.0063 L117.2906,236.0063 L117.6,236.3813 L117.6,236.6063 L117.6,236.8312 L117.2906,237.2062 L117.2906,237.2062 L117.0188,237.2062 L115.6125,242.0063 L114.1875,242.0063 L112.7063,237.2062 L112.5094,237.2062 L112.5094,237.2062 L112.2,236.8312 L112.2,236.6063 L112.2,236.3813 L112.5094,236.0063 L112.8563,236.0063 L113.9813,236.0063 L114.2906,236.0063 L114.6,236.3813 L114.6,236.6063 L114.6,236.8312 L114.2906,237.2062 L113.9813,237.2062 L113.9813,237.2062 L114.9,240.525 Z " fill="#000000"/><text fill="#000000" font-family="sans-serif" font-size="7.2" font-style="italic" lengthAdjust="spacing" textLength="48.6" x="122.1" y="236.9742">«value object»</text><text fill="#000000" font-family="sans-serif" font-size="7.2" lengthAdjust="spacing" textLength="15.6" x="138.6" y="246.0305">Rule</text><line style="stroke:#A80036;stroke-width:0.8999999999999999;" x1="106.5" x2="170.7" y1="250.6125" y2="250.6125"/><!--MD5=[09a53695e98d4f26e7a054522080af08]
class Section--><rect codeLine="39" fill="#F5F5DC" filter="url(#fs08yved4kggn)" height="50.3156" id="Section" style="stroke:#A80036;stroke-width:0.8999999999999999;" width="44.4" x="301.8" y="215.7"/><ellipse cx="311.07" cy="227.7563" fill="#ADD1B2" rx="6.6" ry="6.6" style="stroke:#A80036;stroke-width:0.6;"/><path d="M310.17,228.3563 L310.17,229.5563 L312.57,229.5563 L312.57,228.9562 L312.57,228.6656 L312.945,228.3563 L313.17,228.3563 L313.395,228.3563 L313.77,228.6656 L313.77,228.9562 L313.77,230.7563 L308.97,230.7563 L308.6794,230.7563 L308.37,230.3813 L308.37,230.1563 L308.37,229.9313 L308.6794,229.5563 L308.97,229.5563 L308.97,229.5563 L308.97,225.9562 L308.97,225.9562 L308.6794,225.9562 L308.37,225.5812 L308.37,225.3563 L308.37,225.1313 L308.6794,224.7563 L308.97,224.7563 L313.77,224.7563 L313.77,226.5563 L313.77,226.8469 L313.395,227.1563 L313.17,227.1563 L312.945,227.1563 L312.57,226.8469 L312.57,226.5563 L312.57,225.9562 L310.17,225.9562 L310.17,227.1563 L310.77,227.1563 L310.77,226.8656 L310.77,226.8656 L311.145,226.5563 L311.37,226.5563 L311.595,226.5563 L311.97,226.8656 L311.97,227.1563 L311.97,228.3563 L311.97,228.6469 L311.595,228.9562 L311.595,228.9562 L311.37,228.9562 L311.145,228.9562 L310.77,228.6469 L310.77,228.6469 L310.77,228.3563 L310.17,228.3563 Z " fill="#000000"/><text fill="#000000" font-family="sans-serif" font-size="7.2" font-style="italic" lengthAdjust="spacing" textLength="25.8" x="318.93" y="226.1742">«entity»</text><text fill="#000000" font-family="sans-serif" font-size="7.2" lengthAdjust="spacing" textLength="24.6" x="319.53" y="235.2305">Section</text><line style="stroke:#A80036;stroke-width:0.8999999999999999;" x1="302.4" x2="345.6" y1="239.8125" y2="239.8125"/><text fill="#000000" font-family="sans-serif" font-size="6.6" lengthAdjust="spacing" textLength="7.2" x="305.4" y="249.0639">-id</text><text fill="#000000" font-family="sans-serif" font-size="6.6" lengthAdjust="spacing" textLength="37.2" x="305.4" y="257.3654">-repeatability</text><line style="stroke:#A80036;stroke-width:0.8999999999999999;" x1="302.4" x2="345.6" y1="261.2156" y2="261.2156"/><!--MD5=[fc7123defb831ecdd44b2d9bcef6cceb]
class Question--><rect codeLine="45" fill="#F5F5DC" filter="url(#fs08yved4kggn)" height="50.3156" id="Question" style="stroke:#A80036;stroke-width:0.8999999999999999;" width="49.2" x="330.6" y="374.7"/><ellipse cx="339.6" cy="386.7562" fill="#ADD1B2" rx="6.6" ry="6.6" style="stroke:#A80036;stroke-width:0.6;"/><path d="M338.7,387.3563 L338.7,388.5563 L341.1,388.5563 L341.1,387.9563 L341.1,387.6656 L341.475,387.3563 L341.7,387.3563 L341.925,387.3563 L342.3,387.6656 L342.3,387.9563 L342.3,389.7562 L337.5,389.7562 L337.2094,389.7562 L336.9,389.3812 L336.9,389.1563 L336.9,388.9313 L337.2094,388.5563 L337.5,388.5563 L337.5,388.5563 L337.5,384.9563 L337.5,384.9563 L337.2094,384.9563 L336.9,384.5813 L336.9,384.3563 L336.9,384.1312 L337.2094,383.7562 L337.5,383.7562 L342.3,383.7562 L342.3,385.5563 L342.3,385.8469 L341.925,386.1563 L341.7,386.1563 L341.475,386.1563 L341.1,385.8469 L341.1,385.5563 L341.1,384.9563 L338.7,384.9563 L338.7,386.1563 L339.3,386.1563 L339.3,385.8656 L339.3,385.8656 L339.675,385.5563 L339.9,385.5563 L340.125,385.5563 L340.5,385.8656 L340.5,386.1563 L340.5,387.3563 L340.5,387.6469 L340.125,387.9563 L340.125,387.9563 L339.9,387.9563 L339.675,387.9563 L339.3,387.6469 L339.3,387.6469 L339.3,387.3563 L338.7,387.3563 Z " fill="#000000"/><text fill="#000000" font-family="sans-serif" font-size="7.2" font-style="italic" lengthAdjust="spacing" textLength="25.8" x="350.1" y="385.1742">«entity»</text><text fill="#000000" font-family="sans-serif" font-size="7.2" lengthAdjust="spacing" textLength="30" x="348" y="394.2305">Question</text><line style="stroke:#A80036;stroke-width:0.8999999999999999;" x1="331.2" x2="379.2" y1="398.8125" y2="398.8125"/><text fill="#000000" font-family="sans-serif" font-size="6.6" lengthAdjust="spacing" textLength="7.2" x="334.2" y="408.0639">-id</text><text fill="#000000" font-family="sans-serif" font-size="6.6" lengthAdjust="spacing" textLength="23.4" x="334.2" y="416.3654">-options</text><line style="stroke:#A80036;stroke-width:0.8999999999999999;" x1="331.2" x2="379.2" y1="420.2156" y2="420.2156"/><!--MD5=[612a8bdae8d52d1733a2d00cd54fc954]
class Obligatoriness--><rect codeLine="32" fill="#F5F5DC" filter="url(#fs08yved4kggn)" height="28.9125" id="Obligatoriness" style="stroke:#A80036;stroke-width:0.8999999999999999;" width="67.8" x="258.9" y="551.7"/><ellipse cx="267.9" cy="563.7563" fill="#FF8B40" rx="6.6" ry="6.6" style="stroke:#A80036;stroke-width:0.6;"/><path d="M267.9,565.725 L268.8187,562.4063 L268.8187,562.4063 L268.5094,562.4063 L268.2,562.0313 L268.2,561.8063 L268.2,561.5813 L268.5094,561.2063 L268.8187,561.2063 L269.9437,561.2063 L270.2906,561.2063 L270.6,561.5813 L270.6,561.8063 L270.6,562.0313 L270.2906,562.4063 L270.2906,562.4063 L270.0188,562.4063 L268.6125,567.2063 L267.1875,567.2063 L265.7063,562.4063 L265.5094,562.4063 L265.5094,562.4063 L265.2,562.0313 L265.2,561.8063 L265.2,561.5813 L265.5094,561.2063 L265.8563,561.2063 L266.9813,561.2063 L267.2906,561.2063 L267.6,561.5813 L267.6,561.8063 L267.6,562.0313 L267.2906,562.4063 L266.9813,562.4063 L266.9813,562.4063 L267.9,565.725 Z " fill="#000000"/><text fill="#000000" font-family="sans-serif" font-size="7.2" font-style="italic" lengthAdjust="spacing" textLength="48.6" x="276.3" y="562.1742">«value object»</text><text fill="#000000" font-family="sans-serif" font-size="7.2" lengthAdjust="spacing" textLength="48.6" x="276.3" y="571.2305">Obligatoriness</text><line style="stroke:#A80036;stroke-width:0.8999999999999999;" x1="259.5" x2="326.1" y1="575.8125" y2="575.8125"/><!--MD5=[85ca87766313dadedb5918e4f4f973e4]
class MandatoryCondition--><rect codeLine="44" fill="#F5F5DC" filter="url(#fs08yved4kggn)" height="28.9125" id="MandatoryCondition" style="stroke:#A80036;stroke-width:0.8999999999999999;" width="84.6" x="64.5" y="551.7"/><ellipse cx="73.5" cy="563.7563" fill="#FF8B40" rx="6.6" ry="6.6" style="stroke:#A80036;stroke-width:0.6;"/><path d="M73.5,565.725 L74.4188,562.4063 L74.4188,562.4063 L74.1094,562.4063 L73.8,562.0313 L73.8,561.8063 L73.8,561.5813 L74.1094,561.2063 L74.4188,561.2063 L75.5438,561.2063 L75.8906,561.2063 L76.2,561.5813 L76.2,561.8063 L76.2,562.0313 L75.8906,562.4063 L75.8906,562.4063 L75.6187,562.4063 L74.2125,567.2063 L72.7875,567.2063 L71.3062,562.4063 L71.1094,562.4063 L71.1094,562.4063 L70.8,562.0313 L70.8,561.8063 L70.8,561.5813 L71.1094,561.2063 L71.4563,561.2063 L72.5813,561.2063 L72.8906,561.2063 L73.2,561.5813 L73.2,561.8063 L73.2,562.0313 L72.8906,562.4063 L72.5813,562.4063 L72.5813,562.4063 L73.5,565.725 Z " fill="#000000"/><text fill="#000000" font-family="sans-serif" font-size="7.2" font-style="italic" lengthAdjust="spacing" textLength="48.6" x="90.3" y="562.1742">«value object»</text><text fill="#000000" font-family="sans-serif" font-size="7.2" lengthAdjust="spacing" textLength="65.4" x="81.9" y="571.2305">MandatoryCondition</text><line style="stroke:#A80036;stroke-width:0.8999999999999999;" x1="65.1" x2="148.5" y1="575.8125" y2="575.8125"/><!--MD5=[4296a1ab0576a383a1a509d52c22ebf0]
class Type--><rect codeLine="51" fill="#F5F5DC" filter="url(#fs08yved4kggn)" height="28.9125" id="Type" style="stroke:#A80036;stroke-width:0.8999999999999999;" width="65.4" x="150.3" y="485.1"/><ellipse cx="159.3" cy="497.1563" fill="#FF8B40" rx="6.6" ry="6.6" style="stroke:#A80036;stroke-width:0.6;"/><path d="M159.3,499.125 L160.2188,495.8063 L160.2188,495.8063 L159.9094,495.8063 L159.6,495.4313 L159.6,495.2062 L159.6,494.9813 L159.9094,494.6063 L160.2188,494.6063 L161.3438,494.6063 L161.6906,494.6063 L162,494.9813 L162,495.2062 L162,495.4313 L161.6906,495.8063 L161.6906,495.8063 L161.4188,495.8063 L160.0125,500.6063 L158.5875,500.6063 L157.1063,495.8063 L156.9094,495.8063 L156.9094,495.8063 L156.6,495.4313 L156.6,495.2062 L156.6,494.9813 L156.9094,494.6063 L157.2563,494.6063 L158.3813,494.6063 L158.6906,494.6063 L159,494.9813 L159,495.2062 L159,495.4313 L158.6906,495.8063 L158.3813,495.8063 L158.3813,495.8063 L159.3,499.125 Z " fill="#000000"/><text fill="#000000" font-family="sans-serif" font-size="7.2" font-style="italic" lengthAdjust="spacing" textLength="48.6" x="166.5" y="495.5742">«value object»</text><text fill="#000000" font-family="sans-serif" font-size="7.2" lengthAdjust="spacing" textLength="15.6" x="183" y="504.6305">Type</text><line style="stroke:#A80036;stroke-width:0.8999999999999999;" x1="150.9" x2="215.1" y1="509.2125" y2="509.2125"/><!--MD5=[76b5e19c9337179d2d7ae334371d68c8]
class Notification--><rect codeLine="73" fill="#F5F5DC" filter="url(#fs08yved4kggn)" height="37.9688" id="Notification" style="stroke:#A80036;stroke-width:0.8999999999999999;" width="55.8" x="429.9" y="222"/><ellipse cx="438.9" cy="238.5844" fill="#ADD1B2" rx="6.6" ry="6.6" style="stroke:#A80036;stroke-width:0.6;"/><path d="M438,239.1844 L438,240.3844 L440.4,240.3844 L440.4,239.7844 L440.4,239.4937 L440.775,239.1844 L441,239.1844 L441.225,239.1844 L441.6,239.4937 L441.6,239.7844 L441.6,241.5844 L436.8,241.5844 L436.5094,241.5844 L436.2,241.2094 L436.2,240.9844 L436.2,240.7594 L436.5094,240.3844 L436.8,240.3844 L436.8,240.3844 L436.8,236.7844 L436.8,236.7844 L436.5094,236.7844 L436.2,236.4094 L436.2,236.1844 L436.2,235.9594 L436.5094,235.5844 L436.8,235.5844 L441.6,235.5844 L441.6,237.3844 L441.6,237.675 L441.225,237.9844 L441,237.9844 L440.775,237.9844 L440.4,237.675 L440.4,237.3844 L440.4,236.7844 L438,236.7844 L438,237.9844 L438.6,237.9844 L438.6,237.6938 L438.6,237.6938 L438.975,237.3844 L439.2,237.3844 L439.425,237.3844 L439.8,237.6938 L439.8,237.9844 L439.8,239.1844 L439.8,239.475 L439.425,239.7844 L439.425,239.7844 L439.2,239.7844 L438.975,239.7844 L438.6,239.475 L438.6,239.475 L438.6,239.1844 L438,239.1844 Z " fill="#000000"/><text fill="#000000" font-family="sans-serif" font-size="7.2" font-style="italic" lengthAdjust="spacing" textLength="25.8" x="452.7" y="232.4742">«entity»</text><text fill="#000000" font-family="sans-serif" font-size="7.2" font-style="italic" lengthAdjust="spacing" textLength="21" x="455.1" y="241.5305">«root»</text><text fill="#000000" font-family="sans-serif" font-size="7.2" lengthAdjust="spacing" textLength="36.6" x="447.3" y="250.5867">Notification</text><line style="stroke:#A80036;stroke-width:0.8999999999999999;" x1="430.5" x2="485.1" y1="255.1688" y2="255.1688"/><!--MD5=[ed6624c6556d5e7b1bd23032162d20b7]
class Client--><rect codeLine="84" fill="#F5F5DC" filter="url(#fs08yved4kggn)" height="37.9688" id="Client" style="stroke:#A80036;stroke-width:0.8999999999999999;" width="42.6" x="436.5" y="25.2"/><ellipse cx="445.5" cy="41.7844" fill="#ADD1B2" rx="6.6" ry="6.6" style="stroke:#A80036;stroke-width:0.6;"/><path d="M444.6,42.3844 L444.6,43.5844 L447,43.5844 L447,42.9844 L447,42.6938 L447.375,42.3844 L447.6,42.3844 L447.825,42.3844 L448.2,42.6938 L448.2,42.9844 L448.2,44.7844 L443.4,44.7844 L443.1094,44.7844 L442.8,44.4094 L442.8,44.1844 L442.8,43.9594 L443.1094,43.5844 L443.4,43.5844 L443.4,43.5844 L443.4,39.9844 L443.4,39.9844 L443.1094,39.9844 L442.8,39.6094 L442.8,39.3844 L442.8,39.1594 L443.1094,38.7844 L443.4,38.7844 L448.2,38.7844 L448.2,40.5844 L448.2,40.875 L447.825,41.1844 L447.6,41.1844 L447.375,41.1844 L447,40.875 L447,40.5844 L447,39.9844 L444.6,39.9844 L444.6,41.1844 L445.2,41.1844 L445.2,40.8938 L445.2,40.8938 L445.575,40.5844 L445.8,40.5844 L446.025,40.5844 L446.4,40.8938 L446.4,41.1844 L446.4,42.3844 L446.4,42.675 L446.025,42.9844 L446.025,42.9844 L445.8,42.9844 L445.575,42.9844 L445.2,42.675 L445.2,42.675 L445.2,42.3844 L444.6,42.3844 Z " fill="#000000"/><text fill="#000000" font-family="sans-serif" font-size="7.2" font-style="italic" lengthAdjust="spacing" textLength="25.8" x="452.7" y="35.6742">«entity»</text><text fill="#000000" font-family="sans-serif" font-size="7.2" font-style="italic" lengthAdjust="spacing" textLength="21" x="455.1" y="44.7305">«root»</text><text fill="#000000" font-family="sans-serif" font-size="7.2" lengthAdjust="spacing" textLength="19.2" x="456" y="53.7867">Client</text><line style="stroke:#A80036;stroke-width:0.8999999999999999;" x1="437.1" x2="478.5" y1="58.3688" y2="58.3688"/><!--MD5=[123fb3cb4a82b6dd392a85b871d8cde7]
link Questionnaire to Identifier--><path codeLine="53" d="M262.89,162.024 C258.066,167.304 253.566,173.43 250.8,180 C245.028,193.716 244.734,210.762 245.622,223.23 " fill="none" id="Questionnaire-to-Identifier" style="stroke:#222222;stroke-width:0.6;"/><polygon fill="#222222" points="245.868,226.296,247.8285,220.7214,245.6281,223.3056,243.0438,221.1052,245.868,226.296" style="stroke:#222222;stroke-width:0.6;"/><text fill="#000000" font-family="sans-serif" font-size="7.8" lengthAdjust="spacing" textLength="41.4" x="251.4" y="188.6971">identified by</text><text fill="#000000" font-family="sans-serif" font-size="7.8" lengthAdjust="spacing" textLength="4.2" x="240.6852" y="220.0753">1</text><!--MD5=[4ad0e557b164353030f07b8b003ed94b]
link Questionnaire to Titulo--><path codeLine="54" d="M251.37,158.268 C235.146,166.962 216.564,179.472 204.6,195.6 C182.928,224.814 209.37,250.476 181.8,274.2 C145.908,305.088 110.994,256.188 76.2,288.3 C50.01,312.474 48.84,357.852 50.412,382.44 " fill="none" id="Questionnaire-to-Titulo" style="stroke:#222222;stroke-width:0.6;"/><polygon fill="#222222" points="50.628,385.476,52.636,379.9183,50.4136,382.4837,47.8483,380.2613,50.628,385.476" style="stroke:#222222;stroke-width:0.6;"/><text fill="#000000" font-family="sans-serif" font-size="7.8" lengthAdjust="spacing" textLength="57.6" x="76.8" y="296.9971">characterized by</text><text fill="#000000" font-family="sans-serif" font-size="7.8" lengthAdjust="spacing" textLength="4.2" x="45.487" y="379.0595">1</text><!--MD5=[b696308ae9de28b13e6d8d10162b8cf8]
link Questionnaire to Period--><path codeLine="55" d="M251.346,144.3 C213.834,146.316 151.938,153.768 106.2,180 C93.678,187.182 82.506,198.312 73.626,209.064 " fill="none" id="Questionnaire-to-Period" style="stroke:#222222;stroke-width:0.6;"/><polygon fill="#222222" points="71.646,211.494,76.9139,208.8164,73.5378,209.1657,73.1885,205.7896,71.646,211.494" style="stroke:#222222;stroke-width:0.6;"/><text fill="#000000" font-family="sans-serif" font-size="7.8" lengthAdjust="spacing" textLength="29.4" x="106.8" y="188.6971">available</text><text fill="#000000" font-family="sans-serif" font-size="7.8" lengthAdjust="spacing" textLength="4.2" x="69.9937" y="204.996">1</text><!--MD5=[889beea7a927af861aca0f4eadf63e0a]
link Questionnaire to Rule--><path codeLine="56" d="M251.262,148.338 C215.52,154.038 161.868,164.85 148.2,180 C137.748,191.586 136.14,209.784 136.662,223.158 " fill="none" id="Questionnaire-to-Rule" style="stroke:#222222;stroke-width:0.6;"/><polygon fill="#222222" points="136.824,226.278,138.9427,220.7615,136.6695,223.282,134.149,221.0088,136.824,226.278" style="stroke:#222222;stroke-width:0.6;"/><text fill="#000000" font-family="sans-serif" font-size="7.8" lengthAdjust="spacing" textLength="38.4" x="148.8" y="188.6971">determined</text><text fill="#000000" font-family="sans-serif" font-size="7.8" lengthAdjust="spacing" textLength="4.2" x="131.6792" y="220.053">1</text><!--MD5=[3da50156e7717b39021783dfd0973443]
link Questionnaire to Section--><path codeLine="57" d="M291.942,162.096 C297.816,176.43 306.066,196.56 312.726,212.802 " fill="none" id="Questionnaire-to-Section" style="stroke:#222222;stroke-width:0.6;"/><polygon fill="#222222" points="313.866,215.58,314.0292,209.6729,312.7238,212.806,309.5907,211.5005,313.866,215.58" style="stroke:#222222;stroke-width:0.6;"/><text fill="#000000" font-family="sans-serif" font-size="7.8" lengthAdjust="spacing" textLength="33.6" x="303.6" y="188.6971">organized</text><text fill="#000000" font-family="sans-serif" font-size="7.8" lengthAdjust="spacing" textLength="12" x="299.1938" y="209.1129">1..*</text><!--MD5=[fcb611578ef5890b8b4f350926b49dd5]
link Questionnaire to Message--><path codeLine="58" d="M317.592,157.002 C333.306,165.384 350.118,177.996 357,195.6 C378.744,251.214 360.306,274.494 333.6,327.9 C311.382,372.336 317.49,394.44 278.4,425.1 C255.282,443.226 242.646,433.734 214.8,443.1 C202.314,447.3 200.004,450.81 187.2,453.9 C166.62,458.868 159.09,449.964 139.8,458.7 C127.944,464.07 117.216,474.012 109.416,482.664 " fill="none" id="Questionnaire-to-Message" style="stroke:#222222;stroke-width:0.6;"/><polygon fill="#222222" points="107.292,485.064,112.6634,482.6007,109.276,482.8137,109.063,479.4263,107.292,485.064" style="stroke:#222222;stroke-width:0.6;"/><text fill="#000000" font-family="sans-serif" font-size="7.8" lengthAdjust="spacing" textLength="37.8" x="339" y="325.7971">associated</text><text fill="#000000" font-family="sans-serif" font-size="7.8" lengthAdjust="spacing" textLength="13.2" x="111.7231" y="478.6445">1..2</text><!--MD5=[87fa8ff7d398728728a611d860795352]
link Section to Question--><path codeLine="59" d="M301.692,264.522 C287.778,281.778 274.11,306.078 283.2,327.9 C292.302,349.74 311.688,368.328 328.056,381.054 " fill="none" id="Section-to-Question" style="stroke:#222222;stroke-width:0.6;"/><polygon fill="#222222" points="330.444,382.89,327.6172,377.7007,328.0626,381.0654,324.6979,381.5109,330.444,382.89" style="stroke:#222222;stroke-width:0.6;"/><text fill="#000000" font-family="sans-serif" font-size="7.8" lengthAdjust="spacing" textLength="46.8" x="283.8" y="325.7971">composed by</text><text fill="#000000" font-family="sans-serif" font-size="7.8" lengthAdjust="spacing" textLength="12" x="313.7345" y="378.07">1..*</text><!--MD5=[f42145c61e51350e93da5533bd325aac]
link Section to Titulo--><path codeLine="60" d="M303.066,266.118 C299.352,269.28 295.284,272.13 291,274.2 C243.108,297.3 223.2,273.258 172.2,288.3 C144.288,296.532 135.786,298.506 113.4,317.1 C90.798,335.874 71.886,364.638 61.308,382.686 " fill="none" id="Section-to-Titulo" style="stroke:#222222;stroke-width:0.6;"/><polygon fill="#222222" points="59.682,385.488,64.4696,382.024,61.1888,382.8939,60.319,379.6131,59.682,385.488" style="stroke:#222222;stroke-width:0.6;"/><text fill="#000000" font-family="sans-serif" font-size="7.8" lengthAdjust="spacing" textLength="57.6" x="114" y="325.7971">characterized by</text><text fill="#000000" font-family="sans-serif" font-size="7.8" lengthAdjust="spacing" textLength="4.2" x="56.8611" y="379.0746">1</text><!--MD5=[d1bcfee18c22c660a2c5765cdd459525]
link Section to MandatoryCondition--><path codeLine="61" d="M301.626,266.046 C298.248,269.028 294.666,271.842 291,274.2 C276.132,283.764 269.478,280.128 253.8,288.3 C193.398,319.794 174.492,325.674 127.2,374.7 C108.81,393.762 115.632,408.012 95.4,425.1 C71.514,445.272 46.818,430.368 33.6,458.7 C20.526,486.732 17.424,501.936 33.6,528.3 C40.062,538.83 50.532,546.492 61.566,552.024 " fill="none" id="Section-to-MandatoryCondition" style="stroke:#222222;stroke-width:0.6;"/><polygon fill="#222222" points="64.38,553.386,60.5712,548.8679,61.6815,552.0753,58.4741,553.1855,64.38,553.386" style="stroke:#222222;stroke-width:0.6;"/><text fill="#000000" font-family="sans-serif" font-size="7.8" lengthAdjust="spacing" textLength="36" x="127.8" y="403.1971">dependent</text><text fill="#000000" font-family="sans-serif" font-size="7.8" lengthAdjust="spacing" textLength="4.2" x="55.5889" y="550.082">1</text><!--MD5=[9ebeb7444a702c89b50ba435810fc50c]
link Section to Message--><path codeLine="62" d="M301.584,263.784 C289.674,275.64 277.428,287.886 277.2,288.3 C264.63,311.292 267.414,319.848 264.6,345.9 C264.084,350.67 263.904,351.948 264.6,356.7 C265.812,364.962 268.788,366.438 270,374.7 C273.252,396.864 283.716,407.394 270,425.1 C260.85,436.914 152.904,451.524 139.8,458.7 C128.628,464.814 118.122,474.474 110.268,482.79 " fill="none" id="Section-to-Message" style="stroke:#222222;stroke-width:0.6;"/><polygon fill="#222222" points="108.12,485.094,113.5545,482.7733,110.1627,482.8968,110.0391,479.505,108.12,485.094" style="stroke:#222222;stroke-width:0.6;"/><text fill="#000000" font-family="sans-serif" font-size="7.8" lengthAdjust="spacing" textLength="37.8" x="265.2" y="354.5971">associated</text><text fill="#000000" font-family="sans-serif" font-size="7.8" lengthAdjust="spacing" textLength="13.2" x="96.1807" y="478.6821">0..1</text><!--MD5=[5cdb98ab5092f89550e36d3e1e1f4842]
link Section to Obligatoriness--><path codeLine="63" d="M301.782,264.978 C298.302,268.218 294.642,271.398 291,274.2 C281.196,281.748 276.132,279.954 267,288.3 C260.106,294.606 176.826,419.7 169.2,425.1 C125.466,456.072 85.584,415.848 53.4,458.7 C34.824,483.432 33.276,504.81 53.4,528.3 C59.94,535.938 190.272,552.918 255.822,561.024 " fill="none" id="Section-to-Obligatoriness" style="stroke:#222222;stroke-width:0.6;"/><polygon fill="#222222" points="258.894,561.402,253.8301,558.3561,255.9168,561.0331,253.2398,563.1197,258.894,561.402" style="stroke:#222222;stroke-width:0.6;"/><text fill="#000000" font-family="sans-serif" font-size="7.8" lengthAdjust="spacing" textLength="57.6" x="205.8" y="403.1971">characterized by</text><text fill="#000000" font-family="sans-serif" font-size="7.8" lengthAdjust="spacing" textLength="4.2" x="249.8557" y="558.6294">1</text><!--MD5=[4765df7eb0ad81544909bcf2bc6aa8a7]
link Question to MandatoryCondition--><path codeLine="64" d="M349.08,425.148 C345.6,438.198 341.46,451.938 339,453.9 C326.982,463.482 283.188,450.81 270,458.7 C238.638,477.468 255.174,506.022 226.2,528.3 C204.87,544.704 176.208,553.944 152.31,559.11 " fill="none" id="Question-to-MandatoryCondition" style="stroke:#222222;stroke-width:0.6;"/><polygon fill="#222222" points="149.124,559.782,154.9026,561.0181,152.0596,559.164,153.9137,556.321,149.124,559.782" style="stroke:#222222;stroke-width:0.6;"/><text fill="#000000" font-family="sans-serif" font-size="7.8" lengthAdjust="spacing" textLength="36" x="270.6" y="502.7971">dependent</text><text fill="#000000" font-family="sans-serif" font-size="7.8" lengthAdjust="spacing" textLength="4.2" x="153.9829" y="557.0684">1</text><!--MD5=[e0fffaa13fbd595c085593598a8eda75]
link Question to Type--><path codeLine="65" d="M330.576,419.016 C311.862,432.72 287.442,449.706 276,453.9 C257.61,460.638 250.26,451.128 232.2,458.7 C219.258,464.13 207.03,474.09 198,482.736 " fill="none" id="Question-to-Type" style="stroke:#222222;stroke-width:0.6;"/><polygon fill="#222222" points="195.774,484.902,201.3147,482.8475,197.9208,482.8065,197.9619,479.4126,195.774,484.902" style="stroke:#222222;stroke-width:0.6;"/><text fill="#000000" font-family="sans-serif" font-size="7.8" lengthAdjust="spacing" textLength="37.8" x="295.8" y="451.7971">associated</text><text fill="#000000" font-family="sans-serif" font-size="7.8" lengthAdjust="spacing" textLength="4.2" x="194.1758" y="478.6828">1</text><!--MD5=[65eba20e67aed00d6bc058cc024ab046]
link Question to Message--><path codeLine="66" d="M330.402,417.192 C325.266,420.15 319.776,422.958 314.4,425.1 C279.654,438.942 267.15,429.786 232.2,443.1 C223.05,446.586 222.384,451.11 213,453.9 C197.376,458.544 154.764,452.238 139.8,458.7 C127.848,463.86 117.12,473.796 109.344,482.502 " fill="none" id="Question-to-Message" style="stroke:#222222;stroke-width:0.6;"/><polygon fill="#222222" points="107.232,484.92,112.5934,482.4351,109.2069,482.6617,108.9802,479.2752,107.232,484.92" style="stroke:#222222;stroke-width:0.6;"/><text fill="#000000" font-family="sans-serif" font-size="7.8" lengthAdjust="spacing" textLength="37.8" x="232.8" y="451.7971">associated</text><text fill="#000000" font-family="sans-serif" font-size="7.8" lengthAdjust="spacing" textLength="13.2" x="95.0148" y="478.7052">2..3</text><!--MD5=[c854ca08d1f19f359862882e694a98e5]
link Question to Obligatoriness--><path codeLine="67" d="M350.736,425.244 C348.804,434.364 346.272,444.708 343.2,453.9 C331.554,488.73 312.678,527.37 301.632,548.82 " fill="none" id="Question-to-Obligatoriness" style="stroke:#222222;stroke-width:0.6;"/><polygon fill="#222222" points="300.192,551.604,304.8059,547.9119,301.5712,548.9398,300.5432,545.7051,300.192,551.604" style="stroke:#222222;stroke-width:0.6;"/><text fill="#000000" font-family="sans-serif" font-size="7.8" lengthAdjust="spacing" textLength="57.6" x="342" y="502.7971">characterized by</text><text fill="#000000" font-family="sans-serif" font-size="7.8" lengthAdjust="spacing" textLength="4.2" x="297.3481" y="545.1691">1</text><!--MD5=[6926d5174a3032b1dcc6c5d6f900c16b]
link Question to Answer--><path codeLine="68" d="M379.884,414.702 C412.356,433.392 469.104,466.044 501.558,484.722 " fill="none" id="Question-to-Answer" style="stroke:#222222;stroke-width:0.6;"/><polygon fill="#222222" points="504.24,486.264,500.7642,481.485,501.6422,484.7636,498.3636,485.6415,504.24,486.264" style="stroke:#222222;stroke-width:0.6;"/><text fill="#000000" font-family="sans-serif" font-size="7.8" lengthAdjust="spacing" textLength="12.6" x="446.4" y="451.7971">has</text><text fill="#000000" font-family="sans-serif" font-size="7.8" lengthAdjust="spacing" textLength="3" x="496.4014" y="481.0513">*</text><!--MD5=[de16eca91a7bf5f86af5328d73316339]
link Questionnaire to Notification--><path codeLine="78" d="M317.586,154.368 C342.858,163.314 377.904,177.516 405.6,195.6 C416.376,202.638 427.338,211.68 436.416,219.786 " fill="none" id="Questionnaire-to-Notification" style="stroke:#222222;stroke-width:0.6;"/><polygon fill="#222222" points="438.684,221.826,436.2654,216.4343,436.4503,219.8234,433.0612,220.0082,438.684,221.826" style="stroke:#222222;stroke-width:0.6;"/><text fill="#000000" font-family="sans-serif" font-size="7.8" lengthAdjust="spacing" textLength="19.2" x="396.6" y="188.6971">emits</text><text fill="#000000" font-family="sans-serif" font-size="7.8" lengthAdjust="spacing" textLength="12" x="421.5038" y="215.4034">1..*</text><!--MD5=[3d2d5cdd8aa6df365188843f8b3f5700]
link Client to Notification--><path codeLine="88" d="M457.8,63.102 C457.8,99.36 457.8,179.886 457.8,218.64 " fill="none" id="Client-to-Notification" style="stroke:#222222;stroke-width:0.6;"/><polygon fill="#222222" points="457.8,221.802,460.2,216.402,457.8,218.802,455.4,216.402,457.8,221.802" style="stroke:#222222;stroke-width:0.6;"/><text fill="#000000" font-family="sans-serif" font-size="7.8" lengthAdjust="spacing" textLength="24" x="458.4" y="146.3971">receive</text><text fill="#000000" font-family="sans-serif" font-size="7.8" lengthAdjust="spacing" textLength="12" x="444.5625" y="215.3745">1..*</text><!--MD5=[f24668853f4baed8c3652f719507667c]
link Client to Questionnaire--><path codeLine="89" d="M436.362,56.79 C407.178,73.254 354.57,102.924 319.56,122.67 " fill="none" id="Client-to-Questionnaire" style="stroke:#222222;stroke-width:0.6;"/><polygon fill="#222222" points="316.86,124.194,322.7417,123.6237,319.471,122.7167,320.378,119.446,316.86,124.194" style="stroke:#222222;stroke-width:0.6;"/><text fill="#000000" font-family="sans-serif" font-size="7.8" lengthAdjust="spacing" textLength="28.8" x="387" y="90.8971">answers</text><text fill="#000000" font-family="sans-serif" font-size="7.8" lengthAdjust="spacing" textLength="12" x="310.3174" y="117.8061">1..*</text><!--MD5=[ae98dd626aed4ceeb7e150ddb7f62a8f]
link Client to Answer--><path codeLine="90" d="M479.304,53.238 C510.018,67.026 562.8,97.284 562.8,142.5 C562.8,142.5 562.8,142.5 562.8,400.5 C562.8,430.812 547.35,463.272 536.526,482.292 " fill="none" id="Client-to-Answer" style="stroke:#222222;stroke-width:0.6;"/><polygon fill="#222222" points="534.966,485.004,539.745,481.5282,536.4664,482.4062,535.5885,479.1276,534.966,485.004" style="stroke:#222222;stroke-width:0.6;"/><text fill="#000000" font-family="sans-serif" font-size="7.8" lengthAdjust="spacing" textLength="28.2" x="563.4" y="296.9971">provides</text><text fill="#000000" font-family="sans-serif" font-size="7.8" lengthAdjust="spacing" textLength="3" x="533.8279" y="478.5691">*</text><!--MD5=[d4fa7bf2781c4f5324453c1130f6a3ad]
@startuml

skinparam classAttributeIconSize 0
hide empty attributes
skinparam classBackgroundColor beige
skinparam ArrowColor #222222

package "<<aggregate>> Answer" {
    entity Answer
}

package "<<aggregate>> Questionnaire" {
    entity Questionnaire
    class Identifier
    class Titulo
    class Message
    class Period
    class Rule
    entity Section
    entity Question
    class Obligatoriness
    class MandatoryCondition
    class Type
}

entity Questionnaire <<entity>> <<root>> {

}

class Identifier <<(V,#FF8B40) value object>>
class Titulo <<(V,#FF8B40) value object>>
class Message <<(V,#FF8B40) value object>>
class Obligatoriness <<(V,#FF8B40) value object>>
class Period <<(V,#FF8B40) value object>> {
- initialDate
- finalDate
- activeDays
}
class Rule <<(V,#FF8B40) value object>>
entity Section <<entity>> {
- id
- repeatability
}

class MandatoryCondition <<(V,#FF8B40) value object>>
entity Question <<entity>> {
- id
- options
}
entity Answer <<entity>> {
}
class Type <<(V,#FF8B40) value object>>

Questionnaire - -> "1" Identifier : identified by
Questionnaire - - -> "1" Titulo: characterized by
Questionnaire - -> "1" Period : available
Questionnaire - -> "1" Rule : determined
Questionnaire - -> "1..*" Section : organized
Questionnaire - -> "1..2" Message : associated
Section - - -> "1..*" Question: composed by
Section - - -> "1" Titulo: characterized by
Section - -> "1"  MandatoryCondition: dependent
Section - -> "0..1" Message : associated
Section - - -> "1" Obligatoriness: characterized by
Question - - -> "1" MandatoryCondition: dependent
Question - -> "1" Type: associated
Question - -> "2..3" Message: associated
Question - - -> "1" Obligatoriness: characterized by
Question- -> "*" Answer : has
package "<<aggregate>> Notification" {
    entity Notification
}

entity Notification <<entity>> <<root>> {


}

Questionnaire - -> "1..*" Notification : emits

package "<<aggregate>> Client" {
    entity Client
}

entity Client <<entity>> <<root>> {

}

Client - -> "1..*" Notification : receive
Client - -> "1..*" Questionnaire : answers
Client - -> "*" Answer: provides

@enduml

PlantUML version 1.2022.1(Tue Feb 01 18:19:58 GMT 2022)
(GPL source distribution)
Java Runtime: OpenJDK Runtime Environment
JVM: Dynamic Code Evolution 64-Bit Server VM
Default Encoding: Cp1252
Language: pt
Country: PT
--></g></svg>