<?xml version="1.0" encoding="UTF-8" standalone="no"?><svg xmlns="http://www.w3.org/2000/svg" xmlns:xlink="http://www.w3.org/1999/xlink" contentStyleType="text/css" height="1926px" preserveAspectRatio="none" style="width:1743px;height:1926px;background:#FFFFFF;" version="1.1" viewBox="0 0 1743 1926" width="1743px" zoomAndPan="magnify"><defs/><g><rect fill="#FFFFFF" height="1715.2813" style="stroke:#181818;stroke-width:1.0;" width="10" x="72.5" y="96.2188"/><rect fill="#FFFFFF" height="648.8828" style="stroke:#181818;stroke-width:1.0;" width="10" x="336.5" y="134.9219"/><rect fill="#FFFFFF" height="467.4766" style="stroke:#181818;stroke-width:1.0;" width="10" x="336.5" y="814.1563"/><rect fill="#FFFFFF" height="499.5156" style="stroke:#181818;stroke-width:1.0;" width="10" x="336.5" y="1311.9844"/><rect fill="#FFFFFF" height="30" style="stroke:#181818;stroke-width:1.0;" width="10" x="678.5" y="165.2734"/><rect fill="#FFFFFF" height="511.4766" style="stroke:#181818;stroke-width:1.0;" width="10" x="678.5" y="225.625"/><rect fill="#FFFFFF" height="390.4219" style="stroke:#181818;stroke-width:1.0;" width="10" x="678.5" y="844.5078"/><rect fill="#FFFFFF" height="478.1641" style="stroke:#181818;stroke-width:1.0;" width="10" x="678.5" y="1342.3359"/><rect fill="#FFFFFF" height="90.7031" style="stroke:#181818;stroke-width:1.0;" width="10" x="846.5" y="255.9766"/><rect fill="#FFFFFF" height="30" style="stroke:#181818;stroke-width:1.0;" width="10" x="989.5" y="286.3281"/><rect fill="#FFFFFF" height="90.7031" style="stroke:#181818;stroke-width:1.0;" width="10" x="989.5" y="377.0313"/><rect fill="#FFFFFF" height="90.7031" style="stroke:#181818;stroke-width:1.0;" width="10" x="989.5" y="874.8594"/><rect fill="#FFFFFF" height="30" style="stroke:#181818;stroke-width:1.0;" width="10" x="1120" y="407.3828"/><rect fill="#FFFFFF" height="239.0156" style="stroke:#181818;stroke-width:1.0;" width="10" x="1120" y="498.0859"/><rect fill="#FFFFFF" height="28" style="stroke:#181818;stroke-width:1.0;" width="10" x="1125" y="664.75"/><rect fill="#FFFFFF" height="30" style="stroke:#181818;stroke-width:1.0;" width="10" x="1120" y="1372.6875"/><rect fill="#FFFFFF" height="30" style="stroke:#181818;stroke-width:1.0;" width="10" x="1120" y="1493.3906"/><rect fill="#FFFFFF" height="30" style="stroke:#181818;stroke-width:1.0;" width="10" x="1120" y="1614.0938"/><rect fill="#FFFFFF" height="30" style="stroke:#181818;stroke-width:1.0;" width="10" x="1120" y="1734.7969"/><rect fill="#FFFFFF" height="30" style="stroke:#181818;stroke-width:1.0;" width="10" x="1383" y="905.2109"/><rect fill="#FFFFFF" height="239.0156" style="stroke:#181818;stroke-width:1.0;" width="10" x="1383" y="995.9141"/><rect fill="#FFFFFF" height="28" style="stroke:#181818;stroke-width:1.0;" width="10" x="1388" y="1162.5781"/><rect fill="#FFFFFF" height="30" style="stroke:#181818;stroke-width:1.0;" width="10" x="1383" y="1433.0391"/><rect fill="#FFFFFF" height="30" style="stroke:#181818;stroke-width:1.0;" width="10" x="1383" y="1553.7422"/><rect fill="#FFFFFF" height="30" style="stroke:#181818;stroke-width:1.0;" width="10" x="1383" y="1674.4453"/><rect fill="#FFFFFF" height="30" style="stroke:#181818;stroke-width:1.0;" width="10" x="1591" y="596.3984"/><rect fill="#FFFFFF" height="30" style="stroke:#181818;stroke-width:1.0;" width="10" x="1692" y="1094.2266"/><rect height="194.6641" style="stroke:#000000;stroke-width:1.5;fill:none;" width="607.5" x="1059.5" y="513.0859"/><rect height="194.6641" style="stroke:#000000;stroke-width:1.5;fill:none;" width="410.5" x="1326.5" y="1010.9141"/><line style="stroke:#181818;stroke-width:0.5;fill:none;stroke-dasharray:5.0,5.0;" x1="77" x2="77" y1="86.2188" y2="1829.5"/><line style="stroke:#181818;stroke-width:0.5;fill:none;stroke-dasharray:5.0,5.0;" x1="341.5" x2="341.5" y1="86.2188" y2="1829.5"/><line style="stroke:#181818;stroke-width:0.5;fill:none;stroke-dasharray:5.0,5.0;" x1="683.5" x2="683.5" y1="86.2188" y2="1829.5"/><line style="stroke:#181818;stroke-width:0.5;fill:none;stroke-dasharray:5.0,5.0;" x1="851.5" x2="851.5" y1="86.2188" y2="1829.5"/><line style="stroke:#181818;stroke-width:0.5;fill:none;stroke-dasharray:5.0,5.0;" x1="994.5" x2="994.5" y1="86.2188" y2="1829.5"/><line style="stroke:#181818;stroke-width:0.5;fill:none;stroke-dasharray:5.0,5.0;" x1="1124.5" x2="1124.5" y1="86.2188" y2="1829.5"/><line style="stroke:#181818;stroke-width:0.5;fill:none;stroke-dasharray:5.0,5.0;" x1="1387.5" x2="1387.5" y1="86.2188" y2="1829.5"/><line style="stroke:#181818;stroke-width:0.5;fill:none;stroke-dasharray:5.0,5.0;" x1="1596" x2="1596" y1="562.7422" y2="1829.5"/><line style="stroke:#181818;stroke-width:0.5;fill:none;stroke-dasharray:5.0,5.0;" x1="1697" x2="1697" y1="1060.5703" y2="1829.5"/><text fill="#000000" font-family="sans-serif" font-size="14" lengthAdjust="spacing" textLength="139" x="5" y="83.1426">Warehouse Employee</text><ellipse cx="77.5" cy="17.1094" fill="#E2E2F0" rx="8" ry="8" style="stroke:#181818;stroke-width:0.5;"/><path d="M77.5,25.1094 L77.5,52.1094 M64.5,33.1094 L90.5,33.1094 M77.5,52.1094 L64.5,67.1094 M77.5,52.1094 L90.5,67.1094 " fill="none" style="stroke:#181818;stroke-width:0.5;"/><text fill="#000000" font-family="sans-serif" font-size="14" lengthAdjust="spacing" textLength="139" x="5" y="1843.0332">Warehouse Employee</text><ellipse cx="77.5" cy="1854.6094" fill="#E2E2F0" rx="8" ry="8" style="stroke:#181818;stroke-width:0.5;"/><path d="M77.5,1862.6094 L77.5,1889.6094 M64.5,1870.6094 L90.5,1870.6094 M77.5,1889.6094 L64.5,1904.6094 M77.5,1889.6094 L90.5,1904.6094 " fill="none" style="stroke:#181818;stroke-width:0.5;"/><rect fill="#E2E2F0" height="31.6094" rx="2.5" ry="2.5" style="stroke:#181818;stroke-width:0.5;" width="130" x="276.5" y="53.6094"/><text fill="#000000" font-family="sans-serif" font-size="14" lengthAdjust="spacing" textLength="116" x="283.5" y="75.1426">ForceOrderPrepUI</text><rect fill="#E2E2F0" height="31.6094" rx="2.5" ry="2.5" style="stroke:#181818;stroke-width:0.5;" width="130" x="276.5" y="1828.5"/><text fill="#000000" font-family="sans-serif" font-size="14" lengthAdjust="spacing" textLength="116" x="283.5" y="1850.0332">ForceOrderPrepUI</text><rect fill="#E2E2F0" height="31.6094" rx="2.5" ry="2.5" style="stroke:#181818;stroke-width:0.5;" width="180" x="593.5" y="53.6094"/><text fill="#000000" font-family="sans-serif" font-size="14" lengthAdjust="spacing" textLength="166" x="600.5" y="75.1426">ForceOrderPrepController</text><rect fill="#E2E2F0" height="31.6094" rx="2.5" ry="2.5" style="stroke:#181818;stroke-width:0.5;" width="180" x="593.5" y="1828.5"/><text fill="#000000" font-family="sans-serif" font-size="14" lengthAdjust="spacing" textLength="166" x="600.5" y="1850.0332">ForceOrderPrepController</text><rect fill="#E2E2F0" height="49.2188" rx="2.5" ry="2.5" style="stroke:#181818;stroke-width:0.5;" width="136" x="783.5" y="36"/><text fill="#000000" font-family="sans-serif" font-size="14" font-style="italic" lengthAdjust="spacing" textLength="89" x="807" y="57.5332">«persistence»</text><text fill="#000000" font-family="sans-serif" font-size="14" lengthAdjust="spacing" textLength="122" x="790.5" y="75.1426">PersistenceContext</text><rect fill="#E2E2F0" height="49.2188" rx="2.5" ry="2.5" style="stroke:#181818;stroke-width:0.5;" width="136" x="783.5" y="1828.5"/><text fill="#000000" font-family="sans-serif" font-size="14" font-style="italic" lengthAdjust="spacing" textLength="89" x="807" y="1850.0332">«persistence»</text><text fill="#000000" font-family="sans-serif" font-size="14" lengthAdjust="spacing" textLength="122" x="790.5" y="1867.6426">PersistenceContext</text><rect fill="#E2E2F0" height="49.2188" rx="2.5" ry="2.5" style="stroke:#181818;stroke-width:0.5;" width="130" x="929.5" y="36"/><text fill="#000000" font-family="sans-serif" font-size="14" font-style="italic" lengthAdjust="spacing" textLength="59" x="965" y="57.5332">«factory»</text><text fill="#000000" font-family="sans-serif" font-size="14" lengthAdjust="spacing" textLength="116" x="936.5" y="75.1426">RepositoryFactory</text><rect fill="#E2E2F0" height="49.2188" rx="2.5" ry="2.5" style="stroke:#181818;stroke-width:0.5;" width="130" x="929.5" y="1828.5"/><text fill="#000000" font-family="sans-serif" font-size="14" font-style="italic" lengthAdjust="spacing" textLength="59" x="965" y="1850.0332">«factory»</text><text fill="#000000" font-family="sans-serif" font-size="14" lengthAdjust="spacing" textLength="116" x="936.5" y="1867.6426">RepositoryFactory</text><text fill="#000000" font-family="sans-serif" font-size="14" font-style="italic" lengthAdjust="spacing" textLength="79" x="1082.5" y="65.5332">«repository»</text><text fill="#000000" font-family="sans-serif" font-size="14" lengthAdjust="spacing" textLength="105" x="1069.5" y="83.1426">OrderRepository</text><path d="M1107,15 C1107,5 1125,5 1125,5 C1125,5 1143,5 1143,15 L1143,41 C1143,51 1125,51 1125,51 C1125,51 1107,51 1107,41 L1107,15 " fill="#E2E2F0" style="stroke:#181818;stroke-width:1.5;"/><path d="M1107,15 C1107,25 1125,25 1125,25 C1125,25 1143,25 1143,15 " fill="none" style="stroke:#181818;stroke-width:1.5;"/><text fill="#000000" font-family="sans-serif" font-size="14" font-style="italic" lengthAdjust="spacing" textLength="79" x="1082.5" y="1843.0332">«repository»</text><text fill="#000000" font-family="sans-serif" font-size="14" lengthAdjust="spacing" textLength="105" x="1069.5" y="1860.6426">OrderRepository</text><path d="M1107,1873.7188 C1107,1863.7188 1125,1863.7188 1125,1863.7188 C1125,1863.7188 1143,1863.7188 1143,1873.7188 L1143,1899.7188 C1143,1909.7188 1125,1909.7188 1125,1909.7188 C1125,1909.7188 1107,1909.7188 1107,1899.7188 L1107,1873.7188 " fill="#E2E2F0" style="stroke:#181818;stroke-width:1.5;"/><path d="M1107,1873.7188 C1107,1883.7188 1125,1883.7188 1125,1883.7188 C1125,1883.7188 1143,1883.7188 1143,1873.7188 " fill="none" style="stroke:#181818;stroke-width:1.5;"/><text fill="#000000" font-family="sans-serif" font-size="14" font-style="italic" lengthAdjust="spacing" textLength="79" x="1345.5" y="65.5332">«repository»</text><text fill="#000000" font-family="sans-serif" font-size="14" lengthAdjust="spacing" textLength="97" x="1336.5" y="83.1426">AGVRepository</text><path d="M1370,15 C1370,5 1388,5 1388,5 C1388,5 1406,5 1406,15 L1406,41 C1406,51 1388,51 1388,51 C1388,51 1370,51 1370,41 L1370,15 " fill="#E2E2F0" style="stroke:#181818;stroke-width:1.5;"/><path d="M1370,15 C1370,25 1388,25 1388,25 C1388,25 1406,25 1406,15 " fill="none" style="stroke:#181818;stroke-width:1.5;"/><text fill="#000000" font-family="sans-serif" font-size="14" font-style="italic" lengthAdjust="spacing" textLength="79" x="1345.5" y="1843.0332">«repository»</text><text fill="#000000" font-family="sans-serif" font-size="14" lengthAdjust="spacing" textLength="97" x="1336.5" y="1860.6426">AGVRepository</text><path d="M1370,1873.7188 C1370,1863.7188 1388,1863.7188 1388,1863.7188 C1388,1863.7188 1406,1863.7188 1406,1873.7188 L1406,1899.7188 C1406,1909.7188 1388,1909.7188 1388,1909.7188 C1388,1909.7188 1370,1909.7188 1370,1899.7188 L1370,1873.7188 " fill="#E2E2F0" style="stroke:#181818;stroke-width:1.5;"/><path d="M1370,1873.7188 C1370,1883.7188 1388,1883.7188 1388,1883.7188 C1388,1883.7188 1406,1883.7188 1406,1873.7188 " fill="none" style="stroke:#181818;stroke-width:1.5;"/><rect fill="#E2E2F0" height="31.6094" rx="2.5" ry="2.5" style="stroke:#181818;stroke-width:0.5;" width="122" x="1535" y="1828.5"/><text fill="#000000" font-family="sans-serif" font-size="14" lengthAdjust="spacing" textLength="108" x="1542" y="1850.0332">ProductOrderDto</text><rect fill="#E2E2F0" height="31.6094" rx="2.5" ry="2.5" style="stroke:#181818;stroke-width:0.5;" width="60" x="1667" y="1828.5"/><text fill="#000000" font-family="sans-serif" font-size="14" lengthAdjust="spacing" textLength="46" x="1674" y="1850.0332">AgvDto</text><rect fill="#FFFFFF" height="1715.2813" style="stroke:#181818;stroke-width:1.0;" width="10" x="72.5" y="96.2188"/><rect fill="#FFFFFF" height="648.8828" style="stroke:#181818;stroke-width:1.0;" width="10" x="336.5" y="134.9219"/><rect fill="#FFFFFF" height="467.4766" style="stroke:#181818;stroke-width:1.0;" width="10" x="336.5" y="814.1563"/><rect fill="#FFFFFF" height="499.5156" style="stroke:#181818;stroke-width:1.0;" width="10" x="336.5" y="1311.9844"/><rect fill="#FFFFFF" height="30" style="stroke:#181818;stroke-width:1.0;" width="10" x="678.5" y="165.2734"/><rect fill="#FFFFFF" height="511.4766" style="stroke:#181818;stroke-width:1.0;" width="10" x="678.5" y="225.625"/><rect fill="#FFFFFF" height="390.4219" style="stroke:#181818;stroke-width:1.0;" width="10" x="678.5" y="844.5078"/><rect fill="#FFFFFF" height="478.1641" style="stroke:#181818;stroke-width:1.0;" width="10" x="678.5" y="1342.3359"/><rect fill="#FFFFFF" height="90.7031" style="stroke:#181818;stroke-width:1.0;" width="10" x="846.5" y="255.9766"/><rect fill="#FFFFFF" height="30" style="stroke:#181818;stroke-width:1.0;" width="10" x="989.5" y="286.3281"/><rect fill="#FFFFFF" height="90.7031" style="stroke:#181818;stroke-width:1.0;" width="10" x="989.5" y="377.0313"/><rect fill="#FFFFFF" height="90.7031" style="stroke:#181818;stroke-width:1.0;" width="10" x="989.5" y="874.8594"/><rect fill="#FFFFFF" height="30" style="stroke:#181818;stroke-width:1.0;" width="10" x="1120" y="407.3828"/><rect fill="#FFFFFF" height="239.0156" style="stroke:#181818;stroke-width:1.0;" width="10" x="1120" y="498.0859"/><rect fill="#FFFFFF" height="28" style="stroke:#181818;stroke-width:1.0;" width="10" x="1125" y="664.75"/><rect fill="#FFFFFF" height="30" style="stroke:#181818;stroke-width:1.0;" width="10" x="1120" y="1372.6875"/><rect fill="#FFFFFF" height="30" style="stroke:#181818;stroke-width:1.0;" width="10" x="1120" y="1493.3906"/><rect fill="#FFFFFF" height="30" style="stroke:#181818;stroke-width:1.0;" width="10" x="1120" y="1614.0938"/><rect fill="#FFFFFF" height="30" style="stroke:#181818;stroke-width:1.0;" width="10" x="1120" y="1734.7969"/><rect fill="#FFFFFF" height="30" style="stroke:#181818;stroke-width:1.0;" width="10" x="1383" y="905.2109"/><rect fill="#FFFFFF" height="239.0156" style="stroke:#181818;stroke-width:1.0;" width="10" x="1383" y="995.9141"/><rect fill="#FFFFFF" height="28" style="stroke:#181818;stroke-width:1.0;" width="10" x="1388" y="1162.5781"/><rect fill="#FFFFFF" height="30" style="stroke:#181818;stroke-width:1.0;" width="10" x="1383" y="1433.0391"/><rect fill="#FFFFFF" height="30" style="stroke:#181818;stroke-width:1.0;" width="10" x="1383" y="1553.7422"/><rect fill="#FFFFFF" height="30" style="stroke:#181818;stroke-width:1.0;" width="10" x="1383" y="1674.4453"/><rect fill="#FFFFFF" height="30" style="stroke:#181818;stroke-width:1.0;" width="10" x="1591" y="596.3984"/><rect fill="#FFFFFF" height="30" style="stroke:#181818;stroke-width:1.0;" width="10" x="1692" y="1094.2266"/><polygon fill="#181818" points="324.5,130.9219,334.5,134.9219,324.5,138.9219,328.5,134.9219" style="stroke:#181818;stroke-width:1.0;"/><line style="stroke:#181818;stroke-width:1.0;" x1="82.5" x2="330.5" y1="134.9219" y2="134.9219"/><text fill="#000000" font-family="sans-serif" font-size="13" font-weight="bold" lengthAdjust="spacing" textLength="7" x="89.5" y="121.8896">1</text><text fill="#000000" font-family="sans-serif" font-size="13" lengthAdjust="spacing" textLength="185" x="100.5" y="113.7139">Request to see the list of orders</text><text fill="#000000" font-family="sans-serif" font-size="13" lengthAdjust="spacing" textLength="127" x="100.5" y="130.0654">waiting to be prepared</text><polygon fill="#181818" points="666.5,161.2734,676.5,165.2734,666.5,169.2734,670.5,165.2734" style="stroke:#181818;stroke-width:1.0;"/><line style="stroke:#181818;stroke-width:1.0;" x1="346.5" x2="672.5" y1="165.2734" y2="165.2734"/><text fill="#000000" font-family="sans-serif" font-size="13" font-weight="bold" lengthAdjust="spacing" textLength="7" x="353.5" y="160.417">2</text><text fill="#000000" font-family="sans-serif" font-size="13" lengthAdjust="spacing" textLength="36" x="364.5" y="160.417">create</text><polygon fill="#181818" points="666.5,221.625,676.5,225.625,666.5,229.625,670.5,225.625" style="stroke:#181818;stroke-width:1.0;"/><line style="stroke:#181818;stroke-width:1.0;" x1="346.5" x2="672.5" y1="225.625" y2="225.625"/><text fill="#000000" font-family="sans-serif" font-size="13" font-weight="bold" lengthAdjust="spacing" textLength="7" x="353.5" y="220.7686">3</text><text fill="#000000" font-family="sans-serif" font-size="13" lengthAdjust="spacing" textLength="302" x="364.5" y="220.7686">ordersToBePreparedList = getOrdersToBePrepared()</text><polygon fill="#181818" points="834.5,251.9766,844.5,255.9766,834.5,259.9766,838.5,255.9766" style="stroke:#181818;stroke-width:1.0;"/><line style="stroke:#181818;stroke-width:1.0;" x1="688.5" x2="840.5" y1="255.9766" y2="255.9766"/><text fill="#000000" font-family="sans-serif" font-size="13" font-weight="bold" lengthAdjust="spacing" textLength="7" x="695.5" y="251.1201">4</text><text fill="#000000" font-family="sans-serif" font-size="13" lengthAdjust="spacing" textLength="75" x="706.5" y="251.1201">repositories()</text><polygon fill="#181818" points="977.5,282.3281,987.5,286.3281,977.5,290.3281,981.5,286.3281" style="stroke:#181818;stroke-width:1.0;"/><line style="stroke:#181818;stroke-width:1.0;" x1="856.5" x2="983.5" y1="286.3281" y2="286.3281"/><text fill="#000000" font-family="sans-serif" font-size="13" font-weight="bold" lengthAdjust="spacing" textLength="7" x="863.5" y="281.4717">5</text><text fill="#000000" font-family="sans-serif" font-size="13" lengthAdjust="spacing" textLength="44" x="874.5" y="281.4717">create()</text><polygon fill="#181818" points="699.5,342.6797,689.5,346.6797,699.5,350.6797,695.5,346.6797" style="stroke:#181818;stroke-width:1.0;"/><line style="stroke:#181818;stroke-width:1.0;stroke-dasharray:2.0,2.0;" x1="693.5" x2="850.5" y1="346.6797" y2="346.6797"/><text fill="#000000" font-family="sans-serif" font-size="13" font-weight="bold" lengthAdjust="spacing" textLength="7" x="705.5" y="341.8232">6</text><text fill="#000000" font-family="sans-serif" font-size="13" lengthAdjust="spacing" textLength="101" x="716.5" y="341.8232">repositoryFactory</text><polygon fill="#181818" points="977.5,373.0313,987.5,377.0313,977.5,381.0313,981.5,377.0313" style="stroke:#181818;stroke-width:1.0;"/><line style="stroke:#181818;stroke-width:1.0;" x1="688.5" x2="983.5" y1="377.0313" y2="377.0313"/><text fill="#000000" font-family="sans-serif" font-size="13" font-weight="bold" lengthAdjust="spacing" textLength="7" x="695.5" y="372.1748">7</text><text fill="#000000" font-family="sans-serif" font-size="13" lengthAdjust="spacing" textLength="120" x="706.5" y="372.1748">getOrderRepository()</text><polygon fill="#181818" points="1108,403.3828,1118,407.3828,1108,411.3828,1112,407.3828" style="stroke:#181818;stroke-width:1.0;"/><line style="stroke:#181818;stroke-width:1.0;" x1="999.5" x2="1114" y1="407.3828" y2="407.3828"/><text fill="#000000" font-family="sans-serif" font-size="13" font-weight="bold" lengthAdjust="spacing" textLength="7" x="1006.5" y="402.5264">8</text><text fill="#000000" font-family="sans-serif" font-size="13" lengthAdjust="spacing" textLength="44" x="1017.5" y="402.5264">create()</text><polygon fill="#181818" points="699.5,463.7344,689.5,467.7344,699.5,471.7344,695.5,467.7344" style="stroke:#181818;stroke-width:1.0;"/><line style="stroke:#181818;stroke-width:1.0;stroke-dasharray:2.0,2.0;" x1="693.5" x2="993.5" y1="467.7344" y2="467.7344"/><text fill="#000000" font-family="sans-serif" font-size="13" font-weight="bold" lengthAdjust="spacing" textLength="7" x="705.5" y="462.8779">9</text><text fill="#000000" font-family="sans-serif" font-size="13" lengthAdjust="spacing" textLength="91" x="716.5" y="462.8779">orderRepository</text><polygon fill="#181818" points="1108,494.0859,1118,498.0859,1108,502.0859,1112,498.0859" style="stroke:#181818;stroke-width:1.0;"/><line style="stroke:#181818;stroke-width:1.0;" x1="688.5" x2="1114" y1="498.0859" y2="498.0859"/><text fill="#000000" font-family="sans-serif" font-size="13" font-weight="bold" lengthAdjust="spacing" textLength="14" x="695.5" y="493.2295">10</text><text fill="#000000" font-family="sans-serif" font-size="13" lengthAdjust="spacing" textLength="192" x="713.5" y="493.2295">getProductOrdersToBePrepared()</text><path d="M1059.5,513.0859 L1132.5,513.0859 L1132.5,521.4375 L1122.5,531.4375 L1059.5,531.4375 L1059.5,513.0859 " fill="#EEEEEE" style="stroke:#000000;stroke-width:1.5;"/><rect fill="none" height="194.6641" style="stroke:#000000;stroke-width:1.5;" width="607.5" x="1059.5" y="513.0859"/><text fill="#000000" font-family="sans-serif" font-size="13" font-weight="bold" lengthAdjust="spacing" textLength="28" x="1074.5" y="527.5811">loop</text><text fill="#000000" font-family="sans-serif" font-size="11" font-weight="bold" lengthAdjust="spacing" textLength="89" x="1147.5" y="526.5049">[For each order]</text><polygon fill="#181818" points="1523,549.7891,1533,553.7891,1523,557.7891,1527,553.7891" style="stroke:#181818;stroke-width:1.0;"/><line style="stroke:#181818;stroke-width:1.0;" x1="1130" x2="1529" y1="553.7891" y2="553.7891"/><text fill="#000000" font-family="sans-serif" font-size="13" font-weight="bold" lengthAdjust="spacing" textLength="14" x="1137" y="548.9326">11</text><text fill="#000000" font-family="sans-serif" font-size="13" lengthAdjust="spacing" textLength="73" x="1155" y="548.9326">create(order)</text><rect fill="#E2E2F0" height="31.6094" rx="2.5" ry="2.5" style="stroke:#181818;stroke-width:0.5;" width="122" x="1535" y="531.4375"/><text fill="#000000" font-family="sans-serif" font-size="14" lengthAdjust="spacing" textLength="108" x="1542" y="552.9707">ProductOrderDto</text><polygon fill="#181818" points="1579,592.3984,1589,596.3984,1579,600.3984,1583,596.3984" style="stroke:#181818;stroke-width:1.0;"/><line style="stroke:#181818;stroke-width:1.0;" x1="1130" x2="1585" y1="596.3984" y2="596.3984"/><text fill="#000000" font-family="sans-serif" font-size="13" font-weight="bold" lengthAdjust="spacing" textLength="14" x="1137" y="591.542">12</text><text fill="#000000" font-family="sans-serif" font-size="13" lengthAdjust="spacing" textLength="143" x="1155" y="591.542">orderDto = getOrderDto()</text><line style="stroke:#181818;stroke-width:1.0;" x1="1135" x2="1177" y1="656.75" y2="656.75"/><line style="stroke:#181818;stroke-width:1.0;" x1="1177" x2="1177" y1="656.75" y2="669.75"/><line style="stroke:#181818;stroke-width:1.0;" x1="1136" x2="1177" y1="669.75" y2="669.75"/><polygon fill="#181818" points="1146,665.75,1136,669.75,1146,673.75,1142,669.75" style="stroke:#181818;stroke-width:1.0;"/><text fill="#000000" font-family="sans-serif" font-size="13" font-weight="bold" lengthAdjust="spacing" textLength="14" x="1142" y="651.8936">13</text><text fill="#000000" font-family="sans-serif" font-size="13" lengthAdjust="spacing" textLength="221" x="1160" y="651.8936">ordersToBePreparedList.add(orderDto)</text><polygon fill="#181818" points="694.5,733.1016,684.5,737.1016,694.5,741.1016,690.5,737.1016" style="stroke:#181818;stroke-width:1.0;"/><line style="stroke:#181818;stroke-width:1.0;stroke-dasharray:2.0,2.0;" x1="688.5" x2="1124" y1="737.1016" y2="737.1016"/><text fill="#000000" font-family="sans-serif" font-size="13" font-weight="bold" lengthAdjust="spacing" textLength="14" x="700.5" y="732.2451">14</text><text fill="#000000" font-family="sans-serif" font-size="13" lengthAdjust="spacing" textLength="139" x="718.5" y="732.2451">ordersToBePreparedList</text><polygon fill="#181818" points="93.5,779.8047,83.5,783.8047,93.5,787.8047,89.5,783.8047" style="stroke:#181818;stroke-width:1.0;"/><line style="stroke:#181818;stroke-width:1.0;stroke-dasharray:2.0,2.0;" x1="87.5" x2="340.5" y1="783.8047" y2="783.8047"/><text fill="#000000" font-family="sans-serif" font-size="13" font-weight="bold" lengthAdjust="spacing" textLength="14" x="99.5" y="770.7725">15</text><text fill="#000000" font-family="sans-serif" font-size="13" lengthAdjust="spacing" textLength="173" x="117.5" y="762.5967">Shows orders and requests to</text><text fill="#000000" font-family="sans-serif" font-size="13" lengthAdjust="spacing" textLength="60" x="117.5" y="778.9482">select one</text><polygon fill="#181818" points="324.5,810.1563,334.5,814.1563,324.5,818.1563,328.5,814.1563" style="stroke:#181818;stroke-width:1.0;"/><line style="stroke:#181818;stroke-width:1.0;" x1="82.5" x2="330.5" y1="814.1563" y2="814.1563"/><text fill="#000000" font-family="sans-serif" font-size="13" font-weight="bold" lengthAdjust="spacing" textLength="14" x="89.5" y="809.2998">16</text><text fill="#000000" font-family="sans-serif" font-size="13" lengthAdjust="spacing" textLength="145" x="107.5" y="809.2998">Selects the desired order</text><polygon fill="#181818" points="666.5,840.5078,676.5,844.5078,666.5,848.5078,670.5,844.5078" style="stroke:#181818;stroke-width:1.0;"/><line style="stroke:#181818;stroke-width:1.0;" x1="346.5" x2="672.5" y1="844.5078" y2="844.5078"/><text fill="#000000" font-family="sans-serif" font-size="13" font-weight="bold" lengthAdjust="spacing" textLength="14" x="353.5" y="839.6514">17</text><text fill="#000000" font-family="sans-serif" font-size="13" lengthAdjust="spacing" textLength="234" x="371.5" y="839.6514">availableAGVlist = showAvailableAGVs()</text><polygon fill="#181818" points="977.5,870.8594,987.5,874.8594,977.5,878.8594,981.5,874.8594" style="stroke:#181818;stroke-width:1.0;"/><line style="stroke:#181818;stroke-width:1.0;" x1="688.5" x2="983.5" y1="874.8594" y2="874.8594"/><text fill="#000000" font-family="sans-serif" font-size="13" font-weight="bold" lengthAdjust="spacing" textLength="14" x="695.5" y="870.0029">18</text><text fill="#000000" font-family="sans-serif" font-size="13" lengthAdjust="spacing" textLength="116" x="713.5" y="870.0029">getAGVRepository()</text><polygon fill="#181818" points="1371,901.2109,1381,905.2109,1371,909.2109,1375,905.2109" style="stroke:#181818;stroke-width:1.0;"/><line style="stroke:#181818;stroke-width:1.0;" x1="999.5" x2="1377" y1="905.2109" y2="905.2109"/><text fill="#000000" font-family="sans-serif" font-size="13" font-weight="bold" lengthAdjust="spacing" textLength="14" x="1006.5" y="900.3545">19</text><text fill="#000000" font-family="sans-serif" font-size="13" lengthAdjust="spacing" textLength="44" x="1024.5" y="900.3545">create()</text><polygon fill="#181818" points="699.5,961.5625,689.5,965.5625,699.5,969.5625,695.5,965.5625" style="stroke:#181818;stroke-width:1.0;"/><line style="stroke:#181818;stroke-width:1.0;stroke-dasharray:2.0,2.0;" x1="693.5" x2="993.5" y1="965.5625" y2="965.5625"/><text fill="#000000" font-family="sans-serif" font-size="13" font-weight="bold" lengthAdjust="spacing" textLength="14" x="705.5" y="960.7061">20</text><text fill="#000000" font-family="sans-serif" font-size="13" lengthAdjust="spacing" textLength="81" x="723.5" y="960.7061">agvRepository</text><polygon fill="#181818" points="1371,991.9141,1381,995.9141,1371,999.9141,1375,995.9141" style="stroke:#181818;stroke-width:1.0;"/><line style="stroke:#181818;stroke-width:1.0;" x1="688.5" x2="1377" y1="995.9141" y2="995.9141"/><text fill="#000000" font-family="sans-serif" font-size="13" font-weight="bold" lengthAdjust="spacing" textLength="14" x="695.5" y="991.0576">21</text><text fill="#000000" font-family="sans-serif" font-size="13" lengthAdjust="spacing" textLength="112" x="713.5" y="991.0576">getAGVsAvailable()</text><path d="M1326.5,1010.9141 L1399.5,1010.9141 L1399.5,1019.2656 L1389.5,1029.2656 L1326.5,1029.2656 L1326.5,1010.9141 " fill="#EEEEEE" style="stroke:#000000;stroke-width:1.5;"/><rect fill="none" height="194.6641" style="stroke:#000000;stroke-width:1.5;" width="410.5" x="1326.5" y="1010.9141"/><text fill="#000000" font-family="sans-serif" font-size="13" font-weight="bold" lengthAdjust="spacing" textLength="28" x="1341.5" y="1025.4092">loop</text><text fill="#000000" font-family="sans-serif" font-size="11" font-weight="bold" lengthAdjust="spacing" textLength="77" x="1414.5" y="1024.333">[For each agv]</text><polygon fill="#181818" points="1655,1047.6172,1665,1051.6172,1655,1055.6172,1659,1051.6172" style="stroke:#181818;stroke-width:1.0;"/><line style="stroke:#181818;stroke-width:1.0;" x1="1393" x2="1661" y1="1051.6172" y2="1051.6172"/><text fill="#000000" font-family="sans-serif" font-size="13" font-weight="bold" lengthAdjust="spacing" textLength="14" x="1400" y="1046.7607">22</text><text fill="#000000" font-family="sans-serif" font-size="13" lengthAdjust="spacing" textLength="63" x="1418" y="1046.7607">create(agv)</text><rect fill="#E2E2F0" height="31.6094" rx="2.5" ry="2.5" style="stroke:#181818;stroke-width:0.5;" width="60" x="1667" y="1029.2656"/><text fill="#000000" font-family="sans-serif" font-size="14" lengthAdjust="spacing" textLength="46" x="1674" y="1050.7988">AgvDto</text><polygon fill="#181818" points="1680,1090.2266,1690,1094.2266,1680,1098.2266,1684,1094.2266" style="stroke:#181818;stroke-width:1.0;"/><line style="stroke:#181818;stroke-width:1.0;" x1="1393" x2="1686" y1="1094.2266" y2="1094.2266"/><text fill="#000000" font-family="sans-serif" font-size="13" font-weight="bold" lengthAdjust="spacing" textLength="14" x="1400" y="1089.3701">23</text><text fill="#000000" font-family="sans-serif" font-size="13" lengthAdjust="spacing" textLength="122" x="1418" y="1089.3701">agvDto = getAgvDto()</text><line style="stroke:#181818;stroke-width:1.0;" x1="1398" x2="1440" y1="1154.5781" y2="1154.5781"/><line style="stroke:#181818;stroke-width:1.0;" x1="1440" x2="1440" y1="1154.5781" y2="1167.5781"/><line style="stroke:#181818;stroke-width:1.0;" x1="1399" x2="1440" y1="1167.5781" y2="1167.5781"/><polygon fill="#181818" points="1409,1163.5781,1399,1167.5781,1409,1171.5781,1405,1167.5781" style="stroke:#181818;stroke-width:1.0;"/><text fill="#000000" font-family="sans-serif" font-size="13" font-weight="bold" lengthAdjust="spacing" textLength="14" x="1405" y="1149.7217">24</text><text fill="#000000" font-family="sans-serif" font-size="13" lengthAdjust="spacing" textLength="166" x="1423" y="1149.7217">availableAGVlist.add(agvDto)</text><polygon fill="#181818" points="694.5,1230.9297,684.5,1234.9297,694.5,1238.9297,690.5,1234.9297" style="stroke:#181818;stroke-width:1.0;"/><line style="stroke:#181818;stroke-width:1.0;stroke-dasharray:2.0,2.0;" x1="688.5" x2="1387" y1="1234.9297" y2="1234.9297"/><text fill="#000000" font-family="sans-serif" font-size="13" font-weight="bold" lengthAdjust="spacing" textLength="14" x="700.5" y="1230.0732">25</text><text fill="#000000" font-family="sans-serif" font-size="13" lengthAdjust="spacing" textLength="77" x="718.5" y="1230.0732">agvsAvailable</text><polygon fill="#181818" points="93.5,1277.6328,83.5,1281.6328,93.5,1285.6328,89.5,1281.6328" style="stroke:#181818;stroke-width:1.0;"/><line style="stroke:#181818;stroke-width:1.0;stroke-dasharray:2.0,2.0;" x1="87.5" x2="340.5" y1="1281.6328" y2="1281.6328"/><text fill="#000000" font-family="sans-serif" font-size="13" font-weight="bold" lengthAdjust="spacing" textLength="14" x="99.5" y="1268.6006">26</text><text fill="#000000" font-family="sans-serif" font-size="13" lengthAdjust="spacing" textLength="154" x="117.5" y="1260.4248">shows available AGVs and</text><text fill="#000000" font-family="sans-serif" font-size="13" lengthAdjust="spacing" textLength="122" x="117.5" y="1276.7764">request to select one</text><polygon fill="#181818" points="324.5,1307.9844,334.5,1311.9844,324.5,1315.9844,328.5,1311.9844" style="stroke:#181818;stroke-width:1.0;"/><line style="stroke:#181818;stroke-width:1.0;" x1="82.5" x2="330.5" y1="1311.9844" y2="1311.9844"/><text fill="#000000" font-family="sans-serif" font-size="13" font-weight="bold" lengthAdjust="spacing" textLength="14" x="89.5" y="1307.1279">27</text><text fill="#000000" font-family="sans-serif" font-size="13" lengthAdjust="spacing" textLength="144" x="107.5" y="1307.1279">Selects the desired AGV</text><polygon fill="#181818" points="666.5,1338.3359,676.5,1342.3359,666.5,1346.3359,670.5,1342.3359" style="stroke:#181818;stroke-width:1.0;"/><line style="stroke:#181818;stroke-width:1.0;" x1="346.5" x2="672.5" y1="1342.3359" y2="1342.3359"/><text fill="#000000" font-family="sans-serif" font-size="13" font-weight="bold" lengthAdjust="spacing" textLength="14" x="353.5" y="1337.4795">28</text><text fill="#000000" font-family="sans-serif" font-size="13" lengthAdjust="spacing" textLength="213" x="371.5" y="1337.4795">forceOrderPrep(productOrderid,agvid)</text><polygon fill="#181818" points="1108,1368.6875,1118,1372.6875,1108,1376.6875,1112,1372.6875" style="stroke:#181818;stroke-width:1.0;"/><line style="stroke:#181818;stroke-width:1.0;" x1="688.5" x2="1114" y1="1372.6875" y2="1372.6875"/><text fill="#000000" font-family="sans-serif" font-size="13" font-weight="bold" lengthAdjust="spacing" textLength="14" x="695.5" y="1367.8311">29</text><text fill="#000000" font-family="sans-serif" font-size="13" lengthAdjust="spacing" textLength="188" x="713.5" y="1367.8311">order = getOrder(productOrderid)</text><polygon fill="#181818" points="1371,1429.0391,1381,1433.0391,1371,1437.0391,1375,1433.0391" style="stroke:#181818;stroke-width:1.0;"/><line style="stroke:#181818;stroke-width:1.0;" x1="688.5" x2="1377" y1="1433.0391" y2="1433.0391"/><text fill="#000000" font-family="sans-serif" font-size="13" font-weight="bold" lengthAdjust="spacing" textLength="14" x="695.5" y="1428.1826">30</text><text fill="#000000" font-family="sans-serif" font-size="13" lengthAdjust="spacing" textLength="138" x="713.5" y="1428.1826">agv1 = getAGVSt(agvid)</text><polygon fill="#181818" points="1108,1489.3906,1118,1493.3906,1108,1497.3906,1112,1493.3906" style="stroke:#181818;stroke-width:1.0;"/><line style="stroke:#181818;stroke-width:1.0;" x1="688.5" x2="1114" y1="1493.3906" y2="1493.3906"/><text fill="#000000" font-family="sans-serif" font-size="13" font-weight="bold" lengthAdjust="spacing" textLength="14" x="695.5" y="1488.5342">31</text><text fill="#000000" font-family="sans-serif" font-size="13" lengthAdjust="spacing" textLength="232" x="713.5" y="1488.5342">changeProductOrderStatus(orderStatus)</text><polygon fill="#181818" points="1371,1549.7422,1381,1553.7422,1371,1557.7422,1375,1553.7422" style="stroke:#181818;stroke-width:1.0;"/><line style="stroke:#181818;stroke-width:1.0;" x1="688.5" x2="1377" y1="1553.7422" y2="1553.7422"/><text fill="#000000" font-family="sans-serif" font-size="13" font-weight="bold" lengthAdjust="spacing" textLength="14" x="695.5" y="1548.8857">32</text><text fill="#000000" font-family="sans-serif" font-size="13" lengthAdjust="spacing" textLength="194" x="713.5" y="1548.8857">changeAGVStatusForOccupied())</text><polygon fill="#181818" points="1108,1610.0938,1118,1614.0938,1108,1618.0938,1112,1614.0938" style="stroke:#181818;stroke-width:1.0;"/><line style="stroke:#181818;stroke-width:1.0;" x1="688.5" x2="1114" y1="1614.0938" y2="1614.0938"/><text fill="#000000" font-family="sans-serif" font-size="13" font-weight="bold" lengthAdjust="spacing" textLength="14" x="695.5" y="1609.2373">33</text><text fill="#000000" font-family="sans-serif" font-size="13" lengthAdjust="spacing" textLength="128" x="713.5" y="1609.2373">preparedByAGV(agv1)</text><polygon fill="#181818" points="1371,1670.4453,1381,1674.4453,1371,1678.4453,1375,1674.4453" style="stroke:#181818;stroke-width:1.0;"/><line style="stroke:#181818;stroke-width:1.0;" x1="688.5" x2="1377" y1="1674.4453" y2="1674.4453"/><text fill="#000000" font-family="sans-serif" font-size="13" font-weight="bold" lengthAdjust="spacing" textLength="14" x="695.5" y="1669.5889">34</text><text fill="#000000" font-family="sans-serif" font-size="13" lengthAdjust="spacing" textLength="60" x="713.5" y="1669.5889">save(agv1)</text><polygon fill="#181818" points="1108,1730.7969,1118,1734.7969,1108,1738.7969,1112,1734.7969" style="stroke:#181818;stroke-width:1.0;"/><line style="stroke:#181818;stroke-width:1.0;" x1="688.5" x2="1114" y1="1734.7969" y2="1734.7969"/><text fill="#000000" font-family="sans-serif" font-size="13" font-weight="bold" lengthAdjust="spacing" textLength="14" x="695.5" y="1729.9404">35</text><text fill="#000000" font-family="sans-serif" font-size="13" lengthAdjust="spacing" textLength="63" x="713.5" y="1729.9404">save(order)</text><polygon fill="#181818" points="88.5,1807.5,78.5,1811.5,88.5,1815.5,84.5,1811.5" style="stroke:#181818;stroke-width:1.0;"/><line style="stroke:#181818;stroke-width:1.0;stroke-dasharray:2.0,2.0;" x1="82.5" x2="340.5" y1="1811.5" y2="1811.5"/><text fill="#000000" font-family="sans-serif" font-size="13" font-weight="bold" lengthAdjust="spacing" textLength="14" x="94.5" y="1798.4678">36</text><text fill="#000000" font-family="sans-serif" font-size="13" lengthAdjust="spacing" textLength="164" x="112.5" y="1790.292">sent's task to AGV, updates</text><text fill="#000000" font-family="sans-serif" font-size="13" lengthAdjust="spacing" textLength="212" x="112.5" y="1806.6436">status and shows operation success</text><!--MD5=[dfb75c6947a26caff206c5bc0a90d1aa]
@startuml
autonumber
actor "Warehouse Employee" as WE
participant "ForceOrderPrepUI" as UI
participant "ForceOrderPrepController" as CTR
participant PersistenceContext as PERSISTENCE <<persistence>>
participant RepositoryFactory as FACTORY <<factory>>
database OrderRepository as REPOSITORY_ORDERS <<repository>>
database AGVRepository as REPOSITORY_AGV <<repository>>
participant ProductOrderDto as PODTO
participant AgvDto as AGVDTO

activate WE
WE -> UI : Request to see the list of orders \nwaiting to be prepared
activate UI
UI -> CTR : create
activate CTR
deactivate CTR
UI -> CTR : ordersToBePreparedList = getOrdersToBePrepared()
activate CTR

CTR -> PERSISTENCE : repositories()

activate PERSISTENCE

PERSISTENCE -> FACTORY : create()

activate FACTORY
deactivate FACTORY

PERSISTENCE - -> CTR : repositoryFactory

deactivate PERSISTENCE

CTR -> FACTORY : getOrderRepository()

activate FACTORY

FACTORY -> REPOSITORY_ORDERS : create()
activate REPOSITORY_ORDERS
deactivate REPOSITORY_ORDERS

FACTORY - -> CTR : orderRepository
deactivate FACTORY

CTR -> REPOSITORY_ORDERS : getProductOrdersToBePrepared()

activate REPOSITORY_ORDERS

loop For each order
REPOSITORY_ORDERS -> PODTO** : create(order)
REPOSITORY_ORDERS -> PODTO : orderDto = getOrderDto()
activate PODTO
deactivate PODTO
REPOSITORY_ORDERS -> REPOSITORY_ORDERS : ordersToBePreparedList.add(orderDto)
activate REPOSITORY_ORDERS
deactivate REPOSITORY_ORDERS
end loop


REPOSITORY_ORDERS - -> CTR : ordersToBePreparedList
deactivate REPOSITORY_ORDERS







deactivate CTR
UI - -> WE : Shows orders and requests to \nselect one
deactivate UI

WE -> UI : Selects the desired order
activate UI

UI -> CTR : availableAGVlist = showAvailableAGVs()
activate CTR



CTR -> FACTORY : getAGVRepository()

activate FACTORY

FACTORY -> REPOSITORY_AGV : create()

activate REPOSITORY_AGV
deactivate REPOSITORY_AGV

FACTORY - -> CTR : agvRepository
deactivate FACTORY

CTR -> REPOSITORY_AGV : getAGVsAvailable()

activate REPOSITORY_AGV

loop For each agv
REPOSITORY_AGV -> AGVDTO** : create(agv)
REPOSITORY_AGV -> AGVDTO : agvDto = getAgvDto()
activate AGVDTO
deactivate AGVDTO
REPOSITORY_AGV -> REPOSITORY_AGV : availableAGVlist.add(agvDto)
activate REPOSITORY_AGV
deactivate REPOSITORY_AGV
end loop

REPOSITORY_AGV - -> CTR : agvsAvailable
deactivate REPOSITORY_AGV
deactivate CTR
UI - -> WE : shows available AGVs and \nrequest to select one
deactivate UI

WE -> UI : Selects the desired AGV
activate UI
UI -> CTR : forceOrderPrep(productOrderid,agvid)
activate CTR

CTR -> REPOSITORY_ORDERS : order = getOrder(productOrderid)
activate REPOSITORY_ORDERS
deactivate REPOSITORY_ORDERS

CTR -> REPOSITORY_AGV : agv1 = getAGVSt(agvid)
activate REPOSITORY_AGV
deactivate REPOSITORY_AGV

CTR -> REPOSITORY_ORDERS : changeProductOrderStatus(orderStatus)
activate REPOSITORY_ORDERS
deactivate REPOSITORY_ORDERS
CTR -> REPOSITORY_AGV : changeAGVStatusForOccupied())
activate REPOSITORY_AGV
deactivate REPOSITORY_AGV
CTR -> REPOSITORY_ORDERS : preparedByAGV(agv1)
activate REPOSITORY_ORDERS
deactivate REPOSITORY_ORDERS
CTR -> REPOSITORY_AGV : save(agv1)
activate REPOSITORY_AGV
deactivate REPOSITORY_AGV
CTR -> REPOSITORY_ORDERS : save(order)
activate REPOSITORY_ORDERS
deactivate REPOSITORY_ORDERS

UI - -> WE : sent's task to AGV, updates \nstatus and shows operation success
deactivate UI

deactivate WE

@enduml

PlantUML version 1.2022.4(Sat Apr 09 14:29:17 BST 2022)
(GPL source distribution)
Java Runtime: OpenJDK Runtime Environment
JVM: OpenJDK 64-Bit Server VM
Default Encoding: Cp1252
Language: pt
Country: PT
--></g></svg>