<?xml version="1.0" encoding="UTF-8" standalone="no"?><svg xmlns="http://www.w3.org/2000/svg" xmlns:xlink="http://www.w3.org/1999/xlink" contentStyleType="text/css" height="1482px" preserveAspectRatio="none" style="width:1375px;height:1482px;background:#FFFFFF;" version="1.1" viewBox="0 0 1375 1482" width="1375px" zoomAndPan="magnify"><defs/><g><!--MD5=[ce5e91745b5c4e46f992402a2ac24ff2]
cluster <<aggregate>> ProductOrder--><g id="cluster_&lt;&lt;aggregate&gt;&gt; ProductOrder"><path d="M8.5,40.3564 L213.5,40.3564 A3.75,3.75 0 0 1 216,42.8564 L223,63.9658 L793.5,63.9658 A2.5,2.5 0 0 1 796,66.4658 L796,511.8564 A2.5,2.5 0 0 1 793.5,514.3564 L8.5,514.3564 A2.5,2.5 0 0 1 6,511.8564 L6,42.8564 A2.5,2.5 0 0 1 8.5,40.3564 " style="stroke:#000000;stroke-width:1.5;fill:none;"/><line style="stroke:#000000;stroke-width:1.5;fill:none;" x1="6" x2="223" y1="63.9658" y2="63.9658"/><text fill="#000000" font-family="sans-serif" font-size="14" font-weight="bold" lengthAdjust="spacing" textLength="204" x="10" y="56.8896">&lt;&lt;aggregate&gt;&gt; ProductOrder</text></g><!--MD5=[20e996825fabf2618e164db4892593a3]
cluster <<aggregate>> Client--><g id="cluster_&lt;&lt;aggregate&gt;&gt; Client"><path d="M689.5,760.3564 L839.5,760.3564 A3.75,3.75 0 0 1 842,762.8564 L849,783.9658 L1070.5,783.9658 A2.5,2.5 0 0 1 1073,786.4658 L1073,895.8564 A2.5,2.5 0 0 1 1070.5,898.3564 L689.5,898.3564 A2.5,2.5 0 0 1 687,895.8564 L687,762.8564 A2.5,2.5 0 0 1 689.5,760.3564 " style="stroke:#000000;stroke-width:1.5;fill:none;"/><line style="stroke:#000000;stroke-width:1.5;fill:none;" x1="687" x2="849" y1="783.9658" y2="783.9658"/><text fill="#000000" font-family="sans-serif" font-size="14" font-weight="bold" lengthAdjust="spacing" textLength="149" x="691" y="776.8896">&lt;&lt;aggregate&gt;&gt; Client</text></g><!--MD5=[e6413e74525275476b562053817865dc]
cluster <<aggregate>> ShopCar--><g id="cluster_&lt;&lt;aggregate&gt;&gt; ShopCar"><path d="M859.5,1010.3564 L1028.5,1010.3564 A3.75,3.75 0 0 1 1031,1012.8564 L1038,1033.9658 L1207.5,1033.9658 A2.5,2.5 0 0 1 1210,1036.4658 L1210,1155.8564 A2.5,2.5 0 0 1 1207.5,1158.3564 L859.5,1158.3564 A2.5,2.5 0 0 1 857,1155.8564 L857,1012.8564 A2.5,2.5 0 0 1 859.5,1010.3564 " style="stroke:#000000;stroke-width:1.5;fill:none;"/><line style="stroke:#000000;stroke-width:1.5;fill:none;" x1="857" x2="1038" y1="1033.9658" y2="1033.9658"/><text fill="#000000" font-family="sans-serif" font-size="14" font-weight="bold" lengthAdjust="spacing" textLength="168" x="861" y="1026.8896">&lt;&lt;aggregate&gt;&gt; ShopCar</text></g><!--MD5=[cd1e467dd42714edd782c72995bbc617]
cluster <<aggregate>> Product--><g id="cluster_&lt;&lt;aggregate&gt;&gt; Product"><path d="M1044.5,1208.3564 L1208.5,1208.3564 A3.75,3.75 0 0 1 1211,1210.8564 L1218,1231.9658 L1365.5,1231.9658 A2.5,2.5 0 0 1 1368,1234.4658 L1368,1472.8564 A2.5,2.5 0 0 1 1365.5,1475.3564 L1044.5,1475.3564 A2.5,2.5 0 0 1 1042,1472.8564 L1042,1210.8564 A2.5,2.5 0 0 1 1044.5,1208.3564 " style="stroke:#000000;stroke-width:1.5;fill:none;"/><line style="stroke:#000000;stroke-width:1.5;fill:none;" x1="1042" x2="1218" y1="1231.9658" y2="1231.9658"/><text fill="#000000" font-family="sans-serif" font-size="14" font-weight="bold" lengthAdjust="spacing" textLength="163" x="1046" y="1224.8896">&lt;&lt;aggregate&gt;&gt; Product</text></g><!--MD5=[db53c58abe70499843a85815d88add8b]
cluster <<aggregate>> Employee--><g id="cluster_&lt;&lt;aggregate&gt;&gt; Employee"><path d="M869.5,547.3564 L1046.5,547.3564 A3.75,3.75 0 0 1 1049,549.8564 L1056,570.9658 L1056.5,570.9658 A2.5,2.5 0 0 1 1059,573.4658 L1059,707.8564 A2.5,2.5 0 0 1 1056.5,710.3564 L869.5,710.3564 A2.5,2.5 0 0 1 867,707.8564 L867,549.8564 A2.5,2.5 0 0 1 869.5,547.3564 " style="stroke:#000000;stroke-width:1.5;fill:none;"/><line style="stroke:#000000;stroke-width:1.5;fill:none;" x1="867" x2="1056" y1="570.9658" y2="570.9658"/><text fill="#000000" font-family="sans-serif" font-size="14" font-weight="bold" lengthAdjust="spacing" textLength="176" x="871" y="563.8896">&lt;&lt;aggregate&gt;&gt; Employee</text></g><!--MD5=[22b4f80a245276e25c9cb3ee67d19758]
cluster <<aggregate>> AGV--><g id="cluster_&lt;&lt;aggregate&gt;&gt; AGV"><path d="M822.5,65.3564 L960.5,65.3564 A3.75,3.75 0 0 1 963,67.8564 L970,88.9658 L1162.5,88.9658 A2.5,2.5 0 0 1 1165,91.4658 L1165,228.8564 A2.5,2.5 0 0 1 1162.5,231.3564 L822.5,231.3564 A2.5,2.5 0 0 1 820,228.8564 L820,67.8564 A2.5,2.5 0 0 1 822.5,65.3564 " style="stroke:#000000;stroke-width:1.5;fill:none;"/><line style="stroke:#000000;stroke-width:1.5;fill:none;" x1="820" x2="970" y1="88.9658" y2="88.9658"/><text fill="#000000" font-family="sans-serif" font-size="14" font-weight="bold" lengthAdjust="spacing" textLength="137" x="824" y="81.8896">&lt;&lt;aggregate&gt;&gt; AGV</text></g><!--MD5=[9265192601ae3d68217fc2a2ce1ea439]
class ProductOrder--><g id="elem_ProductOrder"><rect codeLine="20" fill="#F5F5DC" height="144.2344" id="ProductOrder" rx="2.5" ry="2.5" style="stroke:#181818;stroke-width:0.5;" width="121" x="55.5" y="96.3564"/><ellipse cx="71.85" cy="125.2549" fill="#ADD1B2" rx="11" ry="11" style="stroke:#181818;stroke-width:1.0;"/><path d="M70.35,126.2549 L70.35,128.2549 L74.35,128.2549 L74.35,127.2549 L74.35,126.7705 L74.975,126.2549 L75.35,126.2549 L75.725,126.2549 L76.35,126.7705 L76.35,127.2549 L76.35,130.2549 L68.35,130.2549 L67.8656,130.2549 L67.35,129.6299 L67.35,129.2549 L67.35,128.8799 L67.8656,128.2549 L68.35,128.2549 L68.35,128.2549 L68.35,122.2549 L68.35,122.2549 L67.8656,122.2549 L67.35,121.6299 L67.35,121.2549 L67.35,120.8799 L67.8656,120.2549 L68.35,120.2549 L76.35,120.2549 L76.35,123.2549 L76.35,123.7393 L75.725,124.2549 L75.35,124.2549 L74.975,124.2549 L74.35,123.7393 L74.35,123.2549 L74.35,122.2549 L70.35,122.2549 L70.35,124.2549 L71.35,124.2549 L71.35,123.7705 L71.35,123.7705 L71.975,123.2549 L72.35,123.2549 L72.725,123.2549 L73.35,123.7705 L73.35,124.2549 L73.35,126.2549 L73.35,126.7393 L72.725,127.2549 L72.725,127.2549 L72.35,127.2549 L71.975,127.2549 L71.35,126.7393 L71.35,126.7393 L71.35,126.2549 L70.35,126.2549 Z " fill="#000000"/><text fill="#000000" font-family="sans-serif" font-size="12" font-style="italic" lengthAdjust="spacing" textLength="43" x="107.65" y="113.8135">«entity»</text><text fill="#000000" font-family="sans-serif" font-size="12" font-style="italic" lengthAdjust="spacing" textLength="35" x="111.65" y="128.9072">«root»</text><text fill="#000000" font-family="sans-serif" font-size="14" lengthAdjust="spacing" textLength="86" x="86.15" y="146.0771">ProductOrder</text><line style="stroke:#181818;stroke-width:0.5;" x1="56.5" x2="175.5" y1="154.1533" y2="154.1533"/><text fill="#000000" font-family="sans-serif" font-size="14" lengthAdjust="spacing" textLength="109" x="61.5" y="172.6865">-numericIdentifier</text><text fill="#000000" font-family="sans-serif" font-size="14" lengthAdjust="spacing" textLength="85" x="61.5" y="190.2959">-dateOfOrder</text><text fill="#000000" font-family="sans-serif" font-size="14" lengthAdjust="spacing" textLength="109" x="61.5" y="207.9053">-shipmentMethod</text><text fill="#000000" font-family="sans-serif" font-size="14" lengthAdjust="spacing" textLength="106" x="61.5" y="225.5146">-paymentMethod</text><line style="stroke:#181818;stroke-width:0.5;" x1="56.5" x2="175.5" y1="232.5908" y2="232.5908"/></g><!--MD5=[003718b22fee2486eeba0fa029a176b7]
class OrderItem--><g id="elem_OrderItem"><rect codeLine="28" fill="#F5F5DC" height="76.3125" id="OrderItem" rx="2.5" ry="2.5" style="stroke:#181818;stroke-width:0.5;" width="96" x="291" y="130.3564"/><ellipse cx="306.45" cy="151.708" fill="#ADD1B2" rx="11" ry="11" style="stroke:#181818;stroke-width:1.0;"/><path d="M304.95,152.708 L304.95,154.708 L308.95,154.708 L308.95,153.708 L308.95,153.2236 L309.575,152.708 L309.95,152.708 L310.325,152.708 L310.95,153.2236 L310.95,153.708 L310.95,156.708 L302.95,156.708 L302.4656,156.708 L301.95,156.083 L301.95,155.708 L301.95,155.333 L302.4656,154.708 L302.95,154.708 L302.95,154.708 L302.95,148.708 L302.95,148.708 L302.4656,148.708 L301.95,148.083 L301.95,147.708 L301.95,147.333 L302.4656,146.708 L302.95,146.708 L310.95,146.708 L310.95,149.708 L310.95,150.1924 L310.325,150.708 L309.95,150.708 L309.575,150.708 L308.95,150.1924 L308.95,149.708 L308.95,148.708 L304.95,148.708 L304.95,150.708 L305.95,150.708 L305.95,150.2236 L305.95,150.2236 L306.575,149.708 L306.95,149.708 L307.325,149.708 L307.95,150.2236 L307.95,150.708 L307.95,152.708 L307.95,153.1924 L307.325,153.708 L307.325,153.708 L306.95,153.708 L306.575,153.708 L305.95,153.1924 L305.95,153.1924 L305.95,152.708 L304.95,152.708 Z " fill="#000000"/><text fill="#000000" font-family="sans-serif" font-size="12" font-style="italic" lengthAdjust="spacing" textLength="43" x="330.55" y="147.8135">«entity»</text><text fill="#000000" font-family="sans-serif" font-size="14" lengthAdjust="spacing" textLength="63" x="320.55" y="164.9834">OrderItem</text><line style="stroke:#181818;stroke-width:0.5;" x1="292" x2="386" y1="173.0596" y2="173.0596"/><text fill="#000000" font-family="sans-serif" font-size="14" lengthAdjust="spacing" textLength="84" x="297" y="191.5928">-itemQuantity</text><line style="stroke:#181818;stroke-width:0.5;" x1="292" x2="386" y1="198.6689" y2="198.6689"/></g><!--MD5=[3828be2b28a85080785365999f855b6a]
class TotalPriceWithoutVAT--><g id="elem_TotalPriceWithoutVAT"><rect codeLine="32" fill="#F5F5DC" height="50.7031" id="TotalPriceWithoutVAT" rx="2.5" ry="2.5" style="stroke:#181818;stroke-width:0.5;" width="171" x="608.5" y="142.8564"/><ellipse cx="623.5" cy="164.208" fill="#FF8B40" rx="11" ry="11" style="stroke:#A80036;stroke-width:1.0;"/><path d="M623.5,167.4893 L625.0313,161.958 L625.0313,161.958 L624.5156,161.958 L624,161.333 L624,160.958 L624,160.583 L624.5156,159.958 L625.0313,159.958 L626.9063,159.958 L627.4844,159.958 L628,160.583 L628,160.958 L628,161.333 L627.4844,161.958 L627.4844,161.958 L627.0313,161.958 L624.6875,169.958 L622.3125,169.958 L619.8438,161.958 L619.5156,161.958 L619.5156,161.958 L619,161.333 L619,160.958 L619,160.583 L619.5156,159.958 L620.0938,159.958 L621.9688,159.958 L622.4844,159.958 L623,160.583 L623,160.958 L623,161.333 L622.4844,161.958 L621.9688,161.958 L621.9688,161.958 L623.5,167.4893 Z " fill="#000000"/><text fill="#000000" font-family="sans-serif" font-size="12" font-style="italic" lengthAdjust="spacing" textLength="81" x="666.5" y="160.3135">«value object»</text><text fill="#000000" font-family="sans-serif" font-size="14" lengthAdjust="spacing" textLength="139" x="637.5" y="177.4834">TotalPriceWithoutVAT</text><line style="stroke:#181818;stroke-width:0.5;" x1="609.5" x2="778.5" y1="185.5596" y2="185.5596"/></g><!--MD5=[5c64c933edd35b792f77c287ddc023c2]
class TotalPriceWithVAT--><g id="elem_TotalPriceWithVAT"><rect codeLine="33" fill="#F5F5DC" height="50.7031" id="TotalPriceWithVAT" rx="2.5" ry="2.5" style="stroke:#181818;stroke-width:0.5;" width="151" x="422.5" y="142.8564"/><ellipse cx="437.5" cy="164.208" fill="#FF8B40" rx="11" ry="11" style="stroke:#A80036;stroke-width:1.0;"/><path d="M437.5,167.4893 L439.0313,161.958 L439.0313,161.958 L438.5156,161.958 L438,161.333 L438,160.958 L438,160.583 L438.5156,159.958 L439.0313,159.958 L440.9063,159.958 L441.4844,159.958 L442,160.583 L442,160.958 L442,161.333 L441.4844,161.958 L441.4844,161.958 L441.0313,161.958 L438.6875,169.958 L436.3125,169.958 L433.8438,161.958 L433.5156,161.958 L433.5156,161.958 L433,161.333 L433,160.958 L433,160.583 L433.5156,159.958 L434.0938,159.958 L435.9688,159.958 L436.4844,159.958 L437,160.583 L437,160.958 L437,161.333 L436.4844,161.958 L435.9688,161.958 L435.9688,161.958 L437.5,167.4893 Z " fill="#000000"/><text fill="#000000" font-family="sans-serif" font-size="12" font-style="italic" lengthAdjust="spacing" textLength="81" x="470.5" y="160.3135">«value object»</text><text fill="#000000" font-family="sans-serif" font-size="14" lengthAdjust="spacing" textLength="119" x="451.5" y="177.4834">TotalPriceWithVAT</text><line style="stroke:#181818;stroke-width:0.5;" x1="423.5" x2="572.5" y1="185.5596" y2="185.5596"/></g><!--MD5=[e3d83ec5fd90ea9f3f2bfe265cb53458]
class Status--><g id="elem_Status"><rect codeLine="36" fill="#F5F5DC" height="50.7031" id="Status" rx="2.5" ry="2.5" style="stroke:#181818;stroke-width:0.5;" width="109" x="22.5" y="318.3564"/><ellipse cx="37.5" cy="339.708" fill="#FF8B40" rx="11" ry="11" style="stroke:#A80036;stroke-width:1.0;"/><path d="M37.5,342.9893 L39.0313,337.458 L39.0313,337.458 L38.5156,337.458 L38,336.833 L38,336.458 L38,336.083 L38.5156,335.458 L39.0313,335.458 L40.9063,335.458 L41.4844,335.458 L42,336.083 L42,336.458 L42,336.833 L41.4844,337.458 L41.4844,337.458 L41.0313,337.458 L38.6875,345.458 L36.3125,345.458 L33.8438,337.458 L33.5156,337.458 L33.5156,337.458 L33,336.833 L33,336.458 L33,336.083 L33.5156,335.458 L34.0938,335.458 L35.9688,335.458 L36.4844,335.458 L37,336.083 L37,336.458 L37,336.833 L36.4844,337.458 L35.9688,337.458 L35.9688,337.458 L37.5,342.9893 Z " fill="#000000"/><text fill="#000000" font-family="sans-serif" font-size="12" font-style="italic" lengthAdjust="spacing" textLength="81" x="49.5" y="335.8135">«value object»</text><text fill="#000000" font-family="sans-serif" font-size="14" lengthAdjust="spacing" textLength="40" x="70" y="352.9834">Status</text><line style="stroke:#181818;stroke-width:0.5;" x1="23.5" x2="130.5" y1="361.0596" y2="361.0596"/></g><!--MD5=[9a3d507cf6fc93d670446401c6fc7dfc]
class TotalVolume--><g id="elem_TotalVolume"><rect codeLine="37" fill="#F5F5DC" height="50.7031" id="TotalVolume" rx="2.5" ry="2.5" style="stroke:#181818;stroke-width:0.5;" width="111" x="146.5" y="447.3564"/><ellipse cx="161.5" cy="468.708" fill="#FF8B40" rx="11" ry="11" style="stroke:#A80036;stroke-width:1.0;"/><path d="M161.5,471.9893 L163.0313,466.458 L163.0313,466.458 L162.5156,466.458 L162,465.833 L162,465.458 L162,465.083 L162.5156,464.458 L163.0313,464.458 L164.9063,464.458 L165.4844,464.458 L166,465.083 L166,465.458 L166,465.833 L165.4844,466.458 L165.4844,466.458 L165.0313,466.458 L162.6875,474.458 L160.3125,474.458 L157.8438,466.458 L157.5156,466.458 L157.5156,466.458 L157,465.833 L157,465.458 L157,465.083 L157.5156,464.458 L158.0938,464.458 L159.9688,464.458 L160.4844,464.458 L161,465.083 L161,465.458 L161,465.833 L160.4844,466.458 L159.9688,466.458 L159.9688,466.458 L161.5,471.9893 Z " fill="#000000"/><text fill="#000000" font-family="sans-serif" font-size="12" font-style="italic" lengthAdjust="spacing" textLength="81" x="174.5" y="464.8135">«value object»</text><text fill="#000000" font-family="sans-serif" font-size="14" lengthAdjust="spacing" textLength="79" x="175.5" y="481.9834">TotalVolume</text><line style="stroke:#181818;stroke-width:0.5;" x1="147.5" x2="256.5" y1="490.0596" y2="490.0596"/></g><!--MD5=[2de810a4f4496708d1b1d2c65d69f81b]
class TotalWeight--><g id="elem_TotalWeight"><rect codeLine="38" fill="#F5F5DC" height="50.7031" id="TotalWeight" rx="2.5" ry="2.5" style="stroke:#181818;stroke-width:0.5;" width="109" x="309.5" y="447.3564"/><ellipse cx="324.5" cy="468.708" fill="#FF8B40" rx="11" ry="11" style="stroke:#A80036;stroke-width:1.0;"/><path d="M324.5,471.9893 L326.0313,466.458 L326.0313,466.458 L325.5156,466.458 L325,465.833 L325,465.458 L325,465.083 L325.5156,464.458 L326.0313,464.458 L327.9063,464.458 L328.4844,464.458 L329,465.083 L329,465.458 L329,465.833 L328.4844,466.458 L328.4844,466.458 L328.0313,466.458 L325.6875,474.458 L323.3125,474.458 L320.8438,466.458 L320.5156,466.458 L320.5156,466.458 L320,465.833 L320,465.458 L320,465.083 L320.5156,464.458 L321.0938,464.458 L322.9688,464.458 L323.4844,464.458 L324,465.083 L324,465.458 L324,465.833 L323.4844,466.458 L322.9688,466.458 L322.9688,466.458 L324.5,471.9893 Z " fill="#000000"/><text fill="#000000" font-family="sans-serif" font-size="12" font-style="italic" lengthAdjust="spacing" textLength="81" x="336.5" y="464.8135">«value object»</text><text fill="#000000" font-family="sans-serif" font-size="14" lengthAdjust="spacing" textLength="76" x="339" y="481.9834">TotalWeight</text><line style="stroke:#181818;stroke-width:0.5;" x1="310.5" x2="417.5" y1="490.0596" y2="490.0596"/></g><!--MD5=[50e91b14af953b75b920246565d9ae95]
class DeliveryAddress--><g id="elem_DeliveryAddress"><rect codeLine="34" fill="#F5F5DC" height="50.7031" id="DeliveryAddress" rx="2.5" ry="2.5" style="stroke:#181818;stroke-width:0.5;" width="135" x="458.5" y="447.3564"/><ellipse cx="473.5" cy="468.708" fill="#FF8B40" rx="11" ry="11" style="stroke:#A80036;stroke-width:1.0;"/><path d="M473.5,471.9893 L475.0313,466.458 L475.0313,466.458 L474.5156,466.458 L474,465.833 L474,465.458 L474,465.083 L474.5156,464.458 L475.0313,464.458 L476.9063,464.458 L477.4844,464.458 L478,465.083 L478,465.458 L478,465.833 L477.4844,466.458 L477.4844,466.458 L477.0313,466.458 L474.6875,474.458 L472.3125,474.458 L469.8438,466.458 L469.5156,466.458 L469.5156,466.458 L469,465.833 L469,465.458 L469,465.083 L469.5156,464.458 L470.0938,464.458 L471.9688,464.458 L472.4844,464.458 L473,465.083 L473,465.458 L473,465.833 L472.4844,466.458 L471.9688,466.458 L471.9688,466.458 L473.5,471.9893 Z " fill="#000000"/><text fill="#000000" font-family="sans-serif" font-size="12" font-style="italic" lengthAdjust="spacing" textLength="81" x="498.5" y="464.8135">«value object»</text><text fill="#000000" font-family="sans-serif" font-size="14" lengthAdjust="spacing" textLength="103" x="487.5" y="481.9834">DeliveryAddress</text><line style="stroke:#181818;stroke-width:0.5;" x1="459.5" x2="592.5" y1="490.0596" y2="490.0596"/></g><!--MD5=[9a51335c5b13b040816549c83a39a144]
class BillingAddress--><g id="elem_BillingAddress"><rect codeLine="35" fill="#F5F5DC" height="50.7031" id="BillingAddress" rx="2.5" ry="2.5" style="stroke:#181818;stroke-width:0.5;" width="121" x="628.5" y="447.3564"/><ellipse cx="643.5" cy="468.708" fill="#FF8B40" rx="11" ry="11" style="stroke:#A80036;stroke-width:1.0;"/><path d="M643.5,471.9893 L645.0313,466.458 L645.0313,466.458 L644.5156,466.458 L644,465.833 L644,465.458 L644,465.083 L644.5156,464.458 L645.0313,464.458 L646.9063,464.458 L647.4844,464.458 L648,465.083 L648,465.458 L648,465.833 L647.4844,466.458 L647.4844,466.458 L647.0313,466.458 L644.6875,474.458 L642.3125,474.458 L639.8438,466.458 L639.5156,466.458 L639.5156,466.458 L639,465.833 L639,465.458 L639,465.083 L639.5156,464.458 L640.0938,464.458 L641.9688,464.458 L642.4844,464.458 L643,465.083 L643,465.458 L643,465.833 L642.4844,466.458 L641.9688,466.458 L641.9688,466.458 L643.5,471.9893 Z " fill="#000000"/><text fill="#000000" font-family="sans-serif" font-size="12" font-style="italic" lengthAdjust="spacing" textLength="81" x="661.5" y="464.8135">«value object»</text><text fill="#000000" font-family="sans-serif" font-size="14" lengthAdjust="spacing" textLength="89" x="657.5" y="481.9834">BillingAddress</text><line style="stroke:#181818;stroke-width:0.5;" x1="629.5" x2="748.5" y1="490.0596" y2="490.0596"/></g><!--MD5=[ed6624c6556d5e7b1bd23032162d20b7]
class Client--><g id="elem_Client"><rect codeLine="50" fill="#F5F5DC" height="65.7969" id="Client" rx="2.5" ry="2.5" style="stroke:#181818;stroke-width:0.5;" width="71" x="703.5" y="816.3564"/><ellipse cx="718.5" cy="845.2549" fill="#ADD1B2" rx="11" ry="11" style="stroke:#181818;stroke-width:1.0;"/><path d="M717,846.2549 L717,848.2549 L721,848.2549 L721,847.2549 L721,846.7705 L721.625,846.2549 L722,846.2549 L722.375,846.2549 L723,846.7705 L723,847.2549 L723,850.2549 L715,850.2549 L714.5156,850.2549 L714,849.6299 L714,849.2549 L714,848.8799 L714.5156,848.2549 L715,848.2549 L715,848.2549 L715,842.2549 L715,842.2549 L714.5156,842.2549 L714,841.6299 L714,841.2549 L714,840.8799 L714.5156,840.2549 L715,840.2549 L723,840.2549 L723,843.2549 L723,843.7393 L722.375,844.2549 L722,844.2549 L721.625,844.2549 L721,843.7393 L721,843.2549 L721,842.2549 L717,842.2549 L717,844.2549 L718,844.2549 L718,843.7705 L718,843.7705 L718.625,843.2549 L719,843.2549 L719.375,843.2549 L720,843.7705 L720,844.2549 L720,846.2549 L720,846.7393 L719.375,847.2549 L719.375,847.2549 L719,847.2549 L718.625,847.2549 L718,846.7393 L718,846.7393 L718,846.2549 L717,846.2549 Z " fill="#000000"/><text fill="#000000" font-family="sans-serif" font-size="12" font-style="italic" lengthAdjust="spacing" textLength="43" x="730.5" y="833.8135">«entity»</text><text fill="#000000" font-family="sans-serif" font-size="12" font-style="italic" lengthAdjust="spacing" textLength="35" x="734.5" y="848.9072">«root»</text><text fill="#000000" font-family="sans-serif" font-size="14" lengthAdjust="spacing" textLength="36" x="734" y="866.0771">Client</text><line style="stroke:#181818;stroke-width:0.5;" x1="704.5" x2="773.5" y1="874.1533" y2="874.1533"/></g><!--MD5=[90d765aaab2aa87205300a90d31c45a9]
class PostalAddresses--><g id="elem_PostalAddresses"><rect codeLine="48" fill="#F5F5DC" height="50.7031" id="PostalAddresses" rx="2.5" ry="2.5" style="stroke:#181818;stroke-width:0.5;" width="138" x="919" y="823.8564"/><ellipse cx="934" cy="845.208" fill="#FF8B40" rx="11" ry="11" style="stroke:#A80036;stroke-width:1.0;"/><path d="M934,848.4893 L935.5313,842.958 L935.5313,842.958 L935.0156,842.958 L934.5,842.333 L934.5,841.958 L934.5,841.583 L935.0156,840.958 L935.5313,840.958 L937.4063,840.958 L937.9844,840.958 L938.5,841.583 L938.5,841.958 L938.5,842.333 L937.9844,842.958 L937.9844,842.958 L937.5313,842.958 L935.1875,850.958 L932.8125,850.958 L930.3438,842.958 L930.0156,842.958 L930.0156,842.958 L929.5,842.333 L929.5,841.958 L929.5,841.583 L930.0156,840.958 L930.5938,840.958 L932.4688,840.958 L932.9844,840.958 L933.5,841.583 L933.5,841.958 L933.5,842.333 L932.9844,842.958 L932.4688,842.958 L932.4688,842.958 L934,848.4893 Z " fill="#000000"/><text fill="#000000" font-family="sans-serif" font-size="12" font-style="italic" lengthAdjust="spacing" textLength="81" x="960.5" y="841.3135">«value object»</text><text fill="#000000" font-family="sans-serif" font-size="14" lengthAdjust="spacing" textLength="106" x="948" y="858.4834">PostalAddresses</text><line style="stroke:#181818;stroke-width:0.5;" x1="920" x2="1056" y1="866.5596" y2="866.5596"/></g><!--MD5=[e59460fd296ba65972a119da719922bf]
class ShopCar--><g id="elem_ShopCar"><rect codeLine="58" fill="#F5F5DC" height="65.7969" id="ShopCar" rx="2.5" ry="2.5" style="stroke:#181818;stroke-width:0.5;" width="88" x="873" y="1071.3564"/><ellipse cx="888" cy="1100.2549" fill="#ADD1B2" rx="11" ry="11" style="stroke:#181818;stroke-width:1.0;"/><path d="M886.5,1101.2549 L886.5,1103.2549 L890.5,1103.2549 L890.5,1102.2549 L890.5,1101.7705 L891.125,1101.2549 L891.5,1101.2549 L891.875,1101.2549 L892.5,1101.7705 L892.5,1102.2549 L892.5,1105.2549 L884.5,1105.2549 L884.0156,1105.2549 L883.5,1104.6299 L883.5,1104.2549 L883.5,1103.8799 L884.0156,1103.2549 L884.5,1103.2549 L884.5,1103.2549 L884.5,1097.2549 L884.5,1097.2549 L884.0156,1097.2549 L883.5,1096.6299 L883.5,1096.2549 L883.5,1095.8799 L884.0156,1095.2549 L884.5,1095.2549 L892.5,1095.2549 L892.5,1098.2549 L892.5,1098.7393 L891.875,1099.2549 L891.5,1099.2549 L891.125,1099.2549 L890.5,1098.7393 L890.5,1098.2549 L890.5,1097.2549 L886.5,1097.2549 L886.5,1099.2549 L887.5,1099.2549 L887.5,1098.7705 L887.5,1098.7705 L888.125,1098.2549 L888.5,1098.2549 L888.875,1098.2549 L889.5,1098.7705 L889.5,1099.2549 L889.5,1101.2549 L889.5,1101.7393 L888.875,1102.2549 L888.875,1102.2549 L888.5,1102.2549 L888.125,1102.2549 L887.5,1101.7393 L887.5,1101.7393 L887.5,1101.2549 L886.5,1101.2549 Z " fill="#000000"/><text fill="#000000" font-family="sans-serif" font-size="12" font-style="italic" lengthAdjust="spacing" textLength="43" x="908.5" y="1088.8135">«entity»</text><text fill="#000000" font-family="sans-serif" font-size="12" font-style="italic" lengthAdjust="spacing" textLength="35" x="912.5" y="1103.9072">«root»</text><text fill="#000000" font-family="sans-serif" font-size="14" lengthAdjust="spacing" textLength="56" x="902" y="1121.0771">ShopCar</text><line style="stroke:#181818;stroke-width:0.5;" x1="874" x2="960" y1="1129.1533" y2="1129.1533"/></g><!--MD5=[44a1b4afaef76c16e6c9ec4990ad0c8d]
class Item--><g id="elem_Item"><rect codeLine="61" fill="#F5F5DC" height="76.3125" id="Item" rx="2.5" ry="2.5" style="stroke:#181818;stroke-width:0.5;" width="118" x="1076" y="1066.3564"/><ellipse cx="1112.15" cy="1087.708" fill="#ADD1B2" rx="11" ry="11" style="stroke:#181818;stroke-width:1.0;"/><path d="M1110.65,1088.708 L1110.65,1090.708 L1114.65,1090.708 L1114.65,1089.708 L1114.65,1089.2236 L1115.275,1088.708 L1115.65,1088.708 L1116.025,1088.708 L1116.65,1089.2236 L1116.65,1089.708 L1116.65,1092.708 L1108.65,1092.708 L1108.1656,1092.708 L1107.65,1092.083 L1107.65,1091.708 L1107.65,1091.333 L1108.1656,1090.708 L1108.65,1090.708 L1108.65,1090.708 L1108.65,1084.708 L1108.65,1084.708 L1108.1656,1084.708 L1107.65,1084.083 L1107.65,1083.708 L1107.65,1083.333 L1108.1656,1082.708 L1108.65,1082.708 L1116.65,1082.708 L1116.65,1085.708 L1116.65,1086.1924 L1116.025,1086.708 L1115.65,1086.708 L1115.275,1086.708 L1114.65,1086.1924 L1114.65,1085.708 L1114.65,1084.708 L1110.65,1084.708 L1110.65,1086.708 L1111.65,1086.708 L1111.65,1086.2236 L1111.65,1086.2236 L1112.275,1085.708 L1112.65,1085.708 L1113.025,1085.708 L1113.65,1086.2236 L1113.65,1086.708 L1113.65,1088.708 L1113.65,1089.1924 L1113.025,1089.708 L1113.025,1089.708 L1112.65,1089.708 L1112.275,1089.708 L1111.65,1089.1924 L1111.65,1089.1924 L1111.65,1088.708 L1110.65,1088.708 Z " fill="#000000"/><text fill="#000000" font-family="sans-serif" font-size="12" font-style="italic" lengthAdjust="spacing" textLength="43" x="1128.85" y="1083.8135">«entity»</text><text fill="#000000" font-family="sans-serif" font-size="14" lengthAdjust="spacing" textLength="26" x="1137.35" y="1100.9834">Item</text><line style="stroke:#181818;stroke-width:0.5;" x1="1077" x2="1193" y1="1109.0596" y2="1109.0596"/><text fill="#000000" font-family="sans-serif" font-size="14" lengthAdjust="spacing" textLength="106" x="1082" y="1127.5928">-productQuantity</text><line style="stroke:#181818;stroke-width:0.5;" x1="1077" x2="1193" y1="1134.6689" y2="1134.6689"/></g><!--MD5=[72136138052d025cffdce3c22fbd185f]
class Product--><g id="elem_Product"><rect codeLine="72" fill="#F5F5DC" height="65.7969" id="Product" rx="2.5" ry="2.5" style="stroke:#181818;stroke-width:0.5;" width="81" x="1152.5" y="1264.3564"/><ellipse cx="1167.5" cy="1293.2549" fill="#ADD1B2" rx="11" ry="11" style="stroke:#181818;stroke-width:1.0;"/><path d="M1166,1294.2549 L1166,1296.2549 L1170,1296.2549 L1170,1295.2549 L1170,1294.7705 L1170.625,1294.2549 L1171,1294.2549 L1171.375,1294.2549 L1172,1294.7705 L1172,1295.2549 L1172,1298.2549 L1164,1298.2549 L1163.5156,1298.2549 L1163,1297.6299 L1163,1297.2549 L1163,1296.8799 L1163.5156,1296.2549 L1164,1296.2549 L1164,1296.2549 L1164,1290.2549 L1164,1290.2549 L1163.5156,1290.2549 L1163,1289.6299 L1163,1289.2549 L1163,1288.8799 L1163.5156,1288.2549 L1164,1288.2549 L1172,1288.2549 L1172,1291.2549 L1172,1291.7393 L1171.375,1292.2549 L1171,1292.2549 L1170.625,1292.2549 L1170,1291.7393 L1170,1291.2549 L1170,1290.2549 L1166,1290.2549 L1166,1292.2549 L1167,1292.2549 L1167,1291.7705 L1167,1291.7705 L1167.625,1291.2549 L1168,1291.2549 L1168.375,1291.2549 L1169,1291.7705 L1169,1292.2549 L1169,1294.2549 L1169,1294.7393 L1168.375,1295.2549 L1168.375,1295.2549 L1168,1295.2549 L1167.625,1295.2549 L1167,1294.7393 L1167,1294.7393 L1167,1294.2549 L1166,1294.2549 Z " fill="#000000"/><text fill="#000000" font-family="sans-serif" font-size="12" font-style="italic" lengthAdjust="spacing" textLength="43" x="1184.5" y="1281.8135">«entity»</text><text fill="#000000" font-family="sans-serif" font-size="12" font-style="italic" lengthAdjust="spacing" textLength="35" x="1188.5" y="1296.9072">«root»</text><text fill="#000000" font-family="sans-serif" font-size="14" lengthAdjust="spacing" textLength="49" x="1181.5" y="1314.0771">Product</text><line style="stroke:#181818;stroke-width:0.5;" x1="1153.5" x2="1232.5" y1="1322.1533" y2="1322.1533"/></g><!--MD5=[1ec76a0a72b04a65c95a0899f0ab5f6d]
class PriceWithoutVAT--><g id="elem_PriceWithoutVAT"><rect codeLine="76" fill="#F5F5DC" height="50.7031" id="PriceWithoutVAT" rx="2.5" ry="2.5" style="stroke:#181818;stroke-width:0.5;" width="139" x="1058.5" y="1408.3564"/><ellipse cx="1073.5" cy="1429.708" fill="#FF8B40" rx="11" ry="11" style="stroke:#A80036;stroke-width:1.0;"/><path d="M1073.5,1432.9893 L1075.0313,1427.458 L1075.0313,1427.458 L1074.5156,1427.458 L1074,1426.833 L1074,1426.458 L1074,1426.083 L1074.5156,1425.458 L1075.0313,1425.458 L1076.9063,1425.458 L1077.4844,1425.458 L1078,1426.083 L1078,1426.458 L1078,1426.833 L1077.4844,1427.458 L1077.4844,1427.458 L1077.0313,1427.458 L1074.6875,1435.458 L1072.3125,1435.458 L1069.8438,1427.458 L1069.5156,1427.458 L1069.5156,1427.458 L1069,1426.833 L1069,1426.458 L1069,1426.083 L1069.5156,1425.458 L1070.0938,1425.458 L1071.9688,1425.458 L1072.4844,1425.458 L1073,1426.083 L1073,1426.458 L1073,1426.833 L1072.4844,1427.458 L1071.9688,1427.458 L1071.9688,1427.458 L1073.5,1432.9893 Z " fill="#000000"/><text fill="#000000" font-family="sans-serif" font-size="12" font-style="italic" lengthAdjust="spacing" textLength="81" x="1100.5" y="1425.8135">«value object»</text><text fill="#000000" font-family="sans-serif" font-size="14" lengthAdjust="spacing" textLength="107" x="1087.5" y="1442.9834">PriceWithoutVAT</text><line style="stroke:#181818;stroke-width:0.5;" x1="1059.5" x2="1196.5" y1="1451.0596" y2="1451.0596"/></g><!--MD5=[18ba541ebf72ab84a620ca031df01403]
class PriceWithVAT--><g id="elem_PriceWithVAT"><rect codeLine="77" fill="#F5F5DC" height="50.7031" id="PriceWithVAT" rx="2.5" ry="2.5" style="stroke:#181818;stroke-width:0.5;" width="119" x="1232.5" y="1408.3564"/><ellipse cx="1247.5" cy="1429.708" fill="#FF8B40" rx="11" ry="11" style="stroke:#A80036;stroke-width:1.0;"/><path d="M1247.5,1432.9893 L1249.0313,1427.458 L1249.0313,1427.458 L1248.5156,1427.458 L1248,1426.833 L1248,1426.458 L1248,1426.083 L1248.5156,1425.458 L1249.0313,1425.458 L1250.9063,1425.458 L1251.4844,1425.458 L1252,1426.083 L1252,1426.458 L1252,1426.833 L1251.4844,1427.458 L1251.4844,1427.458 L1251.0313,1427.458 L1248.6875,1435.458 L1246.3125,1435.458 L1243.8438,1427.458 L1243.5156,1427.458 L1243.5156,1427.458 L1243,1426.833 L1243,1426.458 L1243,1426.083 L1243.5156,1425.458 L1244.0938,1425.458 L1245.9688,1425.458 L1246.4844,1425.458 L1247,1426.083 L1247,1426.458 L1247,1426.833 L1246.4844,1427.458 L1245.9688,1427.458 L1245.9688,1427.458 L1247.5,1432.9893 Z " fill="#000000"/><text fill="#000000" font-family="sans-serif" font-size="12" font-style="italic" lengthAdjust="spacing" textLength="81" x="1264.5" y="1425.8135">«value object»</text><text fill="#000000" font-family="sans-serif" font-size="14" lengthAdjust="spacing" textLength="87" x="1261.5" y="1442.9834">PriceWithVAT</text><line style="stroke:#181818;stroke-width:0.5;" x1="1233.5" x2="1350.5" y1="1451.0596" y2="1451.0596"/></g><!--MD5=[7421f545a0d8420c5bec41e74b387d9c]
class Employee--><g id="elem_Employee"><rect codeLine="83" fill="#F5F5DC" height="91.4063" id="Employee" rx="2.5" ry="2.5" style="stroke:#181818;stroke-width:0.5;" width="94" x="904" y="603.3564"/><ellipse cx="919" cy="632.2549" fill="#ADD1B2" rx="11" ry="11" style="stroke:#181818;stroke-width:1.0;"/><path d="M917.5,633.2549 L917.5,635.2549 L921.5,635.2549 L921.5,634.2549 L921.5,633.7705 L922.125,633.2549 L922.5,633.2549 L922.875,633.2549 L923.5,633.7705 L923.5,634.2549 L923.5,637.2549 L915.5,637.2549 L915.0156,637.2549 L914.5,636.6299 L914.5,636.2549 L914.5,635.8799 L915.0156,635.2549 L915.5,635.2549 L915.5,635.2549 L915.5,629.2549 L915.5,629.2549 L915.0156,629.2549 L914.5,628.6299 L914.5,628.2549 L914.5,627.8799 L915.0156,627.2549 L915.5,627.2549 L923.5,627.2549 L923.5,630.2549 L923.5,630.7393 L922.875,631.2549 L922.5,631.2549 L922.125,631.2549 L921.5,630.7393 L921.5,630.2549 L921.5,629.2549 L917.5,629.2549 L917.5,631.2549 L918.5,631.2549 L918.5,630.7705 L918.5,630.7705 L919.125,630.2549 L919.5,630.2549 L919.875,630.2549 L920.5,630.7705 L920.5,631.2549 L920.5,633.2549 L920.5,633.7393 L919.875,634.2549 L919.875,634.2549 L919.5,634.2549 L919.125,634.2549 L918.5,633.7393 L918.5,633.7393 L918.5,633.2549 L917.5,633.2549 Z " fill="#000000"/><text fill="#000000" font-family="sans-serif" font-size="12" font-style="italic" lengthAdjust="spacing" textLength="43" x="942.5" y="620.8135">«entity»</text><text fill="#000000" font-family="sans-serif" font-size="12" font-style="italic" lengthAdjust="spacing" textLength="35" x="946.5" y="635.9072">«root»</text><text fill="#000000" font-family="sans-serif" font-size="14" lengthAdjust="spacing" textLength="62" x="933" y="653.0771">Employee</text><line style="stroke:#181818;stroke-width:0.5;" x1="905" x2="997" y1="661.1533" y2="661.1533"/><text fill="#000000" font-family="sans-serif" font-size="14" lengthAdjust="spacing" textLength="59" x="910" y="679.6865">-identifier</text><line style="stroke:#181818;stroke-width:0.5;" x1="905" x2="997" y1="686.7627" y2="686.7627"/></g><!--MD5=[53b2c06ade5903185ca3326dce80e141]
class AGV--><g id="elem_AGV"><rect codeLine="93" fill="#F5F5DC" height="91.4063" id="AGV" rx="2.5" ry="2.5" style="stroke:#181818;stroke-width:0.5;" width="71" x="836.5" y="122.8564"/><ellipse cx="851.5" cy="151.7549" fill="#ADD1B2" rx="11" ry="11" style="stroke:#181818;stroke-width:1.0;"/><path d="M850,152.7549 L850,154.7549 L854,154.7549 L854,153.7549 L854,153.2705 L854.625,152.7549 L855,152.7549 L855.375,152.7549 L856,153.2705 L856,153.7549 L856,156.7549 L848,156.7549 L847.5156,156.7549 L847,156.1299 L847,155.7549 L847,155.3799 L847.5156,154.7549 L848,154.7549 L848,154.7549 L848,148.7549 L848,148.7549 L847.5156,148.7549 L847,148.1299 L847,147.7549 L847,147.3799 L847.5156,146.7549 L848,146.7549 L856,146.7549 L856,149.7549 L856,150.2393 L855.375,150.7549 L855,150.7549 L854.625,150.7549 L854,150.2393 L854,149.7549 L854,148.7549 L850,148.7549 L850,150.7549 L851,150.7549 L851,150.2705 L851,150.2705 L851.625,149.7549 L852,149.7549 L852.375,149.7549 L853,150.2705 L853,150.7549 L853,152.7549 L853,153.2393 L852.375,153.7549 L852.375,153.7549 L852,153.7549 L851.625,153.7549 L851,153.2393 L851,153.2393 L851,152.7549 L850,152.7549 Z " fill="#000000"/><text fill="#000000" font-family="sans-serif" font-size="12" font-style="italic" lengthAdjust="spacing" textLength="43" x="863.5" y="140.3135">«entity»</text><text fill="#000000" font-family="sans-serif" font-size="12" font-style="italic" lengthAdjust="spacing" textLength="35" x="867.5" y="155.4072">«root»</text><text fill="#000000" font-family="sans-serif" font-size="14" lengthAdjust="spacing" textLength="29" x="870.5" y="172.5771">AGV</text><line style="stroke:#181818;stroke-width:0.5;" x1="837.5" x2="906.5" y1="180.6533" y2="180.6533"/><text fill="#000000" font-family="sans-serif" font-size="14" lengthAdjust="spacing" textLength="36" x="842.5" y="199.1865">-state</text><line style="stroke:#181818;stroke-width:0.5;" x1="837.5" x2="906.5" y1="206.2627" y2="206.2627"/></g><!--MD5=[529d3a023cdac506d4f0a83ea48e48d1]
class AGVTask--><g id="elem_AGVTask"><rect codeLine="97" fill="#F5F5DC" height="93.9219" id="AGVTask" rx="2.5" ry="2.5" style="stroke:#181818;stroke-width:0.5;" width="142" x="1007" y="121.3564"/><ellipse cx="1044.5" cy="142.708" fill="#ADD1B2" rx="11" ry="11" style="stroke:#181818;stroke-width:1.0;"/><path d="M1043,143.708 L1043,145.708 L1047,145.708 L1047,144.708 L1047,144.2236 L1047.625,143.708 L1048,143.708 L1048.375,143.708 L1049,144.2236 L1049,144.708 L1049,147.708 L1041,147.708 L1040.5156,147.708 L1040,147.083 L1040,146.708 L1040,146.333 L1040.5156,145.708 L1041,145.708 L1041,145.708 L1041,139.708 L1041,139.708 L1040.5156,139.708 L1040,139.083 L1040,138.708 L1040,138.333 L1040.5156,137.708 L1041,137.708 L1049,137.708 L1049,140.708 L1049,141.1924 L1048.375,141.708 L1048,141.708 L1047.625,141.708 L1047,141.1924 L1047,140.708 L1047,139.708 L1043,139.708 L1043,141.708 L1044,141.708 L1044,141.2236 L1044,141.2236 L1044.625,140.708 L1045,140.708 L1045.375,140.708 L1046,141.2236 L1046,141.708 L1046,143.708 L1046,144.1924 L1045.375,144.708 L1045.375,144.708 L1045,144.708 L1044.625,144.708 L1044,144.1924 L1044,144.1924 L1044,143.708 L1043,143.708 Z " fill="#000000"/><text fill="#000000" font-family="sans-serif" font-size="12" font-style="italic" lengthAdjust="spacing" textLength="43" x="1072" y="138.8135">«entity»</text><text fill="#000000" font-family="sans-serif" font-size="14" lengthAdjust="spacing" textLength="60" x="1063.5" y="155.9834">AGVTask</text><line style="stroke:#181818;stroke-width:0.5;" x1="1008" x2="1148" y1="164.0596" y2="164.0596"/><text fill="#000000" font-family="sans-serif" font-size="14" lengthAdjust="spacing" textLength="16" x="1013" y="182.5928">-id</text><text fill="#000000" font-family="sans-serif" font-size="14" lengthAdjust="spacing" textLength="130" x="1013" y="200.2021">-agvTaskDescription</text><line style="stroke:#181818;stroke-width:0.5;" x1="1008" x2="1148" y1="207.2783" y2="207.2783"/></g><!--MD5=[3c1783733a7fb4bf7e92ef048b25a931]
link Client to ShopCar--><g id="link_Client_ShopCar"><path codeLine="102" d="M761.54,882.3964 C794.69,929.5064 856.4,1017.2264 891.28,1066.7964 " fill="none" id="Client-to-ShopCar" style="stroke:#222222;stroke-width:1.0;"/><polygon fill="#222222" points="894.36,1071.1764,892.4351,1061.5175,891.4755,1067.0924,885.9006,1066.1328,894.36,1071.1764" style="stroke:#222222;stroke-width:1.0;"/><text fill="#000000" font-family="sans-serif" font-size="13" lengthAdjust="spacing" textLength="63" x="819" y="959.8516">associated</text><text fill="#000000" font-family="sans-serif" font-size="13" lengthAdjust="spacing" textLength="7" x="882.2137" y="1060.6189">1</text></g><!--MD5=[e711c884b53254feb0562ff5e23042b4]
link ProductOrder to Client--><g id="link_ProductOrder_Client"><path codeLine="103" d="M176.81,201.3064 C205.59,215.2164 240.84,230.5364 274,240.3564 C395.1,276.2164 833,216.5664 833,342.8564 C833,342.8564 833,342.8564 833,649.8564 C833,711.2964 795.76,774.0264 768.16,812.0964 " fill="none" id="ProductOrder-to-Client" style="stroke:#222222;stroke-width:1.0;"/><polygon fill="#222222" points="765.18,816.1564,773.7301,811.2682,768.1387,812.1258,767.2811,806.5343,765.18,816.1564" style="stroke:#222222;stroke-width:1.0;"/><text fill="#000000" font-family="sans-serif" font-size="13" lengthAdjust="spacing" textLength="63" x="834" y="478.3516">associated</text><text fill="#000000" font-family="sans-serif" font-size="13" lengthAdjust="spacing" textLength="7" x="762.6451" y="805.5949">1</text></g><!--MD5=[7a12871925691dc2dd050054673c3a49]
link Client to PostalAddresses--><g id="link_Client_PostalAddresses"><path codeLine="104" d="M774.68,849.3564 C810.8,849.3564 867.75,849.3564 913.72,849.3564 " fill="none" id="Client-to-PostalAddresses" style="stroke:#222222;stroke-width:1.0;"/><polygon fill="#222222" points="918.98,849.3564,909.98,845.3564,913.98,849.3564,909.98,853.3564,918.98,849.3564" style="stroke:#222222;stroke-width:1.0;"/><text fill="#000000" font-family="sans-serif" font-size="13" lengthAdjust="spacing" textLength="108" x="792.75" y="842.8516">associated with an</text><text fill="#000000" font-family="sans-serif" font-size="13" lengthAdjust="spacing" textLength="20" x="890.8311" y="863.71">0..*</text></g><!--MD5=[f51a910a1d249ce94756221cfa39b6b5]
link ShopCar to ProductOrder--><g id="link_ShopCar_ProductOrder"><path codeLine="105" d="M961.28,1072.0964 C1018.26,1031.4964 1110,964.6764 1110,955.3564 C1110,342.8564 1110,342.8564 1110,342.8564 C1110,241.5964 993.52,289.0964 894,270.3564 C622.89,219.3164 542.27,304.6864 274,240.3564 C242.35,232.7664 209.22,218.9064 181.51,205.4264 " fill="none" id="ShopCar-to-ProductOrder" style="stroke:#222222;stroke-width:1.0;stroke-dasharray:7.0,7.0;"/><polygon fill="#222222" points="176.76,203.0964,183.0791,210.6508,181.2492,205.2981,186.6018,203.4682,176.76,203.0964" style="stroke:#222222;stroke-width:1.0;"/><text fill="#000000" font-family="sans-serif" font-size="13" lengthAdjust="spacing" textLength="82" x="1111" y="654.3516">is transformed</text><text fill="#000000" font-family="sans-serif" font-size="13" lengthAdjust="spacing" textLength="7" x="184.5917" y="203.8576">1</text></g><!--MD5=[7460415386b109d24f9c7a92799907f2]
link Product to PriceWithoutVAT--><g id="link_Product_PriceWithoutVAT"><path codeLine="106" d="M1177.43,1330.5764 C1166.75,1352.6864 1152.67,1381.7964 1142.28,1403.3164 " fill="none" id="Product-to-PriceWithoutVAT" style="stroke:#222222;stroke-width:1.0;"/><polygon fill="#222222" points="1139.99,1408.0564,1147.5038,1401.6891,1142.1629,1403.5533,1140.2988,1398.2124,1139.99,1408.0564" style="stroke:#222222;stroke-width:1.0;"/><text fill="#000000" font-family="sans-serif" font-size="13" lengthAdjust="spacing" textLength="63" x="1163" y="1374.8516">associated</text><text fill="#000000" font-family="sans-serif" font-size="13" lengthAdjust="spacing" textLength="7" x="1135.0594" y="1397.3918">1</text></g><!--MD5=[3a5593c8cf8178ffd71c13654dc2d8a2]
link Product to PriceWithVAT--><g id="link_Product_PriceWithVAT"><path codeLine="107" d="M1216.71,1330.5764 C1233.12,1352.8664 1254.78,1382.2864 1270.65,1403.8564 " fill="none" id="Product-to-PriceWithVAT" style="stroke:#222222;stroke-width:1.0;"/><polygon fill="#222222" points="1273.75,1408.0564,1271.6489,1398.4343,1270.7913,1404.0258,1265.1999,1403.1682,1273.75,1408.0564" style="stroke:#222222;stroke-width:1.0;"/><text fill="#000000" font-family="sans-serif" font-size="13" lengthAdjust="spacing" textLength="63" x="1252" y="1374.8516">associated</text><text fill="#000000" font-family="sans-serif" font-size="13" lengthAdjust="spacing" textLength="7" x="1261.4484" y="1397.3918">1</text></g><!--MD5=[2b28faa0e4d1dfe94072149b4f8c56e2]
link Item to Product--><g id="link_Item_Product"><path codeLine="108" d="M1134.37,1142.7264 C1134.93,1158.2964 1136.66,1176.4364 1141,1192.3564 C1147.37,1215.6964 1159.17,1239.9764 1169.92,1259.1964 " fill="none" id="Item-to-Product" style="stroke:#222222;stroke-width:1.0;"/><polygon fill="#222222" points="1172.63,1263.9764,1171.6795,1254.1736,1170.1678,1259.6247,1164.7167,1258.113,1172.63,1263.9764" style="stroke:#222222;stroke-width:1.0;"/><text fill="#000000" font-family="sans-serif" font-size="13" lengthAdjust="spacing" textLength="78" x="1142" y="1188.8516">composed by</text><text fill="#000000" font-family="sans-serif" font-size="13" lengthAdjust="spacing" textLength="7" x="1160.9306" y="1253.3795">1</text></g><!--MD5=[9d37365661f3e769065fd3b311322e5f]
link ProductOrder to TotalPriceWithoutVAT--><g id="link_ProductOrder_TotalPriceWithoutVAT"><path codeLine="109" d="M176.75,103.9264 C203.9,79.7064 237.9,54.9864 274,42.3564 C340.49,19.0864 527.35,12.1764 591,42.3564 C632.44,62.0064 662.74,107.3864 679.36,137.9764 " fill="none" id="ProductOrder-to-TotalPriceWithoutVAT" style="stroke:#222222;stroke-width:1.0;"/><polygon fill="#222222" points="681.91,142.7564,681.1992,132.9333,679.5548,138.3459,674.1422,136.7015,681.91,142.7564" style="stroke:#222222;stroke-width:1.0;"/><text fill="#000000" font-family="sans-serif" font-size="13" lengthAdjust="spacing" textLength="57" x="522.5" y="20.8516">is marked</text><text fill="#000000" font-family="sans-serif" font-size="13" lengthAdjust="spacing" textLength="7" x="671.1099" y="132.1406">1</text></g><!--MD5=[c3c91fd6b69ecb92ab5355007e5de131]
link ProductOrder to TotalPriceWithVAT--><g id="link_ProductOrder_TotalPriceWithVAT"><path codeLine="110" d="M176.75,103.9264 C203.9,79.7064 237.9,54.9864 274,42.3564 C328.96,23.1264 353.02,16.1164 405,42.3564 C444.4,62.2464 471.22,107.5664 485.58,138.0764 " fill="none" id="ProductOrder-to-TotalPriceWithVAT" style="stroke:#222222;stroke-width:1.0;"/><polygon fill="#222222" points="487.78,142.8364,487.66,132.9883,485.6938,138.2925,480.3896,136.3263,487.78,142.8364" style="stroke:#222222;stroke-width:1.0;"/><text fill="#000000" font-family="sans-serif" font-size="13" lengthAdjust="spacing" textLength="57" x="205.5" y="20.8516">is marked</text><text fill="#000000" font-family="sans-serif" font-size="13" lengthAdjust="spacing" textLength="7" x="477.2642" y="131.8251">1</text></g><!--MD5=[2455d5c78657b48f8ef22148561c38af]
link ShopCar to Item--><g id="link_ShopCar_Item"><path codeLine="111" d="M961.12,1104.3564 C992.54,1104.3564 1035.28,1104.3564 1070.52,1104.3564 " fill="none" id="ShopCar-to-Item" style="stroke:#222222;stroke-width:1.0;"/><polygon fill="#222222" points="1075.66,1104.3564,1066.66,1100.3564,1070.66,1104.3564,1066.66,1108.3564,1075.66,1104.3564" style="stroke:#222222;stroke-width:1.0;"/><text fill="#000000" font-family="sans-serif" font-size="13" lengthAdjust="spacing" textLength="78" x="979.5" y="1097.8516">composed by</text><text fill="#000000" font-family="sans-serif" font-size="13" lengthAdjust="spacing" textLength="20" x="1048.0759" y="1118.7287">1..*</text></g><!--MD5=[429455f7f62ef7c91b2967aad590069a]
link ProductOrder to Employee--><g id="link_ProductOrder_Employee"><path codeLine="112" d="M176.77,203.0464 C205.39,217.2264 240.53,232.2764 274,240.3564 C337.27,255.6264 808.44,229.3664 859,270.3564 C957.06,349.8564 960.92,514.8564 955.9,597.8664 " fill="none" id="ProductOrder-to-Employee" style="stroke:#222222;stroke-width:1.0;"/><polygon fill="#222222" points="955.55,603.2164,960.1083,594.4859,955.8646,598.2264,952.1241,593.9826,955.55,603.2164" style="stroke:#222222;stroke-width:1.0;"/><text fill="#000000" font-family="sans-serif" font-size="13" lengthAdjust="spacing" textLength="90" x="943" y="413.8516">associated with</text><text fill="#000000" font-family="sans-serif" font-size="13" lengthAdjust="spacing" textLength="22" x="932.5623" y="592.4938">0..1</text></g><!--MD5=[ac4c49bc24431560733104ccf6b1c608]
link ProductOrder to Status--><g id="link_ProductOrder_Status"><path codeLine="113" d="M100.02,240.4264 C94.28,265.9664 88.12,293.3764 83.62,313.4064 " fill="none" id="ProductOrder-to-Status" style="stroke:#222222;stroke-width:1.0;"/><polygon fill="#222222" points="82.51,318.3364,88.3891,310.4348,83.6082,313.4585,80.5845,308.6776,82.51,318.3364" style="stroke:#222222;stroke-width:1.0;"/><text fill="#000000" font-family="sans-serif" font-size="13" lengthAdjust="spacing" textLength="24" x="95" y="284.8516">is in</text><text fill="#000000" font-family="sans-serif" font-size="13" lengthAdjust="spacing" textLength="7" x="76.0251" y="307.3251">1</text></g><!--MD5=[563a6ede6ece78cc638570b856330fe7]
link ProductOrder to TotalVolume--><g id="link_ProductOrder_TotalVolume"><path codeLine="114" d="M136.27,240.6664 C154.53,304.8764 180.45,396.0564 193.62,442.3864 " fill="none" id="ProductOrder-to-TotalVolume" style="stroke:#222222;stroke-width:1.0;"/><polygon fill="#222222" points="195.01,447.2664,196.3913,437.5149,193.6402,442.4578,188.6973,439.7067,195.01,447.2664" style="stroke:#222222;stroke-width:1.0;"/><text fill="#000000" font-family="sans-serif" font-size="13" lengthAdjust="spacing" textLength="90" x="173" y="349.3516">associated with</text><text fill="#000000" font-family="sans-serif" font-size="13" lengthAdjust="spacing" textLength="7" x="185.4531" y="436.653">1</text></g><!--MD5=[6617a929b741938ab332a1b483a4790e]
link ProductOrder to TotalWeight--><g id="link_ProductOrder_TotalWeight"><path codeLine="115" d="M176.79,220.4264 C207.31,247.7264 243.71,282.9564 272,318.3564 C303.98,358.3764 332.93,410.5264 349.49,442.5764 " fill="none" id="ProductOrder-to-TotalWeight" style="stroke:#222222;stroke-width:1.0;"/><polygon fill="#222222" points="351.84,447.1564,351.2796,437.3235,349.5526,442.7103,344.1658,440.9834,351.84,447.1564" style="stroke:#222222;stroke-width:1.0;"/><text fill="#000000" font-family="sans-serif" font-size="13" lengthAdjust="spacing" textLength="90" x="307" y="349.3516">associated with</text><text fill="#000000" font-family="sans-serif" font-size="13" lengthAdjust="spacing" textLength="7" x="341.0229" y="436.5162">1</text></g><!--MD5=[03880c74fb0017f0ee6a768396cad903]
link ProductOrder to DeliveryAddress--><g id="link_ProductOrder_DeliveryAddress"><path codeLine="116" d="M176.74,196.7864 C250.13,230.5764 368.43,287.2864 406,318.3564 C449.78,354.5664 487.77,409.3364 508.72,442.7264 " fill="none" id="ProductOrder-to-DeliveryAddress" style="stroke:#222222;stroke-width:1.0;"/><polygon fill="#222222" points="511.44,447.0864,510.0768,437.3324,508.7964,442.8424,503.2864,441.5621,511.44,447.0864" style="stroke:#222222;stroke-width:1.0;"/><text fill="#000000" font-family="sans-serif" font-size="13" lengthAdjust="spacing" textLength="90" x="456" y="349.3516">associated with</text><text fill="#000000" font-family="sans-serif" font-size="13" lengthAdjust="spacing" textLength="7" x="500.0379" y="436.4292">1</text></g><!--MD5=[8f2520dded3c7e1b7a910e55a1daad5a]
link ProductOrder to BillingAddress--><g id="link_ProductOrder_BillingAddress"><path codeLine="117" d="M176.64,199.2064 C205.67,212.8164 241.19,228.5064 274,240.3564 C395.91,284.3764 445.32,249.2964 555,318.3564 C605.99,350.4664 648.46,407.8164 671.16,442.5864 " fill="none" id="ProductOrder-to-BillingAddress" style="stroke:#222222;stroke-width:1.0;"/><polygon fill="#222222" points="674.1,447.1364,672.5745,437.4064,671.3861,442.9371,665.8555,441.7487,674.1,447.1364" style="stroke:#222222;stroke-width:1.0;"/><text fill="#000000" font-family="sans-serif" font-size="13" lengthAdjust="spacing" textLength="90" x="614" y="349.3516">associated with</text><text fill="#000000" font-family="sans-serif" font-size="13" lengthAdjust="spacing" textLength="7" x="662.615" y="436.4913">1</text></g><!--MD5=[8feb8c37ecca0257623b4f62f4bc0d00]
link ProductOrder to OrderItem--><g id="link_ProductOrder_OrderItem"><path codeLine="118" d="M176.64,168.3564 C210.68,168.3564 252.76,168.3564 285.55,168.3564 " fill="none" id="ProductOrder-to-OrderItem" style="stroke:#222222;stroke-width:1.0;"/><polygon fill="#222222" points="290.73,168.3564,281.73,164.3564,285.73,168.3564,281.73,172.3564,290.73,168.3564" style="stroke:#222222;stroke-width:1.0;"/><text fill="#000000" font-family="sans-serif" font-size="13" lengthAdjust="spacing" textLength="78" x="194.75" y="161.8516">composed by</text><text fill="#000000" font-family="sans-serif" font-size="13" lengthAdjust="spacing" textLength="20" x="262.9" y="182.9292">1..*</text></g><!--MD5=[663c18ce459b41abc4dbff87433befbf]
link OrderItem to Product--><g id="link_OrderItem_Product"><path codeLine="119" d="M364.08,206.5364 C375,219.6164 388.98,232.9064 405,240.3564 C528.05,297.6164 881.38,246.5864 1015,270.3564 C1121.36,289.2764 1247,234.8264 1247,342.8564 C1247,342.8564 1247,342.8564 1247,1105.3564 C1247,1160.5964 1225.83,1221.5464 1210,1259.3964 " fill="none" id="OrderItem-to-Product" style="stroke:#222222;stroke-width:1.0;"/><polygon fill="#222222" points="1207.9,1264.3564,1215.0865,1257.6219,1209.8454,1259.7504,1207.7169,1254.5093,1207.9,1264.3564" style="stroke:#222222;stroke-width:1.0;"/><text fill="#000000" font-family="sans-serif" font-size="13" lengthAdjust="spacing" textLength="78" x="1248" y="740.8516">composed by</text><text fill="#000000" font-family="sans-serif" font-size="13" lengthAdjust="spacing" textLength="7" x="1203.2513" y="1253.4525">1</text></g><!--MD5=[c9876babfca3f6c3169d35155ea7a92b]
link AGVTask to ProductOrder--><g id="link_AGVTask_ProductOrder"><path codeLine="121" d="M1037.39,121.3564 C1009.18,92.4764 968.89,58.1064 925,42.3564 C856.92,17.9264 342.27,18.4664 274,42.3564 C239.6,54.3964 207.09,77.4164 180.62,100.5164 " fill="none" id="AGVTask-to-ProductOrder" style="stroke:#222222;stroke-width:1.0;"/><polygon fill="#222222" points="176.75,103.9264,186.1461,100.9748,180.5004,100.6198,180.8554,94.9741,176.75,103.9264" style="stroke:#222222;stroke-width:1.0;"/><text fill="#000000" font-family="sans-serif" font-size="13" lengthAdjust="spacing" textLength="78" x="381" y="20.8516">composed by</text><text fill="#000000" font-family="sans-serif" font-size="13" lengthAdjust="spacing" textLength="20" x="184.4883" y="93.5059">1..*</text></g><!--MD5=[6df205c85b5f33c8d427fd455753ef9d]
link AGV to AGVTask--><g id="link_AGV_AGVTask"><path codeLine="123" d="M907.88,168.3564 C933.71,168.3564 969.5,168.3564 1001.59,168.3564 " fill="none" id="AGV-to-AGVTask" style="stroke:#222222;stroke-width:1.0;"/><polygon fill="#222222" points="1006.71,168.3564,997.71,164.3564,1001.71,168.3564,997.71,172.3564,1006.71,168.3564" style="stroke:#222222;stroke-width:1.0;"/><text fill="#000000" font-family="sans-serif" font-size="13" lengthAdjust="spacing" textLength="63" x="925.75" y="161.8516">associated</text><text fill="#000000" font-family="sans-serif" font-size="13" lengthAdjust="spacing" textLength="7" x="991.9973" y="165.0487">1</text></g><!--MD5=[3cebfd77e978f3cc1447a61a5cdce86a]
@startuml
'https://plantuml.com/class-diagram

skinparam classAttributeIconSize 0
hide empty attributes
skinparam classBackgroundColor beige
skinparam ArrowColor #222222

package "<<aggregate>> ProductOrder"{
    entity ProductOrder
    entity OrderItem
    class TotalPriceWithoutVAT
    class TotalPriceWithVAT
    class Status
    class TotalVolume
    class TotalWeight
    class DeliveryAddress
    class BillingAddress
}

entity ProductOrder <<entity>> <<root>> {
- numericIdentifier
- dateOfOrder
- shipmentMethod
- paymentMethod

}

entity OrderItem <<entity>> {
    -itemQuantity
}

class TotalPriceWithoutVAT <<(V,#FF8B40) value object>> {}
class TotalPriceWithVAT <<(V,#FF8B40) value object>> {}
class DeliveryAddress <<(V,#FF8B40) value object>> {}
class BillingAddress <<(V,#FF8B40) value object>> {}
class Status <<(V,#FF8B40) value object>> {}
class TotalVolume <<(V,#FF8B40) value object>> {}
class TotalWeight <<(V,#FF8B40) value object>> {}

package "<<aggregate>> Client" {
    entity Client
    class PostalAddresses
}

entity Client <<entity>> <<root>> {

}
class PostalAddresses <<(V,#FF8B40) value object>> {}

entity Client <<entity>> <<root>> {

}
package "<<aggregate>> ShopCar"{
    entity ShopCar
    entity Item
}

entity ShopCar <<entity>> <<root>>{

}
entity Item <<entity>> {
    -productQuantity

}
package "<<aggregate>> Product"{
     entity Product
     class PriceWithoutVAT
     class PriceWithVAT

}

entity Product <<entity>> <<root>> {

}

class PriceWithoutVAT <<(V,#FF8B40) value object>> {}
class PriceWithVAT <<(V,#FF8B40) value object>> {}

package "<<aggregate>> Employee" {
    entity Employee
}

entity Employee <<entity>> <<root>> {
    -identifier
}

package "<<aggregate>> AGV" {
    entity AGV
    entity AGVTask

}

entity AGV <<entity>> <<root>> {
    -state
}

entity AGVTask <<entity>> {
    -id
    -agvTaskDescription
}

Client - - - - -> "1" ShopCar : associated
ProductOrder - - - - -> "1" Client : associated
Client -> "0..*" PostalAddresses: associated with an
ShopCar ...> "1" ProductOrder : is transformed
Product - -> "1" PriceWithoutVAT: associated
Product - -> "1" PriceWithVAT: associated
Item - -> "1" Product : composed by
ProductOrder -> "1" TotalPriceWithoutVAT : is marked
ProductOrder -> "1" TotalPriceWithVAT : is marked
ShopCar -> "1..*" Item : composed by
ProductOrder - - - -> "0..1" Employee : associated with
ProductOrder - -> "1" Status : is in
ProductOrder - - -> "1" TotalVolume : associated with
ProductOrder - - -> "1" TotalWeight : associated with
ProductOrder - - -> "1" DeliveryAddress : associated with
ProductOrder - - -> "1" BillingAddress : associated with
ProductOrder -> "1..*" OrderItem : composed by
OrderItem - - - - - - - -> "1" Product : composed by

AGVTask -> "1..*" ProductOrder : composed by

AGV -> "1" AGVTask : associated
@enduml

@startuml

skinparam classAttributeIconSize 0
hide empty attributes
skinparam classBackgroundColor beige
skinparam ArrowColor #222222

package "<<aggregate>> ProductOrder"{
    entity ProductOrder
    entity OrderItem
    class TotalPriceWithoutVAT
    class TotalPriceWithVAT
    class Status
    class TotalVolume
    class TotalWeight
    class DeliveryAddress
    class BillingAddress
}

entity ProductOrder <<entity>> <<root>> {
- numericIdentifier
- dateOfOrder
- shipmentMethod
- paymentMethod

}

entity OrderItem <<entity>> {
    -itemQuantity
}

class TotalPriceWithoutVAT <<(V,#FF8B40) value object>> {}
class TotalPriceWithVAT <<(V,#FF8B40) value object>> {}
class DeliveryAddress <<(V,#FF8B40) value object>> {}
class BillingAddress <<(V,#FF8B40) value object>> {}
class Status <<(V,#FF8B40) value object>> {}
class TotalVolume <<(V,#FF8B40) value object>> {}
class TotalWeight <<(V,#FF8B40) value object>> {}

package "<<aggregate>> Client" {
    entity Client
    class PostalAddresses
}

entity Client <<entity>> <<root>> {

}
class PostalAddresses <<(V,#FF8B40) value object>> {}

entity Client <<entity>> <<root>> {

}
package "<<aggregate>> ShopCar"{
    entity ShopCar
    entity Item
}

entity ShopCar <<entity>> <<root>>{

}
entity Item <<entity>> {
    -productQuantity

}
package "<<aggregate>> Product"{
     entity Product
     class PriceWithoutVAT
     class PriceWithVAT

}

entity Product <<entity>> <<root>> {

}

class PriceWithoutVAT <<(V,#FF8B40) value object>> {}
class PriceWithVAT <<(V,#FF8B40) value object>> {}

package "<<aggregate>> Employee" {
    entity Employee
}

entity Employee <<entity>> <<root>> {
    -identifier
}

package "<<aggregate>> AGV" {
    entity AGV
    entity AGVTask

}

entity AGV <<entity>> <<root>> {
    -state
}

entity AGVTask <<entity>> {
    -id
    -agvTaskDescription
}

Client - - - - -> "1" ShopCar : associated
ProductOrder - - - - -> "1" Client : associated
Client -> "0..*" PostalAddresses: associated with an
ShopCar ...> "1" ProductOrder : is transformed
Product - -> "1" PriceWithoutVAT: associated
Product - -> "1" PriceWithVAT: associated
Item - -> "1" Product : composed by
ProductOrder -> "1" TotalPriceWithoutVAT : is marked
ProductOrder -> "1" TotalPriceWithVAT : is marked
ShopCar -> "1..*" Item : composed by
ProductOrder - - - -> "0..1" Employee : associated with
ProductOrder - -> "1" Status : is in
ProductOrder - - -> "1" TotalVolume : associated with
ProductOrder - - -> "1" TotalWeight : associated with
ProductOrder - - -> "1" DeliveryAddress : associated with
ProductOrder - - -> "1" BillingAddress : associated with
ProductOrder -> "1..*" OrderItem : composed by
OrderItem - - - - - - - -> "1" Product : composed by

AGVTask -> "1..*" ProductOrder : composed by

AGV -> "1" AGVTask : associated
@enduml

PlantUML version 1.2022.4(Sat Apr 09 14:29:17 BST 2022)
(GPL source distribution)
Java Runtime: OpenJDK Runtime Environment
JVM: OpenJDK 64-Bit Server VM
Default Encoding: Cp1252
Language: pt
Country: PT
--></g></svg>