<?xml version="1.0" encoding="UTF-8" standalone="no"?><svg xmlns="http://www.w3.org/2000/svg" xmlns:xlink="http://www.w3.org/1999/xlink" contentScriptType="application/ecmascript" contentStyleType="text/css" height="917px" preserveAspectRatio="none" style="width:436px;height:917px;background:#FFFFFF;" version="1.1" viewBox="0 0 436 917" width="436px" zoomAndPan="magnify"><defs><filter height="300%" id="fgcuwl8a5thro" width="300%" x="-1" y="-1"><feGaussianBlur result="blurOut" stdDeviation="2.0"/><feColorMatrix in="blurOut" result="blurOut2" type="matrix" values="0 0 0 0 0 0 0 0 0 0 0 0 0 0 0 0 0 0 .4 0"/><feOffset dx="4.0" dy="4.0" in="blurOut2" result="blurOut3"/><feBlend in="SourceGraphic" in2="blurOut3" mode="normal"/></filter></defs><g><!--MD5=[22b4f80a245276e25c9cb3ee67d19758]
cluster <<aggregate>> AGV--><polygon fill="#FFFFFF" filter="url(#fgcuwl8a5thro)" points="16,6,159,6,166,29.6094,419,29.6094,419,910,16,910,16,6" style="stroke:#000000;stroke-width:1.5;"/><line style="stroke:#000000;stroke-width:1.5;" x1="16" x2="166" y1="29.6094" y2="29.6094"/><text fill="#000000" font-family="sans-serif" font-size="14" font-weight="bold" lengthAdjust="spacing" textLength="137" x="20" y="22.5332">&lt;&lt;aggregate&gt;&gt; AGV</text><!--MD5=[53b2c06ade5903185ca3326dce80e141]
class AGV--><rect codeLine="22" fill="#F5F5DC" filter="url(#fgcuwl8a5thro)" height="63.2813" id="AGV" style="stroke:#A80036;stroke-width:1.5;" width="71" x="32" y="429.5"/><ellipse cx="47" cy="457.1406" fill="#ADD1B2" rx="11" ry="11" style="stroke:#A80036;stroke-width:1.0;"/><path d="M45.5,458.1406 L45.5,460.1406 L49.5,460.1406 L49.5,459.1406 L49.5,458.6563 L50.125,458.1406 L50.5,458.1406 L50.875,458.1406 L51.5,458.6563 L51.5,459.1406 L51.5,462.1406 L43.5,462.1406 L43.0156,462.1406 L42.5,461.5156 L42.5,461.1406 L42.5,460.7656 L43.0156,460.1406 L43.5,460.1406 L43.5,460.1406 L43.5,454.1406 L43.5,454.1406 L43.0156,454.1406 L42.5,453.5156 L42.5,453.1406 L42.5,452.7656 L43.0156,452.1406 L43.5,452.1406 L51.5,452.1406 L51.5,455.1406 L51.5,455.625 L50.875,456.1406 L50.5,456.1406 L50.125,456.1406 L49.5,455.625 L49.5,455.1406 L49.5,454.1406 L45.5,454.1406 L45.5,456.1406 L46.5,456.1406 L46.5,455.6563 L46.5,455.6563 L47.125,455.1406 L47.5,455.1406 L47.875,455.1406 L48.5,455.6563 L48.5,456.1406 L48.5,458.1406 L48.5,458.625 L47.875,459.1406 L47.875,459.1406 L47.5,459.1406 L47.125,459.1406 L46.5,458.625 L46.5,458.625 L46.5,458.1406 L45.5,458.1406 Z " fill="#000000"/><text fill="#000000" font-family="sans-serif" font-size="12" font-style="italic" lengthAdjust="spacing" textLength="43" x="59" y="446.957">«entity»</text><text fill="#000000" font-family="sans-serif" font-size="12" font-style="italic" lengthAdjust="spacing" textLength="35" x="63" y="462.0508">«root»</text><text fill="#000000" font-family="sans-serif" font-size="12" lengthAdjust="spacing" textLength="23" x="69" y="477.1445">AGV</text><line style="stroke:#A80036;stroke-width:1.5;" x1="33" x2="102" y1="484.7813" y2="484.7813"/><!--MD5=[16e34fb2e0281018267f0ef5d0b296ef]
class BriefDescription--><rect codeLine="24" fill="#F5F5DC" filter="url(#fgcuwl8a5thro)" height="62.0234" id="BriefDescription" style="stroke:#A80036;stroke-width:1.5;" width="120" x="272" y="832"/><ellipse cx="287" cy="852.0938" fill="#FF8B40" rx="11" ry="11" style="stroke:#A80036;stroke-width:1.0;"/><path d="M287,855.375 L288.5313,849.8438 L288.5313,849.8438 L288.0156,849.8438 L287.5,849.2188 L287.5,848.8438 L287.5,848.4688 L288.0156,847.8438 L288.5313,847.8438 L290.4063,847.8438 L290.9844,847.8438 L291.5,848.4688 L291.5,848.8438 L291.5,849.2188 L290.9844,849.8438 L290.9844,849.8438 L290.5313,849.8438 L288.1875,857.8438 L285.8125,857.8438 L283.3438,849.8438 L283.0156,849.8438 L283.0156,849.8438 L282.5,849.2188 L282.5,848.8438 L282.5,848.4688 L283.0156,847.8438 L283.5938,847.8438 L285.4688,847.8438 L285.9844,847.8438 L286.5,848.4688 L286.5,848.8438 L286.5,849.2188 L285.9844,849.8438 L285.4688,849.8438 L285.4688,849.8438 L287,855.375 Z " fill="#000000"/><text fill="#000000" font-family="sans-serif" font-size="12" font-style="italic" lengthAdjust="spacing" textLength="81" x="304.5" y="849.457">«value object»</text><text fill="#000000" font-family="sans-serif" font-size="12" lengthAdjust="spacing" textLength="88" x="301" y="864.5508">BriefDescription</text><line style="stroke:#A80036;stroke-width:1.5;" x1="273" x2="391" y1="872.1875" y2="872.1875"/><text fill="#000000" font-family="sans-serif" font-size="11" lengthAdjust="spacing" textLength="80" x="278" y="887.6064">-briefDescription</text><!--MD5=[7e20e022571e30ec1001cf6eabd7f3e2]
class Model--><rect codeLine="28" fill="#F5F5DC" filter="url(#fgcuwl8a5thro)" height="62.0234" id="Model" style="stroke:#A80036;stroke-width:1.5;" width="109" x="277.5" y="735"/><ellipse cx="292.5" cy="755.0938" fill="#FF8B40" rx="11" ry="11" style="stroke:#A80036;stroke-width:1.0;"/><path d="M292.5,758.375 L294.0313,752.8438 L294.0313,752.8438 L293.5156,752.8438 L293,752.2188 L293,751.8438 L293,751.4688 L293.5156,750.8438 L294.0313,750.8438 L295.9063,750.8438 L296.4844,750.8438 L297,751.4688 L297,751.8438 L297,752.2188 L296.4844,752.8438 L296.4844,752.8438 L296.0313,752.8438 L293.6875,760.8438 L291.3125,760.8438 L288.8438,752.8438 L288.5156,752.8438 L288.5156,752.8438 L288,752.2188 L288,751.8438 L288,751.4688 L288.5156,750.8438 L289.0938,750.8438 L290.9688,750.8438 L291.4844,750.8438 L292,751.4688 L292,751.8438 L292,752.2188 L291.4844,752.8438 L290.9688,752.8438 L290.9688,752.8438 L292.5,758.375 Z " fill="#000000"/><text fill="#000000" font-family="sans-serif" font-size="12" font-style="italic" lengthAdjust="spacing" textLength="81" x="304.5" y="752.457">«value object»</text><text fill="#000000" font-family="sans-serif" font-size="12" lengthAdjust="spacing" textLength="33" x="328.5" y="767.5508">Model</text><line style="stroke:#A80036;stroke-width:1.5;" x1="278.5" x2="385.5" y1="775.1875" y2="775.1875"/><text fill="#000000" font-family="sans-serif" font-size="11" lengthAdjust="spacing" textLength="32" x="283.5" y="790.6064">-model</text><!--MD5=[e583cbaa21abc89bc679fcec0dd8046e]
class AGVStatus--><rect codeLine="36" fill="#F5F5DC" filter="url(#fgcuwl8a5thro)" height="62.0234" id="AGVStatus" style="stroke:#A80036;stroke-width:1.5;" width="109" x="277.5" y="638"/><ellipse cx="292.5" cy="658.0938" fill="#FF8B40" rx="11" ry="11" style="stroke:#A80036;stroke-width:1.0;"/><path d="M292.5,661.375 L294.0313,655.8438 L294.0313,655.8438 L293.5156,655.8438 L293,655.2188 L293,654.8438 L293,654.4688 L293.5156,653.8438 L294.0313,653.8438 L295.9063,653.8438 L296.4844,653.8438 L297,654.4688 L297,654.8438 L297,655.2188 L296.4844,655.8438 L296.4844,655.8438 L296.0313,655.8438 L293.6875,663.8438 L291.3125,663.8438 L288.8438,655.8438 L288.5156,655.8438 L288.5156,655.8438 L288,655.2188 L288,654.8438 L288,654.4688 L288.5156,653.8438 L289.0938,653.8438 L290.9688,653.8438 L291.4844,653.8438 L292,654.4688 L292,654.8438 L292,655.2188 L291.4844,655.8438 L290.9688,655.8438 L290.9688,655.8438 L292.5,661.375 Z " fill="#000000"/><text fill="#000000" font-family="sans-serif" font-size="12" font-style="italic" lengthAdjust="spacing" textLength="81" x="304.5" y="655.457">«value object»</text><text fill="#000000" font-family="sans-serif" font-size="12" lengthAdjust="spacing" textLength="58" x="316" y="670.5508">AGVStatus</text><line style="stroke:#A80036;stroke-width:1.5;" x1="278.5" x2="385.5" y1="678.1875" y2="678.1875"/><text fill="#000000" font-family="sans-serif" font-size="11" lengthAdjust="spacing" textLength="49" x="283.5" y="693.6064">-taskState</text><!--MD5=[529d3a023cdac506d4f0a83ea48e48d1]
class AGVTask--><rect codeLine="56" fill="#F5F5DC" filter="url(#fgcuwl8a5thro)" height="75.8594" id="AGVTask" style="stroke:#A80036;stroke-width:1.5;" width="111" x="276.5" y="527"/><ellipse cx="304.55" cy="547.0938" fill="#ADD1B2" rx="11" ry="11" style="stroke:#A80036;stroke-width:1.0;"/><path d="M303.05,548.0938 L303.05,550.0938 L307.05,550.0938 L307.05,549.0938 L307.05,548.6094 L307.675,548.0938 L308.05,548.0938 L308.425,548.0938 L309.05,548.6094 L309.05,549.0938 L309.05,552.0938 L301.05,552.0938 L300.5656,552.0938 L300.05,551.4688 L300.05,551.0938 L300.05,550.7188 L300.5656,550.0938 L301.05,550.0938 L301.05,550.0938 L301.05,544.0938 L301.05,544.0938 L300.5656,544.0938 L300.05,543.4688 L300.05,543.0938 L300.05,542.7188 L300.5656,542.0938 L301.05,542.0938 L309.05,542.0938 L309.05,545.0938 L309.05,545.5781 L308.425,546.0938 L308.05,546.0938 L307.675,546.0938 L307.05,545.5781 L307.05,545.0938 L307.05,544.0938 L303.05,544.0938 L303.05,546.0938 L304.05,546.0938 L304.05,545.6094 L304.05,545.6094 L304.675,545.0938 L305.05,545.0938 L305.425,545.0938 L306.05,545.6094 L306.05,546.0938 L306.05,548.0938 L306.05,548.5781 L305.425,549.0938 L305.425,549.0938 L305.05,549.0938 L304.675,549.0938 L304.05,548.5781 L304.05,548.5781 L304.05,548.0938 L303.05,548.0938 Z " fill="#000000"/><text fill="#000000" font-family="sans-serif" font-size="12" font-style="italic" lengthAdjust="spacing" textLength="43" x="324.95" y="544.457">«entity»</text><text fill="#000000" font-family="sans-serif" font-size="12" lengthAdjust="spacing" textLength="50" x="321.45" y="559.5508">AGVTask</text><line style="stroke:#A80036;stroke-width:1.5;" x1="277.5" x2="386.5" y1="567.1875" y2="567.1875"/><text fill="#000000" font-family="sans-serif" font-size="11" lengthAdjust="spacing" textLength="12" x="282.5" y="582.6064">-id</text><text fill="#000000" font-family="sans-serif" font-size="11" lengthAdjust="spacing" textLength="99" x="282.5" y="596.4424">-agvTaskDescription</text><!--MD5=[05194f585e571ad3b22e4df7dddd3081]
class MaxWeightCapacity--><rect codeLine="48" fill="#F5F5DC" filter="url(#fgcuwl8a5thro)" height="62.0234" id="MaxWeightCapacity" style="stroke:#A80036;stroke-width:1.5;" width="138" x="263" y="430"/><ellipse cx="278" cy="450.0938" fill="#FF8B40" rx="11" ry="11" style="stroke:#A80036;stroke-width:1.0;"/><path d="M278,453.375 L279.5313,447.8438 L279.5313,447.8438 L279.0156,447.8438 L278.5,447.2188 L278.5,446.8438 L278.5,446.4688 L279.0156,445.8438 L279.5313,445.8438 L281.4063,445.8438 L281.9844,445.8438 L282.5,446.4688 L282.5,446.8438 L282.5,447.2188 L281.9844,447.8438 L281.9844,447.8438 L281.5313,447.8438 L279.1875,455.8438 L276.8125,455.8438 L274.3438,447.8438 L274.0156,447.8438 L274.0156,447.8438 L273.5,447.2188 L273.5,446.8438 L273.5,446.4688 L274.0156,445.8438 L274.5938,445.8438 L276.4688,445.8438 L276.9844,445.8438 L277.5,446.4688 L277.5,446.8438 L277.5,447.2188 L276.9844,447.8438 L276.4688,447.8438 L276.4688,447.8438 L278,453.375 Z " fill="#000000"/><text fill="#000000" font-family="sans-serif" font-size="12" font-style="italic" lengthAdjust="spacing" textLength="81" x="304.5" y="447.457">«value object»</text><text fill="#000000" font-family="sans-serif" font-size="12" lengthAdjust="spacing" textLength="106" x="292" y="462.5508">MaxWeightCapacity</text><line style="stroke:#A80036;stroke-width:1.5;" x1="264" x2="400" y1="470.1875" y2="470.1875"/><text fill="#000000" font-family="sans-serif" font-size="11" lengthAdjust="spacing" textLength="99" x="269" y="485.6064">-maxWeightCapacity</text><!--MD5=[9508bff04b47071e43dc54dae6bb7ca3]
class MaxVolumeCapacity--><rect codeLine="52" fill="#F5F5DC" filter="url(#fgcuwl8a5thro)" height="62.0234" id="MaxVolumeCapacity" style="stroke:#A80036;stroke-width:1.5;" width="142" x="261" y="333"/><ellipse cx="276" cy="353.0938" fill="#FF8B40" rx="11" ry="11" style="stroke:#A80036;stroke-width:1.0;"/><path d="M276,356.375 L277.5313,350.8438 L277.5313,350.8438 L277.0156,350.8438 L276.5,350.2188 L276.5,349.8438 L276.5,349.4688 L277.0156,348.8438 L277.5313,348.8438 L279.4063,348.8438 L279.9844,348.8438 L280.5,349.4688 L280.5,349.8438 L280.5,350.2188 L279.9844,350.8438 L279.9844,350.8438 L279.5313,350.8438 L277.1875,358.8438 L274.8125,358.8438 L272.3438,350.8438 L272.0156,350.8438 L272.0156,350.8438 L271.5,350.2188 L271.5,349.8438 L271.5,349.4688 L272.0156,348.8438 L272.5938,348.8438 L274.4688,348.8438 L274.9844,348.8438 L275.5,349.4688 L275.5,349.8438 L275.5,350.2188 L274.9844,350.8438 L274.4688,350.8438 L274.4688,350.8438 L276,356.375 Z " fill="#000000"/><text fill="#000000" font-family="sans-serif" font-size="12" font-style="italic" lengthAdjust="spacing" textLength="81" x="304.5" y="350.457">«value object»</text><text fill="#000000" font-family="sans-serif" font-size="12" lengthAdjust="spacing" textLength="110" x="290" y="365.5508">MaxVolumeCapacity</text><line style="stroke:#A80036;stroke-width:1.5;" x1="262" x2="402" y1="373.1875" y2="373.1875"/><text fill="#000000" font-family="sans-serif" font-size="11" lengthAdjust="spacing" textLength="38" x="267" y="388.6064">-volume</text><!--MD5=[4d1e38779c686a11487444ed33c3c69e]
class AGVPosition--><rect codeLine="32" fill="#F5F5DC" filter="url(#fgcuwl8a5thro)" height="62.0234" id="AGVPosition" style="stroke:#A80036;stroke-width:1.5;" width="109" x="277.5" y="236"/><ellipse cx="292.5" cy="256.0938" fill="#FF8B40" rx="11" ry="11" style="stroke:#A80036;stroke-width:1.0;"/><path d="M292.5,259.375 L294.0313,253.8438 L294.0313,253.8438 L293.5156,253.8438 L293,253.2188 L293,252.8438 L293,252.4688 L293.5156,251.8438 L294.0313,251.8438 L295.9063,251.8438 L296.4844,251.8438 L297,252.4688 L297,252.8438 L297,253.2188 L296.4844,253.8438 L296.4844,253.8438 L296.0313,253.8438 L293.6875,261.8438 L291.3125,261.8438 L288.8438,253.8438 L288.5156,253.8438 L288.5156,253.8438 L288,253.2188 L288,252.8438 L288,252.4688 L288.5156,251.8438 L289.0938,251.8438 L290.9688,251.8438 L291.4844,251.8438 L292,252.4688 L292,252.8438 L292,253.2188 L291.4844,253.8438 L290.9688,253.8438 L290.9688,253.8438 L292.5,259.375 Z " fill="#000000"/><text fill="#000000" font-family="sans-serif" font-size="12" font-style="italic" lengthAdjust="spacing" textLength="81" x="304.5" y="253.457">«value object»</text><text fill="#000000" font-family="sans-serif" font-size="12" lengthAdjust="spacing" textLength="68" x="311" y="268.5508">AGVPosition</text><line style="stroke:#A80036;stroke-width:1.5;" x1="278.5" x2="385.5" y1="276.1875" y2="276.1875"/><text fill="#000000" font-family="sans-serif" font-size="11" lengthAdjust="spacing" textLength="59" x="283.5" y="291.6064">-agvPosition</text><!--MD5=[f6f08570da9efaa92dc067d88742b265]
class AGVId--><rect codeLine="40" fill="#F5F5DC" filter="url(#fgcuwl8a5thro)" height="62.0234" id="AGVId" style="stroke:#A80036;stroke-width:1.5;" width="109" x="277.5" y="139"/><ellipse cx="292.5" cy="159.0938" fill="#FF8B40" rx="11" ry="11" style="stroke:#A80036;stroke-width:1.0;"/><path d="M292.5,162.375 L294.0313,156.8438 L294.0313,156.8438 L293.5156,156.8438 L293,156.2188 L293,155.8438 L293,155.4688 L293.5156,154.8438 L294.0313,154.8438 L295.9063,154.8438 L296.4844,154.8438 L297,155.4688 L297,155.8438 L297,156.2188 L296.4844,156.8438 L296.4844,156.8438 L296.0313,156.8438 L293.6875,164.8438 L291.3125,164.8438 L288.8438,156.8438 L288.5156,156.8438 L288.5156,156.8438 L288,156.2188 L288,155.8438 L288,155.4688 L288.5156,154.8438 L289.0938,154.8438 L290.9688,154.8438 L291.4844,154.8438 L292,155.4688 L292,155.8438 L292,156.2188 L291.4844,156.8438 L290.9688,156.8438 L290.9688,156.8438 L292.5,162.375 Z " fill="#000000"/><text fill="#000000" font-family="sans-serif" font-size="12" font-style="italic" lengthAdjust="spacing" textLength="81" x="304.5" y="156.457">«value object»</text><text fill="#000000" font-family="sans-serif" font-size="12" lengthAdjust="spacing" textLength="33" x="328.5" y="171.5508">AGVId</text><line style="stroke:#A80036;stroke-width:1.5;" x1="278.5" x2="385.5" y1="179.1875" y2="179.1875"/><text fill="#000000" font-family="sans-serif" font-size="11" lengthAdjust="spacing" textLength="12" x="283.5" y="194.6064">-id</text><!--MD5=[2f49539d777d8d7526d361413cf07525]
class Range--><rect codeLine="44" fill="#F5F5DC" filter="url(#fgcuwl8a5thro)" height="62.0234" id="Range" style="stroke:#A80036;stroke-width:1.5;" width="109" x="277.5" y="42"/><ellipse cx="292.5" cy="62.0938" fill="#FF8B40" rx="11" ry="11" style="stroke:#A80036;stroke-width:1.0;"/><path d="M292.5,65.375 L294.0313,59.8438 L294.0313,59.8438 L293.5156,59.8438 L293,59.2188 L293,58.8438 L293,58.4688 L293.5156,57.8438 L294.0313,57.8438 L295.9063,57.8438 L296.4844,57.8438 L297,58.4688 L297,58.8438 L297,59.2188 L296.4844,59.8438 L296.4844,59.8438 L296.0313,59.8438 L293.6875,67.8438 L291.3125,67.8438 L288.8438,59.8438 L288.5156,59.8438 L288.5156,59.8438 L288,59.2188 L288,58.8438 L288,58.4688 L288.5156,57.8438 L289.0938,57.8438 L290.9688,57.8438 L291.4844,57.8438 L292,58.4688 L292,58.8438 L292,59.2188 L291.4844,59.8438 L290.9688,59.8438 L290.9688,59.8438 L292.5,65.375 Z " fill="#000000"/><text fill="#000000" font-family="sans-serif" font-size="12" font-style="italic" lengthAdjust="spacing" textLength="81" x="304.5" y="59.457">«value object»</text><text fill="#000000" font-family="sans-serif" font-size="12" lengthAdjust="spacing" textLength="37" x="326.5" y="74.5508">Range</text><line style="stroke:#A80036;stroke-width:1.5;" x1="278.5" x2="385.5" y1="82.1875" y2="82.1875"/><text fill="#000000" font-family="sans-serif" font-size="11" lengthAdjust="spacing" textLength="32" x="283.5" y="97.6064">-range</text><!--MD5=[2234673e5bfcd6f879a72487a4afa117]
link AGV to AGVId--><path codeLine="64" d="M73.35,429.44 C80.57,391.47 97.34,327.51 133,285 C170.1,240.77 228.81,209.72 272.69,191.12 " fill="none" id="AGV-to-AGVId" style="stroke:#222222;stroke-width:1.0;"/><polygon fill="#222222" points="277.42,189.14,267.5736,188.92,272.8067,191.0681,270.6586,196.3013,277.42,189.14" style="stroke:#222222;stroke-width:1.0;"/><text fill="#000000" font-family="sans-serif" font-size="13" lengthAdjust="spacing" textLength="21" x="171.5" y="207.4951">has</text><text fill="#000000" font-family="sans-serif" font-size="13" lengthAdjust="spacing" textLength="7" x="262.6155" y="206.3041">1</text><!--MD5=[544b9eb422541cc431b04e90f57fdf55]
link AGV to AGVStatus--><path codeLine="65" d="M86.27,492.61 C97.88,511.39 114.33,534.82 133,552 C174.67,590.35 230.94,622.12 272.85,642.83 " fill="none" id="AGV-to-AGVStatus" style="stroke:#222222;stroke-width:1.0;"/><polygon fill="#222222" points="277.37,645.05,271.0414,637.5036,272.8781,642.8539,267.5277,644.6906,277.37,645.05" style="stroke:#222222;stroke-width:1.0;"/><text fill="#000000" font-family="sans-serif" font-size="13" lengthAdjust="spacing" textLength="45" x="159.5" y="548.4951">collects</text><text fill="#000000" font-family="sans-serif" font-size="13" lengthAdjust="spacing" textLength="20" x="249.4932" y="656.6212">1..*</text><!--MD5=[b428ecffb88d381ab19e968f9006f1fa]
link AGV to Range--><path codeLine="66" d="M67.99,429.48 C68.66,374.4 77.25,259.44 133,185 C167.72,138.64 227.64,108.64 272.49,91.47 " fill="none" id="AGV-to-Range" style="stroke:#222222;stroke-width:1.0;"/><polygon fill="#222222" points="277.33,89.64,267.4985,89.0548,272.6484,91.3956,270.3075,96.5454,277.33,89.64" style="stroke:#222222;stroke-width:1.0;"/><text fill="#000000" font-family="sans-serif" font-size="13" lengthAdjust="spacing" textLength="50" x="157" y="107.4951">respects</text><text fill="#000000" font-family="sans-serif" font-size="13" lengthAdjust="spacing" textLength="7" x="262.5134" y="106.4682">1</text><!--MD5=[90de021bb2aa8991bb28cb59916c543e]
link AGV to Model--><path codeLine="67" d="M72.75,492.84 C79.48,532.68 95.85,601.22 133,647 C169.7,692.22 228.47,724.43 272.46,743.84 " fill="none" id="AGV-to-Model" style="stroke:#222222;stroke-width:1.0;"/><polygon fill="#222222" points="277.21,745.91,270.5595,738.6456,272.6269,743.9112,267.3614,745.9785,277.21,745.91" style="stroke:#222222;stroke-width:1.0;"/><text fill="#000000" font-family="sans-serif" font-size="13" lengthAdjust="spacing" textLength="21" x="171.5" y="643.4951">has</text><text fill="#000000" font-family="sans-serif" font-size="13" lengthAdjust="spacing" textLength="7" x="262.3773" y="757.8026">1</text><!--MD5=[a00a30fffa578e516f3e19cd4542a765]
link AGV to BriefDescription--><path codeLine="68" d="M67.58,492.6 C67.52,549.65 74.84,671.21 133,750 C166.11,794.86 222.74,824.56 266.97,842.21 " fill="none" id="AGV-to-BriefDescription" style="stroke:#222222;stroke-width:1.0;"/><polygon fill="#222222" points="271.75,844.09,264.8345,837.0774,267.0959,842.2626,261.9107,844.524,271.75,844.09" style="stroke:#222222;stroke-width:1.0;"/><text fill="#000000" font-family="sans-serif" font-size="13" lengthAdjust="spacing" textLength="96" x="134" y="746.4951">characterized by</text><text fill="#000000" font-family="sans-serif" font-size="13" lengthAdjust="spacing" textLength="7" x="256.9805" y="856.2755">1</text><!--MD5=[6d8c6a02073692a8b3732d0820cd1b6f]
link AGV to MaxWeightCapacity--><path codeLine="69" d="M103.09,461 C142.25,461 207.19,461 257.76,461 " fill="none" id="AGV-to-MaxWeightCapacity" style="stroke:#222222;stroke-width:1.0;"/><polygon fill="#222222" points="262.91,461,253.91,457,257.91,461,253.91,465,262.91,461" style="stroke:#222222;stroke-width:1.0;"/><text fill="#000000" font-family="sans-serif" font-size="13" lengthAdjust="spacing" textLength="50" x="157" y="457.4951">respects</text><text fill="#000000" font-family="sans-serif" font-size="13" lengthAdjust="spacing" textLength="7" x="247.9705" y="475.3881">1</text><!--MD5=[4c00ca5a25f901c6cb5884f2d77c2768]
link AGV to MaxVolumeCapacity--><path codeLine="70" d="M103.22,446.72 C112.83,442.84 123.3,438.69 133,435 C173.34,419.64 218.63,403.33 255.71,390.22 " fill="none" id="AGV-to-MaxVolumeCapacity" style="stroke:#222222;stroke-width:1.0;"/><polygon fill="#222222" points="260.66,388.48,250.8428,387.691,255.9429,390.1381,253.4958,395.2383,260.66,388.48" style="stroke:#222222;stroke-width:1.0;"/><text fill="#000000" font-family="sans-serif" font-size="13" lengthAdjust="spacing" textLength="50" x="157" y="396.4951">respects</text><text fill="#000000" font-family="sans-serif" font-size="13" lengthAdjust="spacing" textLength="7" x="245.9421" y="405.3415">1</text><!--MD5=[bf5efedcc9e681833f119f210f8fc209]
link AGV to AGVPosition--><path codeLine="71" d="M87.11,429.32 C98.69,411.51 114.81,389.76 133,374 C174.79,337.78 230.9,308.9 272.72,290.32 " fill="none" id="AGV-to-AGVPosition" style="stroke:#222222;stroke-width:1.0;"/><polygon fill="#222222" points="277.49,288.22,267.6412,288.1885,272.9145,290.2361,270.8669,295.5094,277.49,288.22" style="stroke:#222222;stroke-width:1.0;"/><text fill="#000000" font-family="sans-serif" font-size="13" lengthAdjust="spacing" textLength="56" x="154" y="307.4951">located in</text><text fill="#000000" font-family="sans-serif" font-size="13" lengthAdjust="spacing" textLength="7" x="262.3323" y="305.8473">1</text><!--MD5=[6df205c85b5f33c8d427fd455753ef9d]
link AGV to AGVTask--><path codeLine="72" d="M103.29,475.08 C112.91,478.96 123.35,483.16 133,487 C179.5,505.53 232.24,526.3 271.6,541.74 " fill="none" id="AGV-to-AGVTask" style="stroke:#222222;stroke-width:1.0;"/><polygon fill="#222222" points="276.33,543.6,269.4145,536.5874,271.6759,541.7726,266.4907,544.034,276.33,543.6" style="stroke:#222222;stroke-width:1.0;"/><text fill="#000000" font-family="sans-serif" font-size="13" lengthAdjust="spacing" textLength="63" x="150.5" y="483.4951">associated</text><text fill="#000000" font-family="sans-serif" font-size="13" lengthAdjust="spacing" textLength="7" x="261.379" y="555.3276">1</text><!--MD5=[e95eeb7d34173452acb717f070a7013f]
@startuml
'https://plantuml.com/sequence-diagram

hide methods
left to right direction
skinparam classAttributeIconSize 0
skinparam classBackgroundColor beige
skinparam ArrowColor #222222

package "<<aggregate>> AGV" {
    entity AGV
    class BriefDescription
    class Model
    class AGVStatus
    entity AGVTask
    class MaxWeightCapacity
    class MaxVolumeCapacity
    class AGVPosition
    class AGVId
    class Range
}

entity AGV <<entity>> <<root>> {}

class BriefDescription <<(V,#FF8B40) value object>> {
-briefDescription
}

class Model <<(V,#FF8B40) value object>> {
-model
}

class AGVPosition <<(V,#FF8B40) value object>> {
-agvPosition
}

class AGVStatus<<(V,#FF8B40) value object>> {
    -taskState
}

class AGVId <<(V,#FF8B40) value object>> {
-id
}

class Range <<(V,#FF8B40) value object>> {
-range
}

class MaxWeightCapacity <<(V,#FF8B40) value object>> {
-maxWeightCapacity
}

class MaxVolumeCapacity <<(V,#FF8B40) value object>> {
-volume
}

entity AGVTask <<entity>> {
    -id
    -agvTaskDescription
}




AGV - -> "1" AGVId : has
AGV - -> "1..*" AGVStatus : collects
AGV - -> "1" Range : respects
AGV - -> "1" Model : has
AGV - -> "1" BriefDescription : characterized by
AGV - -> "1" MaxWeightCapacity : respects
AGV - -> "1" MaxVolumeCapacity : respects
AGV - -> "1" AGVPosition : located in
AGV - -> "1" AGVTask : associated


@enduml

@startuml

hide methods
left to right direction
skinparam classAttributeIconSize 0
skinparam classBackgroundColor beige
skinparam ArrowColor #222222

package "<<aggregate>> AGV" {
    entity AGV
    class BriefDescription
    class Model
    class AGVStatus
    entity AGVTask
    class MaxWeightCapacity
    class MaxVolumeCapacity
    class AGVPosition
    class AGVId
    class Range
}

entity AGV <<entity>> <<root>> {}

class BriefDescription <<(V,#FF8B40) value object>> {
-briefDescription
}

class Model <<(V,#FF8B40) value object>> {
-model
}

class AGVPosition <<(V,#FF8B40) value object>> {
-agvPosition
}

class AGVStatus<<(V,#FF8B40) value object>> {
    -taskState
}

class AGVId <<(V,#FF8B40) value object>> {
-id
}

class Range <<(V,#FF8B40) value object>> {
-range
}

class MaxWeightCapacity <<(V,#FF8B40) value object>> {
-maxWeightCapacity
}

class MaxVolumeCapacity <<(V,#FF8B40) value object>> {
-volume
}

entity AGVTask <<entity>> {
    -id
    -agvTaskDescription
}




AGV - -> "1" AGVId : has
AGV - -> "1..*" AGVStatus : collects
AGV - -> "1" Range : respects
AGV - -> "1" Model : has
AGV - -> "1" BriefDescription : characterized by
AGV - -> "1" MaxWeightCapacity : respects
AGV - -> "1" MaxVolumeCapacity : respects
AGV - -> "1" AGVPosition : located in
AGV - -> "1" AGVTask : associated


@enduml

PlantUML version 1.2022.1(Tue Feb 01 18:19:58 GMT 2022)
(GPL source distribution)
Java Runtime: OpenJDK Runtime Environment
JVM: OpenJDK 64-Bit Server VM
Default Encoding: Cp1252
Language: pt
Country: BR
--></g></svg>