<?xml version="1.0" encoding="UTF-8" standalone="no"?><svg xmlns="http://www.w3.org/2000/svg" xmlns:xlink="http://www.w3.org/1999/xlink" contentStyleType="text/css" height="699.2px" preserveAspectRatio="none" style="width:541px;height:699px;background:#FFFFFF;" version="1.1" viewBox="0 0 541 699" width="541.6px" zoomAndPan="magnify"><defs/><g><!--MD5=[e541b2dfaa39194f5c5b0a7bafc0c9d1]
entity SurveyRepository--><g id="elem_SurveyRepository"><path d="M204.8,656.8 C204.8,648.8 257.6,648.8 257.6,648.8 C257.6,648.8 310.4,648.8 310.4,656.8 L310.4,678.0875 C310.4,686.0875 257.6,686.0875 257.6,686.0875 C257.6,686.0875 204.8,686.0875 204.8,678.0875 L204.8,656.8 " fill="#F1F1F1" style="stroke:#181818;stroke-width:0.4000000000000001;"/><path d="M204.8,656.8 C204.8,664.8 257.6,664.8 257.6,664.8 C257.6,664.8 310.4,664.8 310.4,656.8 " fill="none" style="stroke:#181818;stroke-width:0.4000000000000001;"/><text fill="#000000" font-family="sans-serif" font-size="11.2" lengthAdjust="spacing" textLength="89.6" x="212.8" y="679.6266">SurveyRepository</text></g><!--MD5=[149a1c7f023ae6618377eaa02fe6b13d]
entity AnswerRepository--><g id="elem_AnswerRepository"><path d="M410.4,656.8 C410.4,648.8 464,648.8 464,648.8 C464,648.8 517.6,648.8 517.6,656.8 L517.6,678.0875 C517.6,686.0875 464,686.0875 464,686.0875 C464,686.0875 410.4,686.0875 410.4,678.0875 L410.4,656.8 " fill="#F1F1F1" style="stroke:#181818;stroke-width:0.4000000000000001;"/><path d="M410.4,656.8 C410.4,664.8 464,664.8 464,664.8 C464,664.8 517.6,664.8 517.6,656.8 " fill="none" style="stroke:#181818;stroke-width:0.4000000000000001;"/><text fill="#000000" font-family="sans-serif" font-size="11.2" lengthAdjust="spacing" textLength="91.2" x="418.4" y="679.6266">AnswerRepository</text></g><!--MD5=[dbc76c11dae9659a36d2f06f1b1c0d1e]
class ObterRelatorioEstatisticoUI--><g id="elem_ObterRelatorioEstatisticoUI"><rect codeLine="3" fill="#F1F1F1" height="38.4" id="ObterRelatorioEstatisticoUI" rx="2" ry="2" style="stroke:#181818;stroke-width:0.4000000000000001;" width="160.8" x="111.6" y="5.6"/><ellipse cx="123.6" cy="18.4" fill="#ADD1B2" rx="8.8" ry="8.8" style="stroke:#181818;stroke-width:0.8000000000000002;"/><path d="M125.2,15.6 Q125.3625,15.2 125.55,15 Q125.7375,14.8 125.95,14.8 Q126.325,14.8 126.5625,15.025 Q126.8,15.25 126.8,15.775 L126.8,17.025 Q126.8,17.55 126.575,17.775 Q126.35,18 126,18 Q125.6875,18 125.4875,17.8625 Q125.2875,17.725 125.2,17.3625 Q125.1625,17.1125 125.025,16.975 Q124.775,16.7125 124.325,16.5625 Q123.875,16.4 123.425,16.4 Q122.8625,16.4 122.3875,16.625 Q121.925,16.85 121.5625,17.35 Q121.2,17.85 121.2,18.5375 L121.2,19.275 Q121.2,20.1 121.875,20.65 Q122.55,21.2 123.75,21.2 Q124.4625,21.2 124.9625,21.0375 Q125.25,20.95 125.575,20.6625 Q125.7875,20.5 125.9,20.45 Q126.0125,20.4 126.15,20.4 Q126.4125,20.4 126.6,20.6125 Q126.8,20.8125 126.8,21.1 Q126.8,21.375 126.525,21.7 Q126.125,22.175 125.4875,22.4375 Q124.65,22.8 123.625,22.8 Q122.425,22.8 121.4625,22.325 Q120.6875,21.95 120.1375,21.1375 Q119.6,20.325 119.6,19.3625 L119.6,18.4875 Q119.6,17.4875 120.075,16.6125 Q120.5625,15.7375 121.4,15.275 Q122.25,14.8 123.2,14.8 Q123.775,14.8 124.275,15 Q124.775,15.2 125.2,15.6 Z " fill="#000000"/><text fill="#000000" font-family="sans-serif" font-size="11.2" lengthAdjust="spacing" textLength="135.2" x="134.8" y="22.9828">ObterRelatorioEstatisticoUI</text><line style="stroke:#181818;stroke-width:0.4000000000000001;" x1="112.4" x2="271.6" y1="31.2" y2="31.2"/><line style="stroke:#181818;stroke-width:0.4000000000000001;" x1="112.4" x2="271.6" y1="37.6" y2="37.6"/></g><!--MD5=[a09d34132d402a9ecda46067700ac149]
class ObterRelatorioEstatisticoController--><g id="elem_ObterRelatorioEstatisticoController"><rect codeLine="17" fill="#F1F1F1" height="151.1" id="ObterRelatorioEstatisticoController" rx="2" ry="2" style="stroke:#181818;stroke-width:0.4000000000000001;" width="329.6" x="27.2" y="92"/><ellipse cx="101" cy="104.8" fill="#ADD1B2" rx="8.8" ry="8.8" style="stroke:#181818;stroke-width:0.8000000000000002;"/><path d="M102.6,102 Q102.7625,101.6 102.95,101.4 Q103.1375,101.2 103.35,101.2 Q103.725,101.2 103.9625,101.425 Q104.2,101.65 104.2,102.175 L104.2,103.425 Q104.2,103.95 103.975,104.175 Q103.75,104.4 103.4,104.4 Q103.0875,104.4 102.8875,104.2625 Q102.6875,104.125 102.6,103.7625 Q102.5625,103.5125 102.425,103.375 Q102.175,103.1125 101.725,102.9625 Q101.275,102.8 100.825,102.8 Q100.2625,102.8 99.7875,103.025 Q99.325,103.25 98.9625,103.75 Q98.6,104.25 98.6,104.9375 L98.6,105.675 Q98.6,106.5 99.275,107.05 Q99.95,107.6 101.15,107.6 Q101.8625,107.6 102.3625,107.4375 Q102.65,107.35 102.975,107.0625 Q103.1875,106.9 103.3,106.85 Q103.4125,106.8 103.55,106.8 Q103.8125,106.8 104,107.0125 Q104.2,107.2125 104.2,107.5 Q104.2,107.775 103.925,108.1 Q103.525,108.575 102.8875,108.8375 Q102.05,109.2 101.025,109.2 Q99.825,109.2 98.8625,108.725 Q98.0875,108.35 97.5375,107.5375 Q97,106.725 97,105.7625 L97,104.8875 Q97,103.8875 97.475,103.0125 Q97.9625,102.1375 98.8,101.675 Q99.65,101.2 100.6,101.2 Q101.175,101.2 101.675,101.4 Q102.175,101.6 102.6,102 Z " fill="#000000"/><text fill="#000000" font-family="sans-serif" font-size="11.2" lengthAdjust="spacing" textLength="175.2" x="117.4" y="109.3828">ObterRelatorioEstatisticoController</text><line style="stroke:#181818;stroke-width:0.4000000000000001;" x1="28" x2="356" y1="117.6" y2="117.6"/><line style="stroke:#181818;stroke-width:0.4000000000000001;" x1="28" x2="356" y1="124" y2="124"/><ellipse cx="36" cy="132.8" fill="#84BE84" rx="2.4" ry="2.4" style="stroke:#038048;stroke-width:0.8000000000000002;"/><text fill="#000000" font-family="sans-serif" font-size="11.2" lengthAdjust="spacing" textLength="115.2" x="43.2" y="138.8266">findAllQuestionnaires()</text><ellipse cx="36" cy="146.8875" fill="#84BE84" rx="2.4" ry="2.4" style="stroke:#038048;stroke-width:0.8000000000000002;"/><text fill="#000000" font-family="sans-serif" font-size="11.2" lengthAdjust="spacing" textLength="185.6" x="43.2" y="152.9141">obterQuantidadeClientsInquiridos(id)</text><ellipse cx="36" cy="160.975" fill="#84BE84" rx="2.4" ry="2.4" style="stroke:#038048;stroke-width:0.8000000000000002;"/><text fill="#000000" font-family="sans-serif" font-size="11.2" lengthAdjust="spacing" textLength="156" x="43.2" y="167.0016">obterQuantidadeRespostas(id)</text><ellipse cx="36" cy="175.0625" fill="#84BE84" rx="2.4" ry="2.4" style="stroke:#038048;stroke-width:0.8000000000000002;"/><text fill="#000000" font-family="sans-serif" font-size="11.2" lengthAdjust="spacing" textLength="145.6" x="43.2" y="181.0891">obterQuestõesRespostas(id)</text><ellipse cx="36" cy="189.15" fill="#84BE84" rx="2.4" ry="2.4" style="stroke:#038048;stroke-width:0.8000000000000002;"/><text fill="#000000" font-family="sans-serif" font-size="11.2" lengthAdjust="spacing" textLength="294.4" x="43.2" y="195.1766">obterQuantidadeRespostasOpcao(questionId,op,surveyId)</text><ellipse cx="36" cy="203.2375" fill="#84BE84" rx="2.4" ry="2.4" style="stroke:#038048;stroke-width:0.8000000000000002;"/><text fill="#000000" font-family="sans-serif" font-size="11.2" lengthAdjust="spacing" textLength="308.8" x="43.2" y="209.2641">obterQuantClientesRespondeuPergunta(questionId,surveyId)</text><ellipse cx="36" cy="217.325" fill="#84BE84" rx="2.4" ry="2.4" style="stroke:#038048;stroke-width:0.8000000000000002;"/><text fill="#000000" font-family="sans-serif" font-size="11.2" lengthAdjust="spacing" textLength="182.4" x="43.2" y="223.3516">obterRespostasMedia(questionId,id)</text><ellipse cx="36" cy="231.4125" fill="#84BE84" rx="2.4" ry="2.4" style="stroke:#038048;stroke-width:0.8000000000000002;"/><text fill="#000000" font-family="sans-serif" font-size="11.2" lengthAdjust="spacing" textLength="256" x="43.2" y="237.4391">obterQuantidadeRespostasOutra(questionId,op,id)</text></g><!--MD5=[5a3b85c54cc1c79904e0b827443986bf]
class Questionnaire--><g id="elem_Questionnaire"><rect codeLine="32" fill="#F1F1F1" height="94.75" id="Questionnaire" rx="2" ry="2" style="stroke:#181818;stroke-width:0.4000000000000001;" width="182.4" x="32.8" y="392"/><ellipse cx="85" cy="404.8" fill="#ADD1B2" rx="8.8" ry="8.8" style="stroke:#181818;stroke-width:0.8000000000000002;"/><path d="M86.6,402 Q86.7625,401.6 86.95,401.4 Q87.1375,401.2 87.35,401.2 Q87.725,401.2 87.9625,401.425 Q88.2,401.65 88.2,402.175 L88.2,403.425 Q88.2,403.95 87.975,404.175 Q87.75,404.4 87.4,404.4 Q87.0875,404.4 86.8875,404.2625 Q86.6875,404.125 86.6,403.7625 Q86.5625,403.5125 86.425,403.375 Q86.175,403.1125 85.725,402.9625 Q85.275,402.8 84.825,402.8 Q84.2625,402.8 83.7875,403.025 Q83.325,403.25 82.9625,403.75 Q82.6,404.25 82.6,404.9375 L82.6,405.675 Q82.6,406.5 83.275,407.05 Q83.95,407.6 85.15,407.6 Q85.8625,407.6 86.3625,407.4375 Q86.65,407.35 86.975,407.0625 Q87.1875,406.9 87.3,406.85 Q87.4125,406.8 87.55,406.8 Q87.8125,406.8 88,407.0125 Q88.2,407.2125 88.2,407.5 Q88.2,407.775 87.925,408.1 Q87.525,408.575 86.8875,408.8375 Q86.05,409.2 85.025,409.2 Q83.825,409.2 82.8625,408.725 Q82.0875,408.35 81.5375,407.5375 Q81,406.725 81,405.7625 L81,404.8875 Q81,403.8875 81.475,403.0125 Q81.9625,402.1375 82.8,401.675 Q83.65,401.2 84.6,401.2 Q85.175,401.2 85.675,401.4 Q86.175,401.6 86.6,402 Z " fill="#000000"/><text fill="#000000" font-family="sans-serif" font-size="11.2" lengthAdjust="spacing" textLength="71.2" x="101.4" y="409.3828">Questionnaire</text><line style="stroke:#181818;stroke-width:0.4000000000000001;" x1="33.6" x2="214.4" y1="417.6" y2="417.6"/><line style="stroke:#181818;stroke-width:0.4000000000000001;" x1="33.6" x2="214.4" y1="424" y2="424"/><ellipse cx="41.6" cy="432.8" fill="#84BE84" rx="2.4" ry="2.4" style="stroke:#038048;stroke-width:0.8000000000000002;"/><text fill="#000000" font-family="sans-serif" font-size="11.2" lengthAdjust="spacing" textLength="41.6" x="48.8" y="438.8266">toDTO()</text><ellipse cx="41.6" cy="446.8875" fill="#84BE84" rx="2.4" ry="2.4" style="stroke:#038048;stroke-width:0.8000000000000002;"/><text fill="#000000" font-family="sans-serif" font-size="11.2" lengthAdjust="spacing" textLength="161.6" x="48.8" y="452.9141">getQuantityInquiredCustomers()</text><ellipse cx="41.6" cy="460.975" fill="#84BE84" rx="2.4" ry="2.4" style="stroke:#038048;stroke-width:0.8000000000000002;"/><text fill="#000000" font-family="sans-serif" font-size="11.2" lengthAdjust="spacing" textLength="112" x="48.8" y="467.0016">getAmountAnswered()</text><ellipse cx="41.6" cy="475.0625" fill="#84BE84" rx="2.4" ry="2.4" style="stroke:#038048;stroke-width:0.8000000000000002;"/><text fill="#000000" font-family="sans-serif" font-size="11.2" lengthAdjust="spacing" textLength="67.2" x="48.8" y="481.0891">getSections()</text></g><!--MD5=[881e719c386dedbbaba7a9d00a16a269]
class ListQuestionnaireDTOService--><g id="elem_ListQuestionnaireDTOService"><rect codeLine="28" fill="#F1F1F1" height="52.4875" id="ListQuestionnaireDTOService" rx="2" ry="2" style="stroke:#181818;stroke-width:0.4000000000000001;" width="176" x="169.6" y="291.2"/><ellipse cx="181.6" cy="304" fill="#ADD1B2" rx="8.8" ry="8.8" style="stroke:#181818;stroke-width:0.8000000000000002;"/><path d="M183.2,301.2 Q183.3625,300.8 183.55,300.6 Q183.7375,300.4 183.95,300.4 Q184.325,300.4 184.5625,300.625 Q184.8,300.85 184.8,301.375 L184.8,302.625 Q184.8,303.15 184.575,303.375 Q184.35,303.6 184,303.6 Q183.6875,303.6 183.4875,303.4625 Q183.2875,303.325 183.2,302.9625 Q183.1625,302.7125 183.025,302.575 Q182.775,302.3125 182.325,302.1625 Q181.875,302 181.425,302 Q180.8625,302 180.3875,302.225 Q179.925,302.45 179.5625,302.95 Q179.2,303.45 179.2,304.1375 L179.2,304.875 Q179.2,305.7 179.875,306.25 Q180.55,306.8 181.75,306.8 Q182.4625,306.8 182.9625,306.6375 Q183.25,306.55 183.575,306.2625 Q183.7875,306.1 183.9,306.05 Q184.0125,306 184.15,306 Q184.4125,306 184.6,306.2125 Q184.8,306.4125 184.8,306.7 Q184.8,306.975 184.525,307.3 Q184.125,307.775 183.4875,308.0375 Q182.65,308.4 181.625,308.4 Q180.425,308.4 179.4625,307.925 Q178.6875,307.55 178.1375,306.7375 Q177.6,305.925 177.6,304.9625 L177.6,304.0875 Q177.6,303.0875 178.075,302.2125 Q178.5625,301.3375 179.4,300.875 Q180.25,300.4 181.2,300.4 Q181.775,300.4 182.275,300.6 Q182.775,300.8 183.2,301.2 Z " fill="#000000"/><text fill="#000000" font-family="sans-serif" font-size="11.2" lengthAdjust="spacing" textLength="150.4" x="192.8" y="308.5828">ListQuestionnaireDTOService</text><line style="stroke:#181818;stroke-width:0.4000000000000001;" x1="170.4" x2="344.8" y1="316.8" y2="316.8"/><line style="stroke:#181818;stroke-width:0.4000000000000001;" x1="170.4" x2="344.8" y1="323.2" y2="323.2"/><ellipse cx="178.4" cy="332" fill="#84BE84" rx="2.4" ry="2.4" style="stroke:#038048;stroke-width:0.8000000000000002;"/><text fill="#000000" font-family="sans-serif" font-size="11.2" lengthAdjust="spacing" textLength="64.8" x="185.6" y="338.0266">getSurveys()</text></g><!--MD5=[e8c189551b7885b999ad7cefb30fc2a3]
class PersistenceContext--><g id="elem_PersistenceContext"><rect codeLine="8" fill="#F1F1F1" height="52.4875" id="PersistenceContext" rx="2" ry="2" style="stroke:#181818;stroke-width:0.4000000000000001;" width="123.2" x="356.8" y="412.8"/><ellipse cx="368.8" cy="425.6" fill="#ADD1B2" rx="8.8" ry="8.8" style="stroke:#181818;stroke-width:0.8000000000000002;"/><path d="M370.4,422.8 Q370.5625,422.4 370.75,422.2 Q370.9375,422 371.15,422 Q371.525,422 371.7625,422.225 Q372,422.45 372,422.975 L372,424.225 Q372,424.75 371.775,424.975 Q371.55,425.2 371.2,425.2 Q370.8875,425.2 370.6875,425.0625 Q370.4875,424.925 370.4,424.5625 Q370.3625,424.3125 370.225,424.175 Q369.975,423.9125 369.525,423.7625 Q369.075,423.6 368.625,423.6 Q368.0625,423.6 367.5875,423.825 Q367.125,424.05 366.7625,424.55 Q366.4,425.05 366.4,425.7375 L366.4,426.475 Q366.4,427.3 367.075,427.85 Q367.75,428.4 368.95,428.4 Q369.6625,428.4 370.1625,428.2375 Q370.45,428.15 370.775,427.8625 Q370.9875,427.7 371.1,427.65 Q371.2125,427.6 371.35,427.6 Q371.6125,427.6 371.8,427.8125 Q372,428.0125 372,428.3 Q372,428.575 371.725,428.9 Q371.325,429.375 370.6875,429.6375 Q369.85,430 368.825,430 Q367.625,430 366.6625,429.525 Q365.8875,429.15 365.3375,428.3375 Q364.8,427.525 364.8,426.5625 L364.8,425.6875 Q364.8,424.6875 365.275,423.8125 Q365.7625,422.9375 366.6,422.475 Q367.45,422 368.4,422 Q368.975,422 369.475,422.2 Q369.975,422.4 370.4,422.8 Z " fill="#000000"/><text fill="#000000" font-family="sans-serif" font-size="11.2" lengthAdjust="spacing" textLength="97.6" x="380" y="430.1828">PersistenceContext</text><line style="stroke:#181818;stroke-width:0.4000000000000001;" x1="357.6" x2="479.2" y1="438.4" y2="438.4"/><line style="stroke:#181818;stroke-width:0.4000000000000001;" x1="357.6" x2="479.2" y1="444.8" y2="444.8"/><ellipse cx="365.6" cy="453.6" fill="#84BE84" rx="2.4" ry="2.4" style="stroke:#038048;stroke-width:0.8000000000000002;"/><text fill="#000000" font-family="sans-serif" font-size="11.2" lengthAdjust="spacing" textLength="67.2" x="372.8" y="459.6266">repositories()</text></g><!--MD5=[48590afff58a68e2fcba47824d6f8a11]
class RepositoryFactory--><g id="elem_RepositoryFactory"><rect codeLine="12" fill="#F1F1F1" height="66.575" id="RepositoryFactory" rx="2" ry="2" style="stroke:#181818;stroke-width:0.4000000000000001;" width="118.4" x="346.4" y="534.4"/><ellipse cx="358.4" cy="547.2" fill="#ADD1B2" rx="8.8" ry="8.8" style="stroke:#181818;stroke-width:0.8000000000000002;"/><path d="M360,544.4 Q360.1625,544 360.35,543.8 Q360.5375,543.6 360.75,543.6 Q361.125,543.6 361.3625,543.825 Q361.6,544.05 361.6,544.575 L361.6,545.825 Q361.6,546.35 361.375,546.575 Q361.15,546.8 360.8,546.8 Q360.4875,546.8 360.2875,546.6625 Q360.0875,546.525 360,546.1625 Q359.9625,545.9125 359.825,545.775 Q359.575,545.5125 359.125,545.3625 Q358.675,545.2 358.225,545.2 Q357.6625,545.2 357.1875,545.425 Q356.725,545.65 356.3625,546.15 Q356,546.65 356,547.3375 L356,548.075 Q356,548.9 356.675,549.45 Q357.35,550 358.55,550 Q359.2625,550 359.7625,549.8375 Q360.05,549.75 360.375,549.4625 Q360.5875,549.3 360.7,549.25 Q360.8125,549.2 360.95,549.2 Q361.2125,549.2 361.4,549.4125 Q361.6,549.6125 361.6,549.9 Q361.6,550.175 361.325,550.5 Q360.925,550.975 360.2875,551.2375 Q359.45,551.6 358.425,551.6 Q357.225,551.6 356.2625,551.125 Q355.4875,550.75 354.9375,549.9375 Q354.4,549.125 354.4,548.1625 L354.4,547.2875 Q354.4,546.2875 354.875,545.4125 Q355.3625,544.5375 356.2,544.075 Q357.05,543.6 358,543.6 Q358.575,543.6 359.075,543.8 Q359.575,544 360,544.4 Z " fill="#000000"/><text fill="#000000" font-family="sans-serif" font-size="11.2" lengthAdjust="spacing" textLength="92.8" x="369.6" y="551.7828">RepositoryFactory</text><line style="stroke:#181818;stroke-width:0.4000000000000001;" x1="347.2" x2="464" y1="560" y2="560"/><line style="stroke:#181818;stroke-width:0.4000000000000001;" x1="347.2" x2="464" y1="566.4" y2="566.4"/><ellipse cx="355.2" cy="575.2" fill="#84BE84" rx="2.4" ry="2.4" style="stroke:#038048;stroke-width:0.8000000000000002;"/><text fill="#000000" font-family="sans-serif" font-size="11.2" lengthAdjust="spacing" textLength="40" x="362.4" y="581.2266">create()</text><ellipse cx="355.2" cy="589.2875" fill="#84BE84" rx="2.4" ry="2.4" style="stroke:#038048;stroke-width:0.8000000000000002;"/><text fill="#000000" font-family="sans-serif" font-size="11.2" lengthAdjust="spacing" textLength="47.2" x="362.4" y="595.3141">surveys()</text></g><!--MD5=[3ddf2fc78de39a51ca8cbdf3b2a84ba0]
class QuestionnaireDTO--><g id="elem_QuestionnaireDTO"><rect codeLine="39" fill="#F1F1F1" height="66.575" id="QuestionnaireDTO" rx="2" ry="2" style="stroke:#181818;stroke-width:0.4000000000000001;" width="120.8" x="63.6" y="534.4"/><ellipse cx="75.6" cy="547.2" fill="#ADD1B2" rx="8.8" ry="8.8" style="stroke:#181818;stroke-width:0.8000000000000002;"/><path d="M77.2,544.4 Q77.3625,544 77.55,543.8 Q77.7375,543.6 77.95,543.6 Q78.325,543.6 78.5625,543.825 Q78.8,544.05 78.8,544.575 L78.8,545.825 Q78.8,546.35 78.575,546.575 Q78.35,546.8 78,546.8 Q77.6875,546.8 77.4875,546.6625 Q77.2875,546.525 77.2,546.1625 Q77.1625,545.9125 77.025,545.775 Q76.775,545.5125 76.325,545.3625 Q75.875,545.2 75.425,545.2 Q74.8625,545.2 74.3875,545.425 Q73.925,545.65 73.5625,546.15 Q73.2,546.65 73.2,547.3375 L73.2,548.075 Q73.2,548.9 73.875,549.45 Q74.55,550 75.75,550 Q76.4625,550 76.9625,549.8375 Q77.25,549.75 77.575,549.4625 Q77.7875,549.3 77.9,549.25 Q78.0125,549.2 78.15,549.2 Q78.4125,549.2 78.6,549.4125 Q78.8,549.6125 78.8,549.9 Q78.8,550.175 78.525,550.5 Q78.125,550.975 77.4875,551.2375 Q76.65,551.6 75.625,551.6 Q74.425,551.6 73.4625,551.125 Q72.6875,550.75 72.1375,549.9375 Q71.6,549.125 71.6,548.1625 L71.6,547.2875 Q71.6,546.2875 72.075,545.4125 Q72.5625,544.5375 73.4,544.075 Q74.25,543.6 75.2,543.6 Q75.775,543.6 76.275,543.8 Q76.775,544 77.2,544.4 Z " fill="#000000"/><text fill="#000000" font-family="sans-serif" font-size="11.2" lengthAdjust="spacing" textLength="95.2" x="86.8" y="551.7828">QuestionnaireDTO</text><line style="stroke:#181818;stroke-width:0.4000000000000001;" x1="64.4" x2="183.6" y1="560" y2="560"/><rect fill="none" height="4.8" style="stroke:#C82930;stroke-width:0.8000000000000002;" width="4.8" x="70" y="566.4"/><text fill="#000000" font-family="sans-serif" font-size="11.2" lengthAdjust="spacing" textLength="8.8" x="79.6" y="574.8266">id</text><rect fill="none" height="4.8" style="stroke:#C82930;stroke-width:0.8000000000000002;" width="4.8" x="70" y="580.4875"/><text fill="#000000" font-family="sans-serif" font-size="11.2" lengthAdjust="spacing" textLength="24" x="79.6" y="588.9141">titulo</text><line style="stroke:#181818;stroke-width:0.4000000000000001;" x1="64.4" x2="183.6" y1="594.575" y2="594.575"/></g><!--MD5=[052e37438fa13db185f5d9c8947f9362]
link ObterRelatorioEstatisticoUI to ObterRelatorioEstatisticoController--><g id="link_ObterRelatorioEstatisticoUI_ObterRelatorioEstatisticoController"><path codeLine="53" d="M192,44.056 C192,55.568 192,71.256 192,87.56 " fill="none" id="ObterRelatorioEstatisticoUI-to-ObterRelatorioEstatisticoController" style="stroke:#181818;stroke-width:0.8000000000000002;"/><polygon fill="#181818" points="192,91.72,195.2,84.52,192,87.72,188.8,84.52,192,91.72" style="stroke:#181818;stroke-width:0.8000000000000002;"/></g><!--MD5=[1813405672fbc020d1c06c9668342725]
link ObterRelatorioEstatisticoController to ListQuestionnaireDTOService--><g id="link_ObterRelatorioEstatisticoController_ListQuestionnaireDTOService"><path codeLine="55" d="M225.088,243.256 C231.96,258.792 238.808,274.288 244.44,287.024 " fill="none" id="ObterRelatorioEstatisticoController-to-ListQuestionnaireDTOService" style="stroke:#181818;stroke-width:0.8000000000000002;"/><polygon fill="#181818" points="246.144,290.88,246.1486,283.0009,244.5216,287.2238,240.2987,285.5968,246.144,290.88" style="stroke:#181818;stroke-width:0.8000000000000002;"/></g><!--MD5=[3c70c8d01194e2da050443bd4a3ccb94]
link ObterRelatorioEstatisticoController to SurveyRepository--><g id="link_ObterRelatorioEstatisticoController_SurveyRepository"><path codeLine="56" d="M113.256,243.432 C76.856,283.592 37.52,336.208 18.4,392 C4.8,431.688 12.832,444.816 18.4,486.4 C25.4,538.632 13.112,562.776 49.6,600.8 C89.008,641.856 153.784,657.456 200.592,663.336 " fill="none" id="ObterRelatorioEstatisticoController-to-SurveyRepository" style="stroke:#181818;stroke-width:0.8000000000000002;"/><polygon fill="#181818" points="204.784,663.84,198.0207,659.798,200.813,663.3594,197.2517,666.1517,204.784,663.84" style="stroke:#181818;stroke-width:0.8000000000000002;"/></g><!--MD5=[1b8b4736117416273de48c22ab34eaa1]
link ObterRelatorioEstatisticoController to AnswerRepository--><g id="link_ObterRelatorioEstatisticoController_AnswerRepository"><path codeLine="57" d="M346.688,243.312 C403.792,279.632 462.192,329.184 493.6,392 C536.288,477.368 494.768,595.976 474.128,644.632 " fill="none" id="ObterRelatorioEstatisticoController-to-AnswerRepository" style="stroke:#181818;stroke-width:0.8000000000000002;"/><polygon fill="#181818" points="472.44,648.568,478.2235,643.2172,474.0198,644.8932,472.3438,640.6895,472.44,648.568" style="stroke:#181818;stroke-width:0.8000000000000002;"/></g><!--MD5=[b57eebfda271492526e0d33e9a95afa5]
link ObterRelatorioEstatisticoController to Questionnaire--><g id="link_ObterRelatorioEstatisticoController_Questionnaire"><path codeLine="58" d="M168.44,243.464 C163.808,259.168 159.168,275.672 155.2,291.2 C147.072,323.048 139.392,359.144 133.696,387.624 " fill="none" id="ObterRelatorioEstatisticoController-to-Questionnaire" style="stroke:#181818;stroke-width:0.8000000000000002;"/><polygon fill="#181818" points="132.864,391.768,137.4175,385.3379,133.6507,387.8461,131.1425,384.0793,132.864,391.768" style="stroke:#181818;stroke-width:0.8000000000000002;"/></g><!--MD5=[35d3100f15c768389552b164c5801d02]
link ListQuestionnaireDTOService to Questionnaire--><g id="link_ListQuestionnaireDTOService_Questionnaire"><path codeLine="60" d="M228.944,344.144 C214.36,357.24 196.136,373.608 178.984,389.016 " fill="none" id="ListQuestionnaireDTOService-to-Questionnaire" style="stroke:#181818;stroke-width:0.8000000000000002;"/><polygon fill="#181818" points="175.792,391.88,183.2844,389.442,178.7652,389.2041,179.003,384.6849,175.792,391.88" style="stroke:#181818;stroke-width:0.8000000000000002;"/></g><!--MD5=[b415ca74072626be85676137af1ea62c]
link ListQuestionnaireDTOService to PersistenceContext--><g id="link_ListQuestionnaireDTOService_PersistenceContext"><path codeLine="61" d="M292.096,344.144 C318.168,363.6 353.928,390.28 380.736,410.296 " fill="none" id="ListQuestionnaireDTOService-to-PersistenceContext" style="stroke:#181818;stroke-width:0.8000000000000002;"/><polygon fill="#181818" points="383.96,412.696,380.0925,405.8314,380.7504,410.3088,376.273,410.9667,383.96,412.696" style="stroke:#181818;stroke-width:0.8000000000000002;"/></g><!--MD5=[cca0ffc1a4127a432d916e6bb3ce3bc9]
link ListQuestionnaireDTOService to RepositoryFactory--><g id="link_ListQuestionnaireDTOService_RepositoryFactory"><path codeLine="62" d="M268.608,344.016 C283.512,377.72 311.792,438.304 342.4,486.4 C352.072,501.592 363.992,517.36 374.872,530.872 " fill="none" id="ListQuestionnaireDTOService-to-RepositoryFactory" style="stroke:#181818;stroke-width:0.8000000000000002;"/><polygon fill="#181818" points="377.616,534.256,375.5762,526.6455,375.1005,531.146,370.6001,530.6703,377.616,534.256" style="stroke:#181818;stroke-width:0.8000000000000002;"/></g><!--MD5=[b3a1adb29764e1c3b4a038c38b2ba43d]
link ListQuestionnaireDTOService to SurveyRepository--><g id="link_ListQuestionnaireDTOService_SurveyRepository"><path codeLine="63" d="M257.6,344.016 C257.6,409.544 257.6,582.44 257.6,644.352 " fill="none" id="ListQuestionnaireDTOService-to-SurveyRepository" style="stroke:#181818;stroke-width:0.8000000000000002;"/><polygon fill="#181818" points="257.6,648.616,260.8,641.416,257.6,644.616,254.4,641.416,257.6,648.616" style="stroke:#181818;stroke-width:0.8000000000000002;"/></g><!--MD5=[754b775031405e096442b27febffa290]
link PersistenceContext to RepositoryFactory--><g id="link_PersistenceContext_RepositoryFactory"><path codeLine="66" d="M415.808,465.656 C413.944,484.184 411.392,509.456 409.304,530.112 " fill="none" id="PersistenceContext-to-RepositoryFactory" style="stroke:#181818;stroke-width:0.8000000000000002;"/><polygon fill="#181818" points="408.896,534.176,412.8004,527.3324,409.2963,530.1961,406.4326,526.6919,408.896,534.176" style="stroke:#181818;stroke-width:0.8000000000000002;"/></g><!--MD5=[a081d1a26d5604e7c1db8e565489dcad]
link RepositoryFactory to AnswerRepository--><g id="link_RepositoryFactory_AnswerRepository"><path codeLine="68" d="M424.888,600.896 C433.512,615.424 443.448,632.16 451.144,645.136 " fill="none" id="RepositoryFactory-to-AnswerRepository" style="stroke:#181818;stroke-width:0.8000000000000002;"/><polygon fill="#181818" points="453.256,648.688,452.3455,640.8617,451.2199,645.245,446.8366,644.1194,453.256,648.688" style="stroke:#181818;stroke-width:0.8000000000000002;"/></g><!--MD5=[b2261c22df95718c10e32de77a70473c]
link RepositoryFactory to SurveyRepository--><g id="link_RepositoryFactory_SurveyRepository"><path codeLine="69" d="M356.728,600.896 C334.128,615.92 307.976,633.312 288.208,646.456 " fill="none" id="RepositoryFactory-to-SurveyRepository" style="stroke:#181818;stroke-width:0.8000000000000002;"/><polygon fill="#181818" points="284.84,648.688,292.609,647.3752,288.1735,646.4771,289.0716,642.0417,284.84,648.688" style="stroke:#181818;stroke-width:0.8000000000000002;"/></g><!--MD5=[26788ffe79cf7650a68bb146e1d36306]
link Questionnaire to QuestionnaireDTO--><g id="link_Questionnaire_QuestionnaireDTO"><path codeLine="71" d="M124,486.496 C124,500.84 124,516.44 124,530.032 " fill="none" id="Questionnaire-to-QuestionnaireDTO" style="stroke:#181818;stroke-width:0.8000000000000002;"/><polygon fill="#181818" points="124,534.184,127.2,526.984,124,530.184,120.8,526.984,124,534.184" style="stroke:#181818;stroke-width:0.8000000000000002;"/></g><!--MD5=[bcb96770996c596fc12afe9cd29a69a5]
@startuml
'https://plantuml.com/class-diagram

class ObterRelatorioEstatisticoUI
class ObterRelatorioEstatisticoController
class Questionnaire
class ListQuestionnaireDTOService

class PersistenceContext{
+repositories()
}

class RepositoryFactory{
+create()
+surveys()
}

class ObterRelatorioEstatisticoController {
+findAllQuestionnaires()
+obterQuantidadeClientsInquiridos(id)
+obterQuantidadeRespostas(id)
+obterQuestõesRespostas(id)
+obterQuantidadeRespostasOpcao(questionId,op,surveyId)
+obterQuantClientesRespondeuPergunta(questionId,surveyId)
+obterRespostasMedia(questionId,id)
+obterQuantidadeRespostasOutra(questionId,op,id)
}

class ListQuestionnaireDTOService{
+getSurveys()
}

class Questionnaire{
+toDTO()
+getQuantityInquiredCustomers()
+getAmountAnswered()
+getSections()
}

class QuestionnaireDTO{
-id
-titulo
}

database SurveyRepository {
}

database AnswerRepository {
}




ObterRelatorioEstatisticoUI - -> ObterRelatorioEstatisticoController

ObterRelatorioEstatisticoController - -> ListQuestionnaireDTOService
ObterRelatorioEstatisticoController - -> SurveyRepository
ObterRelatorioEstatisticoController - -> AnswerRepository
ObterRelatorioEstatisticoController - -> Questionnaire

ListQuestionnaireDTOService - -> Questionnaire
ListQuestionnaireDTOService - -> PersistenceContext
ListQuestionnaireDTOService - -> RepositoryFactory
ListQuestionnaireDTOService - -> SurveyRepository


PersistenceContext - -> RepositoryFactory

RepositoryFactory - ->AnswerRepository
RepositoryFactory - ->SurveyRepository

Questionnaire - -> QuestionnaireDTO


@enduml

@startuml

class ObterRelatorioEstatisticoUI
class ObterRelatorioEstatisticoController
class Questionnaire
class ListQuestionnaireDTOService

class PersistenceContext{
+repositories()
}

class RepositoryFactory{
+create()
+surveys()
}

class ObterRelatorioEstatisticoController {
+findAllQuestionnaires()
+obterQuantidadeClientsInquiridos(id)
+obterQuantidadeRespostas(id)
+obterQuestõesRespostas(id)
+obterQuantidadeRespostasOpcao(questionId,op,surveyId)
+obterQuantClientesRespondeuPergunta(questionId,surveyId)
+obterRespostasMedia(questionId,id)
+obterQuantidadeRespostasOutra(questionId,op,id)
}

class ListQuestionnaireDTOService{
+getSurveys()
}

class Questionnaire{
+toDTO()
+getQuantityInquiredCustomers()
+getAmountAnswered()
+getSections()
}

class QuestionnaireDTO{
-id
-titulo
}

database SurveyRepository {
}

database AnswerRepository {
}




ObterRelatorioEstatisticoUI - -> ObterRelatorioEstatisticoController

ObterRelatorioEstatisticoController - -> ListQuestionnaireDTOService
ObterRelatorioEstatisticoController - -> SurveyRepository
ObterRelatorioEstatisticoController - -> AnswerRepository
ObterRelatorioEstatisticoController - -> Questionnaire

ListQuestionnaireDTOService - -> Questionnaire
ListQuestionnaireDTOService - -> PersistenceContext
ListQuestionnaireDTOService - -> RepositoryFactory
ListQuestionnaireDTOService - -> SurveyRepository


PersistenceContext - -> RepositoryFactory

RepositoryFactory - ->AnswerRepository
RepositoryFactory - ->SurveyRepository

Questionnaire - -> QuestionnaireDTO


@enduml

PlantUML version 1.2022.4(Sat Apr 09 14:29:17 BST 2022)
(GPL source distribution)
Java Runtime: OpenJDK Runtime Environment
JVM: OpenJDK 64-Bit Server VM
Default Encoding: Cp1252
Language: pt
Country: PT
--></g></svg>