<?xml version="1.0" encoding="UTF-8" standalone="no"?><svg xmlns="http://www.w3.org/2000/svg" xmlns:xlink="http://www.w3.org/1999/xlink" contentScriptType="application/ecmascript" contentStyleType="text/css" height="498px" preserveAspectRatio="none" style="width:289px;height:498px;background:#FFFFFF;" version="1.1" viewBox="0 0 289 498" width="289.8px" zoomAndPan="magnify"><defs><filter height="300%" id="f18lmors1w3gdb" width="300%" x="-1" y="-1"><feGaussianBlur result="blurOut" stdDeviation="1.2"/><feColorMatrix in="blurOut" result="blurOut2" type="matrix" values="0 0 0 0 0 0 0 0 0 0 0 0 0 0 0 0 0 0 .4 0"/><feOffset dx="2.4" dy="2.4" in="blurOut2" result="blurOut3"/><feBlend in="SourceGraphic" in2="blurOut3" mode="normal"/></filter></defs><g><!--MD5=[10d670d2a558029dbb3ffc83a3028fde]
cluster <<aggregate>> Answer--><polygon fill="#FFFFFF" filter="url(#f18lmors1w3gdb)" points="174,433.8,273.6,433.8,277.8,447.9656,279.6,447.9656,279.6,493.8,174,493.8,174,433.8" style="stroke:#000000;stroke-width:0.8999999999999999;"/><line style="stroke:#000000;stroke-width:0.8999999999999999;" x1="174" x2="277.8" y1="447.9656" y2="447.9656"/><text fill="#000000" font-family="sans-serif" font-size="8.4" font-weight="bold" lengthAdjust="spacing" textLength="96" x="176.4" y="443.7199">&lt;&lt;aggregate&gt;&gt; Answer</text><!--MD5=[8c363a80613b0a6d6c7ca1152598557e]
cluster <<aggregate>> Questionnaire--><polygon fill="#FFFFFF" filter="url(#f18lmors1w3gdb)" points="9.6,102.6,138,102.6,142.2,116.7656,159.6,116.7656,159.6,493.8,9.6,493.8,9.6,102.6" style="stroke:#000000;stroke-width:0.8999999999999999;"/><line style="stroke:#000000;stroke-width:0.8999999999999999;" x1="9.6" x2="142.2" y1="116.7656" y2="116.7656"/><text fill="#000000" font-family="sans-serif" font-size="8.4" font-weight="bold" lengthAdjust="spacing" textLength="124.8" x="12" y="112.5199">&lt;&lt;aggregate&gt;&gt; Questionnaire</text><!--MD5=[20e996825fabf2618e164db4892593a3]
cluster <<aggregate>> Client--><polygon fill="#FFFFFF" filter="url(#f18lmors1w3gdb)" points="121.2,3.6,214.2,3.6,218.4,17.7656,220.2,17.7656,220.2,72.6,121.2,72.6,121.2,3.6" style="stroke:#000000;stroke-width:0.8999999999999999;"/><line style="stroke:#000000;stroke-width:0.8999999999999999;" x1="121.2" x2="218.4" y1="17.7656" y2="17.7656"/><text fill="#000000" font-family="sans-serif" font-size="8.4" font-weight="bold" lengthAdjust="spacing" textLength="89.4" x="123.6" y="13.5199">&lt;&lt;aggregate&gt;&gt; Client</text><!--MD5=[f9fadfa5a66b7e5a67b370cd443ffe52]
class Answer--><rect codeLine="31" fill="#F5F5DC" filter="url(#f18lmors1w3gdb)" height="28.9125" id="Answer" style="stroke:#A80036;stroke-width:0.8999999999999999;" width="43.8" x="183.9" y="455.4"/><ellipse cx="192.9" cy="467.4562" fill="#ADD1B2" rx="6.6" ry="6.6" style="stroke:#A80036;stroke-width:0.6;"/><path d="M192,468.0563 L192,469.2562 L194.4,469.2562 L194.4,468.6563 L194.4,468.3656 L194.775,468.0563 L195,468.0563 L195.225,468.0563 L195.6,468.3656 L195.6,468.6563 L195.6,470.4562 L190.8,470.4562 L190.5094,470.4562 L190.2,470.0812 L190.2,469.8563 L190.2,469.6312 L190.5094,469.2562 L190.8,469.2562 L190.8,469.2562 L190.8,465.6563 L190.8,465.6563 L190.5094,465.6563 L190.2,465.2813 L190.2,465.0563 L190.2,464.8312 L190.5094,464.4562 L190.8,464.4562 L195.6,464.4562 L195.6,466.2562 L195.6,466.5469 L195.225,466.8563 L195,466.8563 L194.775,466.8563 L194.4,466.5469 L194.4,466.2562 L194.4,465.6563 L192,465.6563 L192,466.8563 L192.6,466.8563 L192.6,466.5656 L192.6,466.5656 L192.975,466.2562 L193.2,466.2562 L193.425,466.2562 L193.8,466.5656 L193.8,466.8563 L193.8,468.0563 L193.8,468.3469 L193.425,468.6563 L193.425,468.6563 L193.2,468.6563 L192.975,468.6563 L192.6,468.3469 L192.6,468.3469 L192.6,468.0563 L192,468.0563 Z " fill="#000000"/><text fill="#000000" font-family="sans-serif" font-size="7.2" font-style="italic" lengthAdjust="spacing" textLength="25.8" x="200.7" y="465.8742">«entity»</text><text fill="#000000" font-family="sans-serif" font-size="7.2" lengthAdjust="spacing" textLength="24.6" x="201.3" y="474.9305">Answer</text><line style="stroke:#A80036;stroke-width:0.8999999999999999;" x1="184.5" x2="227.1" y1="479.5125" y2="479.5125"/><!--MD5=[5a3b85c54cc1c79904e0b827443986bf]
class Questionnaire--><rect codeLine="19" fill="#F5F5DC" filter="url(#f18lmors1w3gdb)" height="37.9688" id="Questionnaire" style="stroke:#A80036;stroke-width:0.8999999999999999;" width="66" x="82.2" y="124.2"/><ellipse cx="91.2" cy="140.7844" fill="#ADD1B2" rx="6.6" ry="6.6" style="stroke:#A80036;stroke-width:0.6;"/><path d="M90.3,141.3844 L90.3,142.5844 L92.7,142.5844 L92.7,141.9844 L92.7,141.6938 L93.075,141.3844 L93.3,141.3844 L93.525,141.3844 L93.9,141.6938 L93.9,141.9844 L93.9,143.7844 L89.1,143.7844 L88.8094,143.7844 L88.5,143.4094 L88.5,143.1844 L88.5,142.9594 L88.8094,142.5844 L89.1,142.5844 L89.1,142.5844 L89.1,138.9844 L89.1,138.9844 L88.8094,138.9844 L88.5,138.6094 L88.5,138.3844 L88.5,138.1594 L88.8094,137.7844 L89.1,137.7844 L93.9,137.7844 L93.9,139.5844 L93.9,139.875 L93.525,140.1844 L93.3,140.1844 L93.075,140.1844 L92.7,139.875 L92.7,139.5844 L92.7,138.9844 L90.3,138.9844 L90.3,140.1844 L90.9,140.1844 L90.9,139.8937 L90.9,139.8937 L91.275,139.5844 L91.5,139.5844 L91.725,139.5844 L92.1,139.8937 L92.1,140.1844 L92.1,141.3844 L92.1,141.675 L91.725,141.9844 L91.725,141.9844 L91.5,141.9844 L91.275,141.9844 L90.9,141.675 L90.9,141.675 L90.9,141.3844 L90.3,141.3844 Z " fill="#000000"/><text fill="#000000" font-family="sans-serif" font-size="7.2" font-style="italic" lengthAdjust="spacing" textLength="25.8" x="110.1" y="134.6742">«entity»</text><text fill="#000000" font-family="sans-serif" font-size="7.2" font-style="italic" lengthAdjust="spacing" textLength="21" x="112.5" y="143.7305">«root»</text><text fill="#000000" font-family="sans-serif" font-size="7.2" lengthAdjust="spacing" textLength="46.8" x="99.6" y="152.7867">Questionnaire</text><line style="stroke:#A80036;stroke-width:0.8999999999999999;" x1="82.8" x2="147.6" y1="157.3688" y2="157.3688"/><!--MD5=[75430099834887034d36f3efdb02bb45]
class Identifier--><rect codeLine="23" fill="#F5F5DC" filter="url(#f18lmors1w3gdb)" height="28.9125" id="Identifier" style="stroke:#A80036;stroke-width:0.8999999999999999;" width="65.4" x="19.5" y="215.4"/><ellipse cx="28.5" cy="227.4562" fill="#FF8B40" rx="6.6" ry="6.6" style="stroke:#A80036;stroke-width:0.6;"/><path d="M28.5,229.425 L29.4188,226.1063 L29.4188,226.1063 L29.1094,226.1063 L28.8,225.7313 L28.8,225.5063 L28.8,225.2813 L29.1094,224.9063 L29.4188,224.9063 L30.5438,224.9063 L30.8906,224.9063 L31.2,225.2813 L31.2,225.5063 L31.2,225.7313 L30.8906,226.1063 L30.8906,226.1063 L30.6188,226.1063 L29.2125,230.9063 L27.7875,230.9063 L26.3063,226.1063 L26.1094,226.1063 L26.1094,226.1063 L25.8,225.7313 L25.8,225.5063 L25.8,225.2813 L26.1094,224.9063 L26.4563,224.9063 L27.5813,224.9063 L27.8906,224.9063 L28.2,225.2813 L28.2,225.5063 L28.2,225.7313 L27.8906,226.1063 L27.5813,226.1063 L27.5813,226.1063 L28.5,229.425 Z " fill="#000000"/><text fill="#000000" font-family="sans-serif" font-size="7.2" font-style="italic" lengthAdjust="spacing" textLength="48.6" x="35.7" y="225.8742">«value object»</text><text fill="#000000" font-family="sans-serif" font-size="7.2" lengthAdjust="spacing" textLength="28.2" x="45.9" y="234.9305">Identifier</text><line style="stroke:#A80036;stroke-width:0.8999999999999999;" x1="20.1" x2="84.3" y1="239.5125" y2="239.5125"/><!--MD5=[09a53695e98d4f26e7a054522080af08]
class Section--><rect codeLine="24" fill="#F5F5DC" filter="url(#f18lmors1w3gdb)" height="42.0141" id="Section" style="stroke:#A80036;stroke-width:0.8999999999999999;" width="43.8" x="105.9" y="208.8"/><ellipse cx="114.9" cy="220.8563" fill="#ADD1B2" rx="6.6" ry="6.6" style="stroke:#A80036;stroke-width:0.6;"/><path d="M114,221.4562 L114,222.6563 L116.4,222.6563 L116.4,222.0563 L116.4,221.7656 L116.775,221.4562 L117,221.4562 L117.225,221.4562 L117.6,221.7656 L117.6,222.0563 L117.6,223.8563 L112.8,223.8563 L112.5094,223.8563 L112.2,223.4813 L112.2,223.2563 L112.2,223.0313 L112.5094,222.6563 L112.8,222.6563 L112.8,222.6563 L112.8,219.0563 L112.8,219.0563 L112.5094,219.0563 L112.2,218.6813 L112.2,218.4562 L112.2,218.2313 L112.5094,217.8563 L112.8,217.8563 L117.6,217.8563 L117.6,219.6563 L117.6,219.9469 L117.225,220.2563 L117,220.2563 L116.775,220.2563 L116.4,219.9469 L116.4,219.6563 L116.4,219.0563 L114,219.0563 L114,220.2563 L114.6,220.2563 L114.6,219.9656 L114.6,219.9656 L114.975,219.6563 L115.2,219.6563 L115.425,219.6563 L115.8,219.9656 L115.8,220.2563 L115.8,221.4562 L115.8,221.7469 L115.425,222.0563 L115.425,222.0563 L115.2,222.0563 L114.975,222.0563 L114.6,221.7469 L114.6,221.7469 L114.6,221.4562 L114,221.4562 Z " fill="#000000"/><text fill="#000000" font-family="sans-serif" font-size="7.2" font-style="italic" lengthAdjust="spacing" textLength="25.8" x="122.7" y="219.2742">«entity»</text><text fill="#000000" font-family="sans-serif" font-size="7.2" lengthAdjust="spacing" textLength="24.6" x="123.3" y="228.3305">Section</text><line style="stroke:#A80036;stroke-width:0.8999999999999999;" x1="106.5" x2="149.1" y1="232.9125" y2="232.9125"/><text fill="#000000" font-family="sans-serif" font-size="6.6" lengthAdjust="spacing" textLength="7.2" x="109.5" y="242.1639">-id</text><line style="stroke:#A80036;stroke-width:0.8999999999999999;" x1="106.5" x2="149.1" y1="246.0141" y2="246.0141"/><!--MD5=[fc7123defb831ecdd44b2d9bcef6cceb]
class Question--><rect codeLine="27" fill="#F5F5DC" filter="url(#f18lmors1w3gdb)" height="50.3156" id="Question" style="stroke:#A80036;stroke-width:0.8999999999999999;" width="49.2" x="81.6" y="345"/><ellipse cx="90.6" cy="357.0563" fill="#ADD1B2" rx="6.6" ry="6.6" style="stroke:#A80036;stroke-width:0.6;"/><path d="M89.7,357.6563 L89.7,358.8563 L92.1,358.8563 L92.1,358.2562 L92.1,357.9656 L92.475,357.6563 L92.7,357.6563 L92.925,357.6563 L93.3,357.9656 L93.3,358.2562 L93.3,360.0563 L88.5,360.0563 L88.2094,360.0563 L87.9,359.6813 L87.9,359.4563 L87.9,359.2313 L88.2094,358.8563 L88.5,358.8563 L88.5,358.8563 L88.5,355.2562 L88.5,355.2562 L88.2094,355.2562 L87.9,354.8812 L87.9,354.6563 L87.9,354.4313 L88.2094,354.0563 L88.5,354.0563 L93.3,354.0563 L93.3,355.8563 L93.3,356.1469 L92.925,356.4563 L92.7,356.4563 L92.475,356.4563 L92.1,356.1469 L92.1,355.8563 L92.1,355.2562 L89.7,355.2562 L89.7,356.4563 L90.3,356.4563 L90.3,356.1656 L90.3,356.1656 L90.675,355.8563 L90.9,355.8563 L91.125,355.8563 L91.5,356.1656 L91.5,356.4563 L91.5,357.6563 L91.5,357.9469 L91.125,358.2562 L91.125,358.2562 L90.9,358.2562 L90.675,358.2562 L90.3,357.9469 L90.3,357.9469 L90.3,357.6563 L89.7,357.6563 Z " fill="#000000"/><text fill="#000000" font-family="sans-serif" font-size="7.2" font-style="italic" lengthAdjust="spacing" textLength="25.8" x="101.1" y="355.4742">«entity»</text><text fill="#000000" font-family="sans-serif" font-size="7.2" lengthAdjust="spacing" textLength="30" x="99" y="364.5305">Question</text><line style="stroke:#A80036;stroke-width:0.8999999999999999;" x1="82.2" x2="130.2" y1="369.1125" y2="369.1125"/><text fill="#000000" font-family="sans-serif" font-size="6.6" lengthAdjust="spacing" textLength="7.2" x="85.2" y="378.3639">-id</text><text fill="#000000" font-family="sans-serif" font-size="6.6" lengthAdjust="spacing" textLength="23.4" x="85.2" y="386.6654">-options</text><line style="stroke:#A80036;stroke-width:0.8999999999999999;" x1="82.2" x2="130.2" y1="390.5156" y2="390.5156"/><!--MD5=[4296a1ab0576a383a1a509d52c22ebf0]
class Type--><rect codeLine="33" fill="#F5F5DC" filter="url(#f18lmors1w3gdb)" height="28.9125" id="Type" style="stroke:#A80036;stroke-width:0.8999999999999999;" width="65.4" x="73.5" y="455.4"/><ellipse cx="82.5" cy="467.4562" fill="#FF8B40" rx="6.6" ry="6.6" style="stroke:#A80036;stroke-width:0.6;"/><path d="M82.5,469.425 L83.4188,466.1063 L83.4188,466.1063 L83.1094,466.1063 L82.8,465.7313 L82.8,465.5062 L82.8,465.2813 L83.1094,464.9063 L83.4188,464.9063 L84.5438,464.9063 L84.8906,464.9063 L85.2,465.2813 L85.2,465.5062 L85.2,465.7313 L84.8906,466.1063 L84.8906,466.1063 L84.6187,466.1063 L83.2125,470.9063 L81.7875,470.9063 L80.3062,466.1063 L80.1094,466.1063 L80.1094,466.1063 L79.8,465.7313 L79.8,465.5062 L79.8,465.2813 L80.1094,464.9063 L80.4563,464.9063 L81.5813,464.9063 L81.8906,464.9063 L82.2,465.2813 L82.2,465.5062 L82.2,465.7313 L81.8906,466.1063 L81.5813,466.1063 L81.5813,466.1063 L82.5,469.425 Z " fill="#000000"/><text fill="#000000" font-family="sans-serif" font-size="7.2" font-style="italic" lengthAdjust="spacing" textLength="48.6" x="89.7" y="465.8742">«value object»</text><text fill="#000000" font-family="sans-serif" font-size="7.2" lengthAdjust="spacing" textLength="15.6" x="106.2" y="474.9305">Type</text><line style="stroke:#A80036;stroke-width:0.8999999999999999;" x1="74.1" x2="138.3" y1="479.5125" y2="479.5125"/><!--MD5=[ed6624c6556d5e7b1bd23032162d20b7]
class Client--><rect codeLine="45" fill="#F5F5DC" filter="url(#f18lmors1w3gdb)" height="37.9688" id="Client" style="stroke:#A80036;stroke-width:0.8999999999999999;" width="42.6" x="149.1" y="25.2"/><ellipse cx="158.1" cy="41.7844" fill="#ADD1B2" rx="6.6" ry="6.6" style="stroke:#A80036;stroke-width:0.6;"/><path d="M157.2,42.3844 L157.2,43.5844 L159.6,43.5844 L159.6,42.9844 L159.6,42.6938 L159.975,42.3844 L160.2,42.3844 L160.425,42.3844 L160.8,42.6938 L160.8,42.9844 L160.8,44.7844 L156,44.7844 L155.7094,44.7844 L155.4,44.4094 L155.4,44.1844 L155.4,43.9594 L155.7094,43.5844 L156,43.5844 L156,43.5844 L156,39.9844 L156,39.9844 L155.7094,39.9844 L155.4,39.6094 L155.4,39.3844 L155.4,39.1594 L155.7094,38.7844 L156,38.7844 L160.8,38.7844 L160.8,40.5844 L160.8,40.875 L160.425,41.1844 L160.2,41.1844 L159.975,41.1844 L159.6,40.875 L159.6,40.5844 L159.6,39.9844 L157.2,39.9844 L157.2,41.1844 L157.8,41.1844 L157.8,40.8938 L157.8,40.8938 L158.175,40.5844 L158.4,40.5844 L158.625,40.5844 L159,40.8938 L159,41.1844 L159,42.3844 L159,42.675 L158.625,42.9844 L158.625,42.9844 L158.4,42.9844 L158.175,42.9844 L157.8,42.675 L157.8,42.675 L157.8,42.3844 L157.2,42.3844 Z " fill="#000000"/><text fill="#000000" font-family="sans-serif" font-size="7.2" font-style="italic" lengthAdjust="spacing" textLength="25.8" x="165.3" y="35.6742">«entity»</text><text fill="#000000" font-family="sans-serif" font-size="7.2" font-style="italic" lengthAdjust="spacing" textLength="21" x="167.7" y="44.7305">«root»</text><text fill="#000000" font-family="sans-serif" font-size="7.2" lengthAdjust="spacing" textLength="19.2" x="168.6" y="53.7867">Client</text><line style="stroke:#A80036;stroke-width:0.8999999999999999;" x1="149.7" x2="191.1" y1="58.3688" y2="58.3688"/><!--MD5=[123fb3cb4a82b6dd392a85b871d8cde7]
link Questionnaire to Identifier--><path codeLine="35" d="M90.672,162.066 C84.636,167.388 78.546,173.52 73.8,180 C66.654,189.75 61.206,202.236 57.57,212.19 " fill="none" id="Questionnaire-to-Identifier" style="stroke:#222222;stroke-width:0.6;"/><polygon fill="#222222" points="56.502,215.196,60.58,210.9194,57.5121,212.3712,56.0603,209.3032,56.502,215.196" style="stroke:#222222;stroke-width:0.6;"/><text fill="#000000" font-family="sans-serif" font-size="7.8" lengthAdjust="spacing" textLength="41.4" x="74.4" y="188.6971">identified by</text><text fill="#000000" font-family="sans-serif" font-size="7.8" lengthAdjust="spacing" textLength="4.2" x="52.8387" y="208.9753">1</text><!--MD5=[3da50156e7717b39021783dfd0973443]
link Questionnaire to Section--><path codeLine="36" d="M117.906,162.042 C119.784,174.816 122.31,191.958 124.344,205.728 " fill="none" id="Questionnaire-to-Section" style="stroke:#222222;stroke-width:0.6;"/><polygon fill="#222222" points="124.794,208.794,126.3648,203.0973,124.3481,205.8273,121.6181,203.8107,124.794,208.794" style="stroke:#222222;stroke-width:0.6;"/><text fill="#000000" font-family="sans-serif" font-size="7.8" lengthAdjust="spacing" textLength="33.6" x="123" y="188.6971">organized</text><text fill="#000000" font-family="sans-serif" font-size="7.8" lengthAdjust="spacing" textLength="12" x="111.0209" y="202.2299">1..*</text><!--MD5=[87fa8ff7d398728728a611d860795352]
link Section to Question--><path codeLine="37" d="M124.614,250.938 C120.87,275.04 114.654,315.12 110.49,341.94 " fill="none" id="Section-to-Question" style="stroke:#222222;stroke-width:0.6;"/><polygon fill="#222222" points="110.022,344.982,113.226,340.0167,110.4846,342.0179,108.4834,339.2765,110.022,344.982" style="stroke:#222222;stroke-width:0.6;"/><text fill="#000000" font-family="sans-serif" font-size="7.8" lengthAdjust="spacing" textLength="46.8" x="118.2" y="306.2971">composed by</text><text fill="#000000" font-family="sans-serif" font-size="7.8" lengthAdjust="spacing" textLength="12" x="97.6613" y="338.5318">1..*</text><!--MD5=[e0fffaa13fbd595c085593598a8eda75]
link Question to Type--><path codeLine="38" d="M106.2,395.628 C106.2,413.352 106.2,436.716 106.2,452.31 " fill="none" id="Question-to-Type" style="stroke:#222222;stroke-width:0.6;"/><polygon fill="#222222" points="106.2,455.322,108.6,449.922,106.2,452.322,103.8,449.922,106.2,455.322" style="stroke:#222222;stroke-width:0.6;"/><text fill="#000000" font-family="sans-serif" font-size="7.8" lengthAdjust="spacing" textLength="37.8" x="106.8" y="422.0971">associated</text><text fill="#000000" font-family="sans-serif" font-size="7.8" lengthAdjust="spacing" textLength="4.2" x="101.4619" y="448.8917">1</text><!--MD5=[6926d5174a3032b1dcc6c5d6f900c16b]
link Question to Answer--><path codeLine="39" d="M130.812,394.62 C137.088,400.728 143.808,407.292 150,413.4 C163.536,426.75 178.788,442.02 189.924,453.204 " fill="none" id="Question-to-Answer" style="stroke:#222222;stroke-width:0.6;"/><polygon fill="#222222" points="192.096,455.388,189.9858,449.8683,189.979,453.2624,186.5849,453.2555,192.096,455.388" style="stroke:#222222;stroke-width:0.6;"/><text fill="#000000" font-family="sans-serif" font-size="7.8" lengthAdjust="spacing" textLength="12.6" x="161.4" y="422.0971">has</text><text fill="#000000" font-family="sans-serif" font-size="7.8" lengthAdjust="spacing" textLength="3" x="185.2" y="448.9746">*</text><!--MD5=[f24668853f4baed8c3652f719507667c]
link Client to Questionnaire--><path codeLine="49" d="M160.02,63.096 C150.648,79.692 136.878,104.094 127.074,121.464 " fill="none" id="Client-to-Questionnaire" style="stroke:#222222;stroke-width:0.6;"/><polygon fill="#222222" points="125.538,124.188,130.281,120.6633,127.0116,121.5749,126.1,118.3055,125.538,124.188" style="stroke:#222222;stroke-width:0.6;"/><text fill="#000000" font-family="sans-serif" font-size="7.8" lengthAdjust="spacing" textLength="28.8" x="148.8" y="90.8971">answers</text><text fill="#000000" font-family="sans-serif" font-size="7.8" lengthAdjust="spacing" textLength="12" x="114.4327" y="117.7988">1..*</text><!--MD5=[ae98dd626aed4ceeb7e150ddb7f62a8f]
link Client to Answer--><path codeLine="50" d="M180.57,63.012 C190.266,82.212 203.4,113.562 203.4,142.5 C203.4,142.5 203.4,142.5 203.4,370.8 C203.4,399.432 204.426,432.732 205.14,452.328 " fill="none" id="Client-to-Answer" style="stroke:#222222;stroke-width:0.6;"/><polygon fill="#222222" points="205.248,455.352,207.4459,449.8666,205.1366,452.3541,202.6492,450.0448,205.248,455.352" style="stroke:#222222;stroke-width:0.6;"/><text fill="#000000" font-family="sans-serif" font-size="7.8" lengthAdjust="spacing" textLength="28.2" x="204" y="277.4971">provides</text><text fill="#000000" font-family="sans-serif" font-size="7.8" lengthAdjust="spacing" textLength="3" x="201.7222" y="448.9294">*</text><!--MD5=[299154fa14e8308111198093c3ed4330]
@startuml

skinparam classAttributeIconSize 0
hide empty attributes
skinparam classBackgroundColor beige
skinparam ArrowColor #222222

package "<<aggregate>> Answer" {
    entity Answer
}

package "<<aggregate>> Questionnaire" {
    entity Questionnaire
    class Identifier
    entity Section
    entity Question
    class Type
}

entity Questionnaire <<entity>> <<root>> {

}

class Identifier <<(V,#FF8B40) value object>>
entity Section <<entity>> {
- id
}
entity Question <<entity>> {
- id
- options
}
entity Answer <<entity>> {
}
class Type <<(V,#FF8B40) value object>>

Questionnaire - -> "1" Identifier : identified by
Questionnaire - -> "1..*" Section : organized
Section - - -> "1..*" Question: composed by
Question - -> "1" Type: associated
Question- -> "*" Answer : has

package "<<aggregate>> Client" {
    entity Client
}

entity Client <<entity>> <<root>> {

}

Client - -> "1..*" Questionnaire : answers
Client - -> "*" Answer: provides

@enduml

PlantUML version 1.2022.1(Tue Feb 01 18:19:58 GMT 2022)
(GPL source distribution)
Java Runtime: OpenJDK Runtime Environment
JVM: Dynamic Code Evolution 64-Bit Server VM
Default Encoding: Cp1252
Language: pt
Country: PT
--></g></svg>