<?xml version="1.0" encoding="UTF-8" standalone="no"?><svg xmlns="http://www.w3.org/2000/svg" xmlns:xlink="http://www.w3.org/1999/xlink" contentStyleType="text/css" height="1616px" preserveAspectRatio="none" style="width:1875px;height:1616px;background:#FFFFFF;" version="1.1" viewBox="0 0 1875 1616" width="1875px" zoomAndPan="magnify"><defs/><g><rect fill="#FFFFFF" height="1405.3594" style="stroke:#181818;stroke-width:1.0;" width="10" x="50.5" y="96.2188"/><rect fill="#FFFFFF" height="457.2734" style="stroke:#181818;stroke-width:1.0;" width="10" x="343.5" y="134.9219"/><rect fill="#FFFFFF" height="862.6797" style="stroke:#181818;stroke-width:1.0;" width="10" x="343.5" y="638.8984"/><rect fill="#FFFFFF" height="396.5703" style="stroke:#181818;stroke-width:1.0;" width="10" x="740.5" y="165.2734"/><rect fill="#FFFFFF" height="120.7031" style="stroke:#181818;stroke-width:1.0;" width="10" x="740.5" y="669.25"/><rect fill="#FFFFFF" height="120.7031" style="stroke:#181818;stroke-width:1.0;" width="10" x="740.5" y="820.3047"/><rect fill="#FFFFFF" height="120.7031" style="stroke:#181818;stroke-width:1.0;" width="10" x="740.5" y="971.3594"/><rect fill="#FFFFFF" height="60.3516" style="stroke:#181818;stroke-width:1.0;" width="10" x="740.5" y="1122.4141"/><rect fill="#FFFFFF" height="60.3516" style="stroke:#181818;stroke-width:1.0;" width="10" x="740.5" y="1213.1172"/><rect fill="#FFFFFF" height="60.3516" style="stroke:#181818;stroke-width:1.0;" width="10" x="740.5" y="1303.8203"/><rect fill="#FFFFFF" height="60.3516" style="stroke:#181818;stroke-width:1.0;" width="10" x="740.5" y="1394.5234"/><rect fill="#FFFFFF" height="335.8672" style="stroke:#181818;stroke-width:1.0;" width="10" x="968" y="195.625"/><rect fill="#FFFFFF" height="15" style="stroke:#181818;stroke-width:1.0;" width="10" x="1130.5" y="494.1406"/><rect fill="#FFFFFF" height="30" style="stroke:#181818;stroke-width:1.0;" width="10" x="1130.5" y="759.9531"/><rect fill="#FFFFFF" height="30" style="stroke:#181818;stroke-width:1.0;" width="10" x="1130.5" y="911.0078"/><rect fill="#FFFFFF" height="30" style="stroke:#181818;stroke-width:1.0;" width="10" x="1130.5" y="1062.0625"/><rect fill="#FFFFFF" height="60.7031" style="stroke:#181818;stroke-width:1.0;" width="10" x="1403" y="225.9766"/><rect fill="#FFFFFF" height="60.7031" style="stroke:#181818;stroke-width:1.0;" width="10" x="1546" y="317.0313"/><rect fill="#FFFFFF" height="30.3516" style="stroke:#181818;stroke-width:1.0;" width="10" x="1680" y="408.0859"/><rect fill="#FFFFFF" height="30" style="stroke:#181818;stroke-width:1.0;" width="10" x="1680" y="699.6016"/><rect fill="#FFFFFF" height="30" style="stroke:#181818;stroke-width:1.0;" width="10" x="1680" y="850.6563"/><rect fill="#FFFFFF" height="30" style="stroke:#181818;stroke-width:1.0;" width="10" x="1680" y="1001.7109"/><rect fill="#FFFFFF" height="30" style="stroke:#181818;stroke-width:1.0;" width="10" x="1809" y="1152.7656"/><rect fill="#FFFFFF" height="30" style="stroke:#181818;stroke-width:1.0;" width="10" x="1809" y="1243.4688"/><rect fill="#FFFFFF" height="30" style="stroke:#181818;stroke-width:1.0;" width="10" x="1809" y="1334.1719"/><rect fill="#FFFFFF" height="30" style="stroke:#181818;stroke-width:1.0;" width="10" x="1809" y="1424.875"/><rect height="48.7031" style="stroke:#000000;stroke-width:1.5;fill:none;" width="335" x="862" y="453.4375"/><line style="stroke:#181818;stroke-width:0.5;fill:none;stroke-dasharray:5.0,5.0;" x1="55" x2="55" y1="86.2188" y2="1519.5781"/><line style="stroke:#181818;stroke-width:0.5;fill:none;stroke-dasharray:5.0,5.0;" x1="348" x2="348" y1="86.2188" y2="1519.5781"/><line style="stroke:#181818;stroke-width:0.5;fill:none;stroke-dasharray:5.0,5.0;" x1="745" x2="745" y1="86.2188" y2="1519.5781"/><line style="stroke:#181818;stroke-width:0.5;fill:none;stroke-dasharray:5.0,5.0;" x1="973" x2="973" y1="86.2188" y2="1519.5781"/><line style="stroke:#181818;stroke-width:0.5;fill:none;stroke-dasharray:5.0,5.0;" x1="1135" x2="1135" y1="86.2188" y2="1519.5781"/><line style="stroke:#181818;stroke-width:0.5;fill:none;stroke-dasharray:5.0,5.0;" x1="1263" x2="1263" y1="86.2188" y2="1519.5781"/><line style="stroke:#181818;stroke-width:0.5;fill:none;stroke-dasharray:5.0,5.0;" x1="1408" x2="1408" y1="86.2188" y2="1519.5781"/><line style="stroke:#181818;stroke-width:0.5;fill:none;stroke-dasharray:5.0,5.0;" x1="1551" x2="1551" y1="86.2188" y2="1519.5781"/><line style="stroke:#181818;stroke-width:0.5;fill:none;stroke-dasharray:5.0,5.0;" x1="1685" x2="1685" y1="86.2188" y2="1519.5781"/><line style="stroke:#181818;stroke-width:0.5;fill:none;stroke-dasharray:5.0,5.0;" x1="1814" x2="1814" y1="86.2188" y2="1519.5781"/><text fill="#000000" font-family="sans-serif" font-size="14" lengthAdjust="spacing" textLength="95" x="5" y="83.1426">Sales Manager</text><ellipse cx="55.5" cy="17.1094" fill="#E2E2F0" rx="8" ry="8" style="stroke:#181818;stroke-width:0.5;"/><path d="M55.5,25.1094 L55.5,52.1094 M42.5,33.1094 L68.5,33.1094 M55.5,52.1094 L42.5,67.1094 M55.5,52.1094 L68.5,67.1094 " fill="none" style="stroke:#181818;stroke-width:0.5;"/><text fill="#000000" font-family="sans-serif" font-size="14" lengthAdjust="spacing" textLength="95" x="5" y="1533.1113">Sales Manager</text><ellipse cx="55.5" cy="1544.6875" fill="#E2E2F0" rx="8" ry="8" style="stroke:#181818;stroke-width:0.5;"/><path d="M55.5,1552.6875 L55.5,1579.6875 M42.5,1560.6875 L68.5,1560.6875 M55.5,1579.6875 L42.5,1594.6875 M55.5,1579.6875 L68.5,1594.6875 " fill="none" style="stroke:#181818;stroke-width:0.5;"/><rect fill="#E2E2F0" height="49.2188" rx="2.5" ry="2.5" style="stroke:#181818;stroke-width:0.5;" width="183" x="257" y="36"/><text fill="#000000" font-family="sans-serif" font-size="14" font-style="italic" lengthAdjust="spacing" textLength="95" x="301" y="57.5332">«presentation»</text><text fill="#000000" font-family="sans-serif" font-size="14" lengthAdjust="spacing" textLength="169" x="264" y="75.1426">ObterRelatorioEstatisticoUI</text><rect fill="#E2E2F0" height="49.2188" rx="2.5" ry="2.5" style="stroke:#181818;stroke-width:0.5;" width="183" x="257" y="1518.5781"/><text fill="#000000" font-family="sans-serif" font-size="14" font-style="italic" lengthAdjust="spacing" textLength="95" x="301" y="1540.1113">«presentation»</text><text fill="#000000" font-family="sans-serif" font-size="14" lengthAdjust="spacing" textLength="169" x="264" y="1557.7207">ObterRelatorioEstatisticoUI</text><rect fill="#E2E2F0" height="49.2188" rx="2.5" ry="2.5" style="stroke:#181818;stroke-width:0.5;" width="233" x="629" y="36"/><text fill="#000000" font-family="sans-serif" font-size="14" font-style="italic" lengthAdjust="spacing" textLength="84" x="703.5" y="57.5332">«application»</text><text fill="#000000" font-family="sans-serif" font-size="14" lengthAdjust="spacing" textLength="219" x="636" y="75.1426">ObterRelatorioEstatisticoController</text><rect fill="#E2E2F0" height="49.2188" rx="2.5" ry="2.5" style="stroke:#181818;stroke-width:0.5;" width="233" x="629" y="1518.5781"/><text fill="#000000" font-family="sans-serif" font-size="14" font-style="italic" lengthAdjust="spacing" textLength="84" x="703.5" y="1540.1113">«application»</text><text fill="#000000" font-family="sans-serif" font-size="14" lengthAdjust="spacing" textLength="219" x="636" y="1557.7207">ObterRelatorioEstatisticoController</text><rect fill="#E2E2F0" height="49.2188" rx="2.5" ry="2.5" style="stroke:#181818;stroke-width:0.5;" width="202" x="872" y="36"/><text fill="#000000" font-family="sans-serif" font-size="14" font-style="italic" lengthAdjust="spacing" textLength="84" x="931" y="57.5332">«application»</text><text fill="#000000" font-family="sans-serif" font-size="14" lengthAdjust="spacing" textLength="188" x="879" y="75.1426">ListQuestionnaireDTOService</text><rect fill="#E2E2F0" height="49.2188" rx="2.5" ry="2.5" style="stroke:#181818;stroke-width:0.5;" width="202" x="872" y="1518.5781"/><text fill="#000000" font-family="sans-serif" font-size="14" font-style="italic" lengthAdjust="spacing" textLength="84" x="931" y="1540.1113">«application»</text><text fill="#000000" font-family="sans-serif" font-size="14" lengthAdjust="spacing" textLength="188" x="879" y="1557.7207">ListQuestionnaireDTOService</text><rect fill="#E2E2F0" height="49.2188" rx="2.5" ry="2.5" style="stroke:#181818;stroke-width:0.5;" width="103" x="1084" y="36"/><text fill="#000000" font-family="sans-serif" font-size="14" font-style="italic" lengthAdjust="spacing" textLength="62" x="1104.5" y="57.5332">«domain»</text><text fill="#000000" font-family="sans-serif" font-size="14" lengthAdjust="spacing" textLength="89" x="1091" y="75.1426">Questionnaire</text><rect fill="#E2E2F0" height="49.2188" rx="2.5" ry="2.5" style="stroke:#181818;stroke-width:0.5;" width="103" x="1084" y="1518.5781"/><text fill="#000000" font-family="sans-serif" font-size="14" font-style="italic" lengthAdjust="spacing" textLength="62" x="1104.5" y="1540.1113">«domain»</text><text fill="#000000" font-family="sans-serif" font-size="14" lengthAdjust="spacing" textLength="89" x="1091" y="1557.7207">Questionnaire</text><rect fill="#E2E2F0" height="49.2188" rx="2.5" ry="2.5" style="stroke:#181818;stroke-width:0.5;" width="133" x="1197" y="36"/><text fill="#000000" font-family="sans-serif" font-size="14" font-style="italic" lengthAdjust="spacing" textLength="36" x="1245.5" y="57.5332">«dto»</text><text fill="#000000" font-family="sans-serif" font-size="14" lengthAdjust="spacing" textLength="119" x="1204" y="75.1426">QuestionnaireDTO</text><rect fill="#E2E2F0" height="49.2188" rx="2.5" ry="2.5" style="stroke:#181818;stroke-width:0.5;" width="133" x="1197" y="1518.5781"/><text fill="#000000" font-family="sans-serif" font-size="14" font-style="italic" lengthAdjust="spacing" textLength="36" x="1245.5" y="1540.1113">«dto»</text><text fill="#000000" font-family="sans-serif" font-size="14" lengthAdjust="spacing" textLength="119" x="1204" y="1557.7207">QuestionnaireDTO</text><rect fill="#E2E2F0" height="49.2188" rx="2.5" ry="2.5" style="stroke:#181818;stroke-width:0.5;" width="136" x="1340" y="36"/><text fill="#000000" font-family="sans-serif" font-size="14" font-style="italic" lengthAdjust="spacing" textLength="89" x="1363.5" y="57.5332">«persistence»</text><text fill="#000000" font-family="sans-serif" font-size="14" lengthAdjust="spacing" textLength="122" x="1347" y="75.1426">PersistenceContext</text><rect fill="#E2E2F0" height="49.2188" rx="2.5" ry="2.5" style="stroke:#181818;stroke-width:0.5;" width="136" x="1340" y="1518.5781"/><text fill="#000000" font-family="sans-serif" font-size="14" font-style="italic" lengthAdjust="spacing" textLength="89" x="1363.5" y="1540.1113">«persistence»</text><text fill="#000000" font-family="sans-serif" font-size="14" lengthAdjust="spacing" textLength="122" x="1347" y="1557.7207">PersistenceContext</text><rect fill="#E2E2F0" height="49.2188" rx="2.5" ry="2.5" style="stroke:#181818;stroke-width:0.5;" width="130" x="1486" y="36"/><text fill="#000000" font-family="sans-serif" font-size="14" font-style="italic" lengthAdjust="spacing" textLength="59" x="1521.5" y="57.5332">«factory»</text><text fill="#000000" font-family="sans-serif" font-size="14" lengthAdjust="spacing" textLength="116" x="1493" y="75.1426">RepositoryFactory</text><rect fill="#E2E2F0" height="49.2188" rx="2.5" ry="2.5" style="stroke:#181818;stroke-width:0.5;" width="130" x="1486" y="1518.5781"/><text fill="#000000" font-family="sans-serif" font-size="14" font-style="italic" lengthAdjust="spacing" textLength="59" x="1521.5" y="1540.1113">«factory»</text><text fill="#000000" font-family="sans-serif" font-size="14" lengthAdjust="spacing" textLength="116" x="1493" y="1557.7207">RepositoryFactory</text><text fill="#000000" font-family="sans-serif" font-size="14" font-style="italic" lengthAdjust="spacing" textLength="79" x="1642.5" y="65.5332">«repository»</text><text fill="#000000" font-family="sans-serif" font-size="14" lengthAdjust="spacing" textLength="112" x="1626" y="83.1426">SurveyRepository</text><path d="M1667,15 C1667,5 1685,5 1685,5 C1685,5 1703,5 1703,15 L1703,41 C1703,51 1685,51 1685,51 C1685,51 1667,51 1667,41 L1667,15 " fill="#E2E2F0" style="stroke:#181818;stroke-width:1.5;"/><path d="M1667,15 C1667,25 1685,25 1685,25 C1685,25 1703,25 1703,15 " fill="none" style="stroke:#181818;stroke-width:1.5;"/><text fill="#000000" font-family="sans-serif" font-size="14" font-style="italic" lengthAdjust="spacing" textLength="79" x="1642.5" y="1533.1113">«repository»</text><text fill="#000000" font-family="sans-serif" font-size="14" lengthAdjust="spacing" textLength="112" x="1626" y="1550.7207">SurveyRepository</text><path d="M1667,1563.7969 C1667,1553.7969 1685,1553.7969 1685,1553.7969 C1685,1553.7969 1703,1553.7969 1703,1563.7969 L1703,1589.7969 C1703,1599.7969 1685,1599.7969 1685,1599.7969 C1685,1599.7969 1667,1599.7969 1667,1589.7969 L1667,1563.7969 " fill="#E2E2F0" style="stroke:#181818;stroke-width:1.5;"/><path d="M1667,1563.7969 C1667,1573.7969 1685,1573.7969 1685,1573.7969 C1685,1573.7969 1703,1573.7969 1703,1563.7969 " fill="none" style="stroke:#181818;stroke-width:1.5;"/><text fill="#000000" font-family="sans-serif" font-size="14" font-style="italic" lengthAdjust="spacing" textLength="79" x="1771.5" y="65.5332">«repository»</text><text fill="#000000" font-family="sans-serif" font-size="14" lengthAdjust="spacing" textLength="114" x="1754" y="83.1426">AnswerRepository</text><path d="M1796,15 C1796,5 1814,5 1814,5 C1814,5 1832,5 1832,15 L1832,41 C1832,51 1814,51 1814,51 C1814,51 1796,51 1796,41 L1796,15 " fill="#E2E2F0" style="stroke:#181818;stroke-width:1.5;"/><path d="M1796,15 C1796,25 1814,25 1814,25 C1814,25 1832,25 1832,15 " fill="none" style="stroke:#181818;stroke-width:1.5;"/><text fill="#000000" font-family="sans-serif" font-size="14" font-style="italic" lengthAdjust="spacing" textLength="79" x="1771.5" y="1533.1113">«repository»</text><text fill="#000000" font-family="sans-serif" font-size="14" lengthAdjust="spacing" textLength="114" x="1754" y="1550.7207">AnswerRepository</text><path d="M1796,1563.7969 C1796,1553.7969 1814,1553.7969 1814,1553.7969 C1814,1553.7969 1832,1553.7969 1832,1563.7969 L1832,1589.7969 C1832,1599.7969 1814,1599.7969 1814,1599.7969 C1814,1599.7969 1796,1599.7969 1796,1589.7969 L1796,1563.7969 " fill="#E2E2F0" style="stroke:#181818;stroke-width:1.5;"/><path d="M1796,1563.7969 C1796,1573.7969 1814,1573.7969 1814,1573.7969 C1814,1573.7969 1832,1573.7969 1832,1563.7969 " fill="none" style="stroke:#181818;stroke-width:1.5;"/><rect fill="#FFFFFF" height="1405.3594" style="stroke:#181818;stroke-width:1.0;" width="10" x="50.5" y="96.2188"/><rect fill="#FFFFFF" height="457.2734" style="stroke:#181818;stroke-width:1.0;" width="10" x="343.5" y="134.9219"/><rect fill="#FFFFFF" height="862.6797" style="stroke:#181818;stroke-width:1.0;" width="10" x="343.5" y="638.8984"/><rect fill="#FFFFFF" height="396.5703" style="stroke:#181818;stroke-width:1.0;" width="10" x="740.5" y="165.2734"/><rect fill="#FFFFFF" height="120.7031" style="stroke:#181818;stroke-width:1.0;" width="10" x="740.5" y="669.25"/><rect fill="#FFFFFF" height="120.7031" style="stroke:#181818;stroke-width:1.0;" width="10" x="740.5" y="820.3047"/><rect fill="#FFFFFF" height="120.7031" style="stroke:#181818;stroke-width:1.0;" width="10" x="740.5" y="971.3594"/><rect fill="#FFFFFF" height="60.3516" style="stroke:#181818;stroke-width:1.0;" width="10" x="740.5" y="1122.4141"/><rect fill="#FFFFFF" height="60.3516" style="stroke:#181818;stroke-width:1.0;" width="10" x="740.5" y="1213.1172"/><rect fill="#FFFFFF" height="60.3516" style="stroke:#181818;stroke-width:1.0;" width="10" x="740.5" y="1303.8203"/><rect fill="#FFFFFF" height="60.3516" style="stroke:#181818;stroke-width:1.0;" width="10" x="740.5" y="1394.5234"/><rect fill="#FFFFFF" height="335.8672" style="stroke:#181818;stroke-width:1.0;" width="10" x="968" y="195.625"/><rect fill="#FFFFFF" height="15" style="stroke:#181818;stroke-width:1.0;" width="10" x="1130.5" y="494.1406"/><rect fill="#FFFFFF" height="30" style="stroke:#181818;stroke-width:1.0;" width="10" x="1130.5" y="759.9531"/><rect fill="#FFFFFF" height="30" style="stroke:#181818;stroke-width:1.0;" width="10" x="1130.5" y="911.0078"/><rect fill="#FFFFFF" height="30" style="stroke:#181818;stroke-width:1.0;" width="10" x="1130.5" y="1062.0625"/><rect fill="#FFFFFF" height="60.7031" style="stroke:#181818;stroke-width:1.0;" width="10" x="1403" y="225.9766"/><rect fill="#FFFFFF" height="60.7031" style="stroke:#181818;stroke-width:1.0;" width="10" x="1546" y="317.0313"/><rect fill="#FFFFFF" height="30.3516" style="stroke:#181818;stroke-width:1.0;" width="10" x="1680" y="408.0859"/><rect fill="#FFFFFF" height="30" style="stroke:#181818;stroke-width:1.0;" width="10" x="1680" y="699.6016"/><rect fill="#FFFFFF" height="30" style="stroke:#181818;stroke-width:1.0;" width="10" x="1680" y="850.6563"/><rect fill="#FFFFFF" height="30" style="stroke:#181818;stroke-width:1.0;" width="10" x="1680" y="1001.7109"/><rect fill="#FFFFFF" height="30" style="stroke:#181818;stroke-width:1.0;" width="10" x="1809" y="1152.7656"/><rect fill="#FFFFFF" height="30" style="stroke:#181818;stroke-width:1.0;" width="10" x="1809" y="1243.4688"/><rect fill="#FFFFFF" height="30" style="stroke:#181818;stroke-width:1.0;" width="10" x="1809" y="1334.1719"/><rect fill="#FFFFFF" height="30" style="stroke:#181818;stroke-width:1.0;" width="10" x="1809" y="1424.875"/><polygon fill="#181818" points="331.5,130.9219,341.5,134.9219,331.5,138.9219,335.5,134.9219" style="stroke:#181818;stroke-width:1.0;"/><line style="stroke:#181818;stroke-width:1.0;" x1="60.5" x2="337.5" y1="134.9219" y2="134.9219"/><text fill="#000000" font-family="sans-serif" font-size="13" font-weight="bold" lengthAdjust="spacing" textLength="7" x="67.5" y="121.8896">1</text><text fill="#000000" font-family="sans-serif" font-size="13" lengthAdjust="spacing" textLength="210" x="78.5" y="113.7139">Inicia o processo de obter o relatório</text><text fill="#000000" font-family="sans-serif" font-size="13" lengthAdjust="spacing" textLength="249" x="82.5" y="130.0654">estatístico de um determinado questionário</text><polygon fill="#181818" points="728.5,161.2734,738.5,165.2734,728.5,169.2734,732.5,165.2734" style="stroke:#181818;stroke-width:1.0;"/><line style="stroke:#181818;stroke-width:1.0;" x1="353.5" x2="734.5" y1="165.2734" y2="165.2734"/><text fill="#000000" font-family="sans-serif" font-size="13" font-weight="bold" lengthAdjust="spacing" textLength="7" x="360.5" y="160.417">2</text><text fill="#000000" font-family="sans-serif" font-size="13" lengthAdjust="spacing" textLength="130" x="371.5" y="160.417">findAllQuestionnaires()</text><polygon fill="#181818" points="956,191.625,966,195.625,956,199.625,960,195.625" style="stroke:#181818;stroke-width:1.0;"/><line style="stroke:#181818;stroke-width:1.0;" x1="750.5" x2="962" y1="195.625" y2="195.625"/><text fill="#000000" font-family="sans-serif" font-size="13" font-weight="bold" lengthAdjust="spacing" textLength="7" x="757.5" y="190.7686">3</text><text fill="#000000" font-family="sans-serif" font-size="13" lengthAdjust="spacing" textLength="72" x="768.5" y="190.7686">getSurveys()</text><polygon fill="#181818" points="1391,221.9766,1401,225.9766,1391,229.9766,1395,225.9766" style="stroke:#181818;stroke-width:1.0;"/><line style="stroke:#181818;stroke-width:1.0;" x1="978" x2="1397" y1="225.9766" y2="225.9766"/><text fill="#000000" font-family="sans-serif" font-size="13" font-weight="bold" lengthAdjust="spacing" textLength="7" x="985" y="221.1201">4</text><text fill="#000000" font-family="sans-serif" font-size="13" lengthAdjust="spacing" textLength="75" x="996" y="221.1201">repositories()</text><polygon fill="#181818" points="1539,252.3281,1549,256.3281,1539,260.3281,1543,256.3281" style="stroke:#181818;stroke-width:1.0;"/><line style="stroke:#181818;stroke-width:1.0;" x1="1413" x2="1545" y1="256.3281" y2="256.3281"/><text fill="#000000" font-family="sans-serif" font-size="13" font-weight="bold" lengthAdjust="spacing" textLength="7" x="1420" y="251.4717">5</text><text fill="#000000" font-family="sans-serif" font-size="13" lengthAdjust="spacing" textLength="36" x="1431" y="251.4717">create</text><polygon fill="#181818" points="989,282.6797,979,286.6797,989,290.6797,985,286.6797" style="stroke:#181818;stroke-width:1.0;"/><line style="stroke:#181818;stroke-width:1.0;" x1="983" x2="1407" y1="286.6797" y2="286.6797"/><text fill="#000000" font-family="sans-serif" font-size="13" font-weight="bold" lengthAdjust="spacing" textLength="7" x="995" y="281.8232">6</text><text fill="#000000" font-family="sans-serif" font-size="13" lengthAdjust="spacing" textLength="39" x="1006" y="281.8232">factory</text><polygon fill="#181818" points="1534,313.0313,1544,317.0313,1534,321.0313,1538,317.0313" style="stroke:#181818;stroke-width:1.0;"/><line style="stroke:#181818;stroke-width:1.0;" x1="978" x2="1540" y1="317.0313" y2="317.0313"/><text fill="#000000" font-family="sans-serif" font-size="13" font-weight="bold" lengthAdjust="spacing" textLength="7" x="985" y="312.1748">7</text><text fill="#000000" font-family="sans-serif" font-size="13" lengthAdjust="spacing" textLength="52" x="996" y="312.1748">surveys()</text><polygon fill="#181818" points="1673,343.3828,1683,347.3828,1673,351.3828,1677,347.3828" style="stroke:#181818;stroke-width:1.0;"/><line style="stroke:#181818;stroke-width:1.0;" x1="1556" x2="1679" y1="347.3828" y2="347.3828"/><text fill="#000000" font-family="sans-serif" font-size="13" font-weight="bold" lengthAdjust="spacing" textLength="7" x="1563" y="342.5264">8</text><text fill="#000000" font-family="sans-serif" font-size="13" lengthAdjust="spacing" textLength="36" x="1574" y="342.5264">create</text><polygon fill="#181818" points="989,373.7344,979,377.7344,989,381.7344,985,377.7344" style="stroke:#181818;stroke-width:1.0;"/><line style="stroke:#181818;stroke-width:1.0;" x1="983" x2="1550" y1="377.7344" y2="377.7344"/><text fill="#000000" font-family="sans-serif" font-size="13" font-weight="bold" lengthAdjust="spacing" textLength="7" x="995" y="372.8779">9</text><text fill="#000000" font-family="sans-serif" font-size="13" lengthAdjust="spacing" textLength="57" x="1006" y="372.8779">repository</text><polygon fill="#181818" points="1668,404.0859,1678,408.0859,1668,412.0859,1672,408.0859" style="stroke:#181818;stroke-width:1.0;"/><line style="stroke:#181818;stroke-width:1.0;" x1="978" x2="1674" y1="408.0859" y2="408.0859"/><text fill="#000000" font-family="sans-serif" font-size="13" font-weight="bold" lengthAdjust="spacing" textLength="14" x="985" y="403.2295">10</text><text fill="#000000" font-family="sans-serif" font-size="13" lengthAdjust="spacing" textLength="43" x="1003" y="403.2295">findAll()</text><polygon fill="#181818" points="989,434.4375,979,438.4375,989,442.4375,985,438.4375" style="stroke:#181818;stroke-width:1.0;"/><line style="stroke:#181818;stroke-width:1.0;stroke-dasharray:2.0,2.0;" x1="983" x2="1684" y1="438.4375" y2="438.4375"/><text fill="#000000" font-family="sans-serif" font-size="13" font-weight="bold" lengthAdjust="spacing" textLength="14" x="995" y="433.5811">11</text><text fill="#000000" font-family="sans-serif" font-size="13" lengthAdjust="spacing" textLength="44" x="1013" y="433.5811">surveys</text><path d="M862,453.4375 L935,453.4375 L935,461.7891 L925,471.7891 L862,471.7891 L862,453.4375 " fill="#EEEEEE" style="stroke:#000000;stroke-width:1.5;"/><rect fill="none" height="48.7031" style="stroke:#000000;stroke-width:1.5;" width="335" x="862" y="453.4375"/><text fill="#000000" font-family="sans-serif" font-size="13" font-weight="bold" lengthAdjust="spacing" textLength="28" x="877" y="467.9326">loop</text><polygon fill="#181818" points="1118.5,490.1406,1128.5,494.1406,1118.5,498.1406,1122.5,494.1406" style="stroke:#181818;stroke-width:1.0;"/><line style="stroke:#181818;stroke-width:1.0;" x1="978" x2="1124.5" y1="494.1406" y2="494.1406"/><text fill="#000000" font-family="sans-serif" font-size="13" font-weight="bold" lengthAdjust="spacing" textLength="14" x="985" y="489.2842">12</text><text fill="#000000" font-family="sans-serif" font-size="13" lengthAdjust="spacing" textLength="45" x="1003" y="489.2842">toDTO()</text><polygon fill="#181818" points="761.5,527.4922,751.5,531.4922,761.5,535.4922,757.5,531.4922" style="stroke:#181818;stroke-width:1.0;"/><line style="stroke:#181818;stroke-width:1.0;stroke-dasharray:2.0,2.0;" x1="755.5" x2="972" y1="531.4922" y2="531.4922"/><text fill="#000000" font-family="sans-serif" font-size="13" font-weight="bold" lengthAdjust="spacing" textLength="14" x="767.5" y="526.6357">13</text><text fill="#000000" font-family="sans-serif" font-size="13" lengthAdjust="spacing" textLength="91" x="785.5" y="526.6357">surveysDTOList</text><polygon fill="#181818" points="364.5,557.8438,354.5,561.8438,364.5,565.8438,360.5,561.8438" style="stroke:#181818;stroke-width:1.0;"/><line style="stroke:#181818;stroke-width:1.0;stroke-dasharray:2.0,2.0;" x1="358.5" x2="744.5" y1="561.8438" y2="561.8438"/><text fill="#000000" font-family="sans-serif" font-size="13" font-weight="bold" lengthAdjust="spacing" textLength="14" x="370.5" y="556.9873">14</text><text fill="#000000" font-family="sans-serif" font-size="13" lengthAdjust="spacing" textLength="91" x="388.5" y="556.9873">surveysDTOList</text><polygon fill="#181818" points="71.5,588.1953,61.5,592.1953,71.5,596.1953,67.5,592.1953" style="stroke:#181818;stroke-width:1.0;"/><line style="stroke:#181818;stroke-width:1.0;stroke-dasharray:2.0,2.0;" x1="65.5" x2="347.5" y1="592.1953" y2="592.1953"/><text fill="#000000" font-family="sans-serif" font-size="13" font-weight="bold" lengthAdjust="spacing" textLength="14" x="77.5" y="587.3389">15</text><text fill="#000000" font-family="sans-serif" font-size="13" lengthAdjust="spacing" textLength="214" x="95.5" y="587.3389">Mostra os questionários que existem</text><polygon fill="#181818" points="331.5,634.8984,341.5,638.8984,331.5,642.8984,335.5,638.8984" style="stroke:#181818;stroke-width:1.0;"/><line style="stroke:#181818;stroke-width:1.0;" x1="60.5" x2="337.5" y1="638.8984" y2="638.8984"/><text fill="#000000" font-family="sans-serif" font-size="13" font-weight="bold" lengthAdjust="spacing" textLength="14" x="67.5" y="625.8662">16</text><text fill="#000000" font-family="sans-serif" font-size="13" lengthAdjust="spacing" textLength="167" x="85.5" y="617.6904">Seleciona o questionário que</text><text fill="#000000" font-family="sans-serif" font-size="13" lengthAdjust="spacing" textLength="144" x="89.5" y="634.042">pretende obter o relatório</text><polygon fill="#181818" points="728.5,665.25,738.5,669.25,728.5,673.25,732.5,669.25" style="stroke:#181818;stroke-width:1.0;"/><line style="stroke:#181818;stroke-width:1.0;" x1="353.5" x2="734.5" y1="669.25" y2="669.25"/><text fill="#000000" font-family="sans-serif" font-size="13" font-weight="bold" lengthAdjust="spacing" textLength="14" x="360.5" y="664.3936">17</text><text fill="#000000" font-family="sans-serif" font-size="13" lengthAdjust="spacing" textLength="215" x="378.5" y="664.3936">obterQuantidadeClientesInquiridos(id)</text><polygon fill="#181818" points="1668,695.6016,1678,699.6016,1668,703.6016,1672,699.6016" style="stroke:#181818;stroke-width:1.0;"/><line style="stroke:#181818;stroke-width:1.0;" x1="750.5" x2="1674" y1="699.6016" y2="699.6016"/><text fill="#000000" font-family="sans-serif" font-size="13" font-weight="bold" lengthAdjust="spacing" textLength="14" x="757.5" y="694.7451">18</text><text fill="#000000" font-family="sans-serif" font-size="13" lengthAdjust="spacing" textLength="179" x="775.5" y="694.7451">questionnaire = findIdentifier(id)</text><polygon fill="#181818" points="1118.5,755.9531,1128.5,759.9531,1118.5,763.9531,1122.5,759.9531" style="stroke:#181818;stroke-width:1.0;"/><line style="stroke:#181818;stroke-width:1.0;" x1="750.5" x2="1124.5" y1="759.9531" y2="759.9531"/><text fill="#000000" font-family="sans-serif" font-size="13" font-weight="bold" lengthAdjust="spacing" textLength="14" x="757.5" y="755.0967">19</text><text fill="#000000" font-family="sans-serif" font-size="13" lengthAdjust="spacing" textLength="183" x="775.5" y="755.0967">getQuantityInquiredCustomers()</text><polygon fill="#181818" points="728.5,816.3047,738.5,820.3047,728.5,824.3047,732.5,820.3047" style="stroke:#181818;stroke-width:1.0;"/><line style="stroke:#181818;stroke-width:1.0;" x1="353.5" x2="734.5" y1="820.3047" y2="820.3047"/><text fill="#000000" font-family="sans-serif" font-size="13" font-weight="bold" lengthAdjust="spacing" textLength="14" x="360.5" y="815.4482">20</text><text fill="#000000" font-family="sans-serif" font-size="13" lengthAdjust="spacing" textLength="175" x="378.5" y="815.4482">obterQuantidadeRespostas(id)</text><polygon fill="#181818" points="1668,846.6563,1678,850.6563,1668,854.6563,1672,850.6563" style="stroke:#181818;stroke-width:1.0;"/><line style="stroke:#181818;stroke-width:1.0;" x1="750.5" x2="1674" y1="850.6563" y2="850.6563"/><text fill="#000000" font-family="sans-serif" font-size="13" font-weight="bold" lengthAdjust="spacing" textLength="14" x="757.5" y="845.7998">21</text><text fill="#000000" font-family="sans-serif" font-size="13" lengthAdjust="spacing" textLength="195" x="775.5" y="845.7998">questionnaire = findByIdentifier(id)</text><polygon fill="#181818" points="1118.5,907.0078,1128.5,911.0078,1118.5,915.0078,1122.5,911.0078" style="stroke:#181818;stroke-width:1.0;"/><line style="stroke:#181818;stroke-width:1.0;" x1="750.5" x2="1124.5" y1="911.0078" y2="911.0078"/><text fill="#000000" font-family="sans-serif" font-size="13" font-weight="bold" lengthAdjust="spacing" textLength="14" x="757.5" y="906.1514">22</text><text fill="#000000" font-family="sans-serif" font-size="13" lengthAdjust="spacing" textLength="128" x="775.5" y="906.1514">getAmountAnswered()</text><polygon fill="#181818" points="728.5,967.3594,738.5,971.3594,728.5,975.3594,732.5,971.3594" style="stroke:#181818;stroke-width:1.0;"/><line style="stroke:#181818;stroke-width:1.0;" x1="353.5" x2="734.5" y1="971.3594" y2="971.3594"/><text fill="#000000" font-family="sans-serif" font-size="13" font-weight="bold" lengthAdjust="spacing" textLength="14" x="360.5" y="966.5029">23</text><text fill="#000000" font-family="sans-serif" font-size="13" lengthAdjust="spacing" textLength="103" x="378.5" y="966.5029">obterQuestoes(id)</text><polygon fill="#181818" points="1668,997.7109,1678,1001.7109,1668,1005.7109,1672,1001.7109" style="stroke:#181818;stroke-width:1.0;"/><line style="stroke:#181818;stroke-width:1.0;" x1="750.5" x2="1674" y1="1001.7109" y2="1001.7109"/><text fill="#000000" font-family="sans-serif" font-size="13" font-weight="bold" lengthAdjust="spacing" textLength="14" x="757.5" y="996.8545">24</text><text fill="#000000" font-family="sans-serif" font-size="13" lengthAdjust="spacing" textLength="195" x="775.5" y="996.8545">questionnaire = findByIdentifier(id)</text><polygon fill="#181818" points="1118.5,1058.0625,1128.5,1062.0625,1118.5,1066.0625,1122.5,1062.0625" style="stroke:#181818;stroke-width:1.0;"/><line style="stroke:#181818;stroke-width:1.0;" x1="750.5" x2="1124.5" y1="1062.0625" y2="1062.0625"/><text fill="#000000" font-family="sans-serif" font-size="13" font-weight="bold" lengthAdjust="spacing" textLength="14" x="757.5" y="1057.2061">25</text><text fill="#000000" font-family="sans-serif" font-size="13" lengthAdjust="spacing" textLength="77" x="775.5" y="1057.2061">getSections()</text><polygon fill="#181818" points="728.5,1118.4141,738.5,1122.4141,728.5,1126.4141,732.5,1122.4141" style="stroke:#181818;stroke-width:1.0;"/><line style="stroke:#181818;stroke-width:1.0;" x1="353.5" x2="734.5" y1="1122.4141" y2="1122.4141"/><text fill="#000000" font-family="sans-serif" font-size="13" font-weight="bold" lengthAdjust="spacing" textLength="14" x="360.5" y="1117.5576">26</text><text fill="#000000" font-family="sans-serif" font-size="13" lengthAdjust="spacing" textLength="331" x="378.5" y="1117.5576">obterQuantidadeRespostasOpcao(questionId,op,surveyId)</text><polygon fill="#181818" points="1797,1148.7656,1807,1152.7656,1797,1156.7656,1801,1152.7656" style="stroke:#181818;stroke-width:1.0;"/><line style="stroke:#181818;stroke-width:1.0;" x1="750.5" x2="1803" y1="1152.7656" y2="1152.7656"/><text fill="#000000" font-family="sans-serif" font-size="13" font-weight="bold" lengthAdjust="spacing" textLength="14" x="757.5" y="1147.9092">27</text><text fill="#000000" font-family="sans-serif" font-size="13" lengthAdjust="spacing" textLength="43" x="775.5" y="1147.9092">findAll()</text><polygon fill="#181818" points="728.5,1209.1172,738.5,1213.1172,728.5,1217.1172,732.5,1213.1172" style="stroke:#181818;stroke-width:1.0;"/><line style="stroke:#181818;stroke-width:1.0;" x1="353.5" x2="734.5" y1="1213.1172" y2="1213.1172"/><text fill="#000000" font-family="sans-serif" font-size="13" font-weight="bold" lengthAdjust="spacing" textLength="14" x="360.5" y="1208.2607">28</text><text fill="#000000" font-family="sans-serif" font-size="13" lengthAdjust="spacing" textLength="350" x="378.5" y="1208.2607">obterQuantClientesRespondeuPergunta(questionId, surveyId)</text><polygon fill="#181818" points="1797,1239.4688,1807,1243.4688,1797,1247.4688,1801,1243.4688" style="stroke:#181818;stroke-width:1.0;"/><line style="stroke:#181818;stroke-width:1.0;" x1="750.5" x2="1803" y1="1243.4688" y2="1243.4688"/><text fill="#000000" font-family="sans-serif" font-size="13" font-weight="bold" lengthAdjust="spacing" textLength="14" x="757.5" y="1238.6123">29</text><text fill="#000000" font-family="sans-serif" font-size="13" lengthAdjust="spacing" textLength="43" x="775.5" y="1238.6123">findAll()</text><polygon fill="#181818" points="728.5,1299.8203,738.5,1303.8203,728.5,1307.8203,732.5,1303.8203" style="stroke:#181818;stroke-width:1.0;"/><line style="stroke:#181818;stroke-width:1.0;" x1="353.5" x2="734.5" y1="1303.8203" y2="1303.8203"/><text fill="#000000" font-family="sans-serif" font-size="13" font-weight="bold" lengthAdjust="spacing" textLength="14" x="360.5" y="1298.9639">30</text><text fill="#000000" font-family="sans-serif" font-size="13" lengthAdjust="spacing" textLength="204" x="378.5" y="1298.9639">obterRespostaMedia(questionId, id)</text><polygon fill="#181818" points="1797,1330.1719,1807,1334.1719,1797,1338.1719,1801,1334.1719" style="stroke:#181818;stroke-width:1.0;"/><line style="stroke:#181818;stroke-width:1.0;" x1="750.5" x2="1803" y1="1334.1719" y2="1334.1719"/><text fill="#000000" font-family="sans-serif" font-size="13" font-weight="bold" lengthAdjust="spacing" textLength="14" x="757.5" y="1329.3154">31</text><text fill="#000000" font-family="sans-serif" font-size="13" lengthAdjust="spacing" textLength="43" x="775.5" y="1329.3154">findAll()</text><polygon fill="#181818" points="728.5,1390.5234,738.5,1394.5234,728.5,1398.5234,732.5,1394.5234" style="stroke:#181818;stroke-width:1.0;"/><line style="stroke:#181818;stroke-width:1.0;" x1="353.5" x2="734.5" y1="1394.5234" y2="1394.5234"/><text fill="#000000" font-family="sans-serif" font-size="13" font-weight="bold" lengthAdjust="spacing" textLength="14" x="360.5" y="1389.667">32</text><text fill="#000000" font-family="sans-serif" font-size="13" lengthAdjust="spacing" textLength="296" x="378.5" y="1389.667">obterQuantidadeRespostasOutra(questionId, op, id)</text><polygon fill="#181818" points="1797,1420.875,1807,1424.875,1797,1428.875,1801,1424.875" style="stroke:#181818;stroke-width:1.0;"/><line style="stroke:#181818;stroke-width:1.0;" x1="750.5" x2="1803" y1="1424.875" y2="1424.875"/><text fill="#000000" font-family="sans-serif" font-size="13" font-weight="bold" lengthAdjust="spacing" textLength="14" x="757.5" y="1420.0186">33</text><text fill="#000000" font-family="sans-serif" font-size="13" lengthAdjust="spacing" textLength="43" x="775.5" y="1420.0186">findAll()</text><polygon fill="#181818" points="66.5,1497.5781,56.5,1501.5781,66.5,1505.5781,62.5,1501.5781" style="stroke:#181818;stroke-width:1.0;"/><line style="stroke:#181818;stroke-width:1.0;stroke-dasharray:2.0,2.0;" x1="60.5" x2="347.5" y1="1501.5781" y2="1501.5781"/><text fill="#000000" font-family="sans-serif" font-size="13" font-weight="bold" lengthAdjust="spacing" textLength="14" x="72.5" y="1488.5459">34</text><text fill="#000000" font-family="sans-serif" font-size="13" lengthAdjust="spacing" textLength="160" x="90.5" y="1480.3701">Mostra a informação pedida</text><text fill="#000000" font-family="sans-serif" font-size="13" lengthAdjust="spacing" textLength="202" x="94.5" y="1496.7217">informando o sucesso da operação</text><!--MD5=[d27d07688e6e31fffd7f730cd495a258]
@startuml

autonumber
actor "Sales Manager" as SM
participant ObterRelatorioEstatisticoUI as UI <<presentation>>
participant ObterRelatorioEstatisticoController as Controller <<application>>
participant ListQuestionnaireDTOService as serv <<application>>
participant "Questionnaire" as Domain <<domain>>
participant "QuestionnaireDTO" as DTO <<dto>>
participant PersistenceContext as Persistence <<persistence>>
participant RepositoryFactory as Factory <<factory>>
database SurveyRepository as repository <<repository>>
database AnswerRepository as ansrepository <<repository>>

activate SM
SM -> UI : Inicia o processo de obter o relatório\n estatístico de um determinado questionário
activate UI
UI->Controller: findAllQuestionnaires()
activate Controller

Controller -> serv: getSurveys()
activate serv
serv-> Persistence: repositories()
activate Persistence
Persistence -> Factory: create
Persistence -> serv: factory
deactivate Persistence
serv -> Factory: surveys()
activate Factory
Factory -> repository: create
Factory -> serv: repository
deactivate Factory
serv->repository:findAll()
activate repository
repository - ->serv: surveys
deactivate repository
loop
serv -> Domain: toDTO()
activate Domain
end
deactivate Domain
serv - -> Controller : surveysDTOList
deactivate serv
Controller - -> UI : surveysDTOList
deactivate Controller
UI - -> SM : Mostra os questionários que existem
deactivate UI
SM -> UI : Seleciona o questionário que\n pretende obter o relatório
activate UI
UI -> Controller : obterQuantidadeClientesInquiridos(id)
activate Controller
Controller -> repository : questionnaire = findIdentifier(id)
activate repository
deactivate repository
Controller -> Domain : getQuantityInquiredCustomers()
activate Domain
deactivate Domain
deactivate Controller
UI -> Controller : obterQuantidadeRespostas(id)
activate Controller
Controller -> repository : questionnaire = findByIdentifier(id)
activate repository
deactivate repository
Controller -> Domain : getAmountAnswered()
activate Domain
deactivate Domain
deactivate Controller
UI -> Controller : obterQuestoes(id)
activate Controller
Controller -> repository : questionnaire = findByIdentifier(id)
activate repository
deactivate repository
Controller -> Domain : getSections()
activate Domain
deactivate Domain
deactivate Controller
UI -> Controller : obterQuantidadeRespostasOpcao(questionId,op,surveyId)
activate Controller
Controller -> ansrepository : findAll()
activate ansrepository
deactivate ansrepository
deactivate Controller
UI -> Controller : obterQuantClientesRespondeuPergunta(questionId, surveyId)
activate Controller
Controller -> ansrepository : findAll()
activate ansrepository
deactivate ansrepository
deactivate Controller
UI -> Controller : obterRespostaMedia(questionId, id)
activate Controller
Controller -> ansrepository : findAll()
activate ansrepository
deactivate ansrepository
deactivate Controller

UI -> Controller : obterQuantidadeRespostasOutra(questionId, op, id)
activate Controller
Controller -> ansrepository : findAll()
activate ansrepository
deactivate ansrepository
deactivate Controller

UI - -> SM : Mostra a informação pedida\n informando o sucesso da operação
deactivate UI

deactivate SM

@enduml

PlantUML version 1.2022.4(Sat Apr 09 14:29:17 BST 2022)
(GPL source distribution)
Java Runtime: OpenJDK Runtime Environment
JVM: OpenJDK 64-Bit Server VM
Default Encoding: Cp1252
Language: pt
Country: PT
--></g></svg>