<?xml version="1.0" encoding="UTF-8" standalone="no"?><svg xmlns="http://www.w3.org/2000/svg" xmlns:xlink="http://www.w3.org/1999/xlink" contentStyleType="text/css" height="325px" preserveAspectRatio="none" style="width:2075px;height:325px;background:#FFFFFF;" version="1.1" viewBox="0 0 2075 325" width="2075px" zoomAndPan="magnify"><defs/><g><!--MD5=[d157518aef2c318657f1099d97a163e4]
class CallAGVManagerController--><g id="elem_CallAGVManagerController"><rect codeLine="2" fill="#F1F1F1" height="136.0469" id="CallAGVManagerController" rx="2.5" ry="2.5" style="stroke:#181818;stroke-width:0.5;" width="219" x="7" y="120.73"/><ellipse cx="29.2" cy="136.73" fill="#ADD1B2" rx="11" ry="11" style="stroke:#181818;stroke-width:1.0;"/><path d="M31.2,133.23 Q31.4031,132.73 31.6375,132.48 Q31.8719,132.23 32.1375,132.23 Q32.6063,132.23 32.9031,132.5113 Q33.2,132.7925 33.2,133.4488 L33.2,135.0113 Q33.2,135.6675 32.9188,135.9488 Q32.6375,136.23 32.2,136.23 Q31.8094,136.23 31.5594,136.0581 Q31.3094,135.8863 31.2,135.4331 Q31.1531,135.1206 30.9813,134.9488 Q30.6688,134.6206 30.1063,134.4331 Q29.5438,134.23 28.9813,134.23 Q28.2781,134.23 27.6844,134.5113 Q27.1063,134.7925 26.6531,135.4175 Q26.2,136.0425 26.2,136.9019 L26.2,137.8238 Q26.2,138.855 27.0438,139.5425 Q27.8875,140.23 29.3875,140.23 Q30.2781,140.23 30.9031,140.0269 Q31.2625,139.9175 31.6688,139.5581 Q31.9344,139.355 32.075,139.2925 Q32.2156,139.23 32.3875,139.23 Q32.7156,139.23 32.95,139.4956 Q33.2,139.7456 33.2,140.105 Q33.2,140.4488 32.8563,140.855 Q32.3563,141.4488 31.5594,141.7769 Q30.5125,142.23 29.2313,142.23 Q27.7313,142.23 26.5281,141.6363 Q25.5594,141.1675 24.8719,140.1519 Q24.2,139.1363 24.2,137.9331 L24.2,136.8394 Q24.2,135.5894 24.7938,134.4956 Q25.4031,133.4019 26.45,132.8238 Q27.5125,132.23 28.7,132.23 Q29.4188,132.23 30.0438,132.48 Q30.6688,132.73 31.2,133.23 Z " fill="#000000"/><text fill="#000000" font-family="sans-serif" font-size="14" lengthAdjust="spacing" textLength="171" x="44.8" y="142.4585">CallAGVManagerController</text><line style="stroke:#181818;stroke-width:0.5;" x1="8" x2="225" y1="152.73" y2="152.73"/><line style="stroke:#181818;stroke-width:0.5;" x1="8" x2="225" y1="160.73" y2="160.73"/><ellipse cx="18" cy="171.73" fill="#84BE84" rx="3" ry="3" style="stroke:#038048;stroke-width:1.0;"/><text fill="#000000" font-family="sans-serif" font-size="14" lengthAdjust="spacing" textLength="50" x="27" y="179.2632">create()</text><ellipse cx="18" cy="189.3394" fill="#84BE84" rx="3" ry="3" style="stroke:#038048;stroke-width:1.0;"/><text fill="#000000" font-family="sans-serif" font-size="14" lengthAdjust="spacing" textLength="193" x="27" y="196.8726">connectDaemon(address,port)</text><ellipse cx="18" cy="206.9488" fill="#84BE84" rx="3" ry="3" style="stroke:#038048;stroke-width:1.0;"/><text fill="#000000" font-family="sans-serif" font-size="14" lengthAdjust="spacing" textLength="63" x="27" y="214.482">callFIFO()</text><ellipse cx="18" cy="224.5581" fill="#84BE84" rx="3" ry="3" style="stroke:#038048;stroke-width:1.0;"/><text fill="#000000" font-family="sans-serif" font-size="14" lengthAdjust="spacing" textLength="82" x="27" y="232.0913">getAGVInfo()</text><ellipse cx="18" cy="242.1675" fill="#84BE84" rx="3" ry="3" style="stroke:#038048;stroke-width:1.0;"/><text fill="#000000" font-family="sans-serif" font-size="14" lengthAdjust="spacing" textLength="115" x="27" y="249.7007">closeConnection()</text></g><!--MD5=[feb862d0c2458839555213da1199e03c]
class DigitalTwinDaemon--><g id="elem_DigitalTwinDaemon"><rect codeLine="10" fill="#F1F1F1" height="83.2188" id="DigitalTwinDaemon" rx="2.5" ry="2.5" style="stroke:#181818;stroke-width:0.5;" width="199" x="1018" y="147.23"/><ellipse cx="1053.7" cy="163.23" fill="#ADD1B2" rx="11" ry="11" style="stroke:#181818;stroke-width:1.0;"/><path d="M1055.7,159.73 Q1055.9031,159.23 1056.1375,158.98 Q1056.3719,158.73 1056.6375,158.73 Q1057.1063,158.73 1057.4031,159.0113 Q1057.7,159.2925 1057.7,159.9488 L1057.7,161.5113 Q1057.7,162.1675 1057.4188,162.4488 Q1057.1375,162.73 1056.7,162.73 Q1056.3094,162.73 1056.0594,162.5581 Q1055.8094,162.3863 1055.7,161.9331 Q1055.6531,161.6206 1055.4813,161.4488 Q1055.1688,161.1206 1054.6063,160.9331 Q1054.0438,160.73 1053.4813,160.73 Q1052.7781,160.73 1052.1844,161.0113 Q1051.6063,161.2925 1051.1531,161.9175 Q1050.7,162.5425 1050.7,163.4019 L1050.7,164.3238 Q1050.7,165.355 1051.5438,166.0425 Q1052.3875,166.73 1053.8875,166.73 Q1054.7781,166.73 1055.4031,166.5269 Q1055.7625,166.4175 1056.1688,166.0581 Q1056.4344,165.855 1056.575,165.7925 Q1056.7156,165.73 1056.8875,165.73 Q1057.2156,165.73 1057.45,165.9956 Q1057.7,166.2456 1057.7,166.605 Q1057.7,166.9488 1057.3563,167.355 Q1056.8563,167.9488 1056.0594,168.2769 Q1055.0125,168.73 1053.7313,168.73 Q1052.2313,168.73 1051.0281,168.1363 Q1050.0594,167.6675 1049.3719,166.6519 Q1048.7,165.6363 1048.7,164.4331 L1048.7,163.3394 Q1048.7,162.0894 1049.2938,160.9956 Q1049.9031,159.9019 1050.95,159.3238 Q1052.0125,158.73 1053.2,158.73 Q1053.9188,158.73 1054.5438,158.98 Q1055.1688,159.23 1055.7,159.73 Z " fill="#000000"/><text fill="#000000" font-family="sans-serif" font-size="14" lengthAdjust="spacing" textLength="121" x="1072.3" y="168.9585">DigitalTwinDaemon</text><line style="stroke:#181818;stroke-width:0.5;" x1="1019" x2="1216" y1="179.23" y2="179.23"/><line style="stroke:#181818;stroke-width:0.5;" x1="1019" x2="1216" y1="187.23" y2="187.23"/><ellipse cx="1029" cy="198.23" fill="#84BE84" rx="3" ry="3" style="stroke:#038048;stroke-width:1.0;"/><text fill="#000000" font-family="sans-serif" font-size="14" lengthAdjust="spacing" textLength="40" x="1038" y="205.7632">main()</text><rect fill="#F24D5C" height="6" style="stroke:#C82930;stroke-width:1.0;" width="6" x="1026" y="212.8394"/><text fill="#000000" font-family="sans-serif" font-size="14" lengthAdjust="spacing" textLength="173" x="1038" y="223.3726">buildServerDependencies()</text></g><!--MD5=[d63cfdc3a5497c08e0eb259a940688e5]
class DigitalTwinProtocolServer--><g id="elem_DigitalTwinProtocolServer"><rect codeLine="15" fill="#F1F1F1" height="100.8281" id="DigitalTwinProtocolServer" rx="2.5" ry="2.5" style="stroke:#181818;stroke-width:0.5;" width="194" x="1252.5" y="138.23"/><ellipse cx="1267.5" cy="154.23" fill="#ADD1B2" rx="11" ry="11" style="stroke:#181818;stroke-width:1.0;"/><path d="M1269.5,150.73 Q1269.7031,150.23 1269.9375,149.98 Q1270.1719,149.73 1270.4375,149.73 Q1270.9063,149.73 1271.2031,150.0113 Q1271.5,150.2925 1271.5,150.9488 L1271.5,152.5113 Q1271.5,153.1675 1271.2188,153.4488 Q1270.9375,153.73 1270.5,153.73 Q1270.1094,153.73 1269.8594,153.5581 Q1269.6094,153.3863 1269.5,152.9331 Q1269.4531,152.6206 1269.2813,152.4488 Q1268.9688,152.1206 1268.4063,151.9331 Q1267.8438,151.73 1267.2813,151.73 Q1266.5781,151.73 1265.9844,152.0113 Q1265.4063,152.2925 1264.9531,152.9175 Q1264.5,153.5425 1264.5,154.4019 L1264.5,155.3238 Q1264.5,156.355 1265.3438,157.0425 Q1266.1875,157.73 1267.6875,157.73 Q1268.5781,157.73 1269.2031,157.5269 Q1269.5625,157.4175 1269.9688,157.0581 Q1270.2344,156.855 1270.375,156.7925 Q1270.5156,156.73 1270.6875,156.73 Q1271.0156,156.73 1271.25,156.9956 Q1271.5,157.2456 1271.5,157.605 Q1271.5,157.9488 1271.1563,158.355 Q1270.6563,158.9488 1269.8594,159.2769 Q1268.8125,159.73 1267.5313,159.73 Q1266.0313,159.73 1264.8281,159.1363 Q1263.8594,158.6675 1263.1719,157.6519 Q1262.5,156.6363 1262.5,155.4331 L1262.5,154.3394 Q1262.5,153.0894 1263.0938,151.9956 Q1263.7031,150.9019 1264.75,150.3238 Q1265.8125,149.73 1267,149.73 Q1267.7188,149.73 1268.3438,149.98 Q1268.9688,150.23 1269.5,150.73 Z " fill="#000000"/><text fill="#000000" font-family="sans-serif" font-size="14" lengthAdjust="spacing" textLength="162" x="1281.5" y="159.9585">DigitalTwinProtocolServer</text><line style="stroke:#181818;stroke-width:0.5;" x1="1253.5" x2="1445.5" y1="170.23" y2="170.23"/><line style="stroke:#181818;stroke-width:0.5;" x1="1253.5" x2="1445.5" y1="178.23" y2="178.23"/><ellipse cx="1263.5" cy="189.23" fill="#84BE84" rx="3" ry="3" style="stroke:#038048;stroke-width:1.0;"/><text fill="#000000" font-family="sans-serif" font-size="14" lengthAdjust="spacing" textLength="31" x="1272.5" y="196.7632">run()</text><rect fill="#F24D5C" height="6" style="stroke:#C82930;stroke-width:1.0;" width="6" x="1260.5" y="203.8394"/><text fill="#000000" font-family="sans-serif" font-size="14" lengthAdjust="spacing" textLength="43" x="1272.5" y="214.3726">listen()</text><ellipse cx="1263.5" cy="224.4488" fill="#84BE84" rx="3" ry="3" style="stroke:#038048;stroke-width:1.0;"/><text fill="#000000" font-family="sans-serif" font-size="14" lengthAdjust="spacing" textLength="38" x="1272.5" y="231.982">start()</text></g><!--MD5=[b9f51232348f81c9e4c91fdf9d5694ba]
class RequestMessageParser--><g id="elem_RequestMessageParser"><rect codeLine="58" fill="#F1F1F1" height="259.3125" id="RequestMessageParser" rx="2.5" ry="2.5" style="stroke:#181818;stroke-width:0.5;" width="305" x="1763" y="59.23"/><ellipse cx="1835.25" cy="75.23" fill="#ADD1B2" rx="11" ry="11" style="stroke:#181818;stroke-width:1.0;"/><path d="M1837.25,71.73 Q1837.4531,71.23 1837.6875,70.98 Q1837.9219,70.73 1838.1875,70.73 Q1838.6563,70.73 1838.9531,71.0113 Q1839.25,71.2925 1839.25,71.9488 L1839.25,73.5113 Q1839.25,74.1675 1838.9688,74.4488 Q1838.6875,74.73 1838.25,74.73 Q1837.8594,74.73 1837.6094,74.5581 Q1837.3594,74.3863 1837.25,73.9331 Q1837.2031,73.6206 1837.0313,73.4488 Q1836.7188,73.1206 1836.1563,72.9331 Q1835.5938,72.73 1835.0313,72.73 Q1834.3281,72.73 1833.7344,73.0113 Q1833.1563,73.2925 1832.7031,73.9175 Q1832.25,74.5425 1832.25,75.4019 L1832.25,76.3238 Q1832.25,77.355 1833.0938,78.0425 Q1833.9375,78.73 1835.4375,78.73 Q1836.3281,78.73 1836.9531,78.5269 Q1837.3125,78.4175 1837.7188,78.0581 Q1837.9844,77.855 1838.125,77.7925 Q1838.2656,77.73 1838.4375,77.73 Q1838.7656,77.73 1839,77.9956 Q1839.25,78.2456 1839.25,78.605 Q1839.25,78.9488 1838.9063,79.355 Q1838.4063,79.9488 1837.6094,80.2769 Q1836.5625,80.73 1835.2813,80.73 Q1833.7813,80.73 1832.5781,80.1363 Q1831.6094,79.6675 1830.9219,78.6519 Q1830.25,77.6363 1830.25,76.4331 L1830.25,75.3394 Q1830.25,74.0894 1830.8438,72.9956 Q1831.4531,71.9019 1832.5,71.3238 Q1833.5625,70.73 1834.75,70.73 Q1835.4688,70.73 1836.0938,70.98 Q1836.7188,71.23 1837.25,71.73 Z " fill="#000000"/><text fill="#000000" font-family="sans-serif" font-size="14" lengthAdjust="spacing" textLength="152" x="1855.75" y="80.9585">RequestMessageParser</text><line style="stroke:#181818;stroke-width:0.5;" x1="1764" x2="2067" y1="91.23" y2="91.23"/><line style="stroke:#181818;stroke-width:0.5;" x1="1764" x2="2067" y1="99.23" y2="99.23"/><rect fill="#F24D5C" height="6" style="stroke:#C82930;stroke-width:1.0;" width="6" x="1771" y="107.23"/><text fill="#000000" font-family="sans-serif" font-size="14" lengthAdjust="spacing" textLength="148" x="1783" y="117.7632">getManagerController()</text><rect fill="#F24D5C" height="6" style="stroke:#C82930;stroke-width:1.0;" width="6" x="1771" y="124.8394"/><text fill="#000000" font-family="sans-serif" font-size="14" lengthAdjust="spacing" textLength="162" x="1783" y="135.3726">getDashboardController()</text><ellipse cx="1774" cy="145.4488" fill="#84BE84" rx="3" ry="3" style="stroke:#038048;stroke-width:1.0;"/><text fill="#000000" font-family="sans-serif" font-size="14" lengthAdjust="spacing" textLength="46" x="1783" y="152.982">parse()</text><rect fill="#F24D5C" height="6" style="stroke:#C82930;stroke-width:1.0;" width="6" x="1771" y="160.0581"/><text fill="#000000" font-family="sans-serif" font-size="14" lengthAdjust="spacing" textLength="133" x="1783" y="170.5913">isStringParam(string)</text><rect fill="#F24D5C" height="6" style="stroke:#C82930;stroke-width:1.0;" width="6" x="1771" y="177.6675"/><text fill="#000000" font-family="sans-serif" font-size="14" lengthAdjust="spacing" textLength="239" x="1783" y="188.2007">callTaskAssignment(inputLine,tokens)</text><rect fill="#F24D5C" height="6" style="stroke:#C82930;stroke-width:1.0;" width="6" x="1771" y="195.2769"/><text fill="#000000" font-family="sans-serif" font-size="14" lengthAdjust="spacing" textLength="279" x="1783" y="205.8101">parseGetAGVInformations(inputLine,tokens)</text><rect fill="#F24D5C" height="6" style="stroke:#C82930;stroke-width:1.0;" width="6" x="1771" y="212.8863"/><text fill="#000000" font-family="sans-serif" font-size="14" lengthAdjust="spacing" textLength="148" x="1783" y="223.4195">getManagerController()</text><rect fill="#F24D5C" height="6" style="stroke:#C82930;stroke-width:1.0;" width="6" x="1771" y="230.4956"/><text fill="#000000" font-family="sans-serif" font-size="14" lengthAdjust="spacing" textLength="162" x="1783" y="241.0288">getDashboardController()</text><ellipse cx="1774" cy="251.105" fill="#84BE84" rx="3" ry="3" style="stroke:#038048;stroke-width:1.0;"/><text fill="#000000" font-family="sans-serif" font-size="14" lengthAdjust="spacing" textLength="46" x="1783" y="258.6382">parse()</text><rect fill="#F24D5C" height="6" style="stroke:#C82930;stroke-width:1.0;" width="6" x="1771" y="265.7144"/><text fill="#000000" font-family="sans-serif" font-size="14" lengthAdjust="spacing" textLength="133" x="1783" y="276.2476">isStringParam(string)</text><rect fill="#F24D5C" height="6" style="stroke:#C82930;stroke-width:1.0;" width="6" x="1771" y="283.3238"/><text fill="#000000" font-family="sans-serif" font-size="14" lengthAdjust="spacing" textLength="239" x="1783" y="293.857">callTaskAssignment(inputLine,tokens)</text><rect fill="#F24D5C" height="6" style="stroke:#C82930;stroke-width:1.0;" width="6" x="1771" y="300.9331"/><text fill="#000000" font-family="sans-serif" font-size="14" lengthAdjust="spacing" textLength="279" x="1783" y="311.4663">parseGetAGVInformations(inputLine,tokens)</text></g><!--MD5=[678a8e944fac7df141ce29c11ac6ca20]
class DigitalTwinProtocolRequest--><g id="elem_DigitalTwinProtocolRequest"><rect codeLine="30" fill="#F1F1F1" height="136.0469" id="DigitalTwinProtocolRequest" rx="2.5" ry="2.5" style="stroke:#181818;stroke-width:0.5;" width="246" x="1481.5" y="120.73"/><ellipse cx="1514.95" cy="136.73" fill="#ADD1B2" rx="11" ry="11" style="stroke:#181818;stroke-width:1.0;"/><path d="M1516.95,133.23 Q1517.1531,132.73 1517.3875,132.48 Q1517.6219,132.23 1517.8875,132.23 Q1518.3563,132.23 1518.6531,132.5113 Q1518.95,132.7925 1518.95,133.4488 L1518.95,135.0113 Q1518.95,135.6675 1518.6688,135.9488 Q1518.3875,136.23 1517.95,136.23 Q1517.5594,136.23 1517.3094,136.0581 Q1517.0594,135.8863 1516.95,135.4331 Q1516.9031,135.1206 1516.7313,134.9488 Q1516.4188,134.6206 1515.8563,134.4331 Q1515.2938,134.23 1514.7313,134.23 Q1514.0281,134.23 1513.4344,134.5113 Q1512.8563,134.7925 1512.4031,135.4175 Q1511.95,136.0425 1511.95,136.9019 L1511.95,137.8238 Q1511.95,138.855 1512.7938,139.5425 Q1513.6375,140.23 1515.1375,140.23 Q1516.0281,140.23 1516.6531,140.0269 Q1517.0125,139.9175 1517.4188,139.5581 Q1517.6844,139.355 1517.825,139.2925 Q1517.9656,139.23 1518.1375,139.23 Q1518.4656,139.23 1518.7,139.4956 Q1518.95,139.7456 1518.95,140.105 Q1518.95,140.4488 1518.6063,140.855 Q1518.1063,141.4488 1517.3094,141.7769 Q1516.2625,142.23 1514.9813,142.23 Q1513.4813,142.23 1512.2781,141.6363 Q1511.3094,141.1675 1510.6219,140.1519 Q1509.95,139.1363 1509.95,137.9331 L1509.95,136.8394 Q1509.95,135.5894 1510.5438,134.4956 Q1511.1531,133.4019 1512.2,132.8238 Q1513.2625,132.23 1514.45,132.23 Q1515.1688,132.23 1515.7938,132.48 Q1516.4188,132.73 1516.95,133.23 Z " fill="#000000"/><text fill="#000000" font-family="sans-serif" font-size="14" lengthAdjust="spacing" textLength="173" x="1533.05" y="142.4585">DigitalTwinProtocolRequest</text><line style="stroke:#181818;stroke-width:0.5;" x1="1482.5" x2="1726.5" y1="152.73" y2="152.73"/><rect fill="none" height="6" style="stroke:#C82930;stroke-width:1.0;" width="6" x="1489.5" y="160.73"/><text fill="#000000" font-family="sans-serif" font-size="14" lengthAdjust="spacing" textLength="48" x="1501.5" y="171.2632">request</text><line style="stroke:#181818;stroke-width:1.0;" x1="1482.5" x2="1726.5" y1="178.3394" y2="178.3394"/><ellipse cx="1492.5" cy="189.3394" fill="#84BE84" rx="3" ry="3" style="stroke:#038048;stroke-width:1.0;"/><text fill="#000000" font-family="sans-serif" font-size="14" lengthAdjust="spacing" textLength="59" x="1501.5" y="196.8726">execute()</text><ellipse cx="1492.5" cy="206.9488" fill="#84BE84" rx="3" ry="3" style="stroke:#038048;stroke-width:1.0;"/><text fill="#000000" font-family="sans-serif" font-size="14" lengthAdjust="spacing" textLength="78" x="1501.5" y="214.482">isGoodbye()</text><polygon fill="#FFFF44" points="1492.5,219.5581,1496.5,223.5581,1492.5,227.5581,1488.5,223.5581" style="stroke:#B38D22;stroke-width:1.0;"/><text fill="#000000" font-family="sans-serif" font-size="14" lengthAdjust="spacing" textLength="216" x="1501.5" y="232.0913">buildServerError(errorDescription)</text><polygon fill="#FFFF44" points="1492.5,237.1675,1496.5,241.1675,1492.5,245.1675,1488.5,241.1675" style="stroke:#B38D22;stroke-width:1.0;"/><text fill="#000000" font-family="sans-serif" font-size="14" lengthAdjust="spacing" textLength="220" x="1501.5" y="249.7007">buildBadRequest(errorDescription)</text></g><!--MD5=[5e2ba255b454ea005334096c2d3ec5bb]
class AGVManagerDaemon--><g id="elem_AGVManagerDaemon"><rect codeLine="47" fill="#F1F1F1" height="83.2188" id="AGVManagerDaemon" rx="2.5" ry="2.5" style="stroke:#181818;stroke-width:0.5;" width="199" x="261" y="147.23"/><ellipse cx="289.05" cy="163.23" fill="#ADD1B2" rx="11" ry="11" style="stroke:#181818;stroke-width:1.0;"/><path d="M291.05,159.73 Q291.2531,159.23 291.4875,158.98 Q291.7219,158.73 291.9875,158.73 Q292.4563,158.73 292.7531,159.0113 Q293.05,159.2925 293.05,159.9488 L293.05,161.5113 Q293.05,162.1675 292.7688,162.4488 Q292.4875,162.73 292.05,162.73 Q291.6594,162.73 291.4094,162.5581 Q291.1594,162.3863 291.05,161.9331 Q291.0031,161.6206 290.8313,161.4488 Q290.5188,161.1206 289.9563,160.9331 Q289.3938,160.73 288.8313,160.73 Q288.1281,160.73 287.5344,161.0113 Q286.9563,161.2925 286.5031,161.9175 Q286.05,162.5425 286.05,163.4019 L286.05,164.3238 Q286.05,165.355 286.8938,166.0425 Q287.7375,166.73 289.2375,166.73 Q290.1281,166.73 290.7531,166.5269 Q291.1125,166.4175 291.5188,166.0581 Q291.7844,165.855 291.925,165.7925 Q292.0656,165.73 292.2375,165.73 Q292.5656,165.73 292.8,165.9956 Q293.05,166.2456 293.05,166.605 Q293.05,166.9488 292.7063,167.355 Q292.2063,167.9488 291.4094,168.2769 Q290.3625,168.73 289.0813,168.73 Q287.5813,168.73 286.3781,168.1363 Q285.4094,167.6675 284.7219,166.6519 Q284.05,165.6363 284.05,164.4331 L284.05,163.3394 Q284.05,162.0894 284.6438,160.9956 Q285.2531,159.9019 286.3,159.3238 Q287.3625,158.73 288.55,158.73 Q289.2688,158.73 289.8938,158.98 Q290.5188,159.23 291.05,159.73 Z " fill="#000000"/><text fill="#000000" font-family="sans-serif" font-size="14" lengthAdjust="spacing" textLength="138" x="305.95" y="168.9585">AGVManagerDaemon</text><line style="stroke:#181818;stroke-width:0.5;" x1="262" x2="459" y1="179.23" y2="179.23"/><line style="stroke:#181818;stroke-width:0.5;" x1="262" x2="459" y1="187.23" y2="187.23"/><ellipse cx="272" cy="198.23" fill="#84BE84" rx="3" ry="3" style="stroke:#038048;stroke-width:1.0;"/><text fill="#000000" font-family="sans-serif" font-size="14" lengthAdjust="spacing" textLength="40" x="281" y="205.7632">main()</text><rect fill="#F24D5C" height="6" style="stroke:#C82930;stroke-width:1.0;" width="6" x="269" y="212.8394"/><text fill="#000000" font-family="sans-serif" font-size="14" lengthAdjust="spacing" textLength="173" x="281" y="223.3726">buildServerDependencies()</text></g><!--MD5=[2d463a13cfa19479784591d1c27391cb]
class AgvManagerProtocolServer--><g id="elem_AgvManagerProtocolServer"><rect codeLine="52" fill="#F1F1F1" height="100.8281" id="AgvManagerProtocolServer" rx="2.5" ry="2.5" style="stroke:#181818;stroke-width:0.5;" width="206" x="495.5" y="138.23"/><ellipse cx="510.5" cy="154.23" fill="#ADD1B2" rx="11" ry="11" style="stroke:#181818;stroke-width:1.0;"/><path d="M512.5,150.73 Q512.7031,150.23 512.9375,149.98 Q513.1719,149.73 513.4375,149.73 Q513.9063,149.73 514.2031,150.0113 Q514.5,150.2925 514.5,150.9488 L514.5,152.5113 Q514.5,153.1675 514.2188,153.4488 Q513.9375,153.73 513.5,153.73 Q513.1094,153.73 512.8594,153.5581 Q512.6094,153.3863 512.5,152.9331 Q512.4531,152.6206 512.2813,152.4488 Q511.9688,152.1206 511.4063,151.9331 Q510.8438,151.73 510.2813,151.73 Q509.5781,151.73 508.9844,152.0113 Q508.4063,152.2925 507.9531,152.9175 Q507.5,153.5425 507.5,154.4019 L507.5,155.3238 Q507.5,156.355 508.3438,157.0425 Q509.1875,157.73 510.6875,157.73 Q511.5781,157.73 512.2031,157.5269 Q512.5625,157.4175 512.9688,157.0581 Q513.2344,156.855 513.375,156.7925 Q513.5156,156.73 513.6875,156.73 Q514.0156,156.73 514.25,156.9956 Q514.5,157.2456 514.5,157.605 Q514.5,157.9488 514.1563,158.355 Q513.6563,158.9488 512.8594,159.2769 Q511.8125,159.73 510.5313,159.73 Q509.0313,159.73 507.8281,159.1363 Q506.8594,158.6675 506.1719,157.6519 Q505.5,156.6363 505.5,155.4331 L505.5,154.3394 Q505.5,153.0894 506.0938,151.9956 Q506.7031,150.9019 507.75,150.3238 Q508.8125,149.73 510,149.73 Q510.7188,149.73 511.3438,149.98 Q511.9688,150.23 512.5,150.73 Z " fill="#000000"/><text fill="#000000" font-family="sans-serif" font-size="14" lengthAdjust="spacing" textLength="174" x="524.5" y="159.9585">AgvManagerProtocolServer</text><line style="stroke:#181818;stroke-width:0.5;" x1="496.5" x2="700.5" y1="170.23" y2="170.23"/><line style="stroke:#181818;stroke-width:0.5;" x1="496.5" x2="700.5" y1="178.23" y2="178.23"/><ellipse cx="506.5" cy="189.23" fill="#84BE84" rx="3" ry="3" style="stroke:#038048;stroke-width:1.0;"/><text fill="#000000" font-family="sans-serif" font-size="14" lengthAdjust="spacing" textLength="31" x="515.5" y="196.7632">run()</text><rect fill="#F24D5C" height="6" style="stroke:#C82930;stroke-width:1.0;" width="6" x="503.5" y="203.8394"/><text fill="#000000" font-family="sans-serif" font-size="14" lengthAdjust="spacing" textLength="43" x="515.5" y="214.3726">listen()</text><ellipse cx="506.5" cy="224.4488" fill="#84BE84" rx="3" ry="3" style="stroke:#038048;stroke-width:1.0;"/><text fill="#000000" font-family="sans-serif" font-size="14" lengthAdjust="spacing" textLength="38" x="515.5" y="231.982">start()</text></g><!--MD5=[9403b17ae1be48d89489773b620f43af]
class AGVManagerProtocolRequest--><g id="elem_AGVManagerProtocolRequest"><rect codeLine="67" fill="#F1F1F1" height="136.0469" id="AGVManagerProtocolRequest" rx="2.5" ry="2.5" style="stroke:#181818;stroke-width:0.5;" width="246" x="736.5" y="120.73"/><ellipse cx="762.3" cy="136.73" fill="#ADD1B2" rx="11" ry="11" style="stroke:#181818;stroke-width:1.0;"/><path d="M764.3,133.23 Q764.5031,132.73 764.7375,132.48 Q764.9719,132.23 765.2375,132.23 Q765.7063,132.23 766.0031,132.5113 Q766.3,132.7925 766.3,133.4488 L766.3,135.0113 Q766.3,135.6675 766.0188,135.9488 Q765.7375,136.23 765.3,136.23 Q764.9094,136.23 764.6594,136.0581 Q764.4094,135.8863 764.3,135.4331 Q764.2531,135.1206 764.0813,134.9488 Q763.7688,134.6206 763.2063,134.4331 Q762.6438,134.23 762.0813,134.23 Q761.3781,134.23 760.7844,134.5113 Q760.2063,134.7925 759.7531,135.4175 Q759.3,136.0425 759.3,136.9019 L759.3,137.8238 Q759.3,138.855 760.1438,139.5425 Q760.9875,140.23 762.4875,140.23 Q763.3781,140.23 764.0031,140.0269 Q764.3625,139.9175 764.7688,139.5581 Q765.0344,139.355 765.175,139.2925 Q765.3156,139.23 765.4875,139.23 Q765.8156,139.23 766.05,139.4956 Q766.3,139.7456 766.3,140.105 Q766.3,140.4488 765.9563,140.855 Q765.4563,141.4488 764.6594,141.7769 Q763.6125,142.23 762.3313,142.23 Q760.8313,142.23 759.6281,141.6363 Q758.6594,141.1675 757.9719,140.1519 Q757.3,139.1363 757.3,137.9331 L757.3,136.8394 Q757.3,135.5894 757.8938,134.4956 Q758.5031,133.4019 759.55,132.8238 Q760.6125,132.23 761.8,132.23 Q762.5188,132.23 763.1438,132.48 Q763.7688,132.73 764.3,133.23 Z " fill="#000000"/><text fill="#000000" font-family="sans-serif" font-size="14" lengthAdjust="spacing" textLength="190" x="778.7" y="142.4585">AGVManagerProtocolRequest</text><line style="stroke:#181818;stroke-width:0.5;" x1="737.5" x2="981.5" y1="152.73" y2="152.73"/><rect fill="none" height="6" style="stroke:#C82930;stroke-width:1.0;" width="6" x="744.5" y="160.73"/><text fill="#000000" font-family="sans-serif" font-size="14" lengthAdjust="spacing" textLength="48" x="756.5" y="171.2632">request</text><line style="stroke:#181818;stroke-width:1.0;" x1="737.5" x2="981.5" y1="178.3394" y2="178.3394"/><ellipse cx="747.5" cy="189.3394" fill="#84BE84" rx="3" ry="3" style="stroke:#038048;stroke-width:1.0;"/><text fill="#000000" font-family="sans-serif" font-size="14" lengthAdjust="spacing" textLength="59" x="756.5" y="196.8726">execute()</text><ellipse cx="747.5" cy="206.9488" fill="#84BE84" rx="3" ry="3" style="stroke:#038048;stroke-width:1.0;"/><text fill="#000000" font-family="sans-serif" font-size="14" lengthAdjust="spacing" textLength="78" x="756.5" y="214.482">isGoodbye()</text><polygon fill="#FFFF44" points="747.5,219.5581,751.5,223.5581,747.5,227.5581,743.5,223.5581" style="stroke:#B38D22;stroke-width:1.0;"/><text fill="#000000" font-family="sans-serif" font-size="14" lengthAdjust="spacing" textLength="216" x="756.5" y="232.0913">buildServerError(errorDescription)</text><polygon fill="#FFFF44" points="747.5,237.1675,751.5,241.1675,747.5,245.1675,743.5,241.1675" style="stroke:#B38D22;stroke-width:1.0;"/><text fill="#000000" font-family="sans-serif" font-size="14" lengthAdjust="spacing" textLength="220" x="756.5" y="249.7007">buildBadRequest(errorDescription)</text></g><!--MD5=[3f9e00ef6a722261faca67971571de99]
link DigitalTwinDaemon to DigitalTwinProtocolServer--><g id="link_DigitalTwinDaemon_DigitalTwinProtocolServer"><path codeLine="39" d="M1217.19,188.73 C1227.16,188.73 1237.14,188.73 1247.12,188.73 " fill="none" id="DigitalTwinDaemon-to-DigitalTwinProtocolServer" style="stroke:#181818;stroke-width:1.0;"/><polygon fill="#181818" points="1252.33,188.73,1243.33,184.73,1247.33,188.73,1243.33,192.73,1252.33,188.73" style="stroke:#181818;stroke-width:1.0;"/></g><!--MD5=[a870320f18a2ed54274a517b9b5a4854]
link DigitalTwinProtocolServer to RequestMessageParser--><g id="link_DigitalTwinProtocolServer_RequestMessageParser"><path codeLine="40" d="M1375.51,138.06 C1398.01,100.3 1434.42,51.56 1482,29.23 C1531.49,6 1676.69,10.36 1728,29.23 C1746.3,35.96 1764.04,45.36 1780.83,56.26 " fill="none" id="DigitalTwinProtocolServer-to-RequestMessageParser" style="stroke:#181818;stroke-width:1.0;"/><polygon fill="#181818" points="1785.08,59.07,1779.7774,50.7704,1780.9088,56.313,1775.3662,57.4444,1785.08,59.07" style="stroke:#181818;stroke-width:1.0;"/></g><!--MD5=[10fb52e06182b06dd4d1fc24bfc98493]
link DigitalTwinProtocolServer to DigitalTwinProtocolRequest--><g id="link_DigitalTwinProtocolServer_DigitalTwinProtocolRequest"><path codeLine="41" d="M1446.62,188.73 C1456.51,188.73 1466.4,188.73 1476.29,188.73 " fill="none" id="DigitalTwinProtocolServer-to-DigitalTwinProtocolRequest" style="stroke:#181818;stroke-width:1.0;"/><polygon fill="#181818" points="1481.46,188.73,1472.46,184.73,1476.46,188.73,1472.46,192.73,1481.46,188.73" style="stroke:#181818;stroke-width:1.0;"/></g><!--MD5=[148d260cd2a69fc992174be4e21e36e2]
link CallAGVManagerController to AGVManagerDaemon--><g id="link_CallAGVManagerController_AGVManagerDaemon"><path codeLine="43" d="M226.11,188.73 C235.94,188.73 245.78,188.73 255.61,188.73 " fill="none" id="CallAGVManagerController-to-AGVManagerDaemon" style="stroke:#181818;stroke-width:1.0;"/><polygon fill="#181818" points="260.76,188.73,251.76,184.73,255.76,188.73,251.76,192.73,260.76,188.73" style="stroke:#181818;stroke-width:1.0;"/></g><!--MD5=[9bcb46cc080191af0a564212756d206d]
link AGVManagerDaemon to DigitalTwinDaemon--><g id="link_AGVManagerDaemon_DigitalTwinDaemon"><path codeLine="45" d="M381.96,147.1 C404.49,108.44 443.9,53.33 496,29.23 C545.11,6.51 933.93,6.42 983,29.23 C1032.87,52.41 1070.9,104.2 1093.59,142.51 " fill="none" id="AGVManagerDaemon-to-DigitalTwinDaemon" style="stroke:#181818;stroke-width:1.0;"/><polygon fill="#181818" points="1096.28,147.11,1095.1801,137.3227,1093.7518,142.7963,1088.2782,141.3679,1096.28,147.11" style="stroke:#181818;stroke-width:1.0;"/></g><!--MD5=[85b182c4fe73480b2afb9b5b8861285b]
link AGVManagerDaemon to AgvManagerProtocolServer--><g id="link_AGVManagerDaemon_AgvManagerProtocolServer"><path codeLine="76" d="M460.44,188.73 C470.39,188.73 480.34,188.73 490.29,188.73 " fill="none" id="AGVManagerDaemon-to-AgvManagerProtocolServer" style="stroke:#181818;stroke-width:1.0;"/><polygon fill="#181818" points="495.5,188.73,486.5,184.73,490.5,188.73,486.5,192.73,495.5,188.73" style="stroke:#181818;stroke-width:1.0;"/></g><!--MD5=[e6063193325a9f19908562007b628bbd]
link AgvManagerProtocolServer to RequestMessageParser--><g id="link_AgvManagerProtocolServer_RequestMessageParser"><path codeLine="77" d="M626.26,138 C650.09,100.2 688.28,51.45 737,29.23 C787.09,6.39 1676.33,10.23 1728,29.23 C1746.3,35.96 1764.04,45.36 1780.83,56.26 " fill="none" id="AgvManagerProtocolServer-to-RequestMessageParser" style="stroke:#181818;stroke-width:1.0;"/><polygon fill="#181818" points="1785.08,59.07,1779.7774,50.7704,1780.9088,56.313,1775.3662,57.4444,1785.08,59.07" style="stroke:#181818;stroke-width:1.0;"/></g><!--MD5=[1deb6b158d00576b94cff6d6aa54f131]
link AgvManagerProtocolServer to AGVManagerProtocolRequest--><g id="link_AgvManagerProtocolServer_AGVManagerProtocolRequest"><path codeLine="78" d="M701.73,188.73 C711.52,188.73 721.32,188.73 731.12,188.73 " fill="none" id="AgvManagerProtocolServer-to-AGVManagerProtocolRequest" style="stroke:#181818;stroke-width:1.0;"/><polygon fill="#181818" points="736.24,188.73,727.24,184.73,731.24,188.73,727.24,192.73,736.24,188.73" style="stroke:#181818;stroke-width:1.0;"/></g><!--MD5=[ce0efc03dec17ca518cfa6c5924abc3f]
@startuml

class CallAGVManagerController {
+create()
+connectDaemon(address,port)
+callFIFO()
+getAGVInfo()
+closeConnection()
}

class DigitalTwinDaemon {
+main()
-buildServerDependencies()
}

class DigitalTwinProtocolServer {
+run()
-listen()
+start()
}

class RequestMessageParser {
-getManagerController()
-getDashboardController()
+parse()
-isStringParam(string)
-callTaskAssignment(inputLine,tokens)
-parseGetAGVInformations(inputLine,tokens)
}

class DigitalTwinProtocolRequest {
-request
- - -
+execute()
+isGoodbye()
#buildServerError(errorDescription)
#buildBadRequest(errorDescription)
}

DigitalTwinDaemon -> DigitalTwinProtocolServer
DigitalTwinProtocolServer -> RequestMessageParser
DigitalTwinProtocolServer -> DigitalTwinProtocolRequest

CallAGVManagerController -> AGVManagerDaemon

AGVManagerDaemon -> DigitalTwinDaemon

class AGVManagerDaemon {
+main()
-buildServerDependencies()
}

class AgvManagerProtocolServer {
+run()
-listen()
+start()
}

class RequestMessageParser {
-getManagerController()
-getDashboardController()
+parse()
-isStringParam(string)
-callTaskAssignment(inputLine,tokens)
-parseGetAGVInformations(inputLine,tokens)
}

class AGVManagerProtocolRequest {
-request
- - -
+execute()
+isGoodbye()
#buildServerError(errorDescription)
#buildBadRequest(errorDescription)
}

AGVManagerDaemon -> AgvManagerProtocolServer
AgvManagerProtocolServer -> RequestMessageParser
AgvManagerProtocolServer -> AGVManagerProtocolRequest


@enduml

PlantUML version 1.2022.5(Sat Apr 30 11:55:52 BST 2022)
(GPL source distribution)
Java Runtime: OpenJDK Runtime Environment
JVM: OpenJDK 64-Bit Server VM
Default Encoding: Cp1252
Language: pt
Country: PT
--></g></svg>