<?xml version="1.0" encoding="UTF-8" standalone="no"?><svg xmlns="http://www.w3.org/2000/svg" xmlns:xlink="http://www.w3.org/1999/xlink" contentStyleType="text/css" height="1326px" preserveAspectRatio="none" style="width:641px;height:1326px;background:#FFFFFF;" version="1.1" viewBox="0 0 641 1326" width="641px" zoomAndPan="magnify"><defs/><g><rect fill="#FFFFFF" height="39" style="stroke:#181818;stroke-width:1.0;" width="10" x="52" y="1224.25"/><rect fill="#FFFFFF" height="1166.6797" style="stroke:#181818;stroke-width:1.0;" width="10" x="176" y="87.5703"/><rect fill="#FFFFFF" height="621.5156" style="stroke:#181818;stroke-width:1.0;" width="10" x="181" y="211.625"/><rect fill="#FFFFFF" height="28" style="stroke:#181818;stroke-width:1.0;" width="10" x="186" y="401.0313"/><rect fill="#FFFFFF" height="28" style="stroke:#181818;stroke-width:1.0;" width="10" x="186" y="474.3828"/><rect fill="#FFFFFF" height="71.3516" style="stroke:#181818;stroke-width:1.0;" width="10" x="186" y="547.7344"/><rect fill="#FFFFFF" height="28" style="stroke:#181818;stroke-width:1.0;" width="10" x="191" y="591.0859"/><rect fill="#FFFFFF" height="28" style="stroke:#181818;stroke-width:1.0;" width="10" x="186" y="664.4375"/><rect fill="#FFFFFF" height="28" style="stroke:#181818;stroke-width:1.0;" width="10" x="186" y="737.7891"/><rect fill="#FFFFFF" height="28" style="stroke:#181818;stroke-width:1.0;" width="10" x="181" y="878.4922"/><rect fill="#FFFFFF" height="28" style="stroke:#181818;stroke-width:1.0;" width="10" x="181" y="951.8438"/><rect fill="#FFFFFF" height="28" style="stroke:#181818;stroke-width:1.0;" width="10" x="181" y="1025.1953"/><rect fill="#FFFFFF" height="28" style="stroke:#181818;stroke-width:1.0;" width="10" x="181" y="1098.5469"/><rect fill="#FFFFFF" height="30" style="stroke:#181818;stroke-width:1.0;" width="10" x="342" y="117.9219"/><rect fill="#FFFFFF" height="30" style="stroke:#181818;stroke-width:1.0;" width="10" x="342" y="1163.8984"/><rect fill="#FFFFFF" height="30" style="stroke:#181818;stroke-width:1.0;" width="10" x="544" y="246.9766"/><rect fill="#FFFFFF" height="30" style="stroke:#181818;stroke-width:1.0;" width="10" x="544" y="307.3281"/><rect fill="#FFFFFF" height="30" style="stroke:#181818;stroke-width:1.0;" width="10" x="544" y="803.1406"/><rect height="488.8125" style="stroke:#000000;stroke-width:1.5;fill:none;" width="525.5" x="109.5" y="352.3281"/><line style="stroke:#181818;stroke-width:0.5;fill:none;stroke-dasharray:5.0,5.0;" x1="57" x2="57" y1="55.2188" y2="1272.25"/><line style="stroke:#181818;stroke-width:0.5;fill:none;stroke-dasharray:5.0,5.0;" x1="180.5" x2="180.5" y1="55.2188" y2="1272.25"/><line style="stroke:#181818;stroke-width:0.5;fill:none;stroke-dasharray:5.0,5.0;" x1="347" x2="347" y1="55.2188" y2="1272.25"/><line style="stroke:#181818;stroke-width:0.5;fill:none;stroke-dasharray:5.0,5.0;" x1="549" x2="549" y1="55.2188" y2="1272.25"/><rect fill="#E2E2F0" height="31.6094" rx="2.5" ry="2.5" style="stroke:#181818;stroke-width:0.5;" width="74" x="20" y="22.6094"/><text fill="#000000" font-family="sans-serif" font-size="14" lengthAdjust="spacing" textLength="60" x="27" y="44.1426">csThread</text><rect fill="#E2E2F0" height="31.6094" rx="2.5" ry="2.5" style="stroke:#181818;stroke-width:0.5;" width="74" x="20" y="1271.25"/><text fill="#000000" font-family="sans-serif" font-size="14" lengthAdjust="spacing" textLength="60" x="27" y="1292.7832">csThread</text><rect fill="#E2E2F0" height="31.6094" rx="2.5" ry="2.5" style="stroke:#181818;stroke-width:0.5;" width="123" x="119.5" y="22.6094"/><text fill="#000000" font-family="sans-serif" font-size="14" lengthAdjust="spacing" textLength="109" x="126.5" y="44.1426">MoveAGVThread</text><rect fill="#E2E2F0" height="31.6094" rx="2.5" ry="2.5" style="stroke:#181818;stroke-width:0.5;" width="123" x="119.5" y="1271.25"/><text fill="#000000" font-family="sans-serif" font-size="14" lengthAdjust="spacing" textLength="109" x="126.5" y="1292.7832">MoveAGVThread</text><rect fill="#E2E2F0" height="49.2188" rx="2.5" ry="2.5" style="stroke:#181818;stroke-width:0.5;" width="76" x="309" y="5"/><text fill="#000000" font-family="sans-serif" font-size="14" font-style="italic" lengthAdjust="spacing" textLength="62" x="316" y="26.5332">«domain»</text><text fill="#000000" font-family="sans-serif" font-size="14" lengthAdjust="spacing" textLength="29" x="332.5" y="44.1426">AGV</text><rect fill="#E2E2F0" height="49.2188" rx="2.5" ry="2.5" style="stroke:#181818;stroke-width:0.5;" width="76" x="309" y="1271.25"/><text fill="#000000" font-family="sans-serif" font-size="14" font-style="italic" lengthAdjust="spacing" textLength="62" x="316" y="1292.7832">«domain»</text><text fill="#000000" font-family="sans-serif" font-size="14" lengthAdjust="spacing" textLength="29" x="332.5" y="1310.3926">AGV</text><rect fill="#E2E2F0" height="31.6094" rx="2.5" ry="2.5" style="stroke:#181818;stroke-width:0.5;" width="152" x="473" y="22.6094"/><text fill="#000000" font-family="sans-serif" font-size="14" lengthAdjust="spacing" textLength="138" x="480" y="44.1426">WarehouseMovement</text><rect fill="#E2E2F0" height="31.6094" rx="2.5" ry="2.5" style="stroke:#181818;stroke-width:0.5;" width="152" x="473" y="1271.25"/><text fill="#000000" font-family="sans-serif" font-size="14" lengthAdjust="spacing" textLength="138" x="480" y="1292.7832">WarehouseMovement</text><rect fill="#FFFFFF" height="39" style="stroke:#181818;stroke-width:1.0;" width="10" x="52" y="1224.25"/><rect fill="#FFFFFF" height="1166.6797" style="stroke:#181818;stroke-width:1.0;" width="10" x="176" y="87.5703"/><rect fill="#FFFFFF" height="621.5156" style="stroke:#181818;stroke-width:1.0;" width="10" x="181" y="211.625"/><rect fill="#FFFFFF" height="28" style="stroke:#181818;stroke-width:1.0;" width="10" x="186" y="401.0313"/><rect fill="#FFFFFF" height="28" style="stroke:#181818;stroke-width:1.0;" width="10" x="186" y="474.3828"/><rect fill="#FFFFFF" height="71.3516" style="stroke:#181818;stroke-width:1.0;" width="10" x="186" y="547.7344"/><rect fill="#FFFFFF" height="28" style="stroke:#181818;stroke-width:1.0;" width="10" x="191" y="591.0859"/><rect fill="#FFFFFF" height="28" style="stroke:#181818;stroke-width:1.0;" width="10" x="186" y="664.4375"/><rect fill="#FFFFFF" height="28" style="stroke:#181818;stroke-width:1.0;" width="10" x="186" y="737.7891"/><rect fill="#FFFFFF" height="28" style="stroke:#181818;stroke-width:1.0;" width="10" x="181" y="878.4922"/><rect fill="#FFFFFF" height="28" style="stroke:#181818;stroke-width:1.0;" width="10" x="181" y="951.8438"/><rect fill="#FFFFFF" height="28" style="stroke:#181818;stroke-width:1.0;" width="10" x="181" y="1025.1953"/><rect fill="#FFFFFF" height="28" style="stroke:#181818;stroke-width:1.0;" width="10" x="181" y="1098.5469"/><rect fill="#FFFFFF" height="30" style="stroke:#181818;stroke-width:1.0;" width="10" x="342" y="117.9219"/><rect fill="#FFFFFF" height="30" style="stroke:#181818;stroke-width:1.0;" width="10" x="342" y="1163.8984"/><rect fill="#FFFFFF" height="30" style="stroke:#181818;stroke-width:1.0;" width="10" x="544" y="246.9766"/><rect fill="#FFFFFF" height="30" style="stroke:#181818;stroke-width:1.0;" width="10" x="544" y="307.3281"/><rect fill="#FFFFFF" height="30" style="stroke:#181818;stroke-width:1.0;" width="10" x="544" y="803.1406"/><polygon fill="#181818" points="164,83.5703,174,87.5703,164,91.5703,168,87.5703" style="stroke:#181818;stroke-width:1.0;"/><line style="stroke:#181818;stroke-width:1.0;" x1="57" x2="170" y1="87.5703" y2="87.5703"/><text fill="#000000" font-family="sans-serif" font-size="13" font-weight="bold" lengthAdjust="spacing" textLength="7" x="64" y="82.7139">1</text><text fill="#000000" font-family="sans-serif" font-size="13" lengthAdjust="spacing" textLength="4" x="75" y="82.7139"> </text><polygon fill="#181818" points="330,113.9219,340,117.9219,330,121.9219,334,117.9219" style="stroke:#181818;stroke-width:1.0;"/><line style="stroke:#181818;stroke-width:1.0;" x1="186" x2="336" y1="117.9219" y2="117.9219"/><text fill="#000000" font-family="sans-serif" font-size="13" font-weight="bold" lengthAdjust="spacing" textLength="7" x="193" y="113.0654">2</text><text fill="#000000" font-family="sans-serif" font-size="13" lengthAdjust="spacing" textLength="100" x="204" y="113.0654">activateSensors()</text><line style="stroke:#181818;stroke-width:1.0;" x1="186" x2="233" y1="198.625" y2="198.625"/><line style="stroke:#181818;stroke-width:1.0;" x1="233" x2="233" y1="198.625" y2="211.625"/><line style="stroke:#181818;stroke-width:1.0;" x1="192" x2="233" y1="211.625" y2="211.625"/><polygon fill="#181818" points="202,207.625,192,211.625,202,215.625,198,211.625" style="stroke:#181818;stroke-width:1.0;"/><text fill="#000000" font-family="sans-serif" font-size="13" font-weight="bold" lengthAdjust="spacing" textLength="7" x="198" y="193.7686">3</text><text fill="#000000" font-family="sans-serif" font-size="13" lengthAdjust="spacing" textLength="66" x="209" y="193.7686">moveAGV()</text><polygon fill="#181818" points="532,242.9766,542,246.9766,532,250.9766,536,246.9766" style="stroke:#181818;stroke-width:1.0;"/><line style="stroke:#181818;stroke-width:1.0;" x1="191" x2="538" y1="246.9766" y2="246.9766"/><text fill="#000000" font-family="sans-serif" font-size="13" font-weight="bold" lengthAdjust="spacing" textLength="7" x="198" y="242.1201">4</text><text fill="#000000" font-family="sans-serif" font-size="13" lengthAdjust="spacing" textLength="323" x="209" y="242.1201">coordinate = minDistance(grid, x, y, desiredX, desiredY)</text><polygon fill="#181818" points="532,303.3281,542,307.3281,532,311.3281,536,307.3281" style="stroke:#181818;stroke-width:1.0;"/><line style="stroke:#181818;stroke-width:1.0;" x1="191" x2="538" y1="307.3281" y2="307.3281"/><text fill="#000000" font-family="sans-serif" font-size="13" font-weight="bold" lengthAdjust="spacing" textLength="7" x="198" y="302.4717">5</text><text fill="#000000" font-family="sans-serif" font-size="13" lengthAdjust="spacing" textLength="155" x="209" y="302.4717">backTrackPath(coordinate)</text><path d="M109.5,352.3281 L182.5,352.3281 L182.5,360.6797 L172.5,370.6797 L109.5,370.6797 L109.5,352.3281 " fill="#EEEEEE" style="stroke:#000000;stroke-width:1.5;"/><rect fill="none" height="488.8125" style="stroke:#000000;stroke-width:1.5;" width="525.5" x="109.5" y="352.3281"/><text fill="#000000" font-family="sans-serif" font-size="13" font-weight="bold" lengthAdjust="spacing" textLength="28" x="124.5" y="366.8232">loop</text><text fill="#000000" font-family="sans-serif" font-size="11" font-weight="bold" lengthAdjust="spacing" textLength="235" x="197.5" y="365.7471">[for each coordinate of the calculated path]</text><line style="stroke:#181818;stroke-width:1.0;" x1="196" x2="238" y1="393.0313" y2="393.0313"/><line style="stroke:#181818;stroke-width:1.0;" x1="238" x2="238" y1="393.0313" y2="406.0313"/><line style="stroke:#181818;stroke-width:1.0;" x1="197" x2="238" y1="406.0313" y2="406.0313"/><polygon fill="#181818" points="207,402.0313,197,406.0313,207,410.0313,203,406.0313" style="stroke:#181818;stroke-width:1.0;"/><text fill="#000000" font-family="sans-serif" font-size="13" font-weight="bold" lengthAdjust="spacing" textLength="7" x="203" y="388.1748">6</text><text fill="#000000" font-family="sans-serif" font-size="13" lengthAdjust="spacing" textLength="126" x="214" y="388.1748">updateGrid(path, x, y)</text><line style="stroke:#181818;stroke-width:1.0;" x1="196" x2="238" y1="466.3828" y2="466.3828"/><line style="stroke:#181818;stroke-width:1.0;" x1="238" x2="238" y1="466.3828" y2="479.3828"/><line style="stroke:#181818;stroke-width:1.0;" x1="197" x2="238" y1="479.3828" y2="479.3828"/><polygon fill="#181818" points="207,475.3828,197,479.3828,207,483.3828,203,479.3828" style="stroke:#181818;stroke-width:1.0;"/><text fill="#000000" font-family="sans-serif" font-size="13" font-weight="bold" lengthAdjust="spacing" textLength="7" x="203" y="461.5264">7</text><text fill="#000000" font-family="sans-serif" font-size="13" lengthAdjust="spacing" textLength="85" x="214" y="461.5264">checkBattery()</text><line style="stroke:#181818;stroke-width:1.0;" x1="191" x2="238" y1="534.7344" y2="534.7344"/><line style="stroke:#181818;stroke-width:1.0;" x1="238" x2="238" y1="534.7344" y2="547.7344"/><line style="stroke:#181818;stroke-width:1.0;" x1="197" x2="238" y1="547.7344" y2="547.7344"/><polygon fill="#181818" points="207,543.7344,197,547.7344,207,551.7344,203,547.7344" style="stroke:#181818;stroke-width:1.0;"/><text fill="#000000" font-family="sans-serif" font-size="13" font-weight="bold" lengthAdjust="spacing" textLength="7" x="203" y="529.8779">8</text><text fill="#000000" font-family="sans-serif" font-size="13" lengthAdjust="spacing" textLength="100" x="214" y="529.8779">updateAGV(path)</text><line style="stroke:#181818;stroke-width:1.0;" x1="201" x2="243" y1="583.0859" y2="583.0859"/><line style="stroke:#181818;stroke-width:1.0;" x1="243" x2="243" y1="583.0859" y2="596.0859"/><line style="stroke:#181818;stroke-width:1.0;" x1="202" x2="243" y1="596.0859" y2="596.0859"/><polygon fill="#181818" points="212,592.0859,202,596.0859,212,600.0859,208,596.0859" style="stroke:#181818;stroke-width:1.0;"/><text fill="#000000" font-family="sans-serif" font-size="13" font-weight="bold" lengthAdjust="spacing" textLength="7" x="208" y="578.2295">9</text><text fill="#000000" font-family="sans-serif" font-size="13" lengthAdjust="spacing" textLength="102" x="219" y="578.2295">updateDatabase()</text><line style="stroke:#181818;stroke-width:1.0;" x1="196" x2="238" y1="656.4375" y2="656.4375"/><line style="stroke:#181818;stroke-width:1.0;" x1="238" x2="238" y1="656.4375" y2="669.4375"/><line style="stroke:#181818;stroke-width:1.0;" x1="197" x2="238" y1="669.4375" y2="669.4375"/><polygon fill="#181818" points="207,665.4375,197,669.4375,207,673.4375,203,669.4375" style="stroke:#181818;stroke-width:1.0;"/><text fill="#000000" font-family="sans-serif" font-size="13" font-weight="bold" lengthAdjust="spacing" textLength="14" x="203" y="651.5811">10</text><text fill="#000000" font-family="sans-serif" font-size="13" lengthAdjust="spacing" textLength="114" x="221" y="651.5811">speed = getAction()</text><line style="stroke:#181818;stroke-width:1.0;" x1="196" x2="238" y1="729.7891" y2="729.7891"/><line style="stroke:#181818;stroke-width:1.0;" x1="238" x2="238" y1="729.7891" y2="742.7891"/><line style="stroke:#181818;stroke-width:1.0;" x1="197" x2="238" y1="742.7891" y2="742.7891"/><polygon fill="#181818" points="207,738.7891,197,742.7891,207,746.7891,203,742.7891" style="stroke:#181818;stroke-width:1.0;"/><text fill="#000000" font-family="sans-serif" font-size="13" font-weight="bold" lengthAdjust="spacing" textLength="14" x="203" y="724.9326">11</text><text fill="#000000" font-family="sans-serif" font-size="13" lengthAdjust="spacing" textLength="87" x="221" y="724.9326">changeSpeed()</text><polygon fill="#181818" points="532,799.1406,542,803.1406,532,807.1406,536,803.1406" style="stroke:#181818;stroke-width:1.0;"/><line style="stroke:#181818;stroke-width:1.0;" x1="191" x2="538" y1="803.1406" y2="803.1406"/><text fill="#000000" font-family="sans-serif" font-size="13" font-weight="bold" lengthAdjust="spacing" textLength="14" x="198" y="798.2842">12</text><text fill="#000000" font-family="sans-serif" font-size="13" lengthAdjust="spacing" textLength="69" x="216" y="798.2842">printMatrix()</text><line style="stroke:#181818;stroke-width:1.0;" x1="191" x2="233" y1="870.4922" y2="870.4922"/><line style="stroke:#181818;stroke-width:1.0;" x1="233" x2="233" y1="870.4922" y2="883.4922"/><line style="stroke:#181818;stroke-width:1.0;" x1="192" x2="233" y1="883.4922" y2="883.4922"/><polygon fill="#181818" points="202,879.4922,192,883.4922,202,887.4922,198,883.4922" style="stroke:#181818;stroke-width:1.0;"/><text fill="#000000" font-family="sans-serif" font-size="13" font-weight="bold" lengthAdjust="spacing" textLength="14" x="198" y="865.6357">13</text><text fill="#000000" font-family="sans-serif" font-size="13" lengthAdjust="spacing" textLength="95" x="216" y="865.6357">setCoordinates()</text><line style="stroke:#181818;stroke-width:1.0;" x1="191" x2="233" y1="943.8438" y2="943.8438"/><line style="stroke:#181818;stroke-width:1.0;" x1="233" x2="233" y1="943.8438" y2="956.8438"/><line style="stroke:#181818;stroke-width:1.0;" x1="192" x2="233" y1="956.8438" y2="956.8438"/><polygon fill="#181818" points="202,952.8438,192,956.8438,202,960.8438,198,956.8438" style="stroke:#181818;stroke-width:1.0;"/><text fill="#000000" font-family="sans-serif" font-size="13" font-weight="bold" lengthAdjust="spacing" textLength="14" x="198" y="938.9873">14</text><text fill="#000000" font-family="sans-serif" font-size="13" lengthAdjust="spacing" textLength="66" x="216" y="938.9873">moveAGV()</text><line style="stroke:#181818;stroke-width:1.0;" x1="191" x2="233" y1="1017.1953" y2="1017.1953"/><line style="stroke:#181818;stroke-width:1.0;" x1="233" x2="233" y1="1017.1953" y2="1030.1953"/><line style="stroke:#181818;stroke-width:1.0;" x1="192" x2="233" y1="1030.1953" y2="1030.1953"/><polygon fill="#181818" points="202,1026.1953,192,1030.1953,202,1034.1953,198,1030.1953" style="stroke:#181818;stroke-width:1.0;"/><text fill="#000000" font-family="sans-serif" font-size="13" font-weight="bold" lengthAdjust="spacing" textLength="14" x="198" y="1012.3389">15</text><text fill="#000000" font-family="sans-serif" font-size="13" lengthAdjust="spacing" textLength="116" x="216" y="1012.3389">changeAGVStatus()</text><line style="stroke:#181818;stroke-width:1.0;" x1="191" x2="233" y1="1090.5469" y2="1090.5469"/><line style="stroke:#181818;stroke-width:1.0;" x1="233" x2="233" y1="1090.5469" y2="1103.5469"/><line style="stroke:#181818;stroke-width:1.0;" x1="192" x2="233" y1="1103.5469" y2="1103.5469"/><polygon fill="#181818" points="202,1099.5469,192,1103.5469,202,1107.5469,198,1103.5469" style="stroke:#181818;stroke-width:1.0;"/><text fill="#000000" font-family="sans-serif" font-size="13" font-weight="bold" lengthAdjust="spacing" textLength="14" x="198" y="1085.6904">16</text><text fill="#000000" font-family="sans-serif" font-size="13" lengthAdjust="spacing" textLength="75" x="216" y="1085.6904">chargeAGV()</text><polygon fill="#181818" points="330,1159.8984,340,1163.8984,330,1167.8984,334,1163.8984" style="stroke:#181818;stroke-width:1.0;"/><line style="stroke:#181818;stroke-width:1.0;" x1="186" x2="336" y1="1163.8984" y2="1163.8984"/><text fill="#000000" font-family="sans-serif" font-size="13" font-weight="bold" lengthAdjust="spacing" textLength="14" x="193" y="1159.042">17</text><text fill="#000000" font-family="sans-serif" font-size="13" lengthAdjust="spacing" textLength="114" x="211" y="1159.042">deactivateSensors()</text><polygon fill="#181818" points="73,1220.25,63,1224.25,73,1228.25,69,1224.25" style="stroke:#181818;stroke-width:1.0;"/><line style="stroke:#181818;stroke-width:1.0;" x1="67" x2="175" y1="1224.25" y2="1224.25"/><text fill="#000000" font-family="sans-serif" font-size="13" font-weight="bold" lengthAdjust="spacing" textLength="14" x="79" y="1219.3936">18</text><text fill="#000000" font-family="sans-serif" font-size="13" lengthAdjust="spacing" textLength="77" x="97" y="1219.3936">disableLock()</text><!--MD5=[ca3f69428d746a82567afd80aa20c1d5]
@startuml

autonumber

participant csThread as cs
participant MoveAGVThread as moveThread
participant AGV as agv <<domain>>
participant WarehouseMovement as whMovement

cs-> moveThread
activate moveThread

moveThread -> agv : activateSensors()
activate agv
deactivate agv

loop while the path needs to be recalculated
moveThread -> moveThread ++: moveAGV()


moveThread -> whMovement ++: coordinate = minDistance(grid, x, y, desiredX, desiredY)
deactivate whMovement

moveThread -> whMovement ++: backTrackPath(coordinate)
deactivate whMovement

loop for each coordinate of the calculated path

moveThread -> moveThread ++: updateGrid(path, x, y)
deactivate moveThread

moveThread -> moveThread ++: checkBattery()
deactivate moveThread

moveThread -> moveThread ++: updateAGV(path)
moveThread -> moveThread ++: updateDatabase()
deactivate moveThread
deactivate moveThread

moveThread -> moveThread ++: speed = getAction()
deactivate moveThread

moveThread -> moveThread ++: changeSpeed()
deactivate moveThread

moveThread -> whMovement ++: printMatrix()
deactivate whMovement
deactivate moveThread

end

moveThread -> moveThread ++: setCoordinates()
deactivate moveThread

moveThread -> moveThread ++: moveAGV()
deactivate moveThread

moveThread -> moveThread ++: changeAGVStatus()
deactivate moveThread

moveThread -> moveThread ++: chargeAGV()
deactivate moveThread

moveThread -> agv ++: deactivateSensors()
deactivate agv


moveThread -> cs ++: disableLock()
deactivate moveThread

@enduml

PlantUML version 1.2022.5(Sat Apr 30 11:55:52 BST 2022)
(GPL source distribution)
Java Runtime: OpenJDK Runtime Environment
JVM: OpenJDK 64-Bit Server VM
Default Encoding: Cp1252
Language: pt
Country: PT
--></g></svg>