<?xml version="1.0" encoding="UTF-8" standalone="no"?><svg xmlns="http://www.w3.org/2000/svg" xmlns:xlink="http://www.w3.org/1999/xlink" contentScriptType="application/ecmascript" contentStyleType="text/css" height="635px" preserveAspectRatio="none" style="width:481px;height:635px;background:#FFFFFF;" version="1.1" viewBox="0 0 481 635" width="481px" zoomAndPan="magnify"><defs><filter height="300%" id="f4gsuuw6r3w81" width="300%" x="-1" y="-1"><feGaussianBlur result="blurOut" stdDeviation="2.0"/><feColorMatrix in="blurOut" result="blurOut2" type="matrix" values="0 0 0 0 0 0 0 0 0 0 0 0 0 0 0 0 0 0 .4 0"/><feOffset dx="4.0" dy="4.0" in="blurOut2" result="blurOut3"/><feBlend in="SourceGraphic" in2="blurOut3" mode="normal"/></filter></defs><g><rect fill="#FFFFFF" filter="url(#f4gsuuw6r3w81)" height="370.4609" style="stroke:#A80036;stroke-width:1.0;" width="10" x="55.5" y="210.0156"/><rect fill="#FFFFFF" filter="url(#f4gsuuw6r3w81)" height="113.7031" style="stroke:#A80036;stroke-width:1.0;" width="10" x="195" y="73.9609"/><rect fill="#FFFFFF" filter="url(#f4gsuuw6r3w81)" height="28" style="stroke:#A80036;stroke-width:1.0;" width="10" x="200" y="137.6641"/><rect fill="#FFFFFF" filter="url(#f4gsuuw6r3w81)" height="157.0547" style="stroke:#A80036;stroke-width:1.0;" width="10" x="195" y="210.0156"/><rect fill="#FFFFFF" filter="url(#f4gsuuw6r3w81)" height="28" style="stroke:#A80036;stroke-width:1.0;" width="10" x="200" y="317.0703"/><rect fill="#FFFFFF" filter="url(#f4gsuuw6r3w81)" height="30" style="stroke:#A80036;stroke-width:1.0;" width="10" x="195" y="389.4219"/><rect fill="#FFFFFF" filter="url(#f4gsuuw6r3w81)" height="30" style="stroke:#A80036;stroke-width:1.0;" width="10" x="195" y="449.7734"/><rect fill="#FFFFFF" filter="url(#f4gsuuw6r3w81)" height="30" style="stroke:#A80036;stroke-width:1.0;" width="10" x="195" y="535.4766"/><rect fill="#FFFFFF" filter="url(#f4gsuuw6r3w81)" height="91.7031" style="stroke:#000000;stroke-width:2.0;" width="309" x="158.5" y="88.9609"/><rect fill="#FFFFFF" filter="url(#f4gsuuw6r3w81)" height="135.0547" style="stroke:#000000;stroke-width:2.0;" width="240" x="158.5" y="225.0156"/><rect fill="#FFFFFF" filter="url(#f4gsuuw6r3w81)" height="78.7031" style="stroke:#000000;stroke-width:2.0;" width="231.5" x="10" y="494.7734"/><line style="stroke:#A80036;stroke-width:1.0;stroke-dasharray:5.0,5.0;" x1="60" x2="60" y1="41.6094" y2="590.4766"/><line style="stroke:#A80036;stroke-width:1.0;stroke-dasharray:5.0,5.0;" x1="199.5" x2="199.5" y1="41.6094" y2="590.4766"/><rect fill="#FEFECE" filter="url(#f4gsuuw6r3w81)" height="31.6094" style="stroke:#A80036;stroke-width:1.5;" width="77" x="20" y="5"/><text fill="#000000" font-family="sans-serif" font-size="14" lengthAdjust="spacing" textLength="63" x="27" y="26.5332">MoveAGV</text><rect fill="#FEFECE" filter="url(#f4gsuuw6r3w81)" height="31.6094" style="stroke:#A80036;stroke-width:1.5;" width="77" x="20" y="589.4766"/><text fill="#000000" font-family="sans-serif" font-size="14" lengthAdjust="spacing" textLength="63" x="27" y="611.0098">MoveAGV</text><rect fill="#FEFECE" filter="url(#f4gsuuw6r3w81)" height="31.6094" style="stroke:#A80036;stroke-width:1.5;" width="59" x="168.5" y="5"/><text fill="#000000" font-family="sans-serif" font-size="14" lengthAdjust="spacing" textLength="45" x="175.5" y="26.5332">Sensor</text><rect fill="#FEFECE" filter="url(#f4gsuuw6r3w81)" height="31.6094" style="stroke:#A80036;stroke-width:1.5;" width="59" x="168.5" y="589.4766"/><text fill="#000000" font-family="sans-serif" font-size="14" lengthAdjust="spacing" textLength="45" x="175.5" y="611.0098">Sensor</text><rect fill="#FFFFFF" filter="url(#f4gsuuw6r3w81)" height="370.4609" style="stroke:#A80036;stroke-width:1.0;" width="10" x="55.5" y="210.0156"/><rect fill="#FFFFFF" filter="url(#f4gsuuw6r3w81)" height="113.7031" style="stroke:#A80036;stroke-width:1.0;" width="10" x="195" y="73.9609"/><rect fill="#FFFFFF" filter="url(#f4gsuuw6r3w81)" height="28" style="stroke:#A80036;stroke-width:1.0;" width="10" x="200" y="137.6641"/><rect fill="#FFFFFF" filter="url(#f4gsuuw6r3w81)" height="157.0547" style="stroke:#A80036;stroke-width:1.0;" width="10" x="195" y="210.0156"/><rect fill="#FFFFFF" filter="url(#f4gsuuw6r3w81)" height="28" style="stroke:#A80036;stroke-width:1.0;" width="10" x="200" y="317.0703"/><rect fill="#FFFFFF" filter="url(#f4gsuuw6r3w81)" height="30" style="stroke:#A80036;stroke-width:1.0;" width="10" x="195" y="389.4219"/><rect fill="#FFFFFF" filter="url(#f4gsuuw6r3w81)" height="30" style="stroke:#A80036;stroke-width:1.0;" width="10" x="195" y="449.7734"/><rect fill="#FFFFFF" filter="url(#f4gsuuw6r3w81)" height="30" style="stroke:#A80036;stroke-width:1.0;" width="10" x="195" y="535.4766"/><polygon fill="#A80036" points="183,69.9609,193,73.9609,183,77.9609,187,73.9609" style="stroke:#A80036;stroke-width:1.0;"/><line style="stroke:#A80036;stroke-width:1.0;" x1="0" x2="189" y1="73.9609" y2="73.9609"/><text fill="#000000" font-family="sans-serif" font-size="13" font-weight="bold" lengthAdjust="spacing" textLength="7" x="7" y="69.1045">1</text><text fill="#000000" font-family="sans-serif" font-size="13" lengthAdjust="spacing" textLength="150" x="18" y="69.1045">sensorList = getSensors()</text><path d="M158.5,88.9609 L231.5,88.9609 L231.5,96.9609 L221.5,106.9609 L158.5,106.9609 L158.5,88.9609 " fill="#EEEEEE" style="stroke:#000000;stroke-width:1.0;"/><rect fill="none" height="91.7031" style="stroke:#000000;stroke-width:2.0;" width="309" x="158.5" y="88.9609"/><text fill="#000000" font-family="sans-serif" font-size="13" font-weight="bold" lengthAdjust="spacing" textLength="28" x="173.5" y="103.4561">loop</text><text fill="#000000" font-family="sans-serif" font-size="11" font-weight="bold" lengthAdjust="spacing" textLength="216" x="246.5" y="102.3799">[for the 8 sensors present on the AGV]</text><line style="stroke:#A80036;stroke-width:1.0;" x1="210" x2="252" y1="129.6641" y2="129.6641"/><line style="stroke:#A80036;stroke-width:1.0;" x1="252" x2="252" y1="129.6641" y2="142.6641"/><line style="stroke:#A80036;stroke-width:1.0;" x1="211" x2="252" y1="142.6641" y2="142.6641"/><polygon fill="#A80036" points="221,138.6641,211,142.6641,221,146.6641,217,142.6641" style="stroke:#A80036;stroke-width:1.0;"/><text fill="#000000" font-family="sans-serif" font-size="13" font-weight="bold" lengthAdjust="spacing" textLength="7" x="217" y="124.8076">2</text><text fill="#000000" font-family="sans-serif" font-size="13" lengthAdjust="spacing" textLength="44" x="228" y="124.8076">create()</text><polygon fill="#A80036" points="183,206.0156,193,210.0156,183,214.0156,187,210.0156" style="stroke:#A80036;stroke-width:1.0;"/><line style="stroke:#A80036;stroke-width:1.0;" x1="65.5" x2="189" y1="210.0156" y2="210.0156"/><text fill="#000000" font-family="sans-serif" font-size="13" font-weight="bold" lengthAdjust="spacing" textLength="7" x="72.5" y="205.1592">3</text><text fill="#000000" font-family="sans-serif" font-size="13" lengthAdjust="spacing" textLength="26" x="83.5" y="205.1592">run()</text><path d="M158.5,225.0156 L231.5,225.0156 L231.5,233.0156 L221.5,243.0156 L158.5,243.0156 L158.5,225.0156 " fill="#EEEEEE" style="stroke:#000000;stroke-width:1.0;"/><rect fill="none" height="135.0547" style="stroke:#000000;stroke-width:2.0;" width="240" x="158.5" y="225.0156"/><text fill="#000000" font-family="sans-serif" font-size="13" font-weight="bold" lengthAdjust="spacing" textLength="28" x="173.5" y="239.5107">loop</text><text fill="#000000" font-family="sans-serif" font-size="11" font-weight="bold" lengthAdjust="spacing" textLength="147" x="246.5" y="238.4346">[while the sensors are on]</text><line style="stroke:#A80036;stroke-width:1.0;" x1="205" x2="247" y1="265.7188" y2="265.7188"/><line style="stroke:#A80036;stroke-width:1.0;" x1="247" x2="247" y1="265.7188" y2="278.7188"/><line style="stroke:#A80036;stroke-width:1.0;" x1="206" x2="247" y1="278.7188" y2="278.7188"/><polygon fill="#A80036" points="216,274.7188,206,278.7188,216,282.7188,212,278.7188" style="stroke:#A80036;stroke-width:1.0;"/><text fill="#000000" font-family="sans-serif" font-size="13" font-weight="bold" lengthAdjust="spacing" textLength="7" x="212" y="260.8623">4</text><text fill="#000000" font-family="sans-serif" font-size="13" lengthAdjust="spacing" textLength="160" x="223" y="260.8623">updatePosicao(agvPosition)</text><line style="stroke:#A80036;stroke-width:1.0;" x1="210" x2="252" y1="309.0703" y2="309.0703"/><line style="stroke:#A80036;stroke-width:1.0;" x1="252" x2="252" y1="309.0703" y2="322.0703"/><line style="stroke:#A80036;stroke-width:1.0;" x1="211" x2="252" y1="322.0703" y2="322.0703"/><polygon fill="#A80036" points="221,318.0703,211,322.0703,221,326.0703,217,322.0703" style="stroke:#A80036;stroke-width:1.0;"/><text fill="#000000" font-family="sans-serif" font-size="13" font-weight="bold" lengthAdjust="spacing" textLength="7" x="217" y="304.2139">5</text><text fill="#000000" font-family="sans-serif" font-size="13" lengthAdjust="spacing" textLength="98" x="228" y="304.2139">isValid(x, y, grid)</text><polygon fill="#A80036" points="183,385.4219,193,389.4219,183,393.4219,187,389.4219" style="stroke:#A80036;stroke-width:1.0;"/><line style="stroke:#A80036;stroke-width:1.0;" x1="65.5" x2="189" y1="389.4219" y2="389.4219"/><text fill="#000000" font-family="sans-serif" font-size="13" font-weight="bold" lengthAdjust="spacing" textLength="7" x="72.5" y="384.5654">6</text><text fill="#000000" font-family="sans-serif" font-size="13" lengthAdjust="spacing" textLength="67" x="83.5" y="384.5654">getControl()</text><polygon fill="#A80036" points="183,445.7734,193,449.7734,183,453.7734,187,449.7734" style="stroke:#A80036;stroke-width:1.0;"/><line style="stroke:#A80036;stroke-width:1.0;" x1="65.5" x2="189" y1="449.7734" y2="449.7734"/><text fill="#000000" font-family="sans-serif" font-size="13" font-weight="bold" lengthAdjust="spacing" textLength="7" x="72.5" y="444.917">7</text><text fill="#000000" font-family="sans-serif" font-size="13" lengthAdjust="spacing" textLength="77" x="83.5" y="444.917">disableLock()</text><path d="M10,494.7734 L83,494.7734 L83,502.7734 L73,512.7734 L10,512.7734 L10,494.7734 " fill="#EEEEEE" style="stroke:#000000;stroke-width:1.0;"/><rect fill="none" height="78.7031" style="stroke:#000000;stroke-width:2.0;" width="231.5" x="10" y="494.7734"/><text fill="#000000" font-family="sans-serif" font-size="13" font-weight="bold" lengthAdjust="spacing" textLength="28" x="25" y="509.2686">loop</text><text fill="#000000" font-family="sans-serif" font-size="11" font-weight="bold" lengthAdjust="spacing" textLength="96" x="98" y="508.1924">[for each sensor]</text><polygon fill="#A80036" points="183,531.4766,193,535.4766,183,539.4766,187,535.4766" style="stroke:#A80036;stroke-width:1.0;"/><line style="stroke:#A80036;stroke-width:1.0;" x1="65.5" x2="189" y1="535.4766" y2="535.4766"/><text fill="#000000" font-family="sans-serif" font-size="13" font-weight="bold" lengthAdjust="spacing" textLength="7" x="72.5" y="530.6201">8</text><text fill="#000000" font-family="sans-serif" font-size="13" lengthAdjust="spacing" textLength="66" x="83.5" y="530.6201">deactivate()</text><!--MD5=[814715fa6ec94461efe3cf4d1c34c70c]
@startuml
'https://plantuml.com/sequence-diagram

autonumber
participant MoveAGV as moveThread
participant Sensor as sensor

-> sensor : sensorList = getSensors()
activate sensor

loop for the 8 sensors present on the AGV
sensor -> sensor ++: create()
deactivate sensor
end

deactivate sensor


moveThread -> sensor : run()
activate moveThread
activate sensor

loop while the sensors are on
sensor -> sensor : updatePosicao(agvPosition)
sensor -> sensor ++: isValid(x, y, grid)

deactivate sensor
end
deactivate sensor

moveThread -> sensor ++: getControl()
deactivate sensor

moveThread -> sensor ++: disableLock()
deactivate sensor

loop for each sensor
moveThread -> sensor ++: deactivate()
deactivate sensor
end

deactivate moveThread

@enduml

@startuml

autonumber
participant MoveAGV as moveThread
participant Sensor as sensor

-> sensor : sensorList = getSensors()
activate sensor

loop for the 8 sensors present on the AGV
sensor -> sensor ++: create()
deactivate sensor
end

deactivate sensor


moveThread -> sensor : run()
activate moveThread
activate sensor

loop while the sensors are on
sensor -> sensor : updatePosicao(agvPosition)
sensor -> sensor ++: isValid(x, y, grid)

deactivate sensor
end
deactivate sensor

moveThread -> sensor ++: getControl()
deactivate sensor

moveThread -> sensor ++: disableLock()
deactivate sensor

loop for each sensor
moveThread -> sensor ++: deactivate()
deactivate sensor
end

deactivate moveThread

@enduml

PlantUML version 1.2022.1(Tue Feb 01 18:19:58 GMT 2022)
(GPL source distribution)
Java Runtime: OpenJDK Runtime Environment
JVM: Dynamic Code Evolution 64-Bit Server VM
Default Encoding: Cp1252
Language: pt
Country: PT
--></g></svg>