<?xml version="1.0" encoding="UTF-8" standalone="no"?><svg xmlns="http://www.w3.org/2000/svg" xmlns:xlink="http://www.w3.org/1999/xlink" contentScriptType="application/ecmascript" contentStyleType="text/css" height="712px" preserveAspectRatio="none" style="width:2142px;height:712px;background:#FFFFFF;" version="1.1" viewBox="0 0 2142 712" width="2142px" zoomAndPan="magnify"><defs><filter height="300%" id="f1j1q9s2ilw2pj" width="300%" x="-1" y="-1"><feGaussianBlur result="blurOut" stdDeviation="2.0"/><feColorMatrix in="blurOut" result="blurOut2" type="matrix" values="0 0 0 0 0 0 0 0 0 0 0 0 0 0 0 0 0 0 .4 0"/><feOffset dx="4.0" dy="4.0" in="blurOut2" result="blurOut3"/><feBlend in="SourceGraphic" in2="blurOut3" mode="normal"/></filter></defs><g><!--MD5=[cd1e467dd42714edd782c72995bbc617]
cluster <<aggregate>> Product--><polygon fill="#FFFFFF" filter="url(#f1j1q9s2ilw2pj)" points="16,6,185,6,192,29.6094,1810,29.6094,1810,431,16,431,16,6" style="stroke:#000000;stroke-width:1.5;"/><line style="stroke:#000000;stroke-width:1.5;" x1="16" x2="192" y1="29.6094" y2="29.6094"/><text fill="#000000" font-family="sans-serif" font-size="14" font-weight="bold" lengthAdjust="spacing" textLength="163" x="20" y="22.5332">&lt;&lt;aggregate&gt;&gt; Product</text><!--MD5=[379fcb94853c7c195c0368ceebdeaf4d]
cluster <<aggregate>> Category--><polygon fill="#FFFFFF" filter="url(#f1j1q9s2ilw2pj)" points="1661,464,1838,464,1845,487.6094,2125,487.6094,2125,705,1661,705,1661,464" style="stroke:#000000;stroke-width:1.5;"/><line style="stroke:#000000;stroke-width:1.5;" x1="1661" x2="1845" y1="487.6094" y2="487.6094"/><text fill="#000000" font-family="sans-serif" font-size="14" font-weight="bold" lengthAdjust="spacing" textLength="171" x="1665" y="480.5332">&lt;&lt;aggregate&gt;&gt; Category</text><!--MD5=[72136138052d025cffdce3c22fbd185f]
class Product--><rect codeLine="24" fill="#F5F5DC" filter="url(#f1j1q9s2ilw2pj)" height="85.1172" id="Product" style="stroke:#A80036;stroke-width:1.5;" width="108" x="1054" y="42"/><ellipse cx="1084.3" cy="69.6406" fill="#ADD1B2" rx="11" ry="11" style="stroke:#A80036;stroke-width:1.0;"/><path d="M1082.8,70.6406 L1082.8,72.6406 L1086.8,72.6406 L1086.8,71.6406 L1086.8,71.1563 L1087.425,70.6406 L1087.8,70.6406 L1088.175,70.6406 L1088.8,71.1563 L1088.8,71.6406 L1088.8,74.6406 L1080.8,74.6406 L1080.3156,74.6406 L1079.8,74.0156 L1079.8,73.6406 L1079.8,73.2656 L1080.3156,72.6406 L1080.8,72.6406 L1080.8,72.6406 L1080.8,66.6406 L1080.8,66.6406 L1080.3156,66.6406 L1079.8,66.0156 L1079.8,65.6406 L1079.8,65.2656 L1080.3156,64.6406 L1080.8,64.6406 L1088.8,64.6406 L1088.8,67.6406 L1088.8,68.125 L1088.175,68.6406 L1087.8,68.6406 L1087.425,68.6406 L1086.8,68.125 L1086.8,67.6406 L1086.8,66.6406 L1082.8,66.6406 L1082.8,68.6406 L1083.8,68.6406 L1083.8,68.1563 L1083.8,68.1563 L1084.425,67.6406 L1084.8,67.6406 L1085.175,67.6406 L1085.8,68.1563 L1085.8,68.6406 L1085.8,70.6406 L1085.8,71.125 L1085.175,71.6406 L1085.175,71.6406 L1084.8,71.6406 L1084.425,71.6406 L1083.8,71.125 L1083.8,71.125 L1083.8,70.6406 L1082.8,70.6406 Z " fill="#000000"/><text fill="#000000" font-family="sans-serif" font-size="12" font-style="italic" lengthAdjust="spacing" textLength="43" x="1101.2" y="59.457">«entity»</text><text fill="#000000" font-family="sans-serif" font-size="12" font-style="italic" lengthAdjust="spacing" textLength="35" x="1105.2" y="74.5508">«root»</text><text fill="#000000" font-family="sans-serif" font-size="12" lengthAdjust="spacing" textLength="42" x="1101.7" y="89.6445">Product</text><line style="stroke:#A80036;stroke-width:1.5;" x1="1055" x2="1161" y1="97.2813" y2="97.2813"/><text fill="#000000" font-family="sans-serif" font-size="11" lengthAdjust="spacing" textLength="96" x="1060" y="112.7002">-uniqueInternalCode</text><line style="stroke:#A80036;stroke-width:1.5;" x1="1055" x2="1161" y1="119.1172" y2="119.1172"/><!--MD5=[79d3acb8d8b4a000645cdf546551f625]
class ShortDescription--><rect codeLine="28" fill="#F5F5DC" filter="url(#f1j1q9s2ilw2pj)" height="48.1875" id="ShortDescription" style="stroke:#A80036;stroke-width:1.5;" width="124" x="32" y="367"/><ellipse cx="47" cy="387.0938" fill="#FF8B40" rx="11" ry="11" style="stroke:#A80036;stroke-width:1.0;"/><path d="M47,390.375 L48.5313,384.8438 L48.5313,384.8438 L48.0156,384.8438 L47.5,384.2188 L47.5,383.8438 L47.5,383.4688 L48.0156,382.8438 L48.5313,382.8438 L50.4063,382.8438 L50.9844,382.8438 L51.5,383.4688 L51.5,383.8438 L51.5,384.2188 L50.9844,384.8438 L50.9844,384.8438 L50.5313,384.8438 L48.1875,392.8438 L45.8125,392.8438 L43.3438,384.8438 L43.0156,384.8438 L43.0156,384.8438 L42.5,384.2188 L42.5,383.8438 L42.5,383.4688 L43.0156,382.8438 L43.5938,382.8438 L45.4688,382.8438 L45.9844,382.8438 L46.5,383.4688 L46.5,383.8438 L46.5,384.2188 L45.9844,384.8438 L45.4688,384.8438 L45.4688,384.8438 L47,390.375 Z " fill="#000000"/><text fill="#000000" font-family="sans-serif" font-size="12" font-style="italic" lengthAdjust="spacing" textLength="81" x="66.5" y="384.457">«value object»</text><text fill="#000000" font-family="sans-serif" font-size="12" lengthAdjust="spacing" textLength="92" x="61" y="399.5508">ShortDescription</text><line style="stroke:#A80036;stroke-width:1.5;" x1="33" x2="155" y1="407.1875" y2="407.1875"/><!--MD5=[0b7d0e576c2aec4b9edea3c9e75f66a5]
class LongDescription--><rect codeLine="29" fill="#F5F5DC" filter="url(#f1j1q9s2ilw2pj)" height="48.1875" id="LongDescription" style="stroke:#A80036;stroke-width:1.5;" width="123" x="200.5" y="223"/><ellipse cx="215.5" cy="243.0938" fill="#FF8B40" rx="11" ry="11" style="stroke:#A80036;stroke-width:1.0;"/><path d="M215.5,246.375 L217.0313,240.8438 L217.0313,240.8438 L216.5156,240.8438 L216,240.2188 L216,239.8438 L216,239.4688 L216.5156,238.8438 L217.0313,238.8438 L218.9063,238.8438 L219.4844,238.8438 L220,239.4688 L220,239.8438 L220,240.2188 L219.4844,240.8438 L219.4844,240.8438 L219.0313,240.8438 L216.6875,248.8438 L214.3125,248.8438 L211.8438,240.8438 L211.5156,240.8438 L211.5156,240.8438 L211,240.2188 L211,239.8438 L211,239.4688 L211.5156,238.8438 L212.0938,238.8438 L213.9688,238.8438 L214.4844,238.8438 L215,239.4688 L215,239.8438 L215,240.2188 L214.4844,240.8438 L213.9688,240.8438 L213.9688,240.8438 L215.5,246.375 Z " fill="#000000"/><text fill="#000000" font-family="sans-serif" font-size="12" font-style="italic" lengthAdjust="spacing" textLength="81" x="234.5" y="240.457">«value object»</text><text fill="#000000" font-family="sans-serif" font-size="12" lengthAdjust="spacing" textLength="91" x="229.5" y="255.5508">LongDescription</text><line style="stroke:#A80036;stroke-width:1.5;" x1="201.5" x2="322.5" y1="263.1875" y2="263.1875"/><!--MD5=[216845e66863fbf0f228ebacc80c455b]
class TechnicalDescription--><rect codeLine="30" fill="#F5F5DC" filter="url(#f1j1q9s2ilw2pj)" height="48.1875" id="TechnicalDescription" style="stroke:#A80036;stroke-width:1.5;" width="148" x="359" y="223"/><ellipse cx="374" cy="243.0938" fill="#FF8B40" rx="11" ry="11" style="stroke:#A80036;stroke-width:1.0;"/><path d="M374,246.375 L375.5313,240.8438 L375.5313,240.8438 L375.0156,240.8438 L374.5,240.2188 L374.5,239.8438 L374.5,239.4688 L375.0156,238.8438 L375.5313,238.8438 L377.4063,238.8438 L377.9844,238.8438 L378.5,239.4688 L378.5,239.8438 L378.5,240.2188 L377.9844,240.8438 L377.9844,240.8438 L377.5313,240.8438 L375.1875,248.8438 L372.8125,248.8438 L370.3438,240.8438 L370.0156,240.8438 L370.0156,240.8438 L369.5,240.2188 L369.5,239.8438 L369.5,239.4688 L370.0156,238.8438 L370.5938,238.8438 L372.4688,238.8438 L372.9844,238.8438 L373.5,239.4688 L373.5,239.8438 L373.5,240.2188 L372.9844,240.8438 L372.4688,240.8438 L372.4688,240.8438 L374,246.375 Z " fill="#000000"/><text fill="#000000" font-family="sans-serif" font-size="12" font-style="italic" lengthAdjust="spacing" textLength="81" x="405.5" y="240.457">«value object»</text><text fill="#000000" font-family="sans-serif" font-size="12" lengthAdjust="spacing" textLength="116" x="388" y="255.5508">TechnicalDescription</text><line style="stroke:#A80036;stroke-width:1.5;" x1="360" x2="506" y1="263.1875" y2="263.1875"/><!--MD5=[e59bda2572a266093cda22ac34510ea0]
class Barcode--><rect codeLine="31" fill="#F5F5DC" filter="url(#f1j1q9s2ilw2pj)" height="48.1875" id="Barcode" style="stroke:#A80036;stroke-width:1.5;" width="109" x="542.5" y="223"/><ellipse cx="557.5" cy="243.0938" fill="#FF8B40" rx="11" ry="11" style="stroke:#A80036;stroke-width:1.0;"/><path d="M557.5,246.375 L559.0313,240.8438 L559.0313,240.8438 L558.5156,240.8438 L558,240.2188 L558,239.8438 L558,239.4688 L558.5156,238.8438 L559.0313,238.8438 L560.9063,238.8438 L561.4844,238.8438 L562,239.4688 L562,239.8438 L562,240.2188 L561.4844,240.8438 L561.4844,240.8438 L561.0313,240.8438 L558.6875,248.8438 L556.3125,248.8438 L553.8438,240.8438 L553.5156,240.8438 L553.5156,240.8438 L553,240.2188 L553,239.8438 L553,239.4688 L553.5156,238.8438 L554.0938,238.8438 L555.9688,238.8438 L556.4844,238.8438 L557,239.4688 L557,239.8438 L557,240.2188 L556.4844,240.8438 L555.9688,240.8438 L555.9688,240.8438 L557.5,246.375 Z " fill="#000000"/><text fill="#000000" font-family="sans-serif" font-size="12" font-style="italic" lengthAdjust="spacing" textLength="81" x="569.5" y="240.457">«value object»</text><text fill="#000000" font-family="sans-serif" font-size="12" lengthAdjust="spacing" textLength="46" x="587" y="255.5508">Barcode</text><line style="stroke:#A80036;stroke-width:1.5;" x1="543.5" x2="650.5" y1="263.1875" y2="263.1875"/><!--MD5=[f08eadd80edf125a26d903aaabdc00ef]
class ProductionCode--><rect codeLine="32" fill="#F5F5DC" filter="url(#f1j1q9s2ilw2pj)" height="48.1875" id="ProductionCode" style="stroke:#A80036;stroke-width:1.5;" width="121" x="686.5" y="223"/><ellipse cx="701.5" cy="243.0938" fill="#FF8B40" rx="11" ry="11" style="stroke:#A80036;stroke-width:1.0;"/><path d="M701.5,246.375 L703.0313,240.8438 L703.0313,240.8438 L702.5156,240.8438 L702,240.2188 L702,239.8438 L702,239.4688 L702.5156,238.8438 L703.0313,238.8438 L704.9063,238.8438 L705.4844,238.8438 L706,239.4688 L706,239.8438 L706,240.2188 L705.4844,240.8438 L705.4844,240.8438 L705.0313,240.8438 L702.6875,248.8438 L700.3125,248.8438 L697.8438,240.8438 L697.5156,240.8438 L697.5156,240.8438 L697,240.2188 L697,239.8438 L697,239.4688 L697.5156,238.8438 L698.0938,238.8438 L699.9688,238.8438 L700.4844,238.8438 L701,239.4688 L701,239.8438 L701,240.2188 L700.4844,240.8438 L699.9688,240.8438 L699.9688,240.8438 L701.5,246.375 Z " fill="#000000"/><text fill="#000000" font-family="sans-serif" font-size="12" font-style="italic" lengthAdjust="spacing" textLength="81" x="719.5" y="240.457">«value object»</text><text fill="#000000" font-family="sans-serif" font-size="12" lengthAdjust="spacing" textLength="89" x="715.5" y="255.5508">ProductionCode</text><line style="stroke:#A80036;stroke-width:1.5;" x1="687.5" x2="806.5" y1="263.1875" y2="263.1875"/><!--MD5=[a40a7ac4b423335b0d34bf16cf36e547]
class Price--><rect codeLine="33" fill="#F5F5DC" filter="url(#f1j1q9s2ilw2pj)" height="83.8594" id="Price" style="stroke:#A80036;stroke-width:1.5;" width="109" x="842.5" y="205"/><ellipse cx="857.5" cy="225.0938" fill="#FF8B40" rx="11" ry="11" style="stroke:#A80036;stroke-width:1.0;"/><path d="M857.5,228.375 L859.0313,222.8438 L859.0313,222.8438 L858.5156,222.8438 L858,222.2188 L858,221.8438 L858,221.4688 L858.5156,220.8438 L859.0313,220.8438 L860.9063,220.8438 L861.4844,220.8438 L862,221.4688 L862,221.8438 L862,222.2188 L861.4844,222.8438 L861.4844,222.8438 L861.0313,222.8438 L858.6875,230.8438 L856.3125,230.8438 L853.8438,222.8438 L853.5156,222.8438 L853.5156,222.8438 L853,222.2188 L853,221.8438 L853,221.4688 L853.5156,220.8438 L854.0938,220.8438 L855.9688,220.8438 L856.4844,220.8438 L857,221.4688 L857,221.8438 L857,222.2188 L856.4844,222.8438 L855.9688,222.8438 L855.9688,222.8438 L857.5,228.375 Z " fill="#000000"/><text fill="#000000" font-family="sans-serif" font-size="12" font-style="italic" lengthAdjust="spacing" textLength="81" x="869.5" y="222.457">«value object»</text><text fill="#000000" font-family="sans-serif" font-size="12" lengthAdjust="spacing" textLength="28" x="896" y="237.5508">Price</text><line style="stroke:#A80036;stroke-width:1.5;" x1="843.5" x2="950.5" y1="245.1875" y2="245.1875"/><text fill="#000000" font-family="sans-serif" font-size="11" lengthAdjust="spacing" textLength="62" x="848.5" y="260.6064">-withoutVAT</text><text fill="#000000" font-family="sans-serif" font-size="11" lengthAdjust="spacing" textLength="47" x="848.5" y="274.4424">-withVAT</text><line style="stroke:#A80036;stroke-width:1.5;" x1="843.5" x2="950.5" y1="280.8594" y2="280.8594"/><!--MD5=[e09c41c2f9238e7adb85a94dde2227e7]
class Size--><rect codeLine="37" fill="#F5F5DC" filter="url(#f1j1q9s2ilw2pj)" height="48.1875" id="Size" style="stroke:#A80036;stroke-width:1.5;" width="109" x="986.5" y="223"/><ellipse cx="1001.5" cy="243.0938" fill="#FF8B40" rx="11" ry="11" style="stroke:#A80036;stroke-width:1.0;"/><path d="M1001.5,246.375 L1003.0313,240.8438 L1003.0313,240.8438 L1002.5156,240.8438 L1002,240.2188 L1002,239.8438 L1002,239.4688 L1002.5156,238.8438 L1003.0313,238.8438 L1004.9063,238.8438 L1005.4844,238.8438 L1006,239.4688 L1006,239.8438 L1006,240.2188 L1005.4844,240.8438 L1005.4844,240.8438 L1005.0313,240.8438 L1002.6875,248.8438 L1000.3125,248.8438 L997.8438,240.8438 L997.5156,240.8438 L997.5156,240.8438 L997,240.2188 L997,239.8438 L997,239.4688 L997.5156,238.8438 L998.0938,238.8438 L999.9688,238.8438 L1000.4844,238.8438 L1001,239.4688 L1001,239.8438 L1001,240.2188 L1000.4844,240.8438 L999.9688,240.8438 L999.9688,240.8438 L1001.5,246.375 Z " fill="#000000"/><text fill="#000000" font-family="sans-serif" font-size="12" font-style="italic" lengthAdjust="spacing" textLength="81" x="1013.5" y="240.457">«value object»</text><text fill="#000000" font-family="sans-serif" font-size="12" lengthAdjust="spacing" textLength="23" x="1042.5" y="255.5508">Size</text><line style="stroke:#A80036;stroke-width:1.5;" x1="987.5" x2="1094.5" y1="263.1875" y2="263.1875"/><!--MD5=[3a7cf800944e5f3d9e9c59d889c61f3b]
class Reference--><rect codeLine="38" fill="#F5F5DC" filter="url(#f1j1q9s2ilw2pj)" height="48.1875" id="Reference" style="stroke:#A80036;stroke-width:1.5;" width="109" x="1130.5" y="223"/><ellipse cx="1145.5" cy="243.0938" fill="#FF8B40" rx="11" ry="11" style="stroke:#A80036;stroke-width:1.0;"/><path d="M1145.5,246.375 L1147.0313,240.8438 L1147.0313,240.8438 L1146.5156,240.8438 L1146,240.2188 L1146,239.8438 L1146,239.4688 L1146.5156,238.8438 L1147.0313,238.8438 L1148.9063,238.8438 L1149.4844,238.8438 L1150,239.4688 L1150,239.8438 L1150,240.2188 L1149.4844,240.8438 L1149.4844,240.8438 L1149.0313,240.8438 L1146.6875,248.8438 L1144.3125,248.8438 L1141.8438,240.8438 L1141.5156,240.8438 L1141.5156,240.8438 L1141,240.2188 L1141,239.8438 L1141,239.4688 L1141.5156,238.8438 L1142.0938,238.8438 L1143.9688,238.8438 L1144.4844,238.8438 L1145,239.4688 L1145,239.8438 L1145,240.2188 L1144.4844,240.8438 L1143.9688,240.8438 L1143.9688,240.8438 L1145.5,246.375 Z " fill="#000000"/><text fill="#000000" font-family="sans-serif" font-size="12" font-style="italic" lengthAdjust="spacing" textLength="81" x="1157.5" y="240.457">«value object»</text><text fill="#000000" font-family="sans-serif" font-size="12" lengthAdjust="spacing" textLength="57" x="1169.5" y="255.5508">Reference</text><line style="stroke:#A80036;stroke-width:1.5;" x1="1131.5" x2="1238.5" y1="263.1875" y2="263.1875"/><!--MD5=[b8ca79fd367f79be7dbbd127290f5300]
class Weight--><rect codeLine="39" fill="#F5F5DC" filter="url(#f1j1q9s2ilw2pj)" height="48.1875" id="Weight" style="stroke:#A80036;stroke-width:1.5;" width="109" x="1274.5" y="223"/><ellipse cx="1289.5" cy="243.0938" fill="#FF8B40" rx="11" ry="11" style="stroke:#A80036;stroke-width:1.0;"/><path d="M1289.5,246.375 L1291.0313,240.8438 L1291.0313,240.8438 L1290.5156,240.8438 L1290,240.2188 L1290,239.8438 L1290,239.4688 L1290.5156,238.8438 L1291.0313,238.8438 L1292.9063,238.8438 L1293.4844,238.8438 L1294,239.4688 L1294,239.8438 L1294,240.2188 L1293.4844,240.8438 L1293.4844,240.8438 L1293.0313,240.8438 L1290.6875,248.8438 L1288.3125,248.8438 L1285.8438,240.8438 L1285.5156,240.8438 L1285.5156,240.8438 L1285,240.2188 L1285,239.8438 L1285,239.4688 L1285.5156,238.8438 L1286.0938,238.8438 L1287.9688,238.8438 L1288.4844,238.8438 L1289,239.4688 L1289,239.8438 L1289,240.2188 L1288.4844,240.8438 L1287.9688,240.8438 L1287.9688,240.8438 L1289.5,246.375 Z " fill="#000000"/><text fill="#000000" font-family="sans-serif" font-size="12" font-style="italic" lengthAdjust="spacing" textLength="81" x="1301.5" y="240.457">«value object»</text><text fill="#000000" font-family="sans-serif" font-size="12" lengthAdjust="spacing" textLength="38" x="1323" y="255.5508">Weight</text><line style="stroke:#A80036;stroke-width:1.5;" x1="1275.5" x2="1382.5" y1="263.1875" y2="263.1875"/><!--MD5=[0ce2229b8b99a0b06f3a67484dc45f78]
class Volume--><rect codeLine="40" fill="#F5F5DC" filter="url(#f1j1q9s2ilw2pj)" height="48.1875" id="Volume" style="stroke:#A80036;stroke-width:1.5;" width="109" x="1418.5" y="223"/><ellipse cx="1433.5" cy="243.0938" fill="#FF8B40" rx="11" ry="11" style="stroke:#A80036;stroke-width:1.0;"/><path d="M1433.5,246.375 L1435.0313,240.8438 L1435.0313,240.8438 L1434.5156,240.8438 L1434,240.2188 L1434,239.8438 L1434,239.4688 L1434.5156,238.8438 L1435.0313,238.8438 L1436.9063,238.8438 L1437.4844,238.8438 L1438,239.4688 L1438,239.8438 L1438,240.2188 L1437.4844,240.8438 L1437.4844,240.8438 L1437.0313,240.8438 L1434.6875,248.8438 L1432.3125,248.8438 L1429.8438,240.8438 L1429.5156,240.8438 L1429.5156,240.8438 L1429,240.2188 L1429,239.8438 L1429,239.4688 L1429.5156,238.8438 L1430.0938,238.8438 L1431.9688,238.8438 L1432.4844,238.8438 L1433,239.4688 L1433,239.8438 L1433,240.2188 L1432.4844,240.8438 L1431.9688,240.8438 L1431.9688,240.8438 L1433.5,246.375 Z " fill="#000000"/><text fill="#000000" font-family="sans-serif" font-size="12" font-style="italic" lengthAdjust="spacing" textLength="81" x="1445.5" y="240.457">«value object»</text><text fill="#000000" font-family="sans-serif" font-size="12" lengthAdjust="spacing" textLength="42" x="1465" y="255.5508">Volume</text><line style="stroke:#A80036;stroke-width:1.5;" x1="1419.5" x2="1526.5" y1="263.1875" y2="263.1875"/><!--MD5=[a805b40f8193e3b705560a3818c5c109]
class Photo--><rect codeLine="41" fill="#F5F5DC" filter="url(#f1j1q9s2ilw2pj)" height="48.1875" id="Photo" style="stroke:#A80036;stroke-width:1.5;" width="109" x="1562.5" y="223"/><ellipse cx="1577.5" cy="243.0938" fill="#FF8B40" rx="11" ry="11" style="stroke:#A80036;stroke-width:1.0;"/><path d="M1577.5,246.375 L1579.0313,240.8438 L1579.0313,240.8438 L1578.5156,240.8438 L1578,240.2188 L1578,239.8438 L1578,239.4688 L1578.5156,238.8438 L1579.0313,238.8438 L1580.9063,238.8438 L1581.4844,238.8438 L1582,239.4688 L1582,239.8438 L1582,240.2188 L1581.4844,240.8438 L1581.4844,240.8438 L1581.0313,240.8438 L1578.6875,248.8438 L1576.3125,248.8438 L1573.8438,240.8438 L1573.5156,240.8438 L1573.5156,240.8438 L1573,240.2188 L1573,239.8438 L1573,239.4688 L1573.5156,238.8438 L1574.0938,238.8438 L1575.9688,238.8438 L1576.4844,238.8438 L1577,239.4688 L1577,239.8438 L1577,240.2188 L1576.4844,240.8438 L1575.9688,240.8438 L1575.9688,240.8438 L1577.5,246.375 Z " fill="#000000"/><text fill="#000000" font-family="sans-serif" font-size="12" font-style="italic" lengthAdjust="spacing" textLength="81" x="1589.5" y="240.457">«value object»</text><text fill="#000000" font-family="sans-serif" font-size="12" lengthAdjust="spacing" textLength="32" x="1614" y="255.5508">Photo</text><line style="stroke:#A80036;stroke-width:1.5;" x1="1563.5" x2="1670.5" y1="263.1875" y2="263.1875"/><!--MD5=[912b7ac3592565191238c2b3c3b935ce]
class BrandName--><rect codeLine="42" fill="#F5F5DC" filter="url(#f1j1q9s2ilw2pj)" height="48.1875" id="BrandName" style="stroke:#A80036;stroke-width:1.5;" width="109" x="1684.5" y="367"/><ellipse cx="1699.5" cy="387.0938" fill="#FF8B40" rx="11" ry="11" style="stroke:#A80036;stroke-width:1.0;"/><path d="M1699.5,390.375 L1701.0313,384.8438 L1701.0313,384.8438 L1700.5156,384.8438 L1700,384.2188 L1700,383.8438 L1700,383.4688 L1700.5156,382.8438 L1701.0313,382.8438 L1702.9063,382.8438 L1703.4844,382.8438 L1704,383.4688 L1704,383.8438 L1704,384.2188 L1703.4844,384.8438 L1703.4844,384.8438 L1703.0313,384.8438 L1700.6875,392.8438 L1698.3125,392.8438 L1695.8438,384.8438 L1695.5156,384.8438 L1695.5156,384.8438 L1695,384.2188 L1695,383.8438 L1695,383.4688 L1695.5156,382.8438 L1696.0938,382.8438 L1697.9688,382.8438 L1698.4844,382.8438 L1699,383.4688 L1699,383.8438 L1699,384.2188 L1698.4844,384.8438 L1697.9688,384.8438 L1697.9688,384.8438 L1699.5,390.375 Z " fill="#000000"/><text fill="#000000" font-family="sans-serif" font-size="12" font-style="italic" lengthAdjust="spacing" textLength="81" x="1711.5" y="384.457">«value object»</text><text fill="#000000" font-family="sans-serif" font-size="12" lengthAdjust="spacing" textLength="67" x="1718.5" y="399.5508">BrandName</text><line style="stroke:#A80036;stroke-width:1.5;" x1="1685.5" x2="1792.5" y1="407.1875" y2="407.1875"/><!--MD5=[a96594a83e2ecdc78cbf17c2ddf01934]
class Category--><rect codeLine="51" fill="#F5F5DC" filter="url(#f1j1q9s2ilw2pj)" height="63.2813" id="Category" style="stroke:#A80036;stroke-width:1.5;" width="81" x="1864.5" y="500"/><ellipse cx="1879.5" cy="527.6406" fill="#ADD1B2" rx="11" ry="11" style="stroke:#A80036;stroke-width:1.0;"/><path d="M1878,528.6406 L1878,530.6406 L1882,530.6406 L1882,529.6406 L1882,529.1563 L1882.625,528.6406 L1883,528.6406 L1883.375,528.6406 L1884,529.1563 L1884,529.6406 L1884,532.6406 L1876,532.6406 L1875.5156,532.6406 L1875,532.0156 L1875,531.6406 L1875,531.2656 L1875.5156,530.6406 L1876,530.6406 L1876,530.6406 L1876,524.6406 L1876,524.6406 L1875.5156,524.6406 L1875,524.0156 L1875,523.6406 L1875,523.2656 L1875.5156,522.6406 L1876,522.6406 L1884,522.6406 L1884,525.6406 L1884,526.125 L1883.375,526.6406 L1883,526.6406 L1882.625,526.6406 L1882,526.125 L1882,525.6406 L1882,524.6406 L1878,524.6406 L1878,526.6406 L1879,526.6406 L1879,526.1563 L1879,526.1563 L1879.625,525.6406 L1880,525.6406 L1880.375,525.6406 L1881,526.1563 L1881,526.6406 L1881,528.6406 L1881,529.125 L1880.375,529.6406 L1880.375,529.6406 L1880,529.6406 L1879.625,529.6406 L1879,529.125 L1879,529.125 L1879,528.6406 L1878,528.6406 Z " fill="#000000"/><text fill="#000000" font-family="sans-serif" font-size="12" font-style="italic" lengthAdjust="spacing" textLength="43" x="1896.5" y="517.457">«entity»</text><text fill="#000000" font-family="sans-serif" font-size="12" font-style="italic" lengthAdjust="spacing" textLength="35" x="1900.5" y="532.5508">«root»</text><text fill="#000000" font-family="sans-serif" font-size="12" lengthAdjust="spacing" textLength="49" x="1893.5" y="547.6445">Category</text><line style="stroke:#A80036;stroke-width:1.5;" x1="1865.5" x2="1944.5" y1="555.2813" y2="555.2813"/><!--MD5=[494e0bdb5c8bb794bcdf99253cad2029]
class AlphanumericCode--><rect codeLine="55" fill="#F5F5DC" filter="url(#f1j1q9s2ilw2pj)" height="48.1875" id="AlphanumericCode" style="stroke:#A80036;stroke-width:1.5;" width="138" x="1677" y="641"/><ellipse cx="1692" cy="661.0938" fill="#FF8B40" rx="11" ry="11" style="stroke:#A80036;stroke-width:1.0;"/><path d="M1692,664.375 L1693.5313,658.8438 L1693.5313,658.8438 L1693.0156,658.8438 L1692.5,658.2188 L1692.5,657.8438 L1692.5,657.4688 L1693.0156,656.8438 L1693.5313,656.8438 L1695.4063,656.8438 L1695.9844,656.8438 L1696.5,657.4688 L1696.5,657.8438 L1696.5,658.2188 L1695.9844,658.8438 L1695.9844,658.8438 L1695.5313,658.8438 L1693.1875,666.8438 L1690.8125,666.8438 L1688.3438,658.8438 L1688.0156,658.8438 L1688.0156,658.8438 L1687.5,658.2188 L1687.5,657.8438 L1687.5,657.4688 L1688.0156,656.8438 L1688.5938,656.8438 L1690.4688,656.8438 L1690.9844,656.8438 L1691.5,657.4688 L1691.5,657.8438 L1691.5,658.2188 L1690.9844,658.8438 L1690.4688,658.8438 L1690.4688,658.8438 L1692,664.375 Z " fill="#000000"/><text fill="#000000" font-family="sans-serif" font-size="12" font-style="italic" lengthAdjust="spacing" textLength="81" x="1718.5" y="658.457">«value object»</text><text fill="#000000" font-family="sans-serif" font-size="12" lengthAdjust="spacing" textLength="106" x="1706" y="673.5508">AlphanumericCode</text><line style="stroke:#A80036;stroke-width:1.5;" x1="1678" x2="1814" y1="681.1875" y2="681.1875"/><!--MD5=[009695af4e54f3bba8a9c60dca3e1c94]
class Description--><rect codeLine="56" fill="#F5F5DC" filter="url(#f1j1q9s2ilw2pj)" height="48.1875" id="Description" style="stroke:#A80036;stroke-width:1.5;" width="109" x="1850.5" y="641"/><ellipse cx="1865.5" cy="661.0938" fill="#FF8B40" rx="11" ry="11" style="stroke:#A80036;stroke-width:1.0;"/><path d="M1865.5,664.375 L1867.0313,658.8438 L1867.0313,658.8438 L1866.5156,658.8438 L1866,658.2188 L1866,657.8438 L1866,657.4688 L1866.5156,656.8438 L1867.0313,656.8438 L1868.9063,656.8438 L1869.4844,656.8438 L1870,657.4688 L1870,657.8438 L1870,658.2188 L1869.4844,658.8438 L1869.4844,658.8438 L1869.0313,658.8438 L1866.6875,666.8438 L1864.3125,666.8438 L1861.8438,658.8438 L1861.5156,658.8438 L1861.5156,658.8438 L1861,658.2188 L1861,657.8438 L1861,657.4688 L1861.5156,656.8438 L1862.0938,656.8438 L1863.9688,656.8438 L1864.4844,656.8438 L1865,657.4688 L1865,657.8438 L1865,658.2188 L1864.4844,658.8438 L1863.9688,658.8438 L1863.9688,658.8438 L1865.5,664.375 Z " fill="#000000"/><text fill="#000000" font-family="sans-serif" font-size="12" font-style="italic" lengthAdjust="spacing" textLength="81" x="1877.5" y="658.457">«value object»</text><text fill="#000000" font-family="sans-serif" font-size="12" lengthAdjust="spacing" textLength="63" x="1886.5" y="673.5508">Description</text><line style="stroke:#A80036;stroke-width:1.5;" x1="1851.5" x2="1958.5" y1="681.1875" y2="681.1875"/><!--MD5=[c3af4a672b55c04d06297fe69cbb7590]
class SuperCategory--><rect codeLine="57" fill="#F5F5DC" filter="url(#f1j1q9s2ilw2pj)" height="48.1875" id="SuperCategory" style="stroke:#A80036;stroke-width:1.5;" width="114" x="1995" y="641"/><ellipse cx="2010" cy="661.0938" fill="#FF8B40" rx="11" ry="11" style="stroke:#A80036;stroke-width:1.0;"/><path d="M2010,664.375 L2011.5313,658.8438 L2011.5313,658.8438 L2011.0156,658.8438 L2010.5,658.2188 L2010.5,657.8438 L2010.5,657.4688 L2011.0156,656.8438 L2011.5313,656.8438 L2013.4063,656.8438 L2013.9844,656.8438 L2014.5,657.4688 L2014.5,657.8438 L2014.5,658.2188 L2013.9844,658.8438 L2013.9844,658.8438 L2013.5313,658.8438 L2011.1875,666.8438 L2008.8125,666.8438 L2006.3438,658.8438 L2006.0156,658.8438 L2006.0156,658.8438 L2005.5,658.2188 L2005.5,657.8438 L2005.5,657.4688 L2006.0156,656.8438 L2006.5938,656.8438 L2008.4688,656.8438 L2008.9844,656.8438 L2009.5,657.4688 L2009.5,657.8438 L2009.5,658.2188 L2008.9844,658.8438 L2008.4688,658.8438 L2008.4688,658.8438 L2010,664.375 Z " fill="#000000"/><text fill="#000000" font-family="sans-serif" font-size="12" font-style="italic" lengthAdjust="spacing" textLength="81" x="2024.5" y="658.457">«value object»</text><text fill="#000000" font-family="sans-serif" font-size="12" lengthAdjust="spacing" textLength="82" x="2024" y="673.5508">SuperCategory</text><line style="stroke:#A80036;stroke-width:1.5;" x1="1996" x2="2108" y1="681.1875" y2="681.1875"/><!--MD5=[41043388d0f8d1cf0966079386e80353]
link Product to Category--><path codeLine="60" d="M1162.25,87.47 C1307.01,93.86 1697.53,118.88 1787,205 C1808.77,225.96 1869.14,414.82 1894.05,494.88 " fill="none" id="Product-to-Category" style="stroke:#222222;stroke-width:1.0;"/><polygon fill="#222222" points="1895.63,500,1896.7735,490.2177,1894.1435,495.2261,1889.1352,492.5961,1895.63,500" style="stroke:#222222;stroke-width:1.0;"/><text fill="#000000" font-family="sans-serif" font-size="13" lengthAdjust="spacing" textLength="74" x="1843" y="333.4951">organized by</text><text fill="#000000" font-family="sans-serif" font-size="13" lengthAdjust="spacing" textLength="7" x="1885.9756" y="489.3555">1</text><!--MD5=[41043388d0f8d1cf0966079386e80353]
link Product to Category--><path codeLine="80" d="M1162.3,84.92 C1273.51,85.18 1534.11,93.24 1741,157 C1784.7,170.47 1796.69,175.94 1832,205 C1882.27,246.37 1902.32,257.61 1924,319 C1944.87,378.08 1929.65,451.93 1917.07,494.9 " fill="none" id="Product-to-Category-1" style="stroke:#222222;stroke-width:1.0;"/><polygon fill="#222222" points="1915.63,499.73,1922.0311,492.2449,1917.0563,494.9377,1914.3635,489.9629,1915.63,499.73" style="stroke:#222222;stroke-width:1.0;"/><text fill="#000000" font-family="sans-serif" font-size="13" lengthAdjust="spacing" textLength="74" x="1930" y="333.4951">organized by</text><text fill="#000000" font-family="sans-serif" font-size="13" lengthAdjust="spacing" textLength="7" x="1910.1006" y="489.0298">1</text><!--MD5=[ff6f7e6c179b97a3a11d359eab0adb49]
link Product to ShortDescription--><path codeLine="61" d="M1053.73,87.63 C851.33,96.15 148.88,130.89 85,205 C47.27,248.77 66.94,322.24 82.02,362.16 " fill="none" id="Product-to-ShortDescription" style="stroke:#222222;stroke-width:1.0;"/><polygon fill="#222222" points="83.83,366.85,84.3265,357.0137,82.0322,362.1844,76.8615,359.8901,83.83,366.85" style="stroke:#222222;stroke-width:1.0;"/><text fill="#000000" font-family="sans-serif" font-size="13" lengthAdjust="spacing" textLength="96" x="86" y="252.4951">characterized by</text><text fill="#000000" font-family="sans-serif" font-size="13" lengthAdjust="spacing" textLength="7" x="73.3271" y="356.1277">1</text><!--MD5=[4de9e0c153cc8910a4dd63bf2609ac94]
link Product to LongDescription--><path codeLine="62" d="M1053.6,86.95 C942.06,90.92 680.04,105.42 467,157 C409.93,170.82 348.69,199.4 308.15,220.47 " fill="none" id="Product-to-LongDescription" style="stroke:#222222;stroke-width:1.0;"/><polygon fill="#222222" points="303.31,223,313.1375,222.3519,307.7355,220.673,309.4144,215.271,303.31,223" style="stroke:#222222;stroke-width:1.0;"/><text fill="#000000" font-family="sans-serif" font-size="13" lengthAdjust="spacing" textLength="96" x="468" y="171.4951">characterized by</text><text fill="#000000" font-family="sans-serif" font-size="13" lengthAdjust="spacing" textLength="7" x="305.9988" y="212.3161">1</text><!--MD5=[308bef9f33132c2b243ec8e9138be5c6]
link Product to TechnicalDescription--><path codeLine="63" d="M1053.78,88.16 C962.47,93.81 773.01,110.53 620,157 C568.76,172.56 513.84,200.14 476.87,220.49 " fill="none" id="Product-to-TechnicalDescription" style="stroke:#222222;stroke-width:1.0;"/><polygon fill="#222222" points="472.45,222.93,482.26,222.0558,476.8208,220.5018,478.3748,215.0626,472.45,222.93" style="stroke:#222222;stroke-width:1.0;"/><text fill="#000000" font-family="sans-serif" font-size="13" lengthAdjust="spacing" textLength="96" x="621" y="171.4951">characterized by</text><text fill="#000000" font-family="sans-serif" font-size="13" lengthAdjust="spacing" textLength="7" x="474.6622" y="212.2282">1</text><!--MD5=[d52d4675e9eec1727cacff8adb24bf93]
link Product to Barcode--><path codeLine="64" d="M1053.87,93.04 C986.43,103.32 868.22,124.3 771,157 C723.51,172.97 713.47,181.92 669,205 C659.78,209.78 650.04,215.13 640.8,220.34 " fill="none" id="Product-to-Barcode" style="stroke:#222222;stroke-width:1.0;"/><polygon fill="#222222" points="636.31,222.88,646.1129,221.9295,640.6617,220.4178,642.1734,214.9667,636.31,222.88" style="stroke:#222222;stroke-width:1.0;"/><text fill="#000000" font-family="sans-serif" font-size="13" lengthAdjust="spacing" textLength="69" x="772" y="171.4951">identified by</text><text fill="#000000" font-family="sans-serif" font-size="13" lengthAdjust="spacing" textLength="7" x="638.4863" y="212.1654">1</text><!--MD5=[7119557809726774d3ef77edfe01616b]
link Product to ProductionCode--><path codeLine="65" d="M1053.64,98.03 C1006.61,109.93 937.48,130.01 881,157 C844.64,174.37 806.7,200.43 780.51,219.87 " fill="none" id="Product-to-ProductionCode" style="stroke:#222222;stroke-width:1.0;"/><polygon fill="#222222" points="776.41,222.93,786.01,220.73,780.41,219.93,781.21,214.33,776.41,222.93" style="stroke:#222222;stroke-width:1.0;"/><text fill="#000000" font-family="sans-serif" font-size="13" lengthAdjust="spacing" textLength="69" x="882" y="171.4951">identified by</text><text fill="#000000" font-family="sans-serif" font-size="13" lengthAdjust="spacing" textLength="22" x="759.1276" y="212.2282">0..1</text><!--MD5=[5fa2e163e1a5922a0d0ebcb119c05bb7]
link Product to Price--><path codeLine="66" d="M1053.99,110.89 C1030.23,123.24 1002.64,139.25 980,157 C963.6,169.86 947.51,186.02 933.94,201.03 " fill="none" id="Product-to-Price" style="stroke:#222222;stroke-width:1.0;"/><polygon fill="#222222" points="930.54,204.82,939.5262,200.7891,933.8777,201.0972,933.5696,195.4487,930.54,204.82" style="stroke:#222222;stroke-width:1.0;"/><text fill="#000000" font-family="sans-serif" font-size="13" lengthAdjust="spacing" textLength="63" x="981" y="171.4951">associated</text><text fill="#000000" font-family="sans-serif" font-size="13" lengthAdjust="spacing" textLength="7" x="928.5154" y="194.0448">1</text><!--MD5=[257a992859c5a0c09beed12c3d44838f]
link Product to Size--><path codeLine="67" d="M1074.47,127.26 C1068.21,136.62 1062.3,146.81 1058,157 C1049.85,176.31 1045.58,199.62 1043.36,217.54 " fill="none" id="Product-to-Size" style="stroke:#222222;stroke-width:1.0;"/><polygon fill="#222222" points="1042.73,222.92,1047.7556,214.4498,1043.315,217.9543,1039.8105,213.5138,1042.73,222.92" style="stroke:#222222;stroke-width:1.0;"/><text fill="#000000" font-family="sans-serif" font-size="13" lengthAdjust="spacing" textLength="63" x="1059" y="171.4951">associated</text><text fill="#000000" font-family="sans-serif" font-size="13" lengthAdjust="spacing" textLength="7" x="1035.2764" y="212.2156">1</text><!--MD5=[21c45546ac8489a13fec8a125b2763ab]
link Product to Weight--><path codeLine="68" d="M1162.22,114.95 C1183.31,127.14 1207.32,141.93 1228,157 C1254.21,176.1 1281.67,200.64 1301.34,219.11 " fill="none" id="Product-to-Weight" style="stroke:#222222;stroke-width:1.0;"/><polygon fill="#222222" points="1305.16,222.72,1301.3655,213.6315,1301.5257,219.286,1295.8711,219.4463,1305.16,222.72" style="stroke:#222222;stroke-width:1.0;"/><text fill="#000000" font-family="sans-serif" font-size="13" lengthAdjust="spacing" textLength="96" x="1250" y="171.4951">characterized by</text><text fill="#000000" font-family="sans-serif" font-size="13" lengthAdjust="spacing" textLength="7" x="1291.1541" y="211.9644">1</text><!--MD5=[dbba7c99e765cab38348dc0774bd3da3]
link Product to Volume--><path codeLine="69" d="M1162.13,95.24 C1213.62,105.85 1292.32,125.63 1355,157 C1388.19,173.61 1421.54,199.86 1444.28,219.55 " fill="none" id="Product-to-Volume" style="stroke:#222222;stroke-width:1.0;"/><polygon fill="#222222" points="1448.12,222.9,1443.9784,213.9643,1444.3562,219.6085,1438.712,219.9863,1448.12,222.9" style="stroke:#222222;stroke-width:1.0;"/><text fill="#000000" font-family="sans-serif" font-size="13" lengthAdjust="spacing" textLength="96" x="1384" y="171.4951">characterized by</text><text fill="#000000" font-family="sans-serif" font-size="13" lengthAdjust="spacing" textLength="7" x="1433.8476" y="212.1905">1</text><!--MD5=[a08fded9ab29299d2f06160dc61bc428]
link Product to Reference--><path codeLine="70" d="M1128.03,127.25 C1141.79,155.93 1159.67,193.21 1171.7,218.28 " fill="none" id="Product-to-Reference" style="stroke:#222222;stroke-width:1.0;"/><polygon fill="#222222" points="1173.88,222.82,1173.5712,212.976,1171.7071,218.3169,1166.3662,216.4527,1173.88,222.82" style="stroke:#222222;stroke-width:1.0;"/><text fill="#000000" font-family="sans-serif" font-size="13" lengthAdjust="spacing" textLength="69" x="1150" y="171.4951">identified by</text><text fill="#000000" font-family="sans-serif" font-size="13" lengthAdjust="spacing" textLength="7" x="1163.1336" y="212.09">1</text><!--MD5=[d712a9affdb0a2e6fd883f05aa145395]
link Product to Photo--><path codeLine="71" d="M1162.1,88.51 C1237.86,94.28 1378.66,110.8 1489,157 C1525.73,172.38 1562.52,199.48 1587.17,219.75 " fill="none" id="Product-to-Photo" style="stroke:#222222;stroke-width:1.0;"/><polygon fill="#222222" points="1591.02,222.94,1586.6635,214.107,1587.1777,219.7405,1581.5443,220.2547,1591.02,222.94" style="stroke:#222222;stroke-width:1.0;"/><text fill="#000000" font-family="sans-serif" font-size="13" lengthAdjust="spacing" textLength="56" x="1525" y="171.4951">described</text><text fill="#000000" font-family="sans-serif" font-size="13" lengthAdjust="spacing" textLength="20" x="1561.8001" y="212.2408">1..*</text><!--MD5=[3cb408ea3cff5a6a2040d64500281f76]
link Product to BrandName--><path codeLine="72" d="M1162.37,88.3 C1293.65,96.32 1622.09,124.2 1689,205 C1726.77,250.61 1736.19,322.24 1738.42,361.65 " fill="none" id="Product-to-BrandName" style="stroke:#222222;stroke-width:1.0;"/><polygon fill="#222222" points="1738.68,366.76,1742.2387,357.5765,1738.4374,361.7659,1734.2481,357.9647,1738.68,366.76" style="stroke:#222222;stroke-width:1.0;"/><text fill="#000000" font-family="sans-serif" font-size="13" lengthAdjust="spacing" textLength="50" x="1728" y="252.4951">made by</text><text fill="#000000" font-family="sans-serif" font-size="13" lengthAdjust="spacing" textLength="7" x="1730.7011" y="356.0146">1</text><!--MD5=[dd62927d278b59ce5c0835a45bf7cdf2]
link Category to AlphanumericCode--><path codeLine="75" d="M1864.44,561.6 C1851.33,571.32 1836.86,582.39 1824,593 C1806.96,607.06 1788.66,623.64 1774.06,637.24 " fill="none" id="Category-to-AlphanumericCode" style="stroke:#222222;stroke-width:1.0;"/><polygon fill="#222222" points="1770.05,640.99,1779.3583,637.7721,1773.7048,637.5779,1773.899,631.9244,1770.05,640.99" style="stroke:#222222;stroke-width:1.0;"/><text fill="#000000" font-family="sans-serif" font-size="13" lengthAdjust="spacing" textLength="69" x="1825" y="607.4951">identified by</text><text fill="#000000" font-family="sans-serif" font-size="13" lengthAdjust="spacing" textLength="7" x="1768.3159" y="630.3036">1</text><!--MD5=[ea0a2a058c4fe78704979bc0affba79e]
link Category to Description--><path codeLine="76" d="M1904.3,563.07 C1904.04,577.59 1903.85,595.19 1904,611 C1904.07,618.93 1904.21,627.52 1904.36,635.43 " fill="none" id="Category-to-Description" style="stroke:#222222;stroke-width:1.0;"/><polygon fill="#222222" points="1904.47,640.78,1908.2892,631.7018,1904.37,635.781,1900.2908,631.8618,1904.47,640.78" style="stroke:#222222;stroke-width:1.0;"/><text fill="#000000" font-family="sans-serif" font-size="13" lengthAdjust="spacing" textLength="96" x="1905" y="607.4951">characterized by</text><text fill="#000000" font-family="sans-serif" font-size="13" lengthAdjust="spacing" textLength="7" x="1896.4373" y="630.0398">1</text><!--MD5=[1bcd48e016ecdb5871d991f24ac09829]
link Category to SuperCategory--><path codeLine="77" d="M1945.78,551.42 C1965.45,561.85 1988.5,576.11 2006,593 C2018.91,605.46 2029.98,622.21 2038.02,636.3 " fill="none" id="Category-to-SuperCategory" style="stroke:#222222;stroke-width:1.0;"/><polygon fill="#222222" points="2040.63,640.97,2039.7177,631.1635,2038.1848,636.6087,2032.7396,635.0758,2040.63,640.97" style="stroke:#222222;stroke-width:1.0;"/><text fill="#000000" font-family="sans-serif" font-size="13" lengthAdjust="spacing" textLength="60" x="2022" y="607.4951">belongs to</text><text fill="#000000" font-family="sans-serif" font-size="13" lengthAdjust="spacing" textLength="22" x="2012.8977" y="630.2785">0..1</text><!--MD5=[9a47d55b4147e9b6dc3f3985c246b73e]
@startuml
'https://plantuml.com/class-diagram

skinparam classAttributeIconSize 0
hide empty attributes
skinparam classBackgroundColor beige
skinparam ArrowColor #222222

package "<<aggregate>> Product" {
    entity Product
    class ShortDescription
    class LongDescription
    class TechnicalDescription
    class Barcode
    class ProductionCode
    class Price
    class Size
    class Reference
    class Weight
    class Volume
    class Photo
    class BrandName
}

entity Product <<entity>> <<root>> {
    - uniqueInternalCode
}

class ShortDescription <<(V,#FF8B40) value object>>
class LongDescription <<(V,#FF8B40) value object>>
class TechnicalDescription <<(V,#FF8B40) value object>>
class Barcode <<(V,#FF8B40) value object>>
class ProductionCode <<(V,#FF8B40) value object>>
class Price <<(V,#FF8B40) value object>> {
    - withoutVAT
    - withVAT
}
class Size <<(V,#FF8B40) value object>>
class Reference <<(V,#FF8B40) value object>> {}
class Weight <<(V,#FF8B40) value object>> {}
class Volume <<(V,#FF8B40) value object>> {}
class Photo <<(V,#FF8B40) value object>>{}
class BrandName <<(V,#FF8B40) value object>>{}

package "<<aggregate>> Category" {
    entity Category
    class AlphanumericCode
    class Description
    class SuperCategory
    }

entity Category <<entity>> <<root>> {

}

class AlphanumericCode <<(V,#FF8B40) value object>>
class Description <<(V,#FF8B40) value object>>
class SuperCategory <<(V,#FF8B40) value object>>


Product - - - -> "1" Category : organized by
Product - - -> "1" ShortDescription: characterized by
Product - -> "1" LongDescription: characterized by
Product - -> "1" TechnicalDescription: characterized by
Product - -> "1" Barcode: identified by
Product - -> "0..1" ProductionCode: identified by
Product - -> "1" Price: associated
Product - -> "1" Size: associated
Product - -> "1" Weight: characterized by
Product - -> "1" Volume: characterized by
Product - -> "1" Reference : identified by
Product - -> "1..*" Photo : described
Product - - -> "1" BrandName : made by


Category - -> "1" AlphanumericCode : identified by
Category - -> "1" Description : characterized by
Category - -> "0..1" SuperCategory : belongs to


Product - -> "1" Category : organized by



@enduml

@startuml

skinparam classAttributeIconSize 0
hide empty attributes
skinparam classBackgroundColor beige
skinparam ArrowColor #222222

package "<<aggregate>> Product" {
    entity Product
    class ShortDescription
    class LongDescription
    class TechnicalDescription
    class Barcode
    class ProductionCode
    class Price
    class Size
    class Reference
    class Weight
    class Volume
    class Photo
    class BrandName
}

entity Product <<entity>> <<root>> {
    - uniqueInternalCode
}

class ShortDescription <<(V,#FF8B40) value object>>
class LongDescription <<(V,#FF8B40) value object>>
class TechnicalDescription <<(V,#FF8B40) value object>>
class Barcode <<(V,#FF8B40) value object>>
class ProductionCode <<(V,#FF8B40) value object>>
class Price <<(V,#FF8B40) value object>> {
    - withoutVAT
    - withVAT
}
class Size <<(V,#FF8B40) value object>>
class Reference <<(V,#FF8B40) value object>> {}
class Weight <<(V,#FF8B40) value object>> {}
class Volume <<(V,#FF8B40) value object>> {}
class Photo <<(V,#FF8B40) value object>>{}
class BrandName <<(V,#FF8B40) value object>>{}

package "<<aggregate>> Category" {
    entity Category
    class AlphanumericCode
    class Description
    class SuperCategory
    }

entity Category <<entity>> <<root>> {

}

class AlphanumericCode <<(V,#FF8B40) value object>>
class Description <<(V,#FF8B40) value object>>
class SuperCategory <<(V,#FF8B40) value object>>


Product - - - -> "1" Category : organized by
Product - - -> "1" ShortDescription: characterized by
Product - -> "1" LongDescription: characterized by
Product - -> "1" TechnicalDescription: characterized by
Product - -> "1" Barcode: identified by
Product - -> "0..1" ProductionCode: identified by
Product - -> "1" Price: associated
Product - -> "1" Size: associated
Product - -> "1" Weight: characterized by
Product - -> "1" Volume: characterized by
Product - -> "1" Reference : identified by
Product - -> "1..*" Photo : described
Product - - -> "1" BrandName : made by


Category - -> "1" AlphanumericCode : identified by
Category - -> "1" Description : characterized by
Category - -> "0..1" SuperCategory : belongs to


Product - -> "1" Category : organized by



@enduml

PlantUML version 1.2022.1(Tue Feb 01 18:19:58 GMT 2022)
(GPL source distribution)
Java Runtime: OpenJDK Runtime Environment
JVM: OpenJDK 64-Bit Server VM
Default Encoding: Cp1252
Language: pt
Country: BR
--></g></svg>