<?xml version="1.0" encoding="UTF-8" standalone="no"?><svg xmlns="http://www.w3.org/2000/svg" xmlns:xlink="http://www.w3.org/1999/xlink" contentStyleType="text/css" height="1206px" preserveAspectRatio="none" style="width:894px;height:1206px;background:#FFFFFF;" version="1.1" viewBox="0 0 894 1206" width="894px" zoomAndPan="magnify"><defs/><g><!--MD5=[64e2e010ba86d7988e5cd73bd64f61f9]
cluster ui--><g id="cluster_ui"><path d="M78.5,6 L92.5,6 A3.75,3.75 0 0 1 95,8.5 L102,29.6094 L265.5,29.6094 A2.5,2.5 0 0 1 268,32.1094 L268,103.5 A2.5,2.5 0 0 1 265.5,106 L78.5,106 A2.5,2.5 0 0 1 76,103.5 L76,8.5 A2.5,2.5 0 0 1 78.5,6 " style="stroke:#000000;stroke-width:1.5;fill:none;"/><line style="stroke:#000000;stroke-width:1.5;fill:none;" x1="76" x2="102" y1="29.6094" y2="29.6094"/><text fill="#000000" font-family="sans-serif" font-size="14" font-weight="bold" lengthAdjust="spacing" textLength="13" x="80" y="22.5332">ui</text></g><!--MD5=[d44cf5b4e38348dd536c7ae84bb3b9a6]
cluster surveymanagement--><g id="cluster_surveymanagement"><path d="M8.5,130 L147.5,130 A3.75,3.75 0 0 1 150,132.5 L157,153.6094 L884.5,153.6094 A2.5,2.5 0 0 1 887,156.1094 L887,1196.5 A2.5,2.5 0 0 1 884.5,1199 L8.5,1199 A2.5,2.5 0 0 1 6,1196.5 L6,132.5 A2.5,2.5 0 0 1 8.5,130 " style="stroke:#000000;stroke-width:1.5;fill:none;"/><line style="stroke:#000000;stroke-width:1.5;fill:none;" x1="6" x2="157" y1="153.6094" y2="153.6094"/><text fill="#000000" font-family="sans-serif" font-size="14" font-weight="bold" lengthAdjust="spacing" textLength="138" x="10" y="146.5332">surveymanagement</text></g><!--MD5=[3ff016c1aa5003d713567a073e2181a6]
cluster application--><g id="cluster_application"><path d="M32.5,174 L110.5,174 A3.75,3.75 0 0 1 113,176.5 L120,197.6094 L311.5,197.6094 A2.5,2.5 0 0 1 314,200.1094 L314,289.5 A2.5,2.5 0 0 1 311.5,292 L32.5,292 A2.5,2.5 0 0 1 30,289.5 L30,176.5 A2.5,2.5 0 0 1 32.5,174 " style="stroke:#000000;stroke-width:1.5;fill:none;"/><line style="stroke:#000000;stroke-width:1.5;fill:none;" x1="30" x2="120" y1="197.6094" y2="197.6094"/><text fill="#000000" font-family="sans-serif" font-size="14" font-weight="bold" lengthAdjust="spacing" textLength="77" x="34" y="190.5332">application</text></g><!--MD5=[c67341a0e34a6f6e14dde0026c7f77bb]
cluster antlr--><g id="cluster_antlr"><path d="M32.5,414 L65.5,414 A3.75,3.75 0 0 1 68,416.5 L75,437.6094 L860.5,437.6094 A2.5,2.5 0 0 1 863,440.1094 L863,942.5 A2.5,2.5 0 0 1 860.5,945 L32.5,945 A2.5,2.5 0 0 1 30,942.5 L30,416.5 A2.5,2.5 0 0 1 32.5,414 " style="stroke:#000000;stroke-width:1.5;fill:none;"/><line style="stroke:#000000;stroke-width:1.5;fill:none;" x1="30" x2="75" y1="437.6094" y2="437.6094"/><text fill="#000000" font-family="sans-serif" font-size="14" font-weight="bold" lengthAdjust="spacing" textLength="32" x="34" y="430.5332">antlr</text></g><!--MD5=[dd3c0fb9bb6cb17af8b1c791909e3e73]
cluster eapli.base.surveymanagement.antr--><g id="cluster_eapli.base.surveymanagement.antr"><path d="M56.5,458 L303.5,458 A3.75,3.75 0 0 1 306,460.5 L313,481.6094 L836.5,481.6094 A2.5,2.5 0 0 1 839,484.1094 L839,918.5 A2.5,2.5 0 0 1 836.5,921 L56.5,921 A2.5,2.5 0 0 1 54,918.5 L54,460.5 A2.5,2.5 0 0 1 56.5,458 " style="stroke:#000000;stroke-width:1.5;fill:none;"/><line style="stroke:#000000;stroke-width:1.5;fill:none;" x1="54" x2="313" y1="481.6094" y2="481.6094"/><text fill="#000000" font-family="sans-serif" font-size="14" font-weight="bold" lengthAdjust="spacing" textLength="246" x="58" y="474.5332">eapli.base.surveymanagement.antr</text></g><!--MD5=[27f772719433d509ddbc20ff768eba08]
cluster domain--><g id="cluster_domain"><path d="M37.5,969 L89.5,969 A3.75,3.75 0 0 1 92,971.5 L99,992.6094 L558.5,992.6094 A2.5,2.5 0 0 1 561,995.1094 L561,1172.5 A2.5,2.5 0 0 1 558.5,1175 L37.5,1175 A2.5,2.5 0 0 1 35,1172.5 L35,971.5 A2.5,2.5 0 0 1 37.5,969 " style="stroke:#000000;stroke-width:1.5;fill:none;"/><line style="stroke:#000000;stroke-width:1.5;fill:none;" x1="35" x2="99" y1="992.6094" y2="992.6094"/><text fill="#000000" font-family="sans-serif" font-size="14" font-weight="bold" lengthAdjust="spacing" textLength="51" x="39" y="985.5332">domain</text></g><!--MD5=[5b88fb42a04b4873c1b9602a9d5274e3]
class NewQuestionnaireUI--><g id="elem_NewQuestionnaireUI"><rect codeLine="6" fill="#F1F1F1" height="48" id="NewQuestionnaireUI" rx="2.5" ry="2.5" style="stroke:#181818;stroke-width:0.5;" width="159" x="92.5" y="42"/><ellipse cx="107.5" cy="58" fill="#ADD1B2" rx="11" ry="11" style="stroke:#181818;stroke-width:1.0;"/><path d="M109.5,54.5 Q109.7031,54 109.9375,53.75 Q110.1719,53.5 110.4375,53.5 Q110.9063,53.5 111.2031,53.7813 Q111.5,54.0625 111.5,54.7188 L111.5,56.2813 Q111.5,56.9375 111.2188,57.2188 Q110.9375,57.5 110.5,57.5 Q110.1094,57.5 109.8594,57.3281 Q109.6094,57.1563 109.5,56.7031 Q109.4531,56.3906 109.2813,56.2188 Q108.9688,55.8906 108.4063,55.7031 Q107.8438,55.5 107.2813,55.5 Q106.5781,55.5 105.9844,55.7813 Q105.4063,56.0625 104.9531,56.6875 Q104.5,57.3125 104.5,58.1719 L104.5,59.0938 Q104.5,60.125 105.3438,60.8125 Q106.1875,61.5 107.6875,61.5 Q108.5781,61.5 109.2031,61.2969 Q109.5625,61.1875 109.9688,60.8281 Q110.2344,60.625 110.375,60.5625 Q110.5156,60.5 110.6875,60.5 Q111.0156,60.5 111.25,60.7656 Q111.5,61.0156 111.5,61.375 Q111.5,61.7188 111.1563,62.125 Q110.6563,62.7188 109.8594,63.0469 Q108.8125,63.5 107.5313,63.5 Q106.0313,63.5 104.8281,62.9063 Q103.8594,62.4375 103.1719,61.4219 Q102.5,60.4063 102.5,59.2031 L102.5,58.1094 Q102.5,56.8594 103.0938,55.7656 Q103.7031,54.6719 104.75,54.0938 Q105.8125,53.5 107,53.5 Q107.7188,53.5 108.3438,53.75 Q108.9688,54 109.5,54.5 Z " fill="#000000"/><text fill="#000000" font-family="sans-serif" font-size="14" lengthAdjust="spacing" textLength="127" x="121.5" y="63.7285">NewQuestionnaireUI</text><line style="stroke:#181818;stroke-width:0.5;" x1="93.5" x2="250.5" y1="74" y2="74"/><line style="stroke:#181818;stroke-width:0.5;" x1="93.5" x2="250.5" y1="82" y2="82"/></g><!--MD5=[504861bf9db31b8374cd44cb3c372d79]
class CreateNewQuestionnaireController--><g id="elem_CreateNewQuestionnaireController"><rect codeLine="12" fill="#F1F1F1" height="65.6094" id="CreateNewQuestionnaireController" rx="2.5" ry="2.5" style="stroke:#181818;stroke-width:0.5;" width="252" x="46" y="210"/><ellipse cx="61" cy="226" fill="#ADD1B2" rx="11" ry="11" style="stroke:#181818;stroke-width:1.0;"/><path d="M63,222.5 Q63.2031,222 63.4375,221.75 Q63.6719,221.5 63.9375,221.5 Q64.4063,221.5 64.7031,221.7813 Q65,222.0625 65,222.7188 L65,224.2813 Q65,224.9375 64.7188,225.2188 Q64.4375,225.5 64,225.5 Q63.6094,225.5 63.3594,225.3281 Q63.1094,225.1563 63,224.7031 Q62.9531,224.3906 62.7813,224.2188 Q62.4688,223.8906 61.9063,223.7031 Q61.3438,223.5 60.7813,223.5 Q60.0781,223.5 59.4844,223.7813 Q58.9063,224.0625 58.4531,224.6875 Q58,225.3125 58,226.1719 L58,227.0938 Q58,228.125 58.8438,228.8125 Q59.6875,229.5 61.1875,229.5 Q62.0781,229.5 62.7031,229.2969 Q63.0625,229.1875 63.4688,228.8281 Q63.7344,228.625 63.875,228.5625 Q64.0156,228.5 64.1875,228.5 Q64.5156,228.5 64.75,228.7656 Q65,229.0156 65,229.375 Q65,229.7188 64.6563,230.125 Q64.1563,230.7188 63.3594,231.0469 Q62.3125,231.5 61.0313,231.5 Q59.5313,231.5 58.3281,230.9063 Q57.3594,230.4375 56.6719,229.4219 Q56,228.4063 56,227.2031 L56,226.1094 Q56,224.8594 56.5938,223.7656 Q57.2031,222.6719 58.25,222.0938 Q59.3125,221.5 60.5,221.5 Q61.2188,221.5 61.8438,221.75 Q62.4688,222 63,222.5 Z " fill="#000000"/><text fill="#000000" font-family="sans-serif" font-size="14" lengthAdjust="spacing" textLength="220" x="75" y="231.7285">CreateNewQuestionnaireController</text><line style="stroke:#181818;stroke-width:0.5;" x1="47" x2="297" y1="242" y2="242"/><line style="stroke:#181818;stroke-width:0.5;" x1="47" x2="297" y1="250" y2="250"/><text fill="#000000" font-family="sans-serif" font-size="14" lengthAdjust="spacing" textLength="165" x="52" y="268.5332">+createQuestionnaire(file)</text></g><!--MD5=[e91aa55a7c2578901ab74514bd0c436d]
class SurveyLexer--><g id="elem_SurveyLexer"><rect codeLine="19" fill="#F1F1F1" height="224.0938" id="SurveyLexer" rx="2.5" ry="2.5" style="stroke:#181818;stroke-width:0.5;" width="168" x="257" y="503"/><ellipse cx="297.65" cy="519" fill="#ADD1B2" rx="11" ry="11" style="stroke:#181818;stroke-width:1.0;"/><path d="M299.65,515.5 Q299.8531,515 300.0875,514.75 Q300.3219,514.5 300.5875,514.5 Q301.0563,514.5 301.3531,514.7813 Q301.65,515.0625 301.65,515.7188 L301.65,517.2813 Q301.65,517.9375 301.3688,518.2188 Q301.0875,518.5 300.65,518.5 Q300.2594,518.5 300.0094,518.3281 Q299.7594,518.1563 299.65,517.7031 Q299.6031,517.3906 299.4313,517.2188 Q299.1188,516.8906 298.5563,516.7031 Q297.9938,516.5 297.4313,516.5 Q296.7281,516.5 296.1344,516.7813 Q295.5563,517.0625 295.1031,517.6875 Q294.65,518.3125 294.65,519.1719 L294.65,520.0938 Q294.65,521.125 295.4938,521.8125 Q296.3375,522.5 297.8375,522.5 Q298.7281,522.5 299.3531,522.2969 Q299.7125,522.1875 300.1188,521.8281 Q300.3844,521.625 300.525,521.5625 Q300.6656,521.5 300.8375,521.5 Q301.1656,521.5 301.4,521.7656 Q301.65,522.0156 301.65,522.375 Q301.65,522.7188 301.3063,523.125 Q300.8063,523.7188 300.0094,524.0469 Q298.9625,524.5 297.6813,524.5 Q296.1813,524.5 294.9781,523.9063 Q294.0094,523.4375 293.3219,522.4219 Q292.65,521.4063 292.65,520.2031 L292.65,519.1094 Q292.65,517.8594 293.2438,516.7656 Q293.8531,515.6719 294.9,515.0938 Q295.9625,514.5 297.15,514.5 Q297.8688,514.5 298.4938,514.75 Q299.1188,515 299.65,515.5 Z " fill="#000000"/><text fill="#000000" font-family="sans-serif" font-size="14" lengthAdjust="spacing" textLength="79" x="317.35" y="524.7285">SurveyLexer</text><line style="stroke:#181818;stroke-width:0.5;" x1="258" x2="424" y1="535" y2="535"/><line style="stroke:#181818;stroke-width:0.5;" x1="258" x2="424" y1="543" y2="543"/><text fill="#000000" font-family="sans-serif" font-size="14" lengthAdjust="spacing" textLength="131" x="263" y="561.5332">-makeLiteralNames()</text><text fill="#000000" font-family="sans-serif" font-size="14" lengthAdjust="spacing" textLength="148" x="263" y="579.1426">-makeSymbolicNames()</text><text fill="#000000" font-family="sans-serif" font-size="14" lengthAdjust="spacing" textLength="121" x="263" y="596.752">+getTokenNames()</text><text fill="#000000" font-family="sans-serif" font-size="14" lengthAdjust="spacing" textLength="109" x="263" y="614.3613">+getVocabulary()</text><text fill="#000000" font-family="sans-serif" font-size="14" lengthAdjust="spacing" textLength="156" x="263" y="631.9707">+getGrammarFileName()</text><text fill="#000000" font-family="sans-serif" font-size="14" lengthAdjust="spacing" textLength="110" x="263" y="649.5801">+getRuleNames()</text><text fill="#000000" font-family="sans-serif" font-size="14" lengthAdjust="spacing" textLength="126" x="263" y="667.1895">+getSerializedATN()</text><text fill="#000000" font-family="sans-serif" font-size="14" lengthAdjust="spacing" textLength="134" x="263" y="684.7988">+getChannelNames()</text><text fill="#000000" font-family="sans-serif" font-size="14" lengthAdjust="spacing" textLength="119" x="263" y="702.4082">+getModelNames()</text><text fill="#000000" font-family="sans-serif" font-size="14" lengthAdjust="spacing" textLength="65" x="263" y="720.0176">+getATN()</text></g><!--MD5=[81d1ae2beabfa3b321b4411d0f3b170d]
class SurveyParser--><g id="elem_SurveyParser"><rect codeLine="32" fill="#F1F1F1" height="241.7031" id="SurveyParser" rx="2.5" ry="2.5" style="stroke:#181818;stroke-width:0.5;" width="168" x="460" y="494"/><ellipse cx="497.5" cy="510" fill="#ADD1B2" rx="11" ry="11" style="stroke:#181818;stroke-width:1.0;"/><path d="M499.5,506.5 Q499.7031,506 499.9375,505.75 Q500.1719,505.5 500.4375,505.5 Q500.9063,505.5 501.2031,505.7813 Q501.5,506.0625 501.5,506.7188 L501.5,508.2813 Q501.5,508.9375 501.2188,509.2188 Q500.9375,509.5 500.5,509.5 Q500.1094,509.5 499.8594,509.3281 Q499.6094,509.1563 499.5,508.7031 Q499.4531,508.3906 499.2813,508.2188 Q498.9688,507.8906 498.4063,507.7031 Q497.8438,507.5 497.2813,507.5 Q496.5781,507.5 495.9844,507.7813 Q495.4063,508.0625 494.9531,508.6875 Q494.5,509.3125 494.5,510.1719 L494.5,511.0938 Q494.5,512.125 495.3438,512.8125 Q496.1875,513.5 497.6875,513.5 Q498.5781,513.5 499.2031,513.2969 Q499.5625,513.1875 499.9688,512.8281 Q500.2344,512.625 500.375,512.5625 Q500.5156,512.5 500.6875,512.5 Q501.0156,512.5 501.25,512.7656 Q501.5,513.0156 501.5,513.375 Q501.5,513.7188 501.1563,514.125 Q500.6563,514.7188 499.8594,515.0469 Q498.8125,515.5 497.5313,515.5 Q496.0313,515.5 494.8281,514.9063 Q493.8594,514.4375 493.1719,513.4219 Q492.5,512.4063 492.5,511.2031 L492.5,510.1094 Q492.5,508.8594 493.0938,507.7656 Q493.7031,506.6719 494.75,506.0938 Q495.8125,505.5 497,505.5 Q497.7188,505.5 498.3438,505.75 Q498.9688,506 499.5,506.5 Z " fill="#000000"/><text fill="#000000" font-family="sans-serif" font-size="14" lengthAdjust="spacing" textLength="86" x="516.5" y="515.7285">SurveyParser</text><line style="stroke:#181818;stroke-width:0.5;" x1="461" x2="627" y1="526" y2="526"/><line style="stroke:#181818;stroke-width:0.5;" x1="461" x2="627" y1="534" y2="534"/><text fill="#000000" font-family="sans-serif" font-size="14" lengthAdjust="spacing" textLength="131" x="466" y="552.5332">-makeLiteralNames()</text><text fill="#000000" font-family="sans-serif" font-size="14" lengthAdjust="spacing" textLength="148" x="466" y="570.1426">-makeSymbolicNames()</text><text fill="#000000" font-family="sans-serif" font-size="14" lengthAdjust="spacing" textLength="121" x="466" y="587.752">+getTokenNames()</text><text fill="#000000" font-family="sans-serif" font-size="14" lengthAdjust="spacing" textLength="109" x="466" y="605.3613">+getVocabulary()</text><text fill="#000000" font-family="sans-serif" font-size="14" lengthAdjust="spacing" textLength="156" x="466" y="622.9707">+getGrammarFileName()</text><text fill="#000000" font-family="sans-serif" font-size="14" lengthAdjust="spacing" textLength="110" x="466" y="640.5801">+getRuleNames()</text><text fill="#000000" font-family="sans-serif" font-size="14" lengthAdjust="spacing" textLength="126" x="466" y="658.1895">+getSerializedATN()</text><text fill="#000000" font-family="sans-serif" font-size="14" lengthAdjust="spacing" textLength="134" x="466" y="675.7988">+getChannelNames()</text><text fill="#000000" font-family="sans-serif" font-size="14" lengthAdjust="spacing" textLength="119" x="466" y="693.4082">+getModelNames()</text><text fill="#000000" font-family="sans-serif" font-size="14" lengthAdjust="spacing" textLength="65" x="466" y="711.0176">+getATN()</text><text fill="#000000" font-family="sans-serif" font-size="14" lengthAdjust="spacing" textLength="46" x="466" y="728.627">+start()</text></g><!--MD5=[bf4254b6de1d7a504af586674b46b755]
class QuestionnaireMain--><g id="elem_QuestionnaireMain"><rect codeLine="46" fill="#F1F1F1" height="65.6094" id="QuestionnaireMain" rx="2.5" ry="2.5" style="stroke:#181818;stroke-width:0.5;" width="151" x="70.5" y="582"/><ellipse cx="85.5" cy="598" fill="#ADD1B2" rx="11" ry="11" style="stroke:#181818;stroke-width:1.0;"/><path d="M87.5,594.5 Q87.7031,594 87.9375,593.75 Q88.1719,593.5 88.4375,593.5 Q88.9063,593.5 89.2031,593.7813 Q89.5,594.0625 89.5,594.7188 L89.5,596.2813 Q89.5,596.9375 89.2188,597.2188 Q88.9375,597.5 88.5,597.5 Q88.1094,597.5 87.8594,597.3281 Q87.6094,597.1563 87.5,596.7031 Q87.4531,596.3906 87.2813,596.2188 Q86.9688,595.8906 86.4063,595.7031 Q85.8438,595.5 85.2813,595.5 Q84.5781,595.5 83.9844,595.7813 Q83.4063,596.0625 82.9531,596.6875 Q82.5,597.3125 82.5,598.1719 L82.5,599.0938 Q82.5,600.125 83.3438,600.8125 Q84.1875,601.5 85.6875,601.5 Q86.5781,601.5 87.2031,601.2969 Q87.5625,601.1875 87.9688,600.8281 Q88.2344,600.625 88.375,600.5625 Q88.5156,600.5 88.6875,600.5 Q89.0156,600.5 89.25,600.7656 Q89.5,601.0156 89.5,601.375 Q89.5,601.7188 89.1563,602.125 Q88.6563,602.7188 87.8594,603.0469 Q86.8125,603.5 85.5313,603.5 Q84.0313,603.5 82.8281,602.9063 Q81.8594,602.4375 81.1719,601.4219 Q80.5,600.4063 80.5,599.2031 L80.5,598.1094 Q80.5,596.8594 81.0938,595.7656 Q81.7031,594.6719 82.75,594.0938 Q83.8125,593.5 85,593.5 Q85.7188,593.5 86.3438,593.75 Q86.9688,594 87.5,594.5 Z " fill="#000000"/><text fill="#000000" font-family="sans-serif" font-size="14" lengthAdjust="spacing" textLength="119" x="99.5" y="603.7285">QuestionnaireMain</text><line style="stroke:#181818;stroke-width:0.5;" x1="71.5" x2="220.5" y1="614" y2="614"/><line style="stroke:#181818;stroke-width:0.5;" x1="71.5" x2="220.5" y1="622" y2="622"/><text fill="#000000" font-family="sans-serif" font-size="14" lengthAdjust="spacing" textLength="139" x="76.5" y="640.5332">+parseWithVisitor(file)</text></g><!--MD5=[6a3b1d4fa084eed51f01863968411e0d]
class QuestionnaireVisitor--><g id="elem_QuestionnaireVisitor"><rect codeLine="50" fill="#F1F1F1" height="48" id="QuestionnaireVisitor" rx="2.5" ry="2.5" style="stroke:#181818;stroke-width:0.5;" width="160" x="663" y="591"/><ellipse cx="678" cy="607" fill="#ADD1B2" rx="11" ry="11" style="stroke:#181818;stroke-width:1.0;"/><path d="M680,603.5 Q680.2031,603 680.4375,602.75 Q680.6719,602.5 680.9375,602.5 Q681.4063,602.5 681.7031,602.7813 Q682,603.0625 682,603.7188 L682,605.2813 Q682,605.9375 681.7188,606.2188 Q681.4375,606.5 681,606.5 Q680.6094,606.5 680.3594,606.3281 Q680.1094,606.1563 680,605.7031 Q679.9531,605.3906 679.7813,605.2188 Q679.4688,604.8906 678.9063,604.7031 Q678.3438,604.5 677.7813,604.5 Q677.0781,604.5 676.4844,604.7813 Q675.9063,605.0625 675.4531,605.6875 Q675,606.3125 675,607.1719 L675,608.0938 Q675,609.125 675.8438,609.8125 Q676.6875,610.5 678.1875,610.5 Q679.0781,610.5 679.7031,610.2969 Q680.0625,610.1875 680.4688,609.8281 Q680.7344,609.625 680.875,609.5625 Q681.0156,609.5 681.1875,609.5 Q681.5156,609.5 681.75,609.7656 Q682,610.0156 682,610.375 Q682,610.7188 681.6563,611.125 Q681.1563,611.7188 680.3594,612.0469 Q679.3125,612.5 678.0313,612.5 Q676.5313,612.5 675.3281,611.9063 Q674.3594,611.4375 673.6719,610.4219 Q673,609.4063 673,608.2031 L673,607.1094 Q673,605.8594 673.5938,604.7656 Q674.2031,603.6719 675.25,603.0938 Q676.3125,602.5 677.5,602.5 Q678.2188,602.5 678.8438,602.75 Q679.4688,603 680,603.5 Z " fill="#000000"/><text fill="#000000" font-family="sans-serif" font-size="14" lengthAdjust="spacing" textLength="128" x="692" y="612.7285">QuestionnaireVisitor</text><line style="stroke:#181818;stroke-width:0.5;" x1="664" x2="822" y1="623" y2="623"/><line style="stroke:#181818;stroke-width:0.5;" x1="664" x2="822" y1="631" y2="631"/></g><!--MD5=[feef62c5ce2ca647bb4c8ee1cc815604]
class SurveyBaseListener--><g id="elem_SurveyBaseListener"><rect codeLine="52" fill="#F1F1F1" height="48" id="SurveyBaseListener" rx="2.5" ry="2.5" style="stroke:#181818;stroke-width:0.5;" width="159" x="70.5" y="857"/><ellipse cx="85.5" cy="873" fill="#ADD1B2" rx="11" ry="11" style="stroke:#181818;stroke-width:1.0;"/><path d="M87.5,869.5 Q87.7031,869 87.9375,868.75 Q88.1719,868.5 88.4375,868.5 Q88.9063,868.5 89.2031,868.7813 Q89.5,869.0625 89.5,869.7188 L89.5,871.2813 Q89.5,871.9375 89.2188,872.2188 Q88.9375,872.5 88.5,872.5 Q88.1094,872.5 87.8594,872.3281 Q87.6094,872.1563 87.5,871.7031 Q87.4531,871.3906 87.2813,871.2188 Q86.9688,870.8906 86.4063,870.7031 Q85.8438,870.5 85.2813,870.5 Q84.5781,870.5 83.9844,870.7813 Q83.4063,871.0625 82.9531,871.6875 Q82.5,872.3125 82.5,873.1719 L82.5,874.0938 Q82.5,875.125 83.3438,875.8125 Q84.1875,876.5 85.6875,876.5 Q86.5781,876.5 87.2031,876.2969 Q87.5625,876.1875 87.9688,875.8281 Q88.2344,875.625 88.375,875.5625 Q88.5156,875.5 88.6875,875.5 Q89.0156,875.5 89.25,875.7656 Q89.5,876.0156 89.5,876.375 Q89.5,876.7188 89.1563,877.125 Q88.6563,877.7188 87.8594,878.0469 Q86.8125,878.5 85.5313,878.5 Q84.0313,878.5 82.8281,877.9063 Q81.8594,877.4375 81.1719,876.4219 Q80.5,875.4063 80.5,874.2031 L80.5,873.1094 Q80.5,871.8594 81.0938,870.7656 Q81.7031,869.6719 82.75,869.0938 Q83.8125,868.5 85,868.5 Q85.7188,868.5 86.3438,868.75 Q86.9688,869 87.5,869.5 Z " fill="#000000"/><text fill="#000000" font-family="sans-serif" font-size="14" lengthAdjust="spacing" textLength="127" x="99.5" y="878.7285">SurveyBaseListener</text><line style="stroke:#181818;stroke-width:0.5;" x1="71.5" x2="228.5" y1="889" y2="889"/><line style="stroke:#181818;stroke-width:0.5;" x1="71.5" x2="228.5" y1="897" y2="897"/></g><!--MD5=[5a3b85c54cc1c79904e0b827443986bf]
class Questionnaire--><g id="elem_Questionnaire"><rect codeLine="60" fill="#F1F1F1" height="153.6563" id="Questionnaire" rx="2.5" ry="2.5" style="stroke:#181818;stroke-width:0.5;" width="493" x="51.5" y="1005"/><ellipse cx="249.25" cy="1021" fill="#ADD1B2" rx="11" ry="11" style="stroke:#181818;stroke-width:1.0;"/><path d="M251.25,1017.5 Q251.4531,1017 251.6875,1016.75 Q251.9219,1016.5 252.1875,1016.5 Q252.6563,1016.5 252.9531,1016.7813 Q253.25,1017.0625 253.25,1017.7188 L253.25,1019.2813 Q253.25,1019.9375 252.9688,1020.2188 Q252.6875,1020.5 252.25,1020.5 Q251.8594,1020.5 251.6094,1020.3281 Q251.3594,1020.1563 251.25,1019.7031 Q251.2031,1019.3906 251.0313,1019.2188 Q250.7188,1018.8906 250.1563,1018.7031 Q249.5938,1018.5 249.0313,1018.5 Q248.3281,1018.5 247.7344,1018.7813 Q247.1563,1019.0625 246.7031,1019.6875 Q246.25,1020.3125 246.25,1021.1719 L246.25,1022.0938 Q246.25,1023.125 247.0938,1023.8125 Q247.9375,1024.5 249.4375,1024.5 Q250.3281,1024.5 250.9531,1024.2969 Q251.3125,1024.1875 251.7188,1023.8281 Q251.9844,1023.625 252.125,1023.5625 Q252.2656,1023.5 252.4375,1023.5 Q252.7656,1023.5 253,1023.7656 Q253.25,1024.0156 253.25,1024.375 Q253.25,1024.7188 252.9063,1025.125 Q252.4063,1025.7188 251.6094,1026.0469 Q250.5625,1026.5 249.2813,1026.5 Q247.7813,1026.5 246.5781,1025.9063 Q245.6094,1025.4375 244.9219,1024.4219 Q244.25,1023.4063 244.25,1022.2031 L244.25,1021.1094 Q244.25,1019.8594 244.8438,1018.7656 Q245.4531,1017.6719 246.5,1017.0938 Q247.5625,1016.5 248.75,1016.5 Q249.4688,1016.5 250.0938,1016.75 Q250.7188,1017 251.25,1017.5 Z " fill="#000000"/><text fill="#000000" font-family="sans-serif" font-size="14" lengthAdjust="spacing" textLength="89" x="269.75" y="1026.7285">Questionnaire</text><line style="stroke:#181818;stroke-width:0.5;" x1="52.5" x2="543.5" y1="1037" y2="1037"/><text fill="#000000" font-family="sans-serif" font-size="14" lengthAdjust="spacing" textLength="36" x="57.5" y="1055.5332">-code</text><text fill="#000000" font-family="sans-serif" font-size="14" lengthAdjust="spacing" textLength="27" x="57.5" y="1073.1426">-title</text><text fill="#000000" font-family="sans-serif" font-size="14" lengthAdjust="spacing" textLength="94" x="57.5" y="1090.752">-initialMessage</text><text fill="#000000" font-family="sans-serif" font-size="14" lengthAdjust="spacing" textLength="88" x="57.5" y="1108.3613">-finalMessage</text><line style="stroke:#181818;stroke-width:1.0;" x1="52.5" x2="543.5" y1="1115.4375" y2="1115.4375"/><text fill="#000000" font-family="sans-serif" font-size="14" lengthAdjust="spacing" textLength="159" x="57.5" y="1133.9707">+sectionsAndQuestions()</text><text fill="#000000" font-family="sans-serif" font-size="14" lengthAdjust="spacing" textLength="481" x="57.5" y="1151.5801">+Questionaire(code,title,initialMessage,sectionsAndQuestions,finalMessage)</text></g><!--MD5=[c6b04dd915da2782c7f25f23de56bf64]
link NewQuestionnaireUI to CreateNewQuestionnaireController--><g id="link_NewQuestionnaireUI_CreateNewQuestionnaireController"><path codeLine="73" d="M172,90.24 C172,119.36 172,169.65 172,204.31 " fill="none" id="NewQuestionnaireUI-to-CreateNewQuestionnaireController" style="stroke:#181818;stroke-width:1.0;stroke-dasharray:7.0,7.0;"/><polygon fill="#181818" points="172,209.74,176,200.74,172,204.74,168,200.74,172,209.74" style="stroke:#181818;stroke-width:1.0;"/></g><!--MD5=[b08b3d88b54692d46cf8a34e8bf18c96]
link CreateNewQuestionnaireController to QuestionnaireMain--><g id="link_CreateNewQuestionnaireController_QuestionnaireMain"><path codeLine="75" d="M169.74,276.19 C164.93,344.61 153.72,504.18 148.61,576.81 " fill="none" id="CreateNewQuestionnaireController-to-QuestionnaireMain" style="stroke:#181818;stroke-width:1.0;"/><polygon fill="#181818" points="148.26,581.89,152.868,573.1856,148.603,576.9018,144.8869,572.6368,148.26,581.89" style="stroke:#181818;stroke-width:1.0;"/></g><!--MD5=[dbe7fd93adfa6d06f901e200d1e3536e]
link QuestionnaireMain to Questionnaire--><g id="link_QuestionnaireMain_Questionnaire"><path codeLine="76" d="M161.55,648.07 C183.14,693.63 222.34,780.11 247,857 C261.95,903.63 274.29,957.05 283.09,1000.02 " fill="none" id="QuestionnaireMain-to-Questionnaire" style="stroke:#181818;stroke-width:1.0;"/><polygon fill="#181818" points="284.09,1004.95,286.2365,995.3379,283.1039,1000.0482,278.3936,996.9156,284.09,1004.95" style="stroke:#181818;stroke-width:1.0;"/></g><!--MD5=[798e7a84faf5e957dfafed8d6fe82a7a]
link QuestionnaireMain to QuestionnaireVisitor--><g id="link_QuestionnaireMain_QuestionnaireVisitor"><path codeLine="77" d="M148.7,581.6 C155.45,523.91 178.7,410.89 257.5,402 C298.46,397.38 587.54,397.38 628.5,402 C636.43,402.89 639.8,400.98 646,406 C703.18,452.29 728.27,539.94 737.86,585.63 " fill="none" id="QuestionnaireMain-to-QuestionnaireVisitor" style="stroke:#181818;stroke-width:1.0;"/><polygon fill="#181818" points="738.9,590.72,741.0196,581.1019,737.9002,585.821,733.1811,582.7016,738.9,590.72" style="stroke:#181818;stroke-width:1.0;"/></g><!--MD5=[ff1be3d69434e89f815f5c5159563407]
link QuestionnaireMain to SurveyBaseListener--><g id="link_QuestionnaireMain_SurveyBaseListener"><path codeLine="78" d="M146.49,648.11 C147.28,700.21 148.82,802.33 149.57,851.8 " fill="none" id="QuestionnaireMain-to-SurveyBaseListener" style="stroke:#181818;stroke-width:1.0;"/><polygon fill="#181818" points="149.65,856.99,153.521,847.9338,149.5786,851.9905,145.5218,848.0481,149.65,856.99" style="stroke:#181818;stroke-width:1.0;"/></g><!--MD5=[1f56c54120471074d6f505109353e5cc]
link QuestionnaireMain to SurveyParser--><g id="link_QuestionnaireMain_SurveyParser"><path codeLine="79" d="M148.7,581.6 C155.45,523.91 178.7,410.89 257.5,402 C277.99,399.69 426.88,393.15 443,406 C470.04,427.54 490.3,458.11 505.28,489.24 " fill="none" id="QuestionnaireMain-to-SurveyParser" style="stroke:#181818;stroke-width:1.0;"/><polygon fill="#181818" points="507.46,493.84,507.2141,483.9942,505.3159,489.3231,499.987,487.4248,507.46,493.84" style="stroke:#181818;stroke-width:1.0;"/></g><!--MD5=[8ab60ec33cc16a67210c33289a4c6638]
link QuestionnaireMain to SurveyLexer--><g id="link_QuestionnaireMain_SurveyLexer"><path codeLine="80" d="M221.79,615 C231.7,615 241.62,615 251.53,615 " fill="none" id="QuestionnaireMain-to-SurveyLexer" style="stroke:#181818;stroke-width:1.0;"/><polygon fill="#181818" points="256.72,615,247.72,611,251.72,615,247.72,619,256.72,615" style="stroke:#181818;stroke-width:1.0;"/></g><!--MD5=[a264b65aac318ced2133c6a2327a3e9d]
link QuestionnaireVisitor to Questionnaire--><g id="link_QuestionnaireVisitor_Questionnaire"><path codeLine="82" d="M725.49,639.18 C706.59,663.81 675.27,703.6 646,736 C560.41,830.73 455.58,932.95 383.49,1001.32 " fill="none" id="QuestionnaireVisitor-to-Questionnaire" style="stroke:#181818;stroke-width:1.0;"/><polygon fill="#181818" points="379.65,1004.96,388.932,1001.667,383.2771,1001.5185,383.4256,995.8636,379.65,1004.96" style="stroke:#181818;stroke-width:1.0;"/></g><!--MD5=[edee3cb3c587509682011492205af42b]
@startuml
'https://plantuml.com/sequence-diagram

skinparam classAttributeIconSize 0

package ui {
class NewQuestionnaireUI{}
}

package surveymanagement {

package application{
class CreateNewQuestionnaireController{
+createQuestionnaire(file)
}
}

package antlr{
package eapli.base.surveymanagement.antr {
class SurveyLexer {
-makeLiteralNames()
-makeSymbolicNames()
+getTokenNames()
+getVocabulary()
+getGrammarFileName()
+getRuleNames()
+getSerializedATN()
+getChannelNames()
+getModelNames()
+getATN()
}

class SurveyParser {
-makeLiteralNames()
-makeSymbolicNames()
+getTokenNames()
+getVocabulary()
+getGrammarFileName()
+getRuleNames()
+getSerializedATN()
+getChannelNames()
+getModelNames()
+getATN()
+start()
}

class QuestionnaireMain {
+parseWithVisitor(file)

}
class QuestionnaireVisitor {}

class SurveyBaseListener {}

}
}



package domain{
class Questionnaire {
-code
-title
-initialMessage
-finalMessage
- - -
+sectionsAndQuestions()
+Questionaire(code,title,initialMessage,sectionsAndQuestions,finalMessage)
}

}


NewQuestionnaireUI ..> CreateNewQuestionnaireController

CreateNewQuestionnaireController - - - -> QuestionnaireMain
QuestionnaireMain - - - -> Questionnaire
QuestionnaireMain -> QuestionnaireVisitor
QuestionnaireMain - - -> SurveyBaseListener
QuestionnaireMain -> SurveyParser
QuestionnaireMain -> SurveyLexer

QuestionnaireVisitor -> Questionnaire









@enduml

@startuml

skinparam classAttributeIconSize 0

package ui {
class NewQuestionnaireUI{}
}

package surveymanagement {

package application{
class CreateNewQuestionnaireController{
+createQuestionnaire(file)
}
}

package antlr{
package eapli.base.surveymanagement.antr {
class SurveyLexer {
-makeLiteralNames()
-makeSymbolicNames()
+getTokenNames()
+getVocabulary()
+getGrammarFileName()
+getRuleNames()
+getSerializedATN()
+getChannelNames()
+getModelNames()
+getATN()
}

class SurveyParser {
-makeLiteralNames()
-makeSymbolicNames()
+getTokenNames()
+getVocabulary()
+getGrammarFileName()
+getRuleNames()
+getSerializedATN()
+getChannelNames()
+getModelNames()
+getATN()
+start()
}

class QuestionnaireMain {
+parseWithVisitor(file)

}
class QuestionnaireVisitor {}

class SurveyBaseListener {}

}
}



package domain{
class Questionnaire {
-code
-title
-initialMessage
-finalMessage
- - -
+sectionsAndQuestions()
+Questionaire(code,title,initialMessage,sectionsAndQuestions,finalMessage)
}

}


NewQuestionnaireUI ..> CreateNewQuestionnaireController

CreateNewQuestionnaireController - - - -> QuestionnaireMain
QuestionnaireMain - - - -> Questionnaire
QuestionnaireMain -> QuestionnaireVisitor
QuestionnaireMain - - -> SurveyBaseListener
QuestionnaireMain -> SurveyParser
QuestionnaireMain -> SurveyLexer

QuestionnaireVisitor -> Questionnaire









@enduml

PlantUML version 1.2022.4(Sat Apr 09 14:29:17 BST 2022)
(GPL source distribution)
Java Runtime: OpenJDK Runtime Environment
JVM: OpenJDK 64-Bit Server VM
Default Encoding: Cp1252
Language: pt
Country: PT
--></g></svg>