<?xml version="1.0" encoding="UTF-8" standalone="no"?><svg xmlns="http://www.w3.org/2000/svg" xmlns:xlink="http://www.w3.org/1999/xlink" contentStyleType="text/css" height="1016px" preserveAspectRatio="none" style="width:1959px;height:1016px;background:#FFFFFF;" version="1.1" viewBox="0 0 1959 1016" width="1959px" zoomAndPan="magnify"><defs/><g><!--MD5=[866c9c75b5a90d402a17f81b82ed6e8c]
cluster <<aggregate>> Survey--><g id="cluster_&lt;&lt;aggregate&gt;&gt; Survey"><path d="M8.5,174 L166.5,174 A3.75,3.75 0 0 1 169,176.5 L176,197.6094 L1721.5,197.6094 A2.5,2.5 0 0 1 1724,200.1094 L1724,1006.5 A2.5,2.5 0 0 1 1721.5,1009 L8.5,1009 A2.5,2.5 0 0 1 6,1006.5 L6,176.5 A2.5,2.5 0 0 1 8.5,174 " style="stroke:#000000;stroke-width:1.5;fill:none;"/><line style="stroke:#000000;stroke-width:1.5;fill:none;" x1="6" x2="176" y1="197.6094" y2="197.6094"/><text fill="#000000" font-family="sans-serif" font-size="14" font-weight="bold" lengthAdjust="spacing" textLength="157" x="10" y="190.5332">&lt;&lt;aggregate&gt;&gt; Survey</text></g><!--MD5=[19ece2f5f0b6cda009165ddd9ef17413]
cluster <<aggregate>> Notification--><g id="cluster_&lt;&lt;aggregate&gt;&gt; Notification"><path d="M1750.5,349.5 L1939.5,349.5 A3.75,3.75 0 0 1 1942,352 L1949,373.1094 L1949.5,373.1094 A2.5,2.5 0 0 1 1952,375.6094 L1952,465 A2.5,2.5 0 0 1 1949.5,467.5 L1750.5,467.5 A2.5,2.5 0 0 1 1748,465 L1748,352 A2.5,2.5 0 0 1 1750.5,349.5 " style="stroke:#000000;stroke-width:1.5;fill:none;"/><line style="stroke:#000000;stroke-width:1.5;fill:none;" x1="1748" x2="1949" y1="373.1094" y2="373.1094"/><text fill="#000000" font-family="sans-serif" font-size="14" font-weight="bold" lengthAdjust="spacing" textLength="188" x="1752" y="366.0332">&lt;&lt;aggregate&gt;&gt; Notification</text></g><!--MD5=[20e996825fabf2618e164db4892593a3]
cluster <<aggregate>> Client--><g id="cluster_&lt;&lt;aggregate&gt;&gt; Client"><path d="M1626.5,6 L1776.5,6 A3.75,3.75 0 0 1 1779,8.5 L1786,29.6094 L1786.5,29.6094 A2.5,2.5 0 0 1 1789,32.1094 L1789,121.5 A2.5,2.5 0 0 1 1786.5,124 L1626.5,124 A2.5,2.5 0 0 1 1624,121.5 L1624,8.5 A2.5,2.5 0 0 1 1626.5,6 " style="stroke:#000000;stroke-width:1.5;fill:none;"/><line style="stroke:#000000;stroke-width:1.5;fill:none;" x1="1624" x2="1786" y1="29.6094" y2="29.6094"/><text fill="#000000" font-family="sans-serif" font-size="14" font-weight="bold" lengthAdjust="spacing" textLength="149" x="1628" y="22.5332">&lt;&lt;aggregate&gt;&gt; Client</text></g><!--MD5=[3145b4be7c5005b24cda6f18a1d594b0]
class Survey--><g id="elem_Survey"><rect codeLine="29" fill="#F5F5DC" height="65.7969" id="Survey" rx="2.5" ry="2.5" style="stroke:#181818;stroke-width:0.5;" width="76" x="1471" y="210"/><ellipse cx="1486" cy="238.8984" fill="#ADD1B2" rx="11" ry="11" style="stroke:#181818;stroke-width:1.0;"/><path d="M1484.5,239.8984 L1484.5,241.8984 L1488.5,241.8984 L1488.5,240.8984 L1488.5,240.4141 L1489.125,239.8984 L1489.5,239.8984 L1489.875,239.8984 L1490.5,240.4141 L1490.5,240.8984 L1490.5,243.8984 L1482.5,243.8984 L1482.0156,243.8984 L1481.5,243.2734 L1481.5,242.8984 L1481.5,242.5234 L1482.0156,241.8984 L1482.5,241.8984 L1482.5,241.8984 L1482.5,235.8984 L1482.5,235.8984 L1482.0156,235.8984 L1481.5,235.2734 L1481.5,234.8984 L1481.5,234.5234 L1482.0156,233.8984 L1482.5,233.8984 L1490.5,233.8984 L1490.5,236.8984 L1490.5,237.3828 L1489.875,237.8984 L1489.5,237.8984 L1489.125,237.8984 L1488.5,237.3828 L1488.5,236.8984 L1488.5,235.8984 L1484.5,235.8984 L1484.5,237.8984 L1485.5,237.8984 L1485.5,237.4141 L1485.5,237.4141 L1486.125,236.8984 L1486.5,236.8984 L1486.875,236.8984 L1487.5,237.4141 L1487.5,237.8984 L1487.5,239.8984 L1487.5,240.3828 L1486.875,240.8984 L1486.875,240.8984 L1486.5,240.8984 L1486.125,240.8984 L1485.5,240.3828 L1485.5,240.3828 L1485.5,239.8984 L1484.5,239.8984 Z " fill="#000000"/><text fill="#000000" font-family="sans-serif" font-size="12" font-style="italic" lengthAdjust="spacing" textLength="43" x="1500.5" y="227.457">«entity»</text><text fill="#000000" font-family="sans-serif" font-size="12" font-style="italic" lengthAdjust="spacing" textLength="35" x="1504.5" y="242.5508">«root»</text><text fill="#000000" font-family="sans-serif" font-size="14" lengthAdjust="spacing" textLength="44" x="1500" y="259.7207">Survey</text><line style="stroke:#181818;stroke-width:0.5;" x1="1472" x2="1546" y1="267.7969" y2="267.7969"/></g><!--MD5=[494e0bdb5c8bb794bcdf99253cad2029]
class AlphanumericCode--><g id="elem_AlphanumericCode"><rect codeLine="34" fill="#F5F5DC" height="50.7031" id="AlphanumericCode" rx="2.5" ry="2.5" style="stroke:#181818;stroke-width:0.5;" width="152" x="979" y="393"/><ellipse cx="994" cy="414.3516" fill="#FF8B40" rx="11" ry="11" style="stroke:#A80036;stroke-width:1.0;"/><path d="M994,417.6328 L995.5313,412.1016 L995.5313,412.1016 L995.0156,412.1016 L994.5,411.4766 L994.5,411.1016 L994.5,410.7266 L995.0156,410.1016 L995.5313,410.1016 L997.4063,410.1016 L997.9844,410.1016 L998.5,410.7266 L998.5,411.1016 L998.5,411.4766 L997.9844,412.1016 L997.9844,412.1016 L997.5313,412.1016 L995.1875,420.1016 L992.8125,420.1016 L990.3438,412.1016 L990.0156,412.1016 L990.0156,412.1016 L989.5,411.4766 L989.5,411.1016 L989.5,410.7266 L990.0156,410.1016 L990.5938,410.1016 L992.4688,410.1016 L992.9844,410.1016 L993.5,410.7266 L993.5,411.1016 L993.5,411.4766 L992.9844,412.1016 L992.4688,412.1016 L992.4688,412.1016 L994,417.6328 Z " fill="#000000"/><text fill="#000000" font-family="sans-serif" font-size="12" font-style="italic" lengthAdjust="spacing" textLength="81" x="1027.5" y="410.457">«value object»</text><text fill="#000000" font-family="sans-serif" font-size="14" lengthAdjust="spacing" textLength="120" x="1008" y="427.627">AlphanumericCode</text><line style="stroke:#181818;stroke-width:0.5;" x1="980" x2="1130" y1="435.7031" y2="435.7031"/></g><!--MD5=[009695af4e54f3bba8a9c60dca3e1c94]
class Description--><g id="elem_Description"><rect codeLine="35" fill="#F5F5DC" height="50.7031" id="Description" rx="2.5" ry="2.5" style="stroke:#181818;stroke-width:0.5;" width="109" x="1166.5" y="393"/><ellipse cx="1181.5" cy="414.3516" fill="#FF8B40" rx="11" ry="11" style="stroke:#A80036;stroke-width:1.0;"/><path d="M1181.5,417.6328 L1183.0313,412.1016 L1183.0313,412.1016 L1182.5156,412.1016 L1182,411.4766 L1182,411.1016 L1182,410.7266 L1182.5156,410.1016 L1183.0313,410.1016 L1184.9063,410.1016 L1185.4844,410.1016 L1186,410.7266 L1186,411.1016 L1186,411.4766 L1185.4844,412.1016 L1185.4844,412.1016 L1185.0313,412.1016 L1182.6875,420.1016 L1180.3125,420.1016 L1177.8438,412.1016 L1177.5156,412.1016 L1177.5156,412.1016 L1177,411.4766 L1177,411.1016 L1177,410.7266 L1177.5156,410.1016 L1178.0938,410.1016 L1179.9688,410.1016 L1180.4844,410.1016 L1181,410.7266 L1181,411.1016 L1181,411.4766 L1180.4844,412.1016 L1179.9688,412.1016 L1179.9688,412.1016 L1181.5,417.6328 Z " fill="#000000"/><text fill="#000000" font-family="sans-serif" font-size="12" font-style="italic" lengthAdjust="spacing" textLength="81" x="1193.5" y="410.457">«value object»</text><text fill="#000000" font-family="sans-serif" font-size="14" lengthAdjust="spacing" textLength="71" x="1198.5" y="427.627">Description</text><line style="stroke:#181818;stroke-width:0.5;" x1="1167.5" x2="1274.5" y1="435.7031" y2="435.7031"/></g><!--MD5=[2555a5a46195b40631e16698a2ba5d47]
class Period--><g id="elem_Period"><rect codeLine="36" fill="#F5F5DC" height="111.5313" id="Period" rx="2.5" ry="2.5" style="stroke:#181818;stroke-width:0.5;" width="109" x="1310.5" y="362.5"/><ellipse cx="1325.5" cy="383.8516" fill="#FF8B40" rx="11" ry="11" style="stroke:#A80036;stroke-width:1.0;"/><path d="M1325.5,387.1328 L1327.0313,381.6016 L1327.0313,381.6016 L1326.5156,381.6016 L1326,380.9766 L1326,380.6016 L1326,380.2266 L1326.5156,379.6016 L1327.0313,379.6016 L1328.9063,379.6016 L1329.4844,379.6016 L1330,380.2266 L1330,380.6016 L1330,380.9766 L1329.4844,381.6016 L1329.4844,381.6016 L1329.0313,381.6016 L1326.6875,389.6016 L1324.3125,389.6016 L1321.8438,381.6016 L1321.5156,381.6016 L1321.5156,381.6016 L1321,380.9766 L1321,380.6016 L1321,380.2266 L1321.5156,379.6016 L1322.0938,379.6016 L1323.9688,379.6016 L1324.4844,379.6016 L1325,380.2266 L1325,380.6016 L1325,380.9766 L1324.4844,381.6016 L1323.9688,381.6016 L1323.9688,381.6016 L1325.5,387.1328 Z " fill="#000000"/><text fill="#000000" font-family="sans-serif" font-size="12" font-style="italic" lengthAdjust="spacing" textLength="81" x="1337.5" y="379.957">«value object»</text><text fill="#000000" font-family="sans-serif" font-size="14" lengthAdjust="spacing" textLength="41" x="1357.5" y="397.127">Period</text><line style="stroke:#181818;stroke-width:0.5;" x1="1311.5" x2="1418.5" y1="405.2031" y2="405.2031"/><text fill="#000000" font-family="sans-serif" font-size="14" lengthAdjust="spacing" textLength="67" x="1316.5" y="423.7363">-initialDate</text><text fill="#000000" font-family="sans-serif" font-size="14" lengthAdjust="spacing" textLength="61" x="1316.5" y="441.3457">-finalDate</text><text fill="#000000" font-family="sans-serif" font-size="14" lengthAdjust="spacing" textLength="74" x="1316.5" y="458.9551">-activeDays</text><line style="stroke:#181818;stroke-width:0.5;" x1="1311.5" x2="1418.5" y1="466.0313" y2="466.0313"/></g><!--MD5=[4cf87534c235239d37db4adfd136fff4]
class Rule--><g id="elem_Rule"><rect codeLine="41" fill="#F5F5DC" height="50.7031" id="Rule" rx="2.5" ry="2.5" style="stroke:#181818;stroke-width:0.5;" width="109" x="1454.5" y="393"/><ellipse cx="1469.5" cy="414.3516" fill="#FF8B40" rx="11" ry="11" style="stroke:#A80036;stroke-width:1.0;"/><path d="M1469.5,417.6328 L1471.0313,412.1016 L1471.0313,412.1016 L1470.5156,412.1016 L1470,411.4766 L1470,411.1016 L1470,410.7266 L1470.5156,410.1016 L1471.0313,410.1016 L1472.9063,410.1016 L1473.4844,410.1016 L1474,410.7266 L1474,411.1016 L1474,411.4766 L1473.4844,412.1016 L1473.4844,412.1016 L1473.0313,412.1016 L1470.6875,420.1016 L1468.3125,420.1016 L1465.8438,412.1016 L1465.5156,412.1016 L1465.5156,412.1016 L1465,411.4766 L1465,411.1016 L1465,410.7266 L1465.5156,410.1016 L1466.0938,410.1016 L1467.9688,410.1016 L1468.4844,410.1016 L1469,410.7266 L1469,411.1016 L1469,411.4766 L1468.4844,412.1016 L1467.9688,412.1016 L1467.9688,412.1016 L1469.5,417.6328 Z " fill="#000000"/><text fill="#000000" font-family="sans-serif" font-size="12" font-style="italic" lengthAdjust="spacing" textLength="81" x="1481.5" y="410.457">«value object»</text><text fill="#000000" font-family="sans-serif" font-size="14" lengthAdjust="spacing" textLength="29" x="1507.5" y="427.627">Rule</text><line style="stroke:#181818;stroke-width:0.5;" x1="1455.5" x2="1562.5" y1="435.7031" y2="435.7031"/></g><!--MD5=[09a53695e98d4f26e7a054522080af08]
class Section--><g id="elem_Section"><rect codeLine="42" fill="#F5F5DC" height="129.1406" id="Section" rx="2.5" ry="2.5" style="stroke:#181818;stroke-width:0.5;" width="105" x="1598.5" y="354"/><ellipse cx="1625.2" cy="375.3516" fill="#ADD1B2" rx="11" ry="11" style="stroke:#181818;stroke-width:1.0;"/><path d="M1623.7,376.3516 L1623.7,378.3516 L1627.7,378.3516 L1627.7,377.3516 L1627.7,376.8672 L1628.325,376.3516 L1628.7,376.3516 L1629.075,376.3516 L1629.7,376.8672 L1629.7,377.3516 L1629.7,380.3516 L1621.7,380.3516 L1621.2156,380.3516 L1620.7,379.7266 L1620.7,379.3516 L1620.7,378.9766 L1621.2156,378.3516 L1621.7,378.3516 L1621.7,378.3516 L1621.7,372.3516 L1621.7,372.3516 L1621.2156,372.3516 L1620.7,371.7266 L1620.7,371.3516 L1620.7,370.9766 L1621.2156,370.3516 L1621.7,370.3516 L1629.7,370.3516 L1629.7,373.3516 L1629.7,373.8359 L1629.075,374.3516 L1628.7,374.3516 L1628.325,374.3516 L1627.7,373.8359 L1627.7,373.3516 L1627.7,372.3516 L1623.7,372.3516 L1623.7,374.3516 L1624.7,374.3516 L1624.7,373.8672 L1624.7,373.8672 L1625.325,373.3516 L1625.7,373.3516 L1626.075,373.3516 L1626.7,373.8672 L1626.7,374.3516 L1626.7,376.3516 L1626.7,376.8359 L1626.075,377.3516 L1626.075,377.3516 L1625.7,377.3516 L1625.325,377.3516 L1624.7,376.8359 L1624.7,376.8359 L1624.7,376.3516 L1623.7,376.3516 Z " fill="#000000"/><text fill="#000000" font-family="sans-serif" font-size="12" font-style="italic" lengthAdjust="spacing" textLength="43" x="1643.8" y="371.457">«entity»</text><text fill="#000000" font-family="sans-serif" font-size="14" lengthAdjust="spacing" textLength="47" x="1641.8" y="388.627">Section</text><line style="stroke:#181818;stroke-width:0.5;" x1="1599.5" x2="1702.5" y1="396.7031" y2="396.7031"/><text fill="#000000" font-family="sans-serif" font-size="14" lengthAdjust="spacing" textLength="16" x="1604.5" y="415.2363">-id</text><text fill="#000000" font-family="sans-serif" font-size="14" lengthAdjust="spacing" textLength="74" x="1604.5" y="432.8457">-description</text><text fill="#000000" font-family="sans-serif" font-size="14" lengthAdjust="spacing" textLength="93" x="1604.5" y="450.4551">-obligatoriness</text><text fill="#000000" font-family="sans-serif" font-size="14" lengthAdjust="spacing" textLength="82" x="1604.5" y="468.0645">-repeatability</text><line style="stroke:#181818;stroke-width:0.5;" x1="1599.5" x2="1702.5" y1="475.1406" y2="475.1406"/></g><!--MD5=[fc7123defb831ecdd44b2d9bcef6cceb]
class Question--><g id="elem_Question"><rect codeLine="51" fill="#F5F5DC" height="129.1406" id="Question" rx="2.5" ry="2.5" style="stroke:#181818;stroke-width:0.5;" width="105" x="1326.5" y="623"/><ellipse cx="1348.7" cy="644.3516" fill="#ADD1B2" rx="11" ry="11" style="stroke:#181818;stroke-width:1.0;"/><path d="M1347.2,645.3516 L1347.2,647.3516 L1351.2,647.3516 L1351.2,646.3516 L1351.2,645.8672 L1351.825,645.3516 L1352.2,645.3516 L1352.575,645.3516 L1353.2,645.8672 L1353.2,646.3516 L1353.2,649.3516 L1345.2,649.3516 L1344.7156,649.3516 L1344.2,648.7266 L1344.2,648.3516 L1344.2,647.9766 L1344.7156,647.3516 L1345.2,647.3516 L1345.2,647.3516 L1345.2,641.3516 L1345.2,641.3516 L1344.7156,641.3516 L1344.2,640.7266 L1344.2,640.3516 L1344.2,639.9766 L1344.7156,639.3516 L1345.2,639.3516 L1353.2,639.3516 L1353.2,642.3516 L1353.2,642.8359 L1352.575,643.3516 L1352.2,643.3516 L1351.825,643.3516 L1351.2,642.8359 L1351.2,642.3516 L1351.2,641.3516 L1347.2,641.3516 L1347.2,643.3516 L1348.2,643.3516 L1348.2,642.8672 L1348.2,642.8672 L1348.825,642.3516 L1349.2,642.3516 L1349.575,642.3516 L1350.2,642.8672 L1350.2,643.3516 L1350.2,645.3516 L1350.2,645.8359 L1349.575,646.3516 L1349.575,646.3516 L1349.2,646.3516 L1348.825,646.3516 L1348.2,645.8359 L1348.2,645.8359 L1348.2,645.3516 L1347.2,645.3516 Z " fill="#000000"/><text fill="#000000" font-family="sans-serif" font-size="12" font-style="italic" lengthAdjust="spacing" textLength="43" x="1371.3" y="640.457">«entity»</text><text fill="#000000" font-family="sans-serif" font-size="14" lengthAdjust="spacing" textLength="57" x="1364.3" y="657.627">Question</text><line style="stroke:#181818;stroke-width:0.5;" x1="1327.5" x2="1430.5" y1="665.7031" y2="665.7031"/><text fill="#000000" font-family="sans-serif" font-size="14" lengthAdjust="spacing" textLength="16" x="1332.5" y="684.2363">-id</text><text fill="#000000" font-family="sans-serif" font-size="14" lengthAdjust="spacing" textLength="67" x="1332.5" y="701.8457">-statement</text><text fill="#000000" font-family="sans-serif" font-size="14" lengthAdjust="spacing" textLength="70" x="1332.5" y="719.4551">-instruction</text><text fill="#000000" font-family="sans-serif" font-size="14" lengthAdjust="spacing" textLength="93" x="1332.5" y="737.0645">-obligatoriness</text><line style="stroke:#181818;stroke-width:0.5;" x1="1327.5" x2="1430.5" y1="744.1406" y2="744.1406"/></g><!--MD5=[948c5e7831c0eaf2f6105f40f3278a77]
class SectionTitle--><g id="elem_SectionTitle"><rect codeLine="49" fill="#F5F5DC" height="50.7031" id="SectionTitle" rx="2.5" ry="2.5" style="stroke:#181818;stroke-width:0.5;" width="109" x="1466.5" y="662"/><ellipse cx="1481.5" cy="683.3516" fill="#FF8B40" rx="11" ry="11" style="stroke:#A80036;stroke-width:1.0;"/><path d="M1481.5,686.6328 L1483.0313,681.1016 L1483.0313,681.1016 L1482.5156,681.1016 L1482,680.4766 L1482,680.1016 L1482,679.7266 L1482.5156,679.1016 L1483.0313,679.1016 L1484.9063,679.1016 L1485.4844,679.1016 L1486,679.7266 L1486,680.1016 L1486,680.4766 L1485.4844,681.1016 L1485.4844,681.1016 L1485.0313,681.1016 L1482.6875,689.1016 L1480.3125,689.1016 L1477.8438,681.1016 L1477.5156,681.1016 L1477.5156,681.1016 L1477,680.4766 L1477,680.1016 L1477,679.7266 L1477.5156,679.1016 L1478.0938,679.1016 L1479.9688,679.1016 L1480.4844,679.1016 L1481,679.7266 L1481,680.1016 L1481,680.4766 L1480.4844,681.1016 L1479.9688,681.1016 L1479.9688,681.1016 L1481.5,686.6328 Z " fill="#000000"/><text fill="#000000" font-family="sans-serif" font-size="12" font-style="italic" lengthAdjust="spacing" textLength="81" x="1493.5" y="679.457">«value object»</text><text fill="#000000" font-family="sans-serif" font-size="14" lengthAdjust="spacing" textLength="74" x="1497" y="696.627">SectionTitle</text><line style="stroke:#181818;stroke-width:0.5;" x1="1467.5" x2="1574.5" y1="704.7031" y2="704.7031"/></g><!--MD5=[85ca87766313dadedb5918e4f4f973e4]
class MandatoryCondition--><g id="elem_MandatoryCondition"><rect codeLine="50" fill="#F5F5DC" height="50.7031" id="MandatoryCondition" rx="2.5" ry="2.5" style="stroke:#181818;stroke-width:0.5;" width="159" x="1424.5" y="942"/><ellipse cx="1439.5" cy="963.3516" fill="#FF8B40" rx="11" ry="11" style="stroke:#A80036;stroke-width:1.0;"/><path d="M1439.5,966.6328 L1441.0313,961.1016 L1441.0313,961.1016 L1440.5156,961.1016 L1440,960.4766 L1440,960.1016 L1440,959.7266 L1440.5156,959.1016 L1441.0313,959.1016 L1442.9063,959.1016 L1443.4844,959.1016 L1444,959.7266 L1444,960.1016 L1444,960.4766 L1443.4844,961.1016 L1443.4844,961.1016 L1443.0313,961.1016 L1440.6875,969.1016 L1438.3125,969.1016 L1435.8438,961.1016 L1435.5156,961.1016 L1435.5156,961.1016 L1435,960.4766 L1435,960.1016 L1435,959.7266 L1435.5156,959.1016 L1436.0938,959.1016 L1437.9688,959.1016 L1438.4844,959.1016 L1439,959.7266 L1439,960.1016 L1439,960.4766 L1438.4844,961.1016 L1437.9688,961.1016 L1437.9688,961.1016 L1439.5,966.6328 Z " fill="#000000"/><text fill="#000000" font-family="sans-serif" font-size="12" font-style="italic" lengthAdjust="spacing" textLength="81" x="1476.5" y="959.457">«value object»</text><text fill="#000000" font-family="sans-serif" font-size="14" lengthAdjust="spacing" textLength="127" x="1453.5" y="976.627">MandatoryCondition</text><line style="stroke:#181818;stroke-width:0.5;" x1="1425.5" x2="1582.5" y1="984.7031" y2="984.7031"/></g><!--MD5=[4296a1ab0576a383a1a509d52c22ebf0]
class Type--><g id="elem_Type"><rect codeLine="59" fill="#F5F5DC" height="50.7031" id="Type" rx="2.5" ry="2.5" style="stroke:#181818;stroke-width:0.5;" width="109" x="708.5" y="830"/><ellipse cx="723.5" cy="851.3516" fill="#FF8B40" rx="11" ry="11" style="stroke:#A80036;stroke-width:1.0;"/><path d="M723.5,854.6328 L725.0313,849.1016 L725.0313,849.1016 L724.5156,849.1016 L724,848.4766 L724,848.1016 L724,847.7266 L724.5156,847.1016 L725.0313,847.1016 L726.9063,847.1016 L727.4844,847.1016 L728,847.7266 L728,848.1016 L728,848.4766 L727.4844,849.1016 L727.4844,849.1016 L727.0313,849.1016 L724.6875,857.1016 L722.3125,857.1016 L719.8438,849.1016 L719.5156,849.1016 L719.5156,849.1016 L719,848.4766 L719,848.1016 L719,847.7266 L719.5156,847.1016 L720.0938,847.1016 L721.9688,847.1016 L722.4844,847.1016 L723,847.7266 L723,848.1016 L723,848.4766 L722.4844,849.1016 L721.9688,849.1016 L721.9688,849.1016 L723.5,854.6328 Z " fill="#000000"/><text fill="#000000" font-family="sans-serif" font-size="12" font-style="italic" lengthAdjust="spacing" textLength="81" x="735.5" y="847.457">«value object»</text><text fill="#000000" font-family="sans-serif" font-size="14" lengthAdjust="spacing" textLength="32" x="760" y="864.627">Type</text><line style="stroke:#181818;stroke-width:0.5;" x1="709.5" x2="816.5" y1="872.7031" y2="872.7031"/></g><!--MD5=[91f1d762ef6ff98a23c291429801e57c]
class FreeText--><g id="elem_FreeText"><rect codeLine="60" fill="#F5F5DC" height="50.7031" id="FreeText" rx="2.5" ry="2.5" style="stroke:#181818;stroke-width:0.5;" width="109" x="1182.5" y="662"/><ellipse cx="1197.5" cy="683.3516" fill="#FF8B40" rx="11" ry="11" style="stroke:#A80036;stroke-width:1.0;"/><path d="M1197.5,686.6328 L1199.0313,681.1016 L1199.0313,681.1016 L1198.5156,681.1016 L1198,680.4766 L1198,680.1016 L1198,679.7266 L1198.5156,679.1016 L1199.0313,679.1016 L1200.9063,679.1016 L1201.4844,679.1016 L1202,679.7266 L1202,680.1016 L1202,680.4766 L1201.4844,681.1016 L1201.4844,681.1016 L1201.0313,681.1016 L1198.6875,689.1016 L1196.3125,689.1016 L1193.8438,681.1016 L1193.5156,681.1016 L1193.5156,681.1016 L1193,680.4766 L1193,680.1016 L1193,679.7266 L1193.5156,679.1016 L1194.0938,679.1016 L1195.9688,679.1016 L1196.4844,679.1016 L1197,679.7266 L1197,680.1016 L1197,680.4766 L1196.4844,681.1016 L1195.9688,681.1016 L1195.9688,681.1016 L1197.5,686.6328 Z " fill="#000000"/><text fill="#000000" font-family="sans-serif" font-size="12" font-style="italic" lengthAdjust="spacing" textLength="81" x="1209.5" y="679.457">«value object»</text><text fill="#000000" font-family="sans-serif" font-size="14" lengthAdjust="spacing" textLength="57" x="1221.5" y="696.627">FreeText</text><line style="stroke:#181818;stroke-width:0.5;" x1="1183.5" x2="1290.5" y1="704.7031" y2="704.7031"/></g><!--MD5=[210f05ad84ecfe37f8378e5618b7165d]
class MultipleChoice--><g id="elem_MultipleChoice"><rect codeLine="64" fill="#F5F5DC" height="50.7031" id="MultipleChoice" rx="2.5" ry="2.5" style="stroke:#181818;stroke-width:0.5;" width="124" x="1023" y="662"/><ellipse cx="1038" cy="683.3516" fill="#FF8B40" rx="11" ry="11" style="stroke:#A80036;stroke-width:1.0;"/><path d="M1038,686.6328 L1039.5313,681.1016 L1039.5313,681.1016 L1039.0156,681.1016 L1038.5,680.4766 L1038.5,680.1016 L1038.5,679.7266 L1039.0156,679.1016 L1039.5313,679.1016 L1041.4063,679.1016 L1041.9844,679.1016 L1042.5,679.7266 L1042.5,680.1016 L1042.5,680.4766 L1041.9844,681.1016 L1041.9844,681.1016 L1041.5313,681.1016 L1039.1875,689.1016 L1036.8125,689.1016 L1034.3438,681.1016 L1034.0156,681.1016 L1034.0156,681.1016 L1033.5,680.4766 L1033.5,680.1016 L1033.5,679.7266 L1034.0156,679.1016 L1034.5938,679.1016 L1036.4688,679.1016 L1036.9844,679.1016 L1037.5,679.7266 L1037.5,680.1016 L1037.5,680.4766 L1036.9844,681.1016 L1036.4688,681.1016 L1036.4688,681.1016 L1038,686.6328 Z " fill="#000000"/><text fill="#000000" font-family="sans-serif" font-size="12" font-style="italic" lengthAdjust="spacing" textLength="81" x="1057.5" y="679.457">«value object»</text><text fill="#000000" font-family="sans-serif" font-size="14" lengthAdjust="spacing" textLength="92" x="1052" y="696.627">MultipleChoice</text><line style="stroke:#181818;stroke-width:0.5;" x1="1024" x2="1146" y1="704.7031" y2="704.7031"/></g><!--MD5=[f1926c784da000dbf2f9e262c4c094a8]
class Numeric--><g id="elem_Numeric"><rect codeLine="61" fill="#F5F5DC" height="50.7031" id="Numeric" rx="2.5" ry="2.5" style="stroke:#181818;stroke-width:0.5;" width="109" x="878.5" y="662"/><ellipse cx="893.5" cy="683.3516" fill="#FF8B40" rx="11" ry="11" style="stroke:#A80036;stroke-width:1.0;"/><path d="M893.5,686.6328 L895.0313,681.1016 L895.0313,681.1016 L894.5156,681.1016 L894,680.4766 L894,680.1016 L894,679.7266 L894.5156,679.1016 L895.0313,679.1016 L896.9063,679.1016 L897.4844,679.1016 L898,679.7266 L898,680.1016 L898,680.4766 L897.4844,681.1016 L897.4844,681.1016 L897.0313,681.1016 L894.6875,689.1016 L892.3125,689.1016 L889.8438,681.1016 L889.5156,681.1016 L889.5156,681.1016 L889,680.4766 L889,680.1016 L889,679.7266 L889.5156,679.1016 L890.0938,679.1016 L891.9688,679.1016 L892.4844,679.1016 L893,679.7266 L893,680.1016 L893,680.4766 L892.4844,681.1016 L891.9688,681.1016 L891.9688,681.1016 L893.5,686.6328 Z " fill="#000000"/><text fill="#000000" font-family="sans-serif" font-size="12" font-style="italic" lengthAdjust="spacing" textLength="81" x="905.5" y="679.457">«value object»</text><text fill="#000000" font-family="sans-serif" font-size="14" lengthAdjust="spacing" textLength="51" x="920.5" y="696.627">Numeric</text><line style="stroke:#181818;stroke-width:0.5;" x1="879.5" x2="986.5" y1="704.7031" y2="704.7031"/></g><!--MD5=[e54492a2335ef8a1779cbff153ad100d]
class MultipleChoiceValue--><g id="elem_MultipleChoiceValue"><rect codeLine="65" fill="#F5F5DC" height="50.7031" id="MultipleChoiceValue" rx="2.5" ry="2.5" style="stroke:#181818;stroke-width:0.5;" width="160" x="683" y="662"/><ellipse cx="698" cy="683.3516" fill="#FF8B40" rx="11" ry="11" style="stroke:#A80036;stroke-width:1.0;"/><path d="M698,686.6328 L699.5313,681.1016 L699.5313,681.1016 L699.0156,681.1016 L698.5,680.4766 L698.5,680.1016 L698.5,679.7266 L699.0156,679.1016 L699.5313,679.1016 L701.4063,679.1016 L701.9844,679.1016 L702.5,679.7266 L702.5,680.1016 L702.5,680.4766 L701.9844,681.1016 L701.9844,681.1016 L701.5313,681.1016 L699.1875,689.1016 L696.8125,689.1016 L694.3438,681.1016 L694.0156,681.1016 L694.0156,681.1016 L693.5,680.4766 L693.5,680.1016 L693.5,679.7266 L694.0156,679.1016 L694.5938,679.1016 L696.4688,679.1016 L696.9844,679.1016 L697.5,679.7266 L697.5,680.1016 L697.5,680.4766 L696.9844,681.1016 L696.4688,681.1016 L696.4688,681.1016 L698,686.6328 Z " fill="#000000"/><text fill="#000000" font-family="sans-serif" font-size="12" font-style="italic" lengthAdjust="spacing" textLength="81" x="735.5" y="679.457">«value object»</text><text fill="#000000" font-family="sans-serif" font-size="14" lengthAdjust="spacing" textLength="128" x="712" y="696.627">MultipleChoiceValue</text><line style="stroke:#181818;stroke-width:0.5;" x1="684" x2="842" y1="704.7031" y2="704.7031"/></g><!--MD5=[a5ca3752305c7732dbc11d8158ac7d42]
class SingleChoice--><g id="elem_SingleChoice"><rect codeLine="62" fill="#F5F5DC" height="50.7031" id="SingleChoice" rx="2.5" ry="2.5" style="stroke:#181818;stroke-width:0.5;" width="115" x="532.5" y="662"/><ellipse cx="547.5" cy="683.3516" fill="#FF8B40" rx="11" ry="11" style="stroke:#A80036;stroke-width:1.0;"/><path d="M547.5,686.6328 L549.0313,681.1016 L549.0313,681.1016 L548.5156,681.1016 L548,680.4766 L548,680.1016 L548,679.7266 L548.5156,679.1016 L549.0313,679.1016 L550.9063,679.1016 L551.4844,679.1016 L552,679.7266 L552,680.1016 L552,680.4766 L551.4844,681.1016 L551.4844,681.1016 L551.0313,681.1016 L548.6875,689.1016 L546.3125,689.1016 L543.8438,681.1016 L543.5156,681.1016 L543.5156,681.1016 L543,680.4766 L543,680.1016 L543,679.7266 L543.5156,679.1016 L544.0938,679.1016 L545.9688,679.1016 L546.4844,679.1016 L547,679.7266 L547,680.1016 L547,680.4766 L546.4844,681.1016 L545.9688,681.1016 L545.9688,681.1016 L547.5,686.6328 Z " fill="#000000"/><text fill="#000000" font-family="sans-serif" font-size="12" font-style="italic" lengthAdjust="spacing" textLength="81" x="562.5" y="679.457">«value object»</text><text fill="#000000" font-family="sans-serif" font-size="14" lengthAdjust="spacing" textLength="83" x="561.5" y="696.627">SingleChoice</text><line style="stroke:#181818;stroke-width:0.5;" x1="533.5" x2="646.5" y1="704.7031" y2="704.7031"/></g><!--MD5=[504030e476fb8055d6175c10959e8d45]
class SingleChoiceValue--><g id="elem_SingleChoiceValue"><rect codeLine="63" fill="#F5F5DC" height="50.7031" id="SingleChoiceValue" rx="2.5" ry="2.5" style="stroke:#181818;stroke-width:0.5;" width="151" x="346.5" y="662"/><ellipse cx="361.5" cy="683.3516" fill="#FF8B40" rx="11" ry="11" style="stroke:#A80036;stroke-width:1.0;"/><path d="M361.5,686.6328 L363.0313,681.1016 L363.0313,681.1016 L362.5156,681.1016 L362,680.4766 L362,680.1016 L362,679.7266 L362.5156,679.1016 L363.0313,679.1016 L364.9063,679.1016 L365.4844,679.1016 L366,679.7266 L366,680.1016 L366,680.4766 L365.4844,681.1016 L365.4844,681.1016 L365.0313,681.1016 L362.6875,689.1016 L360.3125,689.1016 L357.8438,681.1016 L357.5156,681.1016 L357.5156,681.1016 L357,680.4766 L357,680.1016 L357,679.7266 L357.5156,679.1016 L358.0938,679.1016 L359.9688,679.1016 L360.4844,679.1016 L361,679.7266 L361,680.1016 L361,680.4766 L360.4844,681.1016 L359.9688,681.1016 L359.9688,681.1016 L361.5,686.6328 Z " fill="#000000"/><text fill="#000000" font-family="sans-serif" font-size="12" font-style="italic" lengthAdjust="spacing" textLength="81" x="394.5" y="679.457">«value object»</text><text fill="#000000" font-family="sans-serif" font-size="14" lengthAdjust="spacing" textLength="119" x="375.5" y="696.627">SingleChoiceValue</text><line style="stroke:#181818;stroke-width:0.5;" x1="347.5" x2="496.5" y1="704.7031" y2="704.7031"/></g><!--MD5=[0c2d034350cb4d3588b3a4750b3529eb]
class SortingOptions--><g id="elem_SortingOptions"><rect codeLine="66" fill="#F5F5DC" height="50.7031" id="SortingOptions" rx="2.5" ry="2.5" style="stroke:#181818;stroke-width:0.5;" width="126" x="185" y="662"/><ellipse cx="200" cy="683.3516" fill="#FF8B40" rx="11" ry="11" style="stroke:#A80036;stroke-width:1.0;"/><path d="M200,686.6328 L201.5313,681.1016 L201.5313,681.1016 L201.0156,681.1016 L200.5,680.4766 L200.5,680.1016 L200.5,679.7266 L201.0156,679.1016 L201.5313,679.1016 L203.4063,679.1016 L203.9844,679.1016 L204.5,679.7266 L204.5,680.1016 L204.5,680.4766 L203.9844,681.1016 L203.9844,681.1016 L203.5313,681.1016 L201.1875,689.1016 L198.8125,689.1016 L196.3438,681.1016 L196.0156,681.1016 L196.0156,681.1016 L195.5,680.4766 L195.5,680.1016 L195.5,679.7266 L196.0156,679.1016 L196.5938,679.1016 L198.4688,679.1016 L198.9844,679.1016 L199.5,679.7266 L199.5,680.1016 L199.5,680.4766 L198.9844,681.1016 L198.4688,681.1016 L198.4688,681.1016 L200,686.6328 Z " fill="#000000"/><text fill="#000000" font-family="sans-serif" font-size="12" font-style="italic" lengthAdjust="spacing" textLength="81" x="220.5" y="679.457">«value object»</text><text fill="#000000" font-family="sans-serif" font-size="14" lengthAdjust="spacing" textLength="94" x="214" y="696.627">SortingOptions</text><line style="stroke:#181818;stroke-width:0.5;" x1="186" x2="310" y1="704.7031" y2="704.7031"/></g><!--MD5=[41cd1c09e08fae32c915064c99d29c90]
class ScalingOptions--><g id="elem_ScalingOptions"><rect codeLine="67" fill="#F5F5DC" height="50.7031" id="ScalingOptions" rx="2.5" ry="2.5" style="stroke:#181818;stroke-width:0.5;" width="127" x="22.5" y="662"/><ellipse cx="37.5" cy="683.3516" fill="#FF8B40" rx="11" ry="11" style="stroke:#A80036;stroke-width:1.0;"/><path d="M37.5,686.6328 L39.0313,681.1016 L39.0313,681.1016 L38.5156,681.1016 L38,680.4766 L38,680.1016 L38,679.7266 L38.5156,679.1016 L39.0313,679.1016 L40.9063,679.1016 L41.4844,679.1016 L42,679.7266 L42,680.1016 L42,680.4766 L41.4844,681.1016 L41.4844,681.1016 L41.0313,681.1016 L38.6875,689.1016 L36.3125,689.1016 L33.8438,681.1016 L33.5156,681.1016 L33.5156,681.1016 L33,680.4766 L33,680.1016 L33,679.7266 L33.5156,679.1016 L34.0938,679.1016 L35.9688,679.1016 L36.4844,679.1016 L37,679.7266 L37,680.1016 L37,680.4766 L36.4844,681.1016 L35.9688,681.1016 L35.9688,681.1016 L37.5,686.6328 Z " fill="#000000"/><text fill="#000000" font-family="sans-serif" font-size="12" font-style="italic" lengthAdjust="spacing" textLength="81" x="58.5" y="679.457">«value object»</text><text fill="#000000" font-family="sans-serif" font-size="14" lengthAdjust="spacing" textLength="95" x="51.5" y="696.627">ScalingOptions</text><line style="stroke:#181818;stroke-width:0.5;" x1="23.5" x2="148.5" y1="704.7031" y2="704.7031"/></g><!--MD5=[f9fadfa5a66b7e5a67b370cd443ffe52]
class Answer--><g id="elem_Answer"><rect codeLine="57" fill="#F5F5DC" height="50.7031" id="Answer" rx="2.5" ry="2.5" style="stroke:#181818;stroke-width:0.5;" width="78" x="1476" y="830"/><ellipse cx="1491" cy="851.3516" fill="#ADD1B2" rx="11" ry="11" style="stroke:#181818;stroke-width:1.0;"/><path d="M1489.5,852.3516 L1489.5,854.3516 L1493.5,854.3516 L1493.5,853.3516 L1493.5,852.8672 L1494.125,852.3516 L1494.5,852.3516 L1494.875,852.3516 L1495.5,852.8672 L1495.5,853.3516 L1495.5,856.3516 L1487.5,856.3516 L1487.0156,856.3516 L1486.5,855.7266 L1486.5,855.3516 L1486.5,854.9766 L1487.0156,854.3516 L1487.5,854.3516 L1487.5,854.3516 L1487.5,848.3516 L1487.5,848.3516 L1487.0156,848.3516 L1486.5,847.7266 L1486.5,847.3516 L1486.5,846.9766 L1487.0156,846.3516 L1487.5,846.3516 L1495.5,846.3516 L1495.5,849.3516 L1495.5,849.8359 L1494.875,850.3516 L1494.5,850.3516 L1494.125,850.3516 L1493.5,849.8359 L1493.5,849.3516 L1493.5,848.3516 L1489.5,848.3516 L1489.5,850.3516 L1490.5,850.3516 L1490.5,849.8672 L1490.5,849.8672 L1491.125,849.3516 L1491.5,849.3516 L1491.875,849.3516 L1492.5,849.8672 L1492.5,850.3516 L1492.5,852.3516 L1492.5,852.8359 L1491.875,853.3516 L1491.875,853.3516 L1491.5,853.3516 L1491.125,853.3516 L1490.5,852.8359 L1490.5,852.8359 L1490.5,852.3516 L1489.5,852.3516 Z " fill="#000000"/><text fill="#000000" font-family="sans-serif" font-size="12" font-style="italic" lengthAdjust="spacing" textLength="43" x="1506.5" y="847.457">«entity»</text><text fill="#000000" font-family="sans-serif" font-size="14" lengthAdjust="spacing" textLength="46" x="1505" y="864.627">Answer</text><line style="stroke:#181818;stroke-width:0.5;" x1="1477" x2="1553" y1="872.7031" y2="872.7031"/></g><!--MD5=[76b5e19c9337179d2d7ae334371d68c8]
class Notification--><g id="elem_Notification"><rect codeLine="92" fill="#F5F5DC" height="65.7969" id="Notification" rx="2.5" ry="2.5" style="stroke:#181818;stroke-width:0.5;" width="101" x="1764.5" y="385.5"/><ellipse cx="1779.5" cy="414.3984" fill="#ADD1B2" rx="11" ry="11" style="stroke:#181818;stroke-width:1.0;"/><path d="M1778,415.3984 L1778,417.3984 L1782,417.3984 L1782,416.3984 L1782,415.9141 L1782.625,415.3984 L1783,415.3984 L1783.375,415.3984 L1784,415.9141 L1784,416.3984 L1784,419.3984 L1776,419.3984 L1775.5156,419.3984 L1775,418.7734 L1775,418.3984 L1775,418.0234 L1775.5156,417.3984 L1776,417.3984 L1776,417.3984 L1776,411.3984 L1776,411.3984 L1775.5156,411.3984 L1775,410.7734 L1775,410.3984 L1775,410.0234 L1775.5156,409.3984 L1776,409.3984 L1784,409.3984 L1784,412.3984 L1784,412.8828 L1783.375,413.3984 L1783,413.3984 L1782.625,413.3984 L1782,412.8828 L1782,412.3984 L1782,411.3984 L1778,411.3984 L1778,413.3984 L1779,413.3984 L1779,412.9141 L1779,412.9141 L1779.625,412.3984 L1780,412.3984 L1780.375,412.3984 L1781,412.9141 L1781,413.3984 L1781,415.3984 L1781,415.8828 L1780.375,416.3984 L1780.375,416.3984 L1780,416.3984 L1779.625,416.3984 L1779,415.8828 L1779,415.8828 L1779,415.3984 L1778,415.3984 Z " fill="#000000"/><text fill="#000000" font-family="sans-serif" font-size="12" font-style="italic" lengthAdjust="spacing" textLength="43" x="1806.5" y="402.957">«entity»</text><text fill="#000000" font-family="sans-serif" font-size="12" font-style="italic" lengthAdjust="spacing" textLength="35" x="1810.5" y="418.0508">«root»</text><text fill="#000000" font-family="sans-serif" font-size="14" lengthAdjust="spacing" textLength="69" x="1793.5" y="435.2207">Notification</text><line style="stroke:#181818;stroke-width:0.5;" x1="1765.5" x2="1864.5" y1="443.2969" y2="443.2969"/></g><!--MD5=[ed6624c6556d5e7b1bd23032162d20b7]
class Client--><g id="elem_Client"><rect codeLine="103" fill="#F5F5DC" height="65.7969" id="Client" rx="2.5" ry="2.5" style="stroke:#181818;stroke-width:0.5;" width="71" x="1670.5" y="42"/><ellipse cx="1685.5" cy="70.8984" fill="#ADD1B2" rx="11" ry="11" style="stroke:#181818;stroke-width:1.0;"/><path d="M1684,71.8984 L1684,73.8984 L1688,73.8984 L1688,72.8984 L1688,72.4141 L1688.625,71.8984 L1689,71.8984 L1689.375,71.8984 L1690,72.4141 L1690,72.8984 L1690,75.8984 L1682,75.8984 L1681.5156,75.8984 L1681,75.2734 L1681,74.8984 L1681,74.5234 L1681.5156,73.8984 L1682,73.8984 L1682,73.8984 L1682,67.8984 L1682,67.8984 L1681.5156,67.8984 L1681,67.2734 L1681,66.8984 L1681,66.5234 L1681.5156,65.8984 L1682,65.8984 L1690,65.8984 L1690,68.8984 L1690,69.3828 L1689.375,69.8984 L1689,69.8984 L1688.625,69.8984 L1688,69.3828 L1688,68.8984 L1688,67.8984 L1684,67.8984 L1684,69.8984 L1685,69.8984 L1685,69.4141 L1685,69.4141 L1685.625,68.8984 L1686,68.8984 L1686.375,68.8984 L1687,69.4141 L1687,69.8984 L1687,71.8984 L1687,72.3828 L1686.375,72.8984 L1686.375,72.8984 L1686,72.8984 L1685.625,72.8984 L1685,72.3828 L1685,72.3828 L1685,71.8984 L1684,71.8984 Z " fill="#000000"/><text fill="#000000" font-family="sans-serif" font-size="12" font-style="italic" lengthAdjust="spacing" textLength="43" x="1697.5" y="59.457">«entity»</text><text fill="#000000" font-family="sans-serif" font-size="12" font-style="italic" lengthAdjust="spacing" textLength="35" x="1701.5" y="74.5508">«root»</text><text fill="#000000" font-family="sans-serif" font-size="14" lengthAdjust="spacing" textLength="36" x="1701" y="91.7207">Client</text><line style="stroke:#181818;stroke-width:0.5;" x1="1671.5" x2="1740.5" y1="99.7969" y2="99.7969"/></g><!--MD5=[5499c435bc16acea28ddc64681c74fbb]
link Survey to AlphanumericCode--><g id="link_Survey_AlphanumericCode"><path codeLine="69" d="M1470.8,246.89 C1401.62,253.65 1253.1,275.32 1149,341.5 C1126.77,355.63 1103.75,374.17 1086.05,389.41 " fill="none" id="Survey-to-AlphanumericCode" style="stroke:#222222;stroke-width:1.0;"/><polygon fill="#222222" points="1082.12,392.8,1091.545,389.9419,1085.9032,389.5308,1086.3143,383.8889,1082.12,392.8" style="stroke:#222222;stroke-width:1.0;"/><text fill="#000000" font-family="sans-serif" font-size="13" lengthAdjust="spacing" textLength="69" x="1212" y="320.4951">identified by</text><text fill="#000000" font-family="sans-serif" font-size="13" lengthAdjust="spacing" textLength="7" x="1080.8774" y="382.1598">1</text></g><!--MD5=[0b4debe2092e88b167a50a5f1b002e59]
link Survey to Description--><g id="link_Survey_Description"><path codeLine="70" d="M1471,251.05 C1432.01,259.55 1370.76,276.5 1325,306 C1290.93,327.96 1260.4,363.55 1241.38,388.6 " fill="none" id="Survey-to-Description" style="stroke:#222222;stroke-width:1.0;"/><polygon fill="#222222" points="1238.19,392.84,1246.7982,388.0548,1241.1969,388.8452,1240.4065,383.2438,1238.19,392.84" style="stroke:#222222;stroke-width:1.0;"/><text fill="#000000" font-family="sans-serif" font-size="13" lengthAdjust="spacing" textLength="96" x="1326" y="320.4951">characterized by</text><text fill="#000000" font-family="sans-serif" font-size="13" lengthAdjust="spacing" textLength="7" x="1234.5269" y="382.2095">1</text></g><!--MD5=[a8c0f4d6075942a4ab340055e1ada23e]
link Survey to Period--><g id="link_Survey_Period"><path codeLine="71" d="M1474.27,276.16 C1464.78,285.48 1454.71,295.88 1446,306 C1432.04,322.21 1417.95,340.71 1405.52,357.9 " fill="none" id="Survey-to-Period" style="stroke:#222222;stroke-width:1.0;"/><polygon fill="#222222" points="1402.4,362.25,1410.8993,357.2739,1405.317,358.1891,1404.4019,352.6067,1402.4,362.25" style="stroke:#222222;stroke-width:1.0;"/><text fill="#000000" font-family="sans-serif" font-size="13" lengthAdjust="spacing" textLength="49" x="1447" y="320.4951">available</text><text fill="#000000" font-family="sans-serif" font-size="13" lengthAdjust="spacing" textLength="7" x="1399.7434" y="351.5656">1</text></g><!--MD5=[7bfd49f25df5a9d19af7dbd28a494480]
link Survey to Rule--><g id="link_Survey_Rule"><path codeLine="72" d="M1507.15,276.17 C1506.67,285.76 1506.23,296.3 1506,306 C1505.33,333.6 1506.34,365.04 1507.36,387.48 " fill="none" id="Survey-to-Rule" style="stroke:#222222;stroke-width:1.0;"/><polygon fill="#222222" points="1507.61,392.7,1511.1687,383.5165,1507.3674,387.7059,1503.1781,383.9047,1507.61,392.7" style="stroke:#222222;stroke-width:1.0;"/><text fill="#000000" font-family="sans-serif" font-size="13" lengthAdjust="spacing" textLength="64" x="1507" y="320.4951">determined</text><text fill="#000000" font-family="sans-serif" font-size="13" lengthAdjust="spacing" textLength="7" x="1499.4181" y="382.0354">1</text></g><!--MD5=[08f5806e336f712cdf08037e9415a76d]
link Survey to Section--><g id="link_Survey_Section"><path codeLine="73" d="M1546.67,276.01 C1556.67,285.25 1567.14,295.65 1576,306 C1587.51,319.44 1598.79,334.71 1608.96,349.54 " fill="none" id="Survey-to-Section" style="stroke:#222222;stroke-width:1.0;"/><polygon fill="#222222" points="1611.79,353.71,1610.0415,344.0176,1608.9804,349.574,1603.424,348.513,1611.79,353.71" style="stroke:#222222;stroke-width:1.0;"/><text fill="#000000" font-family="sans-serif" font-size="13" lengthAdjust="spacing" textLength="56" x="1590" y="320.4951">organized</text><text fill="#000000" font-family="sans-serif" font-size="13" lengthAdjust="spacing" textLength="20" x="1586.4077" y="343.2552">1..*</text></g><!--MD5=[87fa8ff7d398728728a611d860795352]
link Section to Question--><g id="link_Section_Question"><path codeLine="74" d="M1598.48,470.14 C1592.76,474.73 1586.88,479.11 1581,483 C1527.11,518.68 1495.24,498.85 1449,544 C1428.11,564.4 1412.53,592.3 1401.43,618.02 " fill="none" id="Section-to-Question" style="stroke:#222222;stroke-width:1.0;"/><polygon fill="#222222" points="1399.41,622.79,1406.5965,616.0555,1401.3554,618.184,1399.2269,612.9428,1399.41,622.79" style="stroke:#222222;stroke-width:1.0;"/><text fill="#000000" font-family="sans-serif" font-size="13" lengthAdjust="spacing" textLength="78" x="1450" y="558.4951">composed by</text><text fill="#000000" font-family="sans-serif" font-size="13" lengthAdjust="spacing" textLength="20" x="1380.5486" y="612.344">1..*</text></g><!--MD5=[ddd149d3cd02b26f1f541f2ca7156634]
link Section to SectionTitle--><g id="link_Section_SectionTitle"><path codeLine="75" d="M1598.35,467.94 C1578.24,489.32 1557.03,515.96 1544,544 C1527.08,580.41 1522.33,627.07 1521.14,656.88 " fill="none" id="Section-to-SectionTitle" style="stroke:#222222;stroke-width:1.0;"/><polygon fill="#222222" points="1520.97,661.88,1525.2769,653.0228,1521.1418,656.883,1517.2816,652.7479,1520.97,661.88" style="stroke:#222222;stroke-width:1.0;"/><text fill="#000000" font-family="sans-serif" font-size="13" lengthAdjust="spacing" textLength="96" x="1545" y="558.4951">characterized by</text><text fill="#000000" font-family="sans-serif" font-size="13" lengthAdjust="spacing" textLength="7" x="1513.1096" y="651.2593">1</text></g><!--MD5=[d1bcfee18c22c660a2c5765cdd459525]
link Section to MandatoryCondition--><g id="link_Section_MandatoryCondition"><path codeLine="76" d="M1651.05,483.3 C1648.76,575.58 1635.45,749.61 1572,881 C1561.89,901.94 1545.86,922.43 1531.91,938.11 " fill="none" id="Section-to-MandatoryCondition" style="stroke:#222222;stroke-width:1.0;"/><polygon fill="#222222" points="1528.41,941.98,1537.4039,937.9662,1531.7548,938.2635,1531.4575,932.6145,1528.41,941.98" style="stroke:#222222;stroke-width:1.0;"/><text fill="#000000" font-family="sans-serif" font-size="13" lengthAdjust="spacing" textLength="60" x="1641" y="692.9951">dependent</text><text fill="#000000" font-family="sans-serif" font-size="13" lengthAdjust="spacing" textLength="7" x="1526.7682" y="930.9687">1</text></g><!--MD5=[4765df7eb0ad81544909bcf2bc6aa8a7]
link Question to MandatoryCondition--><g id="link_Question_MandatoryCondition"><path codeLine="77" d="M1372.78,752.35 C1371.8,791.67 1375.88,841.86 1397,881 C1409.97,905.03 1432.84,924.71 1454.11,939.1 " fill="none" id="Question-to-MandatoryCondition" style="stroke:#222222;stroke-width:1.0;"/><polygon fill="#222222" points="1458.34,941.91,1453.0505,933.6021,1454.1732,939.1464,1448.6288,940.269,1458.34,941.91" style="stroke:#222222;stroke-width:1.0;"/><text fill="#000000" font-family="sans-serif" font-size="13" lengthAdjust="spacing" textLength="60" x="1398" y="860.9951">dependent</text><text fill="#000000" font-family="sans-serif" font-size="13" lengthAdjust="spacing" textLength="7" x="1439.3572" y="931.2966">1</text></g><!--MD5=[e0fffaa13fbd595c085593598a8eda75]
link Question to Type--><g id="link_Question_Type"><path codeLine="78" d="M1326.34,740.88 C1320.74,745.01 1314.92,748.81 1309,752 C1148.72,838.45 927.86,853.14 822.97,854.89 " fill="none" id="Question-to-Type" style="stroke:#222222;stroke-width:1.0;"/><polygon fill="#222222" points="817.75,854.97,826.8062,858.841,822.7495,854.8986,826.6919,850.8418,817.75,854.97" style="stroke:#222222;stroke-width:1.0;"/><text fill="#000000" font-family="sans-serif" font-size="13" lengthAdjust="spacing" textLength="63" x="1241" y="796.4951">associated</text><text fill="#000000" font-family="sans-serif" font-size="13" lengthAdjust="spacing" textLength="7" x="825.5773" y="851.3625">1</text></g><!--MD5=[db6878cecdc67444858a6a907062a57a]
link FreeText to Type--><g id="link_FreeText_Type"><path codeLine="79" d="M1214.83,713.08 C1201.57,726.39 1183.71,742.09 1165,752 C1052.73,811.45 904.34,837.64 822.89,848.17 " fill="none" id="FreeText-to-Type" style="stroke:#222222;stroke-width:1.0;"/><polygon fill="#222222" points="817.63,848.85,827.0617,851.6861,822.5903,848.221,826.0553,843.7496,817.63,848.85" style="stroke:#222222;stroke-width:1.0;"/><text fill="#000000" font-family="sans-serif" font-size="13" lengthAdjust="spacing" textLength="21" x="1093" y="796.4951">is a</text><text fill="#000000" font-family="sans-serif" font-size="13" lengthAdjust="spacing" textLength="7" x="825.4412" y="862.5701">1</text></g><!--MD5=[f87929cee8b9bb1f70061d7e25cb554d]
link Numeric to Type--><g id="link_Numeric_Type"><path codeLine="80" d="M907.55,713.35 C876.66,743.51 824.7,794.25 792.21,825.98 " fill="none" id="Numeric-to-Type" style="stroke:#222222;stroke-width:1.0;"/><polygon fill="#222222" points="788.35,829.75,797.5845,826.3259,791.928,826.2575,791.9965,820.601,788.35,829.75" style="stroke:#222222;stroke-width:1.0;"/><text fill="#000000" font-family="sans-serif" font-size="13" lengthAdjust="spacing" textLength="21" x="833" y="796.4951">is a</text><text fill="#000000" font-family="sans-serif" font-size="13" lengthAdjust="spacing" textLength="7" x="786.6759" y="819.0976">1</text></g><!--MD5=[6f21dfc22530f4fb3496e2ebbfd534fd]
link SingleChoice to Type--><g id="link_SingleChoice_Type"><path codeLine="81" d="M615.9,713.35 C647.33,743.51 700.21,794.25 733.28,825.98 " fill="none" id="SingleChoice-to-Type" style="stroke:#222222;stroke-width:1.0;"/><polygon fill="#222222" points="737.21,829.75,733.4891,820.631,733.6036,826.2867,727.9479,826.4012,737.21,829.75" style="stroke:#222222;stroke-width:1.0;"/><text fill="#000000" font-family="sans-serif" font-size="13" lengthAdjust="spacing" textLength="21" x="703" y="796.4951">is a</text><text fill="#000000" font-family="sans-serif" font-size="13" lengthAdjust="spacing" textLength="7" x="723.0706" y="819.0976">1</text></g><!--MD5=[f104972ac09c6a86297e9e7a5d1a3462]
link SingleChoiceValue to Type--><g id="link_SingleChoiceValue_Type"><path codeLine="82" d="M454.52,713.16 C471.91,725.71 494.02,740.66 515,752 C576.94,785.48 652.17,815.15 703.42,833.84 " fill="none" id="SingleChoiceValue-to-Type" style="stroke:#222222;stroke-width:1.0;"/><polygon fill="#222222" points="708.31,835.62,701.2072,828.7973,703.6081,833.9193,698.4861,836.3203,708.31,835.62" style="stroke:#222222;stroke-width:1.0;"/><text fill="#000000" font-family="sans-serif" font-size="13" lengthAdjust="spacing" textLength="21" x="615" y="796.4951">is a</text><text fill="#000000" font-family="sans-serif" font-size="13" lengthAdjust="spacing" textLength="7" x="693.4907" y="829.4123">1</text></g><!--MD5=[9086aec69c79d683a55fe5a9188fe3bc]
link MultipleChoice to Type--><g id="link_MultipleChoice_Type"><path codeLine="83" d="M1057.84,713.09 C1042.96,725.77 1023.75,740.87 1005,752 C946.09,786.98 873.03,816.19 822.69,834.36 " fill="none" id="MultipleChoice-to-Type" style="stroke:#222222;stroke-width:1.0;"/><polygon fill="#222222" points="817.89,836.08,827.712,836.8067,822.5964,834.392,825.0112,829.2764,817.89,836.08" style="stroke:#222222;stroke-width:1.0;"/><text fill="#000000" font-family="sans-serif" font-size="13" lengthAdjust="spacing" textLength="21" x="948" y="796.4951">is a</text><text fill="#000000" font-family="sans-serif" font-size="13" lengthAdjust="spacing" textLength="7" x="825.3712" y="830.1035">1</text></g><!--MD5=[a2e95a015daeca9112f81517567e0fce]
link MultipleChoiceValue to Type--><g id="link_MultipleChoiceValue_Type"><path codeLine="84" d="M763,713.35 C763,743.02 763,792.61 763,824.42 " fill="none" id="MultipleChoiceValue-to-Type" style="stroke:#222222;stroke-width:1.0;"/><polygon fill="#222222" points="763,829.75,767,820.75,763,824.75,759,820.75,763,829.75" style="stroke:#222222;stroke-width:1.0;"/><text fill="#000000" font-family="sans-serif" font-size="13" lengthAdjust="spacing" textLength="21" x="764" y="796.4951">is a</text><text fill="#000000" font-family="sans-serif" font-size="13" lengthAdjust="spacing" textLength="7" x="755.1469" y="819.0976">1</text></g><!--MD5=[dd1b5bb740b7757427cd68d81d1f65f5]
link SortingOptions to Type--><g id="link_SortingOptions_Type"><path codeLine="85" d="M273.4,713.13 C288.46,726.46 308.55,742.16 329,752 C454.18,812.22 617.08,838.38 703.34,848.64 " fill="none" id="SortingOptions-to-Type" style="stroke:#222222;stroke-width:1.0;"/><polygon fill="#222222" points="708.4,849.23,699.9298,844.2044,703.4343,848.645,698.9938,852.1495,708.4,849.23" style="stroke:#222222;stroke-width:1.0;"/><text fill="#000000" font-family="sans-serif" font-size="13" lengthAdjust="spacing" textLength="21" x="455" y="796.4951">is a</text><text fill="#000000" font-family="sans-serif" font-size="13" lengthAdjust="spacing" textLength="7" x="693.5928" y="863.0012">1</text></g><!--MD5=[59627524b741c72af85209d25267eb6e]
link ScalingOptions to Type--><g id="link_ScalingOptions_Type"><path codeLine="86" d="M111.74,713.16 C127,726.5 147.34,742.2 168,752 C349.33,838 592.24,852.7 703.19,854.64 " fill="none" id="ScalingOptions-to-Type" style="stroke:#222222;stroke-width:1.0;"/><polygon fill="#222222" points="708.38,854.72,699.4381,850.5918,703.3805,854.6486,699.3238,858.591,708.38,854.72" style="stroke:#222222;stroke-width:1.0;"/><text fill="#000000" font-family="sans-serif" font-size="13" lengthAdjust="spacing" textLength="21" x="291" y="796.4951">is a</text><text fill="#000000" font-family="sans-serif" font-size="13" lengthAdjust="spacing" textLength="7" x="693.5701" y="851.0789">1</text></g><!--MD5=[6926d5174a3032b1dcc6c5d6f900c16b]
link Question to Answer--><g id="link_Question_Answer"><path codeLine="87" d="M1431.19,752.21 C1451.98,777.58 1474.85,805.5 1491.44,825.75 " fill="none" id="Question-to-Answer" style="stroke:#222222;stroke-width:1.0;"/><polygon fill="#222222" points="1494.68,829.69,1492.092,820.1873,1491.52,825.8151,1485.8922,825.2432,1494.68,829.69" style="stroke:#222222;stroke-width:1.0;"/><text fill="#000000" font-family="sans-serif" font-size="13" lengthAdjust="spacing" textLength="21" x="1468" y="796.4951">has</text><text fill="#000000" font-family="sans-serif" font-size="13" lengthAdjust="spacing" textLength="7" x="1481.8739" y="819.023">1</text></g><!--MD5=[47b575f7780d942ae7d1ff9f238ea05e]
link Survey to Notification--><g id="link_Survey_Notification"><path codeLine="97" d="M1547.01,257.01 C1591.51,273.17 1666.44,303.34 1724,341.5 C1742.03,353.45 1760.59,368.4 1776.21,381.87 " fill="none" id="Survey-to-Notification" style="stroke:#222222;stroke-width:1.0;"/><polygon fill="#222222" points="1780.12,385.26,1775.9616,376.3321,1776.35,381.9756,1770.7065,382.364,1780.12,385.26" style="stroke:#222222;stroke-width:1.0;"/><text fill="#000000" font-family="sans-serif" font-size="13" lengthAdjust="spacing" textLength="32" x="1692" y="320.4951">emits</text><text fill="#000000" font-family="sans-serif" font-size="13" lengthAdjust="spacing" textLength="20" x="1751.2843" y="374.6906">1..*</text></g><!--MD5=[3d2d5cdd8aa6df365188843f8b3f5700]
link Client to Notification--><g id="link_Client_Notification"><path codeLine="107" d="M1716.25,108.13 C1736.5,171.56 1781.51,312.58 1803.06,380.09 " fill="none" id="Client-to-Notification" style="stroke:#222222;stroke-width:1.0;"/><polygon fill="#222222" points="1804.69,385.21,1805.745,375.4178,1803.1604,380.4497,1798.1285,377.8651,1804.69,385.21" style="stroke:#222222;stroke-width:1.0;"/><text fill="#000000" font-family="sans-serif" font-size="13" lengthAdjust="spacing" textLength="40" x="1770" y="248.4951">receive</text><text fill="#000000" font-family="sans-serif" font-size="13" lengthAdjust="spacing" textLength="20" x="1780.6915" y="374.6308">1..*</text></g><!--MD5=[a19dd6ae985efbd490fb16e6de91b3a6]
link Client to Survey--><g id="link_Client_Survey"><path codeLine="108" d="M1670.32,106.06 C1636.87,134.25 1586.82,176.43 1551.35,206.31 " fill="none" id="Client-to-Survey" style="stroke:#222222;stroke-width:1.0;"/><polygon fill="#222222" points="1547.1,209.9,1556.5538,207.1385,1550.9164,206.6696,1551.3852,201.0323,1547.1,209.9" style="stroke:#222222;stroke-width:1.0;"/><text fill="#000000" font-family="sans-serif" font-size="13" lengthAdjust="spacing" textLength="48" x="1626" y="154.4951">answers</text><text fill="#000000" font-family="sans-serif" font-size="13" lengthAdjust="spacing" textLength="20" x="1532.8956" y="198.9754">1..*</text></g><!--MD5=[4fc6ffb5a82a371391190c11503f4e0a]
@startuml

skinparam classAttributeIconSize 0
hide empty attributes
skinparam classBackgroundColor beige
skinparam ArrowColor #222222

package "<<aggregate>> Survey" {
    entity Survey
    class AlphanumericCode
    class Description
    class Period
    class Rule
    entity Section
    entity Question
    class SectionTitle
    class MandatoryCondition
    class Type
    class FreeText
    class MultipleChoice
    class Numeric
    class MultipleChoiceValue
    class SingleChoice
    class SingleChoiceValue
    class SortingOptions
    class ScalingOptions
    entity Answer
}

entity Survey <<entity>> <<root>> {


}

class AlphanumericCode <<(V,#FF8B40) value object>>
class Description <<(V,#FF8B40) value object>>
class Period <<(V,#FF8B40) value object>> {
- initialDate
- finalDate
- activeDays
}
class Rule <<(V,#FF8B40) value object>>
entity Section <<entity>> {
- id
- description
- obligatoriness
- repeatability
}

class SectionTitle <<(V,#FF8B40) value object>>
class MandatoryCondition <<(V,#FF8B40) value object>>
entity Question <<entity>> {
- id
- statement
- instruction
- obligatoriness
}
entity Answer <<entity>> {
}
class Type <<(V,#FF8B40) value object>>
class FreeText <<(V,#FF8B40) value object>>
class Numeric <<(V,#FF8B40) value object>>
class SingleChoice <<(V,#FF8B40) value object>>
class SingleChoiceValue <<(V,#FF8B40) value object>>
class MultipleChoice <<(V,#FF8B40) value object>>
class MultipleChoiceValue <<(V,#FF8B40) value object>>
class SortingOptions <<(V,#FF8B40) value object>>
class ScalingOptions <<(V,#FF8B40) value object>>

Survey - -> "1" AlphanumericCode : identified by
Survey - -> "1" Description : characterized by
Survey - -> "1" Period : available
Survey - -> "1" Rule : determined
Survey - -> "1..*" Section : organized
Section - - -> "1..*" Question: composed by
Section - - -> "1" SectionTitle: characterized by
Section - -> "1"  MandatoryCondition: dependent
Question - - -> "1" MandatoryCondition: dependent
Question - -> "1" Type: associated
FreeText - -> "1" Type: is a
Numeric - -> "1" Type: is a
SingleChoice - -> "1" Type: is a
SingleChoiceValue - -> "1" Type: is a
MultipleChoice - -> "1" Type: is a
MultipleChoiceValue - -> "1" Type: is a
SortingOptions - -> "1" Type: is a
ScalingOptions - -> "1" Type: is a
Question - -> "1" Answer : has
package "<<aggregate>> Notification" {
    entity Notification
}

entity Notification <<entity>> <<root>> {


}

Survey - -> "1..*" Notification : emits

package "<<aggregate>> Client" {
    entity Client
}

entity Client <<entity>> <<root>> {

}

Client - -> "1..*" Notification : receive
Client - -> "1..*" Survey : answers


@enduml

PlantUML version 1.2022.4(Sat Apr 09 14:29:17 BST 2022)
(GPL source distribution)
Java Runtime: OpenJDK Runtime Environment
JVM: OpenJDK 64-Bit Server VM
Default Encoding: Cp1252
Language: pt
Country: PT
--></g></svg>