<?xml version="1.0" encoding="UTF-8" standalone="no"?><svg xmlns="http://www.w3.org/2000/svg" xmlns:xlink="http://www.w3.org/1999/xlink" contentScriptType="application/ecmascript" contentStyleType="text/css" height="611px" preserveAspectRatio="none" style="width:507px;height:611px;background:#FFFFFF;" version="1.1" viewBox="0 0 507 611" width="507px" zoomAndPan="magnify"><defs><filter height="300%" id="f1vmzhzp1y9rwx" width="300%" x="-1" y="-1"><feGaussianBlur result="blurOut" stdDeviation="2.0"/><feColorMatrix in="blurOut" result="blurOut2" type="matrix" values="0 0 0 0 0 0 0 0 0 0 0 0 0 0 0 0 0 0 .4 0"/><feOffset dx="4.0" dy="4.0" in="blurOut2" result="blurOut3"/><feBlend in="SourceGraphic" in2="blurOut3" mode="normal"/></filter></defs><g><!--MD5=[d096574f60959d1a0d13b8521eabc61e]
class CriarCategoriaUi--><rect codeLine="3" fill="#FEFECE" filter="url(#f1vmzhzp1y9rwx)" height="48" id="CriarCategoriaUi" style="stroke:#A80036;stroke-width:1.5;" width="125" x="228" y="7"/><ellipse cx="243" cy="23" fill="#ADD1B2" rx="11" ry="11" style="stroke:#A80036;stroke-width:1.0;"/><path d="M245,19.5 Q245.2031,19 245.4375,18.75 Q245.6719,18.5 245.9375,18.5 Q246.4063,18.5 246.7031,18.7813 Q247,19.0625 247,19.7188 L247,21.2813 Q247,21.9375 246.7188,22.2188 Q246.4375,22.5 246,22.5 Q245.6094,22.5 245.3594,22.3281 Q245.1094,22.1563 245,21.7031 Q244.9531,21.3906 244.7813,21.2188 Q244.4688,20.8906 243.9063,20.7031 Q243.3438,20.5 242.7813,20.5 Q242.0781,20.5 241.4844,20.7813 Q240.9063,21.0625 240.4531,21.6875 Q240,22.3125 240,23.1719 L240,24.0938 Q240,25.125 240.8438,25.8125 Q241.6875,26.5 243.1875,26.5 Q244.0781,26.5 244.7031,26.2969 Q245.0625,26.1875 245.4688,25.8281 Q245.7344,25.625 245.875,25.5625 Q246.0156,25.5 246.1875,25.5 Q246.5156,25.5 246.75,25.7656 Q247,26.0156 247,26.375 Q247,26.7188 246.6563,27.125 Q246.1563,27.7188 245.3594,28.0469 Q244.3125,28.5 243.0313,28.5 Q241.5313,28.5 240.3281,27.9063 Q239.3594,27.4375 238.6719,26.4219 Q238,25.4063 238,24.2031 L238,23.1094 Q238,21.8594 238.5938,20.7656 Q239.2031,19.6719 240.25,19.0938 Q241.3125,18.5 242.5,18.5 Q243.2188,18.5 243.8438,18.75 Q244.4688,19 245,19.5 Z " fill="#000000"/><text fill="#000000" font-family="sans-serif" font-size="12" lengthAdjust="spacing" textLength="93" x="257" y="27.9102">CriarCategoriaUi</text><line style="stroke:#A80036;stroke-width:1.5;" x1="229" x2="352" y1="39" y2="39"/><line style="stroke:#A80036;stroke-width:1.5;" x1="229" x2="352" y1="47" y2="47"/><!--MD5=[6f96ccd11d2f3c9d01fab099f9f54109]
class CriarCategoriaController--><rect codeLine="11" fill="#FEFECE" filter="url(#f1vmzhzp1y9rwx)" height="61.8359" id="CriarCategoriaController" style="stroke:#A80036;stroke-width:1.5;" width="328" x="126.5" y="115"/><ellipse cx="218.75" cy="131" fill="#ADD1B2" rx="11" ry="11" style="stroke:#A80036;stroke-width:1.0;"/><path d="M220.75,127.5 Q220.9531,127 221.1875,126.75 Q221.4219,126.5 221.6875,126.5 Q222.1563,126.5 222.4531,126.7813 Q222.75,127.0625 222.75,127.7188 L222.75,129.2813 Q222.75,129.9375 222.4688,130.2188 Q222.1875,130.5 221.75,130.5 Q221.3594,130.5 221.1094,130.3281 Q220.8594,130.1563 220.75,129.7031 Q220.7031,129.3906 220.5313,129.2188 Q220.2188,128.8906 219.6563,128.7031 Q219.0938,128.5 218.5313,128.5 Q217.8281,128.5 217.2344,128.7813 Q216.6563,129.0625 216.2031,129.6875 Q215.75,130.3125 215.75,131.1719 L215.75,132.0938 Q215.75,133.125 216.5938,133.8125 Q217.4375,134.5 218.9375,134.5 Q219.8281,134.5 220.4531,134.2969 Q220.8125,134.1875 221.2188,133.8281 Q221.4844,133.625 221.625,133.5625 Q221.7656,133.5 221.9375,133.5 Q222.2656,133.5 222.5,133.7656 Q222.75,134.0156 222.75,134.375 Q222.75,134.7188 222.4063,135.125 Q221.9063,135.7188 221.1094,136.0469 Q220.0625,136.5 218.7813,136.5 Q217.2813,136.5 216.0781,135.9063 Q215.1094,135.4375 214.4219,134.4219 Q213.75,133.4063 213.75,132.2031 L213.75,131.1094 Q213.75,129.8594 214.3438,128.7656 Q214.9531,127.6719 216,127.0938 Q217.0625,126.5 218.25,126.5 Q218.9688,126.5 219.5938,126.75 Q220.2188,127 220.75,127.5 Z " fill="#000000"/><text fill="#000000" font-family="sans-serif" font-size="12" lengthAdjust="spacing" textLength="135" x="239.25" y="135.9102">CriarCategoriaController</text><line style="stroke:#A80036;stroke-width:1.5;" x1="127.5" x2="453.5" y1="147" y2="147"/><line style="stroke:#A80036;stroke-width:1.5;" x1="127.5" x2="453.5" y1="155" y2="155"/><rect fill="#F24D5C" height="6" style="stroke:#C82930;stroke-width:1.0;" width="6" x="134.5" y="163"/><text fill="#000000" font-family="sans-serif" font-size="11" lengthAdjust="spacing" textLength="302" x="146.5" y="170.4189">addCategoria(codigoAlfanumerico, descricao, superCategoria)</text><!--MD5=[c80a3de476e7bd9c716578ae9e5bab59]
class CategoriaFactory--><rect codeLine="16" fill="#FEFECE" filter="url(#f1vmzhzp1y9rwx)" height="103.3438" id="CategoriaFactory" style="stroke:#A80036;stroke-width:1.5;" width="146" x="128.5" y="237"/><ellipse cx="152.95" cy="253" fill="#ADD1B2" rx="11" ry="11" style="stroke:#A80036;stroke-width:1.0;"/><path d="M154.95,249.5 Q155.1531,249 155.3875,248.75 Q155.6219,248.5 155.8875,248.5 Q156.3563,248.5 156.6531,248.7813 Q156.95,249.0625 156.95,249.7188 L156.95,251.2813 Q156.95,251.9375 156.6688,252.2188 Q156.3875,252.5 155.95,252.5 Q155.5594,252.5 155.3094,252.3281 Q155.0594,252.1563 154.95,251.7031 Q154.9031,251.3906 154.7313,251.2188 Q154.4188,250.8906 153.8563,250.7031 Q153.2938,250.5 152.7313,250.5 Q152.0281,250.5 151.4344,250.7813 Q150.8563,251.0625 150.4031,251.6875 Q149.95,252.3125 149.95,253.1719 L149.95,254.0938 Q149.95,255.125 150.7938,255.8125 Q151.6375,256.5 153.1375,256.5 Q154.0281,256.5 154.6531,256.2969 Q155.0125,256.1875 155.4188,255.8281 Q155.6844,255.625 155.825,255.5625 Q155.9656,255.5 156.1375,255.5 Q156.4656,255.5 156.7,255.7656 Q156.95,256.0156 156.95,256.375 Q156.95,256.7188 156.6063,257.125 Q156.1063,257.7188 155.3094,258.0469 Q154.2625,258.5 152.9813,258.5 Q151.4813,258.5 150.2781,257.9063 Q149.3094,257.4375 148.6219,256.4219 Q147.95,255.4063 147.95,254.2031 L147.95,253.1094 Q147.95,251.8594 148.5438,250.7656 Q149.1531,249.6719 150.2,249.0938 Q151.2625,248.5 152.45,248.5 Q153.1688,248.5 153.7938,248.75 Q154.4188,249 154.95,249.5 Z " fill="#000000"/><text fill="#000000" font-family="sans-serif" font-size="12" lengthAdjust="spacing" textLength="93" x="169.05" y="257.9102">CategoriaFactory</text><line style="stroke:#A80036;stroke-width:1.5;" x1="129.5" x2="273.5" y1="269" y2="269"/><line style="stroke:#A80036;stroke-width:1.5;" x1="129.5" x2="273.5" y1="277" y2="277"/><rect fill="#F24D5C" height="6" style="stroke:#C82930;stroke-width:1.0;" width="6" x="136.5" y="285"/><text fill="#000000" font-family="sans-serif" font-size="11" lengthAdjust="spacing" textLength="120" x="148.5" y="292.4189">setCodigoAlfanumerico()</text><rect fill="#F24D5C" height="6" style="stroke:#C82930;stroke-width:1.0;" width="6" x="136.5" y="298.8359"/><text fill="#000000" font-family="sans-serif" font-size="11" lengthAdjust="spacing" textLength="72" x="148.5" y="306.2549">setDescricao()</text><rect fill="#F24D5C" height="6" style="stroke:#C82930;stroke-width:1.0;" width="6" x="136.5" y="312.6719"/><text fill="#000000" font-family="sans-serif" font-size="11" lengthAdjust="spacing" textLength="98" x="148.5" y="320.0908">setSuperCategoria()</text><rect fill="#F24D5C" height="6" style="stroke:#C82930;stroke-width:1.0;" width="6" x="136.5" y="326.5078"/><text fill="#000000" font-family="sans-serif" font-size="11" lengthAdjust="spacing" textLength="85" x="148.5" y="333.9268">createCategoria()</text><!--MD5=[7e1ce8ab2bf669717f28e918f4971b9a]
class Categoria--><rect codeLine="23" fill="#FEFECE" filter="url(#f1vmzhzp1y9rwx)" height="61.8359" id="Categoria" style="stroke:#A80036;stroke-width:1.5;" width="311" x="7" y="400"/><ellipse cx="131.25" cy="416" fill="#ADD1B2" rx="11" ry="11" style="stroke:#A80036;stroke-width:1.0;"/><path d="M133.25,412.5 Q133.4531,412 133.6875,411.75 Q133.9219,411.5 134.1875,411.5 Q134.6563,411.5 134.9531,411.7813 Q135.25,412.0625 135.25,412.7188 L135.25,414.2813 Q135.25,414.9375 134.9688,415.2188 Q134.6875,415.5 134.25,415.5 Q133.8594,415.5 133.6094,415.3281 Q133.3594,415.1563 133.25,414.7031 Q133.2031,414.3906 133.0313,414.2188 Q132.7188,413.8906 132.1563,413.7031 Q131.5938,413.5 131.0313,413.5 Q130.3281,413.5 129.7344,413.7813 Q129.1563,414.0625 128.7031,414.6875 Q128.25,415.3125 128.25,416.1719 L128.25,417.0938 Q128.25,418.125 129.0938,418.8125 Q129.9375,419.5 131.4375,419.5 Q132.3281,419.5 132.9531,419.2969 Q133.3125,419.1875 133.7188,418.8281 Q133.9844,418.625 134.125,418.5625 Q134.2656,418.5 134.4375,418.5 Q134.7656,418.5 135,418.7656 Q135.25,419.0156 135.25,419.375 Q135.25,419.7188 134.9063,420.125 Q134.4063,420.7188 133.6094,421.0469 Q132.5625,421.5 131.2813,421.5 Q129.7813,421.5 128.5781,420.9063 Q127.6094,420.4375 126.9219,419.4219 Q126.25,418.4063 126.25,417.2031 L126.25,416.1094 Q126.25,414.8594 126.8438,413.7656 Q127.4531,412.6719 128.5,412.0938 Q129.5625,411.5 130.75,411.5 Q131.4688,411.5 132.0938,411.75 Q132.7188,412 133.25,412.5 Z " fill="#000000"/><text fill="#000000" font-family="sans-serif" font-size="12" lengthAdjust="spacing" textLength="54" x="151.75" y="420.9102">Categoria</text><line style="stroke:#A80036;stroke-width:1.5;" x1="8" x2="317" y1="432" y2="432"/><line style="stroke:#A80036;stroke-width:1.5;" x1="8" x2="317" y1="440" y2="440"/><rect fill="#F24D5C" height="6" style="stroke:#C82930;stroke-width:1.0;" width="6" x="15" y="448"/><text fill="#000000" font-family="sans-serif" font-size="11" lengthAdjust="spacing" textLength="285" x="27" y="455.4189">Categoria (codifoAlfanumerico, descricao, superCategoria)</text><!--MD5=[e8c189551b7885b999ad7cefb30fc2a3]
class PersistenceContext--><rect codeLine="27" fill="#FEFECE" filter="url(#f1vmzhzp1y9rwx)" height="61.8359" id="PersistenceContext" style="stroke:#A80036;stroke-width:1.5;" width="139" x="329" y="257.5"/><ellipse cx="344" cy="273.5" fill="#ADD1B2" rx="11" ry="11" style="stroke:#A80036;stroke-width:1.0;"/><path d="M346,270 Q346.2031,269.5 346.4375,269.25 Q346.6719,269 346.9375,269 Q347.4063,269 347.7031,269.2813 Q348,269.5625 348,270.2188 L348,271.7813 Q348,272.4375 347.7188,272.7188 Q347.4375,273 347,273 Q346.6094,273 346.3594,272.8281 Q346.1094,272.6563 346,272.2031 Q345.9531,271.8906 345.7813,271.7188 Q345.4688,271.3906 344.9063,271.2031 Q344.3438,271 343.7813,271 Q343.0781,271 342.4844,271.2813 Q341.9063,271.5625 341.4531,272.1875 Q341,272.8125 341,273.6719 L341,274.5938 Q341,275.625 341.8438,276.3125 Q342.6875,277 344.1875,277 Q345.0781,277 345.7031,276.7969 Q346.0625,276.6875 346.4688,276.3281 Q346.7344,276.125 346.875,276.0625 Q347.0156,276 347.1875,276 Q347.5156,276 347.75,276.2656 Q348,276.5156 348,276.875 Q348,277.2188 347.6563,277.625 Q347.1563,278.2188 346.3594,278.5469 Q345.3125,279 344.0313,279 Q342.5313,279 341.3281,278.4063 Q340.3594,277.9375 339.6719,276.9219 Q339,275.9063 339,274.7031 L339,273.6094 Q339,272.3594 339.5938,271.2656 Q340.2031,270.1719 341.25,269.5938 Q342.3125,269 343.5,269 Q344.2188,269 344.8438,269.25 Q345.4688,269.5 346,270 Z " fill="#000000"/><text fill="#000000" font-family="sans-serif" font-size="12" lengthAdjust="spacing" textLength="107" x="358" y="278.4102">PersistenceContext</text><line style="stroke:#A80036;stroke-width:1.5;" x1="330" x2="467" y1="289.5" y2="289.5"/><line style="stroke:#A80036;stroke-width:1.5;" x1="330" x2="467" y1="297.5" y2="297.5"/><rect fill="#F24D5C" height="6" style="stroke:#C82930;stroke-width:1.0;" width="6" x="337" y="305.5"/><text fill="#000000" font-family="sans-serif" font-size="11" lengthAdjust="spacing" textLength="65" x="349" y="312.9189">repositories()</text><!--MD5=[48590afff58a68e2fcba47824d6f8a11]
class RepositoryFactory--><rect codeLine="31" fill="#FEFECE" filter="url(#f1vmzhzp1y9rwx)" height="61.8359" id="RepositoryFactory" style="stroke:#A80036;stroke-width:1.5;" width="130" x="353.5" y="400"/><ellipse cx="368.5" cy="416" fill="#ADD1B2" rx="11" ry="11" style="stroke:#A80036;stroke-width:1.0;"/><path d="M370.5,412.5 Q370.7031,412 370.9375,411.75 Q371.1719,411.5 371.4375,411.5 Q371.9063,411.5 372.2031,411.7813 Q372.5,412.0625 372.5,412.7188 L372.5,414.2813 Q372.5,414.9375 372.2188,415.2188 Q371.9375,415.5 371.5,415.5 Q371.1094,415.5 370.8594,415.3281 Q370.6094,415.1563 370.5,414.7031 Q370.4531,414.3906 370.2813,414.2188 Q369.9688,413.8906 369.4063,413.7031 Q368.8438,413.5 368.2813,413.5 Q367.5781,413.5 366.9844,413.7813 Q366.4063,414.0625 365.9531,414.6875 Q365.5,415.3125 365.5,416.1719 L365.5,417.0938 Q365.5,418.125 366.3438,418.8125 Q367.1875,419.5 368.6875,419.5 Q369.5781,419.5 370.2031,419.2969 Q370.5625,419.1875 370.9688,418.8281 Q371.2344,418.625 371.375,418.5625 Q371.5156,418.5 371.6875,418.5 Q372.0156,418.5 372.25,418.7656 Q372.5,419.0156 372.5,419.375 Q372.5,419.7188 372.1563,420.125 Q371.6563,420.7188 370.8594,421.0469 Q369.8125,421.5 368.5313,421.5 Q367.0313,421.5 365.8281,420.9063 Q364.8594,420.4375 364.1719,419.4219 Q363.5,418.4063 363.5,417.2031 L363.5,416.1094 Q363.5,414.8594 364.0938,413.7656 Q364.7031,412.6719 365.75,412.0938 Q366.8125,411.5 368,411.5 Q368.7188,411.5 369.3438,411.75 Q369.9688,412 370.5,412.5 Z " fill="#000000"/><text fill="#000000" font-family="sans-serif" font-size="12" lengthAdjust="spacing" textLength="98" x="382.5" y="420.9102">RepositoryFactory</text><line style="stroke:#A80036;stroke-width:1.5;" x1="354.5" x2="482.5" y1="432" y2="432"/><line style="stroke:#A80036;stroke-width:1.5;" x1="354.5" x2="482.5" y1="440" y2="440"/><rect fill="#F24D5C" height="6" style="stroke:#C82930;stroke-width:1.0;" width="6" x="361.5" y="448"/><text fill="#000000" font-family="sans-serif" font-size="11" lengthAdjust="spacing" textLength="97" x="373.5" y="455.4189">RepositoryFactory()</text><!--MD5=[6bb28681e1719aed27f7885f5c684a8a]
class CategoriaRepositorio--><rect codeLine="35" fill="#FEFECE" filter="url(#f1vmzhzp1y9rwx)" height="75.6719" id="CategoriaRepositorio" style="stroke:#A80036;stroke-width:1.5;" width="150" x="343.5" y="522"/><ellipse cx="358.5" cy="538" fill="#ADD1B2" rx="11" ry="11" style="stroke:#A80036;stroke-width:1.0;"/><path d="M360.5,534.5 Q360.7031,534 360.9375,533.75 Q361.1719,533.5 361.4375,533.5 Q361.9063,533.5 362.2031,533.7813 Q362.5,534.0625 362.5,534.7188 L362.5,536.2813 Q362.5,536.9375 362.2188,537.2188 Q361.9375,537.5 361.5,537.5 Q361.1094,537.5 360.8594,537.3281 Q360.6094,537.1563 360.5,536.7031 Q360.4531,536.3906 360.2813,536.2188 Q359.9688,535.8906 359.4063,535.7031 Q358.8438,535.5 358.2813,535.5 Q357.5781,535.5 356.9844,535.7813 Q356.4063,536.0625 355.9531,536.6875 Q355.5,537.3125 355.5,538.1719 L355.5,539.0938 Q355.5,540.125 356.3438,540.8125 Q357.1875,541.5 358.6875,541.5 Q359.5781,541.5 360.2031,541.2969 Q360.5625,541.1875 360.9688,540.8281 Q361.2344,540.625 361.375,540.5625 Q361.5156,540.5 361.6875,540.5 Q362.0156,540.5 362.25,540.7656 Q362.5,541.0156 362.5,541.375 Q362.5,541.7188 362.1563,542.125 Q361.6563,542.7188 360.8594,543.0469 Q359.8125,543.5 358.5313,543.5 Q357.0313,543.5 355.8281,542.9063 Q354.8594,542.4375 354.1719,541.4219 Q353.5,540.4063 353.5,539.2031 L353.5,538.1094 Q353.5,536.8594 354.0938,535.7656 Q354.7031,534.6719 355.75,534.0938 Q356.8125,533.5 358,533.5 Q358.7188,533.5 359.3438,533.75 Q359.9688,534 360.5,534.5 Z " fill="#000000"/><text fill="#000000" font-family="sans-serif" font-size="12" lengthAdjust="spacing" textLength="118" x="372.5" y="542.9102">CategoriaRepositorio</text><line style="stroke:#A80036;stroke-width:1.5;" x1="344.5" x2="492.5" y1="554" y2="554"/><line style="stroke:#A80036;stroke-width:1.5;" x1="344.5" x2="492.5" y1="562" y2="562"/><rect fill="#F24D5C" height="6" style="stroke:#C82930;stroke-width:1.0;" width="6" x="351.5" y="570"/><text fill="#000000" font-family="sans-serif" font-size="11" lengthAdjust="spacing" textLength="108" x="363.5" y="577.4189">CategoriaRepositorio()</text><rect fill="#F24D5C" height="6" style="stroke:#C82930;stroke-width:1.0;" width="6" x="351.5" y="583.8359"/><text fill="#000000" font-family="sans-serif" font-size="11" lengthAdjust="spacing" textLength="77" x="363.5" y="591.2549">save(categoria)</text><!--MD5=[574cfb11c387b5f8e7e3228e190d8939]
link CriarCategoriaUi to CriarCategoriaController--><path codeLine="40" d="M290.5,55.14 C290.5,70.71 290.5,91.53 290.5,109.22 " fill="none" id="CriarCategoriaUi-to-CriarCategoriaController" style="stroke:#A80036;stroke-width:1.0;stroke-dasharray:7.0,7.0;"/><polygon fill="#A80036" points="290.5,114.6,294.5,105.6,290.5,109.6,286.5,105.6,290.5,114.6" style="stroke:#A80036;stroke-width:1.0;"/><!--MD5=[7f0ac73a5f3b4e4e47be593a51136bc0]
link CriarCategoriaController to CategoriaFactory--><path codeLine="41" d="M271.41,177.14 C261.15,193.33 248.19,213.8 236.21,232.7 " fill="none" id="CriarCategoriaController-to-CategoriaFactory" style="stroke:#A80036;stroke-width:1.0;"/><polygon fill="#A80036" points="233.52,236.96,241.7086,231.4876,236.1905,232.7329,234.9452,227.2148,233.52,236.96" style="stroke:#A80036;stroke-width:1.0;"/><!--MD5=[a4a5b1da54fbebb724d924211080c5b4]
link CategoriaFactory to Categoria--><path codeLine="42" d="M187.42,340.22 C182.4,358.32 176.85,378.29 172.27,394.79 " fill="none" id="CategoriaFactory-to-Categoria" style="stroke:#A80036;stroke-width:1.0;"/><polygon fill="#A80036" points="170.88,399.79,177.1301,392.1784,172.2101,394.9702,169.4183,390.0502,170.88,399.79" style="stroke:#A80036;stroke-width:1.0;"/><!--MD5=[29a6d72b8d85cf6e1e24a66fc65db779]
link CriarCategoriaController to PersistenceContext--><path codeLine="43" d="M313.67,177.14 C330.89,199.55 354.41,230.15 372.32,253.44 " fill="none" id="CriarCategoriaController-to-PersistenceContext" style="stroke:#A80036;stroke-width:1.0;stroke-dasharray:7.0,7.0;"/><polygon fill="#A80036" points="375.37,257.41,373.0714,247.8331,372.329,253.441,366.7211,252.6987,375.37,257.41" style="stroke:#A80036;stroke-width:1.0;"/><!--MD5=[754b775031405e096442b27febffa290]
link PersistenceContext to RepositoryFactory--><path codeLine="44" d="M402.79,319.64 C405.93,341.68 410.19,371.64 413.49,394.78 " fill="none" id="PersistenceContext-to-RepositoryFactory" style="stroke:#A80036;stroke-width:1.0;stroke-dasharray:7.0,7.0;"/><polygon fill="#A80036" points="414.22,399.91,416.8917,390.4304,413.5049,394.9614,408.9739,391.5746,414.22,399.91" style="stroke:#A80036;stroke-width:1.0;"/><!--MD5=[1784a69b4f77ac12105f8631fa1c268f]
link RepositoryFactory to CategoriaRepositorio--><path codeLine="45" d="M418.5,462.1 C418.5,478.32 418.5,498.6 418.5,516.41 " fill="none" id="RepositoryFactory-to-CategoriaRepositorio" style="stroke:#A80036;stroke-width:1.0;"/><polygon fill="#A80036" points="418.5,521.86,422.5,512.86,418.5,516.86,414.5,512.86,418.5,521.86" style="stroke:#A80036;stroke-width:1.0;"/><!--MD5=[8b8b944cd748ac8668c02e3a9274ba8d]
@startuml
'https://plantuml.com/class-diagram

class CriarCategoriaUi
class CriarCategoriaController
class CategoriaFactory
class Categoria
class PersistenceContext
class RepositoryFactory
class CategoriaRepositorio

class CriarCategoriaController {
    - addCategoria(codigoAlfanumerico, descricao, superCategoria)

}

class CategoriaFactory {
     - setCodigoAlfanumerico()
     - setDescricao()
     - setSuperCategoria()
     - createCategoria()
}

class Categoria {
    - Categoria (codifoAlfanumerico, descricao, superCategoria)
}

class PersistenceContext {
    - repositories()
}

class RepositoryFactory {
    - RepositoryFactory()
}

class CategoriaRepositorio {
    - CategoriaRepositorio()
    - save(categoria)
}

CriarCategoriaUi ..> CriarCategoriaController
CriarCategoriaController - -> CategoriaFactory
CategoriaFactory - -> Categoria
CriarCategoriaController ..> PersistenceContext
PersistenceContext ..> RepositoryFactory
RepositoryFactory - -> CategoriaRepositorio

@enduml

@startuml

class CriarCategoriaUi
class CriarCategoriaController
class CategoriaFactory
class Categoria
class PersistenceContext
class RepositoryFactory
class CategoriaRepositorio

class CriarCategoriaController {
    - addCategoria(codigoAlfanumerico, descricao, superCategoria)

}

class CategoriaFactory {
     - setCodigoAlfanumerico()
     - setDescricao()
     - setSuperCategoria()
     - createCategoria()
}

class Categoria {
    - Categoria (codifoAlfanumerico, descricao, superCategoria)
}

class PersistenceContext {
    - repositories()
}

class RepositoryFactory {
    - RepositoryFactory()
}

class CategoriaRepositorio {
    - CategoriaRepositorio()
    - save(categoria)
}

CriarCategoriaUi ..> CriarCategoriaController
CriarCategoriaController - -> CategoriaFactory
CategoriaFactory - -> Categoria
CriarCategoriaController ..> PersistenceContext
PersistenceContext ..> RepositoryFactory
RepositoryFactory - -> CategoriaRepositorio

@enduml

PlantUML version 1.2022.1(Tue Feb 01 18:19:58 GMT 2022)
(GPL source distribution)
Java Runtime: OpenJDK Runtime Environment
JVM: OpenJDK 64-Bit Server VM
Default Encoding: Cp1252
Language: pt
Country: BR
--></g></svg>