<?xml version="1.0" encoding="UTF-8" standalone="no"?><svg xmlns="http://www.w3.org/2000/svg" xmlns:xlink="http://www.w3.org/1999/xlink" contentScriptType="application/ecmascript" contentStyleType="text/css" height="1007px" preserveAspectRatio="none" style="width:1904px;height:1007px;background:#FFFFFF;" version="1.1" viewBox="0 0 1904 1007" width="1904px" zoomAndPan="magnify"><defs><filter height="300%" id="fece44p877kmt" width="300%" x="-1" y="-1"><feGaussianBlur result="blurOut" stdDeviation="2.0"/><feColorMatrix in="blurOut" result="blurOut2" type="matrix" values="0 0 0 0 0 0 0 0 0 0 0 0 0 0 0 0 0 0 .4 0"/><feOffset dx="4.0" dy="4.0" in="blurOut2" result="blurOut3"/><feBlend in="SourceGraphic" in2="blurOut3" mode="normal"/></filter></defs><g><rect fill="#FFFFFF" filter="url(#fece44p877kmt)" height="778.0859" style="stroke:#A80036;stroke-width:1.0;" width="10" x="356.5" y="121.9609"/><rect fill="#FFFFFF" filter="url(#fece44p877kmt)" height="626.3281" style="stroke:#A80036;stroke-width:1.0;" width="10" x="747.5" y="243.3672"/><rect fill="#FFFFFF" filter="url(#fece44p877kmt)" height="212.4609" style="stroke:#A80036;stroke-width:1.0;" width="10" x="1035.5" y="314.0703"/><rect fill="#FFFFFF" filter="url(#fece44p877kmt)" height="30.3516" style="stroke:#A80036;stroke-width:1.0;" width="10" x="1384.5" y="465.8281"/><rect fill="#FFFFFF" filter="url(#fece44p877kmt)" height="101.0547" style="stroke:#A80036;stroke-width:1.0;" width="10" x="1538.5" y="556.8828"/><rect fill="#FFFFFF" filter="url(#fece44p877kmt)" height="30.3516" style="stroke:#A80036;stroke-width:1.0;" width="10" x="1685.5" y="627.5859"/><rect fill="#FFFFFF" filter="url(#fece44p877kmt)" height="90.7031" style="stroke:#A80036;stroke-width:1.0;" width="10" x="1685.5" y="688.2891"/><rect fill="#FFFFFF" filter="url(#fece44p877kmt)" height="30" style="stroke:#A80036;stroke-width:1.0;" width="10" x="1830.5" y="718.6406"/><rect fill="#FFFFFF" filter="url(#fece44p877kmt)" height="30" style="stroke:#A80036;stroke-width:1.0;" width="10" x="1830.5" y="809.3438"/><line style="stroke:#A80036;stroke-width:1.0;stroke-dasharray:5.0,5.0;" x1="40" x2="40" y1="89.6094" y2="918.0469"/><line style="stroke:#A80036;stroke-width:1.0;stroke-dasharray:5.0,5.0;" x1="361" x2="361" y1="89.6094" y2="918.0469"/><line style="stroke:#A80036;stroke-width:1.0;stroke-dasharray:5.0,5.0;" x1="752" x2="752" y1="89.6094" y2="918.0469"/><line style="stroke:#A80036;stroke-width:1.0;stroke-dasharray:5.0,5.0;" x1="1040.5" x2="1040.5" y1="89.6094" y2="918.0469"/><line style="stroke:#A80036;stroke-width:1.0;stroke-dasharray:5.0,5.0;" x1="1389.5" x2="1389.5" y1="89.6094" y2="918.0469"/><line style="stroke:#A80036;stroke-width:1.0;stroke-dasharray:5.0,5.0;" x1="1543.5" x2="1543.5" y1="89.6094" y2="918.0469"/><line style="stroke:#A80036;stroke-width:1.0;stroke-dasharray:5.0,5.0;" x1="1690.5" x2="1690.5" y1="89.6094" y2="918.0469"/><line style="stroke:#A80036;stroke-width:1.0;stroke-dasharray:5.0,5.0;" x1="1835.5" x2="1835.5" y1="89.6094" y2="918.0469"/><text fill="#000000" font-family="sans-serif" font-size="14" lengthAdjust="spacing" textLength="65" x="5" y="86.5332">Balconista</text><ellipse cx="40.5" cy="15" fill="#FEFECE" filter="url(#fece44p877kmt)" rx="8" ry="8" style="stroke:#A80036;stroke-width:2.0;"/><path d="M40.5,23 L40.5,50 M27.5,31 L53.5,31 M40.5,50 L27.5,65 M40.5,50 L53.5,65 " fill="none" filter="url(#fece44p877kmt)" style="stroke:#A80036;stroke-width:2.0;"/><text fill="#000000" font-family="sans-serif" font-size="14" lengthAdjust="spacing" textLength="65" x="5" y="931.5801">Balconista</text><ellipse cx="40.5" cy="944.6563" fill="#FEFECE" filter="url(#fece44p877kmt)" rx="8" ry="8" style="stroke:#A80036;stroke-width:2.0;"/><path d="M40.5,952.6563 L40.5,979.6563 M27.5,960.6563 L53.5,960.6563 M40.5,979.6563 L27.5,994.6563 M40.5,979.6563 L53.5,994.6563 " fill="none" filter="url(#fece44p877kmt)" style="stroke:#A80036;stroke-width:2.0;"/><rect fill="#FEFECE" filter="url(#fece44p877kmt)" height="49.2188" style="stroke:#A80036;stroke-width:1.5;" width="119" x="300" y="35.3906"/><text fill="#000000" font-family="sans-serif" font-size="14" font-style="italic" lengthAdjust="spacing" textLength="95" x="312" y="56.9238">«presentation»</text><text fill="#000000" font-family="sans-serif" font-size="14" lengthAdjust="spacing" textLength="105" x="307" y="74.5332">CriarCategoriaUi</text><rect fill="#FEFECE" filter="url(#fece44p877kmt)" height="49.2188" style="stroke:#A80036;stroke-width:1.5;" width="119" x="300" y="917.0469"/><text fill="#000000" font-family="sans-serif" font-size="14" font-style="italic" lengthAdjust="spacing" textLength="95" x="312" y="938.5801">«presentation»</text><text fill="#000000" font-family="sans-serif" font-size="14" lengthAdjust="spacing" textLength="105" x="307" y="956.1895">CriarCategoriaUi</text><rect fill="#FEFECE" filter="url(#fece44p877kmt)" height="49.2188" style="stroke:#A80036;stroke-width:1.5;" width="169" x="666" y="35.3906"/><text fill="#000000" font-family="sans-serif" font-size="14" font-style="italic" lengthAdjust="spacing" textLength="84" x="708.5" y="56.9238">«application»</text><text fill="#000000" font-family="sans-serif" font-size="14" lengthAdjust="spacing" textLength="155" x="673" y="74.5332">CriarCategoriaController</text><rect fill="#FEFECE" filter="url(#fece44p877kmt)" height="49.2188" style="stroke:#A80036;stroke-width:1.5;" width="169" x="666" y="917.0469"/><text fill="#000000" font-family="sans-serif" font-size="14" font-style="italic" lengthAdjust="spacing" textLength="84" x="708.5" y="938.5801">«application»</text><text fill="#000000" font-family="sans-serif" font-size="14" lengthAdjust="spacing" textLength="155" x="673" y="956.1895">CriarCategoriaController</text><rect fill="#FEFECE" filter="url(#fece44p877kmt)" height="49.2188" style="stroke:#A80036;stroke-width:1.5;" width="124" x="976.5" y="35.3906"/><text fill="#000000" font-family="sans-serif" font-size="14" font-style="italic" lengthAdjust="spacing" textLength="59" x="1009" y="56.9238">«factory»</text><text fill="#000000" font-family="sans-serif" font-size="14" lengthAdjust="spacing" textLength="110" x="983.5" y="74.5332">CategoriaFactory</text><rect fill="#FEFECE" filter="url(#fece44p877kmt)" height="49.2188" style="stroke:#A80036;stroke-width:1.5;" width="124" x="976.5" y="917.0469"/><text fill="#000000" font-family="sans-serif" font-size="14" font-style="italic" lengthAdjust="spacing" textLength="59" x="1009" y="938.5801">«factory»</text><text fill="#000000" font-family="sans-serif" font-size="14" lengthAdjust="spacing" textLength="110" x="983.5" y="956.1895">CategoriaFactory</text><rect fill="#FEFECE" filter="url(#fece44p877kmt)" height="49.2188" style="stroke:#A80036;stroke-width:1.5;" width="144" x="1315.5" y="35.3906"/><text fill="#000000" font-family="sans-serif" font-size="14" font-style="italic" lengthAdjust="spacing" textLength="62" x="1356.5" y="56.9238">«domain»</text><text fill="#000000" font-family="sans-serif" font-size="14" lengthAdjust="spacing" textLength="130" x="1322.5" y="74.5332">categoriar:Categoria</text><rect fill="#FEFECE" filter="url(#fece44p877kmt)" height="49.2188" style="stroke:#A80036;stroke-width:1.5;" width="144" x="1315.5" y="917.0469"/><text fill="#000000" font-family="sans-serif" font-size="14" font-style="italic" lengthAdjust="spacing" textLength="62" x="1356.5" y="938.5801">«domain»</text><text fill="#000000" font-family="sans-serif" font-size="14" lengthAdjust="spacing" textLength="130" x="1322.5" y="956.1895">categoriar:Categoria</text><rect fill="#FEFECE" filter="url(#fece44p877kmt)" height="49.2188" style="stroke:#A80036;stroke-width:1.5;" width="136" x="1473.5" y="35.3906"/><text fill="#000000" font-family="sans-serif" font-size="14" font-style="italic" lengthAdjust="spacing" textLength="89" x="1497" y="56.9238">«persistence»</text><text fill="#000000" font-family="sans-serif" font-size="14" lengthAdjust="spacing" textLength="122" x="1480.5" y="74.5332">PersistenceContext</text><rect fill="#FEFECE" filter="url(#fece44p877kmt)" height="49.2188" style="stroke:#A80036;stroke-width:1.5;" width="136" x="1473.5" y="917.0469"/><text fill="#000000" font-family="sans-serif" font-size="14" font-style="italic" lengthAdjust="spacing" textLength="89" x="1497" y="938.5801">«persistence»</text><text fill="#000000" font-family="sans-serif" font-size="14" lengthAdjust="spacing" textLength="122" x="1480.5" y="956.1895">PersistenceContext</text><rect fill="#FEFECE" filter="url(#fece44p877kmt)" height="49.2188" style="stroke:#A80036;stroke-width:1.5;" width="130" x="1623.5" y="35.3906"/><text fill="#000000" font-family="sans-serif" font-size="14" font-style="italic" lengthAdjust="spacing" textLength="59" x="1659" y="56.9238">«factory»</text><text fill="#000000" font-family="sans-serif" font-size="14" lengthAdjust="spacing" textLength="116" x="1630.5" y="74.5332">RepositoryFactory</text><rect fill="#FEFECE" filter="url(#fece44p877kmt)" height="49.2188" style="stroke:#A80036;stroke-width:1.5;" width="130" x="1623.5" y="917.0469"/><text fill="#000000" font-family="sans-serif" font-size="14" font-style="italic" lengthAdjust="spacing" textLength="59" x="1659" y="938.5801">«factory»</text><text fill="#000000" font-family="sans-serif" font-size="14" lengthAdjust="spacing" textLength="116" x="1630.5" y="956.1895">RepositoryFactory</text><text fill="#000000" font-family="sans-serif" font-size="14" font-style="italic" lengthAdjust="spacing" textLength="79" x="1793" y="68.9238">«repository»</text><text fill="#000000" font-family="sans-serif" font-size="14" lengthAdjust="spacing" textLength="130" x="1767.5" y="86.5332">CategoriaRepository</text><path d="M1817.5,18.3906 C1817.5,8.3906 1835.5,8.3906 1835.5,8.3906 C1835.5,8.3906 1853.5,8.3906 1853.5,18.3906 L1853.5,44.3906 C1853.5,54.3906 1835.5,54.3906 1835.5,54.3906 C1835.5,54.3906 1817.5,54.3906 1817.5,44.3906 L1817.5,18.3906 " fill="#FEFECE" filter="url(#fece44p877kmt)" style="stroke:#000000;stroke-width:1.5;"/><path d="M1817.5,18.3906 C1817.5,28.3906 1835.5,28.3906 1835.5,28.3906 C1835.5,28.3906 1853.5,28.3906 1853.5,18.3906 " fill="none" style="stroke:#000000;stroke-width:1.5;"/><text fill="#000000" font-family="sans-serif" font-size="14" font-style="italic" lengthAdjust="spacing" textLength="79" x="1793" y="931.5801">«repository»</text><text fill="#000000" font-family="sans-serif" font-size="14" lengthAdjust="spacing" textLength="130" x="1767.5" y="949.1895">CategoriaRepository</text><path d="M1817.5,962.2656 C1817.5,952.2656 1835.5,952.2656 1835.5,952.2656 C1835.5,952.2656 1853.5,952.2656 1853.5,962.2656 L1853.5,988.2656 C1853.5,998.2656 1835.5,998.2656 1835.5,998.2656 C1835.5,998.2656 1817.5,998.2656 1817.5,988.2656 L1817.5,962.2656 " fill="#FEFECE" filter="url(#fece44p877kmt)" style="stroke:#000000;stroke-width:1.5;"/><path d="M1817.5,962.2656 C1817.5,972.2656 1835.5,972.2656 1835.5,972.2656 C1835.5,972.2656 1853.5,972.2656 1853.5,962.2656 " fill="none" style="stroke:#000000;stroke-width:1.5;"/><rect fill="#FFFFFF" filter="url(#fece44p877kmt)" height="778.0859" style="stroke:#A80036;stroke-width:1.0;" width="10" x="356.5" y="121.9609"/><rect fill="#FFFFFF" filter="url(#fece44p877kmt)" height="626.3281" style="stroke:#A80036;stroke-width:1.0;" width="10" x="747.5" y="243.3672"/><rect fill="#FFFFFF" filter="url(#fece44p877kmt)" height="212.4609" style="stroke:#A80036;stroke-width:1.0;" width="10" x="1035.5" y="314.0703"/><rect fill="#FFFFFF" filter="url(#fece44p877kmt)" height="30.3516" style="stroke:#A80036;stroke-width:1.0;" width="10" x="1384.5" y="465.8281"/><rect fill="#FFFFFF" filter="url(#fece44p877kmt)" height="101.0547" style="stroke:#A80036;stroke-width:1.0;" width="10" x="1538.5" y="556.8828"/><rect fill="#FFFFFF" filter="url(#fece44p877kmt)" height="30.3516" style="stroke:#A80036;stroke-width:1.0;" width="10" x="1685.5" y="627.5859"/><rect fill="#FFFFFF" filter="url(#fece44p877kmt)" height="90.7031" style="stroke:#A80036;stroke-width:1.0;" width="10" x="1685.5" y="688.2891"/><rect fill="#FFFFFF" filter="url(#fece44p877kmt)" height="30" style="stroke:#A80036;stroke-width:1.0;" width="10" x="1830.5" y="718.6406"/><rect fill="#FFFFFF" filter="url(#fece44p877kmt)" height="30" style="stroke:#A80036;stroke-width:1.0;" width="10" x="1830.5" y="809.3438"/><polygon fill="#A80036" points="344.5,117.9609,354.5,121.9609,344.5,125.9609,348.5,121.9609" style="stroke:#A80036;stroke-width:1.0;"/><line style="stroke:#A80036;stroke-width:1.0;stroke-dasharray:2.0,2.0;" x1="40.5" x2="350.5" y1="121.9609" y2="121.9609"/><text fill="#000000" font-family="sans-serif" font-size="13" lengthAdjust="spacing" textLength="266" x="47.5" y="117.1045">Inicia a processo de criação de uma categoria</text><polygon fill="#A80036" points="740.5,148.3125,750.5,152.3125,740.5,156.3125,744.5,152.3125" style="stroke:#A80036;stroke-width:1.0;"/><line style="stroke:#A80036;stroke-width:1.0;" x1="366.5" x2="746.5" y1="152.3125" y2="152.3125"/><text fill="#000000" font-family="sans-serif" font-size="13" lengthAdjust="spacing" textLength="44" x="373.5" y="147.4561">create()</text><polygon fill="#A80036" points="51.5,178.6641,41.5,182.6641,51.5,186.6641,47.5,182.6641" style="stroke:#A80036;stroke-width:1.0;"/><line style="stroke:#A80036;stroke-width:1.0;stroke-dasharray:2.0,2.0;" x1="45.5" x2="355.5" y1="182.6641" y2="182.6641"/><text fill="#000000" font-family="sans-serif" font-size="13" lengthAdjust="spacing" textLength="292" x="57.5" y="177.8076">Pergunta as informações relativas a uma categoria</text><polygon fill="#A80036" points="344.5,209.0156,354.5,213.0156,344.5,217.0156,348.5,213.0156" style="stroke:#A80036;stroke-width:1.0;"/><line style="stroke:#A80036;stroke-width:1.0;stroke-dasharray:2.0,2.0;" x1="40.5" x2="350.5" y1="213.0156" y2="213.0156"/><text fill="#000000" font-family="sans-serif" font-size="13" lengthAdjust="spacing" textLength="278" x="47.5" y="208.1592">CódigoAlfanumérico, Descrição, SuperCategoria</text><polygon fill="#A80036" points="735.5,239.3672,745.5,243.3672,735.5,247.3672,739.5,243.3672" style="stroke:#A80036;stroke-width:1.0;"/><line style="stroke:#A80036;stroke-width:1.0;" x1="366.5" x2="741.5" y1="243.3672" y2="243.3672"/><text fill="#000000" font-family="sans-serif" font-size="13" lengthAdjust="spacing" textLength="362" x="373.5" y="238.5107">addCategoria(CódigoAlfanumérico, Descrição, SuperCategoria)</text><path d="M1045,256.3672 L1045,282.3672 L1537,282.3672 L1537,266.3672 L1527,256.3672 L1045,256.3672 " fill="#FBFB77" filter="url(#fece44p877kmt)" style="stroke:#A80036;stroke-width:1.0;"/><path d="M1527,256.3672 L1527,266.3672 L1537,266.3672 L1527,256.3672 " fill="#FBFB77" style="stroke:#A80036;stroke-width:1.0;"/><text fill="#000000" font-family="sans-serif" font-size="13" lengthAdjust="spacing" textLength="471" x="1051" y="274.8623">CategoriaFactory é usado para criar uma entidade do tipo User num estado válido</text><polygon fill="#A80036" points="1023.5,310.0703,1033.5,314.0703,1023.5,318.0703,1027.5,314.0703" style="stroke:#A80036;stroke-width:1.0;"/><line style="stroke:#A80036;stroke-width:1.0;" x1="757.5" x2="1029.5" y1="314.0703" y2="314.0703"/><text fill="#000000" font-family="sans-serif" font-size="13" lengthAdjust="spacing" textLength="36" x="764.5" y="309.2139">create</text><polygon fill="#A80036" points="1023.5,340.4219,1033.5,344.4219,1023.5,348.4219,1027.5,344.4219" style="stroke:#A80036;stroke-width:1.0;"/><line style="stroke:#A80036;stroke-width:1.0;" x1="757.5" x2="1029.5" y1="344.4219" y2="344.4219"/><text fill="#000000" font-family="sans-serif" font-size="13" lengthAdjust="spacing" textLength="254" x="764.5" y="339.5654">setCodigoAlfanumerico(codigoAlfanumerico)</text><polygon fill="#A80036" points="1023.5,370.7734,1033.5,374.7734,1023.5,378.7734,1027.5,374.7734" style="stroke:#A80036;stroke-width:1.0;"/><line style="stroke:#A80036;stroke-width:1.0;" x1="757.5" x2="1029.5" y1="374.7734" y2="374.7734"/><text fill="#000000" font-family="sans-serif" font-size="13" lengthAdjust="spacing" textLength="140" x="764.5" y="369.917">setDescricao(descricao)</text><polygon fill="#A80036" points="1023.5,401.125,1033.5,405.125,1023.5,409.125,1027.5,405.125" style="stroke:#A80036;stroke-width:1.0;"/><line style="stroke:#A80036;stroke-width:1.0;" x1="757.5" x2="1029.5" y1="405.125" y2="405.125"/><text fill="#000000" font-family="sans-serif" font-size="13" lengthAdjust="spacing" textLength="202" x="764.5" y="400.2686">setSuperCategoria(superCategoria)</text><polygon fill="#A80036" points="1023.5,431.4766,1033.5,435.4766,1023.5,439.4766,1027.5,435.4766" style="stroke:#A80036;stroke-width:1.0;"/><line style="stroke:#A80036;stroke-width:1.0;" x1="757.5" x2="1029.5" y1="435.4766" y2="435.4766"/><text fill="#000000" font-family="sans-serif" font-size="13" lengthAdjust="spacing" textLength="99" x="764.5" y="430.6201">createCategoria()</text><polygon fill="#A80036" points="1372.5,461.8281,1382.5,465.8281,1372.5,469.8281,1376.5,465.8281" style="stroke:#A80036;stroke-width:1.0;"/><line style="stroke:#A80036;stroke-width:1.0;" x1="1045.5" x2="1378.5" y1="465.8281" y2="465.8281"/><text fill="#000000" font-family="sans-serif" font-size="13" lengthAdjust="spacing" textLength="320" x="1052.5" y="460.9717">create (codigoAlfanumerico, descricao, superCategoria)</text><polygon fill="#A80036" points="1056.5,492.1797,1046.5,496.1797,1056.5,500.1797,1052.5,496.1797" style="stroke:#A80036;stroke-width:1.0;"/><line style="stroke:#A80036;stroke-width:1.0;" x1="1050.5" x2="1388.5" y1="496.1797" y2="496.1797"/><text fill="#000000" font-family="sans-serif" font-size="13" lengthAdjust="spacing" textLength="53" x="1062.5" y="491.3232">categoria</text><polygon fill="#A80036" points="768.5,522.5313,758.5,526.5313,768.5,530.5313,764.5,526.5313" style="stroke:#A80036;stroke-width:1.0;"/><line style="stroke:#A80036;stroke-width:1.0;" x1="762.5" x2="1039.5" y1="526.5313" y2="526.5313"/><text fill="#000000" font-family="sans-serif" font-size="13" lengthAdjust="spacing" textLength="53" x="774.5" y="521.6748">categoria</text><polygon fill="#A80036" points="1526.5,552.8828,1536.5,556.8828,1526.5,560.8828,1530.5,556.8828" style="stroke:#A80036;stroke-width:1.0;"/><line style="stroke:#A80036;stroke-width:1.0;" x1="757.5" x2="1532.5" y1="556.8828" y2="556.8828"/><text fill="#000000" font-family="sans-serif" font-size="13" lengthAdjust="spacing" textLength="75" x="764.5" y="552.0264">repositories()</text><path d="M1553,569.8828 L1553,595.8828 L1817,595.8828 L1817,579.8828 L1807,569.8828 L1553,569.8828 " fill="#FBFB77" filter="url(#fece44p877kmt)" style="stroke:#A80036;stroke-width:1.0;"/><path d="M1807,569.8828 L1807,579.8828 L1817,579.8828 L1807,569.8828 " fill="#FBFB77" style="stroke:#A80036;stroke-width:1.0;"/><text fill="#000000" font-family="sans-serif" font-size="13" lengthAdjust="spacing" textLength="243" x="1559" y="588.3779">pode criar repositório em memória ou JPA</text><polygon fill="#A80036" points="1673.5,623.5859,1683.5,627.5859,1673.5,631.5859,1677.5,627.5859" style="stroke:#A80036;stroke-width:1.0;"/><line style="stroke:#A80036;stroke-width:1.0;" x1="1548.5" x2="1679.5" y1="627.5859" y2="627.5859"/><text fill="#000000" font-family="sans-serif" font-size="13" lengthAdjust="spacing" textLength="36" x="1555.5" y="622.7295">create</text><polygon fill="#A80036" points="768.5,653.9375,758.5,657.9375,768.5,661.9375,764.5,657.9375" style="stroke:#A80036;stroke-width:1.0;"/><line style="stroke:#A80036;stroke-width:1.0;" x1="762.5" x2="1542.5" y1="657.9375" y2="657.9375"/><text fill="#000000" font-family="sans-serif" font-size="13" lengthAdjust="spacing" textLength="39" x="774.5" y="653.0811">factory</text><polygon fill="#A80036" points="1673.5,684.2891,1683.5,688.2891,1673.5,692.2891,1677.5,688.2891" style="stroke:#A80036;stroke-width:1.0;"/><line style="stroke:#A80036;stroke-width:1.0;" x1="757.5" x2="1679.5" y1="688.2891" y2="688.2891"/><text fill="#000000" font-family="sans-serif" font-size="13" lengthAdjust="spacing" textLength="68" x="764.5" y="683.4326">categorias()</text><polygon fill="#A80036" points="1818.5,714.6406,1828.5,718.6406,1818.5,722.6406,1822.5,718.6406" style="stroke:#A80036;stroke-width:1.0;"/><line style="stroke:#A80036;stroke-width:1.0;" x1="1695.5" x2="1824.5" y1="718.6406" y2="718.6406"/><text fill="#000000" font-family="sans-serif" font-size="13" lengthAdjust="spacing" textLength="36" x="1702.5" y="713.7842">create</text><polygon fill="#A80036" points="768.5,774.9922,758.5,778.9922,768.5,782.9922,764.5,778.9922" style="stroke:#A80036;stroke-width:1.0;"/><line style="stroke:#A80036;stroke-width:1.0;" x1="762.5" x2="1689.5" y1="778.9922" y2="778.9922"/><text fill="#000000" font-family="sans-serif" font-size="13" lengthAdjust="spacing" textLength="120" x="774.5" y="774.1357">CategoriaRepositorio</text><polygon fill="#A80036" points="1818.5,805.3438,1828.5,809.3438,1818.5,813.3438,1822.5,809.3438" style="stroke:#A80036;stroke-width:1.0;"/><line style="stroke:#A80036;stroke-width:1.0;" x1="757.5" x2="1824.5" y1="809.3438" y2="809.3438"/><text fill="#000000" font-family="sans-serif" font-size="13" lengthAdjust="spacing" textLength="87" x="764.5" y="804.4873">save(categoria)</text><polygon fill="#A80036" points="377.5,865.6953,367.5,869.6953,377.5,873.6953,373.5,869.6953" style="stroke:#A80036;stroke-width:1.0;"/><line style="stroke:#A80036;stroke-width:1.0;" x1="371.5" x2="751.5" y1="869.6953" y2="869.6953"/><text fill="#000000" font-family="sans-serif" font-size="13" lengthAdjust="spacing" textLength="53" x="383.5" y="864.8389">categoria</text><polygon fill="#A80036" points="51.5,896.0469,41.5,900.0469,51.5,904.0469,47.5,900.0469" style="stroke:#A80036;stroke-width:1.0;"/><line style="stroke:#A80036;stroke-width:1.0;stroke-dasharray:2.0,2.0;" x1="45.5" x2="360.5" y1="900.0469" y2="900.0469"/><text fill="#000000" font-family="sans-serif" font-size="13" lengthAdjust="spacing" textLength="269" x="57.5" y="895.1904">mostra a informação relativa a categoria criada</text><!--MD5=[c7a55f42410cc260b3ec04e1559cc3af]
@startuml
'http://plantuml.com/skinparam.html

actor Balconista as B
participant CriarCategoriaUi as UI <<presentation>>
participant CriarCategoriaController as Controller <<application>>
participant CategoriaFactory as FactoryCategoria <<factory>>
participant "categoriar:Categoria" as Domain <<domain>>
participant PersistenceContext as Persistence <<persistence>>
participant RepositoryFactory as Factory <<factory>>
database CategoriaRepository as Repository <<repository>>

B - -> UI: Inicia a processo de criação de uma categoria
activate UI
    UI -> Controller: create()
    UI - -> B: Pergunta as informações relativas a uma categoria
    B - -> UI: CódigoAlfanumérico, Descrição, SuperCategoria


    UI -> Controller: addCategoria(CódigoAlfanumérico, Descrição, SuperCategoria)
    activate Controller
        note right of FactoryCategoria:CategoriaFactory é usado para criar uma entidade do tipo User num estado válido
        Controller -> FactoryCategoria: create
        activate FactoryCategoria
            Controller -> FactoryCategoria:setCodigoAlfanumerico(codigoAlfanumerico)
            Controller -> FactoryCategoria:setDescricao(descricao)
            Controller -> FactoryCategoria:setSuperCategoria(superCategoria)
    
            Controller -> FactoryCategoria:createCategoria()
    
            FactoryCategoria -> Domain: create (codigoAlfanumerico, descricao, superCategoria)
            activate Domain
            Domain->FactoryCategoria: categoria
            deactivate Domain
            FactoryCategoria -> Controller: categoria
            
        deactivate FactoryCategoria

        Controller -> Persistence: repositories()
        activate Persistence
            note right of Persistence: pode criar repositório em memória ou JPA
            Persistence -> Factory: create
            activate Factory
            Persistence -> Controller: factory
            deactivate Factory
            
        deactivate Persistence

        Controller -> Factory: categorias()
        activate Factory
            Factory -> Repository: create
            activate Repository
            deactivate Repository
            Factory -> Controller: CategoriaRepositorio
        deactivate Factory

        Controller->Repository:save(categoria)
        activate Repository
        deactivate Repository
        Controller->UI: categoria
    deactivate Controller

        UI- ->B: mostra a informação relativa a categoria criada
deactivate UI
@enduml

@startuml

actor Balconista as B
participant CriarCategoriaUi as UI <<presentation>>
participant CriarCategoriaController as Controller <<application>>
participant CategoriaFactory as FactoryCategoria <<factory>>
participant "categoriar:Categoria" as Domain <<domain>>
participant PersistenceContext as Persistence <<persistence>>
participant RepositoryFactory as Factory <<factory>>
database CategoriaRepository as Repository <<repository>>

B - -> UI: Inicia a processo de criação de uma categoria
activate UI
    UI -> Controller: create()
    UI - -> B: Pergunta as informações relativas a uma categoria
    B - -> UI: CódigoAlfanumérico, Descrição, SuperCategoria


    UI -> Controller: addCategoria(CódigoAlfanumérico, Descrição, SuperCategoria)
    activate Controller
        note right of FactoryCategoria:CategoriaFactory é usado para criar uma entidade do tipo User num estado válido
        Controller -> FactoryCategoria: create
        activate FactoryCategoria
            Controller -> FactoryCategoria:setCodigoAlfanumerico(codigoAlfanumerico)
            Controller -> FactoryCategoria:setDescricao(descricao)
            Controller -> FactoryCategoria:setSuperCategoria(superCategoria)
    
            Controller -> FactoryCategoria:createCategoria()
    
            FactoryCategoria -> Domain: create (codigoAlfanumerico, descricao, superCategoria)
            activate Domain
            Domain->FactoryCategoria: categoria
            deactivate Domain
            FactoryCategoria -> Controller: categoria
            
        deactivate FactoryCategoria

        Controller -> Persistence: repositories()
        activate Persistence
            note right of Persistence: pode criar repositório em memória ou JPA
            Persistence -> Factory: create
            activate Factory
            Persistence -> Controller: factory
            deactivate Factory
            
        deactivate Persistence

        Controller -> Factory: categorias()
        activate Factory
            Factory -> Repository: create
            activate Repository
            deactivate Repository
            Factory -> Controller: CategoriaRepositorio
        deactivate Factory

        Controller->Repository:save(categoria)
        activate Repository
        deactivate Repository
        Controller->UI: categoria
    deactivate Controller

        UI- ->B: mostra a informação relativa a categoria criada
deactivate UI
@enduml

PlantUML version 1.2022.1(Tue Feb 01 18:19:58 GMT 2022)
(GPL source distribution)
Java Runtime: OpenJDK Runtime Environment
JVM: OpenJDK 64-Bit Server VM
Default Encoding: Cp1252
Language: pt
Country: BR
--></g></svg>