<?xml version="1.0" encoding="UTF-8" standalone="no"?><svg xmlns="http://www.w3.org/2000/svg" xmlns:xlink="http://www.w3.org/1999/xlink" contentScriptType="application/ecmascript" contentStyleType="text/css" height="474px" preserveAspectRatio="none" style="width:463px;height:474px;background:#FFFFFF;" version="1.1" viewBox="0 0 463 474" width="463px" zoomAndPan="magnify"><defs><filter height="300%" id="f1v3ya5j9bw1n6" width="300%" x="-1" y="-1"><feGaussianBlur result="blurOut" stdDeviation="2.0"/><feColorMatrix in="blurOut" result="blurOut2" type="matrix" values="0 0 0 0 0 0 0 0 0 0 0 0 0 0 0 0 0 0 .4 0"/><feOffset dx="4.0" dy="4.0" in="blurOut2" result="blurOut3"/><feBlend in="SourceGraphic" in2="blurOut3" mode="normal"/></filter></defs><g><rect fill="#FFFFFF" filter="url(#f1v3ya5j9bw1n6)" height="271.5156" style="stroke:#A80036;stroke-width:1.0;" width="10" x="64" y="99.6094"/><rect fill="#FFFFFF" filter="url(#f1v3ya5j9bw1n6)" height="30.3516" style="stroke:#A80036;stroke-width:1.0;" width="10" x="390" y="138.3125"/><rect fill="#FFFFFF" filter="url(#f1v3ya5j9bw1n6)" height="55.7031" style="stroke:#A80036;stroke-width:1.0;" width="10" x="390" y="240.7188"/><rect fill="#FFFFFF" filter="url(#f1v3ya5j9bw1n6)" height="44.3516" style="stroke:#A80036;stroke-width:1.0;" width="10" x="390" y="326.7734"/><rect fill="#FFFFFF" filter="url(#f1v3ya5j9bw1n6)" height="158.1094" style="stroke:#000000;stroke-width:2.0;" width="439" x="10" y="183.6641"/><rect fill="#FFFFFF" filter="url(#f1v3ya5j9bw1n6)" height="79.0547" style="stroke:#000000;stroke-width:2.0;" width="419" x="20" y="255.7188"/><line style="stroke:#A80036;stroke-width:1.0;stroke-dasharray:5.0,5.0;" x1="69" x2="69" y1="89.6094" y2="389.125"/><line style="stroke:#A80036;stroke-width:1.0;stroke-dasharray:5.0,5.0;" x1="395" x2="395" y1="89.6094" y2="389.125"/><text fill="#000000" font-family="sans-serif" font-size="14" lengthAdjust="spacing" textLength="72" x="30" y="86.5332">Sales Clerk</text><ellipse cx="69" cy="15" fill="#FEFECE" filter="url(#f1v3ya5j9bw1n6)" rx="8" ry="8" style="stroke:#A80036;stroke-width:2.0;"/><path d="M69,23 L69,50 M56,31 L82,31 M69,50 L56,65 M69,50 L82,65 " fill="none" filter="url(#f1v3ya5j9bw1n6)" style="stroke:#A80036;stroke-width:2.0;"/><text fill="#000000" font-family="sans-serif" font-size="14" lengthAdjust="spacing" textLength="72" x="30" y="402.6582">Sales Clerk</text><ellipse cx="69" cy="415.7344" fill="#FEFECE" filter="url(#f1v3ya5j9bw1n6)" rx="8" ry="8" style="stroke:#A80036;stroke-width:2.0;"/><path d="M69,423.7344 L69,450.7344 M56,431.7344 L82,431.7344 M69,450.7344 L56,465.7344 M69,450.7344 L82,465.7344 " fill="none" filter="url(#f1v3ya5j9bw1n6)" style="stroke:#A80036;stroke-width:2.0;"/><rect fill="#FEFECE" filter="url(#f1v3ya5j9bw1n6)" height="31.6094" style="stroke:#A80036;stroke-width:1.5;" width="64" x="361" y="53"/><text fill="#000000" font-family="sans-serif" font-size="14" lengthAdjust="spacing" textLength="50" x="368" y="74.5332">:System</text><rect fill="#FEFECE" filter="url(#f1v3ya5j9bw1n6)" height="31.6094" style="stroke:#A80036;stroke-width:1.5;" width="64" x="361" y="388.125"/><text fill="#000000" font-family="sans-serif" font-size="14" lengthAdjust="spacing" textLength="50" x="368" y="409.6582">:System</text><rect fill="#FFFFFF" filter="url(#f1v3ya5j9bw1n6)" height="271.5156" style="stroke:#A80036;stroke-width:1.0;" width="10" x="64" y="99.6094"/><rect fill="#FFFFFF" filter="url(#f1v3ya5j9bw1n6)" height="30.3516" style="stroke:#A80036;stroke-width:1.0;" width="10" x="390" y="138.3125"/><rect fill="#FFFFFF" filter="url(#f1v3ya5j9bw1n6)" height="55.7031" style="stroke:#A80036;stroke-width:1.0;" width="10" x="390" y="240.7188"/><rect fill="#FFFFFF" filter="url(#f1v3ya5j9bw1n6)" height="44.3516" style="stroke:#A80036;stroke-width:1.0;" width="10" x="390" y="326.7734"/><polygon fill="#A80036" points="378,134.3125,388,138.3125,378,142.3125,382,138.3125" style="stroke:#A80036;stroke-width:1.0;"/><line style="stroke:#A80036;stroke-width:1.0;" x1="74" x2="384" y1="138.3125" y2="138.3125"/><text fill="#000000" font-family="sans-serif" font-size="13" font-weight="bold" lengthAdjust="spacing" textLength="7" x="81" y="125.2803">1</text><text fill="#000000" font-family="sans-serif" font-size="13" lengthAdjust="spacing" textLength="269" x="92" y="117.1045">Inicia o processo de visualizar as encomendas</text><text fill="#000000" font-family="sans-serif" font-size="13" lengthAdjust="spacing" textLength="286" x="92" y="133.4561">que se encontram no status Dispatched for Client</text><polygon fill="#A80036" points="85,164.6641,75,168.6641,85,172.6641,81,168.6641" style="stroke:#A80036;stroke-width:1.0;"/><line style="stroke:#A80036;stroke-width:1.0;stroke-dasharray:2.0,2.0;" x1="79" x2="394" y1="168.6641" y2="168.6641"/><text fill="#000000" font-family="sans-serif" font-size="13" font-weight="bold" lengthAdjust="spacing" textLength="7" x="91" y="163.8076">2</text><text fill="#000000" font-family="sans-serif" font-size="13" lengthAdjust="spacing" textLength="175" x="102" y="163.8076">Mostra a lista de encomendas</text><path d="M10,183.6641 L83,183.6641 L83,191.6641 L73,201.6641 L10,201.6641 L10,183.6641 " fill="#EEEEEE" style="stroke:#000000;stroke-width:1.0;"/><rect fill="none" height="158.1094" style="stroke:#000000;stroke-width:2.0;" width="439" x="10" y="183.6641"/><text fill="#000000" font-family="sans-serif" font-size="13" font-weight="bold" lengthAdjust="spacing" textLength="28" x="25" y="198.1592">loop</text><text fill="#000000" font-family="sans-serif" font-size="11" font-weight="bold" lengthAdjust="spacing" textLength="284" x="98" y="197.083">[enquanto desejar alterar o status de encomendas]</text><polygon fill="#A80036" points="378,236.7188,388,240.7188,378,244.7188,382,240.7188" style="stroke:#A80036;stroke-width:1.0;"/><line style="stroke:#A80036;stroke-width:1.0;" x1="74" x2="384" y1="240.7188" y2="240.7188"/><text fill="#000000" font-family="sans-serif" font-size="13" font-weight="bold" lengthAdjust="spacing" textLength="7" x="81" y="227.6865">3</text><text fill="#000000" font-family="sans-serif" font-size="13" lengthAdjust="spacing" textLength="279" x="92" y="219.5107">Pergunta se pretende alterar o status de alguma</text><text fill="#000000" font-family="sans-serif" font-size="13" lengthAdjust="spacing" textLength="189" x="92" y="235.8623">encomenda para Being Delivered</text><path d="M20,255.7188 L81,255.7188 L81,263.7188 L71,273.7188 L20,273.7188 L20,255.7188 " fill="#EEEEEE" style="stroke:#000000;stroke-width:1.0;"/><rect fill="none" height="79.0547" style="stroke:#000000;stroke-width:2.0;" width="419" x="20" y="255.7188"/><text fill="#000000" font-family="sans-serif" font-size="13" font-weight="bold" lengthAdjust="spacing" textLength="16" x="35" y="270.2139">alt</text><text fill="#000000" font-family="sans-serif" font-size="11" font-weight="bold" lengthAdjust="spacing" textLength="132" x="96" y="269.1377">[deseja alterar o status]</text><polygon fill="#A80036" points="85,292.4219,75,296.4219,85,300.4219,81,296.4219" style="stroke:#A80036;stroke-width:1.0;"/><line style="stroke:#A80036;stroke-width:1.0;stroke-dasharray:2.0,2.0;" x1="79" x2="394" y1="296.4219" y2="296.4219"/><text fill="#000000" font-family="sans-serif" font-size="13" font-weight="bold" lengthAdjust="spacing" textLength="7" x="91" y="291.5654">4</text><text fill="#000000" font-family="sans-serif" font-size="13" lengthAdjust="spacing" textLength="273" x="102" y="291.5654">Solicita o identificador numérico da encomenda</text><polygon fill="#A80036" points="378,322.7734,388,326.7734,378,330.7734,382,326.7734" style="stroke:#A80036;stroke-width:1.0;"/><line style="stroke:#A80036;stroke-width:1.0;" x1="74" x2="384" y1="326.7734" y2="326.7734"/><text fill="#000000" font-family="sans-serif" font-size="13" font-weight="bold" lengthAdjust="spacing" textLength="7" x="81" y="321.917">5</text><text fill="#000000" font-family="sans-serif" font-size="13" lengthAdjust="spacing" textLength="126" x="92" y="321.917">Informa a identificador</text><polygon fill="#A80036" points="80,367.125,70,371.125,80,375.125,76,371.125" style="stroke:#A80036;stroke-width:1.0;"/><line style="stroke:#A80036;stroke-width:1.0;stroke-dasharray:2.0,2.0;" x1="74" x2="394" y1="371.125" y2="371.125"/><text fill="#000000" font-family="sans-serif" font-size="13" font-weight="bold" lengthAdjust="spacing" textLength="7" x="86" y="366.2686">6</text><text fill="#000000" font-family="sans-serif" font-size="13" lengthAdjust="spacing" textLength="181" x="97" y="366.2686">Informa o sucesso da operação</text><!--MD5=[4e344943571bc8cf693882efc8c5f78d]
@startuml

autonumber
actor "Sales Clerk" as SC

activate SC
SC -> ":System" : Inicia o processo de visualizar as encomendas\nque se encontram no status Dispatched for Client
activate ":System"
":System" - -> SC : Mostra a lista de encomendas
deactivate ":System"
loop enquanto desejar alterar o status de encomendas
SC -> ":System" : Pergunta se pretende alterar o status de alguma\nencomenda para Being Delivered
activate ":System"
alt deseja alterar o status
":System" - -> SC : Solicita o identificador numérico da encomenda
deactivate ":System"
SC -> ":System" : Informa a identificador
activate ":System"
end
end
":System" - -> SC : Informa o sucesso da operação
deactivate ":System"
deactivate SC

@enduml

PlantUML version 1.2022.1(Tue Feb 01 18:19:58 GMT 2022)
(GPL source distribution)
Java Runtime: OpenJDK Runtime Environment
JVM: Dynamic Code Evolution 64-Bit Server VM
Default Encoding: Cp1252
Language: pt
Country: PT
--></g></svg>