<?xml version="1.0" encoding="UTF-8" standalone="no"?><svg xmlns="http://www.w3.org/2000/svg" xmlns:xlink="http://www.w3.org/1999/xlink" contentScriptType="application/ecmascript" contentStyleType="text/css" height="916px" preserveAspectRatio="none" style="width:998px;height:916px;background:#FFFFFF;" version="1.1" viewBox="0 0 998 916" width="998px" zoomAndPan="magnify"><defs><filter height="300%" id="f189pqhawdwftp" width="300%" x="-1" y="-1"><feGaussianBlur result="blurOut" stdDeviation="2.0"/><feColorMatrix in="blurOut" result="blurOut2" type="matrix" values="0 0 0 0 0 0 0 0 0 0 0 0 0 0 0 0 0 0 .4 0"/><feOffset dx="4.0" dy="4.0" in="blurOut2" result="blurOut3"/><feBlend in="SourceGraphic" in2="blurOut3" mode="normal"/></filter></defs><g><!--MD5=[93ceccd9cc8b2a6709d1b7738e261d82]
cluster <<aggregate>> Warehouse--><polygon fill="#FFFFFF" filter="url(#f189pqhawdwftp)" points="285,6,479,6,486,29.6094,953.5,29.6094,953.5,176,285,176,285,6" style="stroke:#000000;stroke-width:1.5;"/><line style="stroke:#000000;stroke-width:1.5;" x1="285" x2="486" y1="29.6094" y2="29.6094"/><text fill="#000000" font-family="sans-serif" font-size="14" font-weight="bold" lengthAdjust="spacing" textLength="188" x="289" y="22.5332">&lt;&lt;aggregate&gt;&gt; Warehouse</text><!--MD5=[22b4f80a245276e25c9cb3ee67d19758]
cluster <<aggregate>> AGV--><polygon fill="#FFFFFF" filter="url(#f189pqhawdwftp)" points="537.5,200,680.5,200,687.5,223.6094,981,223.6094,981,909,537.5,909,537.5,200" style="stroke:#000000;stroke-width:1.5;"/><line style="stroke:#000000;stroke-width:1.5;" x1="537.5" x2="687.5" y1="223.6094" y2="223.6094"/><text fill="#000000" font-family="sans-serif" font-size="14" font-weight="bold" lengthAdjust="spacing" textLength="137" x="541.5" y="216.5332">&lt;&lt;aggregate&gt;&gt; AGV</text><!--MD5=[cd1e467dd42714edd782c72995bbc617]
cluster <<aggregate>> Product--><polygon fill="#FFFFFF" filter="url(#f189pqhawdwftp)" points="16,59,185,59,192,82.6094,195,82.6094,195,175,16,175,16,59" style="stroke:#000000;stroke-width:1.5;"/><line style="stroke:#000000;stroke-width:1.5;" x1="16" x2="192" y1="82.6094" y2="82.6094"/><text fill="#000000" font-family="sans-serif" font-size="14" font-weight="bold" lengthAdjust="spacing" textLength="163" x="20" y="75.5332">&lt;&lt;aggregate&gt;&gt; Product</text><!--MD5=[c5149b4909ffd2688ff51a939867f774]
class Warehouse--><rect codeLine="48" fill="#F5F5DC" filter="url(#f189pqhawdwftp)" height="63.2813" id="Warehouse" style="stroke:#A80036;stroke-width:1.5;" width="96" x="301" y="95.5"/><ellipse cx="316" cy="123.1406" fill="#ADD1B2" rx="11" ry="11" style="stroke:#A80036;stroke-width:1.0;"/><path d="M314.5,124.1406 L314.5,126.1406 L318.5,126.1406 L318.5,125.1406 L318.5,124.6563 L319.125,124.1406 L319.5,124.1406 L319.875,124.1406 L320.5,124.6563 L320.5,125.1406 L320.5,128.1406 L312.5,128.1406 L312.0156,128.1406 L311.5,127.5156 L311.5,127.1406 L311.5,126.7656 L312.0156,126.1406 L312.5,126.1406 L312.5,126.1406 L312.5,120.1406 L312.5,120.1406 L312.0156,120.1406 L311.5,119.5156 L311.5,119.1406 L311.5,118.7656 L312.0156,118.1406 L312.5,118.1406 L320.5,118.1406 L320.5,121.1406 L320.5,121.625 L319.875,122.1406 L319.5,122.1406 L319.125,122.1406 L318.5,121.625 L318.5,121.1406 L318.5,120.1406 L314.5,120.1406 L314.5,122.1406 L315.5,122.1406 L315.5,121.6563 L315.5,121.6563 L316.125,121.1406 L316.5,121.1406 L316.875,121.1406 L317.5,121.6563 L317.5,122.1406 L317.5,124.1406 L317.5,124.625 L316.875,125.1406 L316.875,125.1406 L316.5,125.1406 L316.125,125.1406 L315.5,124.625 L315.5,124.625 L315.5,124.1406 L314.5,124.1406 Z " fill="#000000"/><text fill="#000000" font-family="sans-serif" font-size="12" font-style="italic" lengthAdjust="spacing" textLength="43" x="340.5" y="112.957">«entity»</text><text fill="#000000" font-family="sans-serif" font-size="12" font-style="italic" lengthAdjust="spacing" textLength="35" x="344.5" y="128.0508">«root»</text><text fill="#000000" font-family="sans-serif" font-size="12" lengthAdjust="spacing" textLength="64" x="330" y="143.1445">Warehouse</text><line style="stroke:#A80036;stroke-width:1.5;" x1="302" x2="396" y1="150.7813" y2="150.7813"/><!--MD5=[47d83f15293c58b1530c08457be810b8]
class WarehousePlant--><rect codeLine="32" fill="#F5F5DC" filter="url(#f189pqhawdwftp)" height="117.3672" id="WarehousePlant" style="stroke:#A80036;stroke-width:1.5;" width="124" x="527" y="42.5"/><ellipse cx="542" cy="62.5938" fill="#ADD1B2" rx="11" ry="11" style="stroke:#A80036;stroke-width:1.0;"/><path d="M540.5,63.5938 L540.5,65.5938 L544.5,65.5938 L544.5,64.5938 L544.5,64.1094 L545.125,63.5938 L545.5,63.5938 L545.875,63.5938 L546.5,64.1094 L546.5,64.5938 L546.5,67.5938 L538.5,67.5938 L538.0156,67.5938 L537.5,66.9688 L537.5,66.5938 L537.5,66.2188 L538.0156,65.5938 L538.5,65.5938 L538.5,65.5938 L538.5,59.5938 L538.5,59.5938 L538.0156,59.5938 L537.5,58.9688 L537.5,58.5938 L537.5,58.2188 L538.0156,57.5938 L538.5,57.5938 L546.5,57.5938 L546.5,60.5938 L546.5,61.0781 L545.875,61.5938 L545.5,61.5938 L545.125,61.5938 L544.5,61.0781 L544.5,60.5938 L544.5,59.5938 L540.5,59.5938 L540.5,61.5938 L541.5,61.5938 L541.5,61.1094 L541.5,61.1094 L542.125,60.5938 L542.5,60.5938 L542.875,60.5938 L543.5,61.1094 L543.5,61.5938 L543.5,63.5938 L543.5,64.0781 L542.875,64.5938 L542.875,64.5938 L542.5,64.5938 L542.125,64.5938 L541.5,64.0781 L541.5,64.0781 L541.5,63.5938 L540.5,63.5938 Z " fill="#000000"/><text fill="#000000" font-family="sans-serif" font-size="12" font-style="italic" lengthAdjust="spacing" textLength="43" x="580.5" y="59.957">«entity»</text><text fill="#000000" font-family="sans-serif" font-size="12" lengthAdjust="spacing" textLength="92" x="556" y="75.0508">WarehousePlant</text><line style="stroke:#A80036;stroke-width:1.5;" x1="528" x2="650" y1="82.6875" y2="82.6875"/><text fill="#000000" font-family="sans-serif" font-size="11" lengthAdjust="spacing" textLength="57" x="533" y="98.1064">-description</text><text fill="#000000" font-family="sans-serif" font-size="11" lengthAdjust="spacing" textLength="33" x="533" y="111.9424">-length</text><text fill="#000000" font-family="sans-serif" font-size="11" lengthAdjust="spacing" textLength="31" x="533" y="125.7783">-width</text><text fill="#000000" font-family="sans-serif" font-size="11" lengthAdjust="spacing" textLength="38" x="533" y="139.6143">-square</text><text fill="#000000" font-family="sans-serif" font-size="11" lengthAdjust="spacing" textLength="21" x="533" y="153.4502">-unit</text><!--MD5=[6c8d26f6d50c9b5da41494faa6136af8]
class AGVDock--><rect codeLine="44" fill="#F5F5DC" filter="url(#f189pqhawdwftp)" height="62.0234" id="AGVDock" style="stroke:#A80036;stroke-width:1.5;" width="83" x="854.5" y="70"/><ellipse cx="869.5" cy="90.0938" fill="#ADD1B2" rx="11" ry="11" style="stroke:#A80036;stroke-width:1.0;"/><path d="M868,91.0938 L868,93.0938 L872,93.0938 L872,92.0938 L872,91.6094 L872.625,91.0938 L873,91.0938 L873.375,91.0938 L874,91.6094 L874,92.0938 L874,95.0938 L866,95.0938 L865.5156,95.0938 L865,94.4688 L865,94.0938 L865,93.7188 L865.5156,93.0938 L866,93.0938 L866,93.0938 L866,87.0938 L866,87.0938 L865.5156,87.0938 L865,86.4688 L865,86.0938 L865,85.7188 L865.5156,85.0938 L866,85.0938 L874,85.0938 L874,88.0938 L874,88.5781 L873.375,89.0938 L873,89.0938 L872.625,89.0938 L872,88.5781 L872,88.0938 L872,87.0938 L868,87.0938 L868,89.0938 L869,89.0938 L869,88.6094 L869,88.6094 L869.625,88.0938 L870,88.0938 L870.375,88.0938 L871,88.6094 L871,89.0938 L871,91.0938 L871,91.5781 L870.375,92.0938 L870.375,92.0938 L870,92.0938 L869.625,92.0938 L869,91.5781 L869,91.5781 L869,91.0938 L868,91.0938 Z " fill="#000000"/><text fill="#000000" font-family="sans-serif" font-size="12" font-style="italic" lengthAdjust="spacing" textLength="43" x="887.5" y="87.457">«entity»</text><text fill="#000000" font-family="sans-serif" font-size="12" lengthAdjust="spacing" textLength="51" x="883.5" y="102.5508">AGVDock</text><line style="stroke:#A80036;stroke-width:1.5;" x1="855.5" x2="936.5" y1="110.1875" y2="110.1875"/><text fill="#000000" font-family="sans-serif" font-size="11" lengthAdjust="spacing" textLength="12" x="860.5" y="125.6064">-id</text><!--MD5=[53b2c06ade5903185ca3326dce80e141]
class AGV--><rect codeLine="52" fill="#F5F5DC" filter="url(#f189pqhawdwftp)" height="77.1172" id="AGV" style="stroke:#A80036;stroke-width:1.5;" width="71" x="553.5" y="477.5"/><ellipse cx="568.5" cy="505.1406" fill="#ADD1B2" rx="11" ry="11" style="stroke:#A80036;stroke-width:1.0;"/><path d="M567,506.1406 L567,508.1406 L571,508.1406 L571,507.1406 L571,506.6563 L571.625,506.1406 L572,506.1406 L572.375,506.1406 L573,506.6563 L573,507.1406 L573,510.1406 L565,510.1406 L564.5156,510.1406 L564,509.5156 L564,509.1406 L564,508.7656 L564.5156,508.1406 L565,508.1406 L565,508.1406 L565,502.1406 L565,502.1406 L564.5156,502.1406 L564,501.5156 L564,501.1406 L564,500.7656 L564.5156,500.1406 L565,500.1406 L573,500.1406 L573,503.1406 L573,503.625 L572.375,504.1406 L572,504.1406 L571.625,504.1406 L571,503.625 L571,503.1406 L571,502.1406 L567,502.1406 L567,504.1406 L568,504.1406 L568,503.6563 L568,503.6563 L568.625,503.1406 L569,503.1406 L569.375,503.1406 L570,503.6563 L570,504.1406 L570,506.1406 L570,506.625 L569.375,507.1406 L569.375,507.1406 L569,507.1406 L568.625,507.1406 L568,506.625 L568,506.625 L568,506.1406 L567,506.1406 Z " fill="#000000"/><text fill="#000000" font-family="sans-serif" font-size="12" font-style="italic" lengthAdjust="spacing" textLength="43" x="580.5" y="494.957">«entity»</text><text fill="#000000" font-family="sans-serif" font-size="12" font-style="italic" lengthAdjust="spacing" textLength="35" x="584.5" y="510.0508">«root»</text><text fill="#000000" font-family="sans-serif" font-size="12" lengthAdjust="spacing" textLength="23" x="590.5" y="525.1445">AGV</text><line style="stroke:#A80036;stroke-width:1.5;" x1="554.5" x2="623.5" y1="532.7813" y2="532.7813"/><text fill="#000000" font-family="sans-serif" font-size="11" lengthAdjust="spacing" textLength="28" x="559.5" y="548.2002">-state</text><!--MD5=[16e34fb2e0281018267f0ef5d0b296ef]
class BriefDescription--><rect codeLine="54" fill="#F5F5DC" filter="url(#f189pqhawdwftp)" height="48.1875" id="BriefDescription" style="stroke:#A80036;stroke-width:1.5;" width="120" x="836" y="845"/><ellipse cx="851" cy="865.0938" fill="#FF8B40" rx="11" ry="11" style="stroke:#A80036;stroke-width:1.0;"/><path d="M851,868.375 L852.5313,862.8438 L852.5313,862.8438 L852.0156,862.8438 L851.5,862.2188 L851.5,861.8438 L851.5,861.4688 L852.0156,860.8438 L852.5313,860.8438 L854.4063,860.8438 L854.9844,860.8438 L855.5,861.4688 L855.5,861.8438 L855.5,862.2188 L854.9844,862.8438 L854.9844,862.8438 L854.5313,862.8438 L852.1875,870.8438 L849.8125,870.8438 L847.3438,862.8438 L847.0156,862.8438 L847.0156,862.8438 L846.5,862.2188 L846.5,861.8438 L846.5,861.4688 L847.0156,860.8438 L847.5938,860.8438 L849.4688,860.8438 L849.9844,860.8438 L850.5,861.4688 L850.5,861.8438 L850.5,862.2188 L849.9844,862.8438 L849.4688,862.8438 L849.4688,862.8438 L851,868.375 Z " fill="#000000"/><text fill="#000000" font-family="sans-serif" font-size="12" font-style="italic" lengthAdjust="spacing" textLength="81" x="868.5" y="862.457">«value object»</text><text fill="#000000" font-family="sans-serif" font-size="12" lengthAdjust="spacing" textLength="88" x="865" y="877.5508">BriefDescription</text><line style="stroke:#A80036;stroke-width:1.5;" x1="837" x2="955" y1="885.1875" y2="885.1875"/><!--MD5=[7e20e022571e30ec1001cf6eabd7f3e2]
class Model--><rect codeLine="56" fill="#F5F5DC" filter="url(#f189pqhawdwftp)" height="48.1875" id="Model" style="stroke:#A80036;stroke-width:1.5;" width="109" x="841.5" y="762"/><ellipse cx="856.5" cy="782.0938" fill="#FF8B40" rx="11" ry="11" style="stroke:#A80036;stroke-width:1.0;"/><path d="M856.5,785.375 L858.0313,779.8438 L858.0313,779.8438 L857.5156,779.8438 L857,779.2188 L857,778.8438 L857,778.4688 L857.5156,777.8438 L858.0313,777.8438 L859.9063,777.8438 L860.4844,777.8438 L861,778.4688 L861,778.8438 L861,779.2188 L860.4844,779.8438 L860.4844,779.8438 L860.0313,779.8438 L857.6875,787.8438 L855.3125,787.8438 L852.8438,779.8438 L852.5156,779.8438 L852.5156,779.8438 L852,779.2188 L852,778.8438 L852,778.4688 L852.5156,777.8438 L853.0938,777.8438 L854.9688,777.8438 L855.4844,777.8438 L856,778.4688 L856,778.8438 L856,779.2188 L855.4844,779.8438 L854.9688,779.8438 L854.9688,779.8438 L856.5,785.375 Z " fill="#000000"/><text fill="#000000" font-family="sans-serif" font-size="12" font-style="italic" lengthAdjust="spacing" textLength="81" x="868.5" y="779.457">«value object»</text><text fill="#000000" font-family="sans-serif" font-size="12" lengthAdjust="spacing" textLength="33" x="892.5" y="794.5508">Model</text><line style="stroke:#A80036;stroke-width:1.5;" x1="842.5" x2="949.5" y1="802.1875" y2="802.1875"/><!--MD5=[b34797a66dc35cbf1d65f7e3ca75530e]
class Task--><rect codeLine="60" fill="#F5F5DC" filter="url(#f189pqhawdwftp)" height="62.0234" id="Task" style="stroke:#A80036;stroke-width:1.5;" width="109" x="841.5" y="665"/><ellipse cx="856.5" cy="685.0938" fill="#FF8B40" rx="11" ry="11" style="stroke:#A80036;stroke-width:1.0;"/><path d="M856.5,688.375 L858.0313,682.8438 L858.0313,682.8438 L857.5156,682.8438 L857,682.2188 L857,681.8438 L857,681.4688 L857.5156,680.8438 L858.0313,680.8438 L859.9063,680.8438 L860.4844,680.8438 L861,681.4688 L861,681.8438 L861,682.2188 L860.4844,682.8438 L860.4844,682.8438 L860.0313,682.8438 L857.6875,690.8438 L855.3125,690.8438 L852.8438,682.8438 L852.5156,682.8438 L852.5156,682.8438 L852,682.2188 L852,681.8438 L852,681.4688 L852.5156,680.8438 L853.0938,680.8438 L854.9688,680.8438 L855.4844,680.8438 L856,681.4688 L856,681.8438 L856,682.2188 L855.4844,682.8438 L854.9688,682.8438 L854.9688,682.8438 L856.5,688.375 Z " fill="#000000"/><text fill="#000000" font-family="sans-serif" font-size="12" font-style="italic" lengthAdjust="spacing" textLength="81" x="868.5" y="682.457">«value object»</text><text fill="#000000" font-family="sans-serif" font-size="12" lengthAdjust="spacing" textLength="27" x="895.5" y="697.5508">Task</text><line style="stroke:#A80036;stroke-width:1.5;" x1="842.5" x2="949.5" y1="705.1875" y2="705.1875"/><text fill="#000000" font-family="sans-serif" font-size="11" lengthAdjust="spacing" textLength="49" x="847.5" y="720.6064">-taskState</text><!--MD5=[fc92a9f5bb5fae84dd7fa4034e6b4444]
class Route--><rect codeLine="64" fill="#F5F5DC" filter="url(#f189pqhawdwftp)" height="48.1875" id="Route" style="stroke:#A80036;stroke-width:1.5;" width="109" x="841.5" y="582"/><ellipse cx="856.5" cy="602.0938" fill="#FF8B40" rx="11" ry="11" style="stroke:#A80036;stroke-width:1.0;"/><path d="M856.5,605.375 L858.0313,599.8438 L858.0313,599.8438 L857.5156,599.8438 L857,599.2188 L857,598.8438 L857,598.4688 L857.5156,597.8438 L858.0313,597.8438 L859.9063,597.8438 L860.4844,597.8438 L861,598.4688 L861,598.8438 L861,599.2188 L860.4844,599.8438 L860.4844,599.8438 L860.0313,599.8438 L857.6875,607.8438 L855.3125,607.8438 L852.8438,599.8438 L852.5156,599.8438 L852.5156,599.8438 L852,599.2188 L852,598.8438 L852,598.4688 L852.5156,597.8438 L853.0938,597.8438 L854.9688,597.8438 L855.4844,597.8438 L856,598.4688 L856,598.8438 L856,599.2188 L855.4844,599.8438 L854.9688,599.8438 L854.9688,599.8438 L856.5,605.375 Z " fill="#000000"/><text fill="#000000" font-family="sans-serif" font-size="12" font-style="italic" lengthAdjust="spacing" textLength="81" x="868.5" y="599.457">«value object»</text><text fill="#000000" font-family="sans-serif" font-size="12" lengthAdjust="spacing" textLength="33" x="892.5" y="614.5508">Route</text><line style="stroke:#A80036;stroke-width:1.5;" x1="842.5" x2="949.5" y1="622.1875" y2="622.1875"/><!--MD5=[05194f585e571ad3b22e4df7dddd3081]
class MaxWeightCapacity--><rect codeLine="70" fill="#F5F5DC" filter="url(#f189pqhawdwftp)" height="62.0234" id="MaxWeightCapacity" style="stroke:#A80036;stroke-width:1.5;" width="138" x="827" y="485"/><ellipse cx="842" cy="505.0938" fill="#FF8B40" rx="11" ry="11" style="stroke:#A80036;stroke-width:1.0;"/><path d="M842,508.375 L843.5313,502.8438 L843.5313,502.8438 L843.0156,502.8438 L842.5,502.2188 L842.5,501.8438 L842.5,501.4688 L843.0156,500.8438 L843.5313,500.8438 L845.4063,500.8438 L845.9844,500.8438 L846.5,501.4688 L846.5,501.8438 L846.5,502.2188 L845.9844,502.8438 L845.9844,502.8438 L845.5313,502.8438 L843.1875,510.8438 L840.8125,510.8438 L838.3438,502.8438 L838.0156,502.8438 L838.0156,502.8438 L837.5,502.2188 L837.5,501.8438 L837.5,501.4688 L838.0156,500.8438 L838.5938,500.8438 L840.4688,500.8438 L840.9844,500.8438 L841.5,501.4688 L841.5,501.8438 L841.5,502.2188 L840.9844,502.8438 L840.4688,502.8438 L840.4688,502.8438 L842,508.375 Z " fill="#000000"/><text fill="#000000" font-family="sans-serif" font-size="12" font-style="italic" lengthAdjust="spacing" textLength="81" x="868.5" y="502.457">«value object»</text><text fill="#000000" font-family="sans-serif" font-size="12" lengthAdjust="spacing" textLength="106" x="856" y="517.5508">MaxWeightCapacity</text><line style="stroke:#A80036;stroke-width:1.5;" x1="828" x2="964" y1="525.1875" y2="525.1875"/><text fill="#000000" font-family="sans-serif" font-size="11" lengthAdjust="spacing" textLength="27" x="833" y="540.6064">-unity</text><!--MD5=[4d1e38779c686a11487444ed33c3c69e]
class AGVPosition--><rect codeLine="58" fill="#F5F5DC" filter="url(#f189pqhawdwftp)" height="48.1875" id="AGVPosition" style="stroke:#A80036;stroke-width:1.5;" width="109" x="841.5" y="402"/><ellipse cx="856.5" cy="422.0938" fill="#FF8B40" rx="11" ry="11" style="stroke:#A80036;stroke-width:1.0;"/><path d="M856.5,425.375 L858.0313,419.8438 L858.0313,419.8438 L857.5156,419.8438 L857,419.2188 L857,418.8438 L857,418.4688 L857.5156,417.8438 L858.0313,417.8438 L859.9063,417.8438 L860.4844,417.8438 L861,418.4688 L861,418.8438 L861,419.2188 L860.4844,419.8438 L860.4844,419.8438 L860.0313,419.8438 L857.6875,427.8438 L855.3125,427.8438 L852.8438,419.8438 L852.5156,419.8438 L852.5156,419.8438 L852,419.2188 L852,418.8438 L852,418.4688 L852.5156,417.8438 L853.0938,417.8438 L854.9688,417.8438 L855.4844,417.8438 L856,418.4688 L856,418.8438 L856,419.2188 L855.4844,419.8438 L854.9688,419.8438 L854.9688,419.8438 L856.5,425.375 Z " fill="#000000"/><text fill="#000000" font-family="sans-serif" font-size="12" font-style="italic" lengthAdjust="spacing" textLength="81" x="868.5" y="419.457">«value object»</text><text fill="#000000" font-family="sans-serif" font-size="12" lengthAdjust="spacing" textLength="68" x="875" y="434.5508">AGVPosition</text><line style="stroke:#A80036;stroke-width:1.5;" x1="842.5" x2="949.5" y1="442.1875" y2="442.1875"/><!--MD5=[f6f08570da9efaa92dc067d88742b265]
class AGVId--><rect codeLine="66" fill="#F5F5DC" filter="url(#f189pqhawdwftp)" height="48.1875" id="AGVId" style="stroke:#A80036;stroke-width:1.5;" width="109" x="841.5" y="319"/><ellipse cx="856.5" cy="339.0938" fill="#FF8B40" rx="11" ry="11" style="stroke:#A80036;stroke-width:1.0;"/><path d="M856.5,342.375 L858.0313,336.8438 L858.0313,336.8438 L857.5156,336.8438 L857,336.2188 L857,335.8438 L857,335.4688 L857.5156,334.8438 L858.0313,334.8438 L859.9063,334.8438 L860.4844,334.8438 L861,335.4688 L861,335.8438 L861,336.2188 L860.4844,336.8438 L860.4844,336.8438 L860.0313,336.8438 L857.6875,344.8438 L855.3125,344.8438 L852.8438,336.8438 L852.5156,336.8438 L852.5156,336.8438 L852,336.2188 L852,335.8438 L852,335.4688 L852.5156,334.8438 L853.0938,334.8438 L854.9688,334.8438 L855.4844,334.8438 L856,335.4688 L856,335.8438 L856,336.2188 L855.4844,336.8438 L854.9688,336.8438 L854.9688,336.8438 L856.5,342.375 Z " fill="#000000"/><text fill="#000000" font-family="sans-serif" font-size="12" font-style="italic" lengthAdjust="spacing" textLength="81" x="868.5" y="336.457">«value object»</text><text fill="#000000" font-family="sans-serif" font-size="12" lengthAdjust="spacing" textLength="33" x="892.5" y="351.5508">AGVId</text><line style="stroke:#A80036;stroke-width:1.5;" x1="842.5" x2="949.5" y1="359.1875" y2="359.1875"/><!--MD5=[2f49539d777d8d7526d361413cf07525]
class Range--><rect codeLine="68" fill="#F5F5DC" filter="url(#f189pqhawdwftp)" height="48.1875" id="Range" style="stroke:#A80036;stroke-width:1.5;" width="109" x="841.5" y="236"/><ellipse cx="856.5" cy="256.0938" fill="#FF8B40" rx="11" ry="11" style="stroke:#A80036;stroke-width:1.0;"/><path d="M856.5,259.375 L858.0313,253.8438 L858.0313,253.8438 L857.5156,253.8438 L857,253.2188 L857,252.8438 L857,252.4688 L857.5156,251.8438 L858.0313,251.8438 L859.9063,251.8438 L860.4844,251.8438 L861,252.4688 L861,252.8438 L861,253.2188 L860.4844,253.8438 L860.4844,253.8438 L860.0313,253.8438 L857.6875,261.8438 L855.3125,261.8438 L852.8438,253.8438 L852.5156,253.8438 L852.5156,253.8438 L852,253.2188 L852,252.8438 L852,252.4688 L852.5156,251.8438 L853.0938,251.8438 L854.9688,251.8438 L855.4844,251.8438 L856,252.4688 L856,252.8438 L856,253.2188 L855.4844,253.8438 L854.9688,253.8438 L854.9688,253.8438 L856.5,259.375 Z " fill="#000000"/><text fill="#000000" font-family="sans-serif" font-size="12" font-style="italic" lengthAdjust="spacing" textLength="81" x="868.5" y="253.457">«value object»</text><text fill="#000000" font-family="sans-serif" font-size="12" lengthAdjust="spacing" textLength="37" x="890.5" y="268.5508">Range</text><line style="stroke:#A80036;stroke-width:1.5;" x1="842.5" x2="949.5" y1="276.1875" y2="276.1875"/><!--MD5=[72136138052d025cffdce3c22fbd185f]
class Product--><rect codeLine="30" fill="#F5F5DC" filter="url(#f189pqhawdwftp)" height="63.2813" id="Product" style="stroke:#A80036;stroke-width:1.5;" width="74" x="68" y="95.5"/><ellipse cx="83" cy="123.1406" fill="#ADD1B2" rx="11" ry="11" style="stroke:#A80036;stroke-width:1.0;"/><path d="M81.5,124.1406 L81.5,126.1406 L85.5,126.1406 L85.5,125.1406 L85.5,124.6563 L86.125,124.1406 L86.5,124.1406 L86.875,124.1406 L87.5,124.6563 L87.5,125.1406 L87.5,128.1406 L79.5,128.1406 L79.0156,128.1406 L78.5,127.5156 L78.5,127.1406 L78.5,126.7656 L79.0156,126.1406 L79.5,126.1406 L79.5,126.1406 L79.5,120.1406 L79.5,120.1406 L79.0156,120.1406 L78.5,119.5156 L78.5,119.1406 L78.5,118.7656 L79.0156,118.1406 L79.5,118.1406 L87.5,118.1406 L87.5,121.1406 L87.5,121.625 L86.875,122.1406 L86.5,122.1406 L86.125,122.1406 L85.5,121.625 L85.5,121.1406 L85.5,120.1406 L81.5,120.1406 L81.5,122.1406 L82.5,122.1406 L82.5,121.6563 L82.5,121.6563 L83.125,121.1406 L83.5,121.1406 L83.875,121.1406 L84.5,121.6563 L84.5,122.1406 L84.5,124.1406 L84.5,124.625 L83.875,125.1406 L83.875,125.1406 L83.5,125.1406 L83.125,125.1406 L82.5,124.625 L82.5,124.625 L82.5,124.1406 L81.5,124.1406 Z " fill="#000000"/><text fill="#000000" font-family="sans-serif" font-size="12" font-style="italic" lengthAdjust="spacing" textLength="43" x="96.5" y="112.957">«entity»</text><text fill="#000000" font-family="sans-serif" font-size="12" font-style="italic" lengthAdjust="spacing" textLength="35" x="100.5" y="128.0508">«root»</text><text fill="#000000" font-family="sans-serif" font-size="12" lengthAdjust="spacing" textLength="42" x="97" y="143.1445">Product</text><line style="stroke:#A80036;stroke-width:1.5;" x1="69" x2="141" y1="150.7813" y2="150.7813"/><!--MD5=[2234673e5bfcd6f879a72487a4afa117]
link AGV to AGVId--><path codeLine="74" d="M624.55,477.48 C640.55,461.28 660.52,443.17 681,430 C729.82,398.6 791.83,374.9 836.52,360.22 " fill="none" id="AGV-to-AGVId" style="stroke:#222222;stroke-width:1.0;"/><polygon fill="#222222" points="841.34,358.66,831.545,357.6317,836.5839,360.2025,834.013,365.2414,841.34,358.66" style="stroke:#222222;stroke-width:1.0;"/><text fill="#000000" font-family="sans-serif" font-size="13" lengthAdjust="spacing" textLength="21" x="728.5" y="372.4951">has</text><text fill="#000000" font-family="sans-serif" font-size="13" lengthAdjust="spacing" textLength="7" x="826.5248" y="375.3455">1</text><!--MD5=[b428ecffb88d381ab19e968f9006f1fa]
link AGV to Range--><path codeLine="75" d="M602.71,477.28 C616.65,440.2 642.31,384.88 681,350 C725.19,310.16 789.57,286.34 836.17,273.31 " fill="none" id="AGV-to-Range" style="stroke:#222222;stroke-width:1.0;"/><polygon fill="#222222" points="841.19,271.93,831.4543,270.4414,836.3665,273.2468,833.5612,278.159,841.19,271.93" style="stroke:#222222;stroke-width:1.0;"/><text fill="#000000" font-family="sans-serif" font-size="13" lengthAdjust="spacing" textLength="50" x="714" y="283.4951">respects</text><text fill="#000000" font-family="sans-serif" font-size="13" lengthAdjust="spacing" textLength="7" x="826.3546" y="288.1142">1</text><!--MD5=[436492a8722677b8f40c7c1b2a179142]
link AGV to Task--><path codeLine="76" d="M624.63,554.75 C640.64,571.11 660.61,589.45 681,603 C729.83,635.44 791.85,660.93 836.53,676.95 " fill="none" id="AGV-to-Task" style="stroke:#222222;stroke-width:1.0;"/><polygon fill="#222222" points="841.35,678.67,834.204,671.8925,836.6374,676.9992,831.5307,679.4326,841.35,678.67" style="stroke:#222222;stroke-width:1.0;"/><text fill="#000000" font-family="sans-serif" font-size="13" lengthAdjust="spacing" textLength="45" x="716.5" y="599.4951">collects</text><text fill="#000000" font-family="sans-serif" font-size="13" lengthAdjust="spacing" textLength="20" x="813.4708" y="691.048">1..*</text><!--MD5=[7e741bf253eb0a2c9fd03f3274c742f3]
link AGV to Route--><path codeLine="77" d="M624.69,526.24 C676.28,541.46 773.84,570.25 836.57,588.76 " fill="none" id="AGV-to-Route" style="stroke:#222222;stroke-width:1.0;"/><polygon fill="#222222" points="841.4,590.18,833.8975,583.7994,836.6039,588.7669,831.6364,591.4732,841.4,590.18" style="stroke:#222222;stroke-width:1.0;"/><text fill="#000000" font-family="sans-serif" font-size="13" lengthAdjust="spacing" textLength="39" x="719.5" y="542.4951">follows</text><text fill="#000000" font-family="sans-serif" font-size="13" lengthAdjust="spacing" textLength="7" x="826.5928" y="602.6353">1</text><!--MD5=[90de021bb2aa8991bb28cb59916c543e]
link AGV to Model--><path codeLine="78" d="M602.3,554.51 C616.13,592.47 641.91,650.03 681,687 C724.9,728.52 789.33,755.08 836.02,770.12 " fill="none" id="AGV-to-Model" style="stroke:#222222;stroke-width:1.0;"/><polygon fill="#222222" points="841.05,771.72,833.6873,765.1786,836.2856,770.2034,831.2607,772.8017,841.05,771.72" style="stroke:#222222;stroke-width:1.0;"/><text fill="#000000" font-family="sans-serif" font-size="13" lengthAdjust="spacing" textLength="21" x="728.5" y="683.4951">has</text><text fill="#000000" font-family="sans-serif" font-size="13" lengthAdjust="spacing" textLength="7" x="826.5611" y="784.421">1</text><!--MD5=[a00a30fffa578e516f3e19cd4542a765]
link AGV to BriefDescription--><path codeLine="79" d="M593.23,554.58 C599.96,611.41 620.32,717.79 681,782 C720.6,823.9 783.21,846.18 830.5,857.66 " fill="none" id="AGV-to-BriefDescription" style="stroke:#222222;stroke-width:1.0;"/><polygon fill="#222222" points="835.61,858.87,827.7781,852.8983,830.7454,857.7145,825.9292,860.6818,835.61,858.87" style="stroke:#222222;stroke-width:1.0;"/><text fill="#000000" font-family="sans-serif" font-size="13" lengthAdjust="spacing" textLength="96" x="691" y="778.4951">characterized by</text><text fill="#000000" font-family="sans-serif" font-size="13" lengthAdjust="spacing" textLength="7" x="820.8234" y="872.1155">1</text><!--MD5=[6d8c6a02073692a8b3732d0820cd1b6f]
link AGV to MaxWeightCapacity--><path codeLine="80" d="M624.69,516 C672.38,516 759.35,516 821.78,516 " fill="none" id="AGV-to-MaxWeightCapacity" style="stroke:#222222;stroke-width:1.0;"/><polygon fill="#222222" points="826.99,516,817.99,512,821.99,516,817.99,520,826.99,516" style="stroke:#222222;stroke-width:1.0;"/><text fill="#000000" font-family="sans-serif" font-size="13" lengthAdjust="spacing" textLength="50" x="714" y="512.4951">respects</text><text fill="#000000" font-family="sans-serif" font-size="13" lengthAdjust="spacing" textLength="7" x="812.0592" y="530.3881">1</text><!--MD5=[bf5efedcc9e681833f119f210f8fc209]
link AGV to AGVPosition--><path codeLine="81" d="M624.69,505.76 C676.28,490.54 773.84,461.75 836.57,443.24 " fill="none" id="AGV-to-AGVPosition" style="stroke:#222222;stroke-width:1.0;"/><polygon fill="#222222" points="841.4,441.82,831.6364,440.5268,836.6039,443.2331,833.8975,448.2006,841.4,441.82" style="stroke:#222222;stroke-width:1.0;"/><text fill="#000000" font-family="sans-serif" font-size="13" lengthAdjust="spacing" textLength="56" x="711" y="452.4951">located in</text><text fill="#000000" font-family="sans-serif" font-size="13" lengthAdjust="spacing" textLength="7" x="826.5928" y="458.527">1</text><!--MD5=[cd4c0ba6265bf02ba97fe63efb9356e8]
link Product to Warehouse--><path codeLine="83" d="M142.23,127 C182.86,127 249.11,127 295.43,127 " fill="none" id="Product-to-Warehouse" style="stroke:#222222;stroke-width:1.0;"/><polygon fill="#222222" points="300.69,127,291.69,123,295.69,127,291.69,131,300.69,127" style="stroke:#222222;stroke-width:1.0;"/><text fill="#000000" font-family="sans-serif" font-size="13" lengthAdjust="spacing" textLength="56" x="212" y="123.4951">located in</text><text fill="#000000" font-family="sans-serif" font-size="13" lengthAdjust="spacing" textLength="7" x="286.0804" y="141.6753">1</text><!--MD5=[9fbce56643d6e9a69d7b4c80f6ceacbc]
link Warehouse to AGV--><path codeLine="85" d="M369.27,158.5 C411.7,227.84 513.22,393.77 561.55,472.77 " fill="none" id="Warehouse-to-AGV" style="stroke:#222222;stroke-width:1.0;"/><polygon fill="#222222" points="564.38,477.39,563.0935,467.6255,561.7699,473.1254,556.27,471.8017,564.38,477.39" style="stroke:#222222;stroke-width:1.0;"/><text fill="#000000" font-family="sans-serif" font-size="13" lengthAdjust="spacing" textLength="68" x="428" y="260.4951">operated by</text><text fill="#000000" font-family="sans-serif" font-size="13" lengthAdjust="spacing" textLength="20" x="538.2133" y="466.6036">1..*</text><!--MD5=[7bf2f443fe1a8f00427e2f400263ca32]
link Warehouse to WarehousePlant--><path codeLine="86" d="M397.02,121.86 C432.54,117.98 481.78,112.6 521.36,108.28 " fill="none" id="Warehouse-to-WarehousePlant" style="stroke:#222222;stroke-width:1.0;"/><polygon fill="#222222" points="526.63,107.7,517.249,104.7006,521.6595,108.2428,518.1174,112.6533,526.63,107.7" style="stroke:#222222;stroke-width:1.0;"/><text fill="#000000" font-family="sans-serif" font-size="13" lengthAdjust="spacing" textLength="47" x="438.5" y="108.4951">provides</text><text fill="#000000" font-family="sans-serif" font-size="13" lengthAdjust="spacing" textLength="20" x="499.1668" y="122.7102">1..*</text><!--MD5=[1ed9b8dac11cdd2f7990b954d759f3f4]
link WarehousePlant to AGVDock--><path codeLine="87" d="M651.35,101 C709.71,101 796.2,101 848.9,101 " fill="none" id="WarehousePlant-to-AGVDock" style="stroke:#222222;stroke-width:1.0;"/><polygon fill="#222222" points="854.2,101,845.2,97,849.2,101,845.2,105,854.2,101" style="stroke:#222222;stroke-width:1.0;"/><text fill="#000000" font-family="sans-serif" font-size="13" lengthAdjust="spacing" textLength="114" x="682" y="97.4951">provides information</text><text fill="#000000" font-family="sans-serif" font-size="13" lengthAdjust="spacing" textLength="20" x="826.5919" y="115.6942">1..*</text><!--MD5=[c8fbe3ecd8eae872ebbc3f06111d2882]
@startuml

hide methods
left to right direction
skinparam classAttributeIconSize 0
skinparam classBackgroundColor beige
skinparam ArrowColor #222222

package "<<aggregate>> Warehouse" {
    entity Warehouse
    entity WarehousePlant
    entity AGVDock
}

package "<<aggregate>> AGV" {
    entity AGV
    class BriefDescription
    class Model
    class Task
    class Route
    class MaxWeightCapacity
    class AGVPosition
    class AGVId
    class Range
}

package "<<aggregate>> Product" {
    entity Product
}

entity Product <<entity>> <<root>> {}

entity WarehousePlant <<entity>> {
    -description
    -length
    -width
    -square
    -unit
}

entity AGV <<entity>> <<root>> {
    -state
}

entity AGVDock <<entity>> {
    -id
}

entity Warehouse <<entity>> <<root>> {
}


entity AGV <<entity>> <<root>> {}

class BriefDescription <<(V,#FF8B40) value object>> {}

class Model <<(V,#FF8B40) value object>> {}

class AGVPosition <<(V,#FF8B40) value object>> {}

class Task<<(V,#FF8B40) value object>> {
    -taskState
}

class Route <<(V,#FF8B40) value object>> {}

class AGVId <<(V,#FF8B40) value object>> {}

class Range <<(V,#FF8B40) value object>> {}

class MaxWeightCapacity <<(V,#FF8B40) value object>> {
-unity
}

AGV - -> "1" AGVId : has
AGV - -> "1" Range : respects
AGV - -> "1..*" Task : collects
AGV - -> "1" Route : follows
AGV - -> "1" Model : has
AGV - -> "1" BriefDescription : characterized by
AGV - -> "1" MaxWeightCapacity : respects
AGV - -> "1" AGVPosition : located in

Product- -> "1" Warehouse : located in

Warehouse - -> "1..*" AGV : operated by
Warehouse - -> "1..*" WarehousePlant : provides
WarehousePlant - -> "1..*" AGVDock : provides information

@enduml

PlantUML version 1.2021.11(Sat Oct 02 14:26:11 BST 2021)
(GPL source distribution)
Java Runtime: OpenJDK Runtime Environment
JVM: OpenJDK 64-Bit Server VM
Default Encoding: Cp1252
Language: pt
Country: PT
--></g></svg>