<?xml version="1.0" encoding="UTF-8" standalone="no"?><svg xmlns="http://www.w3.org/2000/svg" xmlns:xlink="http://www.w3.org/1999/xlink" contentStyleType="text/css" height="338px" preserveAspectRatio="none" style="width:436px;height:338px;background:#FFFFFF;" version="1.1" viewBox="0 0 436 338" width="436px" zoomAndPan="magnify"><defs/><g><rect fill="#FFFFFF" height="146.1094" style="stroke:#181818;stroke-width:1.0;" width="10" x="72.5" y="92.6094"/><rect fill="#FFFFFF" height="63.0547" style="stroke:#181818;stroke-width:1.0;" width="10" x="395.5" y="114.9609"/><rect fill="#FFFFFF" height="30.3516" style="stroke:#181818;stroke-width:1.0;" width="10" x="395.5" y="208.3672"/><line style="stroke:#181818;stroke-width:0.5;stroke-dasharray:5.0,5.0;" x1="77" x2="77" y1="82.6094" y2="256.7188"/><line style="stroke:#181818;stroke-width:0.5;stroke-dasharray:5.0,5.0;" x1="400.5" x2="400.5" y1="82.6094" y2="256.7188"/><text fill="#000000" font-family="sans-serif" font-size="14" lengthAdjust="spacing" textLength="139" x="5" y="79.5332">Warehouse Employee</text><ellipse cx="77.5" cy="13.5" fill="#E2E2F0" rx="8" ry="8" style="stroke:#181818;stroke-width:0.5;"/><path d="M77.5,21.5 L77.5,48.5 M64.5,29.5 L90.5,29.5 M77.5,48.5 L64.5,63.5 M77.5,48.5 L90.5,63.5 " fill="none" style="stroke:#181818;stroke-width:0.5;"/><text fill="#000000" font-family="sans-serif" font-size="14" lengthAdjust="spacing" textLength="139" x="5" y="270.252">Warehouse Employee</text><ellipse cx="77.5" cy="281.8281" fill="#E2E2F0" rx="8" ry="8" style="stroke:#181818;stroke-width:0.5;"/><path d="M77.5,289.8281 L77.5,316.8281 M64.5,297.8281 L90.5,297.8281 M77.5,316.8281 L64.5,331.8281 M77.5,316.8281 L90.5,331.8281 " fill="none" style="stroke:#181818;stroke-width:0.5;"/><rect fill="#E2E2F0" height="31.6094" rx="2.5" ry="2.5" style="stroke:#181818;stroke-width:0.5;" width="60" x="370.5" y="50"/><text fill="#000000" font-family="sans-serif" font-size="14" lengthAdjust="spacing" textLength="46" x="377.5" y="71.5332">System</text><rect fill="#E2E2F0" height="31.6094" rx="2.5" ry="2.5" style="stroke:#181818;stroke-width:0.5;" width="60" x="370.5" y="255.7188"/><text fill="#000000" font-family="sans-serif" font-size="14" lengthAdjust="spacing" textLength="46" x="377.5" y="277.252">System</text><rect fill="#FFFFFF" height="146.1094" style="stroke:#181818;stroke-width:1.0;" width="10" x="72.5" y="92.6094"/><rect fill="#FFFFFF" height="63.0547" style="stroke:#181818;stroke-width:1.0;" width="10" x="395.5" y="114.9609"/><rect fill="#FFFFFF" height="30.3516" style="stroke:#181818;stroke-width:1.0;" width="10" x="395.5" y="208.3672"/><polygon fill="#181818" points="383.5,110.9609,393.5,114.9609,383.5,118.9609,387.5,114.9609" style="stroke:#181818;stroke-width:1.0;"/><line style="stroke:#181818;stroke-width:1.0;" x1="82.5" x2="389.5" y1="114.9609" y2="114.9609"/><text fill="#000000" font-family="sans-serif" font-size="13" font-weight="bold" lengthAdjust="spacing" textLength="7" x="89.5" y="110.1045">1</text><text fill="#000000" font-family="sans-serif" font-size="13" lengthAdjust="spacing" textLength="247" x="100.5" y="110.1045">initiates the process of configuring an AGV</text><polygon fill="#181818" points="93.5,174.0156,83.5,178.0156,93.5,182.0156,89.5,178.0156" style="stroke:#181818;stroke-width:1.0;"/><line style="stroke:#181818;stroke-width:1.0;stroke-dasharray:2.0,2.0;" x1="87.5" x2="399.5" y1="178.0156" y2="178.0156"/><text fill="#000000" font-family="sans-serif" font-size="13" font-weight="bold" lengthAdjust="spacing" textLength="7" x="99.5" y="156.8076">2</text><text fill="#000000" font-family="sans-serif" font-size="13" lengthAdjust="spacing" textLength="241" x="110.5" y="140.4561">requests data (id, briefDescription, model,</text><text fill="#000000" font-family="sans-serif" font-size="13" lengthAdjust="spacing" textLength="249" x="114.5" y="156.8076">maxWeightCapacity, maxVolumeCapacity,</text><text fill="#000000" font-family="sans-serif" font-size="13" lengthAdjust="spacing" textLength="146" x="114.5" y="173.1592">range, position, agvDock)</text><polygon fill="#181818" points="383.5,204.3672,393.5,208.3672,383.5,212.3672,387.5,208.3672" style="stroke:#181818;stroke-width:1.0;"/><line style="stroke:#181818;stroke-width:1.0;" x1="82.5" x2="389.5" y1="208.3672" y2="208.3672"/><text fill="#000000" font-family="sans-serif" font-size="13" font-weight="bold" lengthAdjust="spacing" textLength="7" x="89.5" y="203.5107">3</text><text fill="#000000" font-family="sans-serif" font-size="13" lengthAdjust="spacing" textLength="137" x="100.5" y="203.5107">type the requested data</text><polygon fill="#181818" points="88.5,234.7188,78.5,238.7188,88.5,242.7188,84.5,238.7188" style="stroke:#181818;stroke-width:1.0;"/><line style="stroke:#181818;stroke-width:1.0;stroke-dasharray:2.0,2.0;" x1="82.5" x2="399.5" y1="238.7188" y2="238.7188"/><text fill="#000000" font-family="sans-serif" font-size="13" font-weight="bold" lengthAdjust="spacing" textLength="7" x="94.5" y="233.8623">4</text><text fill="#000000" font-family="sans-serif" font-size="13" lengthAdjust="spacing" textLength="278" x="105.5" y="233.8623">shows information and informs operation sucess</text><!--MD5=[b3a5821f2d2b79ac5121a676a8b1c225]
@startuml
autonumber
actor "Warehouse Employee" as WE
participant "System" as SYS

activate WE
WE -> SYS : initiates the process of configuring an AGV
activate SYS
SYS - -> WE : requests data (id, briefDescription, model,\n maxWeightCapacity, maxVolumeCapacity,\n range, position, agvDock)
deactivate SYS

WE -> SYS : type the requested data
activate SYS

SYS - -> WE : shows information and informs operation sucess
deactivate SYS

deactivate WE

@enduml

PlantUML version 1.2022.4(Sat Apr 09 14:29:17 BST 2022)
(GPL source distribution)
Java Runtime: OpenJDK Runtime Environment
JVM: OpenJDK 64-Bit Server VM
Default Encoding: Cp1252
Language: pt
Country: PT
--></g></svg>