<?xml version="1.0" encoding="UTF-8" standalone="no"?><svg xmlns="http://www.w3.org/2000/svg" xmlns:xlink="http://www.w3.org/1999/xlink" contentStyleType="text/css" height="1192px" preserveAspectRatio="none" style="width:1920px;height:1192px;background:#FFFFFF;" version="1.1" viewBox="0 0 1920 1192" width="1920px" zoomAndPan="magnify"><defs/><g><rect fill="#FFFFFF" height="981.25" style="stroke:#181818;stroke-width:1.0;" width="10" x="72.5" y="96.2188"/><rect fill="#FFFFFF" height="137.4063" style="stroke:#181818;stroke-width:1.0;" width="10" x="487.5" y="118.5703"/><rect fill="#FFFFFF" height="791.1406" style="stroke:#181818;stroke-width:1.0;" width="10" x="487.5" y="286.3281"/><rect fill="#FFFFFF" height="30" style="stroke:#181818;stroke-width:1.0;" width="10" x="765.5" y="179.2734"/><rect fill="#FFFFFF" height="714.0859" style="stroke:#181818;stroke-width:1.0;" width="10" x="765.5" y="333.0313"/><rect fill="#FFFFFF" height="107.4063" style="stroke:#181818;stroke-width:1.0;" width="10" x="1083.5" y="666.8984"/><rect fill="#FFFFFF" height="60.7031" style="stroke:#181818;stroke-width:1.0;" width="10" x="1581" y="804.6563"/><rect fill="#FFFFFF" height="90.7031" style="stroke:#181818;stroke-width:1.0;" width="10" x="1732" y="895.7109"/><rect fill="#FFFFFF" height="30" style="stroke:#181818;stroke-width:1.0;" width="10" x="1862.5" y="926.0625"/><line style="stroke:#181818;stroke-width:0.5;stroke-dasharray:5.0,5.0;" x1="77" x2="77" y1="86.2188" y2="1095.4688"/><line style="stroke:#181818;stroke-width:0.5;stroke-dasharray:5.0,5.0;" x1="492" x2="492" y1="86.2188" y2="1095.4688"/><line style="stroke:#181818;stroke-width:0.5;stroke-dasharray:5.0,5.0;" x1="770" x2="770" y1="86.2188" y2="1095.4688"/><line style="stroke:#181818;stroke-width:0.5;stroke-dasharray:5.0,5.0;" x1="1088" x2="1088" y1="86.2188" y2="1095.4688"/><line style="stroke:#181818;stroke-width:0.5;stroke-dasharray:5.0,5.0;" x1="1482" x2="1482" y1="86.2188" y2="1095.4688"/><line style="stroke:#181818;stroke-width:0.5;stroke-dasharray:5.0,5.0;" x1="1586" x2="1586" y1="86.2188" y2="1095.4688"/><line style="stroke:#181818;stroke-width:0.5;stroke-dasharray:5.0,5.0;" x1="1737" x2="1737" y1="86.2188" y2="1095.4688"/><line style="stroke:#181818;stroke-width:0.5;stroke-dasharray:5.0,5.0;" x1="1867" x2="1867" y1="86.2188" y2="1095.4688"/><text fill="#000000" font-family="sans-serif" font-size="14" lengthAdjust="spacing" textLength="139" x="5" y="83.1426">Warehouse Employee</text><ellipse cx="77.5" cy="17.1094" fill="#E2E2F0" rx="8" ry="8" style="stroke:#181818;stroke-width:0.5;"/><path d="M77.5,25.1094 L77.5,52.1094 M64.5,33.1094 L90.5,33.1094 M77.5,52.1094 L64.5,67.1094 M77.5,52.1094 L90.5,67.1094 " fill="none" style="stroke:#181818;stroke-width:0.5;"/><text fill="#000000" font-family="sans-serif" font-size="14" lengthAdjust="spacing" textLength="139" x="5" y="1109.002">Warehouse Employee</text><ellipse cx="77.5" cy="1120.5781" fill="#E2E2F0" rx="8" ry="8" style="stroke:#181818;stroke-width:0.5;"/><path d="M77.5,1128.5781 L77.5,1155.5781 M64.5,1136.5781 L90.5,1136.5781 M77.5,1155.5781 L64.5,1170.5781 M77.5,1155.5781 L90.5,1170.5781 " fill="none" style="stroke:#181818;stroke-width:0.5;"/><rect fill="#E2E2F0" height="31.6094" rx="2.5" ry="2.5" style="stroke:#181818;stroke-width:0.5;" width="117" x="434" y="53.6094"/><text fill="#000000" font-family="sans-serif" font-size="14" lengthAdjust="spacing" textLength="103" x="441" y="75.1426">ConfigureAGVUI</text><rect fill="#E2E2F0" height="31.6094" rx="2.5" ry="2.5" style="stroke:#181818;stroke-width:0.5;" width="117" x="434" y="1094.4688"/><text fill="#000000" font-family="sans-serif" font-size="14" lengthAdjust="spacing" textLength="103" x="441" y="1116.002">ConfigureAGVUI</text><rect fill="#E2E2F0" height="31.6094" rx="2.5" ry="2.5" style="stroke:#181818;stroke-width:0.5;" width="167" x="687" y="53.6094"/><text fill="#000000" font-family="sans-serif" font-size="14" lengthAdjust="spacing" textLength="153" x="694" y="75.1426">ConfigureAGVController</text><rect fill="#E2E2F0" height="31.6094" rx="2.5" ry="2.5" style="stroke:#181818;stroke-width:0.5;" width="167" x="687" y="1094.4688"/><text fill="#000000" font-family="sans-serif" font-size="14" lengthAdjust="spacing" textLength="153" x="694" y="1116.002">ConfigureAGVController</text><rect fill="#E2E2F0" height="49.2188" rx="2.5" ry="2.5" style="stroke:#181818;stroke-width:0.5;" width="93" x="1042" y="36"/><text fill="#000000" font-family="sans-serif" font-size="14" lengthAdjust="spacing" textLength="75" x="1049" y="57.5332">&lt;&lt;builder&gt;&gt;</text><text fill="#000000" font-family="sans-serif" font-size="14" lengthAdjust="spacing" textLength="73" x="1052" y="75.1426">AGVBuilder</text><rect fill="#E2E2F0" height="49.2188" rx="2.5" ry="2.5" style="stroke:#181818;stroke-width:0.5;" width="93" x="1042" y="1094.4688"/><text fill="#000000" font-family="sans-serif" font-size="14" lengthAdjust="spacing" textLength="75" x="1049" y="1116.002">&lt;&lt;builder&gt;&gt;</text><text fill="#000000" font-family="sans-serif" font-size="14" lengthAdjust="spacing" textLength="73" x="1052" y="1133.6113">AGVBuilder</text><rect fill="#E2E2F0" height="31.6094" rx="2.5" ry="2.5" style="stroke:#181818;stroke-width:0.5;" width="43" x="1461" y="53.6094"/><text fill="#000000" font-family="sans-serif" font-size="14" lengthAdjust="spacing" textLength="29" x="1468" y="75.1426">AGV</text><rect fill="#E2E2F0" height="31.6094" rx="2.5" ry="2.5" style="stroke:#181818;stroke-width:0.5;" width="43" x="1461" y="1094.4688"/><text fill="#000000" font-family="sans-serif" font-size="14" lengthAdjust="spacing" textLength="29" x="1468" y="1116.002">AGV</text><rect fill="#E2E2F0" height="49.2188" rx="2.5" ry="2.5" style="stroke:#181818;stroke-width:0.5;" width="144" x="1514" y="36"/><text fill="#000000" font-family="sans-serif" font-size="14" font-style="italic" lengthAdjust="spacing" textLength="89" x="1541.5" y="57.5332">«persistence»</text><text fill="#000000" font-family="sans-serif" font-size="14" lengthAdjust="spacing" textLength="130" x="1521" y="75.1426">: PersistenceContext</text><rect fill="#E2E2F0" height="49.2188" rx="2.5" ry="2.5" style="stroke:#181818;stroke-width:0.5;" width="144" x="1514" y="1094.4688"/><text fill="#000000" font-family="sans-serif" font-size="14" font-style="italic" lengthAdjust="spacing" textLength="89" x="1541.5" y="1116.002">«persistence»</text><text fill="#000000" font-family="sans-serif" font-size="14" lengthAdjust="spacing" textLength="130" x="1521" y="1133.6113">: PersistenceContext</text><rect fill="#E2E2F0" height="49.2188" rx="2.5" ry="2.5" style="stroke:#181818;stroke-width:0.5;" width="138" x="1668" y="36"/><text fill="#000000" font-family="sans-serif" font-size="14" font-style="italic" lengthAdjust="spacing" textLength="59" x="1707.5" y="57.5332">«factory»</text><text fill="#000000" font-family="sans-serif" font-size="14" lengthAdjust="spacing" textLength="124" x="1675" y="75.1426">: RepositoryFactory</text><rect fill="#E2E2F0" height="49.2188" rx="2.5" ry="2.5" style="stroke:#181818;stroke-width:0.5;" width="138" x="1668" y="1094.4688"/><text fill="#000000" font-family="sans-serif" font-size="14" font-style="italic" lengthAdjust="spacing" textLength="59" x="1707.5" y="1116.002">«factory»</text><text fill="#000000" font-family="sans-serif" font-size="14" lengthAdjust="spacing" textLength="124" x="1675" y="1133.6113">: RepositoryFactory</text><text fill="#000000" font-family="sans-serif" font-size="14" font-style="italic" lengthAdjust="spacing" textLength="79" x="1825" y="65.5332">«repository»</text><text fill="#000000" font-family="sans-serif" font-size="14" lengthAdjust="spacing" textLength="97" x="1816" y="83.1426">AGVRepository</text><path d="M1849.5,15 C1849.5,5 1867.5,5 1867.5,5 C1867.5,5 1885.5,5 1885.5,15 L1885.5,41 C1885.5,51 1867.5,51 1867.5,51 C1867.5,51 1849.5,51 1849.5,41 L1849.5,15 " fill="#E2E2F0" style="stroke:#181818;stroke-width:1.5;"/><path d="M1849.5,15 C1849.5,25 1867.5,25 1867.5,25 C1867.5,25 1885.5,25 1885.5,15 " fill="none" style="stroke:#181818;stroke-width:1.5;"/><text fill="#000000" font-family="sans-serif" font-size="14" font-style="italic" lengthAdjust="spacing" textLength="79" x="1825" y="1109.002">«repository»</text><text fill="#000000" font-family="sans-serif" font-size="14" lengthAdjust="spacing" textLength="97" x="1816" y="1126.6113">AGVRepository</text><path d="M1849.5,1139.6875 C1849.5,1129.6875 1867.5,1129.6875 1867.5,1129.6875 C1867.5,1129.6875 1885.5,1129.6875 1885.5,1139.6875 L1885.5,1165.6875 C1885.5,1175.6875 1867.5,1175.6875 1867.5,1175.6875 C1867.5,1175.6875 1849.5,1175.6875 1849.5,1165.6875 L1849.5,1139.6875 " fill="#E2E2F0" style="stroke:#181818;stroke-width:1.5;"/><path d="M1849.5,1139.6875 C1849.5,1149.6875 1867.5,1149.6875 1867.5,1149.6875 C1867.5,1149.6875 1885.5,1149.6875 1885.5,1139.6875 " fill="none" style="stroke:#181818;stroke-width:1.5;"/><rect fill="#FFFFFF" height="981.25" style="stroke:#181818;stroke-width:1.0;" width="10" x="72.5" y="96.2188"/><rect fill="#FFFFFF" height="137.4063" style="stroke:#181818;stroke-width:1.0;" width="10" x="487.5" y="118.5703"/><rect fill="#FFFFFF" height="791.1406" style="stroke:#181818;stroke-width:1.0;" width="10" x="487.5" y="286.3281"/><rect fill="#FFFFFF" height="30" style="stroke:#181818;stroke-width:1.0;" width="10" x="765.5" y="179.2734"/><rect fill="#FFFFFF" height="714.0859" style="stroke:#181818;stroke-width:1.0;" width="10" x="765.5" y="333.0313"/><rect fill="#FFFFFF" height="107.4063" style="stroke:#181818;stroke-width:1.0;" width="10" x="1083.5" y="666.8984"/><rect fill="#FFFFFF" height="60.7031" style="stroke:#181818;stroke-width:1.0;" width="10" x="1581" y="804.6563"/><rect fill="#FFFFFF" height="90.7031" style="stroke:#181818;stroke-width:1.0;" width="10" x="1732" y="895.7109"/><rect fill="#FFFFFF" height="30" style="stroke:#181818;stroke-width:1.0;" width="10" x="1862.5" y="926.0625"/><polygon fill="#181818" points="475.5,114.5703,485.5,118.5703,475.5,122.5703,479.5,118.5703" style="stroke:#181818;stroke-width:1.0;"/><line style="stroke:#181818;stroke-width:1.0;" x1="82.5" x2="481.5" y1="118.5703" y2="118.5703"/><text fill="#000000" font-family="sans-serif" font-size="13" font-weight="bold" lengthAdjust="spacing" textLength="7" x="89.5" y="113.7139">1</text><text fill="#000000" font-family="sans-serif" font-size="13" lengthAdjust="spacing" textLength="247" x="100.5" y="113.7139">initiates the process of configuring an AGV</text><polygon fill="#181818" points="758.5,144.9219,768.5,148.9219,758.5,152.9219,762.5,148.9219" style="stroke:#181818;stroke-width:1.0;"/><line style="stroke:#181818;stroke-width:1.0;" x1="497.5" x2="764.5" y1="148.9219" y2="148.9219"/><text fill="#000000" font-family="sans-serif" font-size="13" font-weight="bold" lengthAdjust="spacing" textLength="7" x="504.5" y="144.0654">2</text><text fill="#000000" font-family="sans-serif" font-size="13" lengthAdjust="spacing" textLength="36" x="515.5" y="144.0654">create</text><polygon fill="#181818" points="753.5,175.2734,763.5,179.2734,753.5,183.2734,757.5,179.2734" style="stroke:#181818;stroke-width:1.0;"/><line style="stroke:#181818;stroke-width:1.0;" x1="497.5" x2="759.5" y1="179.2734" y2="179.2734"/><text fill="#000000" font-family="sans-serif" font-size="13" font-weight="bold" lengthAdjust="spacing" textLength="7" x="504.5" y="174.417">3</text><text fill="#000000" font-family="sans-serif" font-size="13" lengthAdjust="spacing" textLength="78" x="515.5" y="174.417">validateData()</text><polygon fill="#181818" points="93.5,251.9766,83.5,255.9766,93.5,259.9766,89.5,255.9766" style="stroke:#181818;stroke-width:1.0;"/><line style="stroke:#181818;stroke-width:1.0;stroke-dasharray:2.0,2.0;" x1="87.5" x2="491.5" y1="255.9766" y2="255.9766"/><text fill="#000000" font-family="sans-serif" font-size="13" font-weight="bold" lengthAdjust="spacing" textLength="7" x="99.5" y="242.9443">4</text><text fill="#000000" font-family="sans-serif" font-size="13" lengthAdjust="spacing" textLength="366" x="110.5" y="234.7686">requests data (id, briefDescription, model, maxWeightCapacity,</text><text fill="#000000" font-family="sans-serif" font-size="13" lengthAdjust="spacing" textLength="274" x="110.5" y="251.1201">maxVolumeCapacity, range, position, agvDock)</text><polygon fill="#181818" points="475.5,282.3281,485.5,286.3281,475.5,290.3281,479.5,286.3281" style="stroke:#181818;stroke-width:1.0;"/><line style="stroke:#181818;stroke-width:1.0;" x1="82.5" x2="481.5" y1="286.3281" y2="286.3281"/><text fill="#000000" font-family="sans-serif" font-size="13" font-weight="bold" lengthAdjust="spacing" textLength="7" x="89.5" y="281.4717">5</text><text fill="#000000" font-family="sans-serif" font-size="13" lengthAdjust="spacing" textLength="201" x="100.5" y="281.4717">type and select the requested data</text><polygon fill="#181818" points="753.5,329.0313,763.5,333.0313,753.5,337.0313,757.5,333.0313" style="stroke:#181818;stroke-width:1.0;"/><line style="stroke:#181818;stroke-width:1.0;" x1="497.5" x2="759.5" y1="333.0313" y2="333.0313"/><text fill="#000000" font-family="sans-serif" font-size="13" font-weight="bold" lengthAdjust="spacing" textLength="7" x="504.5" y="319.999">6</text><text fill="#000000" font-family="sans-serif" font-size="13" lengthAdjust="spacing" textLength="238" x="515.5" y="311.8232">configureAGV(id, briefDescription, model,</text><text fill="#000000" font-family="sans-serif" font-size="13" lengthAdjust="spacing" textLength="161" x="519.5" y="328.1748">maxWeightCapacity, range)</text><polygon fill="#181818" points="1076.5,359.3828,1086.5,363.3828,1076.5,367.3828,1080.5,363.3828" style="stroke:#181818;stroke-width:1.0;"/><line style="stroke:#181818;stroke-width:1.0;" x1="775.5" x2="1082.5" y1="363.3828" y2="363.3828"/><text fill="#000000" font-family="sans-serif" font-size="13" font-weight="bold" lengthAdjust="spacing" textLength="7" x="782.5" y="358.5264">7</text><text fill="#000000" font-family="sans-serif" font-size="13" lengthAdjust="spacing" textLength="36" x="793.5" y="358.5264">create</text><polygon fill="#181818" points="1076.5,389.7344,1086.5,393.7344,1076.5,397.7344,1080.5,393.7344" style="stroke:#181818;stroke-width:1.0;"/><line style="stroke:#181818;stroke-width:1.0;" x1="775.5" x2="1082.5" y1="393.7344" y2="393.7344"/><text fill="#000000" font-family="sans-serif" font-size="13" font-weight="bold" lengthAdjust="spacing" textLength="7" x="782.5" y="388.8779">8</text><text fill="#000000" font-family="sans-serif" font-size="13" lengthAdjust="spacing" textLength="51" x="793.5" y="388.8779">withId(id)</text><polygon fill="#181818" points="1076.5,420.0859,1086.5,424.0859,1076.5,428.0859,1080.5,424.0859" style="stroke:#181818;stroke-width:1.0;"/><line style="stroke:#181818;stroke-width:1.0;" x1="775.5" x2="1082.5" y1="424.0859" y2="424.0859"/><text fill="#000000" font-family="sans-serif" font-size="13" font-weight="bold" lengthAdjust="spacing" textLength="7" x="782.5" y="419.2295">9</text><text fill="#000000" font-family="sans-serif" font-size="13" lengthAdjust="spacing" textLength="138" x="793.5" y="419.2295">withAGVDock(agvDock)</text><polygon fill="#181818" points="1076.5,450.4375,1086.5,454.4375,1076.5,458.4375,1080.5,454.4375" style="stroke:#181818;stroke-width:1.0;"/><line style="stroke:#181818;stroke-width:1.0;" x1="775.5" x2="1082.5" y1="454.4375" y2="454.4375"/><text fill="#000000" font-family="sans-serif" font-size="13" font-weight="bold" lengthAdjust="spacing" textLength="14" x="782.5" y="449.5811">10</text><text fill="#000000" font-family="sans-serif" font-size="13" lengthAdjust="spacing" textLength="100" x="800.5" y="449.5811">withRange(range)</text><polygon fill="#181818" points="1076.5,480.7891,1086.5,484.7891,1076.5,488.7891,1080.5,484.7891" style="stroke:#181818;stroke-width:1.0;"/><line style="stroke:#181818;stroke-width:1.0;" x1="775.5" x2="1082.5" y1="484.7891" y2="484.7891"/><text fill="#000000" font-family="sans-serif" font-size="13" font-weight="bold" lengthAdjust="spacing" textLength="14" x="782.5" y="479.9326">11</text><text fill="#000000" font-family="sans-serif" font-size="13" lengthAdjust="spacing" textLength="265" x="800.5" y="479.9326">withMaxWeightCapacity(maxWeightCapacity)</text><polygon fill="#181818" points="1076.5,511.1406,1086.5,515.1406,1076.5,519.1406,1080.5,515.1406" style="stroke:#181818;stroke-width:1.0;"/><line style="stroke:#181818;stroke-width:1.0;" x1="775.5" x2="1082.5" y1="515.1406" y2="515.1406"/><text fill="#000000" font-family="sans-serif" font-size="13" font-weight="bold" lengthAdjust="spacing" textLength="14" x="782.5" y="510.2842">12</text><text fill="#000000" font-family="sans-serif" font-size="13" lengthAdjust="spacing" textLength="271" x="800.5" y="510.2842">withMaxVolumeCapacity(maxVolumeCapacity)</text><polygon fill="#181818" points="1076.5,541.4922,1086.5,545.4922,1076.5,549.4922,1080.5,545.4922" style="stroke:#181818;stroke-width:1.0;"/><line style="stroke:#181818;stroke-width:1.0;" x1="775.5" x2="1082.5" y1="545.4922" y2="545.4922"/><text fill="#000000" font-family="sans-serif" font-size="13" font-weight="bold" lengthAdjust="spacing" textLength="14" x="782.5" y="540.6357">13</text><text fill="#000000" font-family="sans-serif" font-size="13" lengthAdjust="spacing" textLength="101" x="800.5" y="540.6357">withModel(model)</text><polygon fill="#181818" points="1076.5,571.8438,1086.5,575.8438,1076.5,579.8438,1080.5,575.8438" style="stroke:#181818;stroke-width:1.0;"/><line style="stroke:#181818;stroke-width:1.0;" x1="775.5" x2="1082.5" y1="575.8438" y2="575.8438"/><text fill="#000000" font-family="sans-serif" font-size="13" font-weight="bold" lengthAdjust="spacing" textLength="14" x="782.5" y="570.9873">14</text><text fill="#000000" font-family="sans-serif" font-size="13" lengthAdjust="spacing" textLength="211" x="800.5" y="570.9873">withBriefDescription(briefDescription)</text><polygon fill="#181818" points="1076.5,602.1953,1086.5,606.1953,1076.5,610.1953,1080.5,606.1953" style="stroke:#181818;stroke-width:1.0;"/><line style="stroke:#181818;stroke-width:1.0;" x1="775.5" x2="1082.5" y1="606.1953" y2="606.1953"/><text fill="#000000" font-family="sans-serif" font-size="13" font-weight="bold" lengthAdjust="spacing" textLength="14" x="782.5" y="601.3389">15</text><text fill="#000000" font-family="sans-serif" font-size="13" lengthAdjust="spacing" textLength="123" x="800.5" y="601.3389">withPosition(position)</text><polygon fill="#181818" points="1076.5,632.5469,1086.5,636.5469,1076.5,640.5469,1080.5,636.5469" style="stroke:#181818;stroke-width:1.0;"/><line style="stroke:#181818;stroke-width:1.0;" x1="775.5" x2="1082.5" y1="636.5469" y2="636.5469"/><text fill="#000000" font-family="sans-serif" font-size="13" font-weight="bold" lengthAdjust="spacing" textLength="14" x="782.5" y="631.6904">16</text><text fill="#000000" font-family="sans-serif" font-size="13" lengthAdjust="spacing" textLength="133" x="800.5" y="631.6904">withAGVStatus(status)</text><polygon fill="#181818" points="1071.5,662.8984,1081.5,666.8984,1071.5,670.8984,1075.5,666.8984" style="stroke:#181818;stroke-width:1.0;"/><line style="stroke:#181818;stroke-width:1.0;" x1="775.5" x2="1077.5" y1="666.8984" y2="666.8984"/><text fill="#000000" font-family="sans-serif" font-size="13" font-weight="bold" lengthAdjust="spacing" textLength="14" x="782.5" y="662.042">17</text><text fill="#000000" font-family="sans-serif" font-size="13" lengthAdjust="spacing" textLength="72" x="800.5" y="662.042">createAGV()</text><polygon fill="#181818" points="1470.5,709.6016,1480.5,713.6016,1470.5,717.6016,1474.5,713.6016" style="stroke:#181818;stroke-width:1.0;"/><line style="stroke:#181818;stroke-width:1.0;" x1="1093.5" x2="1476.5" y1="713.6016" y2="713.6016"/><text fill="#000000" font-family="sans-serif" font-size="13" font-weight="bold" lengthAdjust="spacing" textLength="14" x="1100.5" y="700.5693">18</text><text fill="#000000" font-family="sans-serif" font-size="13" lengthAdjust="spacing" textLength="343" x="1118.5" y="692.3936">createAGV(id, briefDescription, model,maxWeightCapacity,</text><text fill="#000000" font-family="sans-serif" font-size="13" lengthAdjust="spacing" textLength="274" x="1122.5" y="708.7451">maxVolumeCapacity, range, position, agvDock)</text><polygon fill="#181818" points="1104.5,739.9531,1094.5,743.9531,1104.5,747.9531,1100.5,743.9531" style="stroke:#181818;stroke-width:1.0;"/><line style="stroke:#181818;stroke-width:1.0;stroke-dasharray:2.0,2.0;" x1="1098.5" x2="1481.5" y1="743.9531" y2="743.9531"/><text fill="#000000" font-family="sans-serif" font-size="13" font-weight="bold" lengthAdjust="spacing" textLength="14" x="1110.5" y="739.0967">19</text><text fill="#000000" font-family="sans-serif" font-size="13" lengthAdjust="spacing" textLength="19" x="1128.5" y="739.0967">agv</text><polygon fill="#181818" points="786.5,770.3047,776.5,774.3047,786.5,778.3047,782.5,774.3047" style="stroke:#181818;stroke-width:1.0;"/><line style="stroke:#181818;stroke-width:1.0;stroke-dasharray:2.0,2.0;" x1="780.5" x2="1087.5" y1="774.3047" y2="774.3047"/><text fill="#000000" font-family="sans-serif" font-size="13" font-weight="bold" lengthAdjust="spacing" textLength="14" x="792.5" y="769.4482">20</text><text fill="#000000" font-family="sans-serif" font-size="13" lengthAdjust="spacing" textLength="19" x="810.5" y="769.4482">agv</text><polygon fill="#181818" points="1569,800.6563,1579,804.6563,1569,808.6563,1573,804.6563" style="stroke:#181818;stroke-width:1.0;"/><line style="stroke:#181818;stroke-width:1.0;" x1="775.5" x2="1575" y1="804.6563" y2="804.6563"/><text fill="#000000" font-family="sans-serif" font-size="13" font-weight="bold" lengthAdjust="spacing" textLength="14" x="782.5" y="799.7998">21</text><text fill="#000000" font-family="sans-serif" font-size="13" lengthAdjust="spacing" textLength="224" x="800.5" y="799.7998">repoConfigureAGV = repositoryFactory</text><polygon fill="#181818" points="1725,831.0078,1735,835.0078,1725,839.0078,1729,835.0078" style="stroke:#181818;stroke-width:1.0;"/><line style="stroke:#181818;stroke-width:1.0;" x1="1591" x2="1731" y1="835.0078" y2="835.0078"/><text fill="#000000" font-family="sans-serif" font-size="13" font-weight="bold" lengthAdjust="spacing" textLength="14" x="1598" y="830.1514">22</text><text fill="#000000" font-family="sans-serif" font-size="13" lengthAdjust="spacing" textLength="36" x="1616" y="830.1514">create</text><polygon fill="#181818" points="786.5,861.3594,776.5,865.3594,786.5,869.3594,782.5,865.3594" style="stroke:#181818;stroke-width:1.0;"/><line style="stroke:#181818;stroke-width:1.0;stroke-dasharray:2.0,2.0;" x1="780.5" x2="1585" y1="865.3594" y2="865.3594"/><text fill="#000000" font-family="sans-serif" font-size="13" font-weight="bold" lengthAdjust="spacing" textLength="14" x="792.5" y="860.5029">23</text><text fill="#000000" font-family="sans-serif" font-size="13" lengthAdjust="spacing" textLength="39" x="810.5" y="860.5029">factory</text><polygon fill="#181818" points="1720,891.7109,1730,895.7109,1720,899.7109,1724,895.7109" style="stroke:#181818;stroke-width:1.0;"/><line style="stroke:#181818;stroke-width:1.0;" x1="775.5" x2="1726" y1="895.7109" y2="895.7109"/><text fill="#000000" font-family="sans-serif" font-size="13" font-weight="bold" lengthAdjust="spacing" textLength="14" x="782.5" y="890.8545">24</text><text fill="#000000" font-family="sans-serif" font-size="13" lengthAdjust="spacing" textLength="27" x="800.5" y="890.8545">agv()</text><polygon fill="#181818" points="1850.5,922.0625,1860.5,926.0625,1850.5,930.0625,1854.5,926.0625" style="stroke:#181818;stroke-width:1.0;"/><line style="stroke:#181818;stroke-width:1.0;" x1="1742" x2="1856.5" y1="926.0625" y2="926.0625"/><text fill="#000000" font-family="sans-serif" font-size="13" font-weight="bold" lengthAdjust="spacing" textLength="14" x="1749" y="921.2061">25</text><text fill="#000000" font-family="sans-serif" font-size="13" lengthAdjust="spacing" textLength="36" x="1767" y="921.2061">create</text><polygon fill="#181818" points="786.5,982.4141,776.5,986.4141,786.5,990.4141,782.5,986.4141" style="stroke:#181818;stroke-width:1.0;"/><line style="stroke:#181818;stroke-width:1.0;stroke-dasharray:2.0,2.0;" x1="780.5" x2="1736" y1="986.4141" y2="986.4141"/><text fill="#000000" font-family="sans-serif" font-size="13" font-weight="bold" lengthAdjust="spacing" textLength="14" x="792.5" y="981.5576">26</text><text fill="#000000" font-family="sans-serif" font-size="13" lengthAdjust="spacing" textLength="81" x="810.5" y="981.5576">agvRepository</text><polygon fill="#181818" points="1855.5,1012.7656,1865.5,1016.7656,1855.5,1020.7656,1859.5,1016.7656" style="stroke:#181818;stroke-width:1.0;"/><line style="stroke:#181818;stroke-width:1.0;" x1="775.5" x2="1861.5" y1="1016.7656" y2="1016.7656"/><text fill="#000000" font-family="sans-serif" font-size="13" font-weight="bold" lengthAdjust="spacing" textLength="14" x="782.5" y="1011.9092">27</text><text fill="#000000" font-family="sans-serif" font-size="13" lengthAdjust="spacing" textLength="62" x="800.5" y="1011.9092">save(AGV)</text><polygon fill="#181818" points="508.5,1043.1172,498.5,1047.1172,508.5,1051.1172,504.5,1047.1172" style="stroke:#181818;stroke-width:1.0;"/><line style="stroke:#181818;stroke-width:1.0;" x1="502.5" x2="769.5" y1="1047.1172" y2="1047.1172"/><text fill="#000000" font-family="sans-serif" font-size="13" font-weight="bold" lengthAdjust="spacing" textLength="14" x="514.5" y="1042.2607">28</text><text fill="#000000" font-family="sans-serif" font-size="13" lengthAdjust="spacing" textLength="19" x="532.5" y="1042.2607">agv</text><polygon fill="#181818" points="88.5,1073.4688,78.5,1077.4688,88.5,1081.4688,84.5,1077.4688" style="stroke:#181818;stroke-width:1.0;"/><line style="stroke:#181818;stroke-width:1.0;stroke-dasharray:2.0,2.0;" x1="82.5" x2="491.5" y1="1077.4688" y2="1077.4688"/><text fill="#000000" font-family="sans-serif" font-size="13" font-weight="bold" lengthAdjust="spacing" textLength="14" x="94.5" y="1072.6123">29</text><text fill="#000000" font-family="sans-serif" font-size="13" lengthAdjust="spacing" textLength="278" x="112.5" y="1072.6123">shows information and informs operation sucess</text><!--MD5=[e0882e999011dcff84b1bf0e4088dc00]
@startuml
autonumber
actor "Warehouse Employee" as WE
participant "ConfigureAGVUI" as UI
participant "ConfigureAGVController" as CTR
participant "<<builder>> \nAGVBuilder" as BUILDER
participant "AGV" as AGV
participant ": PersistenceContext" as PERS <<persistence>>
participant ": RepositoryFactory" as FAC <<factory>>

database AGVRepository as REP <<repository>>

activate WE
WE -> UI : initiates the process of configuring an AGV
activate UI
UI -> CTR : create

UI -> CTR : validateData()
activate CTR
deactivate CTR
UI - -> WE : requests data (id, briefDescription, model, maxWeightCapacity, \nmaxVolumeCapacity, range, position, agvDock)
deactivate UI
WE -> UI : type and select the requested data
activate UI
UI -> CTR : configureAGV(id, briefDescription, model,\n maxWeightCapacity, range)
activate CTR
CTR -> BUILDER : create
CTR -> BUILDER : withId(id)
CTR -> BUILDER : withAGVDock(agvDock)
CTR -> BUILDER : withRange(range)
CTR -> BUILDER : withMaxWeightCapacity(maxWeightCapacity)
CTR -> BUILDER : withMaxVolumeCapacity(maxVolumeCapacity)
CTR -> BUILDER : withModel(model)
CTR -> BUILDER : withBriefDescription(briefDescription)
CTR -> BUILDER : withPosition(position)
CTR -> BUILDER : withAGVStatus(status)
CTR -> BUILDER : createAGV()
activate BUILDER
BUILDER -> AGV : createAGV(id, briefDescription, model,maxWeightCapacity, \n maxVolumeCapacity, range, position, agvDock)
AGV - -> BUILDER : agv
BUILDER - -> CTR : agv
deactivate BUILDER
CTR -> PERS : repoConfigureAGV = repositoryFactory
activate PERS
PERS -> FAC : create
PERS - -> CTR : factory
deactivate PERS
CTR -> FAC : agv()
activate FAC
FAC -> REP : create
activate REP
deactivate REP
FAC - -> CTR : agvRepository
deactivate FAC
CTR -> REP : save(AGV)
CTR -> UI : agv
deactivate CTR

UI - -> WE : shows information and informs operation sucess
deactivate UI

deactivate WE

@enduml

PlantUML version 1.2022.4(Sat Apr 09 14:29:17 BST 2022)
(GPL source distribution)
Java Runtime: OpenJDK Runtime Environment
JVM: OpenJDK 64-Bit Server VM
Default Encoding: Cp1252
Language: pt
Country: PT
--></g></svg>