<?xml version="1.0" encoding="UTF-8" standalone="no"?><svg xmlns="http://www.w3.org/2000/svg" xmlns:xlink="http://www.w3.org/1999/xlink" contentScriptType="application/ecmascript" contentStyleType="text/css" height="653px" preserveAspectRatio="none" style="width:1030px;height:653px;background:#FFFFFF;" version="1.1" viewBox="0 0 1030 653" width="1030px" zoomAndPan="magnify"><defs><filter height="300%" id="fv1o6ttpfsrzi" width="300%" x="-1" y="-1"><feGaussianBlur result="blurOut" stdDeviation="2.0"/><feColorMatrix in="blurOut" result="blurOut2" type="matrix" values="0 0 0 0 0 0 0 0 0 0 0 0 0 0 0 0 0 0 .4 0"/><feOffset dx="4.0" dy="4.0" in="blurOut2" result="blurOut3"/><feBlend in="SourceGraphic" in2="blurOut3" mode="normal"/></filter></defs><g><!--MD5=[7f5af366000395c241dd25bd88118d72]
class ListOrdersBeingPreparedUI--><rect codeLine="3" fill="#FEFECE" filter="url(#fv1o6ttpfsrzi)" height="48" id="ListOrdersBeingPreparedUI" style="stroke:#A80036;stroke-width:1.5;" width="185" x="416" y="7"/><ellipse cx="431" cy="23" fill="#ADD1B2" rx="11" ry="11" style="stroke:#A80036;stroke-width:1.0;"/><path d="M433,19.5 Q433.2031,19 433.4375,18.75 Q433.6719,18.5 433.9375,18.5 Q434.4063,18.5 434.7031,18.7813 Q435,19.0625 435,19.7188 L435,21.2813 Q435,21.9375 434.7188,22.2188 Q434.4375,22.5 434,22.5 Q433.6094,22.5 433.3594,22.3281 Q433.1094,22.1563 433,21.7031 Q432.9531,21.3906 432.7813,21.2188 Q432.4688,20.8906 431.9063,20.7031 Q431.3438,20.5 430.7813,20.5 Q430.0781,20.5 429.4844,20.7813 Q428.9063,21.0625 428.4531,21.6875 Q428,22.3125 428,23.1719 L428,24.0938 Q428,25.125 428.8438,25.8125 Q429.6875,26.5 431.1875,26.5 Q432.0781,26.5 432.7031,26.2969 Q433.0625,26.1875 433.4688,25.8281 Q433.7344,25.625 433.875,25.5625 Q434.0156,25.5 434.1875,25.5 Q434.5156,25.5 434.75,25.7656 Q435,26.0156 435,26.375 Q435,26.7188 434.6563,27.125 Q434.1563,27.7188 433.3594,28.0469 Q432.3125,28.5 431.0313,28.5 Q429.5313,28.5 428.3281,27.9063 Q427.3594,27.4375 426.6719,26.4219 Q426,25.4063 426,24.2031 L426,23.1094 Q426,21.8594 426.5938,20.7656 Q427.2031,19.6719 428.25,19.0938 Q429.3125,18.5 430.5,18.5 Q431.2188,18.5 431.8438,18.75 Q432.4688,19 433,19.5 Z " fill="#000000"/><text fill="#000000" font-family="sans-serif" font-size="12" lengthAdjust="spacing" textLength="153" x="445" y="27.9102">ListOrdersBeingPreparedUI</text><line style="stroke:#A80036;stroke-width:1.5;" x1="417" x2="600" y1="39" y2="39"/><line style="stroke:#A80036;stroke-width:1.5;" x1="417" x2="600" y1="47" y2="47"/><!--MD5=[40a630573605cc0d2e1b5967b1fe1512]
class ListOrdersBeingPreparedController--><rect codeLine="38" fill="#FEFECE" filter="url(#fv1o6ttpfsrzi)" height="103.3438" id="ListOrdersBeingPreparedController" style="stroke:#A80036;stroke-width:1.5;" width="398" x="309.5" y="115"/><ellipse cx="406.75" cy="131" fill="#ADD1B2" rx="11" ry="11" style="stroke:#A80036;stroke-width:1.0;"/><path d="M408.75,127.5 Q408.9531,127 409.1875,126.75 Q409.4219,126.5 409.6875,126.5 Q410.1563,126.5 410.4531,126.7813 Q410.75,127.0625 410.75,127.7188 L410.75,129.2813 Q410.75,129.9375 410.4688,130.2188 Q410.1875,130.5 409.75,130.5 Q409.3594,130.5 409.1094,130.3281 Q408.8594,130.1563 408.75,129.7031 Q408.7031,129.3906 408.5313,129.2188 Q408.2188,128.8906 407.6563,128.7031 Q407.0938,128.5 406.5313,128.5 Q405.8281,128.5 405.2344,128.7813 Q404.6563,129.0625 404.2031,129.6875 Q403.75,130.3125 403.75,131.1719 L403.75,132.0938 Q403.75,133.125 404.5938,133.8125 Q405.4375,134.5 406.9375,134.5 Q407.8281,134.5 408.4531,134.2969 Q408.8125,134.1875 409.2188,133.8281 Q409.4844,133.625 409.625,133.5625 Q409.7656,133.5 409.9375,133.5 Q410.2656,133.5 410.5,133.7656 Q410.75,134.0156 410.75,134.375 Q410.75,134.7188 410.4063,135.125 Q409.9063,135.7188 409.1094,136.0469 Q408.0625,136.5 406.7813,136.5 Q405.2813,136.5 404.0781,135.9063 Q403.1094,135.4375 402.4219,134.4219 Q401.75,133.4063 401.75,132.2031 L401.75,131.1094 Q401.75,129.8594 402.3438,128.7656 Q402.9531,127.6719 404,127.0938 Q405.0625,126.5 406.25,126.5 Q406.9688,126.5 407.5938,126.75 Q408.2188,127 408.75,127.5 Z " fill="#000000"/><text fill="#000000" font-family="sans-serif" font-size="12" lengthAdjust="spacing" textLength="195" x="427.25" y="135.9102">ListOrdersBeingPreparedController</text><line style="stroke:#A80036;stroke-width:1.5;" x1="310.5" x2="706.5" y1="147" y2="147"/><line style="stroke:#A80036;stroke-width:1.5;" x1="310.5" x2="706.5" y1="155" y2="155"/><ellipse cx="320.5" cy="166" fill="#84BE84" rx="3" ry="3" style="stroke:#038048;stroke-width:1.0;"/><text fill="#000000" font-family="sans-serif" font-size="11" lengthAdjust="spacing" textLength="95" x="329.5" y="170.4189">getAGVsAvaiable()</text><ellipse cx="320.5" cy="179.8359" fill="#84BE84" rx="3" ry="3" style="stroke:#038048;stroke-width:1.0;"/><text fill="#000000" font-family="sans-serif" font-size="11" lengthAdjust="spacing" textLength="242" x="329.5" y="184.2549">getOrdersWhoNeedToBePreparedByAGV(idAGV)</text><ellipse cx="320.5" cy="193.6719" fill="#84BE84" rx="3" ry="3" style="stroke:#038048;stroke-width:1.0;"/><text fill="#000000" font-family="sans-serif" font-size="11" lengthAdjust="spacing" textLength="372" x="329.5" y="198.0908">changeStatusOfOrdersSelectToBeingPreparedByAGV(listOfOrdersSelected)</text><ellipse cx="320.5" cy="207.5078" fill="#84BE84" rx="3" ry="3" style="stroke:#038048;stroke-width:1.0;"/><text fill="#000000" font-family="sans-serif" font-size="11" lengthAdjust="spacing" textLength="368" x="329.5" y="211.9268">changeTheStatusOfOrdersForDispatchedToCustomer(listOfOrdersSelected)</text><!--MD5=[53b2c06ade5903185ca3326dce80e141]
class AGV--><rect codeLine="33" fill="#FEFECE" filter="url(#fv1o6ttpfsrzi)" height="89.5078" id="AGV" style="stroke:#A80036;stroke-width:1.5;" width="274" x="742.5" y="121.5"/><ellipse cx="863.75" cy="137.5" fill="#ADD1B2" rx="11" ry="11" style="stroke:#A80036;stroke-width:1.0;"/><path d="M865.75,134 Q865.9531,133.5 866.1875,133.25 Q866.4219,133 866.6875,133 Q867.1563,133 867.4531,133.2813 Q867.75,133.5625 867.75,134.2188 L867.75,135.7813 Q867.75,136.4375 867.4688,136.7188 Q867.1875,137 866.75,137 Q866.3594,137 866.1094,136.8281 Q865.8594,136.6563 865.75,136.2031 Q865.7031,135.8906 865.5313,135.7188 Q865.2188,135.3906 864.6563,135.2031 Q864.0938,135 863.5313,135 Q862.8281,135 862.2344,135.2813 Q861.6563,135.5625 861.2031,136.1875 Q860.75,136.8125 860.75,137.6719 L860.75,138.5938 Q860.75,139.625 861.5938,140.3125 Q862.4375,141 863.9375,141 Q864.8281,141 865.4531,140.7969 Q865.8125,140.6875 866.2188,140.3281 Q866.4844,140.125 866.625,140.0625 Q866.7656,140 866.9375,140 Q867.2656,140 867.5,140.2656 Q867.75,140.5156 867.75,140.875 Q867.75,141.2188 867.4063,141.625 Q866.9063,142.2188 866.1094,142.5469 Q865.0625,143 863.7813,143 Q862.2813,143 861.0781,142.4063 Q860.1094,141.9375 859.4219,140.9219 Q858.75,139.9063 858.75,138.7031 L858.75,137.6094 Q858.75,136.3594 859.3438,135.2656 Q859.9531,134.1719 861,133.5938 Q862.0625,133 863.25,133 Q863.9688,133 864.5938,133.25 Q865.2188,133.5 865.75,134 Z " fill="#000000"/><text fill="#000000" font-family="sans-serif" font-size="12" lengthAdjust="spacing" textLength="23" x="884.25" y="142.4102">AGV</text><line style="stroke:#A80036;stroke-width:1.5;" x1="743.5" x2="1015.5" y1="153.5" y2="153.5"/><line style="stroke:#A80036;stroke-width:1.5;" x1="743.5" x2="1015.5" y1="161.5" y2="161.5"/><ellipse cx="753.5" cy="172.5" fill="#84BE84" rx="3" ry="3" style="stroke:#038048;stroke-width:1.0;"/><text fill="#000000" font-family="sans-serif" font-size="11" lengthAdjust="spacing" textLength="173" x="762.5" y="176.9189">changeStatusOfAGVForOccupied()</text><ellipse cx="753.5" cy="186.3359" fill="#84BE84" rx="3" ry="3" style="stroke:#038048;stroke-width:1.0;"/><text fill="#000000" font-family="sans-serif" font-size="11" lengthAdjust="spacing" textLength="248" x="762.5" y="190.7549">addOrdersToATask(taskDescription, productOrder)</text><ellipse cx="753.5" cy="200.1719" fill="#84BE84" rx="3" ry="3" style="stroke:#038048;stroke-width:1.0;"/><text fill="#000000" font-family="sans-serif" font-size="11" lengthAdjust="spacing" textLength="149" x="762.5" y="204.5908">changeStatusOfAGVForFree()</text><!--MD5=[529d3a023cdac506d4f0a83ea48e48d1]
class AGVTask--><rect codeLine="46" fill="#FEFECE" filter="url(#fv1o6ttpfsrzi)" height="61.8359" id="AGVTask" style="stroke:#A80036;stroke-width:1.5;" width="211" x="774" y="292"/><ellipse cx="850.25" cy="308" fill="#ADD1B2" rx="11" ry="11" style="stroke:#A80036;stroke-width:1.0;"/><path d="M852.25,304.5 Q852.4531,304 852.6875,303.75 Q852.9219,303.5 853.1875,303.5 Q853.6563,303.5 853.9531,303.7813 Q854.25,304.0625 854.25,304.7188 L854.25,306.2813 Q854.25,306.9375 853.9688,307.2188 Q853.6875,307.5 853.25,307.5 Q852.8594,307.5 852.6094,307.3281 Q852.3594,307.1563 852.25,306.7031 Q852.2031,306.3906 852.0313,306.2188 Q851.7188,305.8906 851.1563,305.7031 Q850.5938,305.5 850.0313,305.5 Q849.3281,305.5 848.7344,305.7813 Q848.1563,306.0625 847.7031,306.6875 Q847.25,307.3125 847.25,308.1719 L847.25,309.0938 Q847.25,310.125 848.0938,310.8125 Q848.9375,311.5 850.4375,311.5 Q851.3281,311.5 851.9531,311.2969 Q852.3125,311.1875 852.7188,310.8281 Q852.9844,310.625 853.125,310.5625 Q853.2656,310.5 853.4375,310.5 Q853.7656,310.5 854,310.7656 Q854.25,311.0156 854.25,311.375 Q854.25,311.7188 853.9063,312.125 Q853.4063,312.7188 852.6094,313.0469 Q851.5625,313.5 850.2813,313.5 Q848.7813,313.5 847.5781,312.9063 Q846.6094,312.4375 845.9219,311.4219 Q845.25,310.4063 845.25,309.2031 L845.25,308.1094 Q845.25,306.8594 845.8438,305.7656 Q846.4531,304.6719 847.5,304.0938 Q848.5625,303.5 849.75,303.5 Q850.4688,303.5 851.0938,303.75 Q851.7188,304 852.25,304.5 Z " fill="#000000"/><text fill="#000000" font-family="sans-serif" font-size="12" lengthAdjust="spacing" textLength="50" x="870.75" y="312.9102">AGVTask</text><line style="stroke:#A80036;stroke-width:1.5;" x1="775" x2="984" y1="324" y2="324"/><line style="stroke:#A80036;stroke-width:1.5;" x1="775" x2="984" y1="332" y2="332"/><ellipse cx="785" cy="343" fill="#84BE84" rx="3" ry="3" style="stroke:#038048;stroke-width:1.0;"/><text fill="#000000" font-family="sans-serif" font-size="11" lengthAdjust="spacing" textLength="185" x="794" y="347.4189">assignATaskForAGV(taskDescription)</text><!--MD5=[9265192601ae3d68217fc2a2ce1ea439]
class ProductOrder--><rect codeLine="25" fill="#FEFECE" filter="url(#fv1o6ttpfsrzi)" height="89.5078" id="ProductOrder" style="stroke:#A80036;stroke-width:1.5;" width="275" x="7" y="278"/><ellipse cx="103.75" cy="294" fill="#ADD1B2" rx="11" ry="11" style="stroke:#A80036;stroke-width:1.0;"/><path d="M105.75,290.5 Q105.9531,290 106.1875,289.75 Q106.4219,289.5 106.6875,289.5 Q107.1563,289.5 107.4531,289.7813 Q107.75,290.0625 107.75,290.7188 L107.75,292.2813 Q107.75,292.9375 107.4688,293.2188 Q107.1875,293.5 106.75,293.5 Q106.3594,293.5 106.1094,293.3281 Q105.8594,293.1563 105.75,292.7031 Q105.7031,292.3906 105.5313,292.2188 Q105.2188,291.8906 104.6563,291.7031 Q104.0938,291.5 103.5313,291.5 Q102.8281,291.5 102.2344,291.7813 Q101.6563,292.0625 101.2031,292.6875 Q100.75,293.3125 100.75,294.1719 L100.75,295.0938 Q100.75,296.125 101.5938,296.8125 Q102.4375,297.5 103.9375,297.5 Q104.8281,297.5 105.4531,297.2969 Q105.8125,297.1875 106.2188,296.8281 Q106.4844,296.625 106.625,296.5625 Q106.7656,296.5 106.9375,296.5 Q107.2656,296.5 107.5,296.7656 Q107.75,297.0156 107.75,297.375 Q107.75,297.7188 107.4063,298.125 Q106.9063,298.7188 106.1094,299.0469 Q105.0625,299.5 103.7813,299.5 Q102.2813,299.5 101.0781,298.9063 Q100.1094,298.4375 99.4219,297.4219 Q98.75,296.4063 98.75,295.2031 L98.75,294.1094 Q98.75,292.8594 99.3438,291.7656 Q99.9531,290.6719 101,290.0938 Q102.0625,289.5 103.25,289.5 Q103.9688,289.5 104.5938,289.75 Q105.2188,290 105.75,290.5 Z " fill="#000000"/><text fill="#000000" font-family="sans-serif" font-size="12" lengthAdjust="spacing" textLength="73" x="124.25" y="298.9102">ProductOrder</text><line style="stroke:#A80036;stroke-width:1.5;" x1="8" x2="281" y1="310" y2="310"/><line style="stroke:#A80036;stroke-width:1.5;" x1="8" x2="281" y1="318" y2="318"/><ellipse cx="18" cy="329" fill="#84BE84" rx="3" ry="3" style="stroke:#038048;stroke-width:1.0;"/><text fill="#000000" font-family="sans-serif" font-size="11" lengthAdjust="spacing" textLength="249" x="27" y="333.4189">changeStatusOfOrderToBeingPreparedByAnAGV()</text><ellipse cx="18" cy="342.8359" fill="#84BE84" rx="3" ry="3" style="stroke:#038048;stroke-width:1.0;"/><text fill="#000000" font-family="sans-serif" font-size="11" lengthAdjust="spacing" textLength="106" x="27" y="347.2549">getOrderById(orderId)</text><ellipse cx="18" cy="356.6719" fill="#84BE84" rx="3" ry="3" style="stroke:#038048;stroke-width:1.0;"/><text fill="#000000" font-family="sans-serif" font-size="11" lengthAdjust="spacing" textLength="199" x="27" y="361.0908">changeStatusToDispatchedToCustomer()</text><!--MD5=[e8c189551b7885b999ad7cefb30fc2a3]
class PersistenceContext--><rect codeLine="61" fill="#FEFECE" filter="url(#fv1o6ttpfsrzi)" height="61.8359" id="PersistenceContext" style="stroke:#A80036;stroke-width:1.5;" width="139" x="317" y="292"/><ellipse cx="332" cy="308" fill="#ADD1B2" rx="11" ry="11" style="stroke:#A80036;stroke-width:1.0;"/><path d="M334,304.5 Q334.2031,304 334.4375,303.75 Q334.6719,303.5 334.9375,303.5 Q335.4063,303.5 335.7031,303.7813 Q336,304.0625 336,304.7188 L336,306.2813 Q336,306.9375 335.7188,307.2188 Q335.4375,307.5 335,307.5 Q334.6094,307.5 334.3594,307.3281 Q334.1094,307.1563 334,306.7031 Q333.9531,306.3906 333.7813,306.2188 Q333.4688,305.8906 332.9063,305.7031 Q332.3438,305.5 331.7813,305.5 Q331.0781,305.5 330.4844,305.7813 Q329.9063,306.0625 329.4531,306.6875 Q329,307.3125 329,308.1719 L329,309.0938 Q329,310.125 329.8438,310.8125 Q330.6875,311.5 332.1875,311.5 Q333.0781,311.5 333.7031,311.2969 Q334.0625,311.1875 334.4688,310.8281 Q334.7344,310.625 334.875,310.5625 Q335.0156,310.5 335.1875,310.5 Q335.5156,310.5 335.75,310.7656 Q336,311.0156 336,311.375 Q336,311.7188 335.6563,312.125 Q335.1563,312.7188 334.3594,313.0469 Q333.3125,313.5 332.0313,313.5 Q330.5313,313.5 329.3281,312.9063 Q328.3594,312.4375 327.6719,311.4219 Q327,310.4063 327,309.2031 L327,308.1094 Q327,306.8594 327.5938,305.7656 Q328.2031,304.6719 329.25,304.0938 Q330.3125,303.5 331.5,303.5 Q332.2188,303.5 332.8438,303.75 Q333.4688,304 334,304.5 Z " fill="#000000"/><text fill="#000000" font-family="sans-serif" font-size="12" lengthAdjust="spacing" textLength="107" x="346" y="312.9102">PersistenceContext</text><line style="stroke:#A80036;stroke-width:1.5;" x1="318" x2="455" y1="324" y2="324"/><line style="stroke:#A80036;stroke-width:1.5;" x1="318" x2="455" y1="332" y2="332"/><ellipse cx="328" cy="343" fill="#84BE84" rx="3" ry="3" style="stroke:#038048;stroke-width:1.0;"/><text fill="#000000" font-family="sans-serif" font-size="11" lengthAdjust="spacing" textLength="65" x="337" y="347.4189">repositories()</text><!--MD5=[48590afff58a68e2fcba47824d6f8a11]
class RepositoryFactory--><rect codeLine="65" fill="#FEFECE" filter="url(#fv1o6ttpfsrzi)" height="75.6719" id="RepositoryFactory" style="stroke:#A80036;stroke-width:1.5;" width="130" x="321.5" y="435"/><ellipse cx="336.5" cy="451" fill="#ADD1B2" rx="11" ry="11" style="stroke:#A80036;stroke-width:1.0;"/><path d="M338.5,447.5 Q338.7031,447 338.9375,446.75 Q339.1719,446.5 339.4375,446.5 Q339.9063,446.5 340.2031,446.7813 Q340.5,447.0625 340.5,447.7188 L340.5,449.2813 Q340.5,449.9375 340.2188,450.2188 Q339.9375,450.5 339.5,450.5 Q339.1094,450.5 338.8594,450.3281 Q338.6094,450.1563 338.5,449.7031 Q338.4531,449.3906 338.2813,449.2188 Q337.9688,448.8906 337.4063,448.7031 Q336.8438,448.5 336.2813,448.5 Q335.5781,448.5 334.9844,448.7813 Q334.4063,449.0625 333.9531,449.6875 Q333.5,450.3125 333.5,451.1719 L333.5,452.0938 Q333.5,453.125 334.3438,453.8125 Q335.1875,454.5 336.6875,454.5 Q337.5781,454.5 338.2031,454.2969 Q338.5625,454.1875 338.9688,453.8281 Q339.2344,453.625 339.375,453.5625 Q339.5156,453.5 339.6875,453.5 Q340.0156,453.5 340.25,453.7656 Q340.5,454.0156 340.5,454.375 Q340.5,454.7188 340.1563,455.125 Q339.6563,455.7188 338.8594,456.0469 Q337.8125,456.5 336.5313,456.5 Q335.0313,456.5 333.8281,455.9063 Q332.8594,455.4375 332.1719,454.4219 Q331.5,453.4063 331.5,452.2031 L331.5,451.1094 Q331.5,449.8594 332.0938,448.7656 Q332.7031,447.6719 333.75,447.0938 Q334.8125,446.5 336,446.5 Q336.7188,446.5 337.3438,446.75 Q337.9688,447 338.5,447.5 Z " fill="#000000"/><text fill="#000000" font-family="sans-serif" font-size="12" lengthAdjust="spacing" textLength="98" x="350.5" y="455.9102">RepositoryFactory</text><line style="stroke:#A80036;stroke-width:1.5;" x1="322.5" x2="450.5" y1="467" y2="467"/><line style="stroke:#A80036;stroke-width:1.5;" x1="322.5" x2="450.5" y1="475" y2="475"/><ellipse cx="332.5" cy="486" fill="#84BE84" rx="3" ry="3" style="stroke:#038048;stroke-width:1.0;"/><text fill="#000000" font-family="sans-serif" font-size="11" lengthAdjust="spacing" textLength="103" x="341.5" y="490.4189">getOrderRepository()</text><ellipse cx="332.5" cy="499.8359" fill="#84BE84" rx="3" ry="3" style="stroke:#038048;stroke-width:1.0;"/><text fill="#000000" font-family="sans-serif" font-size="11" lengthAdjust="spacing" textLength="99" x="341.5" y="504.2549">getAGVRepository()</text><!--MD5=[a2934c79e3adc781b0cd87c74812aba5]
class AGVRepository--><rect codeLine="50" fill="#FEFECE" filter="url(#fv1o6ttpfsrzi)" height="89.5078" id="AGVRepository" style="stroke:#A80036;stroke-width:1.5;" width="121" x="487" y="428"/><ellipse cx="505.15" cy="444" fill="#ADD1B2" rx="11" ry="11" style="stroke:#A80036;stroke-width:1.0;"/><path d="M507.15,440.5 Q507.3531,440 507.5875,439.75 Q507.8219,439.5 508.0875,439.5 Q508.5563,439.5 508.8531,439.7813 Q509.15,440.0625 509.15,440.7188 L509.15,442.2813 Q509.15,442.9375 508.8688,443.2188 Q508.5875,443.5 508.15,443.5 Q507.7594,443.5 507.5094,443.3281 Q507.2594,443.1563 507.15,442.7031 Q507.1031,442.3906 506.9313,442.2188 Q506.6188,441.8906 506.0563,441.7031 Q505.4938,441.5 504.9313,441.5 Q504.2281,441.5 503.6344,441.7813 Q503.0563,442.0625 502.6031,442.6875 Q502.15,443.3125 502.15,444.1719 L502.15,445.0938 Q502.15,446.125 502.9938,446.8125 Q503.8375,447.5 505.3375,447.5 Q506.2281,447.5 506.8531,447.2969 Q507.2125,447.1875 507.6188,446.8281 Q507.8844,446.625 508.025,446.5625 Q508.1656,446.5 508.3375,446.5 Q508.6656,446.5 508.9,446.7656 Q509.15,447.0156 509.15,447.375 Q509.15,447.7188 508.8063,448.125 Q508.3063,448.7188 507.5094,449.0469 Q506.4625,449.5 505.1813,449.5 Q503.6813,449.5 502.4781,448.9063 Q501.5094,448.4375 500.8219,447.4219 Q500.15,446.4063 500.15,445.2031 L500.15,444.1094 Q500.15,442.8594 500.7438,441.7656 Q501.3531,440.6719 502.4,440.0938 Q503.4625,439.5 504.65,439.5 Q505.3688,439.5 505.9938,439.75 Q506.6188,440 507.15,440.5 Z " fill="#000000"/><text fill="#000000" font-family="sans-serif" font-size="12" lengthAdjust="spacing" textLength="82" x="519.85" y="448.9102">AGVRepository</text><line style="stroke:#A80036;stroke-width:1.5;" x1="488" x2="607" y1="460" y2="460"/><ellipse cx="498" cy="471" fill="none" rx="3" ry="3" style="stroke:#038048;stroke-width:1.0;"/><text fill="#000000" font-family="sans-serif" font-size="11" lengthAdjust="spacing" textLength="60" x="507" y="475.4189">getAGVById</text><line style="stroke:#A80036;stroke-width:1.5;" x1="488" x2="607" y1="481.8359" y2="481.8359"/><ellipse cx="498" cy="492.8359" fill="#84BE84" rx="3" ry="3" style="stroke:#038048;stroke-width:1.0;"/><text fill="#000000" font-family="sans-serif" font-size="11" lengthAdjust="spacing" textLength="95" x="507" y="497.2549">getAGVsAvaiable()</text><ellipse cx="498" cy="506.6719" fill="#84BE84" rx="3" ry="3" style="stroke:#038048;stroke-width:1.0;"/><text fill="#000000" font-family="sans-serif" font-size="11" lengthAdjust="spacing" textLength="50" x="507" y="511.0908">save(agv)</text><!--MD5=[bd7ae71472438d91a1e396970731067c]
class ProductOrderRepository--><rect codeLine="57" fill="#FEFECE" filter="url(#fv1o6ttpfsrzi)" height="61.8359" id="ProductOrderRepository" style="stroke:#A80036;stroke-width:1.5;" width="164" x="304.5" y="578"/><ellipse cx="319.5" cy="594" fill="#ADD1B2" rx="11" ry="11" style="stroke:#A80036;stroke-width:1.0;"/><path d="M321.5,590.5 Q321.7031,590 321.9375,589.75 Q322.1719,589.5 322.4375,589.5 Q322.9063,589.5 323.2031,589.7813 Q323.5,590.0625 323.5,590.7188 L323.5,592.2813 Q323.5,592.9375 323.2188,593.2188 Q322.9375,593.5 322.5,593.5 Q322.1094,593.5 321.8594,593.3281 Q321.6094,593.1563 321.5,592.7031 Q321.4531,592.3906 321.2813,592.2188 Q320.9688,591.8906 320.4063,591.7031 Q319.8438,591.5 319.2813,591.5 Q318.5781,591.5 317.9844,591.7813 Q317.4063,592.0625 316.9531,592.6875 Q316.5,593.3125 316.5,594.1719 L316.5,595.0938 Q316.5,596.125 317.3438,596.8125 Q318.1875,597.5 319.6875,597.5 Q320.5781,597.5 321.2031,597.2969 Q321.5625,597.1875 321.9688,596.8281 Q322.2344,596.625 322.375,596.5625 Q322.5156,596.5 322.6875,596.5 Q323.0156,596.5 323.25,596.7656 Q323.5,597.0156 323.5,597.375 Q323.5,597.7188 323.1563,598.125 Q322.6563,598.7188 321.8594,599.0469 Q320.8125,599.5 319.5313,599.5 Q318.0313,599.5 316.8281,598.9063 Q315.8594,598.4375 315.1719,597.4219 Q314.5,596.4063 314.5,595.2031 L314.5,594.1094 Q314.5,592.8594 315.0938,591.7656 Q315.7031,590.6719 316.75,590.0938 Q317.8125,589.5 319,589.5 Q319.7188,589.5 320.3438,589.75 Q320.9688,590 321.5,590.5 Z " fill="#000000"/><text fill="#000000" font-family="sans-serif" font-size="12" lengthAdjust="spacing" textLength="132" x="333.5" y="598.9102">ProductOrderRepository</text><line style="stroke:#A80036;stroke-width:1.5;" x1="305.5" x2="467.5" y1="610" y2="610"/><line style="stroke:#A80036;stroke-width:1.5;" x1="305.5" x2="467.5" y1="618" y2="618"/><ellipse cx="315.5" cy="629" fill="#84BE84" rx="3" ry="3" style="stroke:#038048;stroke-width:1.0;"/><text fill="#000000" font-family="sans-serif" font-size="11" lengthAdjust="spacing" textLength="97" x="324.5" y="633.4189">save(productOrder)</text><!--MD5=[d4fc3196c96370c8425865003eea3718]
class AgvDto--><rect codeLine="20" fill="#FEFECE" filter="url(#fv1o6ttpfsrzi)" height="61.8359" id="AgvDto" style="stroke:#A80036;stroke-width:1.5;" width="70" x="491.5" y="292"/><ellipse cx="506.5" cy="308" fill="#ADD1B2" rx="11" ry="11" style="stroke:#A80036;stroke-width:1.0;"/><path d="M508.5,304.5 Q508.7031,304 508.9375,303.75 Q509.1719,303.5 509.4375,303.5 Q509.9063,303.5 510.2031,303.7813 Q510.5,304.0625 510.5,304.7188 L510.5,306.2813 Q510.5,306.9375 510.2188,307.2188 Q509.9375,307.5 509.5,307.5 Q509.1094,307.5 508.8594,307.3281 Q508.6094,307.1563 508.5,306.7031 Q508.4531,306.3906 508.2813,306.2188 Q507.9688,305.8906 507.4063,305.7031 Q506.8438,305.5 506.2813,305.5 Q505.5781,305.5 504.9844,305.7813 Q504.4063,306.0625 503.9531,306.6875 Q503.5,307.3125 503.5,308.1719 L503.5,309.0938 Q503.5,310.125 504.3438,310.8125 Q505.1875,311.5 506.6875,311.5 Q507.5781,311.5 508.2031,311.2969 Q508.5625,311.1875 508.9688,310.8281 Q509.2344,310.625 509.375,310.5625 Q509.5156,310.5 509.6875,310.5 Q510.0156,310.5 510.25,310.7656 Q510.5,311.0156 510.5,311.375 Q510.5,311.7188 510.1563,312.125 Q509.6563,312.7188 508.8594,313.0469 Q507.8125,313.5 506.5313,313.5 Q505.0313,313.5 503.8281,312.9063 Q502.8594,312.4375 502.1719,311.4219 Q501.5,310.4063 501.5,309.2031 L501.5,308.1094 Q501.5,306.8594 502.0938,305.7656 Q502.7031,304.6719 503.75,304.0938 Q504.8125,303.5 506,303.5 Q506.7188,303.5 507.3438,303.75 Q507.9688,304 508.5,304.5 Z " fill="#000000"/><text fill="#000000" font-family="sans-serif" font-size="12" lengthAdjust="spacing" textLength="38" x="520.5" y="312.9102">AgvDto</text><line style="stroke:#A80036;stroke-width:1.5;" x1="492.5" x2="560.5" y1="324" y2="324"/><line style="stroke:#A80036;stroke-width:1.5;" x1="492.5" x2="560.5" y1="332" y2="332"/><ellipse cx="502.5" cy="343" fill="#84BE84" rx="3" ry="3" style="stroke:#038048;stroke-width:1.0;"/><text fill="#000000" font-family="sans-serif" font-size="11" lengthAdjust="spacing" textLength="33" x="511.5" y="347.4189">toDto()</text><!--MD5=[d30f56537e47c2baf5e1b8cae118de4e]
class ProductOrderDto--><rect codeLine="16" fill="#FEFECE" filter="url(#fv1o6ttpfsrzi)" height="61.8359" id="ProductOrderDto" style="stroke:#A80036;stroke-width:1.5;" width="124" x="596.5" y="292"/><ellipse cx="611.5" cy="308" fill="#ADD1B2" rx="11" ry="11" style="stroke:#A80036;stroke-width:1.0;"/><path d="M613.5,304.5 Q613.7031,304 613.9375,303.75 Q614.1719,303.5 614.4375,303.5 Q614.9063,303.5 615.2031,303.7813 Q615.5,304.0625 615.5,304.7188 L615.5,306.2813 Q615.5,306.9375 615.2188,307.2188 Q614.9375,307.5 614.5,307.5 Q614.1094,307.5 613.8594,307.3281 Q613.6094,307.1563 613.5,306.7031 Q613.4531,306.3906 613.2813,306.2188 Q612.9688,305.8906 612.4063,305.7031 Q611.8438,305.5 611.2813,305.5 Q610.5781,305.5 609.9844,305.7813 Q609.4063,306.0625 608.9531,306.6875 Q608.5,307.3125 608.5,308.1719 L608.5,309.0938 Q608.5,310.125 609.3438,310.8125 Q610.1875,311.5 611.6875,311.5 Q612.5781,311.5 613.2031,311.2969 Q613.5625,311.1875 613.9688,310.8281 Q614.2344,310.625 614.375,310.5625 Q614.5156,310.5 614.6875,310.5 Q615.0156,310.5 615.25,310.7656 Q615.5,311.0156 615.5,311.375 Q615.5,311.7188 615.1563,312.125 Q614.6563,312.7188 613.8594,313.0469 Q612.8125,313.5 611.5313,313.5 Q610.0313,313.5 608.8281,312.9063 Q607.8594,312.4375 607.1719,311.4219 Q606.5,310.4063 606.5,309.2031 L606.5,308.1094 Q606.5,306.8594 607.0938,305.7656 Q607.7031,304.6719 608.75,304.0938 Q609.8125,303.5 611,303.5 Q611.7188,303.5 612.3438,303.75 Q612.9688,304 613.5,304.5 Z " fill="#000000"/><text fill="#000000" font-family="sans-serif" font-size="12" lengthAdjust="spacing" textLength="92" x="625.5" y="312.9102">ProductOrderDto</text><line style="stroke:#A80036;stroke-width:1.5;" x1="597.5" x2="719.5" y1="324" y2="324"/><line style="stroke:#A80036;stroke-width:1.5;" x1="597.5" x2="719.5" y1="332" y2="332"/><ellipse cx="607.5" cy="343" fill="#84BE84" rx="3" ry="3" style="stroke:#038048;stroke-width:1.0;"/><text fill="#000000" font-family="sans-serif" font-size="11" lengthAdjust="spacing" textLength="33" x="616.5" y="347.4189">toDto()</text><!--MD5=[674ae41ea5e223f4bfe426cc9816afb6]
link ListOrdersBeingPreparedUI to ListOrdersBeingPreparedController--><path codeLine="72" d="M508.5,55.25 C508.5,70.28 508.5,90.51 508.5,109.53 " fill="none" id="ListOrdersBeingPreparedUI-to-ListOrdersBeingPreparedController" style="stroke:#A80036;stroke-width:1.0;stroke-dasharray:7.0,7.0;"/><polygon fill="#A80036" points="508.5,114.86,512.5,105.86,508.5,109.86,504.5,105.86,508.5,114.86" style="stroke:#A80036;stroke-width:1.0;"/><!--MD5=[c265b31b160240f646ec8e99db6fc1f0]
link ListOrdersBeingPreparedController to PersistenceContext--><path codeLine="73" d="M468.55,218.09 C450.57,240.86 429.81,267.15 413.67,287.6 " fill="none" id="ListOrdersBeingPreparedController-to-PersistenceContext" style="stroke:#A80036;stroke-width:1.0;stroke-dasharray:7.0,7.0;"/><polygon fill="#A80036" points="410.5,291.6,419.2152,287.0126,413.5973,287.6749,412.935,282.0569,410.5,291.6" style="stroke:#A80036;stroke-width:1.0;"/><!--MD5=[754b775031405e096442b27febffa290]
link PersistenceContext to RepositoryFactory--><path codeLine="74" d="M386.5,354.31 C386.5,376.1 386.5,405.76 386.5,429.86 " fill="none" id="PersistenceContext-to-RepositoryFactory" style="stroke:#A80036;stroke-width:1.0;stroke-dasharray:7.0,7.0;"/><polygon fill="#A80036" points="386.5,434.91,390.5,425.91,386.5,429.91,382.5,425.91,386.5,434.91" style="stroke:#A80036;stroke-width:1.0;"/><!--MD5=[d05eaea78b8765320ad56e3795dd7d42]
link RepositoryFactory to AGVRepository--><path codeLine="75" d="M451.59,473 C461.59,473 471.58,473 481.58,473 " fill="none" id="RepositoryFactory-to-AGVRepository" style="stroke:#A80036;stroke-width:1.0;"/><polygon fill="#A80036" points="486.81,473,477.81,469,481.81,473,477.81,477,486.81,473" style="stroke:#A80036;stroke-width:1.0;"/><!--MD5=[96e9cbc266da12541d92a41249a1d1e8]
link RepositoryFactory to ProductOrderRepository--><path codeLine="76" d="M386.5,511.33 C386.5,530.44 386.5,553.59 386.5,572.44 " fill="none" id="RepositoryFactory-to-ProductOrderRepository" style="stroke:#A80036;stroke-width:1.0;"/><polygon fill="#A80036" points="386.5,577.64,390.5,568.64,386.5,572.64,382.5,568.64,386.5,577.64" style="stroke:#A80036;stroke-width:1.0;"/><!--MD5=[6c5694dc087c67e128b56eacd1b2a2ee]
link ListOrdersBeingPreparedController to AGV--><path codeLine="77" d="M707.77,166.5 C717.57,166.5 727.38,166.5 737.19,166.5 " fill="none" id="ListOrdersBeingPreparedController-to-AGV" style="stroke:#A80036;stroke-width:1.0;"/><polygon fill="#A80036" points="742.32,166.5,733.32,162.5,737.32,166.5,733.32,170.5,742.32,166.5" style="stroke:#A80036;stroke-width:1.0;"/><!--MD5=[d55b04aafae4ecb0dcc1251e2492309a]
link ListOrdersBeingPreparedController to ProductOrder--><path codeLine="78" d="M389.31,218.09 C345.4,236.73 295.93,257.73 253.01,275.94 " fill="none" id="ListOrdersBeingPreparedController-to-ProductOrder" style="stroke:#A80036;stroke-width:1.0;"/><polygon fill="#A80036" points="248.35,277.92,258.1972,278.1031,252.956,275.9746,255.0845,270.7335,248.35,277.92" style="stroke:#A80036;stroke-width:1.0;"/><!--MD5=[6df205c85b5f33c8d427fd455753ef9d]
link AGV to AGVTask--><path codeLine="79" d="M879.5,211.77 C879.5,235.55 879.5,264.45 879.5,286.7 " fill="none" id="AGV-to-AGVTask" style="stroke:#A80036;stroke-width:1.0;"/><polygon fill="#A80036" points="879.5,291.91,883.5,282.91,879.5,286.91,875.5,282.91,879.5,291.91" style="stroke:#A80036;stroke-width:1.0;"/><!--MD5=[a22ea51c346a22d4016c699f0e580df8]
link ListOrdersBeingPreparedController to AgvDto--><path codeLine="81" d="M514.39,218.09 C517,240.48 520.01,266.28 522.37,286.57 " fill="none" id="ListOrdersBeingPreparedController-to-AgvDto" style="stroke:#A80036;stroke-width:1.0;"/><polygon fill="#A80036" points="522.96,291.6,525.8795,282.1938,522.375,286.6343,517.9344,283.1298,522.96,291.6" style="stroke:#A80036;stroke-width:1.0;"/><!--MD5=[41cba0529d6e55dff4b13d3f32a4f222]
link ListOrdersBeingPreparedController to ProductOrderDto--><path codeLine="82" d="M557.62,218.09 C579.82,240.96 605.46,267.37 625.35,287.85 " fill="none" id="ListOrdersBeingPreparedController-to-ProductOrderDto" style="stroke:#A80036;stroke-width:1.0;"/><polygon fill="#A80036" points="628.99,291.6,625.6038,282.3516,625.5122,288.0077,619.8561,287.9161,628.99,291.6" style="stroke:#A80036;stroke-width:1.0;"/><!--MD5=[0798eb414c9a3ed9ef100eaef80c0978]
@startuml
'https://plantuml.com/sequence-diagram

class ListOrdersBeingPreparedUI
class ListOrdersBeingPreparedController
class AGV
class AGVTask
class ProductOrder
class PersistenceContext
class RepositoryFactory
class AGVRepository
class ProductOrderRepository
class AgvDto
class ProductOrderDto


class ProductOrderDto {
    + toDto()
}

class AgvDto {
    + toDto()

}

class ProductOrder {

    + changeStatusOfOrderToBeingPreparedByAnAGV()
    + getOrderById(orderId)
    + changeStatusToDispatchedToCustomer()

}

class AGV {
    + changeStatusOfAGVForOccupied()
    + addOrdersToATask(taskDescription, productOrder)
    + changeStatusOfAGVForFree()
}
class ListOrdersBeingPreparedController {
    + getAGVsAvaiable()
    + getOrdersWhoNeedToBePreparedByAGV(idAGV)
    + changeStatusOfOrdersSelectToBeingPreparedByAGV(listOfOrdersSelected)
    + changeTheStatusOfOrdersForDispatchedToCustomer(listOfOrdersSelected)

}

class AGVTask {
    + assignATaskForAGV(taskDescription)
}

class AGVRepository {
    + getAGVsAvaiable()
    + getAGVById
    + save(agv)
}


class ProductOrderRepository {
    + save(productOrder)
}

class PersistenceContext {
    + repositories()
}

class RepositoryFactory{

    + getOrderRepository()
    + getAGVRepository()
}


ListOrdersBeingPreparedUI ..> ListOrdersBeingPreparedController
ListOrdersBeingPreparedController ..> PersistenceContext
PersistenceContext ..> RepositoryFactory
RepositoryFactory -> AGVRepository
RepositoryFactory - -> ProductOrderRepository
ListOrdersBeingPreparedController -> AGV
ListOrdersBeingPreparedController - -> ProductOrder
AGV - -> AGVTask

ListOrdersBeingPreparedController - -> AgvDto
ListOrdersBeingPreparedController - -> ProductOrderDto

@enduml

@startuml

class ListOrdersBeingPreparedUI
class ListOrdersBeingPreparedController
class AGV
class AGVTask
class ProductOrder
class PersistenceContext
class RepositoryFactory
class AGVRepository
class ProductOrderRepository
class AgvDto
class ProductOrderDto


class ProductOrderDto {
    + toDto()
}

class AgvDto {
    + toDto()

}

class ProductOrder {

    + changeStatusOfOrderToBeingPreparedByAnAGV()
    + getOrderById(orderId)
    + changeStatusToDispatchedToCustomer()

}

class AGV {
    + changeStatusOfAGVForOccupied()
    + addOrdersToATask(taskDescription, productOrder)
    + changeStatusOfAGVForFree()
}
class ListOrdersBeingPreparedController {
    + getAGVsAvaiable()
    + getOrdersWhoNeedToBePreparedByAGV(idAGV)
    + changeStatusOfOrdersSelectToBeingPreparedByAGV(listOfOrdersSelected)
    + changeTheStatusOfOrdersForDispatchedToCustomer(listOfOrdersSelected)

}

class AGVTask {
    + assignATaskForAGV(taskDescription)
}

class AGVRepository {
    + getAGVsAvaiable()
    + getAGVById
    + save(agv)
}


class ProductOrderRepository {
    + save(productOrder)
}

class PersistenceContext {
    + repositories()
}

class RepositoryFactory{

    + getOrderRepository()
    + getAGVRepository()
}


ListOrdersBeingPreparedUI ..> ListOrdersBeingPreparedController
ListOrdersBeingPreparedController ..> PersistenceContext
PersistenceContext ..> RepositoryFactory
RepositoryFactory -> AGVRepository
RepositoryFactory - -> ProductOrderRepository
ListOrdersBeingPreparedController -> AGV
ListOrdersBeingPreparedController - -> ProductOrder
AGV - -> AGVTask

ListOrdersBeingPreparedController - -> AgvDto
ListOrdersBeingPreparedController - -> ProductOrderDto

@enduml

PlantUML version 1.2022.1(Tue Feb 01 18:19:58 GMT 2022)
(GPL source distribution)
Java Runtime: OpenJDK Runtime Environment
JVM: OpenJDK 64-Bit Server VM
Default Encoding: Cp1252
Language: pt
Country: BR
--></g></svg>