<?xml version="1.0" encoding="UTF-8" standalone="no"?><svg xmlns="http://www.w3.org/2000/svg" xmlns:xlink="http://www.w3.org/1999/xlink" contentScriptType="application/ecmascript" contentStyleType="text/css" height="917px" preserveAspectRatio="none" style="width:1013px;height:917px;background:#FFFFFF;" version="1.1" viewBox="0 0 1013 917" width="1013px" zoomAndPan="magnify"><defs><filter height="300%" id="f1033ja0ucek1x" width="300%" x="-1" y="-1"><feGaussianBlur result="blurOut" stdDeviation="2.0"/><feColorMatrix in="blurOut" result="blurOut2" type="matrix" values="0 0 0 0 0 0 0 0 0 0 0 0 0 0 0 0 0 0 .4 0"/><feOffset dx="4.0" dy="4.0" in="blurOut2" result="blurOut3"/><feBlend in="SourceGraphic" in2="blurOut3" mode="normal"/></filter></defs><g><!--MD5=[22b4f80a245276e25c9cb3ee67d19758]
cluster <<aggregate>> AGV--><polygon fill="#FFFFFF" filter="url(#f1033ja0ucek1x)" points="16,6,159,6,166,29.6094,419,29.6094,419,910,16,910,16,6" style="stroke:#000000;stroke-width:1.5;"/><line style="stroke:#000000;stroke-width:1.5;" x1="16" x2="166" y1="29.6094" y2="29.6094"/><text fill="#000000" font-family="sans-serif" font-size="14" font-weight="bold" lengthAdjust="spacing" textLength="137" x="20" y="22.5332">&lt;&lt;aggregate&gt;&gt; AGV</text><!--MD5=[ce5e91745b5c4e46f992402a2ac24ff2]
cluster <<aggregate>> ProductOrder--><polygon fill="#FFFFFF" filter="url(#f1033ja0ucek1x)" points="531,256,741,256,748,279.6094,996,279.6094,996,868,531,868,531,256" style="stroke:#000000;stroke-width:1.5;"/><line style="stroke:#000000;stroke-width:1.5;" x1="531" x2="748" y1="279.6094" y2="279.6094"/><text fill="#000000" font-family="sans-serif" font-size="14" font-weight="bold" lengthAdjust="spacing" textLength="204" x="535" y="272.5332">&lt;&lt;aggregate&gt;&gt; ProductOrder</text><!--MD5=[53b2c06ade5903185ca3326dce80e141]
class AGV--><rect codeLine="28" fill="#F5F5DC" filter="url(#f1033ja0ucek1x)" height="77.1172" id="AGV" style="stroke:#A80036;stroke-width:1.5;" width="71" x="32" y="422.5"/><ellipse cx="47" cy="450.1406" fill="#ADD1B2" rx="11" ry="11" style="stroke:#A80036;stroke-width:1.0;"/><path d="M45.5,451.1406 L45.5,453.1406 L49.5,453.1406 L49.5,452.1406 L49.5,451.6563 L50.125,451.1406 L50.5,451.1406 L50.875,451.1406 L51.5,451.6563 L51.5,452.1406 L51.5,455.1406 L43.5,455.1406 L43.0156,455.1406 L42.5,454.5156 L42.5,454.1406 L42.5,453.7656 L43.0156,453.1406 L43.5,453.1406 L43.5,453.1406 L43.5,447.1406 L43.5,447.1406 L43.0156,447.1406 L42.5,446.5156 L42.5,446.1406 L42.5,445.7656 L43.0156,445.1406 L43.5,445.1406 L51.5,445.1406 L51.5,448.1406 L51.5,448.625 L50.875,449.1406 L50.5,449.1406 L50.125,449.1406 L49.5,448.625 L49.5,448.1406 L49.5,447.1406 L45.5,447.1406 L45.5,449.1406 L46.5,449.1406 L46.5,448.6563 L46.5,448.6563 L47.125,448.1406 L47.5,448.1406 L47.875,448.1406 L48.5,448.6563 L48.5,449.1406 L48.5,451.1406 L48.5,451.625 L47.875,452.1406 L47.875,452.1406 L47.5,452.1406 L47.125,452.1406 L46.5,451.625 L46.5,451.625 L46.5,451.1406 L45.5,451.1406 Z " fill="#000000"/><text fill="#000000" font-family="sans-serif" font-size="12" font-style="italic" lengthAdjust="spacing" textLength="43" x="59" y="439.957">«entity»</text><text fill="#000000" font-family="sans-serif" font-size="12" font-style="italic" lengthAdjust="spacing" textLength="35" x="63" y="455.0508">«root»</text><text fill="#000000" font-family="sans-serif" font-size="12" lengthAdjust="spacing" textLength="23" x="69" y="470.1445">AGV</text><line style="stroke:#A80036;stroke-width:1.5;" x1="33" x2="102" y1="477.7813" y2="477.7813"/><text fill="#000000" font-family="sans-serif" font-size="11" lengthAdjust="spacing" textLength="28" x="38" y="493.2002">-state</text><!--MD5=[16e34fb2e0281018267f0ef5d0b296ef]
class BriefDescription--><rect codeLine="30" fill="#F5F5DC" filter="url(#f1033ja0ucek1x)" height="62.0234" id="BriefDescription" style="stroke:#A80036;stroke-width:1.5;" width="120" x="272" y="832"/><ellipse cx="287" cy="852.0938" fill="#FF8B40" rx="11" ry="11" style="stroke:#A80036;stroke-width:1.0;"/><path d="M287,855.375 L288.5313,849.8438 L288.5313,849.8438 L288.0156,849.8438 L287.5,849.2188 L287.5,848.8438 L287.5,848.4688 L288.0156,847.8438 L288.5313,847.8438 L290.4063,847.8438 L290.9844,847.8438 L291.5,848.4688 L291.5,848.8438 L291.5,849.2188 L290.9844,849.8438 L290.9844,849.8438 L290.5313,849.8438 L288.1875,857.8438 L285.8125,857.8438 L283.3438,849.8438 L283.0156,849.8438 L283.0156,849.8438 L282.5,849.2188 L282.5,848.8438 L282.5,848.4688 L283.0156,847.8438 L283.5938,847.8438 L285.4688,847.8438 L285.9844,847.8438 L286.5,848.4688 L286.5,848.8438 L286.5,849.2188 L285.9844,849.8438 L285.4688,849.8438 L285.4688,849.8438 L287,855.375 Z " fill="#000000"/><text fill="#000000" font-family="sans-serif" font-size="12" font-style="italic" lengthAdjust="spacing" textLength="81" x="304.5" y="849.457">«value object»</text><text fill="#000000" font-family="sans-serif" font-size="12" lengthAdjust="spacing" textLength="88" x="301" y="864.5508">BriefDescription</text><line style="stroke:#A80036;stroke-width:1.5;" x1="273" x2="391" y1="872.1875" y2="872.1875"/><text fill="#000000" font-family="sans-serif" font-size="11" lengthAdjust="spacing" textLength="80" x="278" y="887.6064">-briefDescription</text><!--MD5=[7e20e022571e30ec1001cf6eabd7f3e2]
class Model--><rect codeLine="34" fill="#F5F5DC" filter="url(#f1033ja0ucek1x)" height="62.0234" id="Model" style="stroke:#A80036;stroke-width:1.5;" width="109" x="277.5" y="735"/><ellipse cx="292.5" cy="755.0938" fill="#FF8B40" rx="11" ry="11" style="stroke:#A80036;stroke-width:1.0;"/><path d="M292.5,758.375 L294.0313,752.8438 L294.0313,752.8438 L293.5156,752.8438 L293,752.2188 L293,751.8438 L293,751.4688 L293.5156,750.8438 L294.0313,750.8438 L295.9063,750.8438 L296.4844,750.8438 L297,751.4688 L297,751.8438 L297,752.2188 L296.4844,752.8438 L296.4844,752.8438 L296.0313,752.8438 L293.6875,760.8438 L291.3125,760.8438 L288.8438,752.8438 L288.5156,752.8438 L288.5156,752.8438 L288,752.2188 L288,751.8438 L288,751.4688 L288.5156,750.8438 L289.0938,750.8438 L290.9688,750.8438 L291.4844,750.8438 L292,751.4688 L292,751.8438 L292,752.2188 L291.4844,752.8438 L290.9688,752.8438 L290.9688,752.8438 L292.5,758.375 Z " fill="#000000"/><text fill="#000000" font-family="sans-serif" font-size="12" font-style="italic" lengthAdjust="spacing" textLength="81" x="304.5" y="752.457">«value object»</text><text fill="#000000" font-family="sans-serif" font-size="12" lengthAdjust="spacing" textLength="33" x="328.5" y="767.5508">Model</text><line style="stroke:#A80036;stroke-width:1.5;" x1="278.5" x2="385.5" y1="775.1875" y2="775.1875"/><text fill="#000000" font-family="sans-serif" font-size="11" lengthAdjust="spacing" textLength="32" x="283.5" y="790.6064">-model</text><!--MD5=[e583cbaa21abc89bc679fcec0dd8046e]
class AGVStatus--><rect codeLine="42" fill="#F5F5DC" filter="url(#f1033ja0ucek1x)" height="62.0234" id="AGVStatus" style="stroke:#A80036;stroke-width:1.5;" width="109" x="277.5" y="638"/><ellipse cx="292.5" cy="658.0938" fill="#FF8B40" rx="11" ry="11" style="stroke:#A80036;stroke-width:1.0;"/><path d="M292.5,661.375 L294.0313,655.8438 L294.0313,655.8438 L293.5156,655.8438 L293,655.2188 L293,654.8438 L293,654.4688 L293.5156,653.8438 L294.0313,653.8438 L295.9063,653.8438 L296.4844,653.8438 L297,654.4688 L297,654.8438 L297,655.2188 L296.4844,655.8438 L296.4844,655.8438 L296.0313,655.8438 L293.6875,663.8438 L291.3125,663.8438 L288.8438,655.8438 L288.5156,655.8438 L288.5156,655.8438 L288,655.2188 L288,654.8438 L288,654.4688 L288.5156,653.8438 L289.0938,653.8438 L290.9688,653.8438 L291.4844,653.8438 L292,654.4688 L292,654.8438 L292,655.2188 L291.4844,655.8438 L290.9688,655.8438 L290.9688,655.8438 L292.5,661.375 Z " fill="#000000"/><text fill="#000000" font-family="sans-serif" font-size="12" font-style="italic" lengthAdjust="spacing" textLength="81" x="304.5" y="655.457">«value object»</text><text fill="#000000" font-family="sans-serif" font-size="12" lengthAdjust="spacing" textLength="58" x="316" y="670.5508">AGVStatus</text><line style="stroke:#A80036;stroke-width:1.5;" x1="278.5" x2="385.5" y1="678.1875" y2="678.1875"/><text fill="#000000" font-family="sans-serif" font-size="11" lengthAdjust="spacing" textLength="49" x="283.5" y="693.6064">-taskState</text><!--MD5=[529d3a023cdac506d4f0a83ea48e48d1]
class AGVTask--><rect codeLine="46" fill="#F5F5DC" filter="url(#f1033ja0ucek1x)" height="75.8594" id="AGVTask" style="stroke:#A80036;stroke-width:1.5;" width="111" x="276.5" y="527"/><ellipse cx="304.55" cy="547.0938" fill="#ADD1B2" rx="11" ry="11" style="stroke:#A80036;stroke-width:1.0;"/><path d="M303.05,548.0938 L303.05,550.0938 L307.05,550.0938 L307.05,549.0938 L307.05,548.6094 L307.675,548.0938 L308.05,548.0938 L308.425,548.0938 L309.05,548.6094 L309.05,549.0938 L309.05,552.0938 L301.05,552.0938 L300.5656,552.0938 L300.05,551.4688 L300.05,551.0938 L300.05,550.7188 L300.5656,550.0938 L301.05,550.0938 L301.05,550.0938 L301.05,544.0938 L301.05,544.0938 L300.5656,544.0938 L300.05,543.4688 L300.05,543.0938 L300.05,542.7188 L300.5656,542.0938 L301.05,542.0938 L309.05,542.0938 L309.05,545.0938 L309.05,545.5781 L308.425,546.0938 L308.05,546.0938 L307.675,546.0938 L307.05,545.5781 L307.05,545.0938 L307.05,544.0938 L303.05,544.0938 L303.05,546.0938 L304.05,546.0938 L304.05,545.6094 L304.05,545.6094 L304.675,545.0938 L305.05,545.0938 L305.425,545.0938 L306.05,545.6094 L306.05,546.0938 L306.05,548.0938 L306.05,548.5781 L305.425,549.0938 L305.425,549.0938 L305.05,549.0938 L304.675,549.0938 L304.05,548.5781 L304.05,548.5781 L304.05,548.0938 L303.05,548.0938 Z " fill="#000000"/><text fill="#000000" font-family="sans-serif" font-size="12" font-style="italic" lengthAdjust="spacing" textLength="43" x="324.95" y="544.457">«entity»</text><text fill="#000000" font-family="sans-serif" font-size="12" lengthAdjust="spacing" textLength="50" x="321.45" y="559.5508">AGVTask</text><line style="stroke:#A80036;stroke-width:1.5;" x1="277.5" x2="386.5" y1="567.1875" y2="567.1875"/><text fill="#000000" font-family="sans-serif" font-size="11" lengthAdjust="spacing" textLength="12" x="282.5" y="582.6064">-id</text><text fill="#000000" font-family="sans-serif" font-size="11" lengthAdjust="spacing" textLength="99" x="282.5" y="596.4424">-agvTaskDescription</text><!--MD5=[05194f585e571ad3b22e4df7dddd3081]
class MaxWeightCapacity--><rect codeLine="59" fill="#F5F5DC" filter="url(#f1033ja0ucek1x)" height="62.0234" id="MaxWeightCapacity" style="stroke:#A80036;stroke-width:1.5;" width="138" x="263" y="430"/><ellipse cx="278" cy="450.0938" fill="#FF8B40" rx="11" ry="11" style="stroke:#A80036;stroke-width:1.0;"/><path d="M278,453.375 L279.5313,447.8438 L279.5313,447.8438 L279.0156,447.8438 L278.5,447.2188 L278.5,446.8438 L278.5,446.4688 L279.0156,445.8438 L279.5313,445.8438 L281.4063,445.8438 L281.9844,445.8438 L282.5,446.4688 L282.5,446.8438 L282.5,447.2188 L281.9844,447.8438 L281.9844,447.8438 L281.5313,447.8438 L279.1875,455.8438 L276.8125,455.8438 L274.3438,447.8438 L274.0156,447.8438 L274.0156,447.8438 L273.5,447.2188 L273.5,446.8438 L273.5,446.4688 L274.0156,445.8438 L274.5938,445.8438 L276.4688,445.8438 L276.9844,445.8438 L277.5,446.4688 L277.5,446.8438 L277.5,447.2188 L276.9844,447.8438 L276.4688,447.8438 L276.4688,447.8438 L278,453.375 Z " fill="#000000"/><text fill="#000000" font-family="sans-serif" font-size="12" font-style="italic" lengthAdjust="spacing" textLength="81" x="304.5" y="447.457">«value object»</text><text fill="#000000" font-family="sans-serif" font-size="12" lengthAdjust="spacing" textLength="106" x="292" y="462.5508">MaxWeightCapacity</text><line style="stroke:#A80036;stroke-width:1.5;" x1="264" x2="400" y1="470.1875" y2="470.1875"/><text fill="#000000" font-family="sans-serif" font-size="11" lengthAdjust="spacing" textLength="99" x="269" y="485.6064">-maxWeightCapacity</text><!--MD5=[9508bff04b47071e43dc54dae6bb7ca3]
class MaxVolumeCapacity--><rect codeLine="63" fill="#F5F5DC" filter="url(#f1033ja0ucek1x)" height="62.0234" id="MaxVolumeCapacity" style="stroke:#A80036;stroke-width:1.5;" width="142" x="261" y="333"/><ellipse cx="276" cy="353.0938" fill="#FF8B40" rx="11" ry="11" style="stroke:#A80036;stroke-width:1.0;"/><path d="M276,356.375 L277.5313,350.8438 L277.5313,350.8438 L277.0156,350.8438 L276.5,350.2188 L276.5,349.8438 L276.5,349.4688 L277.0156,348.8438 L277.5313,348.8438 L279.4063,348.8438 L279.9844,348.8438 L280.5,349.4688 L280.5,349.8438 L280.5,350.2188 L279.9844,350.8438 L279.9844,350.8438 L279.5313,350.8438 L277.1875,358.8438 L274.8125,358.8438 L272.3438,350.8438 L272.0156,350.8438 L272.0156,350.8438 L271.5,350.2188 L271.5,349.8438 L271.5,349.4688 L272.0156,348.8438 L272.5938,348.8438 L274.4688,348.8438 L274.9844,348.8438 L275.5,349.4688 L275.5,349.8438 L275.5,350.2188 L274.9844,350.8438 L274.4688,350.8438 L274.4688,350.8438 L276,356.375 Z " fill="#000000"/><text fill="#000000" font-family="sans-serif" font-size="12" font-style="italic" lengthAdjust="spacing" textLength="81" x="304.5" y="350.457">«value object»</text><text fill="#000000" font-family="sans-serif" font-size="12" lengthAdjust="spacing" textLength="110" x="290" y="365.5508">MaxVolumeCapacity</text><line style="stroke:#A80036;stroke-width:1.5;" x1="262" x2="402" y1="373.1875" y2="373.1875"/><text fill="#000000" font-family="sans-serif" font-size="11" lengthAdjust="spacing" textLength="38" x="267" y="388.6064">-volume</text><!--MD5=[4d1e38779c686a11487444ed33c3c69e]
class AGVPosition--><rect codeLine="38" fill="#F5F5DC" filter="url(#f1033ja0ucek1x)" height="62.0234" id="AGVPosition" style="stroke:#A80036;stroke-width:1.5;" width="109" x="277.5" y="236"/><ellipse cx="292.5" cy="256.0938" fill="#FF8B40" rx="11" ry="11" style="stroke:#A80036;stroke-width:1.0;"/><path d="M292.5,259.375 L294.0313,253.8438 L294.0313,253.8438 L293.5156,253.8438 L293,253.2188 L293,252.8438 L293,252.4688 L293.5156,251.8438 L294.0313,251.8438 L295.9063,251.8438 L296.4844,251.8438 L297,252.4688 L297,252.8438 L297,253.2188 L296.4844,253.8438 L296.4844,253.8438 L296.0313,253.8438 L293.6875,261.8438 L291.3125,261.8438 L288.8438,253.8438 L288.5156,253.8438 L288.5156,253.8438 L288,253.2188 L288,252.8438 L288,252.4688 L288.5156,251.8438 L289.0938,251.8438 L290.9688,251.8438 L291.4844,251.8438 L292,252.4688 L292,252.8438 L292,253.2188 L291.4844,253.8438 L290.9688,253.8438 L290.9688,253.8438 L292.5,259.375 Z " fill="#000000"/><text fill="#000000" font-family="sans-serif" font-size="12" font-style="italic" lengthAdjust="spacing" textLength="81" x="304.5" y="253.457">«value object»</text><text fill="#000000" font-family="sans-serif" font-size="12" lengthAdjust="spacing" textLength="68" x="311" y="268.5508">AGVPosition</text><line style="stroke:#A80036;stroke-width:1.5;" x1="278.5" x2="385.5" y1="276.1875" y2="276.1875"/><text fill="#000000" font-family="sans-serif" font-size="11" lengthAdjust="spacing" textLength="59" x="283.5" y="291.6064">-agvPosition</text><!--MD5=[f6f08570da9efaa92dc067d88742b265]
class AGVId--><rect codeLine="51" fill="#F5F5DC" filter="url(#f1033ja0ucek1x)" height="62.0234" id="AGVId" style="stroke:#A80036;stroke-width:1.5;" width="109" x="277.5" y="139"/><ellipse cx="292.5" cy="159.0938" fill="#FF8B40" rx="11" ry="11" style="stroke:#A80036;stroke-width:1.0;"/><path d="M292.5,162.375 L294.0313,156.8438 L294.0313,156.8438 L293.5156,156.8438 L293,156.2188 L293,155.8438 L293,155.4688 L293.5156,154.8438 L294.0313,154.8438 L295.9063,154.8438 L296.4844,154.8438 L297,155.4688 L297,155.8438 L297,156.2188 L296.4844,156.8438 L296.4844,156.8438 L296.0313,156.8438 L293.6875,164.8438 L291.3125,164.8438 L288.8438,156.8438 L288.5156,156.8438 L288.5156,156.8438 L288,156.2188 L288,155.8438 L288,155.4688 L288.5156,154.8438 L289.0938,154.8438 L290.9688,154.8438 L291.4844,154.8438 L292,155.4688 L292,155.8438 L292,156.2188 L291.4844,156.8438 L290.9688,156.8438 L290.9688,156.8438 L292.5,162.375 Z " fill="#000000"/><text fill="#000000" font-family="sans-serif" font-size="12" font-style="italic" lengthAdjust="spacing" textLength="81" x="304.5" y="156.457">«value object»</text><text fill="#000000" font-family="sans-serif" font-size="12" lengthAdjust="spacing" textLength="33" x="328.5" y="171.5508">AGVId</text><line style="stroke:#A80036;stroke-width:1.5;" x1="278.5" x2="385.5" y1="179.1875" y2="179.1875"/><text fill="#000000" font-family="sans-serif" font-size="11" lengthAdjust="spacing" textLength="12" x="283.5" y="194.6064">-id</text><!--MD5=[2f49539d777d8d7526d361413cf07525]
class Range--><rect codeLine="55" fill="#F5F5DC" filter="url(#f1033ja0ucek1x)" height="62.0234" id="Range" style="stroke:#A80036;stroke-width:1.5;" width="109" x="277.5" y="42"/><ellipse cx="292.5" cy="62.0938" fill="#FF8B40" rx="11" ry="11" style="stroke:#A80036;stroke-width:1.0;"/><path d="M292.5,65.375 L294.0313,59.8438 L294.0313,59.8438 L293.5156,59.8438 L293,59.2188 L293,58.8438 L293,58.4688 L293.5156,57.8438 L294.0313,57.8438 L295.9063,57.8438 L296.4844,57.8438 L297,58.4688 L297,58.8438 L297,59.2188 L296.4844,59.8438 L296.4844,59.8438 L296.0313,59.8438 L293.6875,67.8438 L291.3125,67.8438 L288.8438,59.8438 L288.5156,59.8438 L288.5156,59.8438 L288,59.2188 L288,58.8438 L288,58.4688 L288.5156,57.8438 L289.0938,57.8438 L290.9688,57.8438 L291.4844,57.8438 L292,58.4688 L292,58.8438 L292,59.2188 L291.4844,59.8438 L290.9688,59.8438 L290.9688,59.8438 L292.5,65.375 Z " fill="#000000"/><text fill="#000000" font-family="sans-serif" font-size="12" font-style="italic" lengthAdjust="spacing" textLength="81" x="304.5" y="59.457">«value object»</text><text fill="#000000" font-family="sans-serif" font-size="12" lengthAdjust="spacing" textLength="37" x="326.5" y="74.5508">Range</text><line style="stroke:#A80036;stroke-width:1.5;" x1="278.5" x2="385.5" y1="82.1875" y2="82.1875"/><text fill="#000000" font-family="sans-serif" font-size="11" lengthAdjust="spacing" textLength="32" x="283.5" y="97.6064">-range</text><!--MD5=[9265192601ae3d68217fc2a2ce1ea439]
class ProductOrder--><rect codeLine="80" fill="#F5F5DC" filter="url(#f1033ja0ucek1x)" height="118.625" id="ProductOrder" style="stroke:#A80036;stroke-width:1.5;" width="105" x="569" y="505.5"/><ellipse cx="584" cy="533.1406" fill="#ADD1B2" rx="11" ry="11" style="stroke:#A80036;stroke-width:1.0;"/><path d="M582.5,534.1406 L582.5,536.1406 L586.5,536.1406 L586.5,535.1406 L586.5,534.6563 L587.125,534.1406 L587.5,534.1406 L587.875,534.1406 L588.5,534.6563 L588.5,535.1406 L588.5,538.1406 L580.5,538.1406 L580.0156,538.1406 L579.5,537.5156 L579.5,537.1406 L579.5,536.7656 L580.0156,536.1406 L580.5,536.1406 L580.5,536.1406 L580.5,530.1406 L580.5,530.1406 L580.0156,530.1406 L579.5,529.5156 L579.5,529.1406 L579.5,528.7656 L580.0156,528.1406 L580.5,528.1406 L588.5,528.1406 L588.5,531.1406 L588.5,531.625 L587.875,532.1406 L587.5,532.1406 L587.125,532.1406 L586.5,531.625 L586.5,531.1406 L586.5,530.1406 L582.5,530.1406 L582.5,532.1406 L583.5,532.1406 L583.5,531.6563 L583.5,531.6563 L584.125,531.1406 L584.5,531.1406 L584.875,531.1406 L585.5,531.6563 L585.5,532.1406 L585.5,534.1406 L585.5,534.625 L584.875,535.1406 L584.875,535.1406 L584.5,535.1406 L584.125,535.1406 L583.5,534.625 L583.5,534.625 L583.5,534.1406 L582.5,534.1406 Z " fill="#000000"/><text fill="#000000" font-family="sans-serif" font-size="12" font-style="italic" lengthAdjust="spacing" textLength="43" x="613" y="522.957">«entity»</text><text fill="#000000" font-family="sans-serif" font-size="12" font-style="italic" lengthAdjust="spacing" textLength="35" x="617" y="538.0508">«root»</text><text fill="#000000" font-family="sans-serif" font-size="12" lengthAdjust="spacing" textLength="73" x="598" y="553.1445">ProductOrder</text><line style="stroke:#A80036;stroke-width:1.5;" x1="570" x2="673" y1="560.7813" y2="560.7813"/><text fill="#000000" font-family="sans-serif" font-size="11" lengthAdjust="spacing" textLength="83" x="575" y="576.2002">-numericIdentifier</text><text fill="#000000" font-family="sans-serif" font-size="11" lengthAdjust="spacing" textLength="65" x="575" y="590.0361">-dateOfOrder</text><text fill="#000000" font-family="sans-serif" font-size="11" lengthAdjust="spacing" textLength="82" x="575" y="603.8721">-shipmentMethod</text><text fill="#000000" font-family="sans-serif" font-size="11" lengthAdjust="spacing" textLength="80" x="575" y="617.708">-paymentMethod</text><!--MD5=[003718b22fee2486eeba0fa029a176b7]
class OrderItem--><rect codeLine="88" fill="#F5F5DC" filter="url(#f1033ja0ucek1x)" height="62.0234" id="OrderItem" style="stroke:#A80036;stroke-width:1.5;" width="87" x="870.5" y="790"/><ellipse cx="885.5" cy="810.0938" fill="#ADD1B2" rx="11" ry="11" style="stroke:#A80036;stroke-width:1.0;"/><path d="M884,811.0938 L884,813.0938 L888,813.0938 L888,812.0938 L888,811.6094 L888.625,811.0938 L889,811.0938 L889.375,811.0938 L890,811.6094 L890,812.0938 L890,815.0938 L882,815.0938 L881.5156,815.0938 L881,814.4688 L881,814.0938 L881,813.7188 L881.5156,813.0938 L882,813.0938 L882,813.0938 L882,807.0938 L882,807.0938 L881.5156,807.0938 L881,806.4688 L881,806.0938 L881,805.7188 L881.5156,805.0938 L882,805.0938 L890,805.0938 L890,808.0938 L890,808.5781 L889.375,809.0938 L889,809.0938 L888.625,809.0938 L888,808.5781 L888,808.0938 L888,807.0938 L884,807.0938 L884,809.0938 L885,809.0938 L885,808.6094 L885,808.6094 L885.625,808.0938 L886,808.0938 L886.375,808.0938 L887,808.6094 L887,809.0938 L887,811.0938 L887,811.5781 L886.375,812.0938 L886.375,812.0938 L886,812.0938 L885.625,812.0938 L885,811.5781 L885,811.5781 L885,811.0938 L884,811.0938 Z " fill="#000000"/><text fill="#000000" font-family="sans-serif" font-size="12" font-style="italic" lengthAdjust="spacing" textLength="43" x="905.5" y="807.457">«entity»</text><text fill="#000000" font-family="sans-serif" font-size="12" lengthAdjust="spacing" textLength="55" x="899.5" y="822.5508">OrderItem</text><line style="stroke:#A80036;stroke-width:1.5;" x1="871.5" x2="956.5" y1="830.1875" y2="830.1875"/><text fill="#000000" font-family="sans-serif" font-size="11" lengthAdjust="spacing" textLength="63" x="876.5" y="845.6064">-itemQuantity</text><!--MD5=[3828be2b28a85080785365999f855b6a]
class TotalPriceWithoutVAT--><rect codeLine="92" fill="#F5F5DC" filter="url(#f1033ja0ucek1x)" height="48.1875" id="TotalPriceWithoutVAT" style="stroke:#A80036;stroke-width:1.5;" width="149" x="547" y="405"/><ellipse cx="562" cy="425.0938" fill="#FF8B40" rx="11" ry="11" style="stroke:#A80036;stroke-width:1.0;"/><path d="M562,428.375 L563.5313,422.8438 L563.5313,422.8438 L563.0156,422.8438 L562.5,422.2188 L562.5,421.8438 L562.5,421.4688 L563.0156,420.8438 L563.5313,420.8438 L565.4063,420.8438 L565.9844,420.8438 L566.5,421.4688 L566.5,421.8438 L566.5,422.2188 L565.9844,422.8438 L565.9844,422.8438 L565.5313,422.8438 L563.1875,430.8438 L560.8125,430.8438 L558.3438,422.8438 L558.0156,422.8438 L558.0156,422.8438 L557.5,422.2188 L557.5,421.8438 L557.5,421.4688 L558.0156,420.8438 L558.5938,420.8438 L560.4688,420.8438 L560.9844,420.8438 L561.5,421.4688 L561.5,421.8438 L561.5,422.2188 L560.9844,422.8438 L560.4688,422.8438 L560.4688,422.8438 L562,428.375 Z " fill="#000000"/><text fill="#000000" font-family="sans-serif" font-size="12" font-style="italic" lengthAdjust="spacing" textLength="81" x="594" y="422.457">«value object»</text><text fill="#000000" font-family="sans-serif" font-size="12" lengthAdjust="spacing" textLength="117" x="576" y="437.5508">TotalPriceWithoutVAT</text><line style="stroke:#A80036;stroke-width:1.5;" x1="548" x2="695" y1="445.1875" y2="445.1875"/><!--MD5=[5c64c933edd35b792f77c287ddc023c2]
class TotalPriceWithVAT--><rect codeLine="93" fill="#F5F5DC" filter="url(#f1033ja0ucek1x)" height="48.1875" id="TotalPriceWithVAT" style="stroke:#A80036;stroke-width:1.5;" width="132" x="848" y="707"/><ellipse cx="863" cy="727.0938" fill="#FF8B40" rx="11" ry="11" style="stroke:#A80036;stroke-width:1.0;"/><path d="M863,730.375 L864.5313,724.8438 L864.5313,724.8438 L864.0156,724.8438 L863.5,724.2188 L863.5,723.8438 L863.5,723.4688 L864.0156,722.8438 L864.5313,722.8438 L866.4063,722.8438 L866.9844,722.8438 L867.5,723.4688 L867.5,723.8438 L867.5,724.2188 L866.9844,724.8438 L866.9844,724.8438 L866.5313,724.8438 L864.1875,732.8438 L861.8125,732.8438 L859.3438,724.8438 L859.0156,724.8438 L859.0156,724.8438 L858.5,724.2188 L858.5,723.8438 L858.5,723.4688 L859.0156,722.8438 L859.5938,722.8438 L861.4688,722.8438 L861.9844,722.8438 L862.5,723.4688 L862.5,723.8438 L862.5,724.2188 L861.9844,724.8438 L861.4688,724.8438 L861.4688,724.8438 L863,730.375 Z " fill="#000000"/><text fill="#000000" font-family="sans-serif" font-size="12" font-style="italic" lengthAdjust="spacing" textLength="81" x="886.5" y="724.457">«value object»</text><text fill="#000000" font-family="sans-serif" font-size="12" lengthAdjust="spacing" textLength="100" x="877" y="739.5508">TotalPriceWithVAT</text><line style="stroke:#A80036;stroke-width:1.5;" x1="849" x2="979" y1="747.1875" y2="747.1875"/><!--MD5=[e3d83ec5fd90ea9f3f2bfe265cb53458]
class Status--><rect codeLine="96" fill="#F5F5DC" filter="url(#f1033ja0ucek1x)" height="48.1875" id="Status" style="stroke:#A80036;stroke-width:1.5;" width="109" x="859.5" y="624"/><ellipse cx="874.5" cy="644.0938" fill="#FF8B40" rx="11" ry="11" style="stroke:#A80036;stroke-width:1.0;"/><path d="M874.5,647.375 L876.0313,641.8438 L876.0313,641.8438 L875.5156,641.8438 L875,641.2188 L875,640.8438 L875,640.4688 L875.5156,639.8438 L876.0313,639.8438 L877.9063,639.8438 L878.4844,639.8438 L879,640.4688 L879,640.8438 L879,641.2188 L878.4844,641.8438 L878.4844,641.8438 L878.0313,641.8438 L875.6875,649.8438 L873.3125,649.8438 L870.8438,641.8438 L870.5156,641.8438 L870.5156,641.8438 L870,641.2188 L870,640.8438 L870,640.4688 L870.5156,639.8438 L871.0938,639.8438 L872.9688,639.8438 L873.4844,639.8438 L874,640.4688 L874,640.8438 L874,641.2188 L873.4844,641.8438 L872.9688,641.8438 L872.9688,641.8438 L874.5,647.375 Z " fill="#000000"/><text fill="#000000" font-family="sans-serif" font-size="12" font-style="italic" lengthAdjust="spacing" textLength="81" x="886.5" y="641.457">«value object»</text><text fill="#000000" font-family="sans-serif" font-size="12" lengthAdjust="spacing" textLength="35" x="909.5" y="656.5508">Status</text><line style="stroke:#A80036;stroke-width:1.5;" x1="860.5" x2="967.5" y1="664.1875" y2="664.1875"/><!--MD5=[9a3d507cf6fc93d670446401c6fc7dfc]
class TotalVolume--><rect codeLine="97" fill="#F5F5DC" filter="url(#f1033ja0ucek1x)" height="48.1875" id="TotalVolume" style="stroke:#A80036;stroke-width:1.5;" width="109" x="859.5" y="541"/><ellipse cx="874.5" cy="561.0938" fill="#FF8B40" rx="11" ry="11" style="stroke:#A80036;stroke-width:1.0;"/><path d="M874.5,564.375 L876.0313,558.8438 L876.0313,558.8438 L875.5156,558.8438 L875,558.2188 L875,557.8438 L875,557.4688 L875.5156,556.8438 L876.0313,556.8438 L877.9063,556.8438 L878.4844,556.8438 L879,557.4688 L879,557.8438 L879,558.2188 L878.4844,558.8438 L878.4844,558.8438 L878.0313,558.8438 L875.6875,566.8438 L873.3125,566.8438 L870.8438,558.8438 L870.5156,558.8438 L870.5156,558.8438 L870,558.2188 L870,557.8438 L870,557.4688 L870.5156,556.8438 L871.0938,556.8438 L872.9688,556.8438 L873.4844,556.8438 L874,557.4688 L874,557.8438 L874,558.2188 L873.4844,558.8438 L872.9688,558.8438 L872.9688,558.8438 L874.5,564.375 Z " fill="#000000"/><text fill="#000000" font-family="sans-serif" font-size="12" font-style="italic" lengthAdjust="spacing" textLength="81" x="886.5" y="558.457">«value object»</text><text fill="#000000" font-family="sans-serif" font-size="12" lengthAdjust="spacing" textLength="69" x="892.5" y="573.5508">TotalVolume</text><line style="stroke:#A80036;stroke-width:1.5;" x1="860.5" x2="967.5" y1="581.1875" y2="581.1875"/><!--MD5=[2de810a4f4496708d1b1d2c65d69f81b]
class TotalWeight--><rect codeLine="98" fill="#F5F5DC" filter="url(#f1033ja0ucek1x)" height="48.1875" id="TotalWeight" style="stroke:#A80036;stroke-width:1.5;" width="109" x="859.5" y="458"/><ellipse cx="874.5" cy="478.0938" fill="#FF8B40" rx="11" ry="11" style="stroke:#A80036;stroke-width:1.0;"/><path d="M874.5,481.375 L876.0313,475.8438 L876.0313,475.8438 L875.5156,475.8438 L875,475.2188 L875,474.8438 L875,474.4688 L875.5156,473.8438 L876.0313,473.8438 L877.9063,473.8438 L878.4844,473.8438 L879,474.4688 L879,474.8438 L879,475.2188 L878.4844,475.8438 L878.4844,475.8438 L878.0313,475.8438 L875.6875,483.8438 L873.3125,483.8438 L870.8438,475.8438 L870.5156,475.8438 L870.5156,475.8438 L870,475.2188 L870,474.8438 L870,474.4688 L870.5156,473.8438 L871.0938,473.8438 L872.9688,473.8438 L873.4844,473.8438 L874,474.4688 L874,474.8438 L874,475.2188 L873.4844,475.8438 L872.9688,475.8438 L872.9688,475.8438 L874.5,481.375 Z " fill="#000000"/><text fill="#000000" font-family="sans-serif" font-size="12" font-style="italic" lengthAdjust="spacing" textLength="81" x="886.5" y="475.457">«value object»</text><text fill="#000000" font-family="sans-serif" font-size="12" lengthAdjust="spacing" textLength="65" x="894.5" y="490.5508">TotalWeight</text><line style="stroke:#A80036;stroke-width:1.5;" x1="860.5" x2="967.5" y1="498.1875" y2="498.1875"/><!--MD5=[50e91b14af953b75b920246565d9ae95]
class DeliveryAddress--><rect codeLine="94" fill="#F5F5DC" filter="url(#f1033ja0ucek1x)" height="48.1875" id="DeliveryAddress" style="stroke:#A80036;stroke-width:1.5;" width="121" x="853.5" y="375"/><ellipse cx="868.5" cy="395.0938" fill="#FF8B40" rx="11" ry="11" style="stroke:#A80036;stroke-width:1.0;"/><path d="M868.5,398.375 L870.0313,392.8438 L870.0313,392.8438 L869.5156,392.8438 L869,392.2188 L869,391.8438 L869,391.4688 L869.5156,390.8438 L870.0313,390.8438 L871.9063,390.8438 L872.4844,390.8438 L873,391.4688 L873,391.8438 L873,392.2188 L872.4844,392.8438 L872.4844,392.8438 L872.0313,392.8438 L869.6875,400.8438 L867.3125,400.8438 L864.8438,392.8438 L864.5156,392.8438 L864.5156,392.8438 L864,392.2188 L864,391.8438 L864,391.4688 L864.5156,390.8438 L865.0938,390.8438 L866.9688,390.8438 L867.4844,390.8438 L868,391.4688 L868,391.8438 L868,392.2188 L867.4844,392.8438 L866.9688,392.8438 L866.9688,392.8438 L868.5,398.375 Z " fill="#000000"/><text fill="#000000" font-family="sans-serif" font-size="12" font-style="italic" lengthAdjust="spacing" textLength="81" x="886.5" y="392.457">«value object»</text><text fill="#000000" font-family="sans-serif" font-size="12" lengthAdjust="spacing" textLength="89" x="882.5" y="407.5508">DeliveryAddress</text><line style="stroke:#A80036;stroke-width:1.5;" x1="854.5" x2="973.5" y1="415.1875" y2="415.1875"/><!--MD5=[9a51335c5b13b040816549c83a39a144]
class BillingAddress--><rect codeLine="95" fill="#F5F5DC" filter="url(#f1033ja0ucek1x)" height="48.1875" id="BillingAddress" style="stroke:#A80036;stroke-width:1.5;" width="112" x="858" y="292"/><ellipse cx="873" cy="312.0938" fill="#FF8B40" rx="11" ry="11" style="stroke:#A80036;stroke-width:1.0;"/><path d="M873,315.375 L874.5313,309.8438 L874.5313,309.8438 L874.0156,309.8438 L873.5,309.2188 L873.5,308.8438 L873.5,308.4688 L874.0156,307.8438 L874.5313,307.8438 L876.4063,307.8438 L876.9844,307.8438 L877.5,308.4688 L877.5,308.8438 L877.5,309.2188 L876.9844,309.8438 L876.9844,309.8438 L876.5313,309.8438 L874.1875,317.8438 L871.8125,317.8438 L869.3438,309.8438 L869.0156,309.8438 L869.0156,309.8438 L868.5,309.2188 L868.5,308.8438 L868.5,308.4688 L869.0156,307.8438 L869.5938,307.8438 L871.4688,307.8438 L871.9844,307.8438 L872.5,308.4688 L872.5,308.8438 L872.5,309.2188 L871.9844,309.8438 L871.4688,309.8438 L871.4688,309.8438 L873,315.375 Z " fill="#000000"/><text fill="#000000" font-family="sans-serif" font-size="12" font-style="italic" lengthAdjust="spacing" textLength="81" x="886.5" y="309.457">«value object»</text><text fill="#000000" font-family="sans-serif" font-size="12" lengthAdjust="spacing" textLength="80" x="887" y="324.5508">BillingAddress</text><line style="stroke:#A80036;stroke-width:1.5;" x1="859" x2="969" y1="332.1875" y2="332.1875"/><!--MD5=[2234673e5bfcd6f879a72487a4afa117]
link AGV to AGVId--><path codeLine="101" d="M74.79,422.14 C82.71,383.67 99.54,324.89 133,285 C170.1,240.77 228.81,209.72 272.69,191.12 " fill="none" id="AGV-to-AGVId" style="stroke:#222222;stroke-width:1.0;"/><polygon fill="#222222" points="277.42,189.14,267.5736,188.92,272.8067,191.0681,270.6586,196.3013,277.42,189.14" style="stroke:#222222;stroke-width:1.0;"/><text fill="#000000" font-family="sans-serif" font-size="13" lengthAdjust="spacing" textLength="21" x="171.5" y="207.4951">has</text><text fill="#000000" font-family="sans-serif" font-size="13" lengthAdjust="spacing" textLength="7" x="262.6155" y="206.3041">1</text><!--MD5=[b428ecffb88d381ab19e968f9006f1fa]
link AGV to Range--><path codeLine="102" d="M68.12,422.17 C69.47,364.74 79.61,256.29 133,185 C167.72,138.64 227.64,108.64 272.49,91.47 " fill="none" id="AGV-to-Range" style="stroke:#222222;stroke-width:1.0;"/><polygon fill="#222222" points="277.33,89.64,267.4985,89.0548,272.6484,91.3956,270.3075,96.5454,277.33,89.64" style="stroke:#222222;stroke-width:1.0;"/><text fill="#000000" font-family="sans-serif" font-size="13" lengthAdjust="spacing" textLength="50" x="157" y="107.4951">respects</text><text fill="#000000" font-family="sans-serif" font-size="13" lengthAdjust="spacing" textLength="7" x="262.5134" y="106.4682">1</text><!--MD5=[6df205c85b5f33c8d427fd455753ef9d]
link AGV to AGVTask--><path codeLine="103" d="M103.29,475.08 C112.91,478.96 123.35,483.16 133,487 C179.5,505.53 232.24,526.3 271.6,541.74 " fill="none" id="AGV-to-AGVTask" style="stroke:#222222;stroke-width:1.0;"/><polygon fill="#222222" points="276.33,543.6,269.4145,536.5874,271.6759,541.7726,266.4907,544.034,276.33,543.6" style="stroke:#222222;stroke-width:1.0;"/><text fill="#000000" font-family="sans-serif" font-size="13" lengthAdjust="spacing" textLength="63" x="150.5" y="483.4951">associated</text><text fill="#000000" font-family="sans-serif" font-size="13" lengthAdjust="spacing" textLength="7" x="261.379" y="555.3276">1</text><!--MD5=[544b9eb422541cc431b04e90f57fdf55]
link AGV to AGVStatus--><path codeLine="104" d="M90.73,499.68 C101.93,517.02 116.61,536.92 133,552 C174.67,590.35 230.94,622.12 272.85,642.83 " fill="none" id="AGV-to-AGVStatus" style="stroke:#222222;stroke-width:1.0;"/><polygon fill="#222222" points="277.37,645.05,271.0414,637.5036,272.8781,642.8539,267.5277,644.6906,277.37,645.05" style="stroke:#222222;stroke-width:1.0;"/><text fill="#000000" font-family="sans-serif" font-size="13" lengthAdjust="spacing" textLength="45" x="159.5" y="548.4951">collects</text><text fill="#000000" font-family="sans-serif" font-size="13" lengthAdjust="spacing" textLength="20" x="249.4932" y="656.6212">1..*</text><!--MD5=[90de021bb2aa8991bb28cb59916c543e]
link AGV to Model--><path codeLine="105" d="M73.95,499.68 C81.35,540.16 97.9,603.74 133,647 C169.7,692.22 228.47,724.43 272.46,743.84 " fill="none" id="AGV-to-Model" style="stroke:#222222;stroke-width:1.0;"/><polygon fill="#222222" points="277.21,745.91,270.5595,738.6456,272.6269,743.9112,267.3614,745.9785,277.21,745.91" style="stroke:#222222;stroke-width:1.0;"/><text fill="#000000" font-family="sans-serif" font-size="13" lengthAdjust="spacing" textLength="21" x="171.5" y="643.4951">has</text><text fill="#000000" font-family="sans-serif" font-size="13" lengthAdjust="spacing" textLength="7" x="262.3773" y="757.8026">1</text><!--MD5=[a00a30fffa578e516f3e19cd4542a765]
link AGV to BriefDescription--><path codeLine="106" d="M67.61,499.63 C68.18,559.15 77.13,674.31 133,750 C166.11,794.86 222.74,824.56 266.97,842.21 " fill="none" id="AGV-to-BriefDescription" style="stroke:#222222;stroke-width:1.0;"/><polygon fill="#222222" points="271.75,844.09,264.8345,837.0774,267.0959,842.2626,261.9107,844.524,271.75,844.09" style="stroke:#222222;stroke-width:1.0;"/><text fill="#000000" font-family="sans-serif" font-size="13" lengthAdjust="spacing" textLength="96" x="134" y="746.4951">characterized by</text><text fill="#000000" font-family="sans-serif" font-size="13" lengthAdjust="spacing" textLength="7" x="256.9805" y="856.2755">1</text><!--MD5=[6d8c6a02073692a8b3732d0820cd1b6f]
link AGV to MaxWeightCapacity--><path codeLine="107" d="M103.09,461 C142.25,461 207.19,461 257.76,461 " fill="none" id="AGV-to-MaxWeightCapacity" style="stroke:#222222;stroke-width:1.0;"/><polygon fill="#222222" points="262.91,461,253.91,457,257.91,461,253.91,465,262.91,461" style="stroke:#222222;stroke-width:1.0;"/><text fill="#000000" font-family="sans-serif" font-size="13" lengthAdjust="spacing" textLength="50" x="157" y="457.4951">respects</text><text fill="#000000" font-family="sans-serif" font-size="13" lengthAdjust="spacing" textLength="7" x="247.9705" y="475.3881">1</text><!--MD5=[4c00ca5a25f901c6cb5884f2d77c2768]
link AGV to MaxVolumeCapacity--><path codeLine="108" d="M103.22,446.72 C112.83,442.84 123.3,438.69 133,435 C173.34,419.64 218.63,403.33 255.71,390.22 " fill="none" id="AGV-to-MaxVolumeCapacity" style="stroke:#222222;stroke-width:1.0;"/><polygon fill="#222222" points="260.66,388.48,250.8428,387.691,255.9429,390.1381,253.4958,395.2383,260.66,388.48" style="stroke:#222222;stroke-width:1.0;"/><text fill="#000000" font-family="sans-serif" font-size="13" lengthAdjust="spacing" textLength="50" x="157" y="396.4951">respects</text><text fill="#000000" font-family="sans-serif" font-size="13" lengthAdjust="spacing" textLength="7" x="245.9421" y="405.3415">1</text><!--MD5=[bf5efedcc9e681833f119f210f8fc209]
link AGV to AGVPosition--><path codeLine="109" d="M91.66,422.48 C102.75,406.17 117.09,387.79 133,374 C174.79,337.78 230.9,308.9 272.72,290.32 " fill="none" id="AGV-to-AGVPosition" style="stroke:#222222;stroke-width:1.0;"/><polygon fill="#222222" points="277.49,288.22,267.6412,288.1885,272.9145,290.2361,270.8669,295.5094,277.49,288.22" style="stroke:#222222;stroke-width:1.0;"/><text fill="#000000" font-family="sans-serif" font-size="13" lengthAdjust="spacing" textLength="56" x="154" y="307.4951">located in</text><text fill="#000000" font-family="sans-serif" font-size="13" lengthAdjust="spacing" textLength="7" x="262.3323" y="305.8473">1</text><!--MD5=[9d37365661f3e769065fd3b311322e5f]
link ProductOrder to TotalPriceWithoutVAT--><path codeLine="111" d="M621.5,505.35 C621.5,489.09 621.5,472.19 621.5,458.43 " fill="none" id="ProductOrder-to-TotalPriceWithoutVAT" style="stroke:#222222;stroke-width:1.0;"/><polygon fill="#222222" points="621.5,453.13,617.5,462.13,621.5,458.13,625.5,462.13,621.5,453.13" style="stroke:#222222;stroke-width:1.0;"/><text fill="#000000" font-family="sans-serif" font-size="13" lengthAdjust="spacing" textLength="57" x="581" y="484.7451">is marked</text><text fill="#000000" font-family="sans-serif" font-size="13" lengthAdjust="spacing" textLength="7" x="613.6031" y="474.8795">1</text><!--MD5=[c3c91fd6b69ecb92ab5355007e5de131]
link ProductOrder to TotalPriceWithVAT--><path codeLine="112" d="M674.03,608.52 C690.13,621.09 708.32,634.29 726,645 C764.32,668.21 809.96,689.31 846.55,704.8 " fill="none" id="ProductOrder-to-TotalPriceWithVAT" style="stroke:#222222;stroke-width:1.0;"/><polygon fill="#222222" points="851.43,706.86,844.6875,699.6809,846.8218,704.9197,841.5831,707.054,851.43,706.86" style="stroke:#222222;stroke-width:1.0;"/><text fill="#000000" font-family="sans-serif" font-size="13" lengthAdjust="spacing" textLength="57" x="743.5" y="641.4951">is marked</text><text fill="#000000" font-family="sans-serif" font-size="13" lengthAdjust="spacing" textLength="7" x="833.0742" y="698.8452">1</text><!--MD5=[ac4c49bc24431560733104ccf6b1c608]
link ProductOrder to Status--><path codeLine="113" d="M674.1,579.74 C724.64,594.18 801.56,616.16 854.39,631.25 " fill="none" id="ProductOrder-to-Status" style="stroke:#222222;stroke-width:1.0;"/><polygon fill="#222222" points="859.42,632.69,851.8652,626.3714,854.6124,631.3164,849.6674,634.0636,859.42,632.69" style="stroke:#222222;stroke-width:1.0;"/><text fill="#000000" font-family="sans-serif" font-size="13" lengthAdjust="spacing" textLength="24" x="760" y="593.4951">is in</text><text fill="#000000" font-family="sans-serif" font-size="13" lengthAdjust="spacing" textLength="7" x="844.6155" y="645.2139">1</text><!--MD5=[563a6ede6ece78cc638570b856330fe7]
link ProductOrder to TotalVolume--><path codeLine="114" d="M674.1,565 C724.64,565 801.56,565 854.39,565 " fill="none" id="ProductOrder-to-TotalVolume" style="stroke:#222222;stroke-width:1.0;"/><polygon fill="#222222" points="859.42,565,850.42,561,854.42,565,850.42,569,859.42,565" style="stroke:#222222;stroke-width:1.0;"/><text fill="#000000" font-family="sans-serif" font-size="13" lengthAdjust="spacing" textLength="90" x="727" y="561.4951">associated with</text><text fill="#000000" font-family="sans-serif" font-size="13" lengthAdjust="spacing" textLength="7" x="844.6155" y="579.5811">1</text><!--MD5=[6617a929b741938ab332a1b483a4790e]
link ProductOrder to TotalWeight--><path codeLine="115" d="M674.1,550.26 C724.64,535.82 801.56,513.84 854.39,498.75 " fill="none" id="ProductOrder-to-TotalWeight" style="stroke:#222222;stroke-width:1.0;"/><polygon fill="#222222" points="859.42,497.31,849.6674,495.9364,854.6124,498.6836,851.8652,503.6286,859.42,497.31" style="stroke:#222222;stroke-width:1.0;"/><text fill="#000000" font-family="sans-serif" font-size="13" lengthAdjust="spacing" textLength="90" x="727" y="508.4951">associated with</text><text fill="#000000" font-family="sans-serif" font-size="13" lengthAdjust="spacing" textLength="7" x="844.6155" y="513.9484">1</text><!--MD5=[03880c74fb0017f0ee6a768396cad903]
link ProductOrder to DeliveryAddress--><path codeLine="116" d="M674.12,522.11 C690.23,509.7 708.4,496.64 726,486 C765,462.42 811.45,440.78 848.3,424.98 " fill="none" id="ProductOrder-to-DeliveryAddress" style="stroke:#222222;stroke-width:1.0;"/><polygon fill="#222222" points="853.2,422.89,843.3524,422.7328,848.5991,424.8475,846.4844,430.0942,853.2,422.89" style="stroke:#222222;stroke-width:1.0;"/><text fill="#000000" font-family="sans-serif" font-size="13" lengthAdjust="spacing" textLength="90" x="727" y="436.4951">associated with</text><text fill="#000000" font-family="sans-serif" font-size="13" lengthAdjust="spacing" textLength="7" x="838.3634" y="440.2817">1</text><!--MD5=[8f2520dded3c7e1b7a910e55a1daad5a]
link ProductOrder to BillingAddress--><path codeLine="117" d="M671.1,505.29 C679.74,493.82 688.4,481.72 696,470 C711.36,446.31 705.94,433.87 726,414 C761.78,378.55 813.02,352.92 852.83,336.78 " fill="none" id="ProductOrder-to-BillingAddress" style="stroke:#222222;stroke-width:1.0;"/><polygon fill="#222222" points="857.62,334.86,847.7778,334.4991,852.9796,336.7219,850.7568,341.9237,857.62,334.86" style="stroke:#222222;stroke-width:1.0;"/><text fill="#000000" font-family="sans-serif" font-size="13" lengthAdjust="spacing" textLength="90" x="727" y="350.4951">associated with</text><text fill="#000000" font-family="sans-serif" font-size="13" lengthAdjust="spacing" textLength="7" x="842.9479" y="351.8071">1</text><!--MD5=[8feb8c37ecca0257623b4f62f4bc0d00]
link ProductOrder to OrderItem--><path codeLine="118" d="M653.91,624.82 C672.04,655.35 696.98,691.52 726,718 C767.43,755.81 825.24,784.92 865.57,802.39 " fill="none" id="ProductOrder-to-OrderItem" style="stroke:#222222;stroke-width:1.0;"/><polygon fill="#222222" points="870.4,804.47,863.7115,797.2406,865.8065,802.4952,860.5519,804.5902,870.4,804.47" style="stroke:#222222;stroke-width:1.0;"/><text fill="#000000" font-family="sans-serif" font-size="13" lengthAdjust="spacing" textLength="78" x="733" y="714.4951">composed by</text><text fill="#000000" font-family="sans-serif" font-size="13" lengthAdjust="spacing" textLength="20" x="842.5275" y="816.7364">1..*</text><!--MD5=[c9876babfca3f6c3169d35155ea7a92b]
link AGVTask to ProductOrder--><path codeLine="120" d="M387.75,565 C438.16,565 512.63,565 563.68,565 " fill="none" id="AGVTask-to-ProductOrder" style="stroke:#222222;stroke-width:1.0;"/><polygon fill="#222222" points="568.85,565,559.85,561,563.85,565,559.85,569,568.85,565" style="stroke:#222222;stroke-width:1.0;"/><text fill="#000000" font-family="sans-serif" font-size="13" lengthAdjust="spacing" textLength="78" x="436" y="561.4951">composed by</text><text fill="#000000" font-family="sans-serif" font-size="13" lengthAdjust="spacing" textLength="20" x="540.823" y="579.5667">1..*</text><!--MD5=[e937d7dbef87ef238fc5a0c41056128a]
@startuml

hide methods
left to right direction
skinparam classAttributeIconSize 0
skinparam classBackgroundColor beige
skinparam ArrowColor #222222


package "<<aggregate>> AGV" {
    entity AGV
    class BriefDescription
    class Model
    class AGVStatus
    entity AGVTask
    class MaxWeightCapacity
    class MaxVolumeCapacity
    class AGVPosition
    class AGVId
    class Range
}


entity AGV <<entity>> <<root>> {
    -state
}


entity AGV <<entity>> <<root>> {}

class BriefDescription <<(V,#FF8B40) value object>> {
-briefDescription
}

class Model <<(V,#FF8B40) value object>> {
-model
}

class AGVPosition <<(V,#FF8B40) value object>> {
-agvPosition
}

class AGVStatus<<(V,#FF8B40) value object>> {
    -taskState
}

entity AGVTask <<entity>> {
    -id
    -agvTaskDescription
}

class AGVId <<(V,#FF8B40) value object>> {
-id
}

class Range <<(V,#FF8B40) value object>> {
-range
}

class MaxWeightCapacity <<(V,#FF8B40) value object>> {
-maxWeightCapacity
}

class MaxVolumeCapacity <<(V,#FF8B40) value object>> {
-volume
}

package "<<aggregate>> ProductOrder"{
    entity ProductOrder
    entity OrderItem
    class TotalPriceWithoutVAT
    class TotalPriceWithVAT
    class Status
    class TotalVolume
    class TotalWeight
    class DeliveryAddress
    class BillingAddress
}


entity ProductOrder <<entity>> <<root>> {
- numericIdentifier
- dateOfOrder
- shipmentMethod
- paymentMethod

}

entity OrderItem <<entity>> {
    -itemQuantity
}

class TotalPriceWithoutVAT <<(V,#FF8B40) value object>> {}
class TotalPriceWithVAT <<(V,#FF8B40) value object>> {}
class DeliveryAddress <<(V,#FF8B40) value object>> {}
class BillingAddress <<(V,#FF8B40) value object>> {}
class Status <<(V,#FF8B40) value object>> {}
class TotalVolume <<(V,#FF8B40) value object>> {}
class TotalWeight <<(V,#FF8B40) value object>> {}


AGV - -> "1" AGVId : has
AGV - -> "1" Range : respects
AGV - -> "1" AGVTask : associated
AGV - -> "1..*" AGVStatus : collects
AGV - -> "1" Model : has
AGV - -> "1" BriefDescription : characterized by
AGV - -> "1" MaxWeightCapacity : respects
AGV - -> "1" MaxVolumeCapacity : respects
AGV - -> "1" AGVPosition : located in

ProductOrder -> "1" TotalPriceWithoutVAT : is marked
ProductOrder - -> "1" TotalPriceWithVAT : is marked
ProductOrder - -> "1" Status : is in
ProductOrder - -> "1" TotalVolume : associated with
ProductOrder - -> "1" TotalWeight : associated with
ProductOrder - -> "1" DeliveryAddress : associated with
ProductOrder - -> "1" BillingAddress : associated with
ProductOrder - -> "1..*" OrderItem : composed by

AGVTask - -> "1..*" ProductOrder : composed by

@enduml

PlantUML version 1.2022.1(Tue Feb 01 18:19:58 GMT 2022)
(GPL source distribution)
Java Runtime: OpenJDK Runtime Environment
JVM: OpenJDK 64-Bit Server VM
Default Encoding: Cp1252
Language: pt
Country: BR
--></g></svg>